<?xml version="1.0" encoding="utf-8"?>
<!-- Generator: Adobe Illustrator 26.1.0, SVG Export Plug-In . SVG Version: 6.00 Build 0)  -->
<svg version="1.1" id="Layer_1" xmlns="http://www.w3.org/2000/svg" xmlns:xlink="http://www.w3.org/1999/xlink" x="0px" y="0px"
	 viewBox="0 0 750 500" style="enable-background:new 0 0 750 500;" xml:space="preserve">
<style type="text/css">
	.st0{opacity:0.8;fill:#0D0D36;enable-background:new    ;}
	.st1{fill:#FFFFFF;}
	.st2{fill:#002FE9;}
</style>
<g id="BACKGROUND">
	<rect class="st0" width="750" height="500"/>
</g>
<g id="OBJECTS">
	<g>
		<g>
			<g>
				<path class="st1" d="M250.71,73.5h-22.44l11.22-19.44L250.71,73.5z M232.61,70.99h13.76l-6.88-11.91L232.61,70.99z"/>
			</g>
			<g>
				<path class="st1" d="M702.96,440.17l-15.19-26.31h30.38L702.96,440.17z M697.14,419.27l5.82,10.07l5.82-10.07H697.14z"/>
			</g>
		</g>
	</g>
	<g>
		<path class="st1" d="M0.32,496.16h2.32v-2.32H0.32V496.16z M10.77,496.16h2.32v-2.32h-2.32V496.16z M21.22,496.16h2.32v-2.32
			h-2.32V496.16z M31.67,496.16h2.32v-2.32h-2.32V496.16z M42.13,496.16h2.32v-2.32h-2.32V496.16z M52.58,496.16h2.32v-2.32h-2.32
			V496.16z M63.03,496.16h2.32v-2.32h-2.32V496.16z M73.48,496.16h2.32v-2.32h-2.32V496.16z M83.93,496.16h2.32v-2.32h-2.32V496.16z
			 M94.38,496.16h2.32v-2.32h-2.32V496.16z M104.83,496.16h2.32v-2.32h-2.32V496.16z M115.29,496.16h2.32v-2.32h-2.32V496.16z
			 M125.74,496.16h2.32v-2.32h-2.32V496.16z M0.32,485.71h2.32v-2.32H0.32V485.71z M10.77,485.71h2.32v-2.32h-2.32V485.71z
			 M21.22,485.71h2.32v-2.32h-2.32V485.71z M31.67,485.71h2.32v-2.32h-2.32V485.71z M42.13,485.71h2.32v-2.32h-2.32V485.71z
			 M52.58,485.71h2.32v-2.32h-2.32V485.71z M63.03,485.71h2.32v-2.32h-2.32V485.71z M73.48,485.71h2.32v-2.32h-2.32V485.71z
			 M83.93,485.71h2.32v-2.32h-2.32V485.71z M94.38,485.71h2.32v-2.32h-2.32V485.71z M104.83,485.71h2.32v-2.32h-2.32V485.71z
			 M115.29,485.71h2.32v-2.32h-2.32V485.71z M125.74,485.71h2.32v-2.32h-2.32V485.71z M0.32,475.26h2.32v-2.32H0.32V475.26z
			 M10.77,475.26h2.32v-2.32h-2.32V475.26z M21.22,475.26h2.32v-2.32h-2.32V475.26z M31.67,475.26h2.32v-2.32h-2.32V475.26z
			 M42.13,475.26h2.32v-2.32h-2.32V475.26z M52.58,475.26h2.32v-2.32h-2.32V475.26z M63.03,475.26h2.32v-2.32h-2.32V475.26z
			 M73.48,475.26h2.32v-2.32h-2.32V475.26z M83.93,475.26h2.32v-2.32h-2.32V475.26z M94.38,475.26h2.32v-2.32h-2.32V475.26z
			 M104.83,475.26h2.32v-2.32h-2.32V475.26z M115.29,475.26h2.32v-2.32h-2.32V475.26z M125.74,475.26h2.32v-2.32h-2.32V475.26z
			 M0.32,464.81h2.32v-2.32H0.32V464.81z M10.77,464.81h2.32v-2.32h-2.32V464.81z M21.22,464.81h2.32v-2.32h-2.32V464.81z
			 M31.67,464.81h2.32v-2.32h-2.32V464.81z M42.13,464.81h2.32v-2.32h-2.32V464.81z M52.58,464.81h2.32v-2.32h-2.32V464.81z
			 M63.03,464.81h2.32v-2.32h-2.32V464.81z M73.48,464.81h2.32v-2.32h-2.32V464.81z M83.93,464.81h2.32v-2.32h-2.32V464.81z
			 M94.38,464.81h2.32v-2.32h-2.32V464.81z M104.83,464.81h2.32v-2.32h-2.32V464.81z M115.29,464.81h2.32v-2.32h-2.32V464.81z
			 M125.74,464.81h2.32v-2.32h-2.32V464.81z M0.32,454.35h2.32v-2.32H0.32V454.35z M10.77,454.35h2.32v-2.32h-2.32V454.35z
			 M21.22,454.35h2.32v-2.32h-2.32V454.35z M31.67,454.35h2.32v-2.32h-2.32V454.35z M42.13,454.35h2.32v-2.32h-2.32V454.35z
			 M52.58,454.35h2.32v-2.32h-2.32V454.35z M63.03,454.35h2.32v-2.32h-2.32V454.35z M73.48,454.35h2.32v-2.32h-2.32V454.35z
			 M83.93,454.35h2.32v-2.32h-2.32V454.35z M94.38,454.35h2.32v-2.32h-2.32V454.35z M104.83,454.35h2.32v-2.32h-2.32V454.35z
			 M115.29,454.35h2.32v-2.32h-2.32V454.35z M125.74,454.35h2.32v-2.32h-2.32V454.35z M0.32,443.9h2.32v-2.32H0.32V443.9z
			 M10.77,443.9h2.32v-2.32h-2.32V443.9z M21.22,443.9h2.32v-2.32h-2.32V443.9z M31.67,443.9h2.32v-2.32h-2.32V443.9z M42.13,443.9
			h2.32v-2.32h-2.32V443.9z M52.58,443.9h2.32v-2.32h-2.32V443.9z M63.03,443.9h2.32v-2.32h-2.32V443.9z M73.48,443.9h2.32v-2.32
			h-2.32V443.9z M83.93,443.9h2.32v-2.32h-2.32V443.9z M94.38,443.9h2.32v-2.32h-2.32V443.9z M104.83,443.9h2.32v-2.32h-2.32V443.9z
			 M115.29,443.9h2.32v-2.32h-2.32V443.9z M125.74,443.9h2.32v-2.32h-2.32V443.9z M0.32,433.45h2.32v-2.32H0.32V433.45z
			 M10.77,433.45h2.32v-2.32h-2.32V433.45z M21.22,433.45h2.32v-2.32h-2.32V433.45z M31.67,433.45h2.32v-2.32h-2.32V433.45z
			 M42.13,433.45h2.32v-2.32h-2.32V433.45z M52.58,433.45h2.32v-2.32h-2.32V433.45z M63.03,433.45h2.32v-2.32h-2.32V433.45z
			 M73.48,433.45h2.32v-2.32h-2.32V433.45z M83.93,433.45h2.32v-2.32h-2.32V433.45z M94.38,433.45h2.32v-2.32h-2.32V433.45z
			 M104.83,433.45h2.32v-2.32h-2.32V433.45z M115.29,433.45h2.32v-2.32h-2.32V433.45z M125.74,433.45h2.32v-2.32h-2.32V433.45z
			 M0.32,423h2.32v-2.32H0.32V423z M10.77,423h2.32v-2.32h-2.32V423z M21.22,423h2.32v-2.32h-2.32V423z M31.67,423h2.32v-2.32h-2.32
			V423z M42.13,423h2.32v-2.32h-2.32V423z M52.58,423h2.32v-2.32h-2.32V423z M63.03,423h2.32v-2.32h-2.32V423z M73.48,423h2.32
			v-2.32h-2.32V423z M83.93,423h2.32v-2.32h-2.32V423z M94.38,423h2.32v-2.32h-2.32V423z M104.83,423h2.32v-2.32h-2.32V423z
			 M115.29,423h2.32v-2.32h-2.32V423z M125.74,423h2.32v-2.32h-2.32V423z M0.32,412.55h2.32v-2.32H0.32V412.55z M10.77,412.55h2.32
			v-2.32h-2.32V412.55z M21.22,412.55h2.32v-2.32h-2.32V412.55z M31.67,412.55h2.32v-2.32h-2.32V412.55z M42.13,412.55h2.32v-2.32
			h-2.32V412.55z M52.58,412.55h2.32v-2.32h-2.32V412.55z M63.03,412.55h2.32v-2.32h-2.32V412.55z M73.48,412.55h2.32v-2.32h-2.32
			V412.55z M83.93,412.55h2.32v-2.32h-2.32V412.55z M94.38,412.55h2.32v-2.32h-2.32V412.55z M104.83,412.55h2.32v-2.32h-2.32V412.55
			z M115.29,412.55h2.32v-2.32h-2.32V412.55z M125.74,412.55h2.32v-2.32h-2.32V412.55z"/>
		<path class="st1" d="M-1.68,95.13h2.32v-2.32h-2.32V95.13z M8.77,95.13h2.32v-2.32H8.77V95.13z M19.23,95.13h2.32v-2.32h-2.32
			V95.13z M29.68,95.13H32v-2.32h-2.32V95.13z M40.13,95.13h2.32v-2.32h-2.32V95.13z M50.58,95.13h2.32v-2.32h-2.32V95.13z
			 M61.03,95.13h2.32v-2.32h-2.32V95.13z M71.48,95.13h2.32v-2.32h-2.32V95.13z M81.93,95.13h2.32v-2.32h-2.32V95.13z M92.39,95.13
			h2.32v-2.32h-2.32V95.13z M102.84,95.13h2.32v-2.32h-2.32V95.13z M113.29,95.13h2.32v-2.32h-2.32V95.13z M123.74,95.13h2.32v-2.32
			h-2.32V95.13z M-1.68,84.68h2.32v-2.32h-2.32V84.68z M8.77,84.68h2.32v-2.32H8.77V84.68z M19.23,84.68h2.32v-2.32h-2.32V84.68z
			 M29.68,84.68H32v-2.32h-2.32V84.68z M40.13,84.68h2.32v-2.32h-2.32V84.68z M50.58,84.68h2.32v-2.32h-2.32V84.68z M61.03,84.68
			h2.32v-2.32h-2.32V84.68z M71.48,84.68h2.32v-2.32h-2.32V84.68z M81.93,84.68h2.32v-2.32h-2.32V84.68z M92.39,84.68h2.32v-2.32
			h-2.32V84.68z M102.84,84.68h2.32v-2.32h-2.32V84.68z M113.29,84.68h2.32v-2.32h-2.32V84.68z M123.74,84.68h2.32v-2.32h-2.32
			V84.68z M-1.68,74.23h2.32V71.9h-2.32V74.23z M8.77,74.23h2.32V71.9H8.77V74.23z M19.23,74.23h2.32V71.9h-2.32V74.23z
			 M29.68,74.23H32V71.9h-2.32V74.23z M40.13,74.23h2.32V71.9h-2.32V74.23z M50.58,74.23h2.32V71.9h-2.32V74.23z M61.03,74.23h2.32
			V71.9h-2.32V74.23z M71.48,74.23h2.32V71.9h-2.32V74.23z M81.93,74.23h2.32V71.9h-2.32V74.23z M92.39,74.23h2.32V71.9h-2.32V74.23
			z M102.84,74.23h2.32V71.9h-2.32V74.23z M113.29,74.23h2.32V71.9h-2.32V74.23z M123.74,74.23h2.32V71.9h-2.32V74.23z M-1.68,63.78
			h2.32v-2.32h-2.32V63.78z M8.77,63.78h2.32v-2.32H8.77V63.78z M19.23,63.78h2.32v-2.32h-2.32V63.78z M29.68,63.78H32v-2.32h-2.32
			V63.78z M40.13,63.78h2.32v-2.32h-2.32V63.78z M50.58,63.78h2.32v-2.32h-2.32V63.78z M61.03,63.78h2.32v-2.32h-2.32V63.78z
			 M71.48,63.78h2.32v-2.32h-2.32V63.78z M81.93,63.78h2.32v-2.32h-2.32V63.78z M92.39,63.78h2.32v-2.32h-2.32V63.78z M102.84,63.78
			h2.32v-2.32h-2.32V63.78z M113.29,63.78h2.32v-2.32h-2.32V63.78z M123.74,63.78h2.32v-2.32h-2.32V63.78z M-1.68,53.32h2.32V51
			h-2.32V53.32z M8.77,53.32h2.32V51H8.77V53.32z M19.23,53.32h2.32V51h-2.32V53.32z M29.68,53.32H32V51h-2.32V53.32z M40.13,53.32
			h2.32V51h-2.32V53.32z M50.58,53.32h2.32V51h-2.32V53.32z M61.03,53.32h2.32V51h-2.32V53.32z M71.48,53.32h2.32V51h-2.32V53.32z
			 M81.93,53.32h2.32V51h-2.32V53.32z M92.39,53.32h2.32V51h-2.32V53.32z M102.84,53.32h2.32V51h-2.32V53.32z M113.29,53.32h2.32V51
			h-2.32V53.32z M123.74,53.32h2.32V51h-2.32V53.32z M-1.68,42.87h2.32v-2.32h-2.32V42.87z M8.77,42.87h2.32v-2.32H8.77V42.87z
			 M19.23,42.87h2.32v-2.32h-2.32V42.87z M29.68,42.87H32v-2.32h-2.32V42.87z M40.13,42.87h2.32v-2.32h-2.32V42.87z M50.58,42.87
			h2.32v-2.32h-2.32V42.87z M61.03,42.87h2.32v-2.32h-2.32V42.87z M71.48,42.87h2.32v-2.32h-2.32V42.87z M81.93,42.87h2.32v-2.32
			h-2.32V42.87z M92.39,42.87h2.32v-2.32h-2.32V42.87z M102.84,42.87h2.32v-2.32h-2.32V42.87z M113.29,42.87h2.32v-2.32h-2.32V42.87
			z M123.74,42.87h2.32v-2.32h-2.32V42.87z M-1.68,32.42h2.32V30.1h-2.32V32.42z M8.77,32.42h2.32V30.1H8.77V32.42z M19.23,32.42
			h2.32V30.1h-2.32V32.42z M29.68,32.42H32V30.1h-2.32V32.42z M40.13,32.42h2.32V30.1h-2.32V32.42z M50.58,32.42h2.32V30.1h-2.32
			V32.42z M61.03,32.42h2.32V30.1h-2.32V32.42z M71.48,32.42h2.32V30.1h-2.32V32.42z M81.93,32.42h2.32V30.1h-2.32V32.42z
			 M92.39,32.42h2.32V30.1h-2.32V32.42z M102.84,32.42h2.32V30.1h-2.32V32.42z M113.29,32.42h2.32V30.1h-2.32V32.42z M123.74,32.42
			h2.32V30.1h-2.32V32.42z M-1.68,21.97h2.32v-2.32h-2.32V21.97z M8.77,21.97h2.32v-2.32H8.77V21.97z M19.23,21.97h2.32v-2.32h-2.32
			V21.97z M29.68,21.97H32v-2.32h-2.32V21.97z M40.13,21.97h2.32v-2.32h-2.32V21.97z M50.58,21.97h2.32v-2.32h-2.32V21.97z
			 M61.03,21.97h2.32v-2.32h-2.32V21.97z M71.48,21.97h2.32v-2.32h-2.32V21.97z M81.93,21.97h2.32v-2.32h-2.32V21.97z M92.39,21.97
			h2.32v-2.32h-2.32V21.97z M102.84,21.97h2.32v-2.32h-2.32V21.97z M113.29,21.97h2.32v-2.32h-2.32V21.97z M123.74,21.97h2.32v-2.32
			h-2.32V21.97z M-1.68,11.52h2.32V9.19h-2.32V11.52z M8.77,11.52h2.32V9.19H8.77V11.52z M19.23,11.52h2.32V9.19h-2.32V11.52z
			 M29.68,11.52H32V9.19h-2.32V11.52z M40.13,11.52h2.32V9.19h-2.32V11.52z M50.58,11.52h2.32V9.19h-2.32V11.52z M61.03,11.52h2.32
			V9.19h-2.32V11.52z M71.48,11.52h2.32V9.19h-2.32V11.52z M81.93,11.52h2.32V9.19h-2.32V11.52z M92.39,11.52h2.32V9.19h-2.32V11.52
			z M102.84,11.52h2.32V9.19h-2.32V11.52z M113.29,11.52h2.32V9.19h-2.32V11.52z M123.74,11.52h2.32V9.19h-2.32V11.52z M-1.68,1.07
			h2.32V0h-2.32V1.07z M8.77,1.07h2.32V0H8.77V1.07z M19.23,1.07h2.32V0h-2.32V1.07z M29.68,1.07H32V0h-2.32V1.07z M40.13,1.07h2.32
			V0h-2.32V1.07z M50.58,1.07h2.32V0h-2.32V1.07z M61.03,1.07h2.32V0h-2.32V1.07z M71.48,1.07h2.32V0h-2.32V1.07z M81.93,1.07h2.32
			V0h-2.32V1.07z M92.39,1.07h2.32V0h-2.32V1.07z M102.84,1.07h2.32V0h-2.32V1.07z M113.29,1.07h2.32V0h-2.32V1.07z M123.74,1.07
			h2.32V0h-2.32V1.07z"/>
	</g>
	<g>
		<g>
			<rect x="557.23" y="-188.13" class="st2" width="31.35" height="249.58"/>
			<rect x="622.26" y="-188.13" class="st2" width="31.35" height="249.58"/>
			<rect x="687.29" y="-188.13" class="st2" width="31.35" height="249.58"/>
		</g>
	</g>
	<g>
		<g>
			<polygon class="st1" points="449.88,27.01 446.05,30.84 442.23,27.01 440.27,28.97 444.09,32.8 440.27,36.62 442.23,38.58 
				446.05,34.76 449.88,38.58 451.84,36.62 448.01,32.8 451.84,28.97 			"/>
			<polygon class="st1" points="471.61,27.01 467.79,30.84 463.96,27.01 462,28.97 465.83,32.8 462,36.62 463.96,38.58 
				467.79,34.76 471.61,38.58 473.57,36.62 469.75,32.8 473.57,28.97 			"/>
			<polygon class="st1" points="495.31,28.97 493.35,27.01 489.52,30.84 485.7,27.01 483.74,28.97 487.56,32.8 483.74,36.62 
				485.7,38.58 489.52,34.76 493.35,38.58 495.31,36.62 491.48,32.8 			"/>
		</g>
		<g>
			<polygon class="st1" points="729.14,376.71 732.96,380.54 729.14,384.37 731.1,386.33 734.92,382.5 738.75,386.33 740.71,384.37 
				736.88,380.54 740.71,376.71 738.75,374.75 734.92,378.58 731.1,374.75 			"/>
			<polygon class="st1" points="729.14,354.98 732.96,358.81 729.14,362.63 731.1,364.59 734.92,360.77 738.75,364.59 
				740.71,362.63 736.88,358.81 740.71,354.98 738.75,353.02 734.92,356.85 731.1,353.02 			"/>
			<polygon class="st1" points="731.1,331.28 729.14,333.24 732.96,337.07 729.14,340.9 731.1,342.86 734.92,339.03 738.75,342.86 
				740.71,340.9 736.88,337.07 740.71,333.24 738.75,331.28 734.92,335.11 			"/>
		</g>
		<g>
			<polygon class="st1" points="245.39,452.09 241.57,455.92 237.74,452.09 235.78,454.05 239.61,457.88 235.78,461.7 
				237.74,463.66 241.57,459.84 245.39,463.66 247.35,461.7 243.53,457.88 247.35,454.05 			"/>
			<polygon class="st1" points="267.13,452.09 263.3,455.92 259.48,452.09 257.52,454.05 261.34,457.88 257.52,461.7 259.48,463.66 
				263.3,459.84 267.13,463.66 269.09,461.7 265.26,457.88 269.09,454.05 			"/>
			<polygon class="st1" points="290.82,454.05 288.86,452.09 285.04,455.92 281.21,452.09 279.25,454.05 283.08,457.88 
				279.25,461.7 281.21,463.66 285.04,459.84 288.86,463.66 290.82,461.7 287,457.88 			"/>
			<polygon class="st1" points="245.39,474.14 241.57,477.96 237.74,474.14 235.78,476.1 239.61,479.92 235.78,483.75 
				237.74,485.71 241.57,481.88 245.39,485.71 247.35,483.75 243.53,479.92 247.35,476.1 			"/>
			<polygon class="st1" points="267.13,474.14 263.3,477.96 259.48,474.14 257.52,476.1 261.34,479.92 257.52,483.75 259.48,485.71 
				263.3,481.88 267.13,485.71 269.09,483.75 265.26,479.92 269.09,476.1 			"/>
		</g>
	</g>
</g>
</svg>
