<?xml version="1.0" encoding="utf-8"?>
<!-- Generator: Adobe Illustrator 26.1.0, SVG Export Plug-In . SVG Version: 6.00 Build 0)  -->
<svg version="1.1" id="Layer_1" xmlns="http://www.w3.org/2000/svg" xmlns:xlink="http://www.w3.org/1999/xlink" x="0px" y="0px"
	 viewBox="0 0 200 200" style="enable-background:new 0 0 200 200;" xml:space="preserve">
<style type="text/css">
	.st0{fill:#002FE9;}
</style>
<g>
	<path class="st0" d="M101.49,5c3.37,1.45,4.51,4.01,4.5,7.66c-0.07,53.11-0.05,106.21-0.05,159.32c0,0.74,0,1.47,0,2.67
		c0.73-0.69,1.19-1.12,1.64-1.57c5.9-5.9,11.8-11.8,17.7-17.71c1.71-1.72,3.73-2.37,6.09-1.67c2.21,0.66,3.58,2.17,4.09,4.38
		c0.55,2.4-0.39,4.31-2.09,6c-7.5,7.45-14.96,14.94-22.43,22.42c-2.14,2.14-4.26,4.3-6.43,6.42c-2.84,2.78-6.2,2.79-9.01,0
		c-9.67-9.65-19.33-19.31-28.98-28.98c-2.69-2.7-2.84-6.27-0.42-8.74c2.42-2.46,6.06-2.36,8.74,0.31
		c5.83,5.8,11.64,11.62,17.44,17.44c0.47,0.47,0.86,1.03,1.28,1.54c0.17-0.07,0.33-0.14,0.5-0.22c0-0.7,0-1.41,0-2.11
		c0-53.17,0.02-106.34-0.05-159.5c0-3.63,1.1-6.21,4.5-7.65C99.51,5,100.5,5,101.49,5z"/>
</g>
</svg>
