<svg id="Layer_1" data-name="Layer 1" xmlns="http://www.w3.org/2000/svg" viewBox="0 0 453.54 80.92"><path d="M98.39 48c.33 3.68 3.09 6.94 8.27 6.94 4 0 6.11-2.17 6.11-4.68 0-2.17-1.51-3.85-4.77-4.51l-6-1.35c-7.19-1.58-11-6.27-11-11.87 0-7.11 6.52-13.12 15-13.12 11.38 0 15.05 7.36 15.72 11.37l-8.19 2.34c-.33-2.34-2.09-6.1-7.53-6.1-3.42 0-5.85 2.17-5.85 4.68 0 2.17 1.59 3.76 4.1 4.26l6.19 1.25c7.69 1.68 11.7 6.36 11.7 12.37 0 6.2-5 13-15.38 13-11.79 0-16.3-7.69-16.81-12.29zm67.73 1.74c-2.17 7.11-8.61 12.88-18.39 12.88-11 0-20.81-8-20.81-21.82 0-12.87 9.53-21.4 19.81-21.4 12.54 0 19.89 8.27 19.89 21.15a13.91 13.91 0 01-.25 3.09h-29.76a10.91 10.91 0 0011.12 10.62c5.85 0 8.86-3.09 10.2-7.11zm-9.28-13.2c-.16-4.77-3.34-9-10-9a9.76 9.76 0 00-9.94 9zM181.42 41c0 8.2 5.27 12.8 11.37 12.8A10.28 10.28 0 00203 46.24l8.53 3.09c-1.93 6.35-8 13.29-18.73 13.29-12 0-21.07-9.28-21.07-21.66s9.11-21.56 20.82-21.56c11 0 17 6.85 18.64 13.38L202.48 36a9.57 9.57 0 00-9.86-7.6c-5.93-.05-11.2 4.38-11.2 12.6zm51.73 21.54c-9.71 0-15.39-7.19-15.39-16.22V20.65h9.69v23.91c0 5 2.35 9.29 8.2 9.29 5.61 0 8.52-3.76 8.52-9.12V20.65h9.7v33.28a65.46 65.46 0 00.42 7.44H245a30 30 0 01-.33-4.52c-1.99 3.68-6.76 5.69-11.52 5.69zM288 30.27a21 21 0 00-3.18-.26c-7.53 0-10.95 4.35-10.95 12v19.4h-9.71V20.65h9.46v6.52c1.92-4.43 6.43-7 11.78-7a14.27 14.27 0 012.6.25zM298.46 0a6.35 6.35 0 016.35 6.35A6.31 6.31 0 11298.46 0zm-4.77 61.37V20.65h9.62v40.72zM326 20.65h8.45v8.61H326v18.89c0 3.6 1.59 5.11 5.19 5.11a22.52 22.52 0 003.34-.33v8a15.24 15.24 0 01-5.94.92c-7.52 0-12.2-4.52-12.2-12.13V29.26h-7.53v-8.61h2.1c4.34 0 6.27-2.76 6.27-6.35V8.2H326zm20 57.18l9.79-21.31-17.41-35.87h11L361 46.4l11-25.75h10.29l-25.93 57.18zm33.27-23.01a3.39 3.39 0 013.4 3.41 3.34 3.34 0 01-3.4 3.36 3.31 3.31 0 01-3.37-3.36 3.35 3.35 0 013.37-3.41zm31.15-5.22c0 7.16-5 12.47-12 12.47s-12-5.31-12-12.47 5-12.43 12-12.43 12 5.32 12 12.43zm-4.68 0c0-5.4-3.41-8.33-7.3-8.33s-7.32 2.93-7.32 8.33 3.42 8.4 7.32 8.4 7.3-2.94 7.3-8.4zm22.72-7.07a15.26 15.26 0 00-2-.14c-3.85 0-6.43 2-6.43 7.21v11.75h-4.59V37.9h4.49V42a7.33 7.33 0 017-4.49 8.29 8.29 0 011.51.15zm6.95 19.06a6.23 6.23 0 006.38 5.75c4.93 0 7.17-2.53 7.17-7.61v-3.35c-1.12 2.15-3.65 3.84-7.17 3.84-6.24 0-10.77-4.72-10.77-11.35 0-6.34 4.35-11.4 10.77-11.4 3.61 0 6 1.36 7.22 3.7V37.9h4.53v21.69c0 6-2.92 11.76-11.75 11.76-5.84 0-10.22-3.71-10.81-8.73zm13.75-12.72c0-4.53-2.73-7.5-6.68-7.5s-6.78 3-6.78 7.5 2.64 7.51 6.78 7.51c3.95 0 6.68-2.98 6.68-7.51z" fill="#333"/><path d="M26.77 41v30.9a9 9 0 1018 0V41.01z" fill="#9191ff"/><path d="M44.78 41V10.1a9 9 0 00-18 0V41z" fill="#00dcff"/><path d="M62.54 65.46a9 9 0 01-9-9V25.55a9 9 0 0118 0v30.91a9 9 0 01-9 9z" fill="#00f5b0"/><path d="M9 65.46a9 9 0 01-9-9V25.55a9 9 0 0118 0v30.91a9 9 0 01-9 9z" fill="#009bff"/><path d="M44.78 41a9 9 0 11-9-9 9 9 0 019 9z" fill="#1b3aef"/></svg>