<?xml version="1.0" encoding="utf-8"?>
<!-- Generator: Adobe Illustrator 26.1.0, SVG Export Plug-In . SVG Version: 6.00 Build 0)  -->
<svg version="1.1" id="Layer_1" xmlns="http://www.w3.org/2000/svg" xmlns:xlink="http://www.w3.org/1999/xlink" x="0px" y="0px"
	 viewBox="0 0 180 60" style="enable-background:new 0 0 180 60;" xml:space="preserve">
<style type="text/css">
	.st0{fill:#FFFFFF;}
	.st1{fill:#E91C24;}
</style>
<g>
	<g>
		<g>
			<path class="st0" d="M7.7,30.4c-4.3,0-5-2.5-5-4V8c0-1.5,0.6-4.1,5-4.1h9.9c4.3,0,5,2.6,5,4.1v4.1c0,0.5-0.3,0.8-0.7,1
				c0.4,0.1,0.7,0.5,0.7,1v15.3c0,0.6-0.4,1-1,1H7.7z M12.7,13.7c0.1-0.3,0.4-0.5,0.7-0.6c-0.3-0.1-0.6-0.3-0.7-0.6V13.7z"/>
			<path d="M17.6,4.9c2.6,0,4,1,4,3.1v4.1h-8V11h-1.9v12.3h1.9v-9.2h8v15.3H7.7c-2.6,0-4-1-4-3V8c0-2.1,1.3-3.1,4-3.1H17.6
				 M17.6,2.9H7.7c-5.5,0-6,3.9-6,5.1v18.3c0,1.2,0.4,5,6,5h13.9c1.1,0,2-0.9,2-2V14.1c0-0.3-0.1-0.7-0.2-1c0.2-0.3,0.2-0.6,0.2-1V8
				C23.6,6.8,23.1,2.9,17.6,2.9L17.6,2.9z"/>
		</g>
		<g>
			<path class="st0" d="M36.6,30.4c-0.5,0-0.8-0.3-1-0.7c-0.1,0.4-0.5,0.7-1,0.7h-8c-0.6,0-1-0.4-1-1V4.9c0-0.6,0.4-1,1-1h13.9
				c4.3,0,5,2.6,5,4.1v6.8c0,0.7-0.2,1.6-1.1,2.4c0.9,0.8,1.1,1.7,1.1,2.4v9.9c0,0.6-0.4,1-1,1H36.6z"/>
			<path d="M40.6,4.9c2.6,0,4,1,4,3.1v6.8c0,1-0.7,1.8-2,2.4c1.3,0.6,2,1.4,2,2.4v9.9h-8v-9.2h-1.9v9.2h-8V4.9H40.6 M34.7,14.1h1.9
				v-3h-1.9V14.1 M40.6,2.9H26.8c-1.1,0-2,0.9-2,2v24.5c0,1.1,0.9,2,2,2h8c0.3,0,0.7-0.1,1-0.2c0.3,0.2,0.6,0.2,1,0.2h8
				c1.1,0,2-0.9,2-2v-9.9c0-0.6-0.1-1.5-0.8-2.3c0.6-0.9,0.8-1.8,0.8-2.4V8C46.6,6.8,46.2,2.9,40.6,2.9L40.6,2.9z"/>
		</g>
		<g>
			<path class="st0" d="M53.8,30.4c-4.3,0-5-2.5-5-4V8c0-1.5,0.6-4.1,5-4.1h9.9c4.3,0,5,2.6,5,4.1v18.3c0,1.5-0.6,4-5,4H53.8z"/>
			<path d="M63.7,4.9c2.6,0,4,1,4,3.1v18.3c0,2-1.3,3-4,3h-9.9c-2.6,0-4-1-4-3V8c0-2.1,1.3-3.1,4-3.1H63.7 M57.8,23.3h1.9V11h-1.9
				V23.3 M63.7,2.9h-9.9c-5.5,0-6,3.9-6,5.1v18.3c0,1.2,0.4,5,6,5h9.9c5.5,0,6-3.9,6-5V8C69.7,6.8,69.2,2.9,63.7,2.9L63.7,2.9z"/>
		</g>
		<g>
			<path class="st0" d="M75.8,30.4c-0.5,0-0.9-0.4-1-0.8l-4-24.5c0-0.3,0-0.6,0.2-0.8c0.2-0.2,0.5-0.4,0.8-0.4h7.9
				c0.5,0,0.9,0.4,1,0.9l1,7l1-7c0.1-0.5,0.5-0.9,1-0.9h8c0.3,0,0.6,0.1,0.8,0.4c0.2,0.2,0.3,0.5,0.2,0.8l-4,24.5
				c-0.1,0.5-0.5,0.8-1,0.8H75.8z"/>
			<path d="M91.7,4.9l-4,24.5H75.8l-4-24.5h7.9l2,13.8l2-13.8H91.7 M91.7,2.9h-8c-1,0-1.8,0.7-2,1.7l0,0.2l0-0.2c-0.1-1-1-1.7-2-1.7
				h-7.9c-0.6,0-1.1,0.3-1.5,0.7c-0.4,0.4-0.5,1-0.5,1.6l4,24.5c0.2,1,1,1.7,2,1.7h11.9c1,0,1.8-0.7,2-1.7l4-24.5
				c0.1-0.6-0.1-1.2-0.4-1.6C92.9,3.2,92.3,2.9,91.7,2.9L91.7,2.9z M91.7,6.9L91.7,6.9L91.7,6.9L91.7,6.9z"/>
		</g>
		<g>
			<path class="st0" d="M99.9,30.4c-4.3,0-5-2.5-5-4V8c0-1.5,0.6-4.1,5-4.1h9.9c4.3,0,5,2.6,5,4.1v12.2c0,0.3-0.1,0.6-0.4,0.8
				c0.2,0.2,0.4,0.5,0.4,0.8v4.6c0,1.5-0.6,4-5,4H99.9z M104.9,21.4c0-0.1,0.1-0.1,0.1-0.2h-0.1V21.4z"/>
			<path d="M109.8,4.9c2.6,0,4,1,4,3.1v12.2h-9.9v3.1h1.9v-1.5h8v4.6c0,2-1.3,3-4,3h-9.9c-2.6,0-4-1-4-3V8c0-2.1,1.3-3.1,4-3.1
				H109.8 M103.9,14.1h1.9v-3h-1.9V14.1 M109.8,2.9h-9.9c-5.5,0-6,3.9-6,5.1v18.3c0,1.2,0.4,5,6,5h9.9c5.5,0,6-3.9,6-5v-4.6
				c0-0.3-0.1-0.5-0.2-0.8c0.1-0.2,0.2-0.5,0.2-0.8V8C115.7,6.8,115.3,2.9,109.8,2.9L109.8,2.9z"/>
		</g>
	</g>
</g>
<g>
	<g>
		<g>
			<path class="st0" d="M44.5,58.3c-4.3,0-5-2.5-5-4v-4.6c0-0.6,0.4-1,1-1h1.3c-1.9-0.8-2.3-2.5-2.3-3.6v-9.1c0-1.5,0.6-4.1,5-4.1
				h9.9c4.3,0,5,2.6,5,4.1v4.5c0,0.6-0.4,1-1,1h-1.3c1.9,0.8,2.3,2.5,2.3,3.6v9.2c0,1.5-0.6,4-5,4H44.5z M49.3,49.1
				c0,0.1,0.1,0.1,0.1,0.2L49.3,49.1L49.3,49.1z M49.6,41c0-0.1-0.1-0.1-0.1-0.2L49.6,41L49.6,41z"/>
			<path d="M54.4,32.8c2.6,0,4,1,4,3.1v4.5h-8v-1.5h-1.9v3h5.9c2.6,0,4,1,4,3v9.2c0,2-1.3,3-4,3h-9.9c-2.6,0-4-1-4-3v-4.6h8v1.5h1.9
				v-3.1h-5.9c-2.6,0-4-1-4-3.1v-9.1c0-2.1,1.3-3.1,4-3.1H54.4 M54.4,30.8h-9.9c-5.5,0-6,3.9-6,5.1V45c0,0.6,0.1,1.9,0.9,3
				c-0.5,0.4-0.9,1-0.9,1.7v4.6c0,1.2,0.4,5,6,5h9.9c5.5,0,6-3.9,6-5V45c0-0.6-0.1-1.8-0.9-2.9c0.5-0.4,0.9-1,0.9-1.7v-4.5
				C60.4,34.7,59.9,30.8,54.4,30.8L54.4,30.8z"/>
		</g>
		<g>
			<path class="st0" d="M68.2,58.3c-4.3,0-5-2.5-5-4V41.4h-1c-0.6,0-1-0.4-1-1v-6.1c0-0.6,0.4-1,1-1h1v-0.5c0-0.6,0.4-1,1-1h8
				c0.6,0,1,0.4,1,1v0.5h8.9c0.6,0,1,0.4,1,1v6.1c0,0.3-0.1,0.6-0.4,0.8c0.2,0.2,0.4,0.5,0.4,0.8v12.3c0,1.5-0.6,4-4.8,4L68.2,58.3z
				 M73.2,41.8c0-0.1,0.1-0.2,0.1-0.3h-0.1V41.8z"/>
			<path d="M72.2,32.8v1.5h9.9v6.1h-9.9v10.8h2V42h7.9v12.3c0,2-1.3,3-3.8,3c0,0-0.1,0-0.1,0h-9.9c-2.6,0-4-1-4-3V40.4h-2v-6.1h2
				v-1.5H72.2 M72.2,30.8h-8c-0.9,0-1.7,0.7-1.9,1.5h0c-1.1,0-2,0.9-2,2v6.1c0,1.1,0.9,2,2,2v11.8c0,1.2,0.4,5,6,5h9.9l0.1,0
				c5.4,0,5.8-3.9,5.8-5V42c0-0.3-0.1-0.5-0.2-0.8c0.1-0.2,0.2-0.5,0.2-0.8v-6.1c0-1.1-0.9-2-2-2h-7.9C74,31.5,73.2,30.8,72.2,30.8
				L72.2,30.8z"/>
		</g>
		<g>
			<path class="st0" d="M95.9,58.3c-0.5,0-0.8-0.3-1-0.7c-0.1,0.4-0.5,0.7-1,0.7h-8c-0.6,0-1-0.4-1-1V32.8c0-0.6,0.4-1,1-1H100
				c4.3,0,5,2.6,5,4.1v6.8c0,0.7-0.2,1.6-1.1,2.4c0.9,0.8,1.1,1.7,1.1,2.4v9.9c0,0.6-0.4,1-1,1H95.9z"/>
			<path d="M100,32.8c2.6,0,4,1,4,3.1v6.8c0,1-0.7,1.8-2,2.4c1.3,0.6,2,1.4,2,2.4v9.9h-8v-9.2H94v9.2h-8V32.8H100 M94,42h1.9v-3H94
				V42 M100,30.8H86.1c-1.1,0-2,0.9-2,2v24.5c0,1.1,0.9,2,2,2h8c0.3,0,0.7-0.1,1-0.2c0.3,0.2,0.6,0.2,1,0.2h8c1.1,0,2-0.9,2-2v-9.9
				c0-0.6-0.1-1.5-0.8-2.3c0.6-0.9,0.8-1.8,0.8-2.4v-6.8C105.9,34.7,105.5,30.8,100,30.8L100,30.8z"/>
		</g>
		<g>
			<path class="st0" d="M112.8,58.3c-4.3,0-5-2.5-5-4V35.9c0-1.5,0.6-4.1,5-4.1h9.9c4.3,0,5,2.6,5,4.1v12.2c0,0.3-0.1,0.6-0.4,0.8
				c0.2,0.2,0.4,0.5,0.4,0.8v4.6c0,1.5-0.6,4-5,4H112.8z M117.8,49.3c0-0.1,0.1-0.1,0.1-0.2h-0.1V49.3z"/>
			<path d="M122.7,32.8c2.6,0,4,1,4,3.1v12.2h-9.9v3.1h1.9v-1.5h8v4.6c0,2-1.3,3-4,3h-9.9c-2.6,0-4-1-4-3V35.9c0-2.1,1.3-3.1,4-3.1
				H122.7 M116.8,42h1.9v-3h-1.9V42 M122.7,30.8h-9.9c-5.5,0-6,3.9-6,5.1v18.3c0,1.2,0.4,5,6,5h9.9c5.5,0,6-3.9,6-5v-4.6
				c0-0.3-0.1-0.5-0.2-0.8c0.1-0.2,0.2-0.5,0.2-0.8V35.9C128.7,34.7,128.2,30.8,122.7,30.8L122.7,30.8z"/>
		</g>
		<g>
			<path class="st0" d="M135.5,58.3c-4.3,0-5-2.5-5-4V35.9c0-1.5,0.6-4.1,5-4.1h9.9c4.3,0,5,2.6,5,4.1v12.2c0,0.3-0.1,0.6-0.4,0.8
				c0.2,0.2,0.4,0.5,0.4,0.8v4.6c0,1.5-0.6,4-5,4H135.5z M140.5,49.3c0-0.1,0.1-0.1,0.1-0.2h-0.1V49.3z"/>
			<path d="M145.5,32.8c2.6,0,4,1,4,3.1v12.2h-9.9v3.1h1.9v-1.5h8v4.6c0,2-1.3,3-4,3h-9.9c-2.6,0-4-1-4-3V35.9c0-2.1,1.3-3.1,4-3.1
				H145.5 M139.5,42h1.9v-3h-1.9V42 M145.5,30.8h-9.9c-5.5,0-6,3.9-6,5.1v18.3c0,1.2,0.4,5,6,5h9.9c5.5,0,6-3.9,6-5v-4.6
				c0-0.3-0.1-0.5-0.2-0.8c0.1-0.2,0.2-0.5,0.2-0.8V35.9C151.4,34.7,151,30.8,145.5,30.8L145.5,30.8z"/>
		</g>
		<g>
			<path class="st0" d="M159.3,58.3c-4.3,0-5-2.5-5-4V41.4h-1c-0.6,0-1-0.4-1-1v-6.1c0-0.6,0.4-1,1-1h1v-0.5c0-0.6,0.4-1,1-1h8
				c0.6,0,1,0.4,1,1v0.5h8.9c0.6,0,1,0.4,1,1v6.1c0,0.3-0.1,0.6-0.4,0.8c0.2,0.2,0.4,0.5,0.4,0.8v12.3c0,1.5-0.6,4-4.8,4L159.3,58.3
				z M164.3,41.8c0-0.1,0.1-0.2,0.1-0.3h-0.1V41.8z"/>
			<path d="M163.3,32.8v1.5h9.9v6.1h-9.9v10.8h2V42h7.9v12.3c0,2-1.3,3-3.8,3c0,0-0.1,0-0.1,0h-9.9c-2.6,0-4-1-4-3V40.4h-2v-6.1h2
				v-1.5H163.3 M163.3,30.8h-8c-0.9,0-1.7,0.7-1.9,1.5h0c-1.1,0-2,0.9-2,2v6.1c0,1.1,0.9,2,2,2v11.8c0,1.2,0.4,5,6,5h9.9l0.1,0
				c5.4,0,5.8-3.9,5.8-5V42c0-0.3-0.1-0.5-0.2-0.8c0.1-0.2,0.2-0.5,0.2-0.8v-6.1c0-1.1-0.9-2-2-2h-7.9
				C165,31.5,164.3,30.8,163.3,30.8L163.3,30.8z"/>
		</g>
	</g>
</g>
<g>
	<g>
		<g>
			<path class="st1" d="M137.9,17c-0.6,0-1-0.4-1-1V4.2c0-0.6,0.4-1,1-1h6.5c0.6,0,1,0.4,1,1v2.9c0,0.3-0.1,0.5-0.3,0.7
				c0.2,0.2,0.3,0.4,0.3,0.7v2.9c0,0.3-0.1,0.6-0.3,0.7c0.2,0.2,0.3,0.4,0.3,0.7V16c0,0.6-0.4,1-1,1H137.9z"/>
			<path d="M144.4,4.2v2.9h-2.7v1.5h2.7v2.9h-2.7V13h2.7V16h-6.5V4.2H144.4 M144.4,2.2h-6.5c-1.1,0-2,0.9-2,2V16c0,1.1,0.9,2,2,2
				h6.5c1.1,0,2-0.9,2-2V13c0-0.3-0.1-0.5-0.1-0.7c0.1-0.2,0.1-0.5,0.1-0.7V8.6c0-0.3,0-0.5-0.1-0.7c0.1-0.2,0.1-0.5,0.1-0.7V4.2
				C146.4,3.1,145.5,2.2,144.4,2.2L144.4,2.2z"/>
		</g>
		<g>
			<path class="st1" d="M155.6,17c-0.5,0-0.8-0.3-1-0.7c-0.1,0.4-0.5,0.7-1,0.7h-4.8c-0.5,0-0.9-0.4-1-0.8L146,4.4
				c0-0.3,0-0.6,0.2-0.8c0.2-0.2,0.5-0.4,0.8-0.4h3.8c0.5,0,0.8,0.3,1,0.7c0.1-0.4,0.5-0.7,1-0.7h3.8c0.5,0,0.8,0.3,1,0.7
				c0.1-0.4,0.5-0.7,1-0.7h3.8c0.3,0,0.6,0.1,0.8,0.4c0.2,0.2,0.3,0.5,0.2,0.8l-1.9,11.8c-0.1,0.5-0.5,0.8-1,0.8H155.6z"/>
			<path d="M162.3,4.2L160.3,16h-4.8l-1-5.9l-1,5.9h-4.8L147,4.2h3.8l1,6.6l1-6.6h3.8l1,6.6l1-6.6H162.3 M162.3,2.2h-3.8
				c-0.3,0-0.7,0.1-1,0.2c-0.3-0.2-0.6-0.2-1-0.2h-3.8c-0.3,0-0.7,0.1-1,0.2c-0.3-0.2-0.6-0.2-1-0.2H147c-0.6,0-1.1,0.3-1.5,0.7
				c-0.4,0.4-0.5,1-0.4,1.6l1.9,11.8c0.2,1,1,1.7,2,1.7h4.8c0.3,0,0.7-0.1,1-0.2c0.3,0.2,0.6,0.2,1,0.2h4.8c1,0,1.8-0.7,2-1.7
				l1.9-11.8c0.1-0.6-0.1-1.2-0.4-1.6C163.4,2.5,162.8,2.2,162.3,2.2L162.3,2.2z M162.3,6.2L162.3,6.2L162.3,6.2L162.3,6.2z"/>
		</g>
		<g>
			<path class="st1" d="M166.7,17c-2.7,0-2.9-1.9-2.9-2.5v-2.2c0-0.3,0.2-0.6,0.4-0.8c-0.4-0.5-0.4-1.1-0.4-1.4V5.7
				c0-0.6,0.2-2.5,2.9-2.5h4.8c2.7,0,2.9,1.9,2.9,2.5v2.2c0,0.3-0.2,0.6-0.4,0.8c0.4,0.5,0.4,1.1,0.4,1.4v4.4c0,0.6-0.2,2.5-2.9,2.5
				H166.7z"/>
			<path d="M171.5,4.2c1.3,0,1.9,0.5,1.9,1.5v2.2h-3.8V7.2h-0.9v1.5h2.9c1.3,0,1.9,0.5,1.9,1.5v4.4c0,1-0.6,1.5-1.9,1.5h-4.8
				c-1.3,0-1.9-0.5-1.9-1.5v-2.2h3.8V13h0.9v-1.5h-2.9c-1.3,0-1.9-0.5-1.9-1.5V5.7c0-1,0.6-1.5,1.9-1.5H171.5 M171.5,2.2h-4.8
				c-2.9,0-3.9,1.9-3.9,3.5v4.4c0,0.4,0.1,0.9,0.2,1.3c-0.1,0.3-0.2,0.6-0.2,0.9v2.2c0,1.6,1,3.5,3.9,3.5h4.8c2.9,0,3.9-1.9,3.9-3.5
				v-4.4c0-0.4-0.1-0.9-0.2-1.3c0.1-0.3,0.2-0.6,0.2-0.9V5.7C175.4,4.1,174.3,2.2,171.5,2.2L171.5,2.2z"/>
		</g>
		<g>
			<path class="st1" d="M132.7,20.6c-0.6,0-1.2-0.2-1.8-0.6c-0.9-0.6-1.1-1.4-1.1-1.9V17H126c-0.6,0-1-0.4-1-1V4.2c0-0.6,0.4-1,1-1
				h3.8c0.3,0,0.5,0.1,0.7,0.3c0.6-0.2,1.3-0.3,2.2-0.3c2.7,0,2.9,1.9,2.9,2.5v10h3.8c0.6,0,1,0.4,1,1v2.9c0,0.6-0.4,1-1,1H132.7z"
				/>
			<path d="M132.7,4.2c1.3,0,1.9,0.5,1.9,1.5v11h4.8v2.9h-6.7c-0.4,0-0.9-0.1-1.3-0.4c-0.4-0.3-0.7-0.7-0.7-1.1V16h0V7.2h-0.9V16
				H126V4.2h3.8V5C130.5,4.5,131.4,4.2,132.7,4.2 M132.7,2.2c-0.7,0-1.4,0.1-2,0.2c-0.3-0.1-0.6-0.2-0.9-0.2H126c-1.1,0-2,0.9-2,2
				V16c0,1.1,0.9,2,2,2h2.8v0.2c0,0.6,0.2,1.8,1.5,2.7c0,0,0,0,0,0c0.7,0.5,1.5,0.7,2.3,0.7h6.7c1.1,0,2-0.9,2-2v-2.9
				c0-1.1-0.9-2-2-2h-2.8v-9C136.6,4.1,135.6,2.2,132.7,2.2L132.7,2.2z"/>
		</g>
	</g>
</g>
</svg>
