<svg width="24" height="24" viewBox="0 0 24 24" fill="none" xmlns="http://www.w3.org/2000/svg">
<circle cx="11" cy="11" r="8" stroke="white" stroke-width="2"/>
<circle cx="11" cy="11" r="2" stroke="white" stroke-width="2"/>
<path d="M19.5315 20.601C18.5856 21.5047 17.3333 22 15.991 22C14.6486 22 13.3964 21.5047 12.4505 20.601C11.5225 19.6973 11 18.5069 11 17.2295C11 16.4909 11.1712 15.7871 11.5135 15.1267C11.8468 14.4837 12.3333 13.9102 12.9369 13.4671C13.3153 13.189 13.6577 12.8675 13.964 12.5025C14.4054 11.9812 14.7477 11.4077 14.991 10.7907V10.7907C15.1256 10.4603 15.5491 10.3165 15.7723 10.5949C15.9614 10.8308 16.1334 11.0881 16.2883 11.3642C16.8739 12.4243 17.1441 13.3715 17.0901 14.1796C17.0631 14.5706 17.2252 14.9356 17.5225 15.1962C17.7838 15.4222 18.1171 15.5351 18.4595 15.5177C18.8018 15.5004 19.1261 15.3526 19.3604 15.1007V15.1007C19.6903 14.7457 20.2773 14.7184 20.4962 15.1507C20.5241 15.2058 20.5509 15.2615 20.5766 15.3179C20.8559 15.9261 21 16.5692 21 17.2382C20.991 18.5069 20.4775 19.6973 19.5315 20.601Z" fill="#6B57FF" stroke="white" stroke-width="2"/>
</svg>
