<svg width="24" height="24" viewBox="0 0 24 24" fill="none" xmlns="http://www.w3.org/2000/svg">
<path d="M2 16V19C2 20.1046 2.89543 21 4 21H20C21.1046 21 22 20.1046 22 19V16" stroke="#6B57FF" stroke-width="2" stroke-linecap="round"/>
<path fill-rule="evenodd" clip-rule="evenodd" d="M16.7071 11.7071C17.0976 11.3166 17.0976 10.6834 16.7071 10.2929C16.3166 9.90237 15.6834 9.90237 15.2929 10.2929L13 12.5858L13 3C13 2.44772 12.5523 2 12 2C11.4477 2 11 2.44771 11 3L11 12.5858L8.70711 10.2929C8.31658 9.90237 7.68342 9.90237 7.29289 10.2929C6.90237 10.6834 6.90237 11.3166 7.29289 11.7071L11.2929 15.7071C11.6834 16.0976 12.3166 16.0976 12.7071 15.7071L16.7071 11.7071Z" fill="#6B57FF"/>
</svg>
