<svg width="24" height="24" viewBox="0 0 24 24" fill="none" xmlns="http://www.w3.org/2000/svg">
<circle cx="12" cy="12" r="10" stroke="#6B57FF" stroke-width="2"/>
<path d="M9.84337 13.6667V7.47088C9.84337 7.21066 10.0602 7 10.3133 7H15.5301C15.7952 7 16 7.21066 16 7.47088V13.1834C16 13.1958 16 13.2082 16 13.2206C16 13.2454 16 13.2825 16 13.3197V13.9021C16 14.8191 15.253 15.575 14.3373 15.575H13.8675C12.9518 15.575 12.2048 14.8315 12.2048 13.9021C12.2048 12.9851 12.9518 12.2292 13.8675 12.2292H14.9157C14.9639 12.2292 15.012 12.2292 15.0482 12.2292V9.85006H10.7952V15.3271C10.7952 16.2441 10.0482 17 9.13253 17H8.66265C7.74699 17 7 16.2441 7 15.3271C7 14.4102 7.74699 13.6543 8.66265 13.6543H9.71084C9.75904 13.6543 9.80723 13.6543 9.84337 13.6667Z" fill="#6B57FF"/>
</svg>
