<svg width="24" height="24" viewBox="0 0 24 24" fill="none" xmlns="http://www.w3.org/2000/svg">
<path d="M12.351 7.767C12.555 7.605 12.648 7.53 12.63 7.542C13.218 7.056 13.68 6.657 14.016 6.345C14.358 6.033 14.646 5.706 14.88 5.364C15.114 5.022 15.231 4.689 15.231 4.365C15.231 4.119 15.174 3.927 15.06 3.789C14.946 3.651 14.775 3.582 14.547 3.582C14.319 3.582 14.139 3.669 14.007 3.843C13.881 4.011 13.818 4.251 13.818 4.563H12.333C12.345 4.053 12.453 3.627 12.657 3.285C12.867 2.943 13.14 2.691 13.476 2.529C13.818 2.367 14.196 2.286 14.61 2.286C15.324 2.286 15.861 2.469 16.221 2.835C16.587 3.201 16.77 3.678 16.77 4.266C16.77 4.908 16.551 5.505 16.113 6.057C15.675 6.603 15.117 7.137 14.439 7.659H16.869V8.91H12.351V7.767ZM20.0666 2.682C20.7326 2.682 21.3146 2.814 21.8126 3.078C22.3106 3.342 22.6946 3.714 22.9646 4.194C23.2406 4.668 23.3786 5.217 23.3786 5.841C23.3786 6.459 23.2406 7.008 22.9646 7.488C22.6946 7.968 22.3076 8.34 21.8036 8.604C21.3056 8.868 20.7266 9 20.0666 9H17.6996V2.682H20.0666ZM19.9676 7.668C20.5496 7.668 21.0026 7.509 21.3266 7.191C21.6506 6.873 21.8126 6.423 21.8126 5.841C21.8126 5.259 21.6506 4.806 21.3266 4.482C21.0026 4.158 20.5496 3.996 19.9676 3.996H19.2386V7.668H19.9676Z" fill="#6B57FF"/>
<path d="M1.459 15.284C1.483 14.642 1.693 14.147 2.089 13.799C2.485 13.451 3.022 13.277 3.7 13.277C4.15 13.277 4.534 13.355 4.852 13.511C5.176 13.667 5.419 13.88 5.581 14.15C5.749 14.42 5.833 14.723 5.833 15.059C5.833 15.455 5.734 15.779 5.536 16.031C5.338 16.277 5.107 16.445 4.843 16.535V16.571C5.185 16.685 5.455 16.874 5.653 17.138C5.851 17.402 5.95 17.741 5.95 18.155C5.95 18.527 5.863 18.857 5.689 19.145C5.521 19.427 5.272 19.649 4.942 19.811C4.618 19.973 4.231 20.054 3.781 20.054C3.061 20.054 2.485 19.877 2.053 19.523C1.627 19.169 1.402 18.635 1.378 17.921H2.872C2.878 18.185 2.953 18.395 3.097 18.551C3.241 18.701 3.451 18.776 3.727 18.776C3.961 18.776 4.141 18.71 4.267 18.578C4.399 18.44 4.465 18.26 4.465 18.038C4.465 17.75 4.372 17.543 4.186 17.417C4.006 17.285 3.715 17.219 3.313 17.219H3.025V15.968H3.313C3.619 15.968 3.865 15.917 4.051 15.815C4.243 15.707 4.339 15.518 4.339 15.248C4.339 15.032 4.279 14.864 4.159 14.744C4.039 14.624 3.874 14.564 3.664 14.564C3.436 14.564 3.265 14.633 3.151 14.771C3.043 14.909 2.98 15.08 2.962 15.284H1.459ZM9.37422 13.682C10.0402 13.682 10.6222 13.814 11.1202 14.078C11.6182 14.342 12.0022 14.714 12.2722 15.194C12.5482 15.668 12.6862 16.217 12.6862 16.841C12.6862 17.459 12.5482 18.008 12.2722 18.488C12.0022 18.968 11.6152 19.34 11.1112 19.604C10.6132 19.868 10.0342 20 9.37422 20H7.00722V13.682H9.37422ZM9.27522 18.668C9.85722 18.668 10.3102 18.509 10.6342 18.191C10.9582 17.873 11.1202 17.423 11.1202 16.841C11.1202 16.259 10.9582 15.806 10.6342 15.482C10.3102 15.158 9.85722 14.996 9.27522 14.996H8.54622V18.668H9.27522Z" fill="#6B57FF"/>
<path d="M6 8L4 10L2 8" stroke="#6B57FF" stroke-width="1.5" stroke-linecap="round" stroke-linejoin="round"/>
<path d="M4 10V9C4 5.68629 6.68629 3 10 3V3" stroke="#6B57FF" stroke-width="1.5" stroke-linecap="round"/>
<path d="M17 15.5L15 17.5L17 19.5" stroke="#6B57FF" stroke-width="1.5" stroke-linecap="round" stroke-linejoin="round"/>
<path d="M15 17.5L16 17.5C18.7614 17.5 21 15.2614 21 12.5V12.5" stroke="#6B57FF" stroke-width="1.5" stroke-linecap="round"/>
</svg>
