<svg width="112" height="44" viewBox="0 0 112 44" fill="none" xmlns="http://www.w3.org/2000/svg">
<path d="M6.40822 21.3205L2.93423 23.0278L2.73315 23.1261L0.00132421 24.4692V26.6547L3.76106 24.8072L4.06004 24.6605L5.73089 23.8389L6.23624 23.5912C6.45452 22.6714 6.70984 21.821 6.99295 21.0335L6.40822 21.3205ZM28.0353 10.8158C27.9228 10.555 27.8025 10.2995 27.6755 10.0466C27.6596 10.0152 27.6437 9.98108 27.6252 9.94963C26.2348 7.24647 24.0123 5.03074 21.2884 3.63264C21.2355 3.60513 19.3675 2.75342 16.8778 2.28433C16.1462 2.14675 15.3631 2.04193 14.5548 2H4.44104C1.98967 2 0.00132421 3.96415 0.00132421 6.38691V21.711L1.7952 20.8304L1.87325 20.7924L8.22194 17.6726L8.70348 17.4354C11.3374 13.1468 14.5971 12.0291 14.5971 12.0291V14.5331C15.6766 14.5829 16.6198 15.0153 17.2244 15.6495C17.4811 15.9155 17.6993 16.2968 17.8594 16.6846C17.8898 16.7606 17.9189 16.8353 17.9441 16.9113C17.9957 17.0541 18.0367 17.193 18.0684 17.3254C18.1134 17.5088 18.1888 17.6595 18.2814 17.7931C18.2801 17.7944 18.2814 17.7971 18.2841 17.7984C18.3753 17.9281 18.4825 18.0382 18.5949 18.143C18.9865 18.5099 19.4337 18.8008 19.4337 19.5083C19.4337 19.828 19.2948 20.1045 19.0566 20.3469C18.923 20.4845 18.759 20.609 18.5711 20.7269C18.5301 20.7518 18.4865 20.7767 18.4428 20.8003C18.4415 20.8016 18.4388 20.8029 18.4375 20.8042C18.3542 20.8501 18.2655 20.8959 18.1756 20.9392C18.1571 20.9484 18.1372 20.9562 18.1174 20.9654C18.1134 20.9667 18.1081 20.968 18.1041 20.9706C17.5419 21.2248 16.3473 21.6127 16.1237 21.6821C16.0708 21.6965 16.01 21.7136 15.9451 21.7319C15.7427 21.7896 15.5046 21.8577 15.3631 21.8996C15.3472 21.9023 15.3326 21.9075 15.3181 21.9127C15.2718 21.9272 15.244 21.9363 15.2414 21.9376C15.1315 21.9704 15.0244 22.0097 14.9225 22.0569C14.8961 22.0687 14.8696 22.0818 14.8432 22.0949C14.5627 22.2298 14.3087 22.4093 14.0891 22.6269C13.5771 23.1313 13.2623 23.8258 13.2623 24.5949C13.2623 24.9776 13.343 25.3444 13.4832 25.6786C13.5573 25.8437 13.6446 26.0022 13.7425 26.1542C13.8668 26.3586 14.011 26.5643 14.1698 26.7727C14.1883 26.8002 14.2095 26.8264 14.2293 26.8526C14.7704 27.5536 15.4689 28.2769 16.1766 29.0225C16.4187 29.2767 16.6622 29.5322 16.899 29.7916C17.1093 30.0209 17.3183 30.2529 17.5194 30.4874C17.5789 30.5555 17.6385 30.625 17.6954 30.6944C18.0711 30.6145 18.9468 30.3655 19.0275 30.3406C21.0304 29.7065 22.8481 28.6556 24.3735 27.2916C24.3959 27.2732 24.4171 27.2549 24.4396 27.2352C27.1807 24.7548 28.968 21.2602 29.1915 17.3542C29.2048 17.1288 29.2114 16.9048 29.214 16.6768C29.2153 16.6257 29.2153 16.5732 29.2153 16.5208C29.2114 14.4951 28.7933 12.5663 28.0353 10.8158ZM5.44778 26.736L5.43588 26.7412L0.00132421 29.4103V31.5959L5.42662 28.9307C5.44381 28.6792 5.46498 28.4276 5.49011 28.1708C5.49276 28.1262 5.49805 28.0804 5.50202 28.0358L5.50731 27.9808C5.54038 27.6349 5.58139 27.2837 5.62902 26.926C5.64225 26.8277 5.65548 26.7268 5.67003 26.6272L5.44778 26.736ZM7.03925 40.3475C6.98237 40.2151 6.92019 40.0644 6.85404 39.8928C6.34472 38.5759 5.5933 36.1191 5.40148 32.7136C5.38296 32.3913 5.36972 32.0624 5.36179 31.7243L0.353217 34.1812L0 34.3554V36.6118C0 37.187 0.111127 37.7347 0.31618 38.2379C0.968378 39.8561 2.56911 41 4.43972 41H7.33823V40.9869C7.31177 40.9358 7.19933 40.7209 7.03925 40.3475Z" fill="white"/>
<path d="M56.0306 18.2829C57.0696 18.2829 57.9118 17.4487 57.9118 16.4197C57.9118 15.3906 57.0696 14.5564 56.0306 14.5564C54.9916 14.5564 54.1494 15.3906 54.1494 16.4197C54.1494 17.4487 54.9916 18.2829 56.0306 18.2829Z" fill="white"/>
<path d="M52.4614 16.4204V30.6949H48.9834V24.8182H43.5727V30.6949H40.0947V16.4204H43.5727V22.0115H48.9834V16.4204H52.4614Z" fill="white"/>
<path d="M57.7702 19.4517H54.1494V30.6941H57.7702V19.4517Z" fill="white"/>
<path d="M66.6199 27.7126V30.6949H64.8499C63.5891 30.6949 62.6049 30.383 61.9011 29.7593C61.196 29.1356 60.8428 28.1175 60.8428 26.705V22.1386H59.459V19.4525H60.8428V16.4204H64.3207V19.4525H66.5988V22.1386H64.3207V26.7456C64.3207 27.0889 64.4014 27.3353 64.5641 27.486C64.7268 27.6366 64.998 27.7126 65.3777 27.7126H66.6199Z" fill="white"/>
<path d="M78.5993 23.2841C78.2196 23.9694 77.6362 24.521 76.8504 24.9416C76.0632 25.3622 75.0869 25.5719 73.9214 25.5719H71.7651V30.6965L68.2871 30.6925V16.4167L73.9214 16.4207C75.0604 16.4207 76.0235 16.6172 76.8094 17.0103C77.5952 17.4034 78.1852 18.1699 78.5794 18.8618C78.9723 19.5536 79.1694 20.121 79.1694 21.0159C79.1681 21.844 78.9789 22.6001 78.5993 23.2841ZM75.1411 22.338C75.4666 22.0262 75.6293 21.5859 75.6293 21.0159C75.6293 20.4459 75.4666 20.0057 75.1411 19.6938C74.8157 19.382 74.3209 19.4514 73.6555 19.4514H71.7637V22.8058H73.6555C74.3209 22.8058 74.8157 22.6499 75.1411 22.338Z" fill="white"/>
<path d="M81.5183 22.0628C81.9588 21.2111 82.5581 20.5559 83.3187 20.0973C84.0781 19.6387 84.9261 19.4094 85.8614 19.4094C86.6618 19.4094 87.3629 19.5667 87.9662 19.8811C88.5694 20.1956 89.0338 20.6084 89.3592 21.1194V19.4514H92.8371V30.5366H89.3592V28.9838C89.0205 29.4949 88.5482 29.9076 87.945 30.2221C87.3417 30.5366 86.6393 30.6938 85.8402 30.6938C84.9182 30.6938 84.0768 30.4619 83.3174 29.9954C82.5581 29.5302 81.9575 28.8685 81.5169 28.0103C81.0764 27.152 80.8555 26.1588 80.8555 25.032C80.8568 23.9051 81.0777 22.9158 81.5183 22.0628ZM88.6382 23.0652C88.1567 22.5804 87.5706 22.338 86.8787 22.338C86.1868 22.338 85.6008 22.5778 85.1192 23.056C84.6377 23.5343 84.3969 24.1934 84.3969 25.032C84.3969 25.8705 84.6377 26.5362 85.1192 27.0276C85.6008 27.5189 86.1868 27.7653 86.8787 27.7653C87.5706 27.7653 88.1567 27.5229 88.6382 27.038C89.1197 26.5532 89.3605 25.8915 89.3605 25.0529C89.3605 24.213 89.1184 23.5513 88.6382 23.0652Z" fill="white"/>
<path d="M112 19.4517L108.929 30.6941H105.084L103.294 23.4009L101.444 30.6941H97.619L94.5273 19.4517H98.0053L99.6127 27.4904L101.524 19.4517H105.206L107.139 27.4498L108.725 19.4517H112Z" fill="white"/>
</svg>
