<svg width="44" height="23" viewBox="0 0 44 23" fill="none" xmlns="http://www.w3.org/2000/svg">
<path d="M0 9.76549C0 4.37216 4.37216 0 9.76548 0H34.2345C39.6278 0 44 4.37216 44 9.76549C44 15.1588 39.6278 19.531 34.2345 19.531H33H21.3111C20.862 19.531 20.4212 19.652 20.035 19.8812L14.7812 23L13.8165 20.5661C13.5689 19.9413 12.9649 19.531 12.2928 19.531H9.76548C4.37216 19.531 0 15.1588 0 9.76549Z" fill="url(#paint0_linear_16925_55025)"/>
<path d="M15.992 14H14.312L10.508 8.252V14H8.828V5.612H10.508L14.312 11.372V5.612H15.992V14ZM19.3322 6.98V9.08H22.1522V10.412H19.3322V12.632H22.5122V14H17.6522V5.612H22.5122V6.98H19.3322ZM35.2349 5.624L32.8949 14H30.9149L29.3429 8.036L27.6989 14L25.7309 14.012L23.4749 5.624H25.2749L26.7509 12.128L28.4549 5.624H30.3269L31.9349 12.092L33.4229 5.624H35.2349Z" fill="white"/>
<defs>
<linearGradient id="paint0_linear_16925_55025" x1="3.06977" y1="2.5" x2="31.8768" y2="20.0828" gradientUnits="userSpaceOnUse">
<stop stop-color="#BC4EFF"/>
<stop offset="1" stop-color="#5942FF"/>
</linearGradient>
</defs>
</svg>
