<svg width="88" height="46" viewBox="0 0 88 46" fill="none" xmlns="http://www.w3.org/2000/svg">
<path d="M0 19.531C0 8.74432 8.74431 0 19.531 0H68.469C79.2557 0 88 8.74432 88 19.531C88 30.3176 79.2557 39.062 68.469 39.062H66H42.6223C41.724 39.062 40.8424 39.3039 40.07 39.7624L29.5625 46L27.6331 41.1321C27.1378 39.8825 25.9298 39.062 24.5856 39.062H19.531C8.74431 39.062 0 30.3176 0 19.531Z" fill="url(#paint0_linear_16925_56346)"/>
<path d="M31.984 28H28.624L21.016 16.504V28H17.656V11.224H21.016L28.624 22.744V11.224H31.984V28ZM38.6644 13.96V18.16H44.3044V20.824H38.6644V25.264H45.0244V28H35.3044V11.224H45.0244V13.96H38.6644ZM70.4699 11.248L65.7899 28H61.8299L58.6859 16.072L55.3979 28L51.4619 28.024L46.9499 11.248H50.5499L53.5019 24.256L56.9099 11.248H60.6539L63.8699 24.184L66.8459 11.248H70.4699Z" fill="white"/>
<defs>
<linearGradient id="paint0_linear_16925_56346" x1="6.13954" y1="5" x2="63.7537" y2="40.1656" gradientUnits="userSpaceOnUse">
<stop stop-color="#BC4EFF"/>
<stop offset="1" stop-color="#5942FF"/>
</linearGradient>
</defs>
</svg>
