<svg width="34" height="34" viewBox="0 0 34 34" fill="none" xmlns="http://www.w3.org/2000/svg">
<path d="M8.644 9.54681C8.31499 9.2178 8.32349 8.68627 8.65251 8.35726C8.98152 8.02824 9.50454 8.02824 9.83355 8.35726L16.9958 15.5195L24.1587 8.35673C24.4882 8.02824 25.0282 8.02824 25.3573 8.35726C25.6863 8.68627 25.6778 9.2178 25.3488 9.54681L18.1859 16.7096L25.3482 23.8719C25.6772 24.2009 25.6857 24.7325 25.3567 25.0615C25.0277 25.3905 24.4877 25.3905 24.1587 25.0615L16.9964 17.8992L9.83355 25.062C9.50454 25.391 8.97301 25.3995 8.644 25.0705C8.31499 24.7415 8.31499 24.2015 8.644 23.8725L15.8068 16.7096L8.644 9.54681Z" fill="#32323D"/>
</svg>
