<svg width="14" height="9" viewBox="0 0 14 9" fill="none" xmlns="http://www.w3.org/2000/svg">
<path fill-rule="evenodd" clip-rule="evenodd" d="M13.4819 8.8231C13.2254 9.05407 12.8302 9.03336 12.5992 8.77684L7.00195 2.56041L1.40464 8.77684C1.17367 9.03336 0.778487 9.05407 0.521971 8.8231C0.265453 8.59213 0.244742 8.19695 0.475712 7.94043L6.4296 1.32797C6.46348 1.26098 6.51008 1.19901 6.56921 1.14576C6.69261 1.03466 6.84809 0.981792 7.00195 0.985397C7.1558 0.981793 7.31128 1.03466 7.43468 1.14576C7.49381 1.19901 7.54041 1.26098 7.57429 1.32797L13.5282 7.94043C13.7591 8.19695 13.7384 8.59213 13.4819 8.8231Z" fill="black"/>
</svg>
