<svg width="170" height="35" viewBox="0 0 170 35" fill="none" xmlns="http://www.w3.org/2000/svg">
<path d="M51.083 26V11.4258H56.377V7.68066H41.1553V11.4258H46.4365V26H51.083ZM63.4355 26.3301C67.9678 26.3301 70.6338 23.5879 70.6338 18.9287C70.6338 14.333 67.9043 11.54 63.4355 11.54C58.9922 11.54 56.2373 14.3584 56.2373 18.9287C56.2373 23.5752 58.916 26.3301 63.4355 26.3301ZM63.4355 22.9023C61.7852 22.9023 60.8457 21.4551 60.8457 18.9287C60.8457 16.4658 61.8105 14.9678 63.4355 14.9678C65.0605 14.9678 66.0254 16.4658 66.0254 18.9287C66.0254 21.4424 65.0859 22.9023 63.4355 22.9023ZM93.9551 26V7.68066H88.458L84.0273 18.8779H83.7861L79.3428 7.68066H73.8457V26H78.1494V14.4346H78.3779L82.4658 24.5908H85.3477L89.4229 14.4346H89.6514V26H93.9551ZM98.2715 7.68066V26H102.931V20.6299H106.016C110.091 20.6299 112.896 18.0781 112.896 14.1807C112.896 10.2451 110.23 7.68066 106.295 7.68066H98.2715ZM102.931 11.2607H105.063C107.031 11.2607 108.187 12.2637 108.187 14.1934C108.187 16.0977 107.019 17.1133 105.038 17.1133H102.931V11.2607ZM120.755 18.2432H123.002C124.779 18.2432 125.858 19.1064 125.858 20.5156C125.858 21.8867 124.716 22.8262 123.065 22.8262C121.301 22.8262 120.171 21.9629 120.107 20.5664H115.664C115.829 24.1592 118.711 26.4951 122.989 26.4951C127.471 26.4951 130.594 24.1846 130.594 20.8711C130.594 18.5098 128.981 16.8467 126.455 16.5801V16.3389C128.512 15.958 129.921 14.2949 129.921 12.1875C129.921 9.22949 127.128 7.18555 123.065 7.18555C118.812 7.18555 116.07 9.4707 116.007 13.0508H120.234C120.285 11.6162 121.364 10.6641 122.964 10.6641C124.589 10.6641 125.592 11.4893 125.592 12.8223C125.592 14.1553 124.563 15.0312 123.002 15.0312H120.755V18.2432ZM135.913 26.4189C137.525 26.4189 138.478 25.4287 138.478 24.0068C138.478 22.5723 137.525 21.582 135.913 21.582C134.313 21.582 133.361 22.5723 133.361 24.0068C133.361 25.4287 134.313 26.4189 135.913 26.4189ZM154.029 16.3516C153.623 13.9648 151.554 12.0986 148.418 12.0986C144.647 12.0986 142.261 14.8408 142.261 19.1191C142.261 23.4609 144.66 26.2285 148.431 26.2285C151.554 26.2285 153.598 24.5146 154.017 22.0645H152.328C151.909 23.7402 150.437 24.7178 148.418 24.7178C145.714 24.7178 143.975 22.5342 143.975 19.1191C143.975 15.7422 145.701 13.5967 148.418 13.5967C150.513 13.5967 151.922 14.7773 152.341 16.3516H154.029ZM168.578 16.3516C168.172 13.9648 166.103 12.0986 162.967 12.0986C159.196 12.0986 156.81 14.8408 156.81 19.1191C156.81 23.4609 159.209 26.2285 162.979 26.2285C166.103 26.2285 168.146 24.5146 168.565 22.0645H166.877C166.458 23.7402 164.985 24.7178 162.967 24.7178C160.263 24.7178 158.523 22.5342 158.523 19.1191C158.523 15.7422 160.25 13.5967 162.967 13.5967C165.062 13.5967 166.471 14.7773 166.89 16.3516H168.578Z" fill="white"/>
<g clip-path="url(#clip0)">
<path d="M10.4629 35.0001C5.99897 35 2.36731 31.3684 2.36731 26.9047V8.09534C2.36731 3.63156 5.99897 0 10.4629 0C11.8629 0 13.2575 0.377917 14.4959 1.09293L30.7856 10.4976C33.3171 11.9592 34.8285 14.577 34.8285 17.5C34.8285 20.4231 33.3171 23.041 30.7856 24.5024L14.4959 33.9071C13.2576 34.622 11.8629 35.0001 10.463 35.0001C10.463 35.0001 10.463 35.0001 10.4629 35.0001Z" fill="url(#paint0_linear)"/>
<path d="M25.681 13.4533L13.9564 6.633C10.8645 4.83446 6.99988 7.08265 6.99988 10.6797V24.3203C6.99988 27.9174 10.8646 30.1655 13.9564 28.367L25.681 21.5467C28.7728 19.7482 28.7728 15.2519 25.681 13.4533Z" fill="url(#paint1_linear)"/>
<path d="M25.681 13.4533L13.9564 6.633C10.8645 4.83446 6.99988 7.08265 6.99988 10.6797V24.3203C6.99988 27.9173 10.8646 30.1655 13.9564 28.367L25.681 21.5467C28.7728 19.7482 28.7728 15.2519 25.681 13.4533Z" fill="url(#paint2_linear)"/>
</g>
<defs>
<linearGradient id="paint0_linear" x1="18.598" y1="32.7192" x2="18.598" y2="3.70342" gradientUnits="userSpaceOnUse">
<stop stop-color="#DC4955"/>
<stop offset="1" stop-color="#C4237C"/>
</linearGradient>
<linearGradient id="paint1_linear" x1="10.2131" y1="13.5669" x2="20.279" y2="23.5573" gradientUnits="userSpaceOnUse">
<stop stop-color="#EEF4FF"/>
<stop offset="1" stop-color="#CFE7FD"/>
</linearGradient>
<linearGradient id="paint2_linear" x1="17.5963" y1="21.09" x2="19.6693" y2="24.8882" gradientUnits="userSpaceOnUse">
<stop stop-color="#8AAADC" stop-opacity="0"/>
<stop offset="1" stop-color="#8AAADC"/>
</linearGradient>
<clipPath id="clip0">
<rect width="35" height="35" fill="white"/>
</clipPath>
</defs>
</svg>
