<?xml version="1.0" standalone="no"?>
<!DOCTYPE svg PUBLIC "-//W3C//DTD SVG 20010904//EN"
 "http://www.w3.org/TR/2001/REC-SVG-20010904/DTD/svg10.dtd">
<svg version="1.0" xmlns="http://www.w3.org/2000/svg"
 width="500.000000pt" height="500.000000pt" viewBox="0 0 500.000000 500.000000"
 preserveAspectRatio="xMidYMid meet">
<metadata>
Created by potrace 1.14, written by Peter Selinger 2001-2017
</metadata>
<g transform="translate(0.000000,500.000000) scale(0.100000,-0.100000)"
fill="#000000" stroke="none">
<path d="M4173 3130 c-210 -50 -377 -210 -437 -420 -35 -123 -47 -268 -31
-390 47 -354 278 -559 627 -558 231 0 401 83 503 243 32 49 75 153 75 179 0
10 -32 13 -146 13 l-146 0 -25 -53 c-46 -97 -121 -145 -234 -150 -231 -10
-363 171 -353 488 3 115 6 137 34 216 42 119 121 192 227 212 153 29 280 -29
332 -151 l21 -48 145 0 c167 0 159 -6 121 101 -26 73 -80 156 -128 196 -17 14
-35 30 -42 36 -19 18 -89 54 -136 69 -126 42 -277 48 -407 17z"/>
<path d="M83 3130 l-42 -5 237 -420 237 -420 2 -235 c1 -129 2 -243 2 -252 1
-16 15 -18 146 -18 l145 0 0 251 0 251 51 92 c29 50 60 103 70 118 11 15 19
29 19 32 0 3 28 54 63 114 35 60 67 115 70 123 4 8 17 30 28 49 80 134 179
313 175 317 -6 6 -296 7 -301 1 -13 -14 -223 -429 -277 -547 l-29 -63 -153
308 -153 309 -124 0 c-68 0 -143 -2 -166 -5z"/>
<path d="M1433 3132 c-32 -2 -43 -7 -44 -20 -1 -24 -1 -150 0 -189 l1 -33 203
0 204 0 1 -532 c0 -293 1 -543 1 -555 1 -23 3 -23 146 -23 l145 0 1 33 c0 17
0 267 0 555 l0 522 205 0 204 0 0 120 0 120 -27 1 c-99 2 -1006 3 -1040 1z"/>
<path d="M3087 3094 c-1 -2 -35 -4 -74 -5 -191 -5 -347 -122 -399 -297 -23
-80 -24 -101 -5 -106 9 -2 71 -4 138 -4 l122 0 6 39 c15 87 86 149 171 149
107 0 160 -45 168 -144 10 -111 -26 -161 -217 -304 -269 -203 -377 -358 -394
-567 l-6 -75 460 0 c361 0 460 3 460 13 0 6 3 28 6 47 10 60 20 134 21 155 1
19 -7 20 -299 20 -336 1 -321 -3 -258 73 36 44 116 110 260 215 199 144 255
238 249 416 -2 77 -8 107 -28 152 -42 93 -125 165 -228 197 -38 12 -148 31
-153 26z"/>
</g>
</svg>
