<svg width="21" height="21" viewBox="0 0 21 21" fill="none" xmlns="http://www.w3.org/2000/svg">
<path fill-rule="evenodd" clip-rule="evenodd" d="M15.9328 14.7398L20.7539 19.5586C21.082 19.8891 21.082 20.4234 20.7563 20.7539C20.5898 20.918 20.3766 21 20.1586 21C19.9406 21 19.725 20.918 19.5609 20.7539L14.7398 15.9328C13.1812 17.2242 11.182 18 9 18C4.02891 18 0 13.9711 0 9C0 4.02891 4.02891 0 9 0C13.9711 0 18 4.02891 18 9C18 11.182 17.2242 13.1812 15.9328 14.7398ZM9 16.3125C9.98906 16.3125 10.9453 16.1203 11.8453 15.7383C12.7172 15.3703 13.4977 14.843 14.1703 14.1703C14.843 13.4977 15.3703 12.7148 15.7383 11.8453C16.1203 10.9453 16.3125 9.98906 16.3125 9C16.3125 8.01094 16.1203 7.05469 15.7383 6.15469C15.3703 5.28516 14.843 4.50234 14.1703 3.82969C13.4977 3.15703 12.7148 2.62969 11.8453 2.26172C10.9453 1.87969 9.98906 1.6875 9 1.6875C8.01094 1.6875 7.05469 1.87969 6.15469 2.26172C5.28516 2.62969 4.50234 3.15703 3.82969 3.82969C3.15703 4.50234 2.62969 5.28516 2.26172 6.15469C1.87969 7.05469 1.6875 8.01094 1.6875 9C1.6875 9.98906 1.87969 10.9453 2.26172 11.8453C2.62969 12.7148 3.15703 13.4977 3.82969 14.1703C4.50234 14.843 5.28516 15.3703 6.15469 15.7383C7.05469 16.1203 8.01094 16.3125 9 16.3125Z" fill="white"/>
</svg>
