<svg id="Layer_1" data-name="Layer 1" xmlns="http://www.w3.org/2000/svg" viewBox="0 0 100 100"><defs><style>.cls-1{fill:#231f20;}.cls-2{fill:#6fbc44;}</style></defs><title>171012_IPVanish</title><g id="Layer_2" data-name="Layer 2"><g id="Layer_1-2" data-name="Layer 1-2"><path class="cls-1" d="M77.91,29.42a8.32,8.32,0,0,0-7-3.41H57.54v7.62h12.1a2.38,2.38,0,0,1,2,1,3.79,3.79,0,0,1,.66,2.26,3.51,3.51,0,0,1-.66,2.18,2.42,2.42,0,0,1-2,1H57.54v7.84H70.91a8.34,8.34,0,0,0,7-3.41A12.12,12.12,0,0,0,80.27,37,12.11,12.11,0,0,0,77.91,29.42Z"/><rect class="cls-2" x="45.18" y="26" width="8.65" height="7.63"/><rect class="cls-2" x="37.63" y="18.96" width="5.3" height="4.68"/><rect class="cls-2" x="31.7" y="18.7" width="3.85" height="3.39"/><rect class="cls-2" x="37.72" y="26" width="5.13" height="4.53"/><rect class="cls-2" x="37.44" y="13.8" width="3.85" height="3.39"/><rect class="cls-2" x="31.86" y="14.03" width="2.84" height="2.51"/><rect class="cls-2" x="27.67" y="10.65" width="2.84" height="2.51"/><rect class="cls-2" x="45.98" y="19.03" width="5.13" height="4.53"/><path class="cls-1" d="M53.82,40.27a9.38,9.38,0,0,0-8.64,10v12h8.64Z"/><path class="cls-2" d="M35.37,82.3l-3-9.22h2.87l1,4c.24,1,.51,2.12.69,3.2h0c.18-1.1.39-2.21.66-3.24l.91-3.94h2.85l-3,9.23Z"/><path class="cls-2" d="M44.26,80.19l-.59,2.11H41.15L44,73.07h3.1l2.59,9.23H47.22l-.57-2.11Zm2.15-1.4L46,76.86c-.14-.56-.32-1.48-.43-2.09h-.06c-.14.62-.33,1.58-.47,2.11l-.49,1.92Z"/><path class="cls-2" d="M51.19,82.3V73.08h2.38l2.05,3.62c.39.71,1.05,1.89,1.42,2.7h0c-.08-1-.26-2.57-.26-4.27v-2h2.28v9.23H56.73l-2-3.51A21.47,21.47,0,0,1,53.38,76h-.07c.06.93.16,2.36.16,4.21v2.07Z"/><path class="cls-2" d="M64,73.08v9.23H61.4V73.08Z"/><path class="cls-2" d="M66,80.47a7,7,0,0,0,2.19.35c1.23,0,1.82-.44,1.82-1s-.59-1-1.72-1.5c-1.82-.77-2.51-1.74-2.51-2.57C65.79,74.22,67.23,73,70,73a6.25,6.25,0,0,1,2.09.33l-.41,1.55a4.29,4.29,0,0,0-1.7-.32c-1.11,0-1.64.47-1.64,1s.39.83,1.84,1.44c1.76.74,2.42,1.67,2.42,2.63,0,1.69-1.8,2.79-4.41,2.79A8.09,8.09,0,0,1,65.64,82Z"/><path class="cls-2" d="M76.7,73.08v3.7h2.71v-3.7H82v9.23H79.41V78.45H76.7v3.86H74.1V73.08Z"/><path class="cls-1" d="M43.34,89.35l-1.54-4.92h1.48l.49,2.13c.12.53.26,1.14.35,1.71h0c.09-.58.2-1.17.33-1.73l.47-2.1h1.46l-1.57,4.92Z"/><path class="cls-1" d="M49,84.5a9.66,9.66,0,0,1,1.39-.09,3.35,3.35,0,0,1,1.86.38,1.25,1.25,0,0,1,.59,1.08,1.42,1.42,0,0,1-.58,1.18,3,3,0,0,1-1.67.47h-.26v1.83H49Zm1.31,2.24h.22c.66,0,1-.34,1-.8s-.24-.77-.87-.77a1.39,1.39,0,0,0-.33,0Z"/><path class="cls-1" d="M55.7,89.35V84.43h1.22L58,86.36c.2.38.54,1,.74,1.44h0c0-.52-.13-1.37-.13-2.28V84.43h1.17v4.92h-1.2l-1-1.9A11.78,11.78,0,0,1,56.82,86h0c0,.5.08,1.25.08,2.25v1.1Z"/><polygon class="cls-1" points="38.28 85.55 18 85.55 18 85.27 38.28 85.27 38.28 85.55 38.28 85.55"/><polygon class="cls-1" points="81.68 85.55 63.29 85.55 63.29 85.27 81.68 85.27 81.68 85.55 81.68 85.55"/><path class="cls-1" d="M21.28,73.08v9.23H18.72V73.08Z"/><path class="cls-1" d="M23.43,73.21a19.44,19.44,0,0,1,2.71-.2,6.73,6.73,0,0,1,3.62.71,2.31,2.31,0,0,1,1.15,2A2.63,2.63,0,0,1,29.78,78a6,6,0,0,1-3.24.9H26V82.3H23.43ZM26,77.4a2,2,0,0,0,.41,0c1.31,0,1.9-.66,1.9-1.5s-.47-1.44-1.68-1.44a2.72,2.72,0,0,0-.66.07Z"/><path class="cls-2" d="M58.89,54.29c7.31.91,12.41,3,12.41,5.36,0,3.24-9.33,5.87-20.84,5.87S29.63,62.9,29.63,59.65c0-2.4,5.1-4.45,12.41-5.36-9.6,1-16.46,3.79-16.46,7,0,4.14,11.16,7.48,24.88,7.48s24.88-3.35,24.88-7.48C75.34,58.08,68.48,55.33,58.89,54.29Z"/></g></g></svg>