<svg id="Layer_1" data-name="Layer 1" xmlns="http://www.w3.org/2000/svg" viewBox="0 0 100 100"><defs><style>.cls-1{fill:#fc0;}.cls-2{fill:#323232;}</style></defs><title>171012_Cyberghost</title><g id="Layer_2" data-name="Layer 2"><g id="Layer_1-2" data-name="Layer 1-2"><path class="cls-1" d="M76.84,38.33a26.7,26.7,0,1,0-26.7,26.73,26.7,26.7,0,0,0,26.7-26.73Z"/><path class="cls-2" d="M63,33.89a13.19,13.19,0,1,0-26.39,0c0,7.29-3.09,20.46,4.2,20.46C73.33,54.35,63,41.17,63,33.89ZM46.89,41.51c-2.7,0-4.86-3.07-4.86-6.86s2.18-6.86,4.86-6.86,4.86,3.07,4.86,6.86S49.59,41.51,46.89,41.51Zm11.34-2.27c-2.13,0-3.86-2.43-3.86-5.42s1.73-5.42,3.86-5.42,3.86,2.43,3.86,5.42-1.72,5.42-3.86,5.42Z"/><path class="cls-2" d="M14.06,84.12c-4,0-5-2.5-5.05-4.59-.15-4.34,2.15-9,7.55-9a10.19,10.19,0,0,1,2.63.32l-.47,1.94a8,8,0,0,0-2.35-.36c-3.52,0-5,3.3-4.86,6.58.07,2.11,1.15,3.13,3.29,3.13a13.27,13.27,0,0,0,2.58-.29,8.31,8.31,0,0,0,1.31-.44A12.51,12.51,0,0,1,19,83.26a8.18,8.18,0,0,1-1.3.44,17.35,17.35,0,0,1-3.6.44Z"/><path class="cls-2" d="M21.11,86.8a4.55,4.55,0,0,1-3.34,1.54,6,6,0,0,1-1.28-.14l.3-1.9a3.1,3.1,0,0,0,1.06.17,2.22,2.22,0,0,0,1.58-.7,2.75,2.75,0,0,0,.72-2.2,32.29,32.29,0,0,0-1.61-8.08H21A27.65,27.65,0,0,1,22,81.59a3.43,3.43,0,0,1-.06.72h0a54,54,0,0,0,2.89-6.8h2.23C25,81.57,23.06,84.76,21.11,86.8Z"/><path class="cls-2" d="M29.34,84.2a13.88,13.88,0,0,1-3-.31L28,73.2v0c-.4-.07-1-.14-1.45-.17l.21-1.38a25,25,0,0,1,3.64-.15l-.61,3.64a18,18,0,0,1-.84,3.08h0c.82-1.71,2-2.91,3.5-2.91,1.31,0,2,.84,2.11,2.67C34.73,81.21,33.1,84.2,29.34,84.2Zm2.37-7c-1.21,0-2.64,2.81-2.92,4.58l-.1.61a4.06,4.06,0,0,0,1,.12c2,0,2.81-2.31,2.75-4.1,0-.86-.29-1.21-.7-1.21Z"/><path class="cls-2" d="M37.14,80.55a4.16,4.16,0,0,0,0,.67c0,1,.43,1.28,1.61,1.28A6.56,6.56,0,0,0,41.19,82l.61-.25-.35,1.86a10.18,10.18,0,0,1-3.4.61c-2.17,0-3-1-3.13-2.89-.13-3.58,2-6,4.63-6,2.12,0,2.81,1.05,2.84,2.08C42.49,79.45,40.49,80.45,37.14,80.55Zm2.25-3.64c-1.12,0-1.79,1-2.06,2.15,2-.07,3-.48,3-1.4,0-.42-.35-.72-.92-.72Z"/><path class="cls-2" d="M47.87,77.47c-1.52-.56-2.89,2-3.31,4.72l-.28,1.86H42.14s.92-5.67,1.05-6.51a2.15,2.15,0,0,0-.61-1.88l3-.26a18.79,18.79,0,0,1-.66,2.67h0c.85-1.82,1.76-3.08,3.36-2.74Z"/><path class="cls-2" d="M55.16,84.15c-3.55,0-5.56-1.78-5.68-5a8,8,0,0,1,8.3-8.7,13.92,13.92,0,0,1,3.69.48L60.93,73a9.65,9.65,0,0,0-3.32-.61c-3.39,0-5.85,2.76-5.72,6.43a3.35,3.35,0,0,0,3.71,3.42,7.67,7.67,0,0,0,2-.27l.13,0,.72-4.72h2.14l-1,6.21A13.8,13.8,0,0,1,55.16,84.15Z"/><path class="cls-2" d="M69.33,84H67.18L68,78.68c.15-1.05,0-1.48-.57-1.48-1.15,0-2.61,2.68-2.92,4.68L64.21,84H62.05L63.74,73.2v0c-.4-.07-1-.14-1.45-.17l.19-1.38a25.13,25.13,0,0,1,3.64-.15l-.56,3.64a18.61,18.61,0,0,1-.81,3h0c.72-1.53,1.86-2.86,3.5-2.86s2.19,1.17,1.93,2.84Z"/><path class="cls-2" d="M74.09,84.22c-2.39,0-3.38-1.14-3.44-3-.13-3.58,2.2-5.84,4.94-5.84,2.43,0,3.4,1.31,3.47,3.12C79.17,82,76.77,84.22,74.09,84.22Zm1.21-7c-1.6,0-2.5,1.91-2.43,3.64,0,.93.43,1.51,1.43,1.51,1.53,0,2.54-1.71,2.47-3.64,0-1-.46-1.51-1.46-1.51Z"/><path class="cls-2" d="M90.71,77.19h-2l-.61,3.86c-.15,1,0,1.31.7,1.31a4.64,4.64,0,0,0,1.06-.12L89.71,84a7.83,7.83,0,0,1-1.75.22c-1.82,0-2.39-.88-2.07-2.93l.61-4.1H85.13l.29-1.71h1.35l.41-2.64,2.22-.45-.48,3.08H91Z"/><path class="cls-2" d="M83.36,76.92a5.08,5.08,0,0,1,1.34.17L85,75.46a8.89,8.89,0,0,0-1.59-.15c-2.43,0-3.64,1.21-3.57,2.77.07,2,2.27,2.27,2.31,3.43a.81.81,0,0,1-.5.8h0l-.24.09a3.38,3.38,0,0,1-2.53-.24,4.16,4.16,0,0,1-1.32,1.54,10.23,10.23,0,0,0,3,.52c2.67,0,3.86-1.48,3.81-2.91-.07-1.9-2.3-2.39-2.34-3.44C82,77.31,82.46,76.92,83.36,76.92Z"/></g></g></svg>