<svg width="110" height="39" viewBox="0 0 110 39" fill="none" xmlns="http://www.w3.org/2000/svg">
<path d="M102.177 12.0598C102.177 14.1966 103.874 15.9545 105.984 15.9545C108.094 15.9545 109.811 14.1966 109.811 12.0598C109.811 9.91244 108.094 8.15454 105.984 8.15454C103.874 8.15454 102.177 9.91244 102.177 12.0598ZM103.057 12.0598C103.057 10.3335 104.339 8.98612 105.984 8.98612C107.629 8.98612 108.911 10.3335 108.911 12.0598C108.911 13.7756 107.629 15.123 105.984 15.123C104.339 15.123 103.057 13.7756 103.057 12.0598ZM106.605 14.1335H107.691L106.863 12.5124C107.339 12.3019 107.66 11.8493 107.66 11.2914C107.66 10.5335 107.039 9.92296 106.243 9.92296H104.608V14.1335H105.591V12.6703H105.891L106.605 14.1335ZM105.591 11.8493V10.744H106.067C106.439 10.744 106.667 10.9545 106.667 11.3019C106.667 11.6388 106.439 11.8493 106.067 11.8493H105.591Z" fill="white"/>
<path d="M93.6837 10.9907H97.1971V16.3422H100.096V19.8874H97.1971V25.6343C97.1971 26.6413 97.9306 26.9957 98.5955 26.9957H100.096V30.4907H97.85C95.3328 30.4907 93.3323 28.7291 93.3323 25.6343V19.8874H90.7266V16.3311H93.678L93.6837 10.9907Z" fill="white"/>
<path d="M89.3383 16.3218C89.0607 16.2931 88.7916 16.3218 88.4862 16.3218C87.3203 16.3218 85.4241 16.6087 84.5913 18.473V16.3218H81.0103V30.4909H84.7024V24.0374C84.7024 20.9971 86.2558 19.8678 88.1435 19.8678C88.4766 19.8678 89.3383 19.8678 89.3383 19.8678V16.3218Z" fill="white"/>
<path d="M70.3305 21.8786C70.4099 20.656 71.4159 19.2433 73.2425 19.2433C75.2544 19.2433 76.1015 20.5473 76.1544 21.8786H70.3305ZM76.4986 25.3561C76.075 26.5515 75.175 27.3937 73.5337 27.3937C71.7865 27.3937 70.3305 26.1168 70.2511 24.3509H79.5694C79.5694 24.2965 79.6223 23.7532 79.6223 23.237C79.6223 18.9444 77.2133 16.3091 73.1895 16.3091C69.854 16.3091 66.7832 19.0802 66.7832 23.3457C66.7832 27.8556 69.9334 30.4909 73.5072 30.4909C76.7104 30.4909 78.7752 28.562 79.437 26.2527L76.4986 25.3561Z" fill="white"/>
<path fill-rule="evenodd" clip-rule="evenodd" d="M65.5836 17.5122C65.576 17.5211 65.5685 17.53 65.5609 17.539V8.15454H61.7666V30.4908H65.5609V22.1913C65.5658 22.1036 65.5734 22.017 65.5836 21.9317V17.5122Z" fill="white"/>
<path d="M55.7814 30.4908H60.3785L52.1038 8.15454H47.2002L38.8643 30.4908H43.3387L45.1469 25.3872H53.9732L55.7814 30.4908ZM49.5601 12.9746L52.5635 21.4177H46.5567L49.5601 12.9746Z" fill="white"/>
<path fill-rule="evenodd" clip-rule="evenodd" d="M23.3308 0.00343491C23.2872 0.0022968 23.2435 0.00115552 23.1996 0H14.4375C8.70182 0.318272 6.29078 3.7457 5.64392 5.57104C3.08136 13.4716 0.695494 28.8834 0.371733 31.0238C0.0479727 33.1642 0.00491552 34.4674 0.00491552 34.4674C-0.0168441 35.0112 0.0325436 35.5999 0.17498 36.1717C0.879497 38.2726 3.00372 40.0424 7.68364 38.2792C12.1044 36.2963 17.3269 33.8349 22.7272 31.0705C24.9091 29.7727 27.8109 27.2786 29.3944 24.0416C30.0421 22.7176 30.4692 21.2693 30.5363 19.7277C30.5336 19.4764 30.531 19.2241 30.5284 18.9709C30.4901 15.2565 30.4499 11.3533 30.2064 7.59124C30.2064 7.59124 30.0179 5.17153 29.8937 4.29951C29.7696 3.42749 29.599 3.12491 29.599 3.12491C28.8398 1.42336 27.3794 0.57325 25.8292 0.176273C25.1222 0.050187 24.2538 0.0275228 23.3308 0.00343491ZM22.9965 7.9708C22.9965 7.55155 22.6589 7.21168 22.2425 7.21168H21.8655C17.0767 7.21168 13.1947 11.1202 13.1947 15.9416V20.0219C13.1947 22.5374 11.1693 24.5766 8.67079 24.5766H8.2938C7.87739 24.5766 7.53982 24.9165 7.53982 25.3358V27.9927C7.53982 28.412 7.87739 28.7518 8.2938 28.7518H8.67079C13.4595 28.7518 17.3416 24.8433 17.3416 20.0219V15.9416C17.3416 13.4261 19.367 11.3869 21.8655 11.3869H22.2425C22.6589 11.3869 22.9965 11.047 22.9965 10.6277V7.9708Z" fill="white"/>
</svg>
