<svg xmlns="http://www.w3.org/2000/svg" viewBox="0 0 92 92"><defs><style>.cls-1{fill:#fff;}.cls-2{fill:#f2f2f2;}.cls-3{fill:#ffa318;}</style></defs><title>AmazonFireStick</title><g id="Capa_2" data-name="Capa 2"><g id="AmazonFire"><circle class="cls-1" cx="46" cy="46" r="45.5"/><path class="cls-2" d="M46,1A45,45,0,1,1,1,46,45.05,45.05,0,0,1,46,1m0-1A46,46,0,1,0,92,46,46,46,0,0,0,46,0Z"/><path class="cls-3" d="M15.11,64.89c.2-.36.5-.38.92-.06A54.12,54.12,0,0,0,47.19,74.6a53.55,53.55,0,0,0,22.16-4.92l.83-.4.78-.41a.93.93,0,0,1,1.34.41A1,1,0,0,1,72,70.76c-.69.59-1.57,1.26-2.64,2a39.47,39.47,0,0,1-11,5.33A39.59,39.59,0,0,1,29.6,76.32,46.11,46.11,0,0,1,15.34,66,1,1,0,0,1,15,65.3.9.9,0,0,1,15.11,64.89Z"/><path d="M67.69,54c-.77-1-1.33-1.75-1.67-2.21A9.27,9.27,0,0,1,65,49.48,10.49,10.49,0,0,1,64.42,46V28.43c0-.2,0-.81-.07-1.86a10.94,10.94,0,0,0-.22-2c-.1-.32-.25-.89-.44-1.71A7.4,7.4,0,0,0,63,20.94a13.15,13.15,0,0,0-1-1.49,12.49,12.49,0,0,0-1.34-1.57q-4.65-4.29-13-4.29H46a22.79,22.79,0,0,0-11.31,3.49,14,14,0,0,0-6.08,9.6,2.79,2.79,0,0,0-.07.51c0,.68.41,1.12,1.24,1.31l8.36,1a1.85,1.85,0,0,0,1.46-1.67,5.91,5.91,0,0,1,2.25-3.64A8,8,0,0,1,46,22.68h.58a5.47,5.47,0,0,1,4.8,2.18q1,1.61,1,6.26v1.23c-3,.25-5.1.44-6.4.59a36.3,36.3,0,0,0-9.68,2.4,15.22,15.22,0,0,0-6.76,5.38A14.64,14.64,0,0,0,27,49.3q0,6.33,3.6,9.78a12.75,12.75,0,0,0,9.2,3.46A22.17,22.17,0,0,0,46,61.81q3.91-1.1,8-5.53c.19.24.53.72,1,1.42A16.92,16.92,0,0,0,56,59.12c.22.24.58.63,1.09,1.16A22.75,22.75,0,0,0,58.89,62,2,2,0,0,0,61,61.81l6.55-5.67a1.28,1.28,0,0,0,.58-1A2.22,2.22,0,0,0,67.69,54ZM52.35,41c0,1.55,0,2.67,0,3.34A14.08,14.08,0,0,1,51.87,47a11,11,0,0,1-1.2,3A7.37,7.37,0,0,1,46,54a3.89,3.89,0,0,0-.55.08,3.51,3.51,0,0,1-.62.07A4.71,4.71,0,0,1,41,52.39a6.91,6.91,0,0,1-1.41-4.54q0-6.26,6.4-8.08a26.34,26.34,0,0,1,6.4-.58Z"/><path class="cls-3" d="M66.26,66a2.3,2.3,0,0,1,.34-.54A8.6,8.6,0,0,1,69.35,64a15.89,15.89,0,0,1,4.24-.74,2.83,2.83,0,0,1,1.09.06q2.58.27,3.09,1A2.54,2.54,0,0,1,78,65.5V66a17.61,17.61,0,0,1-1.09,5.57,13.3,13.3,0,0,1-3,5.16.82.82,0,0,1-.52.27.51.51,0,0,1-.23-.07c-.23-.14-.28-.38-.17-.74q2.12-5.88,2.12-8.16a2,2,0,0,0-.23-1.08q-.57-.81-3.21-.81a22.71,22.71,0,0,0-2.29.13c-.95.14-1.83.27-2.63.41a.6.6,0,0,1-.46-.14.24.24,0,0,1-.06-.27A.58.58,0,0,1,66.26,66Z"/></g></g></svg>