<svg width="163" height="39" viewBox="0 0 163 39" fill="none" xmlns="http://www.w3.org/2000/svg">
<path fill-rule="evenodd" clip-rule="evenodd" d="M23.8882 0.00341257C23.8448 0.00228187 23.8013 0.00114801 23.7577 0H15.0408C9.33467 0.316202 6.93607 3.72134 6.29254 5.5348C3.7432 13.384 1.36964 28.6955 1.04755 30.822C0.72546 32.9485 0.682625 34.2432 0.682625 34.2432C0.660977 34.7835 0.71011 35.3683 0.851812 35.9364C1.5527 38.0237 3.66596 39.782 8.32175 38.0303C12.7197 36.0602 17.9153 33.6148 23.2877 30.8684C25.4584 29.5791 28.3452 27.1011 29.9205 23.8853C30.5648 22.5698 30.9898 21.131 31.0565 19.5994C31.0539 19.3498 31.0513 19.0991 31.0487 18.8476C31.0106 15.1573 30.9705 11.2795 30.7283 7.54187C30.7283 7.54187 30.5408 5.1379 30.4173 4.27155C30.2938 3.4052 30.1241 3.10459 30.1241 3.10459C29.3688 1.4141 27.9159 0.569522 26.3737 0.175127C25.6704 0.0498606 24.8064 0.0273438 23.8882 0.00341257ZM23.5556 7.91897C23.5556 7.50245 23.2198 7.16479 22.8055 7.16479H22.4304C17.6664 7.16479 13.8044 11.0479 13.8044 15.8379V19.8917C13.8044 22.3908 11.7894 24.4168 9.30381 24.4168H8.92876C8.51449 24.4168 8.17867 24.7545 8.17867 25.171V27.8106C8.17867 28.2272 8.51449 28.5648 8.92876 28.5648H9.30381C14.0679 28.5648 17.9299 24.6817 17.9299 19.8917V15.8379C17.9299 13.3388 19.9449 11.3128 22.4304 11.3128H22.8055C23.2198 11.3128 23.5556 10.9752 23.5556 10.5586V7.91897Z" fill="white"/>
<path d="M155 11.8799C155 14.0028 156.688 15.7493 158.787 15.7493C160.886 15.7493 162.595 14.0028 162.595 11.8799C162.595 9.74646 160.886 8 158.787 8C156.688 8 155 9.74646 155 11.8799ZM155.875 11.8799C155.875 10.1648 157.151 8.82617 158.787 8.82617C160.423 8.82617 161.699 10.1648 161.699 11.8799C161.699 13.5845 160.423 14.9231 158.787 14.9231C157.151 14.9231 155.875 13.5845 155.875 11.8799ZM159.405 13.9401H160.485L159.662 12.3296C160.135 12.1204 160.454 11.6707 160.454 11.1164C160.454 10.3635 159.837 9.75692 159.044 9.75692H157.418V13.9401H158.396V12.4864H158.694L159.405 13.9401ZM158.396 11.6707V10.5726H158.869C159.24 10.5726 159.466 10.7818 159.466 11.1269C159.466 11.4616 159.24 11.6707 158.869 11.6707H158.396Z" fill="white"/>
<path d="M56.2551 29.6735H60.6723L52.7214 8.79509H48.0098L40 29.6735H44.2994L46.0368 24.903H54.5177L56.2551 29.6735ZM50.2772 13.3006L53.1631 21.1925H47.3914L50.2772 13.3006Z" fill="white"/>
<path d="M65.65 21.3398C65.65 19.6613 66.6512 18.3361 68.3592 18.3361C70.2438 18.3361 71.0389 19.6024 71.0389 21.222V29.6735H74.9554V20.5447C74.9554 17.3644 73.3064 14.8024 69.7138 14.8024C68.153 14.8024 66.4156 15.4797 65.5322 16.9815V15.1852H61.7334V29.6735H65.65V21.3398Z" fill="white"/>
<path d="M82.6828 10.8564H79.1491V12.8883C79.1491 14.184 78.4424 15.1852 76.9111 15.1852H76.1749V18.6601H78.7957V25.4036C78.7957 28.2011 80.5626 29.8796 83.3896 29.8796C84.538 29.8796 85.2448 29.6735 85.5981 29.5262V26.287C85.392 26.3459 84.862 26.4048 84.3908 26.4048C83.2718 26.4048 82.6828 25.9925 82.6828 24.7263V18.6601H85.5981V15.1852H82.6828V10.8564Z" fill="white"/>
<path d="M91.4358 29.6735V15.1852H87.5193V29.6735H91.4358ZM87.0481 10.4442C87.0481 11.7399 88.1377 12.8294 89.4628 12.8294C90.8174 12.8294 91.8776 11.7399 91.8776 10.4442C91.8776 9.08956 90.8174 8 89.4628 8C88.1377 8 87.0481 9.08956 87.0481 10.4442Z" fill="white"/>
<path d="M108.012 15.1852H103.889L100.444 24.903L96.8509 15.1852H92.5516L98.4705 29.6735H102.387L108.012 15.1852Z" fill="white"/>
<path d="M113.196 29.6735V15.1852H109.279V29.6735H113.196ZM108.808 10.4442C108.808 11.7399 109.898 12.8294 111.223 12.8294C112.577 12.8294 113.637 11.7399 113.637 10.4442C113.637 9.08956 112.577 8 111.223 8C109.898 8 108.808 9.08956 108.808 10.4442Z" fill="white"/>
<path d="M124.795 15.1263C124.5 15.0969 124.206 15.0674 123.882 15.0674C122.645 15.0674 120.643 15.4208 119.759 17.3349V15.1852H115.96V29.6735H119.877V23.0477C119.877 19.9263 121.614 18.9545 123.617 18.9545C123.97 18.9545 124.353 18.984 124.795 19.0723V15.1263Z" fill="white"/>
<path d="M135.632 29.6735H139.372C139.313 29.1729 139.225 28.1716 139.225 27.0526V15.1852H135.308V23.6073C135.308 25.2858 134.307 26.4637 132.57 26.4637C130.744 26.4637 129.919 25.168 129.919 23.5484V15.1852H126.003V24.3434C126.003 27.4943 128.005 30.0563 131.51 30.0563C133.041 30.0563 134.719 29.4673 135.515 28.1127C135.515 28.7017 135.573 29.379 135.632 29.6735Z" fill="white"/>
<path d="M141.033 25.6391C141.21 27.2882 142.712 30.1152 147.07 30.1152C150.869 30.1152 152.695 27.7005 152.695 25.3447C152.695 23.2244 151.252 21.487 148.395 20.8981L146.334 20.4564C145.539 20.3091 145.009 19.8674 145.009 19.1607C145.009 18.3361 145.833 17.7177 146.864 17.7177C148.513 17.7177 149.131 18.8073 149.249 19.6613L152.518 18.9251C152.341 17.3644 150.957 14.7435 146.835 14.7435C143.713 14.7435 141.416 16.8932 141.416 19.4846C141.416 21.5165 142.682 23.195 145.48 23.8134L147.394 24.2551C148.513 24.4907 148.955 25.0207 148.955 25.6686C148.955 26.4342 148.336 27.1115 147.041 27.1115C145.333 27.1115 144.479 26.0514 144.39 24.903L141.033 25.6391Z" fill="white"/>
</svg>
