<svg width="16" height="16" viewBox="0 0 16 16" fill="none" xmlns="http://www.w3.org/2000/svg"><g clip-path="url(#clip0_2519_209)"><path d="M7.695 10.095a.702.702 0 01-.99 0l-1.6-1.6a.702.702 0 010-.99.702.702 0 01.99 0L7.2 8.61l2.705-2.705a.702.702 0 01.99 0 .702.702 0 010 .99l-3.2 3.2zM14.4 8A6.4 6.4 0 018 14.4 6.4 6.4 0 011.6 8 6.4 6.4 0 018 1.6 6.4 6.4 0 0114.4 8zM8 2.8A5.2 5.2 0 002.8 8 5.2 5.2 0 008 13.2 5.2 5.2 0 0013.2 8 5.2 5.2 0 008 2.8z" fill="#000"/></g><defs><clipPath id="clip0_2519_209"><path fill="#fff" d="M0 0h16v16H0z"/></clipPath></defs></svg>