<svg xmlns="http://www.w3.org/2000/svg" width="50.207" height="50.207" viewBox="0 0 50.207 50.207">
  <path id="loyalty_FILL0_wght400_GRAD0_opsz48" d="M19.667,27.374l6.2-6.2a3,3,0,0,0,.709-1.085,3.605,3.605,0,0,0,.221-1.262,3.4,3.4,0,0,0-3.411-3.411,3.23,3.23,0,0,0-1.772.576,9.227,9.227,0,0,0-1.949,1.86,9.228,9.228,0,0,0-1.949-1.86,3.23,3.23,0,0,0-1.772-.576,3.4,3.4,0,0,0-3.411,3.411,3.605,3.605,0,0,0,.221,1.262,3,3,0,0,0,.709,1.085Zm-.354,8.062a2.958,2.958,0,0,1-1.019-.177,2.851,2.851,0,0,1-.93-.576L.753,18.072a2.851,2.851,0,0,1-.576-.93A2.958,2.958,0,0,1,0,16.123V2.658A2.576,2.576,0,0,1,2.658,0H16.123a3.78,3.78,0,0,1,1.063.155,2.275,2.275,0,0,1,.974.6L34.683,17.275a2.636,2.636,0,0,1,0,3.942L21.217,34.683a2.483,2.483,0,0,1-.864.554A2.834,2.834,0,0,1,19.312,35.436Zm0-2.658L32.778,19.312,16.123,2.658H2.658V16.123Zm-12-23.21a2.212,2.212,0,0,0,1.617-.687,2.247,2.247,0,0,0,0-3.233,2.247,2.247,0,0,0-3.233,0,2.247,2.247,0,0,0,0,3.233A2.212,2.212,0,0,0,7.309,9.568ZM2.658,2.658Z" transform="translate(0 25.151) rotate(-45)" fill="#00838f"/>
</svg>
