<svg width="16" height="16" viewBox="0 0 16 16" fill="none" xmlns="http://www.w3.org/2000/svg">
    <style>
        .ball {
            fill: #3333ff;
        }
        .tee, .oh {
            fill: #232434;
        }
        @media ( prefers-color-scheme: dark ) {
            .ball {
                fill: #7787F2;
            }
            .tee, .oh {
                fill: white;
            }
        }
    </style>
<path class="ball" fill-rule="evenodd" clip-rule="evenodd" d="M12.341 10.8715C13.1966 10.8715 13.8901 10.1597 13.8901 9.2817C13.8901 8.40368 13.1966 7.69189 12.341 7.69189C11.4855 7.69189 10.792 8.40368 10.792 9.2817C10.792 10.1597 11.4855 10.8715 12.341 10.8715Z"/>
<path class="tee" fill-rule="evenodd" clip-rule="evenodd" d="M3.96389 12.9707H2.39447V6.02035H0.264531C0.0912826 6.02035 -0.000437144 5.81653 0.111665 5.68404L2.39447 3.03436L3.96389 3.02417V12.9707Z"/>
<path class="oh" fill-rule="evenodd" clip-rule="evenodd" d="M5.88965 8.04847C5.88965 5.00134 8.15207 2.88159 10.9342 2.88159C13.7266 2.88159 15.9788 5.00134 15.9788 8.04847C15.9788 11.0956 13.7266 13.2153 10.9342 13.2153C8.14188 13.2153 5.88965 11.0956 5.88965 8.04847ZM7.63232 8.0179C7.63232 10.1275 8.99793 11.5848 10.9342 11.5848C12.8705 11.5848 14.2361 10.1173 14.2361 8.0179C14.2361 5.91853 12.8705 4.46121 10.9342 4.46121C8.99793 4.46121 7.63232 5.90834 7.63232 8.0179Z"/>
</svg>
