<svg width="85" height="12" viewBox="0 0 85 12" fill="none" xmlns="http://www.w3.org/2000/svg">
    <path
            d="M39.8096 10.3543H40.9689L41.7354 8.57213H44.7823L45.5584 10.3543H46.7273L43.7571 3.5515H42.7798L39.8096 10.3543ZM42.1666 7.57567L43.2589 5.05577L44.3511 7.57567H42.1666Z"
            fill="#395BB6" />
    <path
            d="M47.6037 10.3543H49.6924C51.7141 10.3543 53.2567 8.87874 53.2567 6.95288C53.2567 5.02703 51.7141 3.5515 49.6924 3.5515H47.6037V10.3543ZM48.7247 9.3099V4.59587H49.6924C51.1488 4.59587 52.1165 5.62107 52.1165 6.95288C52.1165 8.28469 51.1488 9.3099 49.6924 9.3099H48.7247Z"
            fill="#395BB6" />
    <path
            d="M56.3262 10.3543H57.3035L60.1587 3.5515H58.9227L56.8148 8.6392L54.6974 3.5515H53.4709L56.3262 10.3543Z"
            fill="#395BB6" />
    <path d="M61.0494 10.3543H62.1705V3.5515H61.0494V10.3543Z" fill="#395BB6" />
    <path
            d="M63.3108 9.24283C63.7228 9.97101 64.633 10.4692 65.7349 10.4692C67.0667 10.4692 68.0057 9.69315 68.0057 8.50507C68.0152 7.48944 67.4116 6.88581 66.4056 6.51214L65.7157 6.25344C65.0163 5.99475 64.6809 5.77438 64.6809 5.27615C64.6809 4.7875 65.1792 4.49047 65.754 4.49047C66.281 4.49047 66.7026 4.72043 67.0475 5.12284L67.8236 4.36592C67.3254 3.77187 66.6068 3.43652 65.7636 3.43652C64.4989 3.43652 63.5503 4.16471 63.5503 5.3528C63.5503 6.28219 64.0773 6.87623 65.16 7.26907L65.9073 7.53735C66.5589 7.77688 66.8751 8.09307 66.8751 8.57213C66.8751 9.07995 66.4056 9.4153 65.7732 9.4153C65.1121 9.4153 64.5468 9.08953 64.1923 8.54339L63.3108 9.24283Z"
            fill="#395BB6" />
    <path
            d="M75.8195 6.95288C75.8195 4.9887 74.2481 3.43652 72.3031 3.43652C70.3485 3.43652 68.7868 4.9887 68.7868 6.95288C68.7868 8.91706 70.3485 10.4692 72.3031 10.4692C74.2481 10.4692 75.8195 8.91706 75.8195 6.95288ZM69.9174 6.95288C69.9174 5.60191 70.9521 4.51922 72.3031 4.51922C73.6445 4.51922 74.6793 5.60191 74.6793 6.95288C74.6793 8.30386 73.6445 9.38655 72.3031 9.38655C70.9521 9.38655 69.9174 8.30386 69.9174 6.95288Z"
            fill="#395BB6" />
    <path
            d="M77.0496 10.3543H78.1706V7.36488H78.6784L81.1696 10.3543H82.5493L80.0198 7.29781C80.9971 7.06786 81.5624 6.44507 81.5624 5.48694C81.5624 4.36592 80.7671 3.5515 79.5024 3.5515H77.0496V10.3543ZM78.1706 6.38758V4.58629H79.3683C80.0294 4.58629 80.4414 4.90247 80.4414 5.48694C80.4414 6.0714 80.0294 6.38758 79.3683 6.38758H78.1706Z"
            fill="#395BB6" />
    <g clip-path="url(#clip0)">
        <path
                d="M17.9324 3.53516C17.6216 3.53516 17.4569 3.56876 17.206 3.68451C16.7492 3.8936 16.4084 4.23338 16.1014 4.78598L16.0041 4.95774L16.0153 4.65156C16.0228 4.48354 16.034 4.1699 16.0415 3.95334L16.0527 3.56129H15.9891C15.9067 3.56129 13.267 4.08776 13.1883 4.12136C13.1359 4.14377 13.1284 4.16617 13.1284 4.29312C13.1284 4.4238 13.1359 4.43874 13.1883 4.44994C13.222 4.45741 13.3418 4.47981 13.4579 4.50221C13.6901 4.54702 13.7612 4.58435 13.8586 4.7113C14.0345 4.94653 14.072 5.35725 14.072 7.10841C14.072 8.53845 14.042 9.25161 13.9709 9.47564C13.8885 9.7482 13.7387 9.89009 13.4804 9.93489C13.398 9.94983 13.2857 9.97223 13.237 9.98343L13.1434 10.0021L13.1359 10.1851C13.1322 10.312 13.1397 10.3755 13.1621 10.3904C13.1808 10.4016 14.0832 10.4091 15.1653 10.4054L17.1348 10.3979L17.1423 10.1925C17.1461 10.0805 17.1423 9.98717 17.1274 9.98717C16.9738 9.98717 16.5058 9.92369 16.4309 9.89382C16.21 9.80048 16.1014 9.60258 16.0565 9.19933C16.0003 8.72514 15.9704 7.54526 15.9853 6.58194C16.0003 5.60742 16.0003 5.60368 16.0602 5.53647C16.2025 5.38339 16.5657 5.26391 16.8877 5.26391C17.1461 5.26391 17.4157 5.33112 17.7002 5.46553C17.8388 5.53274 17.9623 5.57755 17.9811 5.57381C18.0185 5.55888 18.6625 3.85626 18.6625 3.77785C18.6663 3.65464 18.2993 3.53516 17.9324 3.53516Z"
                fill="#181716" />
        <path
                d="M13.1323 6.49603C12.9938 5.31614 12.492 4.45364 11.6645 3.96824C10.7472 3.43057 9.35054 3.39697 8.3583 3.89357C7.64314 4.25201 7.05528 4.94276 6.79692 5.73433C6.52733 6.55203 6.52733 7.62737 6.79692 8.46374C6.96916 8.99767 7.20131 9.38972 7.56076 9.74443C7.99136 10.1701 8.55675 10.4427 9.20077 10.536C9.43292 10.5696 10.1593 10.5696 10.399 10.536C10.5113 10.5211 10.706 10.4763 10.8333 10.4427C12.0053 10.1029 12.8028 9.20677 13.0761 7.92234C13.1473 7.61617 13.1735 6.85447 13.1323 6.49603ZM10.1705 10.0282C9.44415 10.2448 8.92369 9.55401 8.7215 8.1053C8.65785 7.63857 8.65785 6.36161 8.7215 5.82768C8.86378 4.66273 9.22324 4.07279 9.79237 4.06905C10.047 4.06905 10.1893 4.13253 10.3915 4.33042C10.867 4.80835 11.0954 5.72313 11.0917 7.16064C11.0879 8.30692 10.9756 9.02754 10.7172 9.51667C10.5899 9.7519 10.3578 9.9722 10.1705 10.0282Z"
                fill="#181716" />
        <path
                d="M3.52063 1.81027H4.35936C5.32165 1.81027 5.47891 1.82894 5.81964 1.99696C6.31389 2.23965 6.67335 2.71758 6.99162 3.55022C7.11892 3.88999 7.11892 3.88626 7.40349 3.80038L7.59445 3.74438L7.57573 2.51969C7.5645 1.8476 7.54952 1.24646 7.54203 1.18672L7.52331 1.08217L3.85013 1.07471C1.8282 1.07097 0.135772 1.07471 0.0908402 1.08217L0.000976562 1.09711L0.0084652 1.31367L0.0159538 1.53023L0.296778 1.56384C0.659976 1.60864 0.877147 1.70945 1.00445 1.89614C1.29277 2.31806 1.34519 2.89307 1.34519 5.61874C1.34519 8.52364 1.28528 9.22933 1.00445 9.59525C0.858425 9.78567 0.742351 9.84541 0.416596 9.90515C-0.0102564 9.98356 0.00472088 9.97236 0.00472088 10.1927C0.00472088 10.3159 0.0159538 10.3793 0.0384197 10.3905C0.0870958 10.4092 4.78621 10.4129 4.83489 10.3905C4.89854 10.3644 4.8948 10.0209 4.83114 9.98729C4.80493 9.97236 4.64767 9.94249 4.47918 9.91635C4.31068 9.89022 4.12347 9.84914 4.0673 9.82301C3.76027 9.68859 3.58803 9.31894 3.52438 8.65059C3.47945 8.17267 3.442 7.28776 3.442 6.63434V6.03693L3.72657 6.0444C4.33689 6.06307 4.65142 6.09667 4.77872 6.15268C5.0558 6.27589 5.27672 6.61194 5.39279 7.08613L5.4527 7.34003L5.66987 7.3475L5.88704 7.35496V4.17003L5.66987 4.1775L5.4527 4.18496L5.38905 4.43513C5.26549 4.92426 5.06704 5.22296 4.77124 5.36111C4.65142 5.41712 4.5653 5.43205 4.27699 5.45072C4.08603 5.46193 3.82018 5.47313 3.68164 5.47313H3.43451V4.68156C3.43451 3.88999 3.4757 2.20978 3.50566 1.94842L3.52063 1.81027Z"
                fill="#181716" />
        <path
                d="M36.8603 7.4373C36.6356 6.98925 36.2238 6.68681 35.3626 6.32463C34.6586 6.02966 34.3029 5.82804 34.0858 5.59281C33.9098 5.40238 33.8574 5.24556 33.8761 4.96179C33.8911 4.69669 33.9585 4.53987 34.1232 4.36439C34.3366 4.13662 34.6287 4.05821 34.9807 4.13289C35.5573 4.25237 35.9242 4.65189 36.2425 5.49199C36.3548 5.7907 36.3698 5.8019 36.572 5.72722L36.6993 5.67868L36.6956 5.33517C36.6918 5.14475 36.6843 4.74523 36.6731 4.45026L36.6581 3.90139L36.5608 3.86032C36.0328 3.63629 35.0293 3.49814 34.3778 3.55788C33.6364 3.62509 33.0898 3.86032 32.6704 4.29344C32.2548 4.72283 32.0638 5.23063 32.0975 5.83177C32.1237 6.32836 32.2735 6.68681 32.5805 6.99671C32.8651 7.28795 33.1047 7.4261 33.79 7.6912C34.8945 8.12059 35.1903 8.37822 35.1866 8.90842C35.1866 9.35648 34.947 9.68505 34.5126 9.83814C34.3591 9.89414 33.9659 9.89414 33.7563 9.83814C33.2058 9.69252 32.7865 9.21833 32.427 8.33715L32.3334 8.11312L32.2248 8.11685C32.1649 8.12059 32.0825 8.13926 32.0451 8.15793L31.9702 8.19153L31.9777 8.57611C31.9814 8.78894 31.9927 9.23326 32.0002 9.5693L32.0151 10.1742L32.1387 10.2265C32.3896 10.3347 33.1459 10.499 33.6177 10.5513C33.6776 10.5588 33.9996 10.5588 34.3366 10.555C34.9207 10.5476 34.9619 10.5438 35.2577 10.4692C36.1264 10.2414 36.6881 9.75973 36.9352 9.0279C37.0101 8.80387 37.0213 8.73293 37.0325 8.40062C37.0475 7.96004 37.0063 7.72854 36.8603 7.4373Z"
                fill="#181716" />
        <path
                d="M30.1507 3.80358C29.4206 3.43766 28.2898 3.4638 27.4623 3.86705C26.6797 4.2479 26.1405 4.88265 25.841 5.77876C25.6837 6.24548 25.6351 6.6226 25.65 7.22747C25.6613 7.60832 25.6762 7.80621 25.7174 7.98544C26.0245 9.35948 26.9718 10.2929 28.2898 10.5319C28.5818 10.5842 29.2408 10.5842 29.5366 10.5356C29.956 10.4609 30.439 10.278 30.746 10.0689C31.1167 9.81873 31.5024 9.44162 31.5024 9.32214C31.5024 9.2512 31.3751 9.08691 31.3189 9.08691C31.2965 9.08691 31.1916 9.13918 31.0905 9.20639C30.7273 9.44162 30.3791 9.5387 29.8923 9.5387C29.2259 9.5387 28.799 9.37068 28.3759 8.94502C28.1887 8.7546 28.11 8.65379 28.0127 8.46336C27.7993 8.04891 27.6832 7.57472 27.6645 7.03705L27.657 6.80555L29.6265 6.79809L31.596 6.79062L31.6035 6.6562C31.6072 6.58153 31.5998 6.3911 31.581 6.23055C31.4575 5.03573 30.9745 4.21429 30.1507 3.80358ZM28.1662 6.22308L27.6682 6.23055V6.12227C27.6682 6.06253 27.6869 5.90571 27.7057 5.77502C27.8704 4.70716 28.2711 4.06494 28.7728 4.06494C29.2333 4.06494 29.5179 4.69596 29.5778 5.85343L29.5928 6.18201L29.1285 6.19694C28.8739 6.20815 28.4396 6.21935 28.1662 6.22308Z"
                fill="#181716" />
        <path
                d="M23.0122 3.67673C22.855 3.64313 22.7127 3.63939 22.4094 3.64686C21.9488 3.6618 21.6343 3.73274 21.2898 3.88956C21.1775 3.94183 21.0764 3.98664 21.0689 3.98664C21.0614 3.98664 21.0614 3.29215 21.0727 2.44831C21.0839 1.25349 21.0802 0.90625 21.054 0.90625C20.9678 0.90625 18.2495 1.42151 18.2195 1.44392C18.197 1.46259 18.1896 1.51859 18.1933 1.60447C18.2008 1.75382 18.1858 1.74262 18.5153 1.8173C18.6164 1.8397 18.7325 1.88451 18.7737 1.91438C18.886 1.99279 18.9759 2.16454 19.0395 2.40724C19.0882 2.59766 19.0957 2.73581 19.1181 4.03891C19.1406 5.36814 19.1369 6.73098 19.0994 9.23263L19.0844 10.2706L19.2792 10.3154C19.56 10.3789 20.3687 10.5133 20.6308 10.5395C21.0165 10.5805 21.9226 10.5731 22.2072 10.532C23.4578 10.3453 24.3976 9.62094 24.8357 8.51574C24.9518 8.22077 25.0641 7.76898 25.1016 7.43667C25.1465 7.04462 25.1203 6.25679 25.0529 5.93941C24.7945 4.72593 24.0382 3.88956 23.0122 3.67673ZM21.1139 9.94205C21.0802 9.85244 21.039 6.74218 21.054 5.49883L21.0652 4.52804L21.2412 4.47576C21.3572 4.44216 21.4958 4.42349 21.6568 4.42349C21.8815 4.42349 21.9114 4.43096 22.1024 4.5243C22.5592 4.74833 22.8737 5.31214 23.0197 6.16344C23.0721 6.47708 23.0796 7.33959 23.031 7.7167C22.9111 8.64269 22.6078 9.39318 22.2035 9.75536C22.0425 9.90098 21.8927 9.97565 21.698 10.013C21.5594 10.0391 21.5145 10.0391 21.2636 10.0205C21.1588 10.013 21.1363 10.0018 21.1139 9.94205Z"
                fill="#181716" />
    </g>
    <defs>
        <clipPath id="clip0">
            <rect width="37.035" height="12" fill="white" />
        </clipPath>
    </defs>
</svg>