<svg width="740" height="649" viewBox="0 0 740 649" fill="none" xmlns="http://www.w3.org/2000/svg">
<path opacity="0.15" d="M370 -90C165.931 -90 0.5 75.4308 0.5 279.5C0.5 483.569 165.931 649 370 649C574.069 649 739.5 483.569 739.5 279.5C739.5 75.4308 574.069 -90 370 -90Z" fill="url(#paint0_linear)"/>
<path opacity="0.15" d="M370 20.8019C227.125 20.8019 111.302 136.625 111.302 279.5C111.302 422.375 227.125 538.198 370 538.198C512.875 538.198 628.698 422.375 628.698 279.5C628.698 136.625 512.875 20.8019 370 20.8019Z" fill="url(#paint1_linear)"/>
<path opacity="0.15" d="M370 90.1735C265.437 90.1735 180.673 174.938 180.673 279.5C180.673 384.062 265.437 468.827 370 468.827C474.562 468.827 559.326 384.062 559.326 279.5C559.326 174.938 474.562 90.1735 370 90.1735Z" fill="url(#paint2_linear)"/>
<path opacity="0.25" d="M368.555 133.531C288.736 133.531 224.031 198.236 224.031 278.055C224.031 357.873 288.736 422.579 368.555 422.579C448.373 422.579 513.079 357.873 513.079 278.055C513.079 198.236 448.373 133.531 368.555 133.531Z" fill="url(#paint3_linear)"/>
<path opacity="0.25" d="M370.482 173.997C312.481 173.997 265.461 221.017 265.461 279.018C265.461 337.02 312.481 384.039 370.482 384.039C428.483 384.039 475.503 337.02 475.503 279.018C475.503 221.017 428.483 173.997 370.482 173.997Z" fill="url(#paint4_linear)"/>
<path opacity="0.25" d="M369.036 193.267C321.944 193.267 283.767 231.444 283.767 278.536C283.767 325.629 321.944 363.806 369.036 363.806C416.129 363.806 454.306 325.629 454.306 278.536C454.306 231.444 416.129 193.267 369.036 193.267Z" fill="url(#paint5_linear)"/>
<g filter="url(#filter0_i)">
<path d="M239.5 130.263C239.5 108.026 257.521 90 279.751 90H460.249C482.479 90 500.5 108.026 500.5 130.263V585.737C500.5 607.974 482.479 626 460.249 626H279.751C257.521 626 239.5 607.974 239.5 585.737V130.263Z" fill="#F4F5F8"/>
</g>
<g filter="url(#filter1_ii)">
<path d="M241.31 129.555C241.31 108.708 258.204 91.8086 279.045 91.8086H460.958C481.798 91.8086 498.693 108.708 498.693 129.555V586.445C498.693 607.292 481.798 624.192 460.958 624.192H279.045C258.204 624.192 241.31 607.292 241.31 586.445V129.555Z" fill="#E8EBF0"/>
</g>
<path d="M241.668 129.555C241.668 108.906 258.402 92.1675 279.045 92.1675H460.958C481.6 92.1675 498.334 108.906 498.334 129.555V586.445C498.334 607.094 481.6 623.833 460.958 623.833H279.045C258.402 623.833 241.668 607.094 241.668 586.445V129.555Z" stroke="#222E3A" stroke-opacity="0.0509804" stroke-width="0.71776"/>
<path d="M241.383 129.555C241.383 108.749 258.245 91.8822 279.045 91.8822H460.958C481.758 91.8822 498.619 108.749 498.619 129.555V586.445C498.619 607.251 481.758 624.118 460.958 624.118H279.045C258.245 624.118 241.383 607.251 241.383 586.445V129.555Z" stroke="#222E3A" stroke-opacity="0.0509804" stroke-width="0.147223"/>
<mask id="mask0" mask-type="alpha" maskUnits="userSpaceOnUse" x="252" y="102" width="237" height="512">
<path d="M280.172 102.579C264.889 102.579 252.5 114.972 252.5 130.26V585.734C252.5 601.022 264.889 613.415 280.172 613.415H460.671C475.954 613.415 488.343 601.022 488.343 585.734V130.26C488.343 114.972 475.954 102.579 460.671 102.579H437.401C435.665 102.579 434.257 103.988 434.257 105.725V107.612C434.257 115.256 428.062 121.452 420.42 121.452H320.423C312.781 121.452 306.587 115.256 306.587 107.612V105.725C306.587 103.988 305.179 102.579 303.442 102.579H280.172Z" fill="#40C48B"/>
</mask>
<g mask="url(#mask0)">
<path d="M279.308 102C263.95 102 251.5 114.373 251.5 129.635V584.365C251.5 599.627 263.95 612 279.308 612H460.692C476.05 612 488.5 599.627 488.5 584.365V129.635C488.5 114.373 476.05 102 460.692 102H437.308C435.563 102 434.148 103.406 434.148 105.14V107.025C434.148 114.656 427.923 120.842 420.244 120.842H319.756C312.077 120.842 305.852 114.656 305.852 107.025V105.14C305.852 103.406 304.437 102 302.692 102H279.308Z" fill="url(#paint6_linear)"/>
<path opacity="0.15" d="M370 -90C165.931 -90 0.5 75.4308 0.5 279.5C0.5 483.569 165.931 649 370 649C574.069 649 739.5 483.569 739.5 279.5C739.5 75.4308 574.069 -90 370 -90Z" fill="url(#paint7_linear)"/>
<path opacity="0.15" d="M370 20.8019C227.125 20.8019 111.302 136.625 111.302 279.5C111.302 422.375 227.125 538.198 370 538.198C512.875 538.198 628.698 422.375 628.698 279.5C628.698 136.625 512.875 20.8019 370 20.8019Z" fill="url(#paint8_linear)"/>
<path opacity="0.15" d="M370 90.1735C265.437 90.1735 180.673 174.938 180.673 279.5C180.673 384.062 265.437 468.827 370 468.827C474.562 468.827 559.326 384.062 559.326 279.5C559.326 174.938 474.562 90.1735 370 90.1735Z" fill="url(#paint9_linear)"/>
<path opacity="0.25" d="M368.555 133.531C288.736 133.531 224.031 198.236 224.031 278.055C224.031 357.873 288.736 422.579 368.555 422.579C448.373 422.579 513.079 357.873 513.079 278.055C513.079 198.236 448.373 133.531 368.555 133.531Z" fill="url(#paint10_linear)"/>
<path opacity="0.25" d="M370.482 173.997C312.481 173.997 265.461 221.017 265.461 279.018C265.461 337.02 312.481 384.039 370.482 384.039C428.483 384.039 475.503 337.02 475.503 279.018C475.503 221.017 428.483 173.997 370.482 173.997Z" fill="url(#paint11_linear)"/>
<path opacity="0.25" d="M369.036 193.267C321.944 193.267 283.767 231.444 283.767 278.536C283.767 325.629 321.944 363.806 369.036 363.806C416.129 363.806 454.306 325.629 454.306 278.536C454.306 231.444 416.129 193.267 369.036 193.267Z" fill="url(#paint12_linear)"/>
<path fill-rule="evenodd" clip-rule="evenodd" d="M385.337 245.006C385.255 245.004 385.172 245.002 385.09 245H368.627C357.85 245.588 353.32 251.915 352.104 255.285C347.29 269.871 342.807 298.323 342.198 302.275C341.59 306.226 341.509 308.632 341.509 308.632C341.468 309.636 341.561 310.723 341.829 311.778C343.152 315.657 347.144 318.924 355.937 315.669C364.243 312.008 374.056 307.464 384.202 302.361C388.302 299.965 393.754 295.36 396.729 289.385C397.946 286.94 398.749 284.266 398.875 281.42C398.87 280.957 398.865 280.491 398.86 280.024C398.788 273.166 398.713 265.96 398.255 259.015C398.255 259.015 397.901 254.547 397.668 252.938C397.434 251.328 397.114 250.769 397.114 250.769C395.687 247.628 392.943 246.058 390.031 245.325C388.703 245.093 387.071 245.051 385.337 245.006ZM384.708 259.715C384.708 258.941 384.074 258.314 383.292 258.314H382.583C373.586 258.314 366.292 265.53 366.292 274.431V281.964C366.292 286.608 362.486 290.372 357.792 290.372H357.083C356.301 290.372 355.667 291 355.667 291.774V296.679C355.667 297.453 356.301 298.08 357.083 298.08H357.792C366.789 298.08 374.083 290.865 374.083 281.964V274.431C374.083 269.787 377.889 266.022 382.583 266.022H383.292C384.074 266.022 384.708 265.394 384.708 264.62V259.715Z" fill="#178A9E"/>
<path d="M383.292 258.314C384.074 258.314 384.709 258.941 384.709 259.715V264.621C384.709 265.395 384.074 266.022 383.292 266.022H382.584C377.889 266.022 374.084 269.787 374.084 274.431V281.964C374.084 290.865 366.79 298.08 357.792 298.08H357.084C356.301 298.08 355.667 297.453 355.667 296.679L355.667 291.774C355.667 291 356.301 290.372 357.084 290.372H357.792C362.486 290.372 366.292 286.608 366.292 281.964V274.431C366.292 265.53 373.586 258.314 382.584 258.314L383.292 258.314Z" fill="white"/>
<path fill-rule="evenodd" clip-rule="evenodd" d="M371.293 422C385.32 422 385.385 435.756 399.426 435.756H470.122C475.301 435.756 479.5 439.861 479.5 444.926V458H262.5V444.926C262.5 439.861 266.699 435.756 271.878 435.756H343.16C357.263 435.756 357.266 422 371.293 422Z" fill="#F2F2F7"/>
<path d="M344.547 450.122C346.363 450.122 347.662 449.019 347.745 447.344H346.021C345.909 448.169 345.338 448.687 344.552 448.687C343.565 448.687 342.95 447.852 342.95 446.47C342.95 445.103 343.57 444.268 344.547 444.268C345.333 444.268 345.924 444.814 346.012 445.645H347.735C347.682 443.979 346.329 442.832 344.547 442.832C342.447 442.832 341.124 444.175 341.124 446.475C341.124 448.779 342.438 450.122 344.547 450.122ZM351.871 442.832C349.737 442.832 348.39 444.233 348.39 446.479C348.39 448.726 349.732 450.122 351.871 450.122C354.005 450.122 355.348 448.726 355.348 446.479C355.348 444.233 354.005 442.832 351.871 442.832ZM351.871 444.287C352.872 444.287 353.526 445.137 353.526 446.479C353.526 447.817 352.872 448.667 351.871 448.667C350.865 448.667 350.216 447.817 350.216 446.479C350.216 445.137 350.87 444.287 351.871 444.287ZM357.921 450V445.864H357.96L360.963 450H362.379V442.954H360.68V447.051H360.641L357.652 442.954H356.222V450H357.921ZM365.147 450V445.864H365.187L368.189 450H369.605V442.954H367.906V447.051H367.867L364.879 442.954H363.448V450H365.147ZM375.504 448.555H372.467V447.119H375.323V445.801H372.467V444.399H375.504V442.954H370.675V450H375.504V448.555ZM379.742 450.122C381.559 450.122 382.857 449.019 382.94 447.344H381.217C381.104 448.169 380.533 448.687 379.747 448.687C378.761 448.687 378.146 447.852 378.146 446.47C378.146 445.103 378.766 444.268 379.742 444.268C380.528 444.268 381.119 444.814 381.207 445.645H382.931C382.877 443.979 381.524 442.832 379.742 442.832C377.643 442.832 376.319 444.175 376.319 446.475C376.319 448.779 377.633 450.122 379.742 450.122ZM387.062 450V444.399H389.015V442.954H383.316V444.399H385.27V450H387.062ZM394.605 448.555H391.568V447.119H394.425V445.801H391.568V444.399H394.605V442.954H389.776V450H394.605V448.555ZM395.616 442.954V450H398.492C400.616 450 401.866 448.687 401.866 446.436C401.866 444.189 400.616 442.954 398.492 442.954H395.616ZM397.408 444.399H398.253C399.386 444.399 400.045 445.117 400.045 446.44C400.045 447.847 399.42 448.555 398.253 448.555H397.408V444.399Z" fill="#00B5CF"/>
<path fill-rule="evenodd" clip-rule="evenodd" d="M368.475 433.854C368.252 434.049 367.891 434.049 367.667 433.854C367.444 433.658 367.444 433.342 367.667 433.146L371.096 430.146C371.319 429.951 371.681 429.951 371.904 430.146L375.333 433.146C375.556 433.342 375.556 433.658 375.333 433.854C375.109 434.049 374.748 434.049 374.525 433.854L371.5 431.207L368.475 433.854Z" fill="#8D8B90"/>
<path d="M261.887 458H479.113C484.297 458 488.5 462.206 488.5 467.393V566H252.5V467.393C252.5 462.206 256.703 458 261.887 458Z" fill="white"/>
<path fill-rule="evenodd" clip-rule="evenodd" d="M361.944 474H379.055C380.405 474 381.5 475.045 381.5 476.333V485.667C381.5 486.955 380.405 488 379.055 488H361.944C360.594 488 359.5 486.955 359.5 485.667V476.333C359.5 475.045 360.594 474 361.944 474Z" fill="#ED2939"/>
<path fill-rule="evenodd" clip-rule="evenodd" d="M381.5 485.667C381.5 485.868 381.473 486.063 381.423 486.25H359.577C359.527 486.063 359.5 485.868 359.5 485.667V485.083H381.5V485.667Z" fill="#F7F7F7"/>
<path fill-rule="evenodd" clip-rule="evenodd" d="M381.423 475.75C381.473 475.936 381.5 476.132 381.5 476.333V476.917H359.5V476.333C359.5 476.132 359.527 475.936 359.577 475.75H381.423Z" fill="#F7F7F7"/>
<path d="M359.5 478.083H381.5V479.25H359.5V478.083Z" fill="#F7F7F7"/>
<path d="M359.5 480.417H381.5V481.583H359.5V480.417Z" fill="#F7F7F7"/>
<path d="M359.5 482.75H381.5V483.917H359.5V482.75Z" fill="#F7F7F7"/>
<path fill-rule="evenodd" clip-rule="evenodd" d="M361.944 474H370.5V482.167H359.5V476.333C359.5 475.045 360.594 474 361.944 474Z" fill="#0066B3"/>
<path d="M361.333 476.333C360.995 476.333 360.722 476.072 360.722 475.75C360.722 475.428 360.995 475.167 361.333 475.167C361.67 475.167 361.944 475.428 361.944 475.75C361.944 476.072 361.67 476.333 361.333 476.333ZM363.166 477.5C362.829 477.5 362.555 477.239 362.555 476.917C362.555 476.594 362.829 476.333 363.166 476.333C363.504 476.333 363.777 476.594 363.777 476.917C363.777 477.239 363.504 477.5 363.166 477.5ZM363.166 479.833C362.829 479.833 362.555 479.572 362.555 479.25C362.555 478.928 362.829 478.667 363.166 478.667C363.504 478.667 363.777 478.928 363.777 479.25C363.777 479.572 363.504 479.833 363.166 479.833ZM366.833 477.5C366.495 477.5 366.222 477.239 366.222 476.917C366.222 476.594 366.495 476.333 366.833 476.333C367.17 476.333 367.444 476.594 367.444 476.917C367.444 477.239 367.17 477.5 366.833 477.5ZM366.833 479.833C366.495 479.833 366.222 479.572 366.222 479.25C366.222 478.928 366.495 478.667 366.833 478.667C367.17 478.667 367.444 478.928 367.444 479.25C367.444 479.572 367.17 479.833 366.833 479.833ZM364.999 476.333C364.662 476.333 364.388 476.072 364.388 475.75C364.388 475.428 364.662 475.167 364.999 475.167C365.337 475.167 365.611 475.428 365.611 475.75C365.611 476.072 365.337 476.333 364.999 476.333ZM368.666 476.333C368.329 476.333 368.055 476.072 368.055 475.75C368.055 475.428 368.329 475.167 368.666 475.167C369.004 475.167 369.277 475.428 369.277 475.75C369.277 476.072 369.004 476.333 368.666 476.333ZM364.999 478.667C364.662 478.667 364.388 478.405 364.388 478.083C364.388 477.761 364.662 477.5 364.999 477.5C365.337 477.5 365.611 477.761 365.611 478.083C365.611 478.405 365.337 478.667 364.999 478.667ZM364.999 481C364.662 481 364.388 480.739 364.388 480.417C364.388 480.094 364.662 479.833 364.999 479.833C365.337 479.833 365.611 480.094 365.611 480.417C365.611 480.739 365.337 481 364.999 481ZM368.666 478.667C368.329 478.667 368.055 478.405 368.055 478.083C368.055 477.761 368.329 477.5 368.666 477.5C369.004 477.5 369.277 477.761 369.277 478.083C369.277 478.405 369.004 478.667 368.666 478.667ZM368.666 481C368.329 481 368.055 480.739 368.055 480.417C368.055 480.094 368.329 479.833 368.666 479.833C369.004 479.833 369.277 480.094 369.277 480.417C369.277 480.739 369.004 481 368.666 481ZM361.333 478.667C360.995 478.667 360.722 478.405 360.722 478.083C360.722 477.761 360.995 477.5 361.333 477.5C361.67 477.5 361.944 477.761 361.944 478.083C361.944 478.405 361.67 478.667 361.333 478.667ZM361.333 481C360.995 481 360.722 480.739 360.722 480.417C360.722 480.094 360.995 479.833 361.333 479.833C361.67 479.833 361.944 480.094 361.944 480.417C361.944 480.739 361.67 481 361.333 481Z" fill="#F7F7F7"/>
<path opacity="0.2" d="M361.944 474.583C360.932 474.583 360.111 475.367 360.111 476.333V485.667C360.111 486.633 360.932 487.417 361.944 487.417H379.055C380.068 487.417 380.889 486.633 380.889 485.667V476.333C380.889 475.367 380.068 474.583 379.055 474.583H361.944ZM361.944 474H379.055C380.405 474 381.5 475.045 381.5 476.333V485.667C381.5 486.955 380.405 488 379.055 488H361.944C360.594 488 359.5 486.955 359.5 485.667V476.333C359.5 475.045 360.594 474 361.944 474Z" fill="#031619"/>
<path d="M467.182 526H273.818C267.015 526 261.5 531.373 261.5 538C261.5 544.627 267.015 550 273.818 550H467.182C473.985 550 479.5 544.627 479.5 538C479.5 531.373 473.985 526 467.182 526Z" stroke="#16ACC7" stroke-width="2"/>
<path d="M339.392 533.341V541.567H342.645C345.179 541.567 346.671 540.033 346.671 537.422C346.671 534.811 345.179 533.341 342.645 533.341H339.392ZM341.159 534.76H342.435C343.991 534.76 344.869 535.706 344.869 537.428C344.869 539.207 344.015 540.142 342.435 540.142H341.159V534.76Z" fill="#16ACC7"/>
<path d="M347.713 541.567H349.422V535.29H347.713V541.567ZM348.567 534.606C349.076 534.606 349.492 534.23 349.492 533.734C349.492 533.238 349.076 532.867 348.567 532.867C348.064 532.867 347.649 533.238 347.649 533.734C347.649 534.23 348.064 534.606 348.567 534.606Z" fill="#16ACC7"/>
<path d="M350.498 537.137C350.498 538.055 351.125 538.665 352.336 538.933L353.524 539.195C354.109 539.332 354.331 539.503 354.331 539.828C354.331 540.238 353.916 540.495 353.237 540.495C352.529 540.495 352.09 540.199 352.008 539.668H350.34C350.428 540.877 351.493 541.675 353.19 541.675C354.876 541.675 356.028 540.871 356.028 539.651C356.028 538.716 355.513 538.232 354.22 537.947L353.009 537.69C352.43 537.559 352.149 537.348 352.149 537.035C352.149 536.63 352.558 536.362 353.173 536.362C353.828 536.362 354.255 536.676 354.29 537.171H355.87C355.847 535.974 354.788 535.182 353.196 535.182C351.563 535.182 350.498 535.957 350.498 537.137Z" fill="#16ACC7"/>
<path d="M362.74 537.605C362.659 536.208 361.553 535.182 359.82 535.182C357.907 535.182 356.678 536.436 356.678 538.426C356.678 540.444 357.907 541.675 359.832 541.675C361.523 541.675 362.647 540.746 362.746 539.286H361.155C361.043 539.976 360.569 540.358 359.85 540.358C358.966 540.358 358.41 539.651 358.41 538.426C358.41 537.223 358.966 536.493 359.844 536.493C360.587 536.493 361.055 536.955 361.149 537.605H362.74Z" fill="#16ACC7"/>
<path d="M366.538 541.675C368.493 541.675 369.716 540.461 369.716 538.426C369.716 536.413 368.481 535.182 366.538 535.182C364.601 535.182 363.361 536.419 363.361 538.426C363.361 540.455 364.584 541.675 366.538 541.675ZM366.538 540.392C365.637 540.392 365.093 539.674 365.093 538.426C365.093 537.194 365.637 536.459 366.538 536.459C367.434 536.459 367.978 537.189 367.978 538.426C367.978 539.674 367.439 540.392 366.538 540.392Z" fill="#16ACC7"/>
<path d="M370.635 541.567H372.343V537.987C372.343 537.154 372.835 536.584 373.654 536.584C374.462 536.584 374.86 537.057 374.86 537.89V541.567H376.568V537.542C376.568 536.077 375.761 535.199 374.333 535.199C373.344 535.199 372.689 535.621 372.32 536.413H372.285V535.29H370.635V541.567Z" fill="#16ACC7"/>
<path d="M377.704 541.567H379.412V537.987C379.412 537.154 379.904 536.584 380.723 536.584C381.531 536.584 381.929 537.057 381.929 537.89V541.567H383.637V537.542C383.637 536.077 382.83 535.199 381.402 535.199C380.413 535.199 379.758 535.621 379.389 536.413H379.354V535.29H377.704V541.567Z" fill="#16ACC7"/>
<path d="M387.646 536.425C388.436 536.425 388.986 536.961 389.015 537.781H386.236C386.294 536.978 386.868 536.425 387.646 536.425ZM389.039 539.651C388.875 540.136 388.366 540.432 387.722 540.432C386.821 540.432 386.218 539.822 386.218 538.916V538.813H390.665V538.3C390.665 536.39 389.483 535.182 387.628 535.182C385.738 535.182 384.533 536.459 384.533 538.454C384.533 540.449 385.732 541.675 387.693 541.675C389.261 541.675 390.426 540.866 390.613 539.651H389.039Z" fill="#16ACC7"/>
<path d="M397.407 537.605C397.325 536.208 396.219 535.182 394.487 535.182C392.573 535.182 391.344 536.436 391.344 538.426C391.344 540.444 392.573 541.675 394.498 541.675C396.19 541.675 397.313 540.746 397.413 539.286H395.821C395.71 539.976 395.236 540.358 394.516 540.358C393.632 540.358 393.076 539.651 393.076 538.426C393.076 537.223 393.632 536.493 394.51 536.493C395.253 536.493 395.721 536.955 395.815 537.605H397.407Z" fill="#16ACC7"/>
<path d="M398.723 533.894V535.29H397.852V536.55H398.723V539.874C398.723 541.099 399.309 541.59 400.801 541.59C401.146 541.59 401.45 541.555 401.626 541.521V540.29C401.521 540.307 401.351 540.318 401.199 540.318C400.678 540.318 400.432 540.085 400.432 539.6V536.55H401.626V535.29H400.432V533.894H398.723Z" fill="#16ACC7"/>
<path d="M336.053 498.545H334.541V504.018C334.541 505.863 335.877 507.141 338.016 507.141C340.16 507.141 341.49 505.863 341.49 504.018V498.545H339.984V503.883C339.984 505.037 339.27 505.822 338.016 505.822C336.762 505.822 336.053 505.037 336.053 503.883V498.545ZM342.867 507H344.326V503.326C344.326 502.389 344.865 501.756 345.762 501.756C346.641 501.756 347.074 502.271 347.074 503.186V507H348.533V502.898C348.533 501.416 347.725 500.52 346.307 500.52C345.322 500.52 344.678 500.93 344.297 501.709H344.268V500.596H342.867V507ZM349.787 507H351.246V500.596H349.787V507ZM350.514 499.781C350.971 499.781 351.334 499.43 351.334 498.979C351.334 498.521 350.971 498.176 350.514 498.176C350.062 498.176 349.693 498.521 349.693 498.979C349.693 499.43 350.062 499.781 350.514 499.781ZM352.945 499.166V500.596H352.072V501.727H352.945V505.301C352.945 506.537 353.484 507.029 354.844 507.029C355.154 507.029 355.453 507.006 355.611 506.971V505.852C355.518 505.863 355.318 505.881 355.178 505.881C354.65 505.881 354.404 505.629 354.404 505.102V501.727H355.617V500.596H354.404V499.166H352.945ZM359.273 501.645C360.141 501.645 360.738 502.254 360.768 503.18H357.732C357.797 502.266 358.418 501.645 359.273 501.645ZM360.773 505.096C360.604 505.623 360.059 505.957 359.355 505.957C358.377 505.957 357.721 505.271 357.721 504.24V504.152H362.203V503.672C362.203 501.732 361.066 500.508 359.273 500.508C357.439 500.508 356.262 501.809 356.262 503.824C356.262 505.84 357.434 507.094 359.326 507.094C360.82 507.094 361.957 506.279 362.145 505.096H360.773ZM365.584 507.07C366.521 507.07 367.26 506.625 367.605 505.91H367.635V507H369.064V498.152H367.605V501.674H367.57C367.225 500.965 366.504 500.525 365.578 500.525C363.99 500.525 362.918 501.809 362.918 503.795C362.918 505.787 363.984 507.07 365.584 507.07ZM366.012 501.738C366.973 501.738 367.611 502.564 367.611 503.801C367.611 505.043 366.979 505.857 366.012 505.857C365.045 505.857 364.412 505.061 364.412 503.801C364.412 502.547 365.045 501.738 366.012 501.738ZM372.809 504.621C372.873 506.18 374.15 507.141 376.096 507.141C378.141 507.141 379.43 506.133 379.43 504.527C379.43 503.268 378.703 502.559 376.986 502.166L376.014 501.943C374.977 501.697 374.549 501.369 374.549 500.807C374.549 500.104 375.193 499.635 376.148 499.635C377.115 499.635 377.777 500.109 377.848 500.9H379.289C379.254 499.412 378.023 498.404 376.16 498.404C374.32 498.404 373.014 499.418 373.014 500.918C373.014 502.125 373.752 502.875 375.311 503.232L376.406 503.49C377.473 503.742 377.906 504.094 377.906 504.703C377.906 505.406 377.197 505.91 376.178 505.91C375.146 505.91 374.367 505.4 374.273 504.621H372.809ZM380.859 499.166V500.596H379.986V501.727H380.859V505.301C380.859 506.537 381.398 507.029 382.758 507.029C383.068 507.029 383.367 507.006 383.525 506.971V505.852C383.432 505.863 383.232 505.881 383.092 505.881C382.564 505.881 382.318 505.629 382.318 505.102V501.727H383.531V500.596H382.318V499.166H380.859ZM386.83 505.951C386.15 505.951 385.705 505.623 385.705 505.107C385.705 504.586 386.127 504.281 386.924 504.229L388.389 504.135V504.621C388.389 505.4 387.715 505.951 386.83 505.951ZM386.402 507.07C387.252 507.07 388.043 506.654 388.395 505.969H388.43V507H389.83V502.611C389.83 501.34 388.793 500.508 387.193 500.508C385.688 500.508 384.598 501.346 384.562 502.518H385.91C386.01 502.002 386.484 501.656 387.146 501.656C387.932 501.656 388.389 502.025 388.389 502.705V503.174L386.725 503.273C385.113 503.373 384.24 504.023 384.24 505.166C384.24 506.303 385.143 507.07 386.402 507.07ZM391.465 499.166V500.596H390.592V501.727H391.465V505.301C391.465 506.537 392.004 507.029 393.363 507.029C393.674 507.029 393.973 507.006 394.131 506.971V505.852C394.037 505.863 393.838 505.881 393.697 505.881C393.17 505.881 392.924 505.629 392.924 505.102V501.727H394.137V500.596H392.924V499.166H391.465ZM397.793 501.645C398.66 501.645 399.258 502.254 399.287 503.18H396.252C396.316 502.266 396.938 501.645 397.793 501.645ZM399.293 505.096C399.123 505.623 398.578 505.957 397.875 505.957C396.896 505.957 396.24 505.271 396.24 504.24V504.152H400.723V503.672C400.723 501.732 399.586 500.508 397.793 500.508C395.959 500.508 394.781 501.809 394.781 503.824C394.781 505.84 395.953 507.094 397.846 507.094C399.34 507.094 400.477 506.279 400.664 505.096H399.293ZM401.596 502.447C401.596 503.355 402.193 503.959 403.365 504.234L404.525 504.516C405.164 504.668 405.398 504.867 405.398 505.242C405.398 505.717 404.936 506.016 404.191 506.016C403.43 506.016 402.955 505.693 402.867 505.113H401.432C401.525 506.303 402.562 507.094 404.133 507.094C405.738 507.094 406.852 506.291 406.852 505.102C406.852 504.158 406.359 503.672 405.07 503.373L403.945 503.115C403.312 502.969 403.014 502.723 403.014 502.365C403.014 501.896 403.459 501.586 404.139 501.586C404.836 501.586 405.299 501.926 405.346 502.465H406.705C406.676 501.305 405.645 500.508 404.168 500.508C402.627 500.508 401.596 501.287 401.596 502.447Z" fill="black"/>
<g filter="url(#filter2_i)">
<path d="M488.5 566H252.5V614H488.5V566Z" fill="white"/>
<path d="M459 591.864C460.305 591.864 461.364 590.805 461.364 589.5C461.364 588.195 460.305 587.136 459 587.136C457.695 587.136 456.636 588.195 456.636 589.5C456.636 590.805 457.695 591.864 459 591.864Z" fill="#8E8E93"/>
<path fill-rule="evenodd" clip-rule="evenodd" d="M463.435 586.563L464.014 585.322L463.178 584.486L461.937 585.065C461.376 584.694 460.741 584.425 460.059 584.287L459.591 583H458.409L457.941 584.287C457.259 584.425 456.624 584.694 456.063 585.065L454.822 584.486L453.986 585.322L454.565 586.563C454.194 587.124 453.925 587.759 453.787 588.441L452.5 588.909V590.091L453.787 590.559C453.925 591.241 454.194 591.876 454.565 592.437L453.986 593.678L454.822 594.514L456.063 593.935C456.624 594.306 457.259 594.575 457.941 594.713L458.409 596H459.591L460.059 594.713C460.741 594.575 461.376 594.306 461.937 593.935L463.178 594.514L464.014 593.678L463.435 592.437C463.806 591.876 464.075 591.241 464.213 590.559L465.5 590.091V588.909L464.213 588.441C464.075 587.759 463.806 587.124 463.435 586.563ZM462.545 589.5C462.545 591.458 460.958 593.045 459 593.045C457.042 593.045 455.455 591.458 455.455 589.5C455.455 587.542 457.042 585.955 459 585.955C460.958 585.955 462.545 587.542 462.545 589.5Z" fill="#8E8E93"/>
<path fill-rule="evenodd" clip-rule="evenodd" d="M395.5 585.182C396.021 584.788 397.75 584 400.5 584C403.25 584 404.979 584.788 405.5 585.182V591.682C405.5 594.636 402.688 596.114 400.5 597C398.312 596.114 395.5 594.636 395.5 591.977V585.182ZM399.875 587.545C399.875 587.219 400.155 586.955 400.5 586.955C400.845 586.955 401.125 587.219 401.125 587.545V589.318H403C403.345 589.318 403.625 589.583 403.625 589.909C403.625 590.235 403.345 590.5 403 590.5H401.125V592.273C401.125 592.599 400.845 592.864 400.5 592.864C400.155 592.864 399.875 592.599 399.875 592.273V590.5H398C397.655 590.5 397.375 590.235 397.375 589.909C397.375 589.583 397.655 589.318 398 589.318H399.875V587.545Z" fill="#8E8E93"/>
<path d="M343.137 592.104C342.973 593.005 342.729 593.797 342.434 594.437C341.838 595.727 341.251 595.995 341.007 596C341.005 596 341.002 596 341 596C340.998 596 340.995 596 340.993 596C340.749 595.995 340.162 595.727 339.566 594.437C339.271 593.797 339.027 593.005 338.863 592.104C339.511 591.951 340.232 591.864 341 591.864C341.768 591.864 342.489 591.951 343.137 592.104Z" fill="#8E8E93"/>
<path d="M344.272 592.466C344.026 593.734 343.629 594.828 343.129 595.643C344.256 595.253 345.242 594.561 345.991 593.664C345.782 593.388 345.462 593.1 344.995 592.824C344.776 592.695 344.534 592.575 344.272 592.466Z" fill="#8E8E93"/>
<path d="M338.871 595.643C337.744 595.253 336.758 594.561 336.009 593.664C336.218 593.388 336.538 593.1 337.005 592.824C337.224 592.695 337.466 592.575 337.728 592.466C337.974 593.734 338.371 594.828 338.871 595.643Z" fill="#8E8E93"/>
<path d="M338.702 590.929C339.417 590.769 340.191 590.682 341 590.682C341.809 590.682 342.583 590.769 343.298 590.929C343.341 590.471 343.364 589.993 343.364 589.5C343.364 589.007 343.341 588.529 343.298 588.071C342.583 588.231 341.809 588.318 341 588.318C340.191 588.318 339.417 588.231 338.702 588.071C338.659 588.529 338.636 589.007 338.636 589.5C338.636 589.993 338.659 590.471 338.702 590.929Z" fill="#8E8E93"/>
<path d="M337.549 587.733C337.487 588.3 337.455 588.892 337.455 589.5C337.455 590.108 337.487 590.7 337.549 591.267C336.621 591.611 335.851 592.09 335.317 592.657C334.796 591.722 334.5 590.646 334.5 589.5C334.5 588.354 334.796 587.278 335.317 586.343C335.851 586.91 336.621 587.389 337.549 587.733Z" fill="#8E8E93"/>
<path d="M338.863 586.896C339.511 587.049 340.232 587.136 341 587.136C341.768 587.136 342.489 587.049 343.137 586.896C342.973 585.995 342.729 585.203 342.434 584.563C341.833 583.261 341.24 583 341 583C340.76 583 340.167 583.261 339.566 584.563C339.271 585.203 339.027 585.995 338.863 586.896Z" fill="#8E8E93"/>
<path d="M344.451 587.733C345.379 587.389 346.149 586.91 346.683 586.343C347.204 587.278 347.5 588.354 347.5 589.5C347.5 590.646 347.204 591.722 346.683 592.657C346.149 592.09 345.379 591.611 344.451 591.267C344.513 590.7 344.545 590.108 344.545 589.5C344.545 588.892 344.513 588.3 344.451 587.733Z" fill="#8E8E93"/>
<path d="M344.271 586.534C344.026 585.266 343.629 584.171 343.129 583.357C344.256 583.747 345.242 584.439 345.991 585.335C345.782 585.612 345.462 585.9 344.995 586.176C344.776 586.305 344.534 586.425 344.271 586.534Z" fill="#8E8E93"/>
<path d="M338.871 583.357C338.371 584.171 337.974 585.266 337.729 586.534C337.466 586.425 337.224 586.305 337.005 586.176C336.538 585.9 336.218 585.612 336.009 585.335C336.758 584.439 337.744 583.747 338.871 583.357Z" fill="#8E8E93"/>
<path fill-rule="evenodd" clip-rule="evenodd" d="M287.724 583.016C291.485 583.172 291.321 583.166 291.471 587.655C291.586 591.099 291.643 592.222 285.775 594.988C280.379 597.532 280.978 595.437 282.777 586.907C283.445 583.74 284.126 582.866 287.724 583.016ZM288.696 585.73H288.391C287.047 585.73 285.957 586.809 285.957 588.141V589.949C285.957 590.615 285.412 591.155 284.74 591.155H284.436C284.268 591.155 284.132 591.289 284.132 591.456V592.059C284.132 592.225 284.268 592.36 284.436 592.36H284.74C286.085 592.36 287.174 591.281 287.174 589.949V588.141C287.174 587.475 287.719 586.935 288.391 586.935H288.696C288.864 586.935 289 586.801 289 586.634V586.031C289 585.865 288.864 585.73 288.696 585.73Z" fill="#16ACC7"/>
</g>
</g>
<path d="M355.216 108.868C355.216 107.826 356.061 106.981 357.103 106.981H382.894C383.936 106.981 384.781 107.826 384.781 108.868C384.781 109.91 383.936 110.755 382.894 110.755H357.103C356.061 110.755 355.216 109.91 355.216 108.868Z" fill="#222E3A" fill-opacity="0.101961"/>
<path d="M392.311 108.869C392.311 106.437 394.282 104.466 396.715 104.466C399.147 104.466 401.119 106.437 401.119 108.869C401.119 111.301 399.147 113.273 396.715 113.273C394.282 113.273 392.311 111.301 392.311 108.869Z" fill="#222E3A" fill-opacity="0.101961"/>
<path d="M394.854 108.868C394.854 107.826 395.698 106.981 396.739 106.981C397.781 106.981 398.625 107.826 398.625 108.868C398.625 109.91 397.781 110.755 396.739 110.755C395.698 110.755 394.854 109.91 394.854 108.868Z" fill="white" fill-opacity="0.501961"/>
<path d="M396.112 108.555C396.112 108.033 396.535 107.61 397.056 107.61C397.577 107.61 398 108.033 398 108.555C398 109.076 397.577 109.499 397.056 109.499C396.535 109.499 396.112 109.076 396.112 108.555Z" fill="white" fill-opacity="0.74902"/>
<defs>
<filter id="filter0_i" x="236.629" y="87.129" width="263.871" height="538.871" filterUnits="userSpaceOnUse" color-interpolation-filters="sRGB">
<feFlood flood-opacity="0" result="BackgroundImageFix"/>
<feBlend mode="normal" in="SourceGraphic" in2="BackgroundImageFix" result="shape"/>
<feColorMatrix in="SourceAlpha" type="matrix" values="0 0 0 0 0 0 0 0 0 0 0 0 0 0 0 0 0 0 127 0" result="hardAlpha"/>
<feOffset dx="-2.87104" dy="-2.87104"/>
<feGaussianBlur stdDeviation="5.74208"/>
<feComposite in2="hardAlpha" operator="arithmetic" k2="-1" k3="1"/>
<feColorMatrix type="matrix" values="0 0 0 0 0.780392 0 0 0 0 0.807843 0 0 0 0 0.854902 0 0 0 1 0"/>
<feBlend mode="normal" in2="shape" result="effect1_innerShadow"/>
</filter>
<filter id="filter1_ii" x="238.439" y="88.9376" width="263.125" height="538.125" filterUnits="userSpaceOnUse" color-interpolation-filters="sRGB">
<feFlood flood-opacity="0" result="BackgroundImageFix"/>
<feBlend mode="normal" in="SourceGraphic" in2="BackgroundImageFix" result="shape"/>
<feColorMatrix in="SourceAlpha" type="matrix" values="0 0 0 0 0 0 0 0 0 0 0 0 0 0 0 0 0 0 127 0" result="hardAlpha"/>
<feOffset dx="-2.87104" dy="-2.87104"/>
<feGaussianBlur stdDeviation="5.74208"/>
<feComposite in2="hardAlpha" operator="arithmetic" k2="-1" k3="1"/>
<feColorMatrix type="matrix" values="0 0 0 0 0.780392 0 0 0 0 0.807843 0 0 0 0 0.854902 0 0 0 1 0"/>
<feBlend mode="normal" in2="shape" result="effect1_innerShadow"/>
<feColorMatrix in="SourceAlpha" type="matrix" values="0 0 0 0 0 0 0 0 0 0 0 0 0 0 0 0 0 0 127 0" result="hardAlpha"/>
<feOffset dx="2.87104" dy="2.87104"/>
<feGaussianBlur stdDeviation="5.74208"/>
<feComposite in2="hardAlpha" operator="arithmetic" k2="-1" k3="1"/>
<feColorMatrix type="matrix" values="0 0 0 0 1 0 0 0 0 1 0 0 0 0 1 0 0 0 1 0"/>
<feBlend mode="normal" in2="effect1_innerShadow" result="effect2_innerShadow"/>
</filter>
<filter id="filter2_i" x="252.5" y="566" width="236" height="48" filterUnits="userSpaceOnUse" color-interpolation-filters="sRGB">
<feFlood flood-opacity="0" result="BackgroundImageFix"/>
<feBlend mode="normal" in="SourceGraphic" in2="BackgroundImageFix" result="shape"/>
<feColorMatrix in="SourceAlpha" type="matrix" values="0 0 0 0 0 0 0 0 0 0 0 0 0 0 0 0 0 0 127 0" result="hardAlpha"/>
<feOffset dy="1"/>
<feComposite in2="hardAlpha" operator="arithmetic" k2="-1" k3="1"/>
<feColorMatrix type="matrix" values="0 0 0 0 0.133333 0 0 0 0 0.180392 0 0 0 0 0.227451 0 0 0 0.1 0"/>
<feBlend mode="normal" in2="shape" result="effect1_innerShadow"/>
</filter>
<linearGradient id="paint0_linear" x1="370" y1="649" x2="370" y2="-90" gradientUnits="userSpaceOnUse">
<stop stop-color="#222E3A" stop-opacity="0"/>
<stop offset="1" stop-color="#222E3A"/>
</linearGradient>
<linearGradient id="paint1_linear" x1="370" y1="538.198" x2="370" y2="20.8019" gradientUnits="userSpaceOnUse">
<stop stop-color="#222E3A" stop-opacity="0"/>
<stop offset="1" stop-color="#222E3A"/>
</linearGradient>
<linearGradient id="paint2_linear" x1="370" y1="468.827" x2="370" y2="90.1735" gradientUnits="userSpaceOnUse">
<stop stop-color="#222E3A" stop-opacity="0"/>
<stop offset="1" stop-color="#222E3A"/>
</linearGradient>
<linearGradient id="paint3_linear" x1="368.555" y1="422.579" x2="368.555" y2="133.531" gradientUnits="userSpaceOnUse">
<stop stop-color="#222E3A" stop-opacity="0"/>
<stop offset="1" stop-color="#222E3A"/>
</linearGradient>
<linearGradient id="paint4_linear" x1="370.482" y1="384.039" x2="370.482" y2="173.997" gradientUnits="userSpaceOnUse">
<stop stop-color="#222E3A" stop-opacity="0"/>
<stop offset="1" stop-color="#222E3A"/>
</linearGradient>
<linearGradient id="paint5_linear" x1="369.036" y1="363.806" x2="369.036" y2="193.267" gradientUnits="userSpaceOnUse">
<stop stop-color="#222E3A" stop-opacity="0"/>
<stop offset="1" stop-color="#222E3A"/>
</linearGradient>
<linearGradient id="paint6_linear" x1="370" y1="102" x2="253.016" y2="612.442" gradientUnits="userSpaceOnUse">
<stop stop-color="#1F3C6A"/>
<stop offset="1" stop-color="#1BB4B7"/>
</linearGradient>
<linearGradient id="paint7_linear" x1="370" y1="649" x2="370" y2="-90" gradientUnits="userSpaceOnUse">
<stop stop-color="#222E3A" stop-opacity="0"/>
<stop offset="1" stop-color="#222E3A"/>
</linearGradient>
<linearGradient id="paint8_linear" x1="370" y1="538.198" x2="370" y2="20.8019" gradientUnits="userSpaceOnUse">
<stop stop-color="#222E3A" stop-opacity="0"/>
<stop offset="1" stop-color="#222E3A"/>
</linearGradient>
<linearGradient id="paint9_linear" x1="370" y1="468.827" x2="370" y2="90.1735" gradientUnits="userSpaceOnUse">
<stop stop-color="#222E3A" stop-opacity="0"/>
<stop offset="1" stop-color="#222E3A"/>
</linearGradient>
<linearGradient id="paint10_linear" x1="368.555" y1="422.579" x2="368.555" y2="133.531" gradientUnits="userSpaceOnUse">
<stop stop-color="#222E3A" stop-opacity="0"/>
<stop offset="1" stop-color="#222E3A"/>
</linearGradient>
<linearGradient id="paint11_linear" x1="370.482" y1="384.039" x2="370.482" y2="173.997" gradientUnits="userSpaceOnUse">
<stop stop-color="#222E3A" stop-opacity="0"/>
<stop offset="1" stop-color="#222E3A"/>
</linearGradient>
<linearGradient id="paint12_linear" x1="369.036" y1="363.806" x2="369.036" y2="193.267" gradientUnits="userSpaceOnUse">
<stop stop-color="#222E3A" stop-opacity="0"/>
<stop offset="1" stop-color="#222E3A"/>
</linearGradient>
</defs>
</svg>
