<svg width="320" height="432" viewBox="0 0 320 432" fill="none" xmlns="http://www.w3.org/2000/svg">
<path opacity="0.15" d="M159.927 0.313171C61.7406 0.313171 -17.8549 79.9087 -17.8549 178.095C-17.8549 276.281 61.7406 355.876 159.927 355.876C258.113 355.876 337.708 276.281 337.708 178.095C337.708 79.9087 258.113 0.313171 159.927 0.313171Z" fill="url(#paint0_linear)"/>
<path opacity="0.15" d="M159.927 47.9864C88.0699 47.9864 29.8184 106.238 29.8184 178.095C29.8184 249.952 88.0699 308.203 159.927 308.203C231.784 308.203 290.035 249.952 290.035 178.095C290.035 106.238 231.784 47.9864 159.927 47.9864Z" fill="url(#paint1_linear)"/>
<path opacity="0.25" d="M158.934 77.7822C104.081 77.7822 59.6143 122.249 59.6143 177.102C59.6143 231.954 104.081 276.421 158.934 276.421C213.786 276.421 258.253 231.954 258.253 177.102C258.253 122.249 213.786 77.7822 158.934 77.7822Z" fill="url(#paint2_linear)"/>
<path opacity="0.25" d="M160.258 105.591C120.398 105.591 88.0859 137.904 88.0859 177.763C88.0859 217.623 120.398 249.936 160.258 249.936C200.118 249.936 232.43 217.623 232.43 177.763C232.43 137.904 200.118 105.591 160.258 105.591Z" fill="url(#paint3_linear)"/>
<path opacity="0.25" d="M159.264 118.834C126.901 118.834 100.666 145.07 100.666 177.433C100.666 209.796 126.901 236.031 159.264 236.031C191.627 236.031 217.863 209.796 217.863 177.433C217.863 145.07 191.627 118.834 159.264 118.834Z" fill="url(#paint4_linear)"/>
<g filter="url(#filter0_i)">
<path d="M70.245 75.537C70.245 60.2557 82.6292 47.8677 97.9059 47.8677H221.948C237.224 47.8677 249.609 60.2557 249.609 75.537V388.546C249.609 403.828 237.224 416.216 221.948 416.216H97.9059C82.6292 416.216 70.245 403.828 70.245 388.546V75.537Z" fill="#F4F5F8"/>
</g>
<g filter="url(#filter1_ii)">
<path d="M71.4887 75.0504C71.4887 60.7241 83.0989 49.1104 97.4207 49.1104H222.435C236.757 49.1104 248.367 60.7241 248.367 75.0504V389.033C248.367 403.359 236.757 414.973 222.435 414.973H97.4207C83.0989 414.973 71.4887 403.359 71.4887 389.033V75.0504Z" fill="#E8EBF0"/>
</g>
<path d="M71.7353 75.0504C71.7353 60.8602 83.2351 49.357 97.4207 49.357H222.435C236.62 49.357 248.12 60.8602 248.12 75.0504V389.033C248.12 403.223 236.62 414.726 222.435 414.726H97.4207C83.2351 414.726 71.7353 403.223 71.7353 389.033V75.0504Z" stroke="#222E3A" stroke-opacity="0.0509804" stroke-width="0.493256"/>
<path d="M71.5393 75.0503C71.5393 60.752 83.1268 49.1609 97.4207 49.1609H222.435C236.729 49.1609 248.316 60.752 248.316 75.0504V389.033C248.316 403.331 236.729 414.922 222.435 414.922H97.4207C83.1268 414.922 71.5393 403.331 71.5393 389.033V75.0503Z" stroke="#222E3A" stroke-opacity="0.0509804" stroke-width="0.101174"/>
<mask id="mask0" mask-type="alpha" maskUnits="userSpaceOnUse" x="79" y="56" width="163" height="352">
<path d="M98.1953 56.5122C87.6927 56.5122 79.1785 65.0288 79.1785 75.5349V388.544C79.1785 399.05 87.6927 407.567 98.1953 407.567H222.237C232.74 407.567 241.254 399.05 241.254 388.544V75.5349C241.254 65.029 232.74 56.5122 222.237 56.5122H206.246C205.052 56.5122 204.085 57.4801 204.085 58.6739V59.9709C204.085 65.2239 199.828 69.4822 194.576 69.4822H125.856C120.605 69.4822 116.348 65.2239 116.348 59.9709V58.6739C116.348 57.4801 115.38 56.5122 114.187 56.5122H98.1953Z" fill="#40C48B"/>
</mask>
<g mask="url(#mask0)">
<path d="M97.6014 56.114C87.0473 56.114 78.4913 64.6167 78.4913 75.1056V387.603C78.4913 398.092 87.0473 406.594 97.6014 406.594H222.251C232.806 406.594 241.362 398.092 241.362 387.603V75.1056C241.362 64.6169 232.806 56.114 222.251 56.114H206.182C204.982 56.114 204.01 57.0803 204.01 58.2721V59.567C204.01 64.8114 199.732 69.0628 194.455 69.0628H125.398C120.121 69.0628 115.843 64.8114 115.843 59.567V58.2721C115.843 57.0803 114.871 56.114 113.671 56.114H97.6014Z" fill="url(#paint5_linear)"/>
<path opacity="0.15" d="M159.927 -75.8315C19.6871 -75.8315 -93.9996 37.8553 -93.9996 178.095C-93.9996 318.335 19.6871 432.021 159.927 432.021C300.167 432.021 413.853 318.335 413.853 178.095C413.853 37.8553 300.167 -75.8315 159.927 -75.8315Z" fill="url(#paint6_linear)"/>
<path opacity="0.15" d="M159.927 0.313171C61.7404 0.313171 -17.8551 79.9087 -17.8551 178.095C-17.8551 276.281 61.7404 355.876 159.927 355.876C258.113 355.876 337.708 276.281 337.708 178.095C337.708 79.9087 258.113 0.313171 159.927 0.313171Z" fill="url(#paint7_linear)"/>
<path opacity="0.15" d="M159.927 47.9864C88.0697 47.9864 29.8182 106.238 29.8182 178.095C29.8182 249.952 88.0697 308.203 159.927 308.203C231.783 308.203 290.035 249.952 290.035 178.095C290.035 106.238 231.783 47.9864 159.927 47.9864Z" fill="url(#paint8_linear)"/>
<path opacity="0.25" d="M158.933 77.7822C104.081 77.7822 59.6141 122.249 59.6141 177.102C59.6141 231.954 104.081 276.421 158.933 276.421C213.786 276.421 258.253 231.954 258.253 177.102C258.253 122.249 213.786 77.7822 158.933 77.7822Z" fill="url(#paint9_linear)"/>
<path opacity="0.25" d="M160.258 105.591C120.398 105.591 88.0857 137.904 88.0857 177.763C88.0857 217.623 120.398 249.936 160.258 249.936C200.117 249.936 232.43 217.623 232.43 177.763C232.43 137.904 200.117 105.591 160.258 105.591Z" fill="url(#paint10_linear)"/>
<path opacity="0.25" d="M159.264 118.834C126.901 118.834 100.666 145.07 100.666 177.433C100.666 209.796 126.901 236.031 159.264 236.031C191.627 236.031 217.863 209.796 217.863 177.433C217.863 145.07 191.627 118.834 159.264 118.834Z" fill="url(#paint11_linear)"/>
<path fill-rule="evenodd" clip-rule="evenodd" d="M170.466 154.391C170.409 154.389 170.353 154.388 170.296 154.386H158.982C151.576 154.79 148.463 159.138 147.628 161.454C144.319 171.478 141.238 191.031 140.82 193.746C140.402 196.462 140.347 198.115 140.347 198.115C140.319 198.805 140.382 199.552 140.566 200.277C141.476 202.943 144.219 205.188 150.262 202.951C155.97 200.436 162.713 197.313 169.686 193.806C172.504 192.159 176.25 188.995 178.295 184.888C179.131 183.208 179.683 181.371 179.769 179.415C179.766 179.096 179.763 178.776 179.759 178.455C179.71 173.742 179.658 168.79 179.343 164.017C179.343 164.017 179.1 160.947 178.94 159.841C178.779 158.735 178.559 158.351 178.559 158.351C177.579 156.192 175.693 155.114 173.692 154.61C172.779 154.45 171.657 154.421 170.466 154.391ZM170.034 164.499C170.034 163.967 169.598 163.536 169.06 163.536H168.574C162.39 163.536 157.378 168.495 157.378 174.612V179.788C157.378 182.98 154.762 185.567 151.536 185.567H151.05C150.512 185.567 150.076 185.998 150.076 186.53V189.901C150.076 190.433 150.512 190.864 151.05 190.864H151.536C157.72 190.864 162.732 185.905 162.732 179.788V174.612C162.732 171.42 165.347 168.833 168.574 168.833H169.06C169.598 168.833 170.034 168.402 170.034 167.87V164.499Z" fill="#178A9E"/>
<path d="M169.06 163.536C169.598 163.536 170.034 163.967 170.034 164.499V167.87C170.034 168.402 169.598 168.833 169.06 168.833H168.574C165.347 168.833 162.732 171.42 162.732 174.612V179.788C162.732 185.905 157.72 190.864 151.536 190.864H151.05C150.512 190.864 150.076 190.433 150.076 189.901L150.076 186.53C150.076 185.998 150.512 185.567 151.05 185.567H151.536C154.762 185.567 157.378 182.98 157.378 179.788V174.612C157.378 168.495 162.39 163.536 168.574 163.536L169.06 163.536Z" fill="white"/>
<path fill-rule="evenodd" clip-rule="evenodd" d="M160.815 276.023C170.455 276.023 170.499 285.477 180.148 285.477H228.732C232.291 285.477 235.176 288.298 235.176 291.779V300.763H86.0505V291.779C86.0505 288.298 88.9358 285.477 92.495 285.477H141.481C151.173 285.477 151.175 276.023 160.815 276.023Z" fill="#F2F2F7"/>
<path d="M142.434 294.477C143.683 294.477 144.575 293.719 144.632 292.568H143.448C143.37 293.135 142.978 293.491 142.438 293.491C141.76 293.491 141.337 292.917 141.337 291.967C141.337 291.028 141.763 290.454 142.434 290.454C142.975 290.454 143.381 290.83 143.441 291.4H144.625C144.589 290.256 143.659 289.467 142.434 289.467C140.991 289.467 140.082 290.39 140.082 291.971C140.082 293.554 140.985 294.477 142.434 294.477ZM147.468 289.467C146.001 289.467 145.075 290.43 145.075 291.974C145.075 293.518 145.998 294.477 147.468 294.477C148.934 294.477 149.857 293.518 149.857 291.974C149.857 290.43 148.934 289.467 147.468 289.467ZM147.468 290.467C148.156 290.467 148.605 291.051 148.605 291.974C148.605 292.893 148.156 293.477 147.468 293.477C146.776 293.477 146.33 292.893 146.33 291.974C146.33 291.051 146.78 290.467 147.468 290.467ZM151.625 294.393V291.551H151.652L153.716 294.393H154.689V289.551H153.521V292.367H153.494L151.441 289.551H150.457V294.393H151.625ZM156.591 294.393V291.551H156.618L158.682 294.393H159.655V289.551H158.487V292.367H158.46L156.407 289.551H155.424V294.393H156.591ZM163.708 293.4H161.621V292.414H163.584V291.508H161.621V290.544H163.708V289.551H160.39V294.393H163.708V293.4ZM166.621 294.477C167.869 294.477 168.762 293.719 168.819 292.568H167.634C167.557 293.135 167.165 293.491 166.624 293.491C165.947 293.491 165.524 292.917 165.524 291.967C165.524 291.028 165.95 290.454 166.621 290.454C167.161 290.454 167.567 290.83 167.628 291.4H168.812C168.775 290.256 167.846 289.467 166.621 289.467C165.178 289.467 164.269 290.39 164.269 291.971C164.269 293.554 165.171 294.477 166.621 294.477ZM171.651 294.393V290.544H172.993V289.551H169.077V290.544H170.42V294.393H171.651ZM176.835 293.4H174.748V292.414H176.711V291.508H174.748V290.544H176.835V289.551H173.517V294.393H176.835V293.4ZM177.53 289.551V294.393H179.506C180.966 294.393 181.825 293.491 181.825 291.944C181.825 290.4 180.966 289.551 179.506 289.551H177.53ZM178.761 290.544H179.342C180.12 290.544 180.573 291.038 180.573 291.947C180.573 292.914 180.144 293.4 179.342 293.4H178.761V290.544Z" fill="#00B5CF"/>
<path fill-rule="evenodd" clip-rule="evenodd" d="M158.879 284.169C158.726 284.304 158.477 284.304 158.324 284.169C158.17 284.035 158.17 283.818 158.324 283.684L160.68 281.622C160.833 281.488 161.082 281.488 161.235 281.622L163.591 283.684C163.745 283.818 163.745 284.035 163.591 284.169C163.438 284.304 163.189 284.304 163.036 284.169L160.958 282.351L158.879 284.169Z" fill="#8D8B90"/>
<path d="M85.6289 300.763H234.911C238.473 300.763 241.361 303.653 241.361 307.218V374.983H79.1782V307.218C79.1782 303.653 82.0663 300.763 85.6289 300.763Z" fill="white"/>
<path fill-rule="evenodd" clip-rule="evenodd" d="M154.391 311.759H166.15C167.078 311.759 167.83 312.476 167.83 313.362V319.776C167.83 320.662 167.078 321.38 166.15 321.38H154.391C153.463 321.38 152.711 320.662 152.711 319.776V313.362C152.711 312.476 153.463 311.759 154.391 311.759Z" fill="#ED2939"/>
<path fill-rule="evenodd" clip-rule="evenodd" d="M167.829 319.776C167.829 319.915 167.811 320.049 167.776 320.177H152.763C152.729 320.049 152.71 319.915 152.71 319.776V319.375H167.829V319.776Z" fill="#F7F7F7"/>
<path fill-rule="evenodd" clip-rule="evenodd" d="M167.776 312.961C167.811 313.09 167.829 313.224 167.829 313.362V313.763H152.71V313.362C152.71 313.224 152.729 313.09 152.763 312.961H167.776Z" fill="#F7F7F7"/>
<path d="M152.71 314.565H167.829V315.366H152.71V314.565Z" fill="#F7F7F7"/>
<path d="M152.71 316.168H167.829V316.97H152.71V316.168Z" fill="#F7F7F7"/>
<path d="M152.71 317.772H167.829V318.573H152.71V317.772Z" fill="#F7F7F7"/>
<path fill-rule="evenodd" clip-rule="evenodd" d="M154.391 311.759H160.27V317.371H152.711V313.362C152.711 312.476 153.463 311.759 154.391 311.759Z" fill="#0066B3"/>
<path d="M153.97 313.362C153.738 313.362 153.55 313.183 153.55 312.961C153.55 312.74 153.738 312.56 153.97 312.56C154.202 312.56 154.39 312.74 154.39 312.961C154.39 313.183 154.202 313.362 153.97 313.362ZM155.23 314.164C154.998 314.164 154.81 313.984 154.81 313.763C154.81 313.542 154.998 313.362 155.23 313.362C155.462 313.362 155.65 313.542 155.65 313.763C155.65 313.984 155.462 314.164 155.23 314.164ZM155.23 315.767C154.998 315.767 154.81 315.588 154.81 315.366C154.81 315.145 154.998 314.966 155.23 314.966C155.462 314.966 155.65 315.145 155.65 315.366C155.65 315.588 155.462 315.767 155.23 315.767ZM157.75 314.164C157.518 314.164 157.33 313.984 157.33 313.763C157.33 313.542 157.518 313.362 157.75 313.362C157.982 313.362 158.17 313.542 158.17 313.763C158.17 313.984 157.982 314.164 157.75 314.164ZM157.75 315.767C157.518 315.767 157.33 315.588 157.33 315.366C157.33 315.145 157.518 314.966 157.75 314.966C157.982 314.966 158.17 315.145 158.17 315.366C158.17 315.588 157.982 315.767 157.75 315.767ZM156.49 313.362C156.258 313.362 156.07 313.183 156.07 312.961C156.07 312.74 156.258 312.56 156.49 312.56C156.722 312.56 156.91 312.74 156.91 312.961C156.91 313.183 156.722 313.362 156.49 313.362ZM159.009 313.362C158.778 313.362 158.589 313.183 158.589 312.961C158.589 312.74 158.778 312.56 159.009 312.56C159.241 312.56 159.429 312.74 159.429 312.961C159.429 313.183 159.241 313.362 159.009 313.362ZM156.49 314.966C156.258 314.966 156.07 314.786 156.07 314.565C156.07 314.343 156.258 314.164 156.49 314.164C156.722 314.164 156.91 314.343 156.91 314.565C156.91 314.786 156.722 314.966 156.49 314.966ZM156.49 316.569C156.258 316.569 156.07 316.39 156.07 316.168C156.07 315.947 156.258 315.767 156.49 315.767C156.722 315.767 156.91 315.947 156.91 316.168C156.91 316.39 156.722 316.569 156.49 316.569ZM159.009 314.966C158.778 314.966 158.589 314.786 158.589 314.565C158.589 314.343 158.778 314.164 159.009 314.164C159.241 314.164 159.429 314.343 159.429 314.565C159.429 314.786 159.241 314.966 159.009 314.966ZM159.009 316.569C158.778 316.569 158.589 316.39 158.589 316.168C158.589 315.947 158.778 315.767 159.009 315.767C159.241 315.767 159.429 315.947 159.429 316.168C159.429 316.39 159.241 316.569 159.009 316.569ZM153.97 314.966C153.738 314.966 153.55 314.786 153.55 314.565C153.55 314.343 153.738 314.164 153.97 314.164C154.202 314.164 154.39 314.343 154.39 314.565C154.39 314.786 154.202 314.966 153.97 314.966ZM153.97 316.569C153.738 316.569 153.55 316.39 153.55 316.168C153.55 315.947 153.738 315.767 153.97 315.767C154.202 315.767 154.39 315.947 154.39 316.168C154.39 316.39 154.202 316.569 153.97 316.569Z" fill="#F7F7F7"/>
<path opacity="0.2" d="M154.391 312.159C153.695 312.159 153.131 312.698 153.131 313.362V319.776C153.131 320.44 153.695 320.979 154.391 320.979H166.15C166.846 320.979 167.41 320.44 167.41 319.776V313.362C167.41 312.698 166.846 312.159 166.15 312.159H154.391ZM154.391 311.759H166.15C167.078 311.759 167.83 312.476 167.83 313.362V319.776C167.83 320.662 167.078 321.38 166.15 321.38H154.391C153.463 321.38 152.711 320.662 152.711 319.776V313.362C152.711 312.476 153.463 311.759 154.391 311.759Z" fill="#031619"/>
<path d="M226.711 347.494H93.8285C89.1533 347.494 85.3633 351.186 85.3633 355.74C85.3633 360.295 89.1533 363.987 93.8285 363.987H226.711C231.386 363.987 235.176 360.295 235.176 355.74C235.176 351.186 231.386 347.494 226.711 347.494Z" stroke="#16ACC7" stroke-width="1.37443"/>
<path d="M138.893 352.539V358.192H141.129C142.87 358.192 143.896 357.138 143.896 355.344C143.896 353.549 142.87 352.539 141.129 352.539H138.893ZM140.107 353.514H140.984C142.054 353.514 142.657 354.164 142.657 355.347C142.657 356.57 142.07 357.212 140.984 357.212H140.107V353.514Z" fill="#16ACC7"/>
<path d="M144.611 358.192H145.786V353.878H144.611V358.192ZM145.198 353.408C145.548 353.408 145.834 353.15 145.834 352.809C145.834 352.468 145.548 352.213 145.198 352.213C144.853 352.213 144.567 352.468 144.567 352.809C144.567 353.15 144.853 353.408 145.198 353.408Z" fill="#16ACC7"/>
<path d="M146.526 355.148C146.526 355.778 146.956 356.198 147.788 356.382L148.605 356.562C149.007 356.656 149.16 356.773 149.16 356.997C149.16 357.279 148.874 357.455 148.408 357.455C147.921 357.455 147.619 357.251 147.563 356.887H146.417C146.477 357.718 147.209 358.266 148.375 358.266C149.534 358.266 150.326 357.714 150.326 356.875C150.326 356.233 149.972 355.9 149.083 355.704L148.251 355.528C147.853 355.438 147.66 355.293 147.66 355.077C147.66 354.799 147.941 354.615 148.363 354.615C148.814 354.615 149.107 354.83 149.131 355.171H150.217C150.201 354.348 149.473 353.804 148.379 353.804C147.257 353.804 146.526 354.337 146.526 355.148Z" fill="#16ACC7"/>
<path d="M154.938 355.469C154.882 354.509 154.122 353.804 152.932 353.804C151.617 353.804 150.772 354.666 150.772 356.033C150.772 357.42 151.617 358.266 152.94 358.266C154.102 358.266 154.874 357.628 154.943 356.625H153.849C153.772 357.099 153.447 357.361 152.952 357.361C152.345 357.361 151.963 356.875 151.963 356.033C151.963 355.206 152.345 354.705 152.948 354.705C153.459 354.705 153.78 355.022 153.845 355.469H154.938Z" fill="#16ACC7"/>
<path d="M157.548 358.266C158.892 358.266 159.732 357.432 159.732 356.033C159.732 354.65 158.884 353.804 157.548 353.804C156.217 353.804 155.365 354.654 155.365 356.033C155.365 357.428 156.205 358.266 157.548 358.266ZM157.548 357.385C156.929 357.385 156.555 356.891 156.555 356.033C156.555 355.187 156.929 354.681 157.548 354.681C158.164 354.681 158.538 355.183 158.538 356.033C158.538 356.891 158.168 357.385 157.548 357.385Z" fill="#16ACC7"/>
<path d="M160.363 358.192H161.538V355.731C161.538 355.159 161.876 354.768 162.439 354.768C162.994 354.768 163.267 355.093 163.267 355.665V358.192H164.441V355.426C164.441 354.419 163.886 353.816 162.905 353.816C162.225 353.816 161.775 354.106 161.522 354.65H161.498V353.878H160.363V358.192Z" fill="#16ACC7"/>
<path d="M165.221 358.192H166.396V355.731C166.396 355.159 166.734 354.768 167.297 354.768C167.851 354.768 168.125 355.093 168.125 355.665V358.192H169.299V355.426C169.299 354.419 168.744 353.816 167.763 353.816C167.083 353.816 166.633 354.106 166.38 354.65H166.355V353.878H165.221V358.192Z" fill="#16ACC7"/>
<path d="M172.054 354.658C172.597 354.658 172.975 355.026 172.995 355.59H171.085C171.125 355.038 171.519 354.658 172.054 354.658ZM173.011 356.875C172.898 357.208 172.549 357.412 172.106 357.412C171.487 357.412 171.073 356.993 171.073 356.37V356.299H174.129V355.947C174.129 354.634 173.317 353.804 172.042 353.804C170.743 353.804 169.915 354.681 169.915 356.053C169.915 357.424 170.739 358.266 172.086 358.266C173.164 358.266 173.964 357.71 174.093 356.875H173.011Z" fill="#16ACC7"/>
<path d="M178.762 355.469C178.705 354.509 177.945 353.804 176.755 353.804C175.44 353.804 174.596 354.666 174.596 356.033C174.596 357.42 175.44 358.266 176.763 358.266C177.925 358.266 178.697 357.628 178.766 356.625H177.672C177.596 357.099 177.27 357.361 176.775 357.361C176.168 357.361 175.786 356.875 175.786 356.033C175.786 355.206 176.168 354.705 176.771 354.705C177.282 354.705 177.604 355.022 177.668 355.469H178.762Z" fill="#16ACC7"/>
<path d="M179.667 352.919V353.878H179.067V354.744H179.667V357.028C179.667 357.87 180.069 358.207 181.094 358.207C181.331 358.207 181.541 358.184 181.661 358.16V357.314C181.589 357.326 181.472 357.334 181.368 357.334C181.01 357.334 180.841 357.173 180.841 356.84V354.744H181.661V353.878H180.841V352.919H179.667Z" fill="#16ACC7"/>
<path d="M136.598 329.067H135.559V332.828C135.559 334.096 136.477 334.974 137.947 334.974C139.42 334.974 140.334 334.096 140.334 332.828V329.067H139.3V332.735C139.3 333.529 138.808 334.068 137.947 334.068C137.085 334.068 136.598 333.529 136.598 332.735V329.067ZM141.281 334.877H142.283V332.353C142.283 331.708 142.654 331.274 143.27 331.274C143.874 331.274 144.172 331.628 144.172 332.256V334.877H145.174V332.059C145.174 331.04 144.619 330.424 143.644 330.424C142.968 330.424 142.525 330.706 142.263 331.241H142.243V330.476H141.281V334.877ZM146.036 334.877H147.039V330.476H146.036V334.877ZM146.535 329.917C146.849 329.917 147.099 329.675 147.099 329.365C147.099 329.051 146.849 328.813 146.535 328.813C146.225 328.813 145.972 329.051 145.972 329.365C145.972 329.675 146.225 329.917 146.535 329.917ZM148.206 329.494V330.476H147.607V331.253H148.206V333.71C148.206 334.559 148.577 334.898 149.511 334.898C149.725 334.898 149.93 334.881 150.039 334.857V334.088C149.974 334.096 149.837 334.108 149.741 334.108C149.378 334.108 149.209 333.935 149.209 333.573V331.253H150.043V330.476H149.209V329.494H148.206ZM152.555 331.197C153.151 331.197 153.562 331.616 153.582 332.252H151.496C151.541 331.624 151.967 331.197 152.555 331.197ZM153.586 333.569C153.469 333.931 153.095 334.161 152.612 334.161C151.939 334.161 151.488 333.69 151.488 332.981V332.92H154.569V332.59C154.569 331.257 153.787 330.416 152.555 330.416C151.295 330.416 150.486 331.31 150.486 332.695C150.486 334.08 151.291 334.942 152.592 334.942C153.618 334.942 154.399 334.382 154.528 333.569H153.586ZM156.892 334.926C157.536 334.926 158.044 334.62 158.281 334.128H158.301V334.877H159.284V328.797H158.281V331.217H158.257C158.019 330.73 157.524 330.428 156.888 330.428C155.797 330.428 155.06 331.31 155.06 332.675C155.06 334.044 155.793 334.926 156.892 334.926ZM157.186 331.262C157.846 331.262 158.285 331.829 158.285 332.679C158.285 333.533 157.85 334.092 157.186 334.092C156.522 334.092 156.087 333.545 156.087 332.679C156.087 331.817 156.522 331.262 157.186 331.262ZM161.857 333.243C161.901 334.314 162.779 334.974 164.116 334.974C165.521 334.974 166.407 334.281 166.407 333.178C166.407 332.312 165.908 331.825 164.728 331.555L164.059 331.402C163.347 331.233 163.053 331.008 163.053 330.621C163.053 330.138 163.496 329.816 164.152 329.816C164.816 329.816 165.271 330.142 165.32 330.686H166.31C166.286 329.663 165.441 328.97 164.16 328.97C162.896 328.97 161.998 329.667 161.998 330.698C161.998 331.527 162.505 332.043 163.576 332.288L164.329 332.465C165.062 332.639 165.36 332.88 165.36 333.299C165.36 333.782 164.873 334.128 164.172 334.128C163.463 334.128 162.928 333.778 162.864 333.243H161.857ZM167.389 329.494V330.476H166.79V331.253H167.389V333.71C167.389 334.559 167.76 334.898 168.694 334.898C168.908 334.898 169.113 334.881 169.222 334.857V334.088C169.157 334.096 169.02 334.108 168.924 334.108C168.561 334.108 168.392 333.935 168.392 333.573V331.253H169.226V330.476H168.392V329.494H167.389ZM171.493 334.157C171.026 334.157 170.72 333.931 170.72 333.577C170.72 333.218 171.009 333.009 171.557 332.973L172.564 332.908V333.243C172.564 333.778 172.101 334.157 171.493 334.157ZM171.199 334.926C171.783 334.926 172.326 334.64 172.568 334.169H172.592V334.877H173.554V331.861C173.554 330.988 172.842 330.416 171.742 330.416C170.707 330.416 169.958 330.992 169.934 331.797H170.86C170.929 331.443 171.255 331.205 171.71 331.205C172.25 331.205 172.564 331.459 172.564 331.926V332.248L171.42 332.316C170.313 332.385 169.713 332.832 169.713 333.617C169.713 334.398 170.333 334.926 171.199 334.926ZM174.678 329.494V330.476H174.078V331.253H174.678V333.71C174.678 334.559 175.048 334.898 175.982 334.898C176.196 334.898 176.401 334.881 176.51 334.857V334.088C176.445 334.096 176.309 334.108 176.212 334.108C175.849 334.108 175.68 333.935 175.68 333.573V331.253H176.514V330.476H175.68V329.494H174.678ZM179.027 331.197C179.622 331.197 180.033 331.616 180.053 332.252H177.968C178.012 331.624 178.439 331.197 179.027 331.197ZM180.057 333.569C179.941 333.931 179.566 334.161 179.083 334.161C178.41 334.161 177.959 333.69 177.959 332.981V332.92H181.04V332.59C181.04 331.257 180.259 330.416 179.027 330.416C177.766 330.416 176.957 331.31 176.957 332.695C176.957 334.08 177.762 334.942 179.063 334.942C180.09 334.942 180.871 334.382 181 333.569H180.057ZM181.64 331.749C181.64 332.373 182.051 332.788 182.856 332.977L183.653 333.17C184.092 333.275 184.253 333.412 184.253 333.669C184.253 333.996 183.935 334.201 183.424 334.201C182.9 334.201 182.574 333.979 182.514 333.581H181.527C181.592 334.398 182.304 334.942 183.383 334.942C184.487 334.942 185.252 334.39 185.252 333.573C185.252 332.925 184.914 332.59 184.028 332.385L183.255 332.208C182.82 332.107 182.614 331.938 182.614 331.692C182.614 331.37 182.92 331.157 183.387 331.157C183.867 331.157 184.185 331.39 184.217 331.761H185.151C185.131 330.964 184.422 330.416 183.408 330.416C182.349 330.416 181.64 330.951 181.64 331.749Z" fill="black"/>
<g filter="url(#filter2_i)">
<path d="M241.361 374.983H79.1782V407.969H241.361V374.983Z" fill="white"/>
<path d="M221.089 392.756C221.986 392.756 222.713 392.029 222.713 391.132C222.713 390.235 221.986 389.508 221.089 389.508C220.192 389.508 219.464 390.235 219.464 391.132C219.464 392.029 220.192 392.756 221.089 392.756Z" fill="#8E8E93"/>
<path fill-rule="evenodd" clip-rule="evenodd" d="M224.136 389.114L224.535 388.261L223.96 387.686L223.107 388.084C222.722 387.829 222.285 387.644 221.817 387.55L221.495 386.665H220.683L220.361 387.55C219.892 387.644 219.456 387.829 219.071 388.084L218.217 387.686L217.643 388.261L218.041 389.114C217.786 389.499 217.601 389.935 217.507 390.404L216.622 390.726V391.538L217.507 391.86C217.601 392.329 217.786 392.765 218.041 393.15L217.643 394.003L218.217 394.578L219.071 394.179C219.456 394.435 219.892 394.619 220.361 394.714L220.683 395.599H221.495L221.817 394.714C222.285 394.619 222.722 394.435 223.107 394.179L223.96 394.578L224.535 394.003L224.136 393.15C224.392 392.765 224.576 392.329 224.671 391.86L225.556 391.538V390.726L224.671 390.404C224.576 389.935 224.392 389.499 224.136 389.114ZM223.525 391.132C223.525 392.478 222.434 393.568 221.089 393.568C219.743 393.568 218.652 392.478 218.652 391.132C218.652 389.786 219.743 388.695 221.089 388.695C222.434 388.695 223.525 389.786 223.525 391.132Z" fill="#8E8E93"/>
<path fill-rule="evenodd" clip-rule="evenodd" d="M177.451 388.164C177.809 387.894 178.997 387.352 180.887 387.352C182.777 387.352 183.965 387.894 184.323 388.164V392.631C184.323 394.662 182.39 395.677 180.887 396.286C179.383 395.677 177.451 394.662 177.451 392.834V388.164ZM180.457 389.789C180.457 389.565 180.65 389.383 180.887 389.383C181.124 389.383 181.316 389.565 181.316 389.789V391.007H182.605C182.842 391.007 183.034 391.189 183.034 391.413C183.034 391.637 182.842 391.819 182.605 391.819H181.316V393.037C181.316 393.262 181.124 393.444 180.887 393.444C180.65 393.444 180.457 393.262 180.457 393.037V391.819H179.169C178.932 391.819 178.739 391.637 178.739 391.413C178.739 391.189 178.932 391.007 179.169 391.007H180.457V389.789Z" fill="#8E8E93"/>
<path d="M141.466 392.922C141.353 393.541 141.185 394.086 140.983 394.525C140.573 395.412 140.17 395.596 140.002 395.599C140 395.599 139.999 395.599 139.997 395.599C139.995 395.599 139.994 395.599 139.992 395.599C139.824 395.596 139.421 395.412 139.012 394.525C138.809 394.086 138.641 393.541 138.529 392.922C138.974 392.817 139.469 392.757 139.997 392.757C140.525 392.757 141.02 392.817 141.466 392.922Z" fill="#8E8E93"/>
<path d="M142.245 393.171C142.077 394.042 141.804 394.794 141.46 395.354C142.235 395.086 142.912 394.611 143.427 393.994C143.284 393.804 143.063 393.606 142.742 393.417C142.592 393.328 142.426 393.245 142.245 393.171Z" fill="#8E8E93"/>
<path d="M138.534 395.354C137.76 395.086 137.082 394.611 136.567 393.994C136.711 393.804 136.931 393.606 137.252 393.417C137.402 393.328 137.569 393.245 137.749 393.171C137.917 394.042 138.19 394.794 138.534 395.354Z" fill="#8E8E93"/>
<path d="M138.418 392.114C138.909 392.005 139.441 391.945 139.997 391.945C140.553 391.945 141.085 392.005 141.576 392.114C141.606 391.799 141.621 391.471 141.621 391.132C141.621 390.794 141.606 390.465 141.576 390.151C141.085 390.26 140.553 390.32 139.997 390.32C139.441 390.32 138.909 390.26 138.418 390.151C138.389 390.465 138.373 390.794 138.373 391.132C138.373 391.471 138.389 391.799 138.418 392.114Z" fill="#8E8E93"/>
<path d="M137.625 389.918C137.583 390.308 137.561 390.714 137.561 391.132C137.561 391.55 137.583 391.957 137.625 392.347C136.988 392.583 136.459 392.912 136.092 393.302C135.734 392.66 135.53 391.92 135.53 391.132C135.53 390.345 135.734 389.605 136.092 388.963C136.459 389.352 136.988 389.681 137.625 389.918Z" fill="#8E8E93"/>
<path d="M138.529 389.343C138.974 389.448 139.469 389.508 139.997 389.508C140.525 389.508 141.02 389.448 141.466 389.343C141.353 388.724 141.185 388.179 140.983 387.74C140.569 386.845 140.162 386.666 139.997 386.666C139.832 386.666 139.425 386.845 139.012 387.74C138.809 388.179 138.641 388.724 138.529 389.343Z" fill="#8E8E93"/>
<path d="M142.369 389.918C143.006 389.681 143.536 389.352 143.903 388.963C144.26 389.605 144.464 390.345 144.464 391.132C144.464 391.92 144.26 392.66 143.903 393.302C143.536 392.912 143.006 392.583 142.369 392.347C142.411 391.957 142.434 391.55 142.434 391.132C142.434 390.714 142.411 390.308 142.369 389.918Z" fill="#8E8E93"/>
<path d="M142.245 389.094C142.077 388.223 141.804 387.471 141.46 386.911C142.234 387.179 142.912 387.654 143.427 388.27C143.284 388.461 143.063 388.658 142.742 388.848C142.592 388.937 142.426 389.02 142.245 389.094Z" fill="#8E8E93"/>
<path d="M138.534 386.911C138.19 387.471 137.917 388.223 137.749 389.094C137.569 389.02 137.402 388.937 137.252 388.848C136.931 388.658 136.711 388.461 136.567 388.27C137.082 387.654 137.76 387.179 138.534 386.911Z" fill="#8E8E93"/>
<path fill-rule="evenodd" clip-rule="evenodd" d="M103.385 386.676C105.97 386.784 105.857 386.779 105.96 389.865C106.04 392.231 106.078 393.003 102.046 394.904C98.3378 396.652 98.7498 395.212 99.9859 389.35C100.445 387.174 100.913 386.574 103.385 386.676ZM104.053 388.542H103.844C102.92 388.542 102.171 389.283 102.171 390.198V391.441C102.171 391.899 101.797 392.269 101.335 392.269H101.126C101.01 392.269 100.917 392.362 100.917 392.477V392.891C100.917 393.005 101.01 393.098 101.126 393.098H101.335C102.259 393.098 103.008 392.356 103.008 391.441V390.198C103.008 389.741 103.382 389.37 103.844 389.37H104.053C104.169 389.37 104.262 389.277 104.262 389.163V388.749C104.262 388.634 104.169 388.542 104.053 388.542Z" fill="#16ACC7"/>
</g>
</g>
<path d="M149.767 60.8341C149.767 60.1179 150.348 59.5374 151.064 59.5374H168.788C169.505 59.5374 170.085 60.1179 170.085 60.8341C170.085 61.5502 169.505 62.1308 168.788 62.1308H151.064C150.348 62.1308 149.767 61.5502 149.767 60.8341Z" fill="#222E3A" fill-opacity="0.101961"/>
<path d="M175.26 60.8348C175.26 59.1635 176.615 57.8086 178.286 57.8086C179.958 57.8086 181.313 59.1635 181.313 60.8348C181.313 62.5061 179.958 63.861 178.286 63.861C176.615 63.861 175.26 62.5061 175.26 60.8348Z" fill="#222E3A" fill-opacity="0.101961"/>
<path d="M177.007 60.8341C177.007 60.1179 177.587 59.5374 178.303 59.5374C179.019 59.5374 179.599 60.1179 179.599 60.8341C179.599 61.5502 179.019 62.1308 178.303 62.1308C177.587 62.1308 177.007 61.5502 177.007 60.8341Z" fill="white" fill-opacity="0.501961"/>
<path d="M177.873 60.6186C177.873 60.2603 178.163 59.9697 178.521 59.9697C178.879 59.9697 179.169 60.2603 179.169 60.6186C179.169 60.977 178.879 61.2676 178.521 61.2676C178.163 61.2676 177.873 60.977 177.873 60.6186Z" fill="white" fill-opacity="0.74902"/>
<defs>
<filter id="filter0_i" x="68.272" y="45.8947" width="181.337" height="370.321" filterUnits="userSpaceOnUse" color-interpolation-filters="sRGB">
<feFlood flood-opacity="0" result="BackgroundImageFix"/>
<feBlend mode="normal" in="SourceGraphic" in2="BackgroundImageFix" result="shape"/>
<feColorMatrix in="SourceAlpha" type="matrix" values="0 0 0 0 0 0 0 0 0 0 0 0 0 0 0 0 0 0 127 0" result="hardAlpha"/>
<feOffset dx="-1.97302" dy="-1.97302"/>
<feGaussianBlur stdDeviation="3.94605"/>
<feComposite in2="hardAlpha" operator="arithmetic" k2="-1" k3="1"/>
<feColorMatrix type="matrix" values="0 0 0 0 0.780392 0 0 0 0 0.807843 0 0 0 0 0.854902 0 0 0 1 0"/>
<feBlend mode="normal" in2="shape" result="effect1_innerShadow"/>
</filter>
<filter id="filter1_ii" x="69.5157" y="47.1373" width="180.824" height="369.809" filterUnits="userSpaceOnUse" color-interpolation-filters="sRGB">
<feFlood flood-opacity="0" result="BackgroundImageFix"/>
<feBlend mode="normal" in="SourceGraphic" in2="BackgroundImageFix" result="shape"/>
<feColorMatrix in="SourceAlpha" type="matrix" values="0 0 0 0 0 0 0 0 0 0 0 0 0 0 0 0 0 0 127 0" result="hardAlpha"/>
<feOffset dx="-1.97302" dy="-1.97302"/>
<feGaussianBlur stdDeviation="3.94605"/>
<feComposite in2="hardAlpha" operator="arithmetic" k2="-1" k3="1"/>
<feColorMatrix type="matrix" values="0 0 0 0 0.780392 0 0 0 0 0.807843 0 0 0 0 0.854902 0 0 0 1 0"/>
<feBlend mode="normal" in2="shape" result="effect1_innerShadow"/>
<feColorMatrix in="SourceAlpha" type="matrix" values="0 0 0 0 0 0 0 0 0 0 0 0 0 0 0 0 0 0 127 0" result="hardAlpha"/>
<feOffset dx="1.97302" dy="1.97302"/>
<feGaussianBlur stdDeviation="3.94605"/>
<feComposite in2="hardAlpha" operator="arithmetic" k2="-1" k3="1"/>
<feColorMatrix type="matrix" values="0 0 0 0 1 0 0 0 0 1 0 0 0 0 1 0 0 0 1 0"/>
<feBlend mode="normal" in2="effect1_innerShadow" result="effect2_innerShadow"/>
</filter>
<filter id="filter2_i" x="79.1782" y="374.983" width="162.183" height="32.9864" filterUnits="userSpaceOnUse" color-interpolation-filters="sRGB">
<feFlood flood-opacity="0" result="BackgroundImageFix"/>
<feBlend mode="normal" in="SourceGraphic" in2="BackgroundImageFix" result="shape"/>
<feColorMatrix in="SourceAlpha" type="matrix" values="0 0 0 0 0 0 0 0 0 0 0 0 0 0 0 0 0 0 127 0" result="hardAlpha"/>
<feOffset dy="0.687216"/>
<feComposite in2="hardAlpha" operator="arithmetic" k2="-1" k3="1"/>
<feColorMatrix type="matrix" values="0 0 0 0 0.133333 0 0 0 0 0.180392 0 0 0 0 0.227451 0 0 0 0.1 0"/>
<feBlend mode="normal" in2="shape" result="effect1_innerShadow"/>
</filter>
<linearGradient id="paint0_linear" x1="159.927" y1="355.876" x2="159.927" y2="0.313171" gradientUnits="userSpaceOnUse">
<stop stop-color="#222E3A" stop-opacity="0"/>
<stop offset="1" stop-color="#222E3A"/>
</linearGradient>
<linearGradient id="paint1_linear" x1="159.927" y1="308.203" x2="159.927" y2="47.9864" gradientUnits="userSpaceOnUse">
<stop stop-color="#222E3A" stop-opacity="0"/>
<stop offset="1" stop-color="#222E3A"/>
</linearGradient>
<linearGradient id="paint2_linear" x1="158.934" y1="276.421" x2="158.934" y2="77.7822" gradientUnits="userSpaceOnUse">
<stop stop-color="#222E3A" stop-opacity="0"/>
<stop offset="1" stop-color="#222E3A"/>
</linearGradient>
<linearGradient id="paint3_linear" x1="160.258" y1="249.936" x2="160.258" y2="105.591" gradientUnits="userSpaceOnUse">
<stop stop-color="#222E3A" stop-opacity="0"/>
<stop offset="1" stop-color="#222E3A"/>
</linearGradient>
<linearGradient id="paint4_linear" x1="159.264" y1="236.031" x2="159.264" y2="118.834" gradientUnits="userSpaceOnUse">
<stop stop-color="#222E3A" stop-opacity="0"/>
<stop offset="1" stop-color="#222E3A"/>
</linearGradient>
<linearGradient id="paint5_linear" x1="159.926" y1="56.114" x2="79.5333" y2="406.898" gradientUnits="userSpaceOnUse">
<stop stop-color="#1F3C6A"/>
<stop offset="1" stop-color="#1BB4B7"/>
</linearGradient>
<linearGradient id="paint6_linear" x1="159.927" y1="432.021" x2="159.927" y2="-75.8315" gradientUnits="userSpaceOnUse">
<stop stop-color="#222E3A" stop-opacity="0"/>
<stop offset="1" stop-color="#222E3A"/>
</linearGradient>
<linearGradient id="paint7_linear" x1="159.927" y1="355.876" x2="159.927" y2="0.313171" gradientUnits="userSpaceOnUse">
<stop stop-color="#222E3A" stop-opacity="0"/>
<stop offset="1" stop-color="#222E3A"/>
</linearGradient>
<linearGradient id="paint8_linear" x1="159.927" y1="308.203" x2="159.927" y2="47.9864" gradientUnits="userSpaceOnUse">
<stop stop-color="#222E3A" stop-opacity="0"/>
<stop offset="1" stop-color="#222E3A"/>
</linearGradient>
<linearGradient id="paint9_linear" x1="158.933" y1="276.421" x2="158.933" y2="77.7822" gradientUnits="userSpaceOnUse">
<stop stop-color="#222E3A" stop-opacity="0"/>
<stop offset="1" stop-color="#222E3A"/>
</linearGradient>
<linearGradient id="paint10_linear" x1="160.258" y1="249.936" x2="160.258" y2="105.591" gradientUnits="userSpaceOnUse">
<stop stop-color="#222E3A" stop-opacity="0"/>
<stop offset="1" stop-color="#222E3A"/>
</linearGradient>
<linearGradient id="paint11_linear" x1="159.264" y1="236.031" x2="159.264" y2="118.834" gradientUnits="userSpaceOnUse">
<stop stop-color="#222E3A" stop-opacity="0"/>
<stop offset="1" stop-color="#222E3A"/>
</linearGradient>
</defs>
</svg>
