<?xml version="1.0" encoding="UTF-8"?> <svg xmlns="http://www.w3.org/2000/svg" xmlns:xlink="http://www.w3.org/1999/xlink" id="Layer_1" data-name="Layer 1" viewBox="0 0 112 112"><defs><style>.cls-1{fill:none;}.cls-2{clip-path:url(#clip-path);}.cls-3{fill:#090a19;}.cls-4{fill:#2fa6f8;}.cls-5{fill:#0e5396;}.cls-6{fill:#00ffca;}.cls-7{fill:#f65260;}.cls-8{fill:#fbcc62;}</style><clipPath id="clip-path"><rect class="cls-1" x="2.57" y="11.93" width="107.53" height="89.61"></rect></clipPath></defs><title>HSS V3</title><g class="cls-2"><path class="cls-3" d="M9.74,93.23l0,5.09h2V86.72h-2V91.4H4.59V86.72h-2v11.6h2V93.23Zm3.76,1c0-2.59,1.58-4.27,4-4.27s4,1.68,4,4.27-1.55,4.24-4,4.24-4-1.65-4-4.24m1.9,0c0,1.61.88,2.59,2.12,2.59s2.12-1,2.12-2.59-.86-2.59-2.12-2.59-2.12,1-2.12,2.59m12.33,2.59a5.69,5.69,0,0,1-.86.07,1.22,1.22,0,0,1-.82-.23c-.16-.15-.22-.38-.22-.82V91.71H27.7V90.19H25.83V86.94H23.9v3.25H22.16v1.52H23.9v4.46a2.42,2.42,0,0,0,.35,1.64,2.59,2.59,0,0,0,2,.7,9.28,9.28,0,0,0,1.46-.13Zm7.84-5.56A4.83,4.83,0,0,0,32.18,90c-1.54,0-3.25.76-3.25,2.53,0,1.49,1.1,2.09,2.5,2.37l1.2.26c.79.15,1.23.28,1.23.82s-.57.91-1.52.91a3,3,0,0,1-2.46-1.2l-1.3,1.17a4.65,4.65,0,0,0,3.73,1.65c1.83,0,3.51-.89,3.51-2.75,0-1.49-1.11-1.93-2.31-2.25l-1-.22c-1.14-.25-1.71-.35-1.71-1s.57-.79,1.33-.79a3.3,3.3,0,0,1,2.28.92Zm6.13,7.24a2.87,2.87,0,0,1-2.37-1.05v4.08H37.4V90.19h1.93v.89A3.09,3.09,0,0,1,41.7,90c2.18,0,3.57,1.77,3.57,4.3s-1.42,4.24-3.57,4.24m-2.44-4.27c0,1.58.83,2.56,2.06,2.56s2-1,2-2.56-.82-2.59-2-2.59-2.06,1-2.06,2.59m7.24,0c0-2.59,1.58-4.27,4-4.27s4,1.68,4,4.27-1.55,4.24-4,4.24-4-1.65-4-4.24m1.9,0c0,1.61.88,2.59,2.12,2.59s2.12-1,2.12-2.59-.86-2.59-2.12-2.59-2.12,1-2.12,2.59m12.33,2.59a5.69,5.69,0,0,1-.86.07,1.22,1.22,0,0,1-.82-.23c-.16-.15-.22-.38-.22-.82V91.71H60.7V90.19H58.83V86.94h-1.9v3.25H55.2v1.52h1.73v4.46a2.48,2.48,0,0,0,.35,1.64,2.6,2.6,0,0,0,2,.7,9.28,9.28,0,0,0,1.46-.13V96.83Zm13.53-8.41A5.83,5.83,0,0,0,69.8,86.5c-2.44,0-4.36,1.39-4.36,3.44s1.58,2.91,3.44,3.32l1.55.35c1.17.25,2,.6,2,1.48s-.79,1.58-2.34,1.58a4.05,4.05,0,0,1-3.41-1.77l-1.71,1.24a6,6,0,0,0,5,2.37c2.87,0,4.61-1.43,4.61-3.57s-1.55-2.82-3.7-3.32l-1.39-.32c-1.29-.28-1.86-.6-1.86-1.45s.79-1.55,2.11-1.55a3.8,3.8,0,0,1,3,1.39Zm9.13,5.28A4.29,4.29,0,0,0,82.85,91a2.56,2.56,0,0,0-2.21-1,2.74,2.74,0,0,0-2.5,1.24V86.69H76.22v11.6h1.92V94c0-1.33.57-2.25,1.77-2.25a1.28,1.28,0,0,1,1.43,1,6,6,0,0,1,.12,1.55v4.11h1.93V93.7Zm4-3.51H85.45v8.13h1.92Zm0-3.47H85.45v2h1.92Zm8.13,8.72,1.32,1A4.29,4.29,0,0,1,93,98.51c-2.37,0-4-1.71-4-4.33A3.91,3.91,0,0,1,93,90c2.56,0,3.79,1.81,3.79,4.27,0,.13,0,.35,0,.51H90.85a2.14,2.14,0,0,0,2.24,2,2.68,2.68,0,0,0,2.41-1.39M93,91.55a1.93,1.93,0,0,0-2,1.77H94.9A1.81,1.81,0,0,0,93,91.55m7.46-4.83H98.53v11.6h1.93Zm5.34,11.79c-2.15,0-3.57-1.8-3.57-4.24s1.39-4.3,3.57-4.3a3,3,0,0,1,2.37,1.11V86.72h1.93v11.6h-1.93v-.86a3,3,0,0,1-2.37,1.05m2.44-4.27c0-1.58-.83-2.59-2.06-2.59s-2.05.95-2.05,2.59.82,2.56,2.05,2.56,2.06-1,2.06-2.56"></path></g><g class="cls-2"><path class="cls-4" d="M56,76.44C55.7,76.35,28.8,67.5,28.8,36v-23a1,1,0,0,1,1-1h53a1,1,0,0,1,1,1V36c0,31.52-26.9,40.4-27.15,40.5a1.16,1.16,0,0,1-.35.06.9.9,0,0,1-.34-.1"></path></g><g class="cls-2"><path class="cls-5" d="M68.31,52.07A14.33,14.33,0,0,1,64.46,54a14.67,14.67,0,0,1-11.6-1,15.38,15.38,0,0,1-7.43-8.63.36.36,0,0,0-.41-.25.37.37,0,0,0-.29.38,14.13,14.13,0,0,0,2.59,7,13.61,13.61,0,0,0,19.25,3.1,15.79,15.79,0,0,0,2.28-2.12.34.34,0,0,0,0-.48.57.57,0,0,0-.54,0"></path></g><g class="cls-2"><path class="cls-6" d="M57.57,24.45A15.7,15.7,0,0,1,67.46,43.6a.37.37,0,0,0,.19.45A.34.34,0,0,0,68,44l.09-.09a14.37,14.37,0,0,0,2-7.21,14,14,0,0,0-4-9.92,13.53,13.53,0,0,0-9.74-4.11A13.83,13.83,0,0,0,53.2,23a.38.38,0,0,0-.28.41.39.39,0,0,0,.35.34,11.63,11.63,0,0,1,4.3.67"></path></g><g class="cls-2"><path class="cls-7" d="M39.83,38.1a15.35,15.35,0,0,1,2-3.89,15.12,15.12,0,0,1,3.38-3.44A14.72,14.72,0,0,1,51.78,28a14.87,14.87,0,0,1,11,2.53.35.35,0,0,0,.41,0s0,0,.06-.07a.33.33,0,0,0,0-.47,13.64,13.64,0,0,0-23.48,4.9A14.07,14.07,0,0,0,39.11,38a.37.37,0,0,0,.28.41.45.45,0,0,0,.44-.29"></path></g><g class="cls-2"><path class="cls-8" d="M46.12,52.48a15.86,15.86,0,0,1,3-21.43.35.35,0,0,0,.09-.47.36.36,0,0,0-.44-.16,13.7,13.7,0,0,0-5.72,4.68,14.27,14.27,0,0,0,3,19.63,13.19,13.19,0,0,0,2.66,1.55.34.34,0,0,0,.34,0,.45.45,0,0,0,.1-.13.35.35,0,0,0-.1-.47,16,16,0,0,1-3-3.17"></path></g></svg> 