<svg xmlns="http://www.w3.org/2000/svg" viewBox="0 0 92 92"><defs><style>.cls-1{fill:#fff;}.cls-2{fill:#f2f2f2;}.cls-3{fill:#e51674;}</style></defs><title>IPLAYER</title><g id="Capa_2" data-name="Capa 2"><g id="AmazonFire"><circle class="cls-1" cx="46" cy="46" r="45.5"/><path class="cls-2" d="M46,1A45,45,0,1,1,1,46,45.05,45.05,0,0,1,46,1m0-1A46,46,0,1,0,92,46,46,46,0,0,0,46,0Z"/><path class="cls-3" d="M45,29H28V18.87A5.87,5.87,0,0,1,33.87,13H42.4a6.52,6.52,0,0,1,4.49,1.79L77.34,43.54a4.7,4.7,0,0,1,0,6.87L45.88,79.27A6.56,6.56,0,0,1,41.45,81H33.87A5.87,5.87,0,0,1,28,75.13V37H45V69.89a1,1,0,0,0,1.58.7L72.21,47.71a1,1,0,0,0,0-1.42L46.58,23.41a1,1,0,0,0-1.58.7Z"/></g></g></svg>