<svg xmlns="http://www.w3.org/2000/svg" viewBox="0 0 92 92"><defs><style>.cls-1{fill:#f7f7f7;}.cls-2{fill:#45b2ef;}</style></defs><title>Kodi</title><g id="Capa_2" data-name="Capa 2"><g id="AmazonFire"><circle class="cls-1" cx="46" cy="46" r="46"/><path class="cls-2" d="M46.82,11a25.4,25.4,0,0,1,2.45,1.9c3.57,3.52,7.1,7.07,10.64,10.62,2.1,2.11,2.11,3.78,0,5.84L36.43,52.6a5.07,5.07,0,0,1-1,.86,1.62,1.62,0,0,1-2.56-1,6.46,6.46,0,0,1-.18-1.76c0-8.06,0-16.12,0-24.18a8.13,8.13,0,0,1,2.55-6.1c2.55-2.47,5-5,7.56-7.51A25.4,25.4,0,0,1,45.18,11Z"/><path class="cls-2" d="M45.18,81a25.4,25.4,0,0,1-2.45-1.9c-2.93-2.88-5.8-5.8-8.69-8.71C32,68.3,32,66.67,34,64.64q5.09-5.05,10.2-10.09c2-2,3.69-2,5.65,0q4.57,4.62,9.12,9.25c2,2,1.94,3.67,0,5.65-3.34,3.36-6.68,6.72-10.06,10A17.43,17.43,0,0,1,46.82,81Z"/><path class="cls-2" d="M81,46.82a26.79,26.79,0,0,1-1.91,2.45c-3.19,3.25-6.42,6.45-9.65,9.67-2,2-3.7,2-5.64,0q-4.62-4.66-9.2-9.35c-1.73-1.78-1.75-3.52,0-5.26q5.2-5.22,10.47-10.39c1.74-1.72,3.51-1.73,5.25,0q4.72,4.66,9.38,9.37A13.23,13.23,0,0,1,81,45.18Z"/><path class="cls-2" d="M11,45.18c.73-.91,1.38-1.89,2.19-2.72,2.93-3,5.91-5.93,8.87-8.89.72-.71,1.45-1.5,2.6-1s1.13,1.52,1.13,2.55V56.67a2,2,0,0,1,0,.82c-.31.65-.58,1.64-1.09,1.81a2.64,2.64,0,0,1-2.16-.55A47.3,47.3,0,0,1,19,55.32c-1.93-1.93-3.89-3.84-5.78-5.8-.81-.84-1.49-1.8-2.22-2.7Z"/></g></g></svg>