<svg width="44" height="32" viewBox="0 0 44 32" fill="none" xmlns="http://www.w3.org/2000/svg">
<path d="M42.1343 22.3304C42.7015 22.3304 43.8103 22.3304 43.8103 22.3304V24.3417C43.8103 24.3417 41.6443 24.3417 41.206 24.3417C40.355 24.3417 39.5299 23.9291 39.762 24.0322C38.55 23.4907 38.0859 22.1757 37.9828 20.7059V3.86785H40.716V8.07091V8.0967H43.3204V10.0564H40.716V10.0822V20.9122C40.7676 21.9952 41.4123 22.3304 42.1343 22.3304ZM26.8434 20.7832V11.552C26.766 6.34327 35.9457 6.31749 35.791 11.6809V16.116C35.791 16.3997 35.5589 16.606 35.3011 16.606H29.5766V20.9122C29.6024 22.9492 33.1093 22.9235 33.1093 20.9122V18.8493H35.8168V20.7832C35.9457 26.1209 26.766 25.9919 26.8434 20.7832ZM33.0577 14.5689V11.552C33.0577 9.54069 29.5766 9.54069 29.5251 11.552V14.5689H33.0577ZM21.5573 11.2941C21.5573 9.41176 18.3599 9.46334 18.3083 11.3715V24.3417H14.3631V22.3304H15.6266V10.108H14.131V8.12248H17.9473V9.59227C17.9473 9.59227 18.4114 8.89605 19.6234 8.22563C21.1705 7.3747 22.6919 8.22562 22.4598 8.12248C23.6717 8.66398 24.1359 9.97905 24.239 11.4488V22.3562H25.9666V24.3417H21.5831L21.5573 11.2941ZM10.7531 0L12.7128 0V32H10.7531V0ZM0.000486193 20.7832L0.000486193 11.552C-0.0768708 6.34327 9.10282 6.31749 8.94811 11.6809V13.2796H6.2664L6.24062 11.552C6.24062 9.56648 2.78534 9.61805 2.70798 11.6293L2.70798 20.9122C2.73377 22.9492 6.24062 22.9235 6.24062 20.9122V18.8493H8.94811V20.7832C9.10282 26.1209 -0.0768708 25.9919 0.000486193 20.7832Z" fill="#DD0400"/>
</svg>
