<?xml version="1.0" encoding="UTF-8"?> <svg xmlns="http://www.w3.org/2000/svg" width="112" height="112" viewBox="0 0 112 112" fill="none"><path d="M74.8735 75.5684L68.4668 90.3347H65.091L58.7095 75.5684H62.4021L66.9106 86.1163L71.4725 75.5684H74.8735ZM86.1869 76.2245C87.1626 76.6731 87.9015 77.2801 88.4019 78.0708C88.9291 78.8614 89.1926 79.8119 89.1926 80.9195C89.1926 81.9989 88.9291 82.9494 88.4019 83.7653C87.8748 84.584 87.136 85.1911 86.1869 85.613C85.2112 86.0336 84.077 86.2453 82.7859 86.2453H79.804V90.3585H76.3763V75.5922H82.7831C84.0756 75.5656 85.2098 75.8025 86.1855 76.2245H86.1869ZM84.921 82.8443C85.4481 82.3957 85.7117 81.762 85.7117 80.9447C85.7117 80.1274 85.4481 79.4685 84.921 79.0465C84.3939 78.5979 83.6032 78.3876 82.5742 78.3876H79.7788V83.5032H82.5742C83.6032 83.5032 84.3939 83.2648 84.921 82.8443V82.8443ZM104.644 75.5684V90.3347H101.849L94.4918 81.3695V90.3347H91.1174V75.5684H93.9381L101.295 84.5336V75.5684H104.644ZM18.6821 79.6535V90.3585H15.7031V89.1192C14.9376 90.0431 13.8035 90.5169 12.3525 90.5169C11.3515 90.5169 10.4291 90.2786 9.61176 89.8314C8.79444 89.3828 8.16078 88.7239 7.68694 87.9066C7.21169 87.0626 7 86.1121 7 85.0046C7 83.8971 7.23833 82.9228 7.68694 82.1055C8.13065 81.2925 8.79882 80.6244 9.61176 80.1806C10.4527 79.7226 11.3964 79.4862 12.3539 79.4937C13.725 79.4937 14.7792 79.9171 15.5713 80.7863V79.6535H18.6835H18.6821ZM14.8591 87.1678C15.3862 86.6406 15.6232 85.9018 15.6232 85.006C15.6232 84.1088 15.3596 83.3714 14.8591 82.8443C14.6076 82.5809 14.3045 82.3723 13.9688 82.2314C13.633 82.0905 13.2718 82.0205 12.9077 82.0256C12.117 82.0256 11.4567 82.2905 10.931 82.8443C10.4024 83.3714 10.1655 84.1088 10.1655 85.006C10.1655 85.9032 10.4291 86.6406 10.9296 87.1678C11.1862 87.4312 11.4938 87.6395 11.8337 87.7801C12.1736 87.9206 12.5385 87.9903 12.9063 87.9851C13.6983 87.9598 14.3572 87.6963 14.8591 87.1678ZM30.4946 75.5684H33.6069V90.3613H30.4946V75.5684ZM47.0554 79.6535V90.3585H44.0763V89.1192C43.3109 90.0431 42.1781 90.5169 40.7272 90.5169C39.7248 90.5169 38.8023 90.2786 37.985 89.8314C37.1677 89.3828 36.534 88.7239 36.0602 87.9066C35.585 87.0626 35.3733 86.1121 35.3733 85.0046C35.3733 83.8971 35.6116 82.9228 36.0602 82.1055C36.504 81.2926 37.1721 80.6244 37.985 80.1806C38.8259 79.7226 39.7696 79.4862 40.7272 79.4937C42.0982 79.4937 43.1525 79.9171 43.9445 80.7863V79.6535H47.0568H47.0554ZM43.2324 87.1678C43.7595 86.6406 43.9978 85.9018 43.9978 85.006C43.9978 84.1088 43.7329 83.3714 43.2324 82.8443C42.9809 82.5809 42.6778 82.3723 42.342 82.2314C42.0063 82.0905 41.645 82.0205 41.2809 82.0256C40.4902 82.0256 39.8313 82.2905 39.3042 82.8443C38.7757 83.3714 38.5388 84.1088 38.5388 85.006C38.5388 85.9032 38.8023 86.6406 39.3042 87.1678C39.5609 87.4312 39.8685 87.6395 40.2084 87.7801C40.5482 87.9206 40.9132 87.9903 41.2809 87.9851C42.0716 87.9598 42.7319 87.6963 43.2324 87.1678ZM51.1167 90.2001C50.2728 89.9898 49.5872 89.6996 49.0854 89.3828L50.1144 87.1425C50.5882 87.458 51.1686 87.6963 51.8541 87.8799C52.5411 88.065 53.2 88.1701 53.8589 88.1701C55.1767 88.1701 55.8356 87.8533 55.8356 87.1944C55.8356 86.8776 55.6519 86.6673 55.3084 86.5355C54.9397 86.4037 54.4112 86.2972 53.6472 86.192C52.918 86.0872 52.1961 85.9374 51.4854 85.7434C50.9206 85.5716 50.4113 85.2533 50.0092 84.821C49.5858 84.3724 49.3756 83.7667 49.3756 82.9494C49.3756 82.2625 49.5606 81.6835 49.9559 81.155C50.3513 80.6293 50.9317 80.2325 51.6705 79.9437C52.4079 79.6535 53.3051 79.4951 54.3341 79.4951C55.0959 79.4957 55.8556 79.5751 56.601 79.732C57.2566 79.8628 57.888 80.0946 58.4726 80.419L57.4449 82.634C56.5021 82.1078 55.439 81.8349 54.3593 81.8419C53.7004 81.8419 53.1986 81.9471 52.8565 82.1321C52.513 82.3158 52.3546 82.5527 52.3546 82.8443C52.3546 83.1863 52.5397 83.398 52.8831 83.5298C53.2518 83.6616 53.8056 83.7934 54.5963 83.8985C55.4669 84.0569 56.179 84.1887 56.7594 84.3724C57.3132 84.5308 57.8136 84.849 58.209 85.2696C58.631 85.7182 58.816 86.3238 58.816 87.1159C58.816 87.7748 58.6057 88.3804 58.209 88.8823C57.8136 89.4094 57.2333 89.8048 56.4692 90.095C55.7038 90.3852 54.808 90.5169 53.7523 90.5169C52.8551 90.5169 51.9859 90.4118 51.1167 90.2001V90.2001ZM28.096 87.6458C27.7256 87.9096 27.2846 88.0561 26.83 88.0664C26.4095 88.0664 26.066 87.936 25.8543 87.6977C25.6174 87.4608 25.5122 87.0921 25.5122 86.6435V82.0284H28.1226V79.6297H25.5122V75.5684H22.4V79.6297H20.7387V82.0284H22.4V86.6687C22.4 87.936 22.7435 88.8837 23.4556 89.5426C24.1412 90.2029 25.1435 90.5197 26.4081 90.5197C26.9099 90.5197 27.3585 90.4665 27.8058 90.3613L28.1226 90.2828V87.6458H28.096V87.6458Z" fill="#1A1E3A"></path><path d="M57.2961 62.4884C46.0015 62.4884 36.7634 53.4117 36.7305 42.2819C36.7305 36.8637 38.82 31.7371 42.6711 27.919C44.5487 26.0305 46.7821 24.533 49.2421 23.5131C51.702 22.4931 54.3398 21.9709 57.0028 21.9766H57.0341C68.1656 22.0113 77.2405 31.2164 77.2405 42.5423V62.4884H57.2961Z" fill="#4D8EF8"></path><path d="M48.7746 56.381C49.5505 56.381 50.3188 56.2281 51.0357 55.9312C51.7525 55.6343 52.4039 55.1991 52.9526 54.6504C53.5012 54.1018 53.9364 53.4504 54.2334 52.7336C54.5303 52.0167 54.6831 51.2484 54.6831 50.4725C54.6831 49.6966 54.5303 48.9282 54.2334 48.2114C53.9364 47.4945 53.5012 46.8432 52.9526 46.2945C52.4039 45.7459 51.7525 45.3107 51.0357 45.0137C50.3188 44.7168 49.5505 44.564 48.7746 44.564C47.2073 44.564 45.7043 45.1866 44.596 46.2948C43.4878 47.403 42.8652 48.9061 42.8652 50.4733C42.8652 52.0406 43.4878 53.5437 44.596 54.6519C45.7043 55.7601 47.2073 56.3827 48.7746 56.3827V56.381Z" fill="white"></path><path d="M57.036 21H56.97C54.1791 20.994 51.4147 21.542 48.8371 22.6124C46.2596 23.6829 43.9201 25.2543 41.9545 27.2357C39.9695 29.2123 38.3963 31.563 37.3259 34.1518C36.2556 36.7405 35.7093 39.5159 35.7189 42.3172C35.7518 54.0006 45.4134 63.5024 57.2633 63.5024H78.1883V42.5775C78.2212 30.6945 68.7211 21.033 57.036 21ZM64.3477 59.5194H58.5372V52.5983C58.5372 46.3973 53.5737 41.3366 47.4699 41.3036C45.0684 41.3048 42.732 42.0842 40.8108 43.5251C41.4007 41.7727 42.3961 40.1844 43.716 38.8896C44.8357 37.7607 46.168 36.865 47.6361 36.2543C49.1041 35.6436 50.6786 35.3301 52.2686 35.3318H52.3033C58.9607 35.363 64.3477 40.9132 64.3477 47.7354V59.5194V59.5194ZM48.6136 45.809C49.9025 45.8127 51.1375 46.3264 52.0488 47.238C52.96 48.1495 53.4733 49.3847 53.4765 50.6736C53.4728 51.9622 52.9593 53.197 52.0481 54.1081C51.137 55.0193 49.9022 55.5328 48.6136 55.5365C47.3247 55.5333 46.0895 55.02 45.178 54.1087C44.2664 53.1975 43.7527 51.9625 43.749 50.6736C43.7522 49.3844 44.2658 48.149 45.1774 47.2374C46.089 46.3258 47.3244 45.8122 48.6136 45.809V45.809ZM74.2712 59.5194H68.2976V47.7684C68.2976 38.7577 61.1162 31.413 52.3016 31.413H52.2686C47.9593 31.413 43.9451 33.0791 40.9097 36.1162C40.8691 36.1532 40.8356 36.1974 40.8108 36.2464C41.6767 33.9154 43.0359 31.799 44.7955 30.042C46.4015 28.4242 48.3144 27.1434 50.422 26.2746C52.5296 25.4059 54.7894 24.9668 57.069 24.983C66.5691 25.016 74.3059 32.883 74.3059 42.5775V59.5194H74.2712V59.5194Z" fill="#1A1E3A"></path></svg> 