<svg width="80" height="16" viewBox="0 0 80 16" fill="none" xmlns="http://www.w3.org/2000/svg">
<path d="M25.3399 5.33103C24.7988 8.80127 24.2577 12.2806 23.7166 15.7689H21.2725L19.5093 5.4127H19.4533V15.7507H17.2424C17.233 15.5964 17.2237 5.55805 17.205 0.697906C17.205 0.307277 17.3077 0.171011 17.7275 0.189089C18.595 0.216433 19.472 0.216433 20.3396 0.189089C20.6661 0.180005 20.806 0.279933 20.8527 0.597887C21.4124 3.99545 21.9815 7.3931 22.6158 10.7997C22.7371 10.0548 22.8584 9.3099 22.9703 8.56489C23.3808 5.89417 23.7913 3.21428 24.2017 0.54338C24.2391 0.298102 24.3323 0.180005 24.6215 0.189089C25.5265 0.207258 26.422 0.216433 27.3269 0.189089C27.7561 0.171011 27.84 0.325355 27.84 0.706899C27.8307 4.67677 27.8307 8.63757 27.8307 12.6074V15.7596H25.4332V5.33085C25.3959 5.33103 25.3679 5.33103 25.3399 5.33103Z" fill="#E6352B"/>
<path d="M79.4657 0.22094V15.7642H77.0962V5.32627H77.0216C76.4804 8.79651 75.9393 12.2759 75.3891 15.8006C74.6332 15.8006 73.8869 15.8096 73.1501 15.7915C73.0568 15.7915 72.9169 15.6098 72.8981 15.4916C72.385 12.5302 71.8907 9.55959 71.3869 6.59799C71.3215 6.20737 71.2563 5.82582 71.1444 5.44437V15.7732H68.8959V15.2736C68.8959 10.4408 68.9054 5.61697 68.8866 0.78399C68.8866 0.320687 69.0172 0.184421 69.4836 0.211674C70.3513 0.248011 71.2282 0.229843 72.0957 0.220849C72.3756 0.211674 72.4782 0.311693 72.5249 0.566056C73.0194 3.58207 73.5232 6.589 74.0268 9.59584C74.0922 10.0046 74.1668 10.4226 74.2974 10.8404C74.4466 9.90471 74.6053 8.96902 74.7453 8.03342C75.1277 5.55329 75.5009 3.07325 75.8926 0.593309C75.9114 0.466127 76.0513 0.248102 76.1446 0.239018C77.2361 0.211856 78.3369 0.22094 79.4657 0.22094Z" fill="#E6352B"/>
<path d="M63.7892 0.0127823C66.1774 0.0673794 67.5114 1.40278 67.5208 3.73738C67.5209 5.17271 67.5115 6.58987 67.5115 8.01612C67.5115 9.40603 67.5301 10.805 67.5022 12.1949C67.4927 12.6764 67.4275 13.167 67.2969 13.6212C66.933 14.8657 66.0748 15.6471 64.7687 15.8742C63.3508 16.1194 61.9701 16.065 60.8599 14.9749C60.0951 14.2298 59.8525 13.276 59.8525 12.2767C59.8244 9.43329 59.8152 6.58088 59.8711 3.73738C59.8804 3.04697 60.0762 2.31122 60.3842 1.69339C61.0653 0.348904 62.3526 -0.0234644 63.7892 0.0127823ZM64.8806 3.2014C64.7221 2.56549 64.2742 2.24754 63.6307 2.28379C62.9777 2.32022 62.5579 2.67451 62.4646 3.31041C62.4273 3.54661 62.4273 3.79189 62.4273 4.03716V7.98887H62.4551C62.4551 9.50587 62.4365 11.014 62.4646 12.5311C62.4739 13.2487 62.8937 13.6575 63.5653 13.6939C64.3489 13.7393 64.7687 13.4304 64.918 12.6854C64.946 12.5311 64.9553 12.3856 64.9553 12.2312V3.78271C64.9553 3.59203 64.9272 3.39217 64.8806 3.2014Z" fill="#E6352B"/>
<path d="M46.1225 5.49671H43.6877C43.6877 5.10608 43.697 4.72454 43.6877 4.33391C43.6783 3.96136 43.6877 3.57082 43.6129 3.20745C43.4825 2.57154 43.0161 2.2445 42.3723 2.28084C41.7005 2.31718 41.2807 2.68964 41.1968 3.35289C41.1687 3.58908 41.1687 3.83436 41.1687 4.07964V11.9376C41.1687 12.1193 41.1781 12.301 41.1873 12.4827C41.2435 13.2729 41.6537 13.6817 42.4001 13.6909C43.1745 13.7 43.6409 13.3002 43.669 12.4917C43.7061 11.4833 43.6783 10.4659 43.6783 9.403C43.3145 9.38483 42.9693 9.36666 42.5867 9.34849V7.15007H46.1224V7.6588C46.1224 9.15772 46.1318 10.6566 46.1131 12.1556C46.1038 12.6007 46.0479 13.064 45.9358 13.5C45.5908 14.9354 44.5272 15.8438 43.016 15.9527C42.3723 15.9982 41.7004 15.9801 41.0754 15.8347C39.6854 15.5259 38.7898 14.4357 38.6406 12.9641C38.5846 12.3644 38.5659 11.7559 38.5659 11.1563C38.5566 8.73075 38.5473 6.31431 38.5754 3.88878C38.5754 3.39831 38.65 2.88949 38.7805 2.40802C39.219 0.800087 40.525 -0.0356764 42.4281 0.0188299C44.7137 0.0733362 45.9919 1.27247 46.1131 3.50714C46.1505 4.15222 46.1225 4.79722 46.1225 5.49671Z" fill="#E6352B"/>
<path d="M34.9297 0.219349C35.2095 0.210173 35.2842 0.310192 35.3308 0.573549C35.7786 3.36255 36.2451 6.15145 36.7022 8.94036C37.066 11.1206 37.4205 13.2918 37.775 15.472C37.7876 15.5745 37.7938 15.6777 37.7936 15.7809H35.2187C35.0695 14.8542 34.9296 13.9458 34.7803 13.0192H31.7764C31.6271 13.9367 31.4872 14.8451 31.3379 15.7809H28.987C29.1083 15.0268 29.2202 14.2911 29.3415 13.5552C29.892 10.2212 30.4424 6.89637 30.9835 3.5714C31.1514 2.57211 31.3193 1.57283 31.4686 0.573549C31.5153 0.310192 31.6179 0.219349 31.8978 0.219349C32.9053 0.237426 33.9221 0.228433 34.9297 0.219349ZM33.2598 3.39888C32.8774 5.85167 32.5042 8.31353 32.1217 10.8027H34.4446C34.0621 8.32253 33.6889 5.86974 33.3158 3.42614L33.2598 3.39888Z" fill="#E6352B"/>
<path d="M13.5737 9.98447H16.0645C15.9806 11.1745 16.0086 12.3464 15.794 13.4729C15.5235 14.9445 14.432 15.8075 12.9113 15.9528C12.3889 16.0075 11.8478 16.0075 11.3347 15.9167C9.47828 15.5894 8.47075 14.345 8.44276 12.3011C8.41477 9.42133 8.41477 6.55058 8.45209 3.67092C8.46142 3.08043 8.61068 2.46261 8.82525 1.90855C9.34767 0.618567 10.5791 -0.0264243 12.2676 0.00082887C14.5346 0.0462508 15.8033 1.20905 15.9619 3.42564C16.0086 4.0888 15.9712 4.75196 15.9712 5.4878C15.2156 5.4878 14.4879 5.49688 13.7603 5.46963C13.6856 5.46963 13.555 5.26977 13.5457 5.16076C13.5177 4.61569 13.555 4.07063 13.5177 3.52557C13.4618 2.58088 12.846 2.13566 11.9131 2.32643C11.4187 2.42645 11.0922 2.79882 11.0362 3.37113C10.9989 3.73451 11.0082 4.09789 11.0082 4.46126V11.8196C11.0082 12.0286 11.0082 12.2466 11.0269 12.4555C11.0829 13.2731 11.4933 13.6819 12.2676 13.6819C13.0326 13.6819 13.4804 13.264 13.5177 12.4555C13.5457 11.7469 13.5271 11.0294 13.5364 10.3207C13.555 10.2207 13.5644 10.1207 13.5737 9.98447Z" fill="#E6352B"/>
<path d="M56.1792 5.5041C56.1792 4.80469 56.2071 4.18686 56.1698 3.56913C56.1232 2.61527 55.5168 2.16105 54.5839 2.34273C54.0708 2.44275 53.6977 2.79695 53.6882 3.36018C53.6696 6.45796 53.6603 9.56482 53.6882 12.6717C53.6977 13.2985 54.1641 13.6528 54.7891 13.6892C55.5168 13.7346 55.9459 13.4528 56.0951 12.7989C56.1511 12.5627 56.1603 12.3174 56.1698 12.0813C56.1792 11.4 56.1698 10.7186 56.1698 10.001H58.6047C58.5487 11.3545 58.8098 12.7354 58.2409 14.0618C57.7184 15.2791 56.7109 15.8513 55.4141 15.9695C54.9383 16.0149 54.4441 16.0149 53.9776 15.9332C52.1023 15.6061 51.0761 14.3525 51.0576 12.2994C51.0295 9.43782 51.0295 6.57624 51.0669 3.71466C51.0762 3.106 51.2162 2.4701 51.4588 1.91595C52.0838 0.462448 53.3617 0.0173133 54.8639 0.0261737C57.14 0.035482 58.446 1.24361 58.5955 3.46929C58.6326 4.0416 58.6234 4.623 58.5955 5.19532C58.5859 5.30433 58.4275 5.49511 58.3342 5.50419C57.6531 5.51318 56.9534 5.5041 56.1792 5.5041Z" fill="#E6352B"/>
<path d="M0.531748 0.162913C1.79115 0.208335 3.05056 0.181082 4.30063 0.244672C6.05447 0.326341 7.28589 1.4529 7.39783 3.16984C7.48179 4.41431 7.49112 5.67713 7.40716 6.93069C7.27656 8.82033 5.97051 9.9467 4.03009 9.98313C3.55432 9.98304 3.0972 9.97396 2.55612 9.97396V15.7697H0.0279868C0.0186578 15.6063 0.00932892 15.4427 0.00932892 15.2793C0.00932892 10.4192 0.00932892 5.55904 0 0.698892C0 0.299179 0.0932892 0.144653 0.531748 0.162913ZM3.91815 2.50659C3.48902 2.46117 3.05989 2.49751 2.59344 2.49751C2.59344 4.24171 2.59344 5.94957 2.58411 7.66661C2.71472 7.67561 2.808 7.68469 2.90129 7.68469C3.19982 7.68469 3.48902 7.68469 3.78754 7.67561C4.43124 7.64835 4.83238 7.3304 4.85104 6.70358C4.88835 5.61345 4.88835 4.5325 4.85104 3.44238C4.83238 2.87914 4.50587 2.57018 3.91815 2.50659Z" fill="#E6352B"/>
<path d="M49.8142 15.7905H47.4167V13.4286H49.8142V15.7905Z" fill="#E6352B"/>
</svg>
