<?xml version="1.0" encoding="UTF-8"?> <svg xmlns="http://www.w3.org/2000/svg" width="112" height="112" viewBox="0 0 112 112" fill="none"><path d="M45.7608 36.9072V34.6676C45.7608 30.0916 49.4837 26.3681 54.0602 26.3681C58.6367 26.3681 62.3597 30.0916 62.3597 34.7231V36.9072H66.7278V34.6676C66.7278 27.6716 61.0493 22 54.0602 22C47.0711 22 41.3926 27.6716 41.3926 34.6676V36.9072H45.7608Z" fill="url(#paint0_linear_2160_3302)"></path><path d="M68.8873 39.4739C68.8861 38.0367 67.7038 36.8545 66.2666 36.8532H60.5882C59.8429 36.8517 59.1314 37.1701 58.6357 37.7269H49.4316C48.9373 37.1709 48.2276 36.8526 47.4836 36.853H41.8048C41.8047 36.853 41.8045 36.853 41.8044 36.853C40.367 36.853 39.1841 38.0358 39.1841 39.4732C39.1841 39.4734 39.1841 39.4735 39.1841 39.4737C38.617 40.2295 38.3103 41.1495 38.3105 42.0944V57.8202C38.31 59.7589 39.6017 61.4763 41.4644 62.0137C41.7766 63.146 42.8145 63.9361 43.9891 63.9357H47.9206C49.0275 63.9343 50.0196 63.232 50.3886 62.1884H57.6831C58.051 63.2327 59.0437 63.9356 60.1513 63.9357H64.0823C65.2557 63.9359 66.2921 63.1455 66.6028 62.0137C68.4663 61.4768 69.7595 59.7597 69.7606 57.8202V42.0948C69.7612 41.1498 69.4547 40.2298 68.8873 39.4739ZM55.8266 50.0231C55.6769 50.1152 55.5999 50.2918 55.6344 50.4642L56.6086 55.9987C56.6131 56.024 56.6154 56.0496 56.6154 56.0754C56.6154 56.3137 56.4193 56.5098 56.181 56.5098C56.1808 56.5098 56.1807 56.5098 56.1805 56.5098H51.8866C51.8864 56.5098 51.8863 56.5098 51.8861 56.5098C51.6478 56.5098 51.4517 56.3137 51.4517 56.0754C51.4517 56.0496 51.4539 56.024 51.4585 55.9987L52.4368 50.4642C52.4646 50.2804 52.3757 50.0975 52.2141 50.0056C51.142 49.3654 50.4835 48.2051 50.4835 46.9564C50.4835 45.0081 52.0868 43.4049 54.0351 43.4049C55.9834 43.4049 57.5867 45.0081 57.5867 46.9564C57.5867 48.2173 56.9152 49.3872 55.8265 50.0231L55.8266 50.0231Z" fill="url(#paint1_linear_2160_3302)"></path><path d="M52.1167 32.0062C52.1167 32.0049 52.1167 32.0035 52.1167 32.0022C52.1167 31.2234 51.4758 30.5825 50.697 30.5825C49.9182 30.5825 49.2773 31.2234 49.2773 32.0022C49.2773 32.781 49.9182 33.4219 50.697 33.4219C50.6983 33.4219 50.6997 33.4219 50.701 33.4219C51.4767 33.4194 52.1143 32.7819 52.1167 32.0062ZM57.4716 30.5826C57.4703 30.5826 57.4689 30.5826 57.4676 30.5826C56.6888 30.5826 56.0479 31.2235 56.0479 32.0023C56.0479 32.7811 56.6888 33.4219 57.4676 33.4219C58.2449 33.4219 58.8851 32.7835 58.8873 32.0062C58.8882 31.2278 58.2499 30.586 57.4716 30.5826ZM55.9589 34.3514C55.9514 34.3584 55.1862 35.0979 54.0827 35.0979C52.9885 35.0979 52.2269 34.3711 52.2066 34.3519C52.1252 34.273 52.0161 34.2288 51.9028 34.2288C51.6632 34.2288 51.466 34.426 51.466 34.6656C51.466 34.7794 51.5106 34.8889 51.59 34.9704C51.6306 35.011 52.6082 35.9716 54.0829 35.9716C55.5577 35.9716 56.5348 35.0111 56.5758 34.9704C56.6546 34.8889 56.6986 34.78 56.6986 34.6667C56.6986 34.427 56.5014 34.2298 56.2617 34.2298C56.149 34.2298 56.0406 34.2734 55.9592 34.3514H55.9589Z" fill="#56B14D"></path><path d="M57.0373 50.8055C58.2166 49.8832 58.907 48.4667 58.907 46.9696C58.907 44.2981 56.7087 42.0997 54.0371 42.0997C54.0369 42.0997 54.0366 42.0997 54.0364 42.0997C53.8421 42.0983 53.648 42.11 53.4553 42.1347C51.017 42.423 49.1592 44.5135 49.1592 46.9689C49.1592 48.4667 49.8505 49.8836 51.031 50.8055L50.1575 55.7546C50.1392 55.8568 50.1301 55.9604 50.1301 56.0641C50.1301 57.0302 50.925 57.8251 51.891 57.8251C51.8912 57.8251 51.8914 57.8251 51.8916 57.8251H56.1768C56.1771 57.8251 56.1775 57.8251 56.1778 57.8251C57.1436 57.8251 57.9384 57.0304 57.9384 56.0645C57.9384 55.9606 57.9292 55.8569 57.9109 55.7546L57.0373 50.8055ZM56.1812 56.5147H51.8873C51.8871 56.5147 51.887 56.5147 51.8868 56.5147C51.6485 56.5147 51.4524 56.3186 51.4524 56.0803C51.4524 56.0545 51.4547 56.0289 51.4592 56.0036L52.4375 50.4691C52.4653 50.2853 52.3764 50.1023 52.2147 50.0105C51.1427 49.3702 50.4842 48.21 50.4842 46.9613C50.4842 45.013 52.0874 43.4097 54.0357 43.4097C55.9841 43.4097 57.5873 45.013 57.5873 46.9613C57.5873 48.2222 56.9159 49.392 55.8272 50.028C55.6775 50.1201 55.6005 50.2968 55.635 50.4691L56.6091 56.0036C56.6137 56.0289 56.6159 56.0545 56.6159 56.0803C56.6159 56.3186 56.4198 56.5147 56.1815 56.5147C56.1814 56.5147 56.1813 56.5147 56.1812 56.5147Z" fill="url(#paint2_linear_2160_3302)"></path><path d="M54.058 65.4521C65.2451 65.4521 74.3142 64.7705 74.3142 63.9298C74.3142 63.089 65.2451 62.4075 54.058 62.4075C42.8708 62.4075 33.8018 63.089 33.8018 63.9298C33.8018 64.7705 42.8708 65.4521 54.058 65.4521Z" fill="url(#paint3_radial_2160_3302)"></path><path d="M27.5561 71.1302C27.3362 71.1302 27.1094 71.1414 26.8756 71.164C26.6742 71.1806 26.4743 71.2174 26.2799 71.2739C26.2012 71.2927 26.1279 71.332 26.0685 71.3878C26.0198 71.4455 25.9959 71.5199 26.0006 71.5952V76.0917C26.0006 76.3001 26.1248 76.4043 26.3725 76.4042C26.4358 76.4048 26.4983 76.3977 26.5592 76.383C26.6155 76.3692 26.6603 76.3564 26.6943 76.3452V74.5275H27.5477C28.2521 74.5275 28.773 74.3713 29.111 74.0587C29.4489 73.7461 29.6179 73.3277 29.6187 72.8034C29.6187 72.2905 29.4536 71.8834 29.1241 71.582C28.7946 71.2807 28.2722 71.1301 27.5561 71.1302ZM28.5539 73.6741C28.3054 73.8602 27.9566 73.9532 27.5052 73.9533H26.6858V71.781C26.8038 71.7586 26.9381 71.7403 27.087 71.726C27.2359 71.7117 27.3872 71.7047 27.5392 71.7049C27.9844 71.7049 28.327 71.7937 28.5662 71.9712C28.8062 72.1488 28.9258 72.4292 28.9258 72.8123C28.9258 73.2011 28.8015 73.4884 28.5539 73.6742V73.6741ZM32.2638 72.3475C31.9775 72.3438 31.6913 72.3793 31.415 72.4531C31.2051 72.506 31.0037 72.59 30.8186 72.7023C30.7236 72.7589 30.6411 72.8354 30.5778 72.9265C30.5253 73.0206 30.5006 73.1276 30.506 73.2352V76.1002C30.506 76.303 30.6272 76.4043 30.8695 76.4044C30.932 76.405 30.9945 76.3979 31.0554 76.3833C31.0986 76.3733 31.1411 76.3607 31.182 76.3454V73.1842C31.3371 73.101 31.5022 73.037 31.6727 72.9937C31.8957 72.9372 32.1264 72.9102 32.3572 72.9137C32.4474 72.9137 32.5377 72.9193 32.6272 72.9305C32.7175 72.9418 32.7908 72.9532 32.8471 72.9644C32.8765 72.9279 32.8996 72.8865 32.9143 72.8419C32.932 72.7915 32.9405 72.7386 32.9397 72.6853C32.9397 72.4601 32.7144 72.3474 32.2638 72.3475ZM34.1149 70.8006C33.9969 70.7961 33.8827 70.8403 33.7978 70.9231C33.6357 71.0887 33.6357 71.3576 33.7978 71.5232C33.8819 71.6061 33.9969 71.6506 34.1149 71.646C34.1203 71.6462 34.125 71.6462 34.1304 71.6462C34.3618 71.6462 34.5532 71.4553 34.5532 71.2233C34.5532 70.9914 34.3618 70.8004 34.1304 70.8004C34.125 70.8004 34.1203 70.8005 34.1149 70.8007V70.8006ZM34.0987 72.4149C34.0339 72.4146 33.9706 72.4217 33.9081 72.4361C33.8634 72.4459 33.8194 72.4587 33.7769 72.4742V76.1C33.7769 76.3028 33.8981 76.4042 34.1404 76.4043C34.2029 76.4049 34.2654 76.3978 34.3263 76.3831C34.3695 76.3733 34.4112 76.3606 34.4529 76.3452V72.7277C34.4529 72.5193 34.3348 72.415 34.0987 72.4149ZM38.696 72.3814C38.5957 72.3767 38.4962 72.4001 38.4082 72.4489C38.2616 72.9841 38.0918 73.5279 37.8974 74.08C37.7029 74.6321 37.4931 75.1928 37.2678 75.7621H37.2338C37.1999 75.6661 37.1559 75.5503 37.1026 75.4149C37.0494 75.2795 36.9954 75.1401 36.9421 74.9967C36.8881 74.8526 36.8364 74.7117 36.7855 74.574C36.7346 74.4358 36.6921 74.3194 36.6589 74.2234L36.1342 72.7104C36.1042 72.6162 36.054 72.5297 35.9869 72.4567C35.922 72.4022 35.8387 72.3749 35.7538 72.3809C35.6836 72.3816 35.6142 72.3989 35.5517 72.4316C35.4876 72.4621 35.4321 72.5087 35.3912 72.5666C35.4413 72.7415 35.5061 72.9402 35.5856 73.1625C35.6643 73.3848 35.7484 73.6159 35.8387 73.8558C35.929 74.095 36.0224 74.3359 36.118 74.5781C36.2137 74.8203 36.3071 75.0485 36.3966 75.2627C36.4869 75.4769 36.571 75.6685 36.6505 75.8375C36.7292 76.0065 36.794 76.1389 36.8449 76.2347C36.9066 76.353 37.0417 76.4122 37.2508 76.4122C37.3256 76.4125 37.4012 76.404 37.4746 76.3868C37.527 76.3773 37.5772 76.3573 37.6219 76.3278C37.7122 76.1586 37.8087 75.9586 37.9136 75.7277C38.0178 75.4968 38.1219 75.2559 38.2269 75.0049C38.3303 74.7542 38.429 74.5021 38.5224 74.2487C38.615 73.9952 38.6983 73.7628 38.7716 73.5514C38.8449 73.3406 38.9036 73.1574 38.9491 73.0021C38.9846 72.8967 39.007 72.7875 39.017 72.6767C39.0216 72.5939 38.9892 72.513 38.9283 72.4569C38.8627 72.4043 38.7801 72.3774 38.696 72.3814ZM42.4399 72.677C42.1529 72.4571 41.764 72.3472 41.274 72.3475C41.058 72.3459 40.8427 72.3672 40.6313 72.4108C40.4499 72.4478 40.2732 72.5089 40.1073 72.5924C40.0363 72.627 39.9731 72.676 39.9214 72.736C39.8805 72.7923 39.8596 72.8608 39.8619 72.9305C39.8619 72.9914 39.8812 73.0507 39.9175 73.0997C39.953 73.1493 39.9939 73.1946 40.0402 73.235C40.2192 73.1437 40.4059 73.0673 40.5981 73.0066C40.8133 72.9379 41.0387 72.9037 41.2655 72.9052C41.5526 72.9052 41.781 72.97 41.9499 73.0997C42.1189 73.2293 42.2038 73.4349 42.2038 73.7166V73.9533L41.0032 74.0717C40.5641 74.1166 40.2231 74.2335 39.9808 74.4224C39.7385 74.6114 39.6173 74.8918 39.6173 75.2635C39.6173 75.6581 39.7624 75.9595 40.0525 76.1678C40.3427 76.376 40.7524 76.4803 41.2825 76.4807C41.5402 76.4843 41.7972 76.4544 42.0472 76.3919C42.2347 76.3467 42.4152 76.277 42.5842 76.1848C42.6676 76.1393 42.7409 76.0775 42.7995 76.0031C42.8527 75.9188 42.8782 75.8197 42.8713 75.7201V73.7166C42.8713 73.2432 42.7277 72.8966 42.4399 72.677ZM42.2038 75.7116C42.0989 75.7723 41.987 75.819 41.8697 75.8505C41.6783 75.9029 41.4808 75.9272 41.2825 75.9222C40.9499 75.9222 40.7022 75.8645 40.5387 75.749C40.3774 75.6376 40.284 75.4504 40.2933 75.2546C40.2825 75.0755 40.362 74.9023 40.5047 74.794C40.6451 74.6897 40.862 74.6234 41.1559 74.5952L42.2038 74.4853V75.7116ZM46.1337 75.7452C46.0403 75.7962 45.9408 75.836 45.8381 75.8636C45.734 75.8952 45.6259 75.9124 45.5171 75.9143C45.3281 75.9258 45.1398 75.8768 44.9801 75.7744C44.8536 75.6818 44.7903 75.5227 44.7903 75.2971V73.1H45.9986C46.1676 73.1 46.2525 73.0043 46.2525 72.8127C46.2525 72.7595 46.244 72.7066 46.227 72.6563C46.2139 72.6167 46.1969 72.5784 46.1761 72.5421H44.7903V71.5698C44.7903 71.367 44.6714 71.2656 44.4353 71.2656C44.3713 71.2653 44.3072 71.2723 44.2447 71.2867C44.2 71.2965 44.1568 71.3092 44.1136 71.3248V75.3397C44.1136 75.7453 44.2363 76.0354 44.4816 76.2101C44.7262 76.3848 45.0465 76.4721 45.4408 76.472C45.6499 76.4823 45.859 76.4416 46.0496 76.3535C46.1954 76.2748 46.2687 76.1734 46.2687 76.0492C46.2702 75.9874 46.2556 75.9263 46.227 75.8718C46.2016 75.8255 46.1707 75.7829 46.1337 75.7452ZM50.4439 74.3464C50.508 74.273 50.5381 74.1767 50.5288 74.0801C50.5319 73.8412 50.4871 73.6041 50.3976 73.3826C50.3143 73.1773 50.1908 72.9905 50.0342 72.8334C49.8768 72.6766 49.6885 72.5543 49.481 72.4743C49.2572 72.388 49.0188 72.345 48.7796 72.3476C48.5218 72.3449 48.2664 72.392 48.0272 72.4864C47.8019 72.5755 47.5982 72.7125 47.4315 72.8877C47.2595 73.0718 47.1267 73.2892 47.0426 73.5263C46.9454 73.8016 46.8983 74.092 46.9037 74.3839C46.9037 75.0656 47.0936 75.584 47.474 75.939C47.8544 76.294 48.3714 76.4715 49.0249 76.4714C49.1993 76.4724 49.3737 76.4554 49.5442 76.4207C49.6901 76.3916 49.832 76.3462 49.9671 76.2854C50.0743 76.2389 50.1716 76.1731 50.2549 76.0911C50.3182 76.032 50.356 75.9499 50.3598 75.863C50.3591 75.7262 50.2804 75.6013 50.1577 75.5417C50.018 75.6469 49.8644 75.7322 49.7009 75.7951C49.4964 75.8765 49.2788 75.9168 49.0589 75.9136C48.2417 75.9136 47.7572 75.5445 47.6052 74.8062L50.2086 74.4427C50.295 74.4376 50.3783 74.4037 50.4439 74.3464ZM47.5619 74.2829C47.5735 73.8378 47.6916 73.4956 47.9169 73.2561C48.136 73.0192 48.4478 72.8882 48.7703 72.897C49.109 72.897 49.3722 72.997 49.5604 73.1969C49.7541 73.4068 49.8691 73.677 49.8861 73.9617L47.5619 74.2829Z" fill="#1F212D"></path><path d="M53.8677 71.186C53.8036 71.1857 53.7396 71.1928 53.6771 71.2074C53.6323 71.2171 53.5891 71.2297 53.5459 71.2453V76.0969C53.5459 76.3054 53.6701 76.4095 53.9178 76.4095C53.9803 76.41 54.0428 76.4028 54.1038 76.3881C54.147 76.3783 54.1894 76.3656 54.2303 76.3502V71.4988C54.2311 71.2904 54.11 71.1861 53.8677 71.186ZM57.3577 72.3525C57.0807 72.3489 56.8045 72.3859 56.5382 72.4623C56.3345 72.5192 56.1385 72.6016 55.9549 72.7076C55.8561 72.7625 55.7712 72.839 55.7057 72.9314C55.6547 73.0197 55.63 73.121 55.6339 73.223V76.1051C55.6339 76.3079 55.755 76.4093 55.9973 76.4094C56.0598 76.4099 56.1223 76.4027 56.1833 76.388C56.2265 76.3782 56.269 76.3655 56.3098 76.3501V73.1895C56.4518 73.1083 56.6023 73.0431 56.7582 72.9949C56.9526 72.9355 57.1548 72.9069 57.3585 72.91C57.6563 72.91 57.8948 72.9832 58.0722 73.1297C58.2497 73.2761 58.3384 73.5072 58.3384 73.8227V76.1049C58.3384 76.3077 58.4596 76.4091 58.7019 76.4091C58.7636 76.4092 58.8246 76.402 58.884 76.3878C58.9287 76.3783 58.9719 76.3656 59.0151 76.3499V73.7894C59.0151 73.2936 58.867 72.9301 58.5715 72.6988C58.2752 72.4676 57.8708 72.3521 57.3585 72.3524L57.3577 72.3525ZM62.3107 75.7504C62.2174 75.8013 62.1178 75.841 62.0152 75.8686C61.911 75.9003 61.803 75.9175 61.6942 75.9196C61.5052 75.9309 61.3169 75.882 61.1572 75.7797C61.0306 75.6869 60.9666 75.5277 60.9673 75.3023V73.1047H62.1757C62.3447 73.1047 62.4296 73.009 62.4296 72.8176C62.4296 72.7643 62.4211 72.7113 62.4041 72.6609C62.391 72.6214 62.374 72.5833 62.3532 72.547H60.9673V71.5747C60.9673 71.3719 60.8493 71.2705 60.6124 71.2705C60.5484 71.2701 60.4843 71.2772 60.4218 71.2917C60.3778 71.3014 60.3338 71.3141 60.2906 71.3296V75.3447C60.2906 75.7503 60.4133 76.0405 60.6587 76.2149C60.9041 76.3894 61.2235 76.4769 61.6178 76.4773C61.8269 76.4876 62.036 76.447 62.2258 76.3588C62.3725 76.2801 62.4458 76.1787 62.4458 76.0546C62.4473 75.9928 62.4326 75.9317 62.4041 75.8771C62.3786 75.8308 62.3478 75.7881 62.3107 75.7503V75.7504ZM66.2113 72.8386C66.0539 72.6818 65.8656 72.5595 65.658 72.4795C65.4342 72.3932 65.1958 72.35 64.9566 72.3525C64.6989 72.35 64.4435 72.3971 64.2043 72.4914C63.979 72.5806 63.776 72.7175 63.6086 72.8926C63.4365 73.0768 63.3038 73.294 63.2197 73.5312C63.1225 73.8065 63.0754 74.097 63.08 74.3888C63.08 75.0705 63.2706 75.5888 63.6503 75.9437C64.0307 76.2986 64.5477 76.4762 65.2012 76.4766C65.3764 76.4777 65.55 76.4606 65.7213 76.4259C65.8664 76.3969 66.0083 76.3515 66.1434 76.2906C66.2506 76.2441 66.3478 76.1782 66.4312 76.0963C66.4952 76.0372 66.533 75.955 66.5369 75.868C66.5361 75.7313 66.4566 75.6064 66.334 75.5469C66.1943 75.6521 66.0407 75.7374 65.8772 75.8001C65.6735 75.8818 65.4551 75.9222 65.2352 75.9189C64.418 75.9189 63.9334 75.5497 63.7814 74.8113L66.3849 74.4481C66.4721 74.4429 66.5554 74.4088 66.621 74.351C66.685 74.2776 66.7151 74.1812 66.7059 74.0846C66.709 73.8457 66.6642 73.6087 66.5747 73.3872C66.4914 73.1821 66.3679 72.9957 66.2113 72.8386ZM63.7398 74.288C63.7506 73.8427 63.8686 73.5004 64.0939 73.2613C64.3139 73.0243 64.6248 72.8932 64.9481 72.9019C65.2861 72.9019 65.55 73.002 65.7383 73.2021C65.9312 73.412 66.0461 73.6822 66.0639 73.9668L63.7398 74.288ZM69.4451 72.3525C69.1581 72.3489 68.8726 72.3845 68.5956 72.4581C68.3849 72.5112 68.1843 72.5953 67.9991 72.7076C67.9042 72.7642 67.8216 72.8406 67.7584 72.9314C67.7059 73.0254 67.6812 73.1325 67.6866 73.24V76.1054C67.6866 76.3081 67.8077 76.4095 68.05 76.4096C68.1125 76.4101 68.175 76.403 68.236 76.3882C68.2784 76.3784 68.3209 76.3658 68.3625 76.3504V73.1895C68.5176 73.1061 68.682 73.042 68.8533 72.999C69.0763 72.9422 69.307 72.9153 69.5377 72.9189C69.628 72.919 69.7183 72.9245 69.8078 72.9355C69.8981 72.9469 69.9714 72.9586 70.0277 72.9693C70.057 72.9328 70.0802 72.8916 70.0948 72.8472C70.1126 72.7968 70.1211 72.7439 70.1211 72.6906C70.1211 72.4653 69.8958 72.3527 69.4451 72.3524V72.3525ZM72.5972 72.3525C72.3202 72.3489 72.0439 72.3859 71.7777 72.4624C71.5733 72.5192 71.3773 72.6017 71.1944 72.7077C71.0956 72.7628 71.01 72.8392 70.9444 72.9315C70.8935 73.0199 70.8688 73.121 70.8734 73.2231V76.1052C70.8734 76.308 70.9945 76.4094 71.2368 76.4095C71.2993 76.41 71.3618 76.4028 71.4228 76.3881C71.4652 76.3783 71.5077 76.3656 71.5493 76.3502V73.1895C71.6905 73.1084 71.841 73.0431 71.9969 72.9949C72.1913 72.9356 72.3943 72.907 72.5972 72.91C72.8958 72.91 73.1342 72.9832 73.3117 73.1297C73.4892 73.2761 73.5779 73.5072 73.5779 73.8227V76.1049C73.5779 76.3077 73.6991 76.4091 73.9414 76.4091C74.0023 76.4091 74.0633 76.402 74.1227 76.3878C74.1674 76.3782 74.2114 76.3655 74.2539 76.3499V73.7894C74.2539 73.2936 74.1065 72.9301 73.8102 72.6988C73.5146 72.4676 73.1103 72.3521 72.5972 72.3524V72.3525ZM78.433 72.8386C78.2755 72.6817 78.0873 72.5594 77.8797 72.4795C77.6559 72.3931 77.4175 72.35 77.1775 72.3525C76.9206 72.35 76.6652 72.3971 76.426 72.4914C76.2007 72.5806 75.997 72.7175 75.8295 72.8926C75.6582 73.0768 75.5255 73.2941 75.4406 73.5312C75.3442 73.8065 75.2971 74.097 75.3017 74.3888C75.3017 75.0705 75.4923 75.5888 75.8727 75.9437C76.2531 76.2986 76.7701 76.4762 77.4237 76.4766C77.5981 76.4777 77.7725 76.4607 77.943 76.4259C78.0888 76.3969 78.2308 76.3515 78.3658 76.2906C78.4731 76.2441 78.5703 76.1782 78.6536 76.0963C78.7169 76.0371 78.7555 75.955 78.7586 75.868C78.7578 75.7314 78.6791 75.6064 78.5564 75.5469C78.4167 75.6521 78.2632 75.7373 78.0996 75.8001C77.8959 75.8817 77.6775 75.9222 77.4576 75.9189C76.6405 75.9189 76.1559 75.5497 76.0039 74.8113L78.6066 74.4486C78.6938 74.4434 78.7771 74.4093 78.8427 74.3515C78.906 74.2781 78.9368 74.1818 78.9276 74.0852C78.9307 73.8463 78.8859 73.6092 78.7964 73.3877C78.713 73.1823 78.5896 72.9956 78.433 72.8386ZM75.9607 74.288C75.9723 73.8427 76.0903 73.5004 76.3156 73.2613C76.5348 73.0242 76.8465 72.8931 77.1698 72.9019C77.5078 72.9019 77.7709 73.002 77.96 73.2021C78.1529 73.4119 78.2678 73.6821 78.2856 73.9668L75.9607 74.288ZM82.0295 75.8771C82.0048 75.8308 81.9731 75.7882 81.9369 75.7503C81.8435 75.8013 81.744 75.8409 81.6413 75.8685C81.5372 75.9003 81.4284 75.9174 81.3196 75.9195C81.1305 75.9308 80.943 75.8819 80.7833 75.7797C80.6568 75.6868 80.5927 75.5276 80.5927 75.3023V73.1047H81.8011C81.9701 73.1047 82.0542 73.009 82.0542 72.8176C82.0549 72.7643 82.0464 72.7113 82.0295 72.6609C82.0164 72.6213 81.9994 72.5832 81.9785 72.547H80.5927V71.5747C80.5927 71.3719 80.4739 71.2705 80.2378 71.2705C80.1737 71.2702 80.1097 71.2773 80.0472 71.2917C80.0024 71.3015 79.9592 71.3141 79.916 71.3296V75.3447C79.916 75.7503 80.0387 76.0405 80.2841 76.2149C80.5287 76.3894 80.8489 76.4769 81.2432 76.4773C81.4523 76.4876 81.6614 76.447 81.852 76.3588C81.9978 76.2801 82.0711 76.1787 82.0711 76.0546C82.0727 75.9929 82.0588 75.9317 82.0295 75.8771Z" fill="#4A9E41"></path><path d="M33.7892 84.6429C33.4921 83.7642 33.1958 82.9112 32.8987 82.0841C32.6024 81.257 32.3285 80.5181 32.0777 79.8675C31.9821 79.6359 31.7868 79.4596 31.5469 79.3886C31.2598 79.2933 30.9597 79.2469 30.6572 79.2514C30.4087 79.2513 30.161 79.2829 29.9211 79.3457C29.7359 79.3875 29.5576 79.4537 29.3902 79.5425C29.1618 80.1242 28.894 80.8231 28.5862 81.6391C28.2783 82.4551 27.9735 83.2852 27.6702 84.1296C27.3678 84.9742 27.083 85.7756 26.8145 86.5341C26.5468 87.2933 26.3384 87.9123 26.1895 88.3913C26.1324 88.5397 26.0869 88.6737 26.0529 88.7935C26.019 88.9131 26.0012 89.0369 26.0012 89.1614C25.9873 89.3844 26.0915 89.5991 26.2752 89.7263C26.4843 89.8591 26.7296 89.9248 26.9766 89.9145C27.1147 89.9163 27.252 89.9049 27.3878 89.8804C27.4997 89.8581 27.6085 89.8236 27.7127 89.7779L28.5514 87.1592H32.7282L33.3779 89.1274C33.4697 89.4127 33.5839 89.6152 33.7205 89.735C33.8579 89.8547 34.0801 89.9146 34.388 89.9145C34.5909 89.9195 34.7915 89.8816 34.9783 89.8033C35.131 89.7384 35.2676 89.6422 35.381 89.5209C35.1642 88.8363 34.9188 88.0718 34.6449 87.2274C34.371 86.3831 34.0863 85.5216 33.7892 84.6429ZM28.9627 85.6868C29.0993 85.276 29.242 84.851 29.3902 84.4117C29.5383 83.9725 29.6873 83.5388 29.8354 83.1109C29.9836 82.6832 30.1263 82.2753 30.2637 81.8872C30.4002 81.4992 30.526 81.1511 30.6402 80.8431H30.7259C30.8053 81.1059 30.908 81.4226 31.0337 81.7931C31.1595 82.1636 31.293 82.5602 31.4357 82.9826C31.5785 83.405 31.7266 83.8471 31.881 84.3091C32.0353 84.7711 32.1865 85.2303 32.3347 85.6868H28.9627ZM44.4183 87.7067C44.0865 87.9298 43.7307 88.1134 43.3565 88.2539C42.8904 88.4233 42.3974 88.5046 41.902 88.4936C40.8518 88.4936 40.0077 88.1627 39.3688 87.5009C38.7299 86.8391 38.4104 85.8635 38.4104 84.5742C38.4004 83.999 38.4868 83.4261 38.6666 82.8796C38.8171 82.4248 39.0594 82.0054 39.3773 81.6473C39.6759 81.3189 40.0439 81.0615 40.4552 80.8941C40.8935 80.7189 41.3619 80.6316 41.8333 80.6374C42.4151 80.6374 42.8966 80.7229 43.2793 80.8941C43.6327 81.0498 43.973 81.233 44.2979 81.4419C44.4522 81.3685 44.5842 81.2565 44.6829 81.1169C44.9229 80.7958 44.8936 80.3433 44.6142 80.0557C44.4329 79.8527 44.2115 79.6895 43.9638 79.5765C43.642 79.4252 43.3033 79.3132 42.9545 79.2427C42.5178 79.1528 42.0733 79.1099 41.6281 79.1143C40.956 79.1101 40.2885 79.229 39.6597 79.4652C39.0532 79.6927 38.5022 80.0455 38.0424 80.5008C37.5593 80.9886 37.1835 81.5715 36.9382 82.2123C36.6642 82.8965 36.5277 83.6837 36.5277 84.5741C36.5277 85.4871 36.6612 86.2831 36.9297 86.9617C37.1704 87.5998 37.5477 88.1781 38.0339 88.6565C38.5022 89.1077 39.0632 89.4522 39.6774 89.6662C40.3325 89.8932 41.0216 90.0062 41.7145 90C42.3765 90 42.9236 89.9371 43.3573 89.8116C43.7176 89.7173 44.0633 89.5733 44.3843 89.3838C44.5525 89.2937 44.696 89.1644 44.8041 89.007C44.8882 88.8742 44.9329 88.7198 44.9322 88.5623C44.9352 88.378 44.8781 88.1978 44.7693 88.0488C44.6744 87.914 44.5556 87.798 44.4183 87.7068V87.7067ZM54.2255 87.7067C53.8937 87.9298 53.538 88.1134 53.1646 88.2539C52.6985 88.4233 52.2047 88.5046 51.7093 88.4936C50.6591 88.4936 49.815 88.1627 49.1761 87.5009C48.5372 86.8391 48.2177 85.8635 48.2177 84.5742C48.2077 83.999 48.2941 83.4261 48.4739 82.8796C48.6244 82.4248 48.8659 82.0055 49.1845 81.6473C49.4832 81.319 49.8512 81.0616 50.2625 80.8941C50.7008 80.7189 51.1684 80.6316 51.6406 80.6374C52.2224 80.6374 52.7039 80.7229 53.0866 80.8941C53.44 81.0499 53.7803 81.233 54.1052 81.4419C54.2595 81.3685 54.3914 81.2565 54.4902 81.1169C54.7302 80.7958 54.7009 80.3433 54.4215 80.0557C54.2402 79.8527 54.0187 79.6895 53.7711 79.5765C53.4493 79.4252 53.1105 79.3132 52.7618 79.2427C52.325 79.1528 51.8806 79.1099 51.4354 79.1143C50.7633 79.1101 50.0958 79.229 49.467 79.4652C48.8612 79.6926 48.3095 80.0455 47.8496 80.5008C47.3666 80.9885 46.9908 81.5714 46.7455 82.2123C46.4715 82.8965 46.335 83.6837 46.335 84.5741C46.335 85.4871 46.4692 86.2831 46.737 86.9617C46.9777 87.5998 47.355 88.1779 47.8412 88.6562C48.3095 89.1073 48.8697 89.4519 49.4839 89.6658C50.139 89.8929 50.8281 90.0058 51.521 89.9996C52.1823 89.9996 52.7301 89.9368 53.1638 89.8113C53.5241 89.7169 53.8698 89.5729 54.1908 89.3835C54.359 89.2933 54.5025 89.1641 54.6098 89.0067C54.6947 88.8739 54.7387 88.7195 54.7387 88.562C54.741 88.3778 54.6847 88.1975 54.5759 88.0485C54.4809 87.9139 54.3621 87.798 54.2248 87.7068L54.2255 87.7067ZM63.6208 88.2887H58.6917V85.1734H62.5598C62.7411 85.1826 62.9186 85.1141 63.0475 84.9853C63.1671 84.8599 63.2273 84.6659 63.2273 84.4033C63.2288 84.2641 63.208 84.1256 63.1671 83.9927C63.1377 83.8873 63.0884 83.7885 63.022 83.7015H58.6917V80.8605H63.0729C63.2581 80.869 63.4379 80.7935 63.5614 80.655C63.681 80.5181 63.7404 80.3242 63.7404 80.0731C63.7419 79.9339 63.7219 79.7954 63.681 79.6624C63.6509 79.5571 63.6015 79.4583 63.5351 79.3714H57.8699C57.6045 79.3596 57.3452 79.4553 57.1508 79.6366C56.964 79.8245 56.8645 80.0825 56.8776 80.3471V88.7848C56.8761 88.8029 56.876 88.821 56.876 88.8391C56.876 89.3549 57.3004 89.7793 57.8159 89.7793C57.8344 89.7793 57.8521 89.7787 57.8699 89.7777H63.1586C63.3422 89.7868 63.5205 89.7147 63.6463 89.5808C63.7659 89.4496 63.826 89.2526 63.826 88.9902C63.8276 88.8503 63.8044 88.7112 63.7574 88.5793C63.7234 88.4776 63.6771 88.38 63.6208 88.2887ZM69.9365 83.7016L68.9434 83.4106C68.3956 83.2511 68.002 83.0657 67.7628 82.8544C67.5244 82.646 67.3917 82.3408 67.4033 82.0243C67.3925 81.623 67.5861 81.2425 67.9172 81.0146C68.259 80.7638 68.7436 80.6382 69.3717 80.6378C69.891 80.6318 70.4087 80.71 70.9033 80.8693C71.3046 80.9927 71.6834 81.1805 72.0245 81.4254C72.1626 81.3324 72.2822 81.2132 72.3756 81.0746C72.4744 80.9251 72.5245 80.7489 72.5206 80.5697C72.516 80.3536 72.4265 80.1477 72.2722 79.9965C72.077 79.799 71.8439 79.6419 71.5878 79.5341C71.256 79.3909 70.9087 79.2876 70.5522 79.2262C70.1232 79.1494 69.688 79.1122 69.2521 79.1149C68.1108 79.1149 67.2065 79.3746 66.5391 79.8938C65.8716 80.413 65.5375 81.1233 65.5375 82.0245C65.5305 82.3835 65.5915 82.7407 65.7173 83.0771C65.833 83.3737 66.0113 83.642 66.2389 83.8642C66.485 84.0991 66.7651 84.2953 67.0699 84.446C67.4195 84.6215 67.7829 84.7676 68.1571 84.8826L69.4403 85.2761C70.0106 85.4474 70.4272 85.6584 70.6904 85.9093C70.9527 86.1601 71.0839 86.4911 71.0839 86.9022C71.0955 87.3423 70.9064 87.7648 70.57 88.0488C70.2282 88.3455 69.6973 88.4938 68.9781 88.4937C68.3169 88.4937 67.7489 88.3796 67.2752 88.1513C66.8693 87.967 66.4912 87.725 66.154 87.4328C65.9696 87.5144 65.8052 87.6374 65.6756 87.7922C65.5375 87.9542 65.4642 88.1616 65.4696 88.3742C65.475 88.6043 65.5668 88.8243 65.7265 88.9902C65.9318 89.2088 66.1795 89.3835 66.4542 89.5037C66.8122 89.6662 67.1887 89.7868 67.5746 89.8628C68.0476 89.9578 68.5298 90.0036 69.0121 89.9996C69.5823 90.0072 70.1502 89.9324 70.6981 89.7773C71.1502 89.6518 71.5723 89.4364 71.9388 89.1439C72.2645 88.8777 72.5245 88.5412 72.7004 88.1598C72.8802 87.765 72.9705 87.3356 72.9659 86.9021C72.9659 86.0463 72.7012 85.3701 72.1703 84.8735C71.6395 84.377 70.8948 83.9863 69.9365 83.7015V83.7016ZM81.2577 84.8739C80.7276 84.3776 79.983 83.9868 79.0246 83.7016L78.0316 83.4106C77.4837 83.2511 77.0902 83.0657 76.851 82.8544C76.6125 82.646 76.4806 82.3408 76.4914 82.0243C76.4814 81.623 76.6743 81.2426 77.0053 81.0146C77.3471 80.7638 77.8325 80.6382 78.4598 80.6378C78.9791 80.6318 79.4969 80.71 79.9915 80.8693C80.3927 80.9927 80.7716 81.1805 81.1126 81.4254C81.2515 81.3327 81.3703 81.2134 81.4629 81.0746C81.5625 80.9252 81.6134 80.7489 81.6088 80.5697C81.6042 80.3536 81.5154 80.1477 81.3611 79.9965C81.1651 79.799 80.9321 79.6419 80.6759 79.5341C80.3441 79.3909 79.9969 79.2876 79.6412 79.2262C79.2114 79.1494 78.7762 79.1122 78.3402 79.1149C77.199 79.1149 76.2946 79.3746 75.6272 79.8938C74.9597 80.413 74.6264 81.1233 74.6256 82.0245C74.6187 82.3835 74.6796 82.7408 74.8054 83.0771C74.9212 83.3737 75.0994 83.642 75.3278 83.8642C75.5732 84.0992 75.8533 84.2954 76.1581 84.4461C76.5076 84.6218 76.871 84.7678 77.2445 84.8827L78.5277 85.2763C79.0987 85.4476 79.5154 85.6586 79.777 85.9094C80.0393 86.1603 80.1713 86.4912 80.1713 86.9024C80.1836 87.3425 79.9946 87.765 79.6574 88.0489C79.3155 88.3457 78.7847 88.494 78.0655 88.4938C77.4042 88.4938 76.8363 88.3797 76.3633 88.1515C75.9567 87.967 75.5793 87.7251 75.2421 87.4329C75.057 87.5146 74.8926 87.6376 74.763 87.7924C74.6249 87.9544 74.5515 88.1617 74.5569 88.3743C74.5623 88.6045 74.6542 88.8245 74.8139 88.9904C75.0192 89.209 75.2668 89.3837 75.5415 89.5038C75.9003 89.6665 76.2761 89.7869 76.6627 89.8628C77.1357 89.9578 77.618 90.0036 78.1002 89.9996C78.6705 90.0072 79.2384 89.9324 79.7862 89.7773C80.2384 89.6517 80.6605 89.4363 81.027 89.1439C81.3518 88.8777 81.6126 88.5412 81.7886 88.1598C81.9684 87.7651 82.0594 87.3357 82.054 86.9021C82.0548 86.0466 81.7893 85.3705 81.2585 84.8738L81.2577 84.8739Z" fill="#1F212D"></path><path d="M83.4112 80.3942C83.4099 80.217 83.4429 80.0413 83.5082 79.8766C83.5703 79.7183 83.6638 79.5742 83.7831 79.4531C83.9052 79.3306 84.0498 79.2328 84.2089 79.1651C84.5623 79.0215 84.958 79.0215 85.3114 79.1651C85.4722 79.2329 85.6185 79.3308 85.7425 79.4536C85.8632 79.5746 85.9585 79.7186 86.0228 79.8771C86.155 80.2091 86.1557 80.5793 86.0247 80.9117C85.8936 81.2358 85.6368 81.4936 85.3131 81.6259C84.9592 81.766 84.5647 81.766 84.2108 81.6259C83.89 81.493 83.6368 81.235 83.5101 80.9117C83.4441 80.7472 83.4105 80.5714 83.4112 80.3942ZM83.7076 80.3942C83.7065 80.5405 83.7327 80.6859 83.7848 80.8227C83.8322 80.949 83.9047 81.0646 83.9978 81.1622C84.0918 81.2595 84.2053 81.336 84.3309 81.3867C84.6099 81.4945 84.9193 81.4945 85.1983 81.3867C85.3241 81.3362 85.438 81.26 85.5326 81.1629C85.6256 81.0652 85.6981 80.9497 85.7455 80.8234C85.8482 80.547 85.8482 80.2428 85.7455 79.9664C85.6981 79.8401 85.6256 79.7246 85.5326 79.6269C85.438 79.5298 85.3241 79.4536 85.1983 79.4031C84.9191 79.2953 84.6096 79.2953 84.3305 79.4031C84.2046 79.4535 84.0908 79.5297 83.9963 79.6269C83.9032 79.7246 83.8308 79.8401 83.7833 79.9664C83.732 80.1031 83.7065 80.2482 83.7079 80.3942H83.7076ZM84.6027 80.5397V80.9709C84.5564 80.9789 84.5095 80.9825 84.4625 80.9817C84.4271 80.9832 84.3918 80.9758 84.3601 80.9601C84.3343 80.9459 84.3215 80.9116 84.3215 80.8577V79.8605C84.3215 79.8093 84.3607 79.777 84.44 79.7634C84.4863 79.7533 84.533 79.7462 84.5802 79.7419C84.6233 79.7384 84.6699 79.7365 84.7204 79.7365C84.8628 79.7283 85.0043 79.7651 85.1246 79.8416C85.2867 79.9695 85.3175 80.2069 85.1931 80.3718C85.1421 80.432 85.0753 80.4768 85.0002 80.5012L85.3083 80.8785C85.2999 80.9098 85.2808 80.9372 85.2543 80.9557C85.2247 80.9775 85.1887 80.9889 85.1519 80.988C85.0786 80.9831 85.0121 80.9428 84.974 80.88L84.7425 80.5396L84.6027 80.5397ZM84.7752 80.3187C84.9114 80.3187 84.9799 80.256 84.9799 80.13C84.9816 80.0796 84.9572 80.0317 84.9154 80.0033C84.864 79.9705 84.8036 79.9546 84.7427 79.9575C84.717 79.9575 84.6927 79.9583 84.67 79.9602C84.6473 79.9621 84.6245 79.9648 84.6026 79.9683V80.3186L84.7752 80.3187Z" fill="#1F212D"></path><defs><linearGradient id="paint0_linear_2160_3302" x1="53.9843" y1="22.4621" x2="54.0603" y2="36.8327" gradientUnits="userSpaceOnUse"><stop stop-color="#56B14D"></stop><stop offset="0.54" stop-color="#4A9E41"></stop><stop offset="1" stop-color="#3E7F34"></stop></linearGradient><linearGradient id="paint1_linear_2160_3302" x1="54.0357" y1="36.8801" x2="54.0357" y2="63.6107" gradientUnits="userSpaceOnUse"><stop stop-color="#56B14D"></stop><stop offset="1" stop-color="#4A9E41"></stop></linearGradient><linearGradient id="paint2_linear_2160_3302" x1="54.0331" y1="57.8094" x2="54.0331" y2="42.2883" gradientUnits="userSpaceOnUse"><stop stop-color="#56B14D"></stop><stop offset="1" stop-color="#4A9E41"></stop></linearGradient><radialGradient id="paint3_radial_2160_3302" cx="0" cy="0" r="1" gradientUnits="userSpaceOnUse" gradientTransform="translate(54.058 63.9298) scale(18.9193 18.9193)"><stop stop-color="#3E7F34" stop-opacity="0.22"></stop><stop offset="1" stop-color="#3E7F34" stop-opacity="0"></stop></radialGradient></defs></svg> 