<svg width="91" height="16" viewBox="0 0 91 16" fill="none" xmlns="http://www.w3.org/2000/svg">
<path d="M24.8927 4C27.643 4 30.095 5.48638 30.3507 8.48073H26.8327C26.8116 7.51892 25.9803 6.84176 25.0637 6.84176C23.0384 6.84176 22.718 8.61227 22.718 10.1855C22.718 11.6503 23.3367 13.1582 24.8716 13.1582C26.1292 13.1582 26.769 12.4153 26.9395 11.213H30.4575C30.1376 14.2511 27.835 16 24.8927 16C21.5672 16 19.0942 13.6607 19.0942 10.1855C19.0942 6.57921 21.3325 4 24.8927 4ZM54.9143 4C57.5566 4 60.113 4.58983 60.113 7.80339V12.7649C60.113 13.7269 60.113 14.7762 60.5425 15.672H56.8695C56.7402 15.3224 56.6978 14.9723 56.6543 14.6011C55.7096 15.6063 54.3131 16 52.9814 16C50.8549 16 49.1791 14.9071 49.1791 12.5683C49.1791 8.87423 53.1314 9.1581 55.6666 8.63399C56.2896 8.50256 56.6331 8.28387 56.6331 7.5847C56.6331 6.73203 55.6237 6.40452 54.8714 6.40452C53.862 6.40452 53.2178 6.86293 53.0455 7.82494H49.6303C49.6342 7.73583 49.6403 7.64861 49.6486 7.56323C49.2146 7.44466 48.8122 7.3678 48.3536 7.3678C46.565 7.3678 45.6279 8.64196 45.6279 10.0693V15.7143H42.0072V4.31499L45.5212 4.31499V6.3134H45.5638C46.0962 4.86385 47.3313 4.09524 48.886 4.09524C49.163 4.09524 49.461 4.1169 49.738 4.18293L49.7381 7.0085C49.9766 5.97514 50.5762 5.2609 51.3702 4.78696C52.3585 4.21869 53.6473 4 54.9143 4ZM71.8127 0V15.6705H68.3413V14.3536H68.2985C67.5914 15.429 66.5199 16 65.2343 16C61.7412 16 60.263 12.9275 60.263 9.72263C60.263 6.75976 61.8057 3.95084 64.9556 3.95084C66.3274 3.95084 67.3772 4.47751 68.1271 5.50872H68.1699V0L71.8127 0ZM77.5482 4C80.1906 4 82.7466 4.58983 82.7466 7.80339L82.7467 12.926C82.7479 13.843 82.7705 14.826 83.176 15.672H79.503C79.3741 15.3224 79.3312 14.9723 79.2882 14.6011C78.3429 15.6063 76.9464 16 75.6146 16C73.4881 16 71.8127 14.9071 71.8127 12.5683C71.8127 8.87423 75.7652 9.1581 78.3 8.63399C78.9229 8.50256 79.2665 8.28387 79.2665 7.5847C79.2665 6.73203 78.257 6.40452 77.5052 6.40452C76.4958 6.40452 75.8511 6.86293 75.6793 7.82494H72.2634C72.328 6.33881 73.0157 5.37679 74.0039 4.78696C74.9917 4.21869 76.281 4 77.5482 4ZM13.0849 4C17.0744 4 19.0692 7.03547 18.8977 10.8523H10.7253C10.7899 12.3919 11.6692 13.4109 13.2135 13.4109C14.0928 13.4109 14.951 12.9992 15.2941 12.1747H18.705C18.0395 14.7769 15.6588 15.9048 13.1706 15.9048C9.5453 15.9048 7.07882 13.6927 7.07882 9.91952C7.07882 6.47181 9.8031 4 13.0849 4ZM5.48243 0.857143V4.3044H7.73081V6.71938H5.48243V11.9014C5.48243 12.8015 5.99617 12.9992 6.78896 12.9992C7.08864 12.9992 7.40946 12.9553 7.73081 12.9553V15.6996C7.06697 15.7218 6.40314 15.8095 5.7393 15.8095C2.63419 15.8095 1.84192 14.8872 1.84192 11.7914L1.84192 6.71938H0L0 4.3044H1.84192V0.857143L5.48243 0.857143ZM90.148 4.09524C90.425 4.09524 90.723 4.1169 91 4.18293V7.58755C90.5312 7.45549 90.1055 7.3678 89.6156 7.3678C87.827 7.3678 86.8899 8.64196 86.8899 10.0693V15.7143L83.2692 15.7143V4.31499H86.7832V6.3134H86.8258C87.3582 4.86385 88.5933 4.09524 90.148 4.09524ZM34.1957 0V5.81896H34.2381C34.7958 4.65938 36.2963 3.93741 37.6255 3.93741C41.3346 3.93741 41.6346 6.69418 41.6346 8.33455V15.619H37.99L37.9902 10.0464C37.9954 8.52042 38.1265 7.00013 36.1678 7.00013C34.7958 7.00013 34.1957 8.1813 34.1957 9.4283V15.619H30.5507V0L34.1957 0ZM91 12V15.619H87.4606V12H91ZM56.5902 10.3604C56.0743 10.6884 55.1296 10.7541 54.3344 10.9723C53.5184 11.1694 52.8308 11.519 52.8308 12.4153C52.8308 13.3332 53.5402 13.7048 54.3561 13.7048C56.0961 13.7048 56.676 12.6992 56.5902 10.3604ZM79.2236 10.3604C78.7082 10.6884 77.7629 10.7541 76.9682 10.9723C76.1517 11.1694 75.4646 11.519 75.4646 12.4153C75.4646 13.3332 76.1734 13.7048 76.9894 13.7048C78.7294 13.7048 79.3094 12.6992 79.2236 10.3604ZM66.1344 6.80352C64.4627 6.80352 63.9058 8.40568 63.9058 9.85443C63.9058 11.4128 64.4627 13.1468 66.1344 13.1468C67.9129 13.1468 68.2985 11.4128 68.2985 9.96409C68.2985 8.31817 67.7199 6.80352 66.1344 6.80352ZM13.0849 6.4939C11.7979 6.4939 10.9397 7.42615 10.7253 8.79219H15.2512C15.1871 7.53446 14.3073 6.4939 13.0849 6.4939Z" fill="#2E6B8C"/>
</svg>
