<svg xmlns="http://www.w3.org/2000/svg" width="240" height="52" viewBox="0 0 153 33">
    <g fill="none" fill-rule="evenodd">
        <path fill="#FFFFFF" d="M151.028072 14.0244002C149.833335 14.0244002 148.874402 13.0593645 148.874402 11.8668002 148.874402 10.6820816 149.833335 9.70920013 151.028072 9.70920013 152.222809 9.70920013 153.189602 10.6820816 153.189602 11.8668002 153.189602 13.0593645 152.222809 14.0244002 151.028072 14.0244002zM151.028072 10.101491C150.061278 10.101491 149.283128 10.8860729 149.283128 11.8668002 149.283128 12.8475274 150.061278 13.6321093 151.028072 13.6321093 151.987005 13.6321093 152.780876 12.8475274 152.780876 11.8668002 152.780876 10.8860729 151.987005 10.101491 151.028072 10.101491zM150.705807 12.2120162L150.705807 13.0985936 150.1949 13.0985936 150.1949 10.6350067 151.169554 10.6350067C151.649021 10.6350067 152.049886 10.8860729 152.049886 11.4117427 152.049886 11.7804962 151.853383 12.0080249 151.57828 12.1178663L152.089187 13.0985936 151.531119 13.0985936 151.083093 12.2120162 150.705807 12.2120162zM151.531119 11.4274343C151.531119 11.184214 151.326756 11.1214474 151.130253 11.1214474L150.705807 11.1214474 150.705807 11.7334212 151.138113 11.7334212C151.326756 11.7334212 151.531119 11.6549631 151.531119 11.4274343zM63.843384 25.8912003L56.4643919 14.8227122 56.4643919 25.8912003 53.1848399 25.8912003 53.1848399 9.84189253 56.9768219 9.84189253 63.94587 20.3159619 63.94587 9.84189253 67.2254221 9.84189253 67.2254221 25.8912003 63.843384 25.8912003zM69.1791297 20.4389451C69.1791297 17.1798902 71.8642629 14.699729 75.1848094 14.699729 78.4848586 14.699729 81.1289975 17.1183986 81.1289975 20.3774535 81.1289975 23.6775027 78.4438642 26.1371667 75.143815 26.1371667 71.8232685 26.1371667 69.1791297 23.7389943 69.1791297 20.4389451zM72.4586818 20.3979507C72.4586818 22.0582239 73.6680166 23.2060671 75.1643122 23.2060671 76.6606078 23.2060671 77.8494454 22.0582239 77.8494454 20.3979507 77.8494454 18.7581746 76.6401106 17.6103314 75.143815 17.6103314 73.6475194 17.6103314 72.4586818 18.7581746 72.4586818 20.3979507zM88.9686339 14.9456954L88.9686339 18.081767C88.5381927 17.9997782 88.0872543 17.9997782 87.9437738 17.9997782 86.4064838 17.9997782 85.3406294 19.0656327 85.3406294 21.0948555L85.3406294 25.8912003 82.2045578 25.8912003 82.2045578 14.9456954 85.2381434 14.9456954 85.2381434 16.544477 85.2791378 16.544477C85.8735566 15.2941478 86.9804054 14.8227122 88.1077515 14.8227122 88.3537179 14.8227122 88.7431647 14.8842038 88.9686339 14.9456954zM98.2042441 25.8912003L98.2042441 24.4973907 98.1632497 24.4973907C97.1383897 25.9936863 95.4986137 26.0961723 94.7607144 26.0961723 91.5836484 26.0961723 89.5544256 23.3495475 89.5544256 20.3979507 89.5544256 17.6308286 91.6656372 14.7407234 94.8017088 14.7407234 95.4371221 14.7407234 96.9539149 14.8637066 98.0812609 16.1960246L98.1222553 16.1960246 98.1222553 9.20647932 101.299321 9.20647932 101.299321 25.8912003 98.2042441 25.8912003zM98.2042441 20.3979507C98.2042441 18.7581746 96.9949093 17.6308286 95.4986137 17.6308286 94.002318 17.6308286 92.7929832 18.7581746 92.7929832 20.3979507 92.7929832 22.0582239 94.002318 23.2060671 95.4986137 23.2060671 96.9949093 23.2060671 98.2042441 22.0582239 98.2042441 20.3979507zM108.094683 25.8912003L102.293975 9.84189253 105.880985 9.84189253 110.041917 22.0377267 114.223346 9.84189253 117.748864 9.84189253 111.927659 25.8912003 108.094683 25.8912003zM130.816369 14.9866898C130.816369 18.5327054 128.31571 20.2339731 124.954169 20.2339731L122.433014 20.2339731 122.433014 25.8912003 119.112467 25.8912003 119.112467 9.84189253 125.077152 9.84189253C128.295213 9.84189253 130.816369 11.5841546 130.816369 14.9866898zM127.475325 15.0686786C127.475325 13.5108914 126.163504 12.9779642 124.790192 12.9779642L122.433014 12.9779642 122.433014 17.1388958 124.810689 17.1388958C126.12251 17.1388958 127.475325 16.5649742 127.475325 15.0686786zM143.145974 25.8912003L135.766982 14.8227122 135.766982 25.8912003 132.48743 25.8912003 132.48743 9.84189253 136.279412 9.84189253 143.24846 20.3159619 143.24846 9.84189253 146.528012 9.84189253 146.528012 25.8912003 143.145974 25.8912003z" />
        <path fill="#FFFFFF" d="M4.00281829,33.4428004 C1.48492998,29.9689059 0,25.6946052 0,21.0727811 C0,9.43460548 9.4156213,0 21.0303788,0 C32.6451363,0 42.0607576,9.43460548 42.0607576,21.0727811 C42.0607576,25.694575 40.5758469,29.9688502 38.0579885,33.4427326 L27.957123,17.007006 L26.9817027,18.6572265 L27.9713441,23.2467664 L21.0303788,11.3468822 L16.7366878,18.6109675 L17.736304,23.2467664 L14.0980724,17.0164161 L4.00281829,33.4428004 Z" />
    </g>
</svg>