<?xml version="1.0" encoding="UTF-8"?> <!-- Generator: Adobe Illustrator 24.2.0, SVG Export Plug-In . SVG Version: 6.00 Build 0) --> <svg xmlns="http://www.w3.org/2000/svg" xmlns:xlink="http://www.w3.org/1999/xlink" version="1.1" id="Layer_1" x="0px" y="0px" viewBox="0 0 400 400" style="enable-background:new 0 0 400 400;" xml:space="preserve"> <style type="text/css"> .st0{fill:#9C56B8;} .st1{fill:#FFFFFF;} .st2{fill:#F7F1DA;} .st3{fill:#EBDBDC;} .st4{fill:#634C72;} .st5{fill:#DED6E3;} .st6{fill:#9C57B8;} </style> <path class="st0" d="M196,73c11,2.2,22,4.8,33,7c3.3,0.7,6.9,1.6,9.9,3.2c4.7,2.6,8.2,7.2,9.8,12.3c1.2,3.9,0.8,8.5,0.9,12.5 c0,10-0.1,20.1,0,30.1c8.5,3,15.2,10,16.2,19.2c4.7,2,9.2,3.3,13.1,6.7c9.5,7.7,14.4,20.4,12,32.5c-2.4,10.1-11.6,18.2-20.3,23 c-15.5,8.5-34.2,12.3-51.6,14.7c-9.7,1.4-19.3,1.1-29,2c-6.7-0.2-13.3-0.8-20-0.8c-18.9-1.6-38.6-4.8-56.1-12.3 c-9.8-4.4-20.2-10.8-25.2-20.7c-3.2-5.3-2.7-12.6-2.2-18.5c1.4-7.9,6.4-16,12.8-20.7c3.7-2.8,7.7-4.1,12-5.8 c1.5-9.4,8-17.3,17.4-19.4c0.3-2,0.5-4.1,0.5-6.1c-0.1-10.3,0-20.7,0-31c-0.2-6.9,3.9-13.6,9.6-17.3c5-3.2,11.6-3.7,17.3-5 c6.1-1.5,12.3-2.6,18.4-4C181.7,72.9,188.6,71.4,196,73z"></path> <path class="st1" d="M185,80.6c5.6-1,10.6,0.3,16,1.6c10,2,20.1,4.3,30.1,6.5c6.2,1.2,10.8,7,10.5,13.2c0,12.7,0,25.3,0,38 c0.2,10.7-1.5,22.4-7,31.8c-8.6,15.6-22.9,26.6-38.7,34.3c-4.4,2.2-10.1,1.9-14.4-0.5c-7.1-3.6-13.9-7.9-20.1-13 c-10.8-8.7-19.6-21-22.8-34.6c-1.4-5.3-1.2-10.6-1.2-16c-0.3-13.3-0.1-26.7-0.2-40c-0.1-3.4,0.4-6.4,2.8-8.9 c2.6-3.3,6.2-4.2,10.1-5.1C161.8,85.6,173.4,83,185,80.6z"></path> <path class="st2" d="M186,87.9c4.2-0.9,7.9,0.3,11.9,1.2c9.3,2,18.7,4.1,28.1,5.9c2.4,0.7,6.2,0.9,7.3,3.6 c-0.5,10.5-0.2,20.9-0.3,31.4c0.1,7.3-0.5,14.3,0.6,21.5c-0.4,6-2.3,11.6-5.2,16.9c-7.1,13-20,23.3-32.9,30.2 c-3.4,1.8-7.1,2.4-10.7,0.7c-6.6-3.1-12.7-7.2-18.3-11.7c-9.1-7.3-17.1-17.4-20.3-28.8c-1.8-5.6-1.6-11-1.6-16.8c0-13,0-26,0-39 c0.2-2.1,0-5.1,2.2-6.2c3.2-1.5,6.9-1.9,10.3-2.7C166.8,92.2,176.4,89.9,186,87.9z"></path> <path class="st3" d="M233.2,98.6c1.1,2.4,1.2,4.8,1.2,7.4c-0.1,9,0,18-0.1,27c-0.1,6.3,0.5,12.3-0.8,18.5 c-1.1-7.2-0.5-14.2-0.6-21.5C233.1,119.5,232.8,109.1,233.2,98.6z"></path> <path class="st4" d="M198.4,118.6c5.3,3.9,6.8,11.2,4.5,17.2c-1.1,2.8-3.2,4.6-5.3,6.7c-0.1,5.5,0.2,11.1-0.1,16.6 c-0.2,3.3-2.9,6.6-6.5,6.5c-4.3,0.4-7.4-3.6-7.4-7.6c-0.1-5.1,0-10.2,0-15.3c-2.4-2.5-5.5-5.3-6.2-8.8c-0.7-4.3-0.4-8.6,2.3-12.2 C183.8,115.7,192.6,114.3,198.4,118.6z"></path> <path class="st4" d="M129.3,141.9c-0.4,3-1,6-1.6,9.1c-0.8,4.3,0.5,9.2,1.2,13.4c-4.1-2.5-8.3-3.8-13-4.7c0.6-3.9,1.6-7.6,4-10.7 C122.4,145.7,125.7,143.6,129.3,141.9z"></path> <path class="st4" d="M249.7,142.8c6.7,3.7,10.2,9.2,11.9,16.5c-4.7,1.5-9.4,2.5-13.6,5.2C250.3,157.3,249.4,150.2,249.7,142.8z"></path> <path class="st5" d="M147,250c12.7-0.3,25.3-0.4,38-0.5c14.6,0.3,29.4,0.1,44,1c14.2,0.6,28.5,1.3,42.6,3.1 c4.1,0.7,9.1,1.2,12.5,3.6c-0.3,2.3-4,2.7-5.8,3.3c-10.6,2.1-21.5,2.8-32.3,3.7c-6.3,0.5-12.7,0.1-19,0.8c-6.4,0.6-12.6,0.4-19,0.5 c-20,0.2-40,0.1-60-0.1c-4,0-8-0.5-12-0.7c-13.7-0.2-27.5-1.3-41.1-3.2c-3.7-0.6-7.9-1.1-10.9-3.5l0.6-1.4c3.3-1.8,7.5-2.2,11.2-2.9 C112.5,251.3,130.2,250.9,147,250z"></path> <path class="st0" d="M19.3,280.5c6.2-0.2,12.5,0,18.7-0.1c4.4-0.1,8.5,0.7,11.7,3.9c4,3.9,4.5,9.4,3.4,14.7c-1.4,4.9-5.9,8.8-11,9.3 c-5.6,0.5-11.2,0.2-16.8,0.2c-0.9,6-0.3,12.3-0.4,18.4c-1.9,0-3.7,0-5.6,0C19.3,311.4,19,295.9,19.3,280.5z"></path> <path class="st6" d="M96,280.4c1.8,0,3.7,0,5.6,0.1c0,2.3,0,4.6,0,6.9c-1.9,0-3.7,0-5.6,0C96,285.1,96,282.8,96,280.4z"></path> <path class="st4" d="M297.1,280.4c-1.5,7-4.4,13.7-6.4,20.5c-2.9,8.6-5.7,17.3-8.6,25.9c-3.1,0-6.3,0.3-9.4-0.3 c-4.6-12.9-8.6-26.1-13.1-39.1c-0.8-2.3-1.3-4.7-1.8-7.1c3.1-0.1,6.2,0,9.3,0.2c0.8,3.8,1.9,7.5,3.1,11.2c2.4,7.9,4.6,15.8,7,23.6 c4-11.4,6.9-23.3,10.5-34.8C290.9,280.3,294,280.4,297.1,280.4z"></path> <path class="st4" d="M301.8,280.4c6.1,0.1,12.1,0,18.2,0c3.6,0,7.2,0.3,10.4,2.3c8.3,5.4,8.4,20.4-0.4,25.3 c-5.4,3.6-13.1,1.9-19.4,2.4c0,5.5,0,11,0,16.5c-2.9,0-5.9,0-8.8,0C301.8,311.4,301.7,295.9,301.8,280.4z"></path> <path class="st4" d="M342.6,280.5c3.5-0.3,7.1-0.1,10.6,0c6,10.8,12.4,21.4,18.2,32.2c0.7-10.7,0.1-21.5,0.3-32.3c3-0.1,6-0.1,9.1,0 c0,15.5,0,31,0,46.4c-3.6,0-7.2,0-10.9-0.1c-6-10.9-12.4-21.6-18.4-32.5c-0.2,10.9,0,21.7-0.1,32.6c-3,0-6,0.1-9,0.1 C342.6,311.4,342.3,295.9,342.6,280.5z"></path> <path class="st0" d="M191.2,285.4c0.3,2.3,0.2,4.6,0.2,7c7.6,0,15.3-0.1,23,0.1c0,1.7,0.1,3.4,0.1,5.1c-7.7,0.4-15.4,0.1-23.1,0.2 c0.1,6.1-0.4,12.3,0.3,18.4c1.6,6,9.2,7.2,13.8,4.2c3.4-2.8,3.2-6.2,3.2-10.3c1.9-0.2,3.8-0.3,5.7-0.4c0.2,4.1,0.2,8-2.1,11.6 c-4.7,7.7-16.6,8.5-22.8,2.3c-2.7-2.8-4.1-6.6-4-10.5c0.1-9.4-0.2-18.9,0.2-28.3C187.2,284.9,190.1,284.1,191.2,285.4z"></path> <path class="st1" d="M24.9,286.2c5.8,0.2,11.8-0.3,17.6,0.3c4.4,1.3,5.7,5.2,5.2,9.5c-0.1,3.8-3.2,6.3-6.7,6.8 c-5.4,0.5-10.9,0.2-16.3,0.1C24.8,297.3,24.6,291.8,24.9,286.2z"></path> <path class="st1" d="M310.6,288.5c5.4,0.1,10.4-0.7,15.6,1.4c1.6,3.4,2.8,8.9-1.1,11.3c-4.2,1.9-9.9,0.8-14.5,1.1 C310.5,297.7,310.5,293.1,310.6,288.5z"></path> <path class="st0" d="M65.7,292.4c0.1,1.1,0.1,2.2,0.2,3.3c2.5-1.8,4.8-3.9,8.1-4.1c5.4-0.6,11,1.8,13.4,6.9c1.7,3.2,1.4,6.4,1.5,9.9 c-1.8,0-3.5,0-5.3,0c-0.4-3.1-0.4-6.7-2.7-9.1c-3.5-3.5-9.7-3.1-12.8,0.8c-2.1,2.3-2,5.1-2.1,8c0,6.3,0.1,12.6,0,18.9 c-1.8,0-3.7,0-5.5,0c0-11.4-0.1-22.9,0.1-34.4C62.2,292.4,63.9,292.4,65.7,292.4z"></path> <path class="st0" d="M96,292.4c1.9,0,3.7,0,5.6,0c0,11.5,0,22.9,0,34.4c-1.9,0-3.8,0-5.6,0C96,315.4,96,303.9,96,292.4z"></path> <path class="st0" d="M107.4,292.6c2-0.1,4-0.1,6-0.1c3.3,9.1,6.5,18.2,9.5,27.3c3.1-9.1,6.3-18.2,9.5-27.3c1.9,0,3.9,0,5.8,0.1 c-3.6,11.6-8.3,22.9-12.3,34.4c-2.1,0-4.1,0-6.2-0.1C115.8,315.3,111.3,304,107.4,292.6z"></path> <path class="st0" d="M163,292.1c2.7,1,5.2,3.3,7.4,5.1c0-1.6,0-3.2,0-4.8c1.8,0,3.6,0,5.4,0c0,11.5,0,23,0,34.5c-1.8,0-3.6,0-5.4,0 c0-1.7,0-3.4,0-5.1c-2.3,2.1-4.4,4.2-7.5,5.2c-5.6,1.7-12,0.3-16.1-3.9c-7-6.8-7.5-18.9-0.9-26.1C150.2,292.2,156.9,290.2,163,292.1 z"></path> <path class="st0" d="M239.9,291.6c5.7,0.9,11,4.8,13.3,10.2c1.5,3,1.6,6.1,2,9.4c-9.8,0.2-19.6-0.2-29.3,0.2c1,2.6,1.6,5,3.5,7.1 c3.2,3.4,8.1,5,12.5,3.4c3-1,4.6-3.3,6.5-5.6c2,0,3.9,0,5.9,0c-1.2,2.5-2.2,4.9-4.2,6.9c-5,5.1-13.8,5.7-20,2.6 c-8.2-4-11.8-14.6-8.3-22.9C224.6,295.7,232.1,290.6,239.9,291.6z"></path> <path class="st1" d="M155.4,297.5c3.2-0.6,6.7-0.5,9.4,1.5c5,3.6,6.9,10.4,4.2,15.9c-2.3,5-8.4,8.7-13.8,6.6 c-5.4-1.6-8.4-7.2-8.1-12.6C147.3,303.9,150.4,299,155.4,297.5z"></path> <path class="st1" d="M240.8,297.2c4.3,1.4,6.6,4.7,8.3,8.6c-7.5,0.4-14.9,0.2-22.4,0.2C228.1,299.9,234.5,295.4,240.8,297.2z"></path> </svg> 