<?xml version="1.0" encoding="UTF-8"?>
<svg width="12px" height="8px" viewBox="0 0 12 8" version="1.1" xmlns="http://www.w3.org/2000/svg" xmlns:xlink="http://www.w3.org/1999/xlink">
    <!-- Generator: Sketch 57.1 (83088) - https://sketch.com -->
    <title>privacy</title>
    <desc>Created with Sketch.</desc>
    <g id="Page-1" stroke="none" stroke-width="1" fill="none" fill-rule="evenodd">
        <g id="privacy" transform="translate(0.000000, -2.000000)">
            <rect x="0.0784719101" y="0" width="11.8651685" height="11.8651685"></rect>
            <path d="M5.11375281,7.29492135 L7.59141573,4.81725843 L9.4508764,2.95766292 C9.61725843,2.79141573 9.61725843,2.52161798 9.4508764,2.35537079 C9.28462921,2.18898876 9.01483146,2.18898876 8.84858427,2.35537079 L2.05644944,9.14750562 C1.89006742,9.31375281 1.89006742,9.58355056 2.05644944,9.74979775 C2.13964045,9.83298876 2.24858427,9.87465169 2.35766292,9.87465169 C2.46660674,9.87465169 2.57568539,9.83298876 2.65874157,9.74979775 L3.76597753,8.64269663 L5.11375281,7.29492135 Z M8.93689888,3.84094382 L7.73379775,5.04404494 C7.8938427,5.34 7.9847191,5.67883146 7.9847191,6.03883146 C7.9847191,7.19514607 7.04737079,8.13249438 5.89105618,8.13249438 C5.53105618,8.13249438 5.19222472,8.04161798 4.89640449,7.8814382 L4.04062921,8.73721348 C4.62296629,8.92476404 5.24494382,9.04152809 5.89105618,9.04152809 C8.33204494,9.04152809 10.4286742,7.37501124 11.339191,6.52503371 C11.472,6.39923596 11.5477753,6.22476404 11.5492806,6.04193258 C11.5507416,5.85896629 11.4777978,5.68341573 11.3471461,5.55546067 C10.850427,5.09568539 10.0020674,4.38876404 8.93689888,3.84094382 Z M3.96768539,6.86696629 C3.85820225,6.61294382 3.79739326,6.33303371 3.79739326,6.03883146 C3.79739326,4.88251685 4.73474157,3.94516854 5.89105618,3.94516854 C6.18525843,3.94516854 6.46516854,4.00597753 6.71919101,4.11546067 L7.55217978,3.28247191 C7.0251236,3.12916854 6.46773034,3.03613483 5.89105618,3.03613483 C3.45033708,3.03613483 1.3538427,4.70238202 0.443191011,5.55235955 C0.310382022,5.67829213 0.234606742,5.85276404 0.233101452,6.03559551 C0.231640449,6.2185618 0.304719101,6.39424719 0.435370787,6.52220225 C0.906606742,6.95851685 1.6941573,7.61716854 2.6832809,8.15137079 L3.96768539,6.86696629 L3.96768539,6.86696629 Z M5.89105618,7.51591011 C6.70678652,7.51591011 7.36813483,6.8545618 7.36813483,6.03883146 C7.36813483,5.85168539 7.33321348,5.67276404 7.2698427,5.508 L5.36022472,7.41748315 C5.52498876,7.48098876 5.70391011,7.51591011 5.89105618,7.51591011 L5.89105618,7.51591011 Z M5.89105618,4.71883146 C5.95793258,4.71883146 6.02197753,4.73123596 6.08103371,4.75361798 L6.23298876,4.60166292 C6.12323596,4.57564045 6.00876404,4.56175281 5.89105618,4.56175281 C5.07532584,4.56175281 4.41397753,5.22310112 4.41397753,6.03883146 C4.41397753,6.15653933 4.42786517,6.27101124 4.45388764,6.38076404 L5.39069663,5.44395506 C5.36817978,5.38503371 5.35591011,5.32098876 5.35591011,5.25411236 C5.35591011,4.95842697 5.59550562,4.71883146 5.89105618,4.71883146 Z" id="Shape" fill="#90A4AE"></path>
        </g>
    </g>
</svg>