<?xml version="1.0" encoding="UTF-8" standalone="no"?><!DOCTYPE svg PUBLIC "-//W3C//DTD SVG 1.1//EN" "http://www.w3.org/Graphics/SVG/1.1/DTD/svg11.dtd"><svg width="100%" height="100%" viewBox="0 0 89 88" version="1.1" xmlns="http://www.w3.org/2000/svg" xmlns:xlink="http://www.w3.org/1999/xlink" xml:space="preserve" xmlns:serif="http://www.serif.com/" style="fill-rule:evenodd;clip-rule:evenodd;stroke-linejoin:round;stroke-miterlimit:2;"><rect id="privacy" x="0.582" y="0" width="88" height="88" style="fill:none;"/><path d="M38.817,53.214l18.376,-18.376l13.791,-13.792c1.234,-1.233 1.234,-3.234 0,-4.467c-1.233,-1.234 -3.234,-1.234 -4.467,-0l-50.375,50.375c-1.234,1.233 -1.234,3.234 -0,4.467c0.617,0.617 1.425,0.926 2.234,0.926c0.808,-0 1.617,-0.309 2.233,-0.926l8.212,-8.211l9.996,-9.996Zm28.355,-25.617l-8.923,8.923c1.187,2.195 1.861,4.708 1.861,7.378c0,8.576 -6.952,15.528 -15.528,15.528c-2.67,-0 -5.183,-0.674 -7.377,-1.862l-6.347,6.347c4.319,1.391 8.932,2.257 13.724,2.257c18.104,0 33.654,-12.36 40.407,-18.664c0.985,-0.933 1.547,-2.227 1.558,-3.583c0.011,-1.357 -0.53,-2.659 -1.499,-3.608c-3.684,-3.41 -9.976,-8.653 -17.876,-12.716Zm-36.855,22.443c-0.812,-1.884 -1.263,-3.96 -1.263,-6.142c0,-8.576 6.952,-15.528 15.528,-15.528c2.182,0 4.258,0.451 6.142,1.263l6.178,-6.178c-3.909,-1.137 -8.043,-1.827 -12.32,-1.827c-18.102,-0 -33.651,12.358 -40.405,18.662c-0.985,0.934 -1.547,2.228 -1.558,3.584c-0.011,1.357 0.531,2.66 1.5,3.609c3.495,3.236 9.336,8.121 16.672,12.083l9.526,-9.526Zm14.265,4.813c6.05,-0 10.955,-4.905 10.955,-10.955c-0,-1.388 -0.259,-2.715 -0.729,-3.937l-14.163,14.162c1.222,0.471 2.549,0.73 3.937,0.73Zm0,-20.745c0.496,0 0.971,0.092 1.409,0.258l1.127,-1.127c-0.814,-0.193 -1.663,-0.296 -2.536,-0.296c-6.05,0 -10.955,4.905 -10.955,10.955c0,0.873 0.103,1.722 0.296,2.536l6.948,-6.948c-0.167,-0.437 -0.258,-0.912 -0.258,-1.408c-0,-2.193 1.777,-3.97 3.969,-3.97Z" style="fill:url(#_Linear1);"/><defs><linearGradient id="_Linear1" x1="0" y1="0" x2="1" y2="0" gradientUnits="userSpaceOnUse" gradientTransform="matrix(4.81676e-15,44.4852,-78.6637,2.72393e-15,57.0414,15.6534)"><stop offset="0" style="stop-color:#3fd6d3;stop-opacity:1"/><stop offset="1" style="stop-color:#33b0b5;stop-opacity:1"/></linearGradient></defs></svg>