<svg width="12" height="12" viewBox="0 0 12 12" fill="none" xmlns="http://www.w3.org/2000/svg">
<path d="M11.8207 9.36623C12.0521 9.59811 12.0521 10.0155 11.8207 10.2474L10.2458 11.8261C10.0144 12.058 9.59793 12.058 9.36654 11.8261L6.00147 8.46024L2.63062 11.8203C2.39924 12.0522 1.98274 12.0522 1.75136 11.8203L0.182134 10.2472C-0.0492514 10.0154 -0.0492514 9.59798 0.182134 9.3661L3.5388 6.00284L0.173548 2.63684C-0.0578376 2.40497 -0.0578376 1.98759 0.173548 1.75571L1.75142 0.173984C1.98281 -0.0578931 2.3993 -0.0578931 2.63069 0.173984L6.00147 3.54544L9.37224 0.173908C9.60363 -0.0579692 10.0201 -0.0579692 10.2515 0.173908L11.8265 1.75276C12.0578 1.98464 12.0578 2.40202 11.8265 2.63389L8.45245 5.99716L11.8207 9.36623Z" fill="#EF0000"/>
</svg>
