<svg width="32" height="32" viewBox="0 0 32 32" fill="none" xmlns="http://www.w3.org/2000/svg">
    <path d="M6.66651 14.6682H22.4798L17.6398 8.85484C17.4135 8.58255 17.3046 8.23151 17.3371 7.87894C17.3696 7.52637 17.5409 7.20116 17.8132 6.97484C18.0855 6.74852 18.4365 6.63964 18.7891 6.67215C19.1416 6.70465 19.4669 6.87588 19.6932 7.14817L26.3598 15.1482C26.4047 15.2118 26.4448 15.2787 26.4798 15.3482C26.4798 15.4148 26.4798 15.4548 26.5732 15.5215C26.6336 15.6744 26.6652 15.8371 26.6665 16.0015C26.6652 16.1659 26.6336 16.3286 26.5732 16.4815C26.5732 16.5482 26.5732 16.5882 26.4798 16.6548C26.4448 16.7244 26.4047 16.7912 26.3598 16.8548L19.6932 24.8548C19.5678 25.0054 19.4108 25.1264 19.2334 25.2094C19.0559 25.2923 18.8624 25.3352 18.6665 25.3348C18.355 25.3355 18.0531 25.227 17.8132 25.0282C17.6782 24.9162 17.5666 24.7788 17.4848 24.6236C17.403 24.4685 17.3526 24.2988 17.3365 24.1241C17.3204 23.9495 17.3389 23.7734 17.3909 23.6059C17.443 23.4385 17.5276 23.2829 17.6398 23.1482L22.4798 17.3348H6.66651C6.31288 17.3348 5.97374 17.1944 5.7237 16.9443C5.47365 16.6943 5.33317 16.3551 5.33317 16.0015C5.33317 15.6479 5.47365 15.3087 5.7237 15.0587C5.97374 14.8087 6.31288 14.6682 6.66651 14.6682Z" fill="white"/>
</svg>
