<svg width="129" height="38" viewBox="0 0 129 38" fill="none" xmlns="http://www.w3.org/2000/svg">
<path d="M120.826 11.7507C120.826 13.8327 122.49 15.5456 124.561 15.5456C126.631 15.5456 128.316 13.8327 128.316 11.7507C128.316 9.65838 126.631 7.94556 124.561 7.94556C122.49 7.94556 120.826 9.65838 120.826 11.7507ZM121.689 11.7507C121.689 10.0686 122.947 8.75581 124.561 8.75581C126.174 8.75581 127.433 10.0686 127.433 11.7507C127.433 13.4225 126.174 14.7353 124.561 14.7353C122.947 14.7353 121.689 13.4225 121.689 11.7507ZM125.17 13.7712H126.235L125.423 12.1917C125.89 11.9866 126.205 11.5456 126.205 11.002C126.205 10.2635 125.596 9.66863 124.814 9.66863H123.211V13.7712H124.175V12.3456H124.469L125.17 13.7712ZM124.175 11.5456V10.4686H124.642C125.007 10.4686 125.23 10.6738 125.23 11.0122C125.23 11.3404 125.007 11.5456 124.642 11.5456H124.175Z" fill="#222E3A"/>
<path d="M110.159 21.6223C110.24 20.1113 111.141 18.9361 112.67 18.9361C114.416 18.9361 115.153 20.1393 115.153 21.6783V29.7091H118.784V21.0347C118.784 18.0127 117.201 15.9237 113.789 15.9237C112.506 15.9237 111.032 16.026 110.159 17.0893V7.94543H106.528V29.7091H110.159V21.6223Z" fill="#222E3A"/>
<path d="M99.2159 19.1469C100.916 19.1469 101.714 20.2587 102.024 21.344L105.089 20.2852C104.548 18.088 102.59 15.8909 99.1386 15.8909C95.4552 15.8909 92.5703 18.7763 92.5703 22.8C92.5703 26.7972 95.5067 29.7091 99.2417 29.7091C102.616 29.7091 104.599 27.4854 105.166 25.3148L102.152 24.2824C101.869 25.2883 100.993 26.4795 99.2417 26.4795C97.4901 26.4795 95.9961 25.1559 95.9961 22.8C95.9961 20.444 97.4644 19.1469 99.2159 19.1469Z" fill="#222E3A"/>
<path d="M91.8899 15.9033C91.6176 15.8753 91.3535 15.9033 91.0539 15.9033C89.9101 15.9033 88.0499 16.1828 87.2329 17.9993V15.9033H83.7197V29.7091H87.3419V23.421C87.3419 20.4586 88.8658 19.3584 90.7177 19.3584C91.0445 19.3584 91.8899 19.3584 91.8899 19.3584V15.9033Z" fill="#222E3A"/>
<path d="M69.7617 25.6885C69.7617 27.7803 71.5147 29.7091 74.3907 29.7091C76.3903 29.7091 77.6776 29.1208 78.3624 28.0613L78.4856 29.7091H81.6767V27.5452V20.9709C81.6767 18.2815 80.088 15.8909 75.8151 15.8909C72.1995 15.8909 70.2547 18.2 70.0356 20.2918L73.2677 20.9709C73.3773 19.8028 74.2538 18.7976 75.8424 18.7976C77.3763 18.7976 78.1159 19.5855 78.1159 20.5363C78.1159 20.9981 77.8693 21.043 77.1024 21.1517L73.7881 21.6407C71.5421 21.9667 69.7617 23.2978 69.7617 25.6885ZM75.1577 27.0196C73.9799 27.0196 73.4047 26.2589 73.4047 25.4711C73.4047 24.4388 74.1442 23.9227 75.0755 23.7868L78.1159 23.325V24.258C78.1159 26.6215 76.6915 27.0196 75.1577 27.0196Z" fill="#222E3A"/>
<path d="M59.2848 21.3175C59.3627 20.1263 60.3495 18.7498 62.1415 18.7498C64.1153 18.7498 64.9463 20.0204 64.9983 21.3175H59.2848ZM65.3359 24.7059C64.9204 25.8707 64.0374 26.6913 62.4272 26.6913C60.7131 26.6913 59.2848 25.4471 59.2068 23.7265H68.3485C68.3485 23.6735 68.4004 23.1441 68.4004 22.6411C68.4004 18.4586 66.0371 15.8909 62.0896 15.8909C58.8173 15.8909 55.8047 18.591 55.8047 22.747C55.8047 27.1413 58.8952 29.709 62.4012 29.709C65.5437 29.709 67.5694 27.8296 68.2186 25.5795L65.3359 24.7059Z" fill="#222E3A"/>
<path d="M54.1517 13.2782C53.686 10.9596 51.7649 7.94543 46.7585 7.94543C42.8582 7.94543 39.5691 10.7278 39.5691 14.3796C39.5691 17.4807 41.6939 19.5965 44.983 20.2631L47.8646 20.8427C49.4655 21.1615 50.3678 22.4344 50.3678 23.6227C50.3678 25.0718 49.1744 26.1442 47.0205 26.1442C44.1098 26.1442 42.6835 24.3183 42.5089 22.2895L38.7832 23.2749C39.1034 26.2022 41.5193 29.7091 46.9914 29.7091C51.794 29.7091 54.4428 26.521 54.4428 23.3619C54.4428 20.4636 52.4344 17.6836 48.6796 16.959L45.798 16.4084C44.2844 16.1185 43.5568 15.2201 43.5568 14.0898C43.5568 12.7276 44.8375 11.4813 46.7876 11.4813C49.4073 11.4813 50.3387 13.2493 50.5424 14.3796L54.1517 13.2782Z" fill="#222E3A"/>
<path fill-rule="evenodd" clip-rule="evenodd" d="M23.5438 0.00334685C23.5011 0.00223792 23.4582 0.0011259 23.4152 0H14.8191C9.19214 0.310112 6.82681 3.64966 6.19221 5.42819C3.67822 13.1262 1.33758 28.1428 1.01996 30.2283C0.702337 32.3139 0.660096 33.5836 0.660096 33.5836C0.638749 34.1135 0.6872 34.687 0.826937 35.2442C1.5181 37.2913 3.60206 39.0157 8.19327 37.2977C12.5302 35.3656 17.6537 32.9673 22.9517 30.2738C25.0922 29.0093 27.939 26.5791 29.4925 23.4252C30.1279 22.1351 30.5469 20.7239 30.6127 19.2219C30.6101 18.977 30.6076 18.7312 30.605 18.4846C30.5674 14.8654 30.5279 11.0622 30.2891 7.39659C30.2891 7.39659 30.1042 5.03893 29.9824 4.18927C29.8606 3.3396 29.6932 3.04479 29.6932 3.04479C28.9484 1.38686 27.5156 0.558552 25.9949 0.171753C25.3013 0.0489002 24.4493 0.0268171 23.5438 0.00334685ZM23.2158 7.76642C23.2158 7.35792 22.8847 7.02676 22.4761 7.02676H22.1063C17.4083 7.02676 13.5999 10.8351 13.5999 15.5328V19.5085C13.5999 21.9595 11.6128 23.9465 9.16171 23.9465H8.79186C8.38334 23.9465 8.05217 24.2776 8.05217 24.6861V27.2749C8.05217 27.6834 8.38334 28.0146 8.79186 28.0146H9.16171C13.8597 28.0146 17.6681 24.2063 17.6681 19.5085V15.5328C17.6681 13.0818 19.6552 11.0949 22.1063 11.0949H22.4761C22.8847 11.0949 23.2158 10.7637 23.2158 10.3552V7.76642Z" fill="#178A9E"/>
</svg>
