<svg width="13" height="14" viewBox="0 0 13 14" fill="none" xmlns="http://www.w3.org/2000/svg">
<path fill-rule="evenodd" clip-rule="evenodd" d="M12.027 0.0879011C11.8747 0.0168772 11.7049 -0.0107941 11.5372 0.00805617C11.3695 0.0269065 11.2107 0.0915163 11.0788 0.194486C9.9591 1.07171 7.94432 1.07171 6.82818 0.194486C6.66902 0.0696322 6.47101 0.00158005 6.26688 0.00158005C6.06276 0.00158005 5.86475 0.0696322 5.70559 0.194486C4.58586 1.07171 2.5718 1.07171 1.45494 0.194486C1.32349 0.0904612 1.1645 0.0250568 0.996475 0.00588809C0.82845 -0.0132806 0.658308 0.0145752 0.505861 0.0862119C0.353413 0.157849 0.224933 0.270319 0.135379 0.410526C0.0458256 0.550734 -0.00111598 0.71291 2.01449e-05 0.87817V7.87629C2.01449e-05 10.618 2.25023 12.8956 6.01925 13.9642C6.10036 13.9867 6.18434 14 6.26832 14C6.3523 14 6.43628 13.9888 6.51739 13.9649C10.2864 12.8956 12.5366 10.618 12.5366 7.87629V0.87817C12.5366 0.541587 12.3378 0.235156 12.027 0.0879011ZM8.95494 8.75141C8.95494 9.23525 8.55442 9.62582 8.05916 9.62582H6.67864C6.70216 9.67949 6.71471 9.73771 6.7149 9.7972C6.7149 10.0384 6.51321 10.2348 6.26702 10.2348C6.02011 10.2348 5.81913 10.0377 5.81913 9.7972C5.81933 9.73771 5.83188 9.67949 5.8554 9.62582H4.47748C3.98222 9.62582 3.5817 9.23525 3.5817 8.75141V7.00118C3.5817 6.51734 3.98222 6.12676 4.47748 6.12676V5.25165C4.47805 4.78788 4.66693 4.34327 5.00268 4.0154C5.33842 3.68754 5.7936 3.50319 6.26832 3.50282C6.74316 3.50319 7.19845 3.68763 7.53421 4.01565C7.86998 4.34367 8.05878 4.78846 8.05916 5.25235V6.12746C8.55442 6.12746 8.95494 6.51804 8.95494 7.00188V8.75141ZM5.37266 7.17306C5.37266 6.69203 5.77605 6.29865 6.26844 6.29865C6.76083 6.29865 7.16421 6.69203 7.16421 7.17306V8.04818H5.37266V7.17306Z" fill="#90A4AE"/>
</svg>
