<?xml version="1.0" encoding="UTF-8" standalone="no"?><!DOCTYPE svg PUBLIC "-//W3C//DTD SVG 1.1//EN" "http://www.w3.org/Graphics/SVG/1.1/DTD/svg11.dtd"><svg width="100%" height="100%" viewBox="0 0 89 88" version="1.1" xmlns="http://www.w3.org/2000/svg" xmlns:xlink="http://www.w3.org/1999/xlink" xml:space="preserve" xmlns:serif="http://www.serif.com/" style="fill-rule:evenodd;clip-rule:evenodd;stroke-linejoin:round;stroke-miterlimit:2;"><rect id="speed" x="0.381" y="0" width="88" height="88" style="fill:none;"/><path d="M37.535,18.875c-0.493,-1.057 -1.554,-1.733 -2.72,-1.733c-1.892,0 -4.862,0 -7.384,0c-1.025,0 -1.979,0.523 -2.53,1.388c-0.551,0.864 -0.623,1.95 -0.19,2.879c2.634,5.654 7.197,15.45 9.343,20.058c0.748,1.606 0.748,3.46 0,5.066c-2.146,4.608 -6.709,14.404 -9.343,20.058c-0.433,0.929 -0.361,2.015 0.19,2.879c0.551,0.865 1.505,1.388 2.53,1.388c2.522,-0 5.492,-0 7.384,-0c1.166,-0 2.227,-0.676 2.72,-1.733c2.146,-4.609 8.002,-17.179 10.523,-22.592c0.748,-1.606 0.748,-3.46 -0,-5.066c-2.521,-5.413 -8.377,-17.983 -10.523,-22.592Zm-19.92,0c-0.493,-1.057 -1.553,-1.733 -2.72,-1.733c-0.387,0 -0.811,0 -1.248,0c-1.025,0 -1.979,0.523 -2.53,1.388c-0.551,0.864 -0.622,1.95 -0.19,2.879c2.634,5.654 7.197,15.45 9.343,20.058c0.749,1.606 0.749,3.46 0,5.066c-2.146,4.608 -6.709,14.404 -9.343,20.058c-0.432,0.929 -0.361,2.015 0.19,2.879c0.551,0.865 1.505,1.388 2.53,1.388c0.437,-0 0.861,-0 1.248,-0c1.167,-0 2.227,-0.676 2.72,-1.733c2.146,-4.609 8.002,-17.179 10.523,-22.592c0.748,-1.606 0.748,-3.46 -0,-5.066c-2.521,-5.413 -8.377,-17.983 -10.523,-22.592Zm50.505,0c-0.493,-1.057 -1.553,-1.733 -2.72,-1.733c-3.896,0 -12.856,0 -18.406,0c-1.025,0 -1.979,0.523 -2.53,1.388c-0.55,0.864 -0.622,1.95 -0.189,2.879c2.634,5.654 7.197,15.45 9.343,20.058c0.748,1.606 0.748,3.46 -0,5.066c-2.146,4.608 -6.709,14.404 -9.343,20.058c-0.433,0.929 -0.361,2.015 0.189,2.879c0.551,0.865 1.505,1.388 2.53,1.388c5.55,-0 14.51,-0 18.406,-0c1.167,-0 2.227,-0.676 2.72,-1.733c2.146,-4.609 8.002,-17.179 10.523,-22.592c0.748,-1.606 0.748,-3.46 -0,-5.066c-2.521,-5.413 -8.377,-17.983 -10.523,-22.592Z" style="fill:url(#_Linear1);"/><defs><linearGradient id="_Linear1" x1="0" y1="0" x2="1" y2="0" gradientUnits="userSpaceOnUse" gradientTransform="matrix(2.95605e-15,67.3588,-48.276,4.12453e-15,-120.827,27.0025)"><stop offset="0" style="stop-color:#3fd6d3;stop-opacity:1"/><stop offset="1" style="stop-color:#33b0b5;stop-opacity:1"/></linearGradient></defs></svg>