<?xml version="1.0" encoding="UTF-8" standalone="no"?><!DOCTYPE svg PUBLIC "-//W3C//DTD SVG 1.1//EN" "http://www.w3.org/Graphics/SVG/1.1/DTD/svg11.dtd"><svg width="100%" height="100%" viewBox="0 0 17 17" version="1.1" xmlns="http://www.w3.org/2000/svg" xmlns:xlink="http://www.w3.org/1999/xlink" xml:space="preserve" xmlns:serif="http://www.serif.com/" style="fill-rule:evenodd;clip-rule:evenodd;stroke-linejoin:round;stroke-miterlimit:2;"><rect id="speed-mobile" x="0.381" y="0.03" width="16" height="15.988" style="fill:none;"/><path d="M2.406,2.527c-0.108,-0.231 -0.34,-0.379 -0.595,-0.379l-0.273,-0c-0.224,-0 -0.433,0.114 -0.554,0.303c-0.12,0.19 -0.136,0.427 -0.041,0.63c0.576,1.237 1.574,3.381 2.044,4.389c0.164,0.351 0.164,0.757 0,1.109c-0.47,1.008 -1.468,3.151 -2.044,4.388c-0.095,0.203 -0.079,0.441 0.041,0.63c0.121,0.189 0.33,0.304 0.554,0.304c0.095,-0 0.188,-0 0.273,-0c0.255,-0 0.487,-0.148 0.595,-0.38c0.47,-1.008 1.751,-3.758 2.302,-4.942c0.164,-0.352 0.164,-0.758 0,-1.109c-0.551,-1.184 -1.832,-3.935 -2.302,-4.943Z" style="fill:#90a4ae;"/><path d="M6.093,2.527c-0.108,-0.231 -0.34,-0.379 -0.595,-0.379l-0.273,-0c-0.224,-0 -0.433,0.114 -0.554,0.303c-0.12,0.19 -0.136,0.427 -0.041,0.63c0.576,1.237 1.575,3.381 2.044,4.389c0.164,0.351 0.164,0.757 0,1.109c-0.469,1.008 -1.468,3.151 -2.044,4.388c-0.095,0.203 -0.079,0.441 0.041,0.63c0.121,0.189 0.33,0.304 0.554,0.304c0.096,-0 0.188,-0 0.273,-0c0.255,-0 0.487,-0.148 0.595,-0.38c0.47,-1.008 1.751,-3.758 2.302,-4.942c0.164,-0.352 0.164,-0.758 0,-1.109c-0.551,-1.184 -1.832,-3.935 -2.302,-4.943Z" style="fill:#90a4ae;"/><path d="M13.456,2.527c-0.107,-0.231 -0.34,-0.379 -0.595,-0.379c-0.852,-0 -2.813,-0 -4.027,-0c-0.224,-0 -0.433,0.114 -0.553,0.303c-0.121,0.19 -0.137,0.427 -0.042,0.63c0.576,1.237 1.575,3.381 2.044,4.389c0.164,0.351 0.164,0.757 0,1.109c-0.469,1.008 -1.468,3.151 -2.044,4.388c-0.095,0.203 -0.079,0.441 0.042,0.63c0.12,0.189 0.329,0.304 0.553,0.304c1.214,-0 3.175,-0 4.027,-0c0.255,-0 0.488,-0.148 0.595,-0.38c0.47,-1.008 1.751,-3.758 2.303,-4.942c0.163,-0.352 0.163,-0.758 -0,-1.109c-0.552,-1.184 -1.833,-3.935 -2.303,-4.943Z" style="fill:#90a4ae;"/></svg>