<svg xmlns="http://www.w3.org/2000/svg" viewBox="0 0 92 92"><defs><style>.cls-1{fill:#fff;}.cls-2{fill:#5acf5f;}</style></defs><title>Torrent</title><g id="Capa_2" data-name="Capa 2"><g id="AmazonFire"><circle class="cls-1" cx="46" cy="46" r="46"/><g id="_14-utorrent" data-name="14-utorrent"><path class="cls-2" d="M82.16,58a22.47,22.47,0,0,1-6.13-.6c-4.46-1.28-5.84-3.11-5.84-3.11a1.46,1.46,0,0,0-1.43-.64,1.48,1.48,0,0,0-1.21,1c0,.06-2.12,6.16-7.4,8.8-5.49,2.75-15.43,2.08-15.53,2.08a1.44,1.44,0,0,0-1.32.62,1.5,1.5,0,0,0-.14,1.46L50.79,85a1.47,1.47,0,0,0,1.35.89,1,1,0,0,0,.24,0A40,40,0,0,0,83.57,60a1.49,1.49,0,0,0-1.41-2Z"/><path class="cls-2" d="M46,6.14a40.13,40.13,0,0,0-11.6,78.5,1.49,1.49,0,0,0,.43.06,1.45,1.45,0,0,0,1.08-.48,1.47,1.47,0,0,0,.29-1.55C20.43,42.81,17.58,33.54,17.13,31.4c2.13-1.12,9.24-2.68,11.14-2.37A54.67,54.67,0,0,1,31,35.16c3.88,9.5,9.73,23.87,17.87,24.45,5.77.42,11-1.78,13.94-5.86,1.81-2.48,2.42-5.28,1.61-7.31-1.24-3.09-6.92-16.1-8.94-20.72l8.91-2.23c1.94,4.63,9,21.18,12.33,25.19,1.45,1.75,4,2.82,7.43,3.18a1.48,1.48,0,0,0,1.62-1.32A38.28,38.28,0,0,0,86,46.25,40.1,40.1,0,0,0,46,6.14Z"/></g></g></g></svg>