<svg width="106" height="38" viewBox="0 0 106 38" fill="none" xmlns="http://www.w3.org/2000/svg">
<path d="M98.3794 11.7506C98.3794 13.8326 100.073 15.5454 102.18 15.5454C104.286 15.5454 106 13.8326 106 11.7506C106 9.65827 104.286 7.94545 102.18 7.94545C100.073 7.94545 98.3794 9.65827 98.3794 11.7506ZM99.2571 11.7506C99.2571 10.0685 100.538 8.75571 102.18 8.75571C103.821 8.75571 105.102 10.0685 105.102 11.7506C105.102 13.4224 103.821 14.7352 102.18 14.7352C100.538 14.7352 99.2571 13.4224 99.2571 11.7506ZM102.799 13.7711H103.883L103.057 12.1916C103.532 11.9865 103.852 11.5454 103.852 11.0019C103.852 10.2634 103.233 9.66853 102.438 9.66853H100.806V13.7711H101.787V12.3454H102.087L102.799 13.7711ZM101.787 11.5454V10.4685H102.262C102.634 10.4685 102.861 10.6737 102.861 11.0121C102.861 11.3403 102.634 11.5454 102.262 11.5454H101.787Z" fill="#222E3A"/>
<path d="M96.3009 29.7091V7.94545H92.0343V22.342L82.9136 7.94545H77.5957V29.7091H81.8623V14.2689L91.8179 29.7091H96.3009Z" fill="#222E3A"/>
<path d="M65.222 17.8603V11.629H68.5581C70.6699 11.629 71.9554 12.8262 71.9554 14.76C71.9554 16.6325 70.6699 17.8603 68.5581 17.8603H65.222ZM69.0784 21.5132C73.3632 21.5132 76.2096 18.6891 76.2096 14.7293C76.2096 10.8002 73.3632 7.94545 69.0784 7.94545H60.9678V29.7091H65.1914V21.5132H69.0784Z" fill="#222E3A"/>
<path d="M49.4396 24.1224L43.7709 7.94545H39.144L47.1721 29.7091H51.5232L59.5819 7.94545H55.1083L49.4396 24.1224Z" fill="#222E3A"/>
<path fill-rule="evenodd" clip-rule="evenodd" d="M23.464 0.00334684C23.4204 0.00223791 23.3768 0.00112589 23.333 0H14.586C8.86016 0.310112 6.45328 3.64966 5.80753 5.42819C3.24939 13.1262 0.867636 28.1428 0.544433 30.2283C0.22123 32.3139 0.178247 33.5836 0.178247 33.5836C0.156525 34.1135 0.205827 34.687 0.348019 35.2442C1.05132 37.2913 3.17189 39.0157 7.84374 37.2977C12.2569 35.3656 17.4704 32.9673 22.8614 30.2738C25.0396 29.0093 27.9363 26.5791 29.5171 23.4252C30.1636 22.1351 30.59 20.7239 30.657 19.2219C30.6543 18.9771 30.6517 18.7312 30.6491 18.4846C30.6109 14.8654 30.5707 11.0623 30.3277 7.39659C30.3277 7.39659 30.1395 5.03893 30.0156 4.18927C29.8916 3.3396 29.7214 3.04479 29.7214 3.04479C28.9635 1.38686 27.5055 0.558552 25.958 0.171753C25.2523 0.0489002 24.3854 0.0268171 23.464 0.00334684ZM23.1302 7.76642C23.1302 7.35792 22.7932 7.02676 22.3775 7.02676H22.0012C17.2207 7.02676 13.3453 10.8351 13.3453 15.5328V19.5085C13.3453 21.9595 11.3234 23.9465 8.82921 23.9465H8.45287C8.03717 23.9465 7.70019 24.2776 7.70019 24.6861V27.2749C7.70019 27.6834 8.03717 28.0146 8.45287 28.0146H8.82921C13.6097 28.0146 17.4851 24.2063 17.4851 19.5085V15.5328C17.4851 13.0818 19.507 11.0949 22.0012 11.0949H22.3775C22.7932 11.0949 23.1302 10.7637 23.1302 10.3552V7.76642Z" fill="#178A9E"/>
</svg>
