<svg width="76" height="90" viewBox="0 0 76 90" fill="none" xmlns="http://www.w3.org/2000/svg">
<path d="M30.8037 70.6453L19.8175 89.6803L15.9008 80.672L6.24622 81.8469C10.8287 73.8765 8.63538 77.6953 16.1554 64.6724C17.121 64.79 18.0339 65.1776 18.789 65.7908C19.5442 66.404 20.1111 67.2177 20.4245 68.1386C20.6466 68.7849 20.9946 69.3807 21.4484 69.8917C21.9022 70.4027 22.4527 70.8186 23.0683 71.1154C23.6838 71.4123 24.3521 71.5841 25.0344 71.6211C25.7168 71.658 26.3997 71.5593 27.0437 71.3307C28.1761 70.6636 29.5088 70.4207 30.8037 70.6453Z" fill="#005EAB"/>
<path d="M68.9135 81.8471L59.1218 80.6721L55.2051 89.6804L44.2189 70.6454C46.5297 70.0579 47.5676 71.5854 49.7022 71.5854C50.7976 71.6158 51.8744 71.2988 52.7785 70.6796C53.6826 70.0605 54.3675 69.171 54.7351 68.1388C55.0546 67.2252 55.6241 66.4196 56.3789 65.8138C57.1336 65.2079 58.0432 64.8261 59.0043 64.7117L68.9135 81.8471Z" fill="#005EAB"/>
<path d="M73.297 41.4866C72.4617 42.2415 71.8923 43.2457 71.6735 44.3501C71.4548 45.4545 71.5983 46.6 72.0828 47.6162C72.3968 48.2692 72.5701 48.9808 72.5914 49.7051C72.6127 50.4293 72.4815 51.1499 72.2064 51.8202C71.9313 52.4905 71.5183 53.0954 70.9944 53.5958C70.4704 54.0963 69.8471 54.481 69.1649 54.725C68.0542 55.1153 67.1077 55.869 66.4786 56.8641C65.8496 57.8593 65.5747 59.0376 65.6986 60.2083C65.6988 60.9496 65.5413 61.6824 65.2366 62.3582C64.9319 63.034 64.4871 63.6373 63.9315 64.128C63.3759 64.6188 62.7223 64.9858 62.0141 65.2047C61.3059 65.4237 60.5592 65.4895 59.8236 65.3979C58.753 65.407 57.7119 65.7494 56.845 66.3777C55.9781 67.0059 55.3285 67.8887 54.9865 68.9033C54.7474 69.5941 54.3644 70.2263 53.863 70.7582C53.3615 71.2901 52.753 71.7096 52.0775 71.9891C51.402 72.2685 50.6749 72.4015 49.9443 72.3793C49.2136 72.3572 48.4959 72.1803 47.8386 71.8604C46.832 71.3854 45.7009 71.2414 44.6074 71.4491C41.4153 71.9779 41.5328 74.7783 37.8315 74.7783C34.1303 74.7783 34.2478 71.9779 31.0557 71.41C29.9625 71.1953 28.8291 71.3396 27.8245 71.8212C27.1697 72.142 26.4545 72.3206 25.7257 72.3453C24.997 72.3701 24.2714 72.2404 23.5963 71.9648C22.9213 71.6893 22.3122 71.274 21.8089 70.7464C21.3057 70.2188 20.9198 69.5906 20.6765 68.9033C20.3258 67.8898 19.6675 67.011 18.7933 66.3896C17.9192 65.7682 16.8728 65.4352 15.8003 65.4371C15.0395 65.5331 14.2668 65.4605 13.5372 65.2246C12.8075 64.9887 12.1386 64.5952 11.578 64.072C11.0174 63.5487 10.5787 62.9086 10.2931 62.1969C10.0075 61.4852 9.88193 60.7194 9.9253 59.9537C10.0032 58.8275 9.71045 57.7068 9.09163 56.7627C8.47281 55.8185 7.56197 55.1029 6.49822 54.725C5.80551 54.4885 5.17118 54.107 4.6375 53.606C4.10382 53.1051 3.68304 52.4961 3.40323 51.8197C3.12341 51.1434 2.99098 50.4151 3.01476 49.6835C3.03854 48.952 3.21798 48.2338 3.54113 47.5771C4.02402 46.57 4.17049 45.4345 3.95893 44.3379C3.74737 43.2413 3.18898 42.2417 2.36613 41.4866C1.80572 40.9995 1.35638 40.3978 1.04845 39.7221C0.740523 39.0464 0.581177 38.3125 0.581177 37.57C0.581177 36.8274 0.740523 36.0935 1.04845 35.4179C1.35638 34.7422 1.80572 34.1405 2.36613 33.6533C3.20144 32.8985 3.77081 31.8942 3.98957 30.7898C4.20832 29.6855 4.06479 28.54 3.5803 27.5237C3.26627 26.8708 3.09298 26.1591 3.07169 25.4349C3.05039 24.7107 3.18156 23.99 3.45669 23.3198C3.73182 22.6495 4.14475 22.0445 4.66873 21.5441C5.1927 21.0437 5.816 20.659 6.49822 20.415C7.60892 20.0247 8.55541 19.271 9.18448 18.2758C9.81354 17.2807 10.0884 16.1024 9.96447 14.9316C9.96433 14.1904 10.1218 13.4575 10.4265 12.7817C10.7312 12.106 11.176 11.5027 11.7316 11.0119C12.2872 10.5212 12.9407 10.1541 13.649 9.93521C14.3572 9.71628 15.1039 9.65044 15.8395 9.74206C16.9101 9.73299 17.9512 9.39052 18.8181 8.76227C19.6851 8.13401 20.3346 7.25121 20.6765 6.23665C21.0301 5.21948 21.6913 4.33747 22.5685 3.71289C23.4457 3.08831 24.4955 2.75208 25.5724 2.75081C27.5307 2.75081 28.0203 3.78873 30.0961 3.78873C34.0715 3.8279 33.9149 0.361648 37.8315 0.361648C38.5707 0.357663 39.3022 0.511018 39.9775 0.811524C40.6528 1.11203 41.2564 1.55281 41.7482 2.10456C42.5012 2.94257 43.5056 3.51386 44.6107 3.73277C45.7159 3.95168 46.8622 3.8064 47.8778 3.31873C48.5308 3.0047 49.2424 2.83142 49.9666 2.81012C50.6909 2.78883 51.4115 2.92 52.0818 3.19512C52.752 3.47025 53.357 3.88319 53.8574 4.40716C54.3578 4.93113 54.7425 5.55444 54.9865 6.23665C55.3768 7.34736 56.1306 8.29385 57.1257 8.92291C58.1208 9.55197 59.2991 9.8268 60.4699 9.7029C61.2112 9.70277 61.944 9.86026 62.6198 10.1649C63.2956 10.4696 63.8989 10.9145 64.3896 11.47C64.8804 12.0256 65.2474 12.6792 65.4663 13.3874C65.6852 14.0956 65.7511 14.8423 65.6595 15.5779C65.6685 16.6485 66.011 17.6896 66.6393 18.5566C67.2675 19.4235 68.1503 20.0731 69.1649 20.415C70.1821 20.7685 71.0641 21.4297 71.6886 22.3069C72.3132 23.1842 72.6494 24.234 72.6507 25.3108C72.6507 27.2691 71.6128 27.7587 71.6128 29.8346C71.5736 33.81 75.0399 33.6533 75.0399 37.57C75.0439 38.3091 74.8905 39.0406 74.59 39.7159C74.2895 40.3912 73.8487 40.9948 73.297 41.4866Z" fill="#5CA0DD"/>
<path d="M73.297 41.4866C72.4617 42.2415 71.8923 43.2457 71.6735 44.3501C71.4548 45.4545 71.5983 46.6 72.0828 47.6162C72.3968 48.2692 72.5701 48.9808 72.5914 49.7051C72.6127 50.4293 72.4815 51.1499 72.2064 51.8202C71.9313 52.4905 71.5183 53.0954 70.9944 53.5958C70.4704 54.0963 69.8471 54.481 69.1649 54.725C68.0542 55.1153 67.1077 55.869 66.4786 56.8641C65.8496 57.8593 65.5747 59.0376 65.6986 60.2083C65.6988 60.9496 65.5413 61.6824 65.2366 62.3582C64.9319 63.034 64.4871 63.6373 63.9315 64.128C63.3759 64.6188 62.7223 64.9858 62.0141 65.2047C61.3059 65.4237 60.5592 65.4895 59.8236 65.3979C58.753 65.407 57.7119 65.7494 56.845 66.3777C55.9781 67.0059 55.3285 67.8887 54.9865 68.9033C54.7474 69.5941 54.3644 70.2263 53.863 70.7582C53.3615 71.2901 52.753 71.7096 52.0775 71.9891C51.402 72.2685 50.6749 72.4015 49.9443 72.3793C49.2136 72.3572 48.4959 72.1803 47.8386 71.8604C46.832 71.3854 45.7009 71.2414 44.6074 71.4491C41.4153 71.9779 41.5328 74.7783 37.8315 74.7783C34.1303 74.7783 34.2478 71.9779 31.0557 71.41C29.9625 71.1953 28.8291 71.3396 27.8245 71.8212C27.1697 72.142 26.4545 72.3206 25.7257 72.3453C24.997 72.3701 24.2714 72.2404 23.5963 71.9648C22.9213 71.6893 22.3122 71.274 21.8089 70.7464C21.3057 70.2188 20.9198 69.5906 20.6765 68.9033C20.3258 67.8898 19.6675 67.011 18.7933 66.3896C17.9192 65.7682 16.8728 65.4352 15.8003 65.4371C15.0395 65.5331 14.2668 65.4605 13.5372 65.2246C12.8075 64.9887 12.1386 64.5952 11.578 64.072C11.0174 63.5487 10.5787 62.9086 10.2931 62.1969C10.0075 61.4852 9.88193 60.7194 9.9253 59.9537C10.0032 58.8275 9.71045 57.7068 9.09163 56.7627C8.47281 55.8185 7.56197 55.1029 6.49822 54.725C5.80551 54.4885 5.17118 54.107 4.6375 53.606C4.10382 53.1051 3.68304 52.4961 3.40323 51.8197C3.12341 51.1434 2.99098 50.4151 3.01476 49.6835C3.03854 48.952 3.21798 48.2338 3.54113 47.5771C4.02402 46.57 4.17049 45.4345 3.95893 44.3379C3.74737 43.2413 3.18898 42.2417 2.36613 41.4866C1.80572 40.9995 1.35638 40.3978 1.04845 39.7221C0.740523 39.0464 0.581177 38.3125 0.581177 37.57C0.581177 36.8274 0.740523 36.0935 1.04845 35.4179C1.35638 34.7422 1.80572 34.1405 2.36613 33.6533C3.20144 32.8985 3.77081 31.8942 3.98957 30.7898C4.20832 29.6855 4.06479 28.54 3.5803 27.5237C3.26627 26.8708 3.09298 26.1591 3.07169 25.4349C3.05039 24.7107 3.18156 23.99 3.45669 23.3198C3.73182 22.6495 4.14475 22.0445 4.66873 21.5441C5.1927 21.0437 5.816 20.659 6.49822 20.415C7.60892 20.0247 8.55541 19.271 9.18448 18.2758C9.81354 17.2807 10.0884 16.1024 9.96447 14.9316C9.96433 14.1904 10.1218 13.4575 10.4265 12.7817C10.7312 12.106 11.176 11.5027 11.7316 11.0119C12.2872 10.5212 12.9407 10.1541 13.649 9.93521C14.3572 9.71628 15.1039 9.65044 15.8395 9.74206C16.9101 9.73299 17.9512 9.39052 18.8181 8.76227C19.6851 8.13401 20.3346 7.25121 20.6765 6.23665C21.0301 5.21948 21.6913 4.33747 22.5685 3.71289C23.4457 3.08831 24.4955 2.75208 25.5724 2.75081C27.5307 2.75081 28.0203 3.78873 30.0961 3.78873C34.0715 3.8279 33.9149 0.361648 37.8315 0.361648C38.5707 0.357663 39.3022 0.511018 39.9775 0.811524C40.6528 1.11203 41.2564 1.55281 41.7482 2.10456C42.5012 2.94257 43.5056 3.51386 44.6107 3.73277C45.7159 3.95168 46.8622 3.8064 47.8778 3.31873C48.5308 3.0047 49.2424 2.83142 49.9666 2.81012C50.6909 2.78883 51.4115 2.92 52.0818 3.19512C52.752 3.47025 53.357 3.88319 53.8574 4.40716C54.3578 4.93113 54.7425 5.55444 54.9865 6.23665C55.3768 7.34736 56.1306 8.29385 57.1257 8.92291C58.1208 9.55197 59.2991 9.8268 60.4699 9.7029C61.2112 9.70277 61.944 9.86026 62.6198 10.1649C63.2956 10.4696 63.8989 10.9145 64.3896 11.47C64.8804 12.0256 65.2474 12.6792 65.4663 13.3874C65.6852 14.0956 65.7511 14.8423 65.6595 15.5779C65.6685 16.6485 66.011 17.6896 66.6393 18.5566C67.2675 19.4235 68.1503 20.0731 69.1649 20.415C70.1821 20.7685 71.0641 21.4297 71.6886 22.3069C72.3132 23.1842 72.6494 24.234 72.6507 25.3108C72.6507 27.2691 71.6128 27.7587 71.6128 29.8346C71.5736 33.81 75.0399 33.6533 75.0399 37.57C75.0439 38.3091 74.8905 39.0406 74.59 39.7159C74.2895 40.3912 73.8487 40.9948 73.297 41.4866Z" fill="black" fill-opacity="0.1"/>
<path d="M73.0466 41.4449C72.2113 42.1997 71.6419 43.204 71.4231 44.3084C71.2044 45.4128 71.3479 46.5582 71.8324 47.5745C72.1464 48.2274 72.3197 48.9391 72.341 49.6633C72.3623 50.3876 72.2311 51.1082 71.956 51.7785C71.6809 52.4487 71.2679 53.0537 70.744 53.5541C70.22 54.0545 69.5967 54.4392 68.9145 54.6832C67.9135 55.0295 67.0436 55.676 66.4233 56.5345C65.803 57.3931 65.4625 58.4221 65.4482 59.4812C58.9439 65.5332 50.3822 68.8865 41.4978 68.8616C10.6932 68.8616 -5.09094 32.0057 15.6282 9.70032C16.6921 9.68318 17.7245 9.33697 18.5837 8.70928C19.4428 8.08159 20.0864 7.20322 20.4261 6.1949C20.7772 5.17613 21.4377 4.29249 22.3155 3.66751C23.1933 3.04253 24.2444 2.70743 25.322 2.70907C27.2803 2.70907 27.7699 3.74698 29.8457 3.74698C33.8211 3.78615 33.6645 0.3199 37.5811 0.3199C38.3203 0.315915 39.0518 0.46927 39.7271 0.769776C40.4024 1.07028 41.006 1.51106 41.4978 2.06282C42.2508 2.90082 43.2552 3.47211 44.3603 3.69102C45.4655 3.90993 46.6118 3.76466 47.6274 3.27698C48.2803 2.96295 48.992 2.78967 49.7162 2.76837C50.4405 2.74708 51.1611 2.87825 51.8314 3.15337C52.5016 3.4285 53.1066 3.84144 53.607 4.36541C54.1074 4.88938 54.4921 5.51269 54.7361 6.1949C55.1264 7.30561 55.8802 8.2521 56.8753 8.88116C57.8704 9.51023 59.0487 9.78505 60.2195 9.66115C60.9608 9.66102 61.6936 9.81851 62.3694 10.1232C63.0452 10.4278 63.6485 10.8727 64.1392 11.4283C64.63 11.9839 64.997 12.6374 65.2159 13.3457C65.4348 14.0539 65.5007 14.8006 65.4091 15.5362C65.4181 16.6067 65.7606 17.6479 66.3889 18.5148C67.0171 19.3817 67.8999 20.0313 68.9145 20.3732C69.9316 20.7268 70.8137 21.388 71.4382 22.2652C72.0628 23.1424 72.399 24.1922 72.4003 25.2691C72.4003 27.2274 71.3624 27.717 71.3624 29.7928C71.3232 33.7682 74.7895 33.6116 74.7895 37.5282C74.7935 38.2674 74.6401 38.9989 74.3396 39.6742C74.0391 40.3495 73.5983 40.9531 73.0466 41.4449Z" fill="#5CA0DD"/>
<path d="M63.0396 37.5281C63.0396 40.8714 62.3811 44.1819 61.1017 47.2706C59.8223 50.3594 57.947 53.1659 55.583 55.5299C53.219 57.8939 50.4124 59.7692 47.3237 61.0486C44.235 62.328 40.9245 62.9865 37.5812 62.9865C13.6308 62.9865 2.9383 32.6323 21.66 17.6902C25.4016 14.6914 29.9141 12.8104 34.6779 12.2635C39.4417 11.7167 44.2631 12.5263 48.5869 14.5992C52.9107 16.6721 56.5613 19.924 59.1182 23.9805C61.6751 28.037 63.0344 32.7331 63.0396 37.5281Z" fill="white"/>
</svg>
