<?xml version="1.0" encoding="utf-8"?>
<!-- Generator: Adobe Illustrator 26.1.0, SVG Export Plug-In . SVG Version: 6.00 Build 0)  -->
<svg version="1.1" id="Layer_1" xmlns="http://www.w3.org/2000/svg" xmlns:xlink="http://www.w3.org/1999/xlink" x="0px" y="0px"
	 viewBox="0 0 180 60" style="enable-background:new 0 0 180 60;" xml:space="preserve">
<style type="text/css">
	.st0{fill:#30C7B5;}
</style>
<g>
	<g>
		<g>
			<path d="M15.68,49.09c-4.93,0-9.17-3.17-10.29-7.83c-0.21-0.88-0.33-1.87-0.35-3.02c-0.03-1.69-0.03-3.36-0.02-5.12
				c0-0.72,0.01-1.44,0.01-2.18c0-0.14,0.11-0.25,0.25-0.25l0.7,0c0.5,0,0.97,0.01,1.45-0.01c0.46-0.01,0.83-0.15,1.03-0.38
				c0.14-0.15,0.2-0.33,0.18-0.55C8.59,29.1,8.21,28.8,7.41,28.8c-0.46,0-0.92,0-1.4,0l-0.67,0c-0.14,0-0.25-0.11-0.25-0.25v-1.81
				c0-0.14,0.11-0.25,0.25-0.25l0.67,0c0.52,0,1.03,0,1.54,0c0.39,0,0.67-0.09,0.85-0.26c0.15-0.15,0.23-0.38,0.23-0.67
				c0-0.28-0.08-0.5-0.24-0.65c-0.18-0.17-0.47-0.26-0.87-0.25c-0.49,0.01-0.97,0.01-1.49,0.01l-0.72,0c-0.14,0-0.25-0.11-0.25-0.25
				v-1.83c0-0.14,0.11-0.25,0.25-0.25l0.67,0c0.49,0,0.97,0,1.45,0c0,0,0.01,0,0.01,0c0.79,0,1.16-0.29,1.21-0.95
				c0.02-0.21-0.05-0.4-0.18-0.55c-0.21-0.23-0.58-0.37-1.03-0.38c-0.46-0.01-0.92-0.01-1.4-0.01l-0.68,0
				c-0.14,0-0.25-0.11-0.25-0.25v-1.79c0-0.14,0.11-0.25,0.25-0.25l2.2,0c0,0,0,0,0,0c0.38,0,0.67-0.1,0.85-0.28
				c0.15-0.15,0.23-0.38,0.23-0.66c0-0.28-0.08-0.5-0.23-0.65c-0.18-0.17-0.48-0.26-0.87-0.25c-0.49,0.02-0.97,0.01-1.48,0.01
				l-0.7,0c-0.14,0-0.25-0.11-0.25-0.25v-1.86c0-0.14,0.11-0.25,0.25-0.25l0.67,0c0.5,0,1,0,1.5,0c0,0,0.01,0,0.01,0
				c0.73,0,1.1-0.31,1.11-0.91c0.01-0.76-0.6-0.94-1.1-0.96C7.04,12.1,6.55,12.1,6.07,12.1l-0.64,0c-0.13,0-0.24-0.1-0.25-0.23
				C5,9.62,5.93,7.18,7.73,5.19c1.93-2.13,4.59-3.43,7.12-3.48c3.11-0.06,6.11,1.14,8.22,3.3c1.86,1.91,2.83,4.34,2.72,6.86
				c-0.01,0.13-0.12,0.24-0.25,0.24l-0.61,0c-0.46,0-0.92,0-1.38,0c-0.82,0.01-1.18,0.29-1.22,0.94c-0.01,0.25,0.05,0.45,0.18,0.59
				c0.19,0.2,0.54,0.32,1,0.33c0.46,0.01,0.91,0.01,1.39,0.01l0.67,0c0.14,0,0.25,0.11,0.25,0.25v1.86c0,0.14-0.11,0.25-0.25,0.25
				l-0.66,0c-0.51,0-1.02,0-1.52,0c-0.4-0.02-0.67,0.08-0.84,0.25c-0.15,0.15-0.22,0.38-0.22,0.68c0,0.22,0.01,0.88,1.03,0.9
				c0.49,0.01,0.98,0,1.49,0l0.7,0c0.14,0,0.25,0.11,0.25,0.25v1.79c0,0.14-0.11,0.25-0.25,0.25l-0.62,0
				c-0.47,0-0.95-0.01-1.43,0.01c-0.45,0.01-0.79,0.13-0.98,0.34c-0.14,0.15-0.21,0.36-0.19,0.62c0.04,0.62,0.38,0.91,1.13,0.92
				c0.46,0.01,0.92,0.01,1.41,0l0.69,0c0.14,0,0.25,0.11,0.25,0.25v1.83c0,0.14-0.11,0.25-0.25,0.25h-2.21c0,0,0,0,0,0
				c-0.67,0-1,0.29-1.01,0.9c0,0.31,0.08,0.54,0.24,0.69c0.16,0.15,0.41,0.23,0.74,0.23c0.51,0.01,1.01,0.01,1.54,0l0.73,0
				c0.14,0,0.25,0.11,0.25,0.25v1.81c0,0.14-0.11,0.25-0.25,0.25l-0.66,0c-0.49,0-0.97-0.01-1.45,0.01
				c-0.75,0.02-1.11,0.3-1.14,0.92c-0.02,0.26,0.05,0.46,0.19,0.62c0.19,0.21,0.53,0.33,0.98,0.35c0.46,0.02,0.92,0.01,1.38,0.01
				l0.61,0c0.1,0,0.19,0.06,0.23,0.16c0.02,0.05,0.04,0.1,0.06,0.14c0.04,0.09,0.09,0.18,0.09,0.29c0,0.82,0.01,1.64,0.01,2.46
				c0.02,1.89,0.03,3.85-0.07,5.78c-0.26,4.86-4.37,9.14-9.16,9.54C16.32,49.08,16,49.09,15.68,49.09z M5.53,31.19
				c0,0.65,0,1.3-0.01,1.93c-0.01,1.76-0.01,3.43,0.02,5.11c0.02,1.12,0.13,2.07,0.33,2.91c1.13,4.72,5.65,7.82,10.73,7.41
				c4.55-0.38,8.45-4.45,8.7-9.07c0.1-1.91,0.08-3.86,0.07-5.75c-0.01-0.82-0.01-1.64-0.01-2.46c0,0-0.02-0.05-0.04-0.08
				c0,0,0,0,0-0.01l-0.45,0c-0.47,0-0.93,0.01-1.4-0.01c-0.59-0.02-1.05-0.2-1.34-0.51c-0.23-0.25-0.34-0.59-0.31-0.98
				c0.04-0.62,0.35-1.36,1.63-1.39c0.48-0.01,0.97-0.01,1.46-0.01l0.4,0v-1.31l-0.47,0c-0.53,0-1.04,0-1.55,0
				c-0.45-0.01-0.81-0.13-1.07-0.37c-0.27-0.25-0.41-0.61-0.4-1.07c0.02-0.88,0.56-1.39,1.51-1.39c0,0,0,0,0,0h1.96v-1.33l-0.43,0
				c-0.49,0-0.96,0-1.42,0c-1.28-0.02-1.59-0.77-1.62-1.39c-0.02-0.39,0.09-0.73,0.32-0.98c0.29-0.31,0.75-0.49,1.34-0.51
				c0.49-0.02,0.97-0.01,1.45-0.01l0.37,0v-1.28l-0.45,0c-0.52,0-1.01,0-1.5,0c-0.95-0.01-1.51-0.52-1.52-1.39
				c-0.01-0.44,0.12-0.79,0.36-1.04c0.27-0.27,0.66-0.42,1.2-0.4c0.5,0.01,1.01,0,1.52,0l0.41,0v-1.35l-0.42,0
				c-0.48,0-0.94,0.01-1.41-0.01c-0.61-0.01-1.07-0.18-1.36-0.49c-0.23-0.25-0.33-0.57-0.31-0.96c0.05-0.92,0.63-1.4,1.71-1.42
				c0.46-0.01,0.93-0.01,1.39,0l0.37,0c0.04-2.29-0.88-4.5-2.58-6.25c-2.02-2.06-4.88-3.21-7.85-3.15C12.46,2.26,9.94,3.5,8.1,5.53
				c-1.65,1.82-2.53,4.02-2.44,6.08l0.4,0c0.49,0,0.99-0.01,1.48,0.01c1,0.04,1.59,0.58,1.58,1.46c-0.01,0.89-0.59,1.4-1.61,1.4
				c-0.29,0-0.55,0-0.83,0c-0.23,0-0.45,0-0.68,0l-0.42,0v1.36l0.45,0c0.5,0,0.98,0.01,1.46-0.01c0.54-0.02,0.95,0.12,1.23,0.39
				c0.25,0.24,0.38,0.58,0.39,1c0,0.42-0.12,0.77-0.37,1.02c-0.27,0.28-0.69,0.42-1.21,0.42c0,0,0,0,0,0l-1.95,0v1.29l0.43,0
				c0.49,0,0.95-0.01,1.42,0.01c0.59,0.02,1.09,0.21,1.39,0.55c0.23,0.25,0.34,0.57,0.31,0.92c-0.05,0.64-0.38,1.41-1.71,1.41
				c-0.28-0.01-0.54,0-0.82,0c-0.21,0-0.43,0-0.65,0l-0.42,0v1.33l0.48,0c0.51,0,0.99,0.01,1.47-0.01c0.52-0.01,0.95,0.12,1.23,0.39
				c0.25,0.24,0.38,0.58,0.39,1c0.01,0.43-0.12,0.78-0.37,1.03C8.48,26.85,8.06,27,7.54,26.99c-0.51-0.01-1.02-0.01-1.53,0l-0.42,0
				v1.31l0.42,0c0.48,0,0.94,0,1.41,0c1.33,0.01,1.67,0.78,1.72,1.42c0.03,0.35-0.08,0.67-0.31,0.92c-0.3,0.33-0.8,0.53-1.39,0.55
				c-0.48,0.01-0.96,0.01-1.47,0.01L5.53,31.19z"/>
		</g>
		<g>
			<path d="M23.96,58.29H7c-0.07,0-0.14-0.03-0.19-0.08c-0.05-0.05-0.07-0.12-0.06-0.19c0.13-1.34,0.69-1.9,1.94-1.92
				c0.44,0,0.88,0,1.32,0c0.65,0,1.31,0.01,1.97-0.01c1.61-0.06,2.09-0.57,2.09-2.17c0-1.81,0-1.81-1.7-2.21
				c-5.84-1.38-9.91-6.53-9.91-12.51l0-1.13c0-0.96,0.01-1.95-0.02-2.93c-0.01-0.29-0.1-0.58-0.2-0.89
				c-0.03-0.1-0.06-0.19-0.09-0.29C2.06,33.64,2,33.28,2.19,33.01c0.14-0.19,0.38-0.29,0.73-0.3c0.08,0,0.17-0.01,0.25-0.02
				c0.27-0.02,0.55-0.05,0.81,0.06c0.3,0.13,0.7,0.53,0.7,0.9c-0.01,0.77-0.06,1.56-0.11,2.32c-0.08,1.3-0.16,2.65-0.07,3.96
				c0.35,4.9,3.65,8.69,8.6,9.88c2.99,0.72,6.2,0.07,8.81-1.78c2.58-1.83,4.24-4.6,4.55-7.6c0.14-1.34,0.14-2.71,0.15-4.05
				c0-0.58,0-1.15,0.02-1.73c0-0.07-0.02-0.16-0.04-0.25c-0.02-0.09-0.04-0.18-0.05-0.27c-0.03-0.25-0.05-0.51-0.07-0.77l-0.02-0.32
				c-0.01-0.07,0.02-0.14,0.06-0.19c0.05-0.05,0.11-0.08,0.18-0.08l1.72-0.01c0,0,0,0,0,0c0.07,0,0.13,0.03,0.18,0.08
				c0.05,0.05,0.07,0.12,0.07,0.18l-0.01,0.32c-0.01,0.26-0.01,0.51-0.03,0.77c-0.01,0.15-0.03,0.29-0.04,0.44
				c-0.02,0.17-0.04,0.33-0.04,0.5c-0.02,0.69-0.03,1.38-0.03,2.07c-0.01,1.46-0.01,2.96-0.22,4.42c-0.71,4.98-4.9,9.28-9.97,10.22
				c-1.23,0.23-1.42,0.45-1.42,1.67c0,1.19,0.13,1.82,0.48,2.17c0.35,0.35,0.99,0.5,2.21,0.5l0.88,0c0.65,0,1.29,0,1.93,0.01
				c1.18,0.03,1.76,0.64,1.81,1.93c0,0.07-0.02,0.13-0.07,0.18C24.1,58.27,24.03,58.29,23.96,58.29z M7.28,57.79h16.41
				c-0.09-0.83-0.47-1.17-1.3-1.19c-0.64-0.01-1.28-0.01-1.92-0.01l-0.88,0c-1.16,0-2.04-0.11-2.57-0.65
				c-0.53-0.53-0.63-1.39-0.63-2.52c0.01-1.47,0.36-1.89,1.83-2.16c4.78-0.89,8.89-5.1,9.56-9.79c0.2-1.43,0.21-2.91,0.22-4.35
				c0-0.69,0.01-1.39,0.03-2.08c0.01-0.18,0.03-0.36,0.05-0.54c0.02-0.14,0.03-0.28,0.04-0.41c0.02-0.25,0.02-0.5,0.03-0.75l0-0.06
				l-1.19,0.01l0,0.05c0.02,0.25,0.04,0.5,0.06,0.75c0.01,0.07,0.02,0.13,0.04,0.2c0.03,0.11,0.06,0.24,0.06,0.38
				c-0.01,0.57-0.01,1.15-0.02,1.72c-0.01,1.34-0.01,2.74-0.15,4.1c-0.32,3.15-2.06,6.05-4.75,7.96c-2.73,1.93-6.09,2.61-9.22,1.85
				C7.81,49.05,4.37,45.09,4,39.96c-0.1-1.34-0.01-2.7,0.07-4.02c0.05-0.75,0.1-1.53,0.11-2.29c0-0.09-0.21-0.35-0.39-0.43
				c-0.14-0.06-0.35-0.04-0.57-0.02c-0.1,0.01-0.19,0.02-0.28,0.02c-0.17,0-0.3,0.04-0.34,0.09c-0.05,0.07-0.04,0.25,0.04,0.51
				c0.03,0.09,0.06,0.18,0.08,0.28c0.1,0.33,0.21,0.67,0.22,1.03c0.03,0.98,0.02,1.98,0.02,2.95l0,1.13c0,5.75,3.92,10.7,9.53,12.02
				c2.01,0.48,2.09,0.58,2.09,2.7c0,1.88-0.7,2.6-2.58,2.67c-0.66,0.03-1.34,0.02-1.99,0.01c-0.44,0-0.87-0.01-1.31,0
				C7.79,56.62,7.42,56.91,7.28,57.79z"/>
		</g>
		<g>
			<path d="M38.29,48.61c-0.04,0-0.07,0-0.11,0c-0.94-0.05-1.57-0.62-1.67-1.52c-0.03-0.28-0.03-0.56-0.03-0.83l0-0.17l0-15l0,0
				l0-4.59c0-3.63,0-7.26,0-10.89c0-1.66,0.94-2.03,1.5-2.1c1.02-0.13,1.83,0.47,2.01,1.49c0.05,0.3,0.05,0.61,0.05,0.9v0.1
				c0,10,0,19.99,0,29.99c0,0.47-0.01,0.89-0.11,1.3C39.75,48.12,39.12,48.61,38.29,48.61z M36.98,31.1l0,15.16
				c0,0.27,0,0.52,0.03,0.77c0.1,0.89,0.8,1.06,1.2,1.08c0.65,0.05,1.1-0.3,1.24-0.92c0.08-0.36,0.09-0.75,0.09-1.19
				c0.01-10,0.01-19.99,0-29.99v-0.1c0-0.29,0-0.56-0.04-0.82c-0.13-0.75-0.7-1.18-1.46-1.08c-0.7,0.09-1.06,0.63-1.06,1.6
				c0,3.63,0,7.26,0,10.89L36.98,31.1z"/>
		</g>
		<g>
			<path d="M32.9,45.15c-0.29,0-0.6-0.09-0.88-0.27c-0.53-0.33-0.9-1.1-0.96-1.66c-0.09-0.88-0.07-1.78-0.06-2.65
				c0.01-0.35,0.01-0.7,0.01-1.04l0-19.72l0-0.25c0-0.24,0-0.49,0.01-0.73C31.11,17.72,31.8,17,32.8,17c0.01,0,0.02,0,0.04,0
				c1.05,0.02,1.73,0.76,1.73,1.9c0.01,2.8,0.01,5.61,0.01,8.41l0,3.19l0,0.48c0,0,0,0,0,0l0,3.31c0,2.92,0,5.85-0.01,8.77
				c0,0.84-0.38,1.57-0.97,1.9C33.39,45.09,33.15,45.15,32.9,45.15z M32.8,17.5c-0.74,0-1.22,0.51-1.27,1.37
				c-0.02,0.23-0.01,0.46-0.01,0.69l0,0.26l0,19.72c0,0.35-0.01,0.7-0.01,1.05c-0.02,0.86-0.03,1.74,0.05,2.59
				c0.05,0.48,0.38,1.07,0.72,1.28c0.36,0.23,0.75,0.25,1.08,0.07c0.44-0.24,0.71-0.8,0.71-1.46c0.01-2.92,0.01-5.85,0.01-8.77
				l0-3.79l0-3.19c0-2.8,0-5.6-0.01-8.41c0-0.87-0.47-1.39-1.24-1.4C32.82,17.5,32.81,17.5,32.8,17.5z"/>
		</g>
		<g>
			<path d="M43.67,40.08c-0.02,0-0.04,0-0.05,0c-1.06-0.03-1.73-0.8-1.74-2.02c-0.02-1.7-0.01-3.4-0.01-5.1l0-9.02
				c0-1.02,0.52-1.72,1.36-1.82c0.65-0.08,1.39,0.35,1.77,0.61c0.37,0.26,0.42,0.97,0.42,1.26c0.02,4.79,0.02,9.54,0.01,14.12
				c0,0.63-0.2,1.15-0.56,1.5C44.55,39.92,44.14,40.08,43.67,40.08z M43.39,22.61c-0.03,0-0.07,0-0.1,0.01
				c-0.85,0.1-0.92,1.04-0.92,1.32l0,9.02c0,1.7-0.01,3.4,0.01,5.09c0.01,0.95,0.46,1.51,1.25,1.53c0.35,0,0.66-0.1,0.88-0.32
				c0.27-0.26,0.41-0.66,0.41-1.14c0.02-4.58,0.01-9.32-0.01-14.11c0-0.45-0.1-0.79-0.2-0.85C44.21,22.8,43.74,22.61,43.39,22.61z
				 M42.12,31.09L42.12,31.09L42.12,31.09z"/>
		</g>
		<g>
			<path d="M49.03,33.95c-0.1,0-0.21-0.01-0.32-0.03c-0.93-0.15-1.48-0.75-1.52-1.66c-0.01-0.29-0.01-0.58-0.01-0.87l0-0.4l0-0.35
				c0-0.27-0.01-0.55,0.01-0.82c0.06-0.89,0.57-1.46,1.44-1.61c0.57-0.09,1.08,0,1.44,0.26c0.28,0.21,0.46,0.51,0.51,0.88
				c0.16,1.12,0.15,2.29-0.01,3.39c-0.05,0.36-0.23,0.67-0.53,0.88C49.76,33.84,49.4,33.95,49.03,33.95z M49.04,28.69
				c-0.11,0-0.22,0.01-0.33,0.03c-0.63,0.1-0.98,0.49-1.02,1.15c-0.02,0.26-0.01,0.52-0.01,0.78l0,0.36l0,0l0,0.4
				c0,0.28-0.01,0.56,0.01,0.84c0.04,0.85,0.62,1.11,1.1,1.19c0.36,0.06,0.71-0.01,0.96-0.19c0.18-0.14,0.3-0.33,0.33-0.55
				c0.15-1.05,0.15-2.18,0.01-3.25c-0.03-0.24-0.14-0.42-0.31-0.55C49.59,28.76,49.33,28.69,49.04,28.69z"/>
		</g>
	</g>
	<g>
		<path class="st0" d="M64.33,58.2v-6.8h0.43v6.8H64.33z M66.2,55.04l-1.4-3.22h-0.12V51.4h0.37l1.4,3.22h0.01l0.06,0.42H66.2z
			 M66.41,55.04l0.06-0.42h0.01l1.4-3.22h0.46v0.42h-0.2l-1.4,3.22H66.41z M68.19,58.2v-6.8h0.43v6.8H68.19z"/>
		<path class="st0" d="M82.01,58.29c-1.38,0-2.07-0.76-2.07-2.28V51.4h0.43v4.62c0,0.61,0.13,1.07,0.4,1.38
			c0.26,0.31,0.68,0.46,1.26,0.46c1.1,0,1.66-0.62,1.66-1.85V51.4h0.43v4.62c0,0.76-0.18,1.33-0.54,1.71
			C83.23,58.1,82.7,58.29,82.01,58.29z"/>
		<path class="st0" d="M97.36,58.29c-0.35,0-0.69-0.03-1.01-0.08c-0.32-0.05-0.62-0.14-0.9-0.24l0.07-0.46
			c0.33,0.12,0.65,0.21,0.97,0.27s0.63,0.09,0.94,0.09c0.6,0,1.05-0.1,1.35-0.31c0.3-0.2,0.45-0.51,0.45-0.92
			c0-0.53-0.26-0.93-0.78-1.2l-1.83-0.97c-0.32-0.17-0.56-0.37-0.73-0.6c-0.17-0.23-0.25-0.51-0.25-0.83c0-0.58,0.17-1.01,0.5-1.29
			c0.33-0.29,0.83-0.43,1.49-0.43c0.42,0,0.8,0.07,1.15,0.2c0.34,0.13,0.66,0.33,0.93,0.6l-0.31,0.31c-0.3-0.23-0.59-0.4-0.88-0.51
			c-0.29-0.11-0.59-0.17-0.88-0.17c-0.52,0-0.91,0.1-1.17,0.31c-0.26,0.21-0.39,0.52-0.39,0.94c0,0.25,0.07,0.47,0.2,0.64
			c0.13,0.17,0.33,0.33,0.58,0.46l1.71,0.88c0.37,0.19,0.65,0.43,0.84,0.71c0.18,0.28,0.28,0.59,0.28,0.95
			c0,0.56-0.19,0.98-0.57,1.26C98.71,58.16,98.13,58.29,97.36,58.29z"/>
		<path class="st0" d="M111.2,51.82V51.4h3.91v0.42H111.2z M111.2,58.2v-0.42h3.91v0.42H111.2z M112.93,58.2v-6.8h0.43v6.8H112.93z"
			/>
		<path class="st0" d="M129.37,58.29c-2.04,0-3.06-1.17-3.06-3.51c0-1.11,0.26-1.97,0.77-2.57c0.51-0.61,1.24-0.91,2.17-0.91
			c0.44,0,0.83,0.07,1.16,0.22c0.33,0.15,0.57,0.36,0.72,0.63l-0.31,0.32c-0.18-0.24-0.4-0.42-0.67-0.55
			c-0.27-0.13-0.57-0.2-0.88-0.2c-0.76,0-1.37,0.26-1.83,0.78c-0.46,0.52-0.68,1.26-0.68,2.23c0,2.08,0.89,3.12,2.68,3.12
			c0.49,0,0.98-0.11,1.45-0.32l0.12,0.43C130.49,58.19,129.94,58.29,129.37,58.29z"/>
		<path class="st0" d="M142.31,51.82V51.4h3.91v0.42H142.31z M142.31,58.2v-0.42h3.91v0.42H142.31z M144.05,58.2v-6.8h0.43v6.8
			H144.05z"/>
		<path class="st0" d="M157.28,58.2l2.24-6.8h0.61l2.24,6.8h-0.44l-2.08-6.43h-0.05l-2.08,6.43H157.28z M158.08,56.3v-0.42h3.45
			v0.42H158.08z"/>
		<path class="st0" d="M173.34,58.2v-6.8h0.43v6.8H173.34z M176.73,58.2l-2.93-6.38h-0.26V51.4h0.5l2.93,6.38h0.2v0.42H176.73z
			 M177,58.2v-6.8h0.43v6.8H177z"/>
	</g>
	<g>
		<path d="M71.76,13.08c0.74-0.73,1.11-1.75,1.11-3.07c0-1.24-0.37-2.19-1.11-2.86c-0.74-0.67-1.79-1.01-3.14-1.01h-2.34h-0.31
			h-1.84v12.79h2.14v-4.76h2.34c0.04,0,0.06-0.01,0.1-0.01l2.05,4.76h2.57l-2.49-5.23C71.18,13.54,71.5,13.34,71.76,13.08z
			 M66.27,8.14h2.34c0.62,0,1.1,0.18,1.44,0.54s0.51,0.86,0.51,1.52c0,0.62-0.17,1.11-0.51,1.46c-0.34,0.35-0.82,0.52-1.44,0.52
			h-2.34V8.14z"/>
		<path d="M80.1,19.11c1.36,0,2.41-0.43,3.15-1.3c0.74-0.86,1.12-2.08,1.12-3.66c0-1.58-0.37-2.8-1.12-3.66
			C82.5,9.64,81.45,9.2,80.1,9.2c-1.35,0-2.4,0.43-3.15,1.29c-0.75,0.86-1.12,2.08-1.12,3.66c0,1.57,0.37,2.79,1.12,3.66
			C77.69,18.68,78.74,19.11,80.1,19.11z M78.67,12.02c0.34-0.5,0.81-0.75,1.42-0.75c0.62,0,1.09,0.25,1.43,0.75
			c0.33,0.5,0.5,1.21,0.5,2.13c0,0.92-0.17,1.63-0.5,2.13c-0.33,0.5-0.81,0.75-1.43,0.75c-0.61,0-1.09-0.25-1.42-0.75
			c-0.34-0.5-0.5-1.21-0.5-2.13C78.17,13.23,78.34,12.52,78.67,12.02z"/>
		<path d="M92.03,17.11h-0.19l-2.67-7.73h-2.34l3.44,9.55h1.13c-0.1,0.22-0.2,0.44-0.31,0.61c-0.3,0.49-0.66,0.85-1.08,1.1
			c-0.42,0.25-0.92,0.41-1.51,0.48l-1.59,0.18l0.09,1.96l1.71-0.18c0.88-0.09,1.63-0.31,2.26-0.66c0.63-0.35,1.17-0.87,1.63-1.57
			c0.46-0.7,0.87-1.62,1.23-2.77l2.71-8.7h-2.34L92.03,17.11z"/>
		<path d="M115.06,19.11c1.41,0,2.51-0.39,3.3-1.18c0.79-0.79,1.18-1.9,1.18-3.33V6.14h-1.04h-1.1h-3.1v2h3.1v6.46
			c0,0.8-0.2,1.42-0.59,1.85s-0.96,0.65-1.7,0.65s-1.31-0.22-1.72-0.66s-0.61-1.05-0.61-1.85h-2.21c0,1.42,0.39,2.53,1.17,3.32
			C112.52,18.72,113.62,19.11,115.06,19.11z"/>
		<path d="M127.02,19.11c0.42,0,0.78-0.15,1.07-0.45c0.29-0.3,0.44-0.65,0.44-1.07c0-0.43-0.15-0.79-0.44-1.08
			c-0.29-0.29-0.65-0.44-1.07-0.44c-0.42,0-0.78,0.15-1.07,0.44s-0.44,0.65-0.44,1.08c0,0.41,0.15,0.77,0.44,1.07
			C126.25,18.96,126.6,19.11,127.02,19.11z"/>
		<path d="M71.76,35.22c0.74-0.73,1.11-1.75,1.11-3.07c0-1.24-0.37-2.19-1.11-2.87c-0.74-0.67-1.79-1.01-3.14-1.01h-2.34h-0.31
			h-1.84v12.79h2.14v-4.76h2.34c0.04,0,0.06-0.01,0.1-0.01l2.05,4.76h2.57l-2.49-5.23C71.18,35.67,71.5,35.48,71.76,35.22z
			 M66.27,30.28h2.34c0.62,0,1.1,0.18,1.44,0.54s0.51,0.86,0.51,1.52c0,0.62-0.17,1.11-0.51,1.46c-0.34,0.35-0.82,0.52-1.44,0.52
			h-2.34V30.28z"/>
		<polygon points="81.83,33.51 81.83,32.06 81.83,31.52 76.58,31.52 76.58,33.51 79.62,33.51 79.62,39.09 76.04,39.09 76.04,41.07 
			79.62,41.07 79.8,41.07 81.65,41.07 81.83,41.07 84.71,41.07 84.71,39.09 81.83,39.09 		"/>
		<path d="M79.58,27.62c-0.28,0.28-0.41,0.63-0.41,1.05c0,0.43,0.14,0.78,0.41,1.05c0.28,0.28,0.63,0.42,1.05,0.42
			s0.78-0.14,1.05-0.42c0.28-0.28,0.41-0.63,0.41-1.05c0-0.43-0.14-0.78-0.41-1.05c-0.28-0.28-0.63-0.41-1.05-0.41
			S79.86,27.35,79.58,27.62z"/>
		<path d="M92.42,33.41c0.49,0,0.94,0.12,1.35,0.35c0.41,0.23,0.75,0.56,1.02,0.99l1.65-1.29c-0.29-0.67-0.78-1.19-1.46-1.56
			c-0.69-0.37-1.52-0.55-2.48-0.55c-1.58,0-2.8,0.43-3.66,1.3c-0.85,0.87-1.28,2.08-1.28,3.64c0,1.6,0.46,2.83,1.38,3.69
			s2.23,1.28,3.92,1.28c0.49,0,1-0.02,1.52-0.05s1.03-0.11,1.51-0.22l-0.23-2.04c-0.41,0.07-0.84,0.13-1.27,0.17
			s-0.87,0.06-1.31,0.06c-1.03,0-1.82-0.25-2.37-0.77c-0.55-0.51-0.83-1.25-0.83-2.23c0-0.89,0.22-1.57,0.67-2.05
			C90.99,33.65,91.62,33.41,92.42,33.41z"/>
		<path d="M104.37,31.34c-0.75,0-1.3,0.16-1.68,0.47c-0.38,0.32-0.6,0.79-0.67,1.44h-0.22v-5.69h-2.23v13.51h2.23v-5.1
			c0-1.74,0.67-2.6,2-2.6c0.48,0,0.85,0.15,1.12,0.46c0.26,0.3,0.4,0.74,0.4,1.3v5.95h2.23v-6.22c0-1.12-0.28-1.98-0.83-2.59
			C106.16,31.65,105.38,31.34,104.37,31.34z"/>
		<path d="M118.97,35.36c0-1.26-0.41-2.22-1.22-2.88c-0.81-0.66-2.05-1-3.72-1.02l-2.02-0.03l-0.18,2.01l2.38,0.06
			c0.87,0.02,1.53,0.17,1.96,0.43c0.44,0.26,0.66,0.67,0.66,1.23v0.22c-0.16-0.03-0.31-0.09-0.47-0.11
			c-0.41-0.06-0.88-0.09-1.42-0.09c-1.36,0-2.42,0.28-3.16,0.84c-0.74,0.56-1.12,1.36-1.12,2.41c0,0.9,0.28,1.6,0.83,2.09
			c0.55,0.49,1.34,0.74,2.35,0.74c0.61,0,1.13-0.09,1.57-0.27c0.44-0.18,0.78-0.46,1.02-0.83c0.2-0.3,0.3-0.67,0.34-1.09H117
			l0.13,2.11l3.28-0.09v-1.8l-1.44-0.2V35.36z M116.83,37.38c0,0.33-0.09,0.65-0.28,0.96c-0.19,0.31-0.47,0.57-0.84,0.77
			c-0.37,0.2-0.83,0.3-1.39,0.3c-0.47,0-0.84-0.1-1.09-0.29c-0.25-0.19-0.37-0.47-0.37-0.84c0-0.83,0.71-1.25,2.13-1.25
			c0.37,0,0.72,0.01,1.05,0.02c0.25,0.01,0.51,0.05,0.78,0.1v0.12V37.38z"/>
		<path d="M129.28,31.34c-1.57,0-2.41,0.82-2.51,2.45h-0.3l-0.3-2.27h-0.13h-1.73h-1.7v1.88h1.7v5.78h-2.06v1.88h2.06h2.22h2.28
			v-1.88h-2.28v-2.22c0-1.15,0.17-2.03,0.5-2.66c0.34-0.62,0.85-0.94,1.53-0.94c0.46,0,0.8,0.14,1,0.41
			c0.21,0.27,0.31,0.71,0.31,1.33h2.21c0-1.26-0.23-2.2-0.7-2.83C130.92,31.65,130.21,31.34,129.28,31.34z"/>
		<path d="M140.51,33.25h-0.22c-0.1-0.62-0.34-1.1-0.74-1.42c-0.4-0.32-0.95-0.49-1.65-0.49c-1.22,0-2.16,0.43-2.81,1.29
			c-0.65,0.86-0.98,2.1-0.98,3.71c0,1.59,0.33,2.81,0.98,3.65s1.58,1.26,2.8,1.26c0.69,0,1.25-0.16,1.67-0.49
			c0.42-0.32,0.67-0.8,0.76-1.42h0.2l0.28,1.82l1.94-0.09V27.56h-2.23V33.25z M140.04,38.54c-0.32,0.46-0.84,0.68-1.56,0.68
			c-0.67,0-1.18-0.24-1.53-0.73c-0.35-0.49-0.52-1.2-0.52-2.15c0-0.96,0.17-1.7,0.53-2.21c0.35-0.51,0.86-0.77,1.53-0.77
			c0.67,0,1.18,0.23,1.52,0.69c0.34,0.46,0.51,1.16,0.51,2.11v0.26C140.51,37.38,140.35,38.08,140.04,38.54z"/>
		<path d="M151.95,35.61l-2.25-0.62c-0.28-0.07-0.48-0.16-0.61-0.25c-0.13-0.1-0.2-0.25-0.2-0.45c0-0.31,0.22-0.53,0.66-0.67
			c0.44-0.14,1.14-0.21,2.12-0.21c0.31,0,0.67,0.01,1.06,0.03c0.39,0.02,0.85,0.05,1.37,0.1l0.23-2.02
			c-0.46-0.06-0.91-0.1-1.33-0.13c-0.42-0.03-0.85-0.04-1.28-0.04c-1.77,0-3.08,0.24-3.91,0.73c-0.84,0.49-1.26,1.25-1.26,2.28
			c0,0.67,0.18,1.19,0.55,1.56c0.37,0.37,0.93,0.66,1.69,0.87l2.69,0.77c0.25,0.07,0.43,0.15,0.54,0.26s0.17,0.26,0.17,0.46
			c0,0.31-0.19,0.54-0.58,0.68c-0.38,0.14-1.01,0.22-1.87,0.22c-0.35,0-0.77-0.02-1.28-0.07c-0.5-0.05-1.11-0.12-1.81-0.22
			l-0.26,2.09c0.43,0.09,0.91,0.16,1.45,0.2c0.54,0.04,1.17,0.07,1.9,0.07c1.65,0,2.87-0.24,3.65-0.72
			c0.78-0.48,1.18-1.24,1.18-2.26c0-0.71-0.21-1.28-0.64-1.69C153.51,36.17,152.84,35.85,151.95,35.61z"/>
		<path d="M162.22,31.34c-1.35,0-2.4,0.43-3.15,1.29c-0.75,0.86-1.12,2.08-1.12,3.66c0,1.57,0.37,2.79,1.12,3.66
			c0.75,0.87,1.8,1.3,3.15,1.3c1.36,0,2.41-0.43,3.15-1.3c0.75-0.86,1.12-2.08,1.12-3.66c0-1.58-0.37-2.8-1.12-3.66
			C164.63,31.77,163.58,31.34,162.22,31.34z M163.65,38.43c-0.33,0.5-0.81,0.75-1.43,0.75c-0.61,0-1.09-0.25-1.42-0.75
			c-0.34-0.5-0.5-1.21-0.5-2.13c0-0.92,0.17-1.64,0.5-2.13c0.34-0.5,0.81-0.75,1.42-0.75c0.62,0,1.09,0.25,1.43,0.75
			c0.33,0.5,0.5,1.21,0.5,2.13C164.15,37.22,163.98,37.93,163.65,38.43z"/>
		<path d="M177.11,32.26c-0.55-0.61-1.33-0.92-2.34-0.92c-0.75,0-1.3,0.16-1.68,0.47c-0.38,0.32-0.6,0.79-0.67,1.44h-0.25
			l-0.19-1.73h-2v9.55h2.23v-5.01c0-1.77,0.67-2.65,2-2.65c0.48,0,0.85,0.16,1.12,0.47c0.26,0.31,0.4,0.76,0.4,1.33v5.86h2.23v-6.22
			C177.93,33.74,177.66,32.87,177.11,32.26z"/>
	</g>
</g>
</svg>
