<?xml version="1.0" encoding="utf-8"?>
<!-- Generator: Adobe Illustrator 26.1.0, SVG Export Plug-In . SVG Version: 6.00 Build 0)  -->
<svg version="1.1" id="Layer_1" xmlns="http://www.w3.org/2000/svg" xmlns:xlink="http://www.w3.org/1999/xlink" x="0px" y="0px"
	 viewBox="0 0 250 54" style="enable-background:new 0 0 250 54;" xml:space="preserve">
<style type="text/css">
	.st0{fill:#FFFFFF;}
</style>
<g>
	<path class="st0" d="M59.44,4.05v29.51h-0.92V5.03h-0.17L52,9.23v-1.1l6.17-4.09H59.44z"/>
	<path class="st0" d="M85.93,3.64c1.26,0,2.42,0.28,3.48,0.84c1.06,0.56,1.99,1.41,2.78,2.54s1.41,2.55,1.84,4.27
		c0.44,1.72,0.66,3.74,0.66,6.07c0,1.99-0.14,3.96-0.42,5.92c-0.28,1.96-0.75,3.75-1.43,5.36c-0.67,1.61-1.6,2.9-2.77,3.87
		c-1.17,0.97-2.65,1.45-4.44,1.45c-1.46,0-2.73-0.33-3.82-1c-1.09-0.67-1.95-1.59-2.58-2.77c-0.63-1.18-1-2.53-1.1-4.07h0.92
		c0.14,2.02,0.79,3.67,1.95,4.97c1.15,1.3,2.7,1.95,4.63,1.95c2.68,0,4.71-1.38,6.07-4.15c1.37-2.77,2.05-6.74,2.05-11.93h-0.11
		c-0.31,0.98-0.84,1.85-1.6,2.62s-1.66,1.36-2.69,1.8c-1.04,0.44-2.12,0.66-3.26,0.66c-1.56,0-2.98-0.4-4.26-1.21
		c-1.28-0.81-2.31-1.91-3.07-3.3c-0.76-1.39-1.15-2.96-1.15-4.71c0-1.63,0.35-3.15,1.04-4.54c0.7-1.39,1.67-2.51,2.91-3.36
		C82.83,4.06,84.28,3.64,85.93,3.64z M85.93,4.56c-1.42,0-2.69,0.37-3.8,1.11c-1.11,0.74-1.98,1.73-2.62,2.98
		c-0.64,1.25-0.96,2.63-0.96,4.15c0,1.56,0.34,2.96,1.02,4.22c0.68,1.25,1.59,2.25,2.74,2.98c1.15,0.74,2.43,1.1,3.85,1.1
		c1.12,0,2.17-0.23,3.13-0.7c0.96-0.47,1.78-1.11,2.46-1.92c0.68-0.82,1.16-1.75,1.46-2.79c0.29-1.04,0.33-2.14,0.11-3.29
		c-0.33-1.73-0.84-3.18-1.53-4.34c-0.7-1.16-1.54-2.04-2.54-2.62S87.14,4.56,85.93,4.56z"/>
	<path class="st0" d="M118.22,11.42h0.92v25.36c0,1.04-0.24,1.94-0.71,2.69c-0.47,0.76-1.09,1.34-1.86,1.76
		c-0.77,0.41-1.6,0.62-2.51,0.62c-0.06,0-0.12,0-0.19-0.01c-0.07,0-0.16-0.02-0.27-0.05l0.12-0.86c0.06,0,0.12,0,0.17,0
		c0.06,0,0.11,0,0.17,0c1.1,0,2.06-0.37,2.9-1.11c0.84-0.74,1.25-1.75,1.25-3.04V11.42z M118.68,7.39c-0.25,0-0.47-0.09-0.65-0.27
		c-0.18-0.18-0.27-0.4-0.27-0.65c0-0.25,0.09-0.47,0.27-0.65c0.18-0.18,0.4-0.27,0.65-0.27s0.47,0.09,0.65,0.27
		c0.18,0.18,0.27,0.4,0.27,0.65c0,0.25-0.09,0.47-0.27,0.65C119.15,7.3,118.93,7.39,118.68,7.39z"/>
	<path class="st0" d="M178.16,34.02c-1.79,0-3.38-0.5-4.78-1.51c-1.4-1-2.5-2.37-3.3-4.1c-0.8-1.73-1.2-3.68-1.2-5.86
		c0-2.16,0.4-4.11,1.2-5.84c0.8-1.73,1.89-3.11,3.29-4.11c1.4-1.01,2.99-1.51,4.79-1.51c1.33,0,2.54,0.29,3.65,0.86
		c1.11,0.57,2.04,1.37,2.79,2.39c0.75,1.02,1.23,2.21,1.46,3.55h-0.98c-0.3-1.74-1.09-3.15-2.37-4.24c-1.28-1.09-2.8-1.64-4.55-1.64
		c-1.59,0-3.01,0.46-4.27,1.38c-1.26,0.92-2.26,2.17-2.99,3.76c-0.73,1.59-1.1,3.39-1.1,5.41c0,1.96,0.35,3.74,1.06,5.33
		s1.69,2.86,2.95,3.8c1.26,0.94,2.71,1.41,4.35,1.41c1.18,0,2.27-0.25,3.26-0.74c0.99-0.49,1.81-1.19,2.47-2.1
		c0.66-0.9,1.07-1.95,1.25-3.16h0.98c-0.21,1.39-0.69,2.61-1.44,3.65c-0.75,1.04-1.69,1.84-2.81,2.41
		C180.74,33.73,179.5,34.02,178.16,34.02z"/>
	<path class="st0" d="M155.58,11.42l-7.9,22.13h-1.27l-7.9-22.13h0.98l7.49,20.98h0.12l7.49-20.98H155.58z"/>
	<path class="st0" d="M203.87,33.56V11.42h0.92v3.52h0.12c0.52-1.15,1.37-2.08,2.56-2.77c1.19-0.69,2.54-1.04,4.07-1.04
		c0.12,0,0.19,0,0.23,0c0.04,0,0.12,0,0.23,0v0.92c-0.12,0-0.19,0-0.23,0c-0.04,0-0.11,0-0.23,0c-1.31,0-2.47,0.28-3.48,0.85
		c-1.01,0.57-1.81,1.35-2.39,2.35c-0.58,1-0.87,2.14-0.87,3.43v14.87H203.87z"/>
	<path class="st0" d="M239.05,34.02c-1.79,0-3.38-0.5-4.78-1.51c-1.4-1-2.5-2.37-3.3-4.1c-0.8-1.73-1.2-3.68-1.2-5.86
		c0-2.16,0.4-4.11,1.2-5.84c0.8-1.73,1.89-3.11,3.29-4.11c1.4-1.01,3-1.51,4.79-1.51c1.33,0,2.54,0.29,3.65,0.86
		c1.11,0.57,2.04,1.37,2.79,2.39c0.75,1.02,1.23,2.21,1.46,3.55h-0.98c-0.3-1.74-1.09-3.15-2.37-4.24c-1.28-1.09-2.8-1.64-4.55-1.64
		c-1.58,0-3.01,0.46-4.27,1.38c-1.26,0.92-2.26,2.17-2.99,3.76c-0.73,1.59-1.1,3.39-1.1,5.41c0,1.96,0.35,3.74,1.06,5.33
		c0.71,1.59,1.69,2.86,2.95,3.8c1.26,0.94,2.71,1.41,4.35,1.41c1.18,0,2.27-0.25,3.26-0.74c0.99-0.49,1.81-1.19,2.47-2.1
		c0.66-0.9,1.07-1.95,1.25-3.16H247c-0.21,1.39-0.69,2.61-1.44,3.65s-1.69,1.84-2.81,2.41C241.62,33.73,240.39,34.02,239.05,34.02z"
		/>
</g>
<g>
	<path class="st0" d="M7.25,44.75v5.66H7.07L3.2,45.08H3.18v5.33H3v-5.66h0.18l3.87,5.33h0.02v-5.33H7.25z"/>
	<path class="st0" d="M15.15,50.5c-0.37,0-0.69-0.1-0.97-0.29c-0.28-0.19-0.49-0.46-0.65-0.79c-0.15-0.33-0.23-0.71-0.23-1.12
		c0-0.42,0.08-0.79,0.23-1.12c0.15-0.33,0.36-0.6,0.63-0.79c0.27-0.19,0.57-0.29,0.9-0.29c0.25,0,0.48,0.05,0.69,0.16
		c0.21,0.11,0.39,0.25,0.55,0.44c0.16,0.19,0.28,0.4,0.37,0.64c0.09,0.24,0.13,0.5,0.13,0.78v0.18h-3.41v-0.18h3.23
		c0-0.34-0.07-0.65-0.21-0.93c-0.14-0.28-0.33-0.5-0.56-0.66c-0.24-0.16-0.5-0.25-0.79-0.25c-0.29,0-0.55,0.09-0.79,0.26
		c-0.24,0.17-0.42,0.41-0.57,0.71c-0.14,0.3-0.22,0.64-0.22,1.01v0.02c0,0.37,0.07,0.71,0.2,1.02c0.13,0.31,0.32,0.56,0.57,0.75
		c0.25,0.19,0.55,0.28,0.91,0.28c0.26,0,0.48-0.05,0.66-0.14c0.18-0.09,0.32-0.2,0.43-0.32c0.11-0.12,0.19-0.22,0.24-0.31l0.14,0.1
		c-0.06,0.11-0.16,0.23-0.28,0.36c-0.12,0.13-0.29,0.24-0.48,0.34C15.66,50.46,15.43,50.5,15.15,50.5z"/>
	<path class="st0" d="M23.63,50.41l-1.26-4.25h0.19l1.18,4.01h0.02l1.19-4.01h0.18l1.19,4.01h0.02l1.18-4.01h0.19l-1.26,4.25h-0.24
		l-1.16-3.92h-0.02l-1.16,3.92H23.63z"/>
	<path class="st0" d="M48.6,46.17v0.18h-1.68v-0.18H48.6z M47.54,45.15h0.18v4.37c0,0.17,0.04,0.31,0.11,0.43
		c0.07,0.12,0.17,0.21,0.29,0.27c0.12,0.06,0.25,0.1,0.39,0.1c0.05,0,0.1,0,0.15-0.01c0.05-0.01,0.09-0.02,0.14-0.04l0.06,0.17
		c-0.06,0.02-0.11,0.04-0.16,0.05c-0.05,0.01-0.11,0.02-0.18,0.02c-0.17,0-0.33-0.04-0.48-0.12s-0.27-0.19-0.36-0.34
		c-0.09-0.15-0.13-0.32-0.13-0.52V45.15z"/>
	<path class="st0" d="M56.12,50.5c-0.33,0-0.63-0.1-0.9-0.29c-0.27-0.19-0.48-0.46-0.63-0.79c-0.15-0.33-0.23-0.71-0.23-1.12
		c0-0.42,0.08-0.79,0.23-1.13c0.15-0.33,0.36-0.59,0.63-0.79c0.26-0.19,0.56-0.29,0.9-0.29c0.33,0,0.63,0.1,0.9,0.29
		c0.26,0.19,0.47,0.46,0.63,0.79c0.16,0.33,0.23,0.71,0.23,1.12c0,0.42-0.08,0.79-0.23,1.12c-0.15,0.33-0.36,0.6-0.63,0.79
		C56.75,50.41,56.45,50.5,56.12,50.5z M56.12,50.33c0.3,0,0.57-0.09,0.81-0.27c0.24-0.18,0.43-0.42,0.57-0.72
		c0.14-0.31,0.21-0.65,0.21-1.03c0-0.38-0.07-0.73-0.21-1.03c-0.14-0.3-0.33-0.55-0.57-0.72c-0.24-0.18-0.51-0.27-0.81-0.27
		c-0.3,0-0.57,0.09-0.81,0.27c-0.24,0.18-0.43,0.42-0.57,0.72c-0.14,0.31-0.21,0.65-0.21,1.03c0,0.38,0.07,0.73,0.21,1.03
		c0.14,0.31,0.33,0.55,0.57,0.72C55.55,50.24,55.82,50.33,56.12,50.33z"/>
	<path class="st0" d="M65.3,50.5c-0.33,0-0.63-0.1-0.9-0.29c-0.27-0.19-0.48-0.46-0.63-0.79c-0.15-0.33-0.23-0.71-0.23-1.12
		c0-0.42,0.08-0.79,0.23-1.13c0.15-0.33,0.36-0.59,0.63-0.79c0.26-0.19,0.56-0.29,0.9-0.29c0.33,0,0.63,0.1,0.9,0.29
		c0.26,0.19,0.47,0.46,0.63,0.79c0.16,0.33,0.23,0.71,0.23,1.12c0,0.42-0.08,0.79-0.23,1.12c-0.15,0.33-0.36,0.6-0.63,0.79
		C65.94,50.41,65.64,50.5,65.3,50.5z M65.3,50.33c0.3,0,0.57-0.09,0.81-0.27c0.24-0.18,0.43-0.42,0.57-0.72
		c0.14-0.31,0.21-0.65,0.21-1.03c0-0.38-0.07-0.73-0.21-1.03c-0.14-0.3-0.33-0.55-0.57-0.72c-0.24-0.18-0.51-0.27-0.81-0.27
		c-0.3,0-0.57,0.09-0.81,0.27c-0.24,0.18-0.43,0.42-0.57,0.72c-0.14,0.31-0.21,0.65-0.21,1.03c0,0.38,0.07,0.73,0.21,1.03
		c0.14,0.31,0.33,0.55,0.57,0.72C64.73,50.24,65,50.33,65.3,50.33z"/>
	<path class="st0" d="M73.16,44.75v5.66h-0.18v-5.66H73.16z"/>
	<path class="st0" d="M81.88,47.06l-0.18,0.04c-0.06-0.18-0.14-0.34-0.24-0.46c-0.1-0.12-0.23-0.21-0.38-0.28
		c-0.15-0.06-0.32-0.09-0.51-0.09c-0.34,0-0.61,0.09-0.82,0.26c-0.21,0.17-0.32,0.4-0.32,0.68c0,0.22,0.07,0.41,0.21,0.56
		c0.14,0.15,0.36,0.26,0.65,0.33l0.66,0.17c0.31,0.08,0.55,0.21,0.71,0.39c0.16,0.18,0.24,0.41,0.24,0.67
		c0,0.23-0.06,0.43-0.18,0.61c-0.12,0.17-0.29,0.31-0.5,0.41c-0.21,0.1-0.46,0.15-0.74,0.15c-0.38,0-0.69-0.09-0.93-0.28
		c-0.24-0.18-0.4-0.45-0.47-0.79l0.18-0.04c0.06,0.3,0.2,0.53,0.4,0.69c0.21,0.16,0.48,0.24,0.81,0.24c0.37,0,0.67-0.09,0.9-0.27
		c0.23-0.18,0.34-0.42,0.34-0.71c0-0.22-0.07-0.41-0.2-0.56c-0.14-0.15-0.34-0.26-0.61-0.33l-0.66-0.17
		c-0.33-0.08-0.57-0.21-0.74-0.4c-0.17-0.18-0.25-0.41-0.25-0.67c0-0.22,0.06-0.42,0.17-0.59c0.11-0.17,0.27-0.3,0.46-0.39
		c0.2-0.09,0.43-0.14,0.68-0.14c0.33,0,0.6,0.08,0.82,0.24C81.62,46.5,81.78,46.74,81.88,47.06z"/>
	<path class="st0" d="M103.04,46.17v0.18h-1.68v-0.18H103.04z M101.94,50.41v-4.95c0-0.2,0.04-0.37,0.13-0.52
		c0.09-0.15,0.21-0.26,0.36-0.34c0.15-0.08,0.31-0.12,0.48-0.12c0.07,0,0.13,0.01,0.18,0.02c0.05,0.01,0.11,0.03,0.16,0.04
		l-0.06,0.17c-0.05-0.02-0.09-0.03-0.14-0.04c-0.04-0.01-0.09-0.01-0.15-0.01c-0.21,0-0.4,0.07-0.56,0.21
		c-0.16,0.14-0.24,0.34-0.24,0.58l-0.01,4.95H101.94z"/>
	<path class="st0" d="M110.16,50.5c-0.33,0-0.63-0.1-0.9-0.29c-0.27-0.19-0.48-0.46-0.63-0.79c-0.15-0.33-0.23-0.71-0.23-1.12
		c0-0.42,0.08-0.79,0.23-1.13c0.15-0.33,0.36-0.59,0.63-0.79c0.26-0.19,0.56-0.29,0.9-0.29c0.33,0,0.63,0.1,0.9,0.29
		c0.26,0.19,0.47,0.46,0.63,0.79c0.16,0.33,0.23,0.71,0.23,1.12c0,0.42-0.08,0.79-0.23,1.12c-0.15,0.33-0.36,0.6-0.63,0.79
		C110.79,50.41,110.49,50.5,110.16,50.5z M110.16,50.33c0.3,0,0.57-0.09,0.81-0.27c0.24-0.18,0.43-0.42,0.57-0.72
		c0.14-0.31,0.21-0.65,0.21-1.03c0-0.38-0.07-0.73-0.21-1.03c-0.14-0.3-0.33-0.55-0.57-0.72c-0.24-0.18-0.51-0.27-0.81-0.27
		c-0.3,0-0.57,0.09-0.81,0.27c-0.24,0.18-0.43,0.42-0.57,0.72c-0.14,0.31-0.21,0.65-0.21,1.03c0,0.38,0.07,0.73,0.21,1.03
		c0.14,0.31,0.33,0.55,0.57,0.72C109.59,50.24,109.86,50.33,110.16,50.33z"/>
	<path class="st0" d="M117.84,50.41v-4.25h0.18v0.68h0.02c0.1-0.22,0.26-0.4,0.49-0.53c0.23-0.13,0.49-0.2,0.78-0.2
		c0.02,0,0.04,0,0.04,0c0.01,0,0.02,0,0.04,0v0.18c-0.02,0-0.04,0-0.04,0c-0.01,0-0.02,0-0.04,0c-0.25,0-0.47,0.05-0.67,0.16
		c-0.19,0.11-0.35,0.26-0.46,0.45c-0.11,0.19-0.17,0.41-0.17,0.66v2.85H117.84z"/>
	<path class="st0" d="M138.77,50.41v-4.25h0.18v0.63h0.02c0.08-0.21,0.22-0.37,0.42-0.5c0.2-0.13,0.44-0.19,0.72-0.19
		c0.32,0,0.58,0.08,0.77,0.24c0.19,0.16,0.32,0.37,0.39,0.64h0.02c0.07-0.27,0.21-0.48,0.43-0.64c0.21-0.16,0.48-0.24,0.8-0.24
		c0.43,0,0.74,0.14,0.94,0.41c0.2,0.27,0.31,0.62,0.31,1.04v2.85h-0.18v-2.85c0-0.38-0.08-0.68-0.25-0.92
		c-0.17-0.24-0.44-0.35-0.82-0.35s-0.66,0.12-0.86,0.36c-0.2,0.24-0.3,0.54-0.3,0.91v2.85h-0.18v-2.85c0-0.38-0.08-0.68-0.25-0.92
		c-0.17-0.24-0.44-0.35-0.82-0.35c-0.25,0-0.46,0.05-0.64,0.16c-0.17,0.11-0.3,0.26-0.39,0.45c-0.09,0.19-0.13,0.41-0.13,0.66v2.85
		H138.77z"/>
	<path class="st0" d="M151.46,50.5c-0.33,0-0.63-0.1-0.9-0.29c-0.27-0.19-0.48-0.46-0.63-0.79c-0.15-0.33-0.23-0.71-0.23-1.12
		c0-0.42,0.08-0.79,0.23-1.13c0.15-0.33,0.36-0.59,0.63-0.79c0.26-0.19,0.56-0.29,0.9-0.29c0.33,0,0.63,0.1,0.9,0.29
		c0.26,0.19,0.47,0.46,0.63,0.79c0.16,0.33,0.23,0.71,0.23,1.12c0,0.42-0.08,0.79-0.23,1.12c-0.15,0.33-0.36,0.6-0.63,0.79
		C152.09,50.41,151.79,50.5,151.46,50.5z M151.46,50.33c0.3,0,0.57-0.09,0.81-0.27c0.24-0.18,0.43-0.42,0.57-0.72
		c0.14-0.31,0.21-0.65,0.21-1.03c0-0.38-0.07-0.73-0.21-1.03c-0.14-0.3-0.33-0.55-0.57-0.72c-0.24-0.18-0.51-0.27-0.81-0.27
		c-0.3,0-0.57,0.09-0.81,0.27c-0.24,0.18-0.43,0.42-0.57,0.72c-0.14,0.31-0.21,0.65-0.21,1.03c0,0.38,0.07,0.73,0.21,1.03
		c0.14,0.31,0.33,0.55,0.57,0.72C150.89,50.24,151.16,50.33,151.46,50.33z"/>
	<path class="st0" d="M160.52,50.5c-0.34,0-0.63-0.1-0.87-0.29s-0.43-0.46-0.57-0.79c-0.13-0.33-0.2-0.71-0.2-1.13
		c0-0.42,0.07-0.79,0.2-1.12c0.13-0.33,0.32-0.6,0.57-0.79c0.25-0.19,0.53-0.29,0.87-0.29c0.23,0,0.43,0.05,0.62,0.14
		c0.19,0.09,0.35,0.23,0.5,0.4c0.14,0.17,0.25,0.38,0.32,0.61h0.02v-2.5h0.18v5.66h-0.18v-1.06h-0.02
		c-0.08,0.23-0.19,0.44-0.32,0.61s-0.3,0.31-0.49,0.4C160.96,50.46,160.75,50.5,160.52,50.5z M160.52,50.33
		c0.3,0,0.56-0.09,0.78-0.27c0.22-0.18,0.39-0.42,0.5-0.72c0.12-0.3,0.18-0.65,0.18-1.03c0-0.38-0.06-0.73-0.18-1.03
		c-0.12-0.3-0.29-0.55-0.51-0.72c-0.22-0.18-0.48-0.27-0.78-0.27c-0.3,0-0.56,0.09-0.78,0.27c-0.22,0.18-0.39,0.42-0.51,0.72
		c-0.12,0.31-0.18,0.65-0.18,1.03c0,0.38,0.06,0.73,0.18,1.03c0.12,0.31,0.29,0.55,0.5,0.72C159.96,50.24,160.22,50.33,160.52,50.33
		z"/>
	<path class="st0" d="M170.06,50.5c-0.37,0-0.69-0.1-0.97-0.29c-0.28-0.19-0.49-0.46-0.65-0.79c-0.15-0.33-0.23-0.71-0.23-1.12
		c0-0.42,0.08-0.79,0.23-1.12c0.15-0.33,0.36-0.6,0.63-0.79c0.26-0.19,0.56-0.29,0.9-0.29c0.25,0,0.48,0.05,0.69,0.16
		c0.21,0.11,0.39,0.25,0.55,0.44c0.16,0.19,0.28,0.4,0.37,0.64c0.09,0.24,0.13,0.5,0.13,0.78v0.18h-3.41v-0.18h3.23
		c0-0.34-0.07-0.65-0.21-0.93c-0.14-0.28-0.33-0.5-0.56-0.66c-0.24-0.16-0.5-0.25-0.79-0.25c-0.29,0-0.56,0.09-0.79,0.26
		c-0.24,0.17-0.43,0.41-0.57,0.71c-0.14,0.3-0.22,0.64-0.22,1.01v0.02c0,0.37,0.06,0.71,0.19,1.02c0.13,0.31,0.32,0.56,0.57,0.75
		c0.25,0.19,0.55,0.28,0.91,0.28c0.26,0,0.48-0.05,0.66-0.14c0.18-0.09,0.32-0.2,0.43-0.32c0.11-0.12,0.19-0.22,0.24-0.31l0.14,0.1
		c-0.06,0.11-0.16,0.23-0.28,0.36c-0.13,0.13-0.29,0.24-0.48,0.34C170.57,50.46,170.34,50.5,170.06,50.5z"/>
	<path class="st0" d="M177.63,50.41v-4.25h0.18v0.68h0.02c0.1-0.22,0.26-0.4,0.49-0.53c0.23-0.13,0.49-0.2,0.78-0.2
		c0.02,0,0.04,0,0.04,0c0.01,0,0.02,0,0.04,0v0.18c-0.02,0-0.04,0-0.04,0c-0.01,0-0.02,0-0.04,0c-0.25,0-0.47,0.05-0.67,0.16
		c-0.19,0.11-0.35,0.26-0.46,0.45c-0.11,0.19-0.17,0.41-0.17,0.66v2.85H177.63z"/>
	<path class="st0" d="M185.02,47.56v2.85h-0.18v-4.25h0.18v0.68h0.02c0.1-0.22,0.26-0.4,0.49-0.53c0.23-0.13,0.49-0.2,0.78-0.2
		c0.28,0,0.53,0.06,0.75,0.19c0.22,0.12,0.39,0.29,0.51,0.51c0.12,0.22,0.19,0.47,0.19,0.75v2.85h-0.18v-2.85
		c0-0.38-0.12-0.68-0.35-0.92s-0.54-0.35-0.92-0.35c-0.25,0-0.47,0.05-0.67,0.16c-0.19,0.11-0.35,0.26-0.46,0.45
		C185.07,47.09,185.02,47.31,185.02,47.56z"/>
	<path class="st0" d="M207.84,47.56v2.85h-0.18v-4.25h0.18v0.68h0.02c0.1-0.22,0.26-0.4,0.49-0.53c0.23-0.13,0.49-0.2,0.78-0.2
		c0.28,0,0.53,0.06,0.75,0.19c0.22,0.12,0.39,0.29,0.51,0.51c0.12,0.22,0.19,0.47,0.19,0.75v2.85h-0.18v-2.85
		c0-0.38-0.12-0.68-0.35-0.92s-0.54-0.35-0.92-0.35c-0.25,0-0.47,0.05-0.67,0.16c-0.19,0.11-0.35,0.26-0.46,0.45
		C207.9,47.09,207.84,47.31,207.84,47.56z"/>
	<path class="st0" d="M218.36,50.5c-0.37,0-0.69-0.1-0.97-0.29c-0.28-0.19-0.49-0.46-0.65-0.79c-0.15-0.33-0.23-0.71-0.23-1.12
		c0-0.42,0.08-0.79,0.23-1.12c0.15-0.33,0.36-0.6,0.63-0.79c0.26-0.19,0.56-0.29,0.9-0.29c0.25,0,0.48,0.05,0.69,0.16
		c0.21,0.11,0.39,0.25,0.55,0.44c0.16,0.19,0.28,0.4,0.37,0.64c0.09,0.24,0.13,0.5,0.13,0.78v0.18h-3.41v-0.18h3.23
		c0-0.34-0.07-0.65-0.21-0.93c-0.14-0.28-0.33-0.5-0.56-0.66c-0.24-0.16-0.5-0.25-0.79-0.25c-0.29,0-0.56,0.09-0.79,0.26
		c-0.24,0.17-0.43,0.41-0.57,0.71c-0.14,0.3-0.22,0.64-0.22,1.01v0.02c0,0.37,0.06,0.71,0.19,1.02c0.13,0.31,0.32,0.56,0.57,0.75
		c0.25,0.19,0.55,0.28,0.91,0.28c0.26,0,0.48-0.05,0.66-0.14c0.18-0.09,0.32-0.2,0.43-0.32c0.11-0.12,0.19-0.22,0.24-0.31l0.14,0.1
		c-0.06,0.11-0.16,0.23-0.28,0.36c-0.13,0.13-0.29,0.24-0.48,0.34C218.87,50.46,218.63,50.5,218.36,50.5z"/>
	<path class="st0" d="M227.52,50.5c-0.37,0-0.69-0.1-0.97-0.29c-0.28-0.19-0.49-0.46-0.65-0.79c-0.15-0.33-0.23-0.71-0.23-1.12
		c0-0.42,0.08-0.79,0.23-1.12c0.15-0.33,0.36-0.6,0.63-0.79c0.26-0.19,0.56-0.29,0.9-0.29c0.25,0,0.48,0.05,0.69,0.16
		c0.21,0.11,0.39,0.25,0.55,0.44c0.16,0.19,0.28,0.4,0.37,0.64c0.09,0.24,0.13,0.5,0.13,0.78v0.18h-3.41v-0.18h3.23
		c0-0.34-0.07-0.65-0.21-0.93c-0.14-0.28-0.33-0.5-0.56-0.66c-0.24-0.16-0.5-0.25-0.79-0.25c-0.29,0-0.56,0.09-0.79,0.26
		c-0.24,0.17-0.43,0.41-0.57,0.71c-0.14,0.3-0.22,0.64-0.22,1.01v0.02c0,0.37,0.06,0.71,0.19,1.02c0.13,0.31,0.32,0.56,0.57,0.75
		c0.25,0.19,0.55,0.28,0.91,0.28c0.26,0,0.48-0.05,0.66-0.14c0.18-0.09,0.32-0.2,0.43-0.32c0.11-0.12,0.19-0.22,0.24-0.31l0.14,0.1
		c-0.06,0.11-0.16,0.23-0.28,0.36c-0.13,0.13-0.29,0.24-0.48,0.34C228.03,50.46,227.8,50.5,227.52,50.5z"/>
	<path class="st0" d="M236.47,50.5c-0.34,0-0.63-0.1-0.87-0.29s-0.43-0.46-0.57-0.79c-0.13-0.33-0.2-0.71-0.2-1.13
		c0-0.42,0.07-0.79,0.2-1.12c0.13-0.33,0.32-0.6,0.57-0.79c0.25-0.19,0.53-0.29,0.87-0.29c0.23,0,0.43,0.05,0.62,0.14
		c0.19,0.09,0.35,0.23,0.5,0.4c0.14,0.17,0.25,0.38,0.32,0.61h0.02v-2.5h0.18v5.66h-0.18v-1.06h-0.02
		c-0.08,0.23-0.19,0.44-0.32,0.61s-0.3,0.31-0.49,0.4C236.91,50.46,236.7,50.5,236.47,50.5z M236.47,50.33
		c0.3,0,0.56-0.09,0.78-0.27c0.22-0.18,0.39-0.42,0.5-0.72c0.12-0.3,0.18-0.65,0.18-1.03c0-0.38-0.06-0.73-0.18-1.03
		c-0.12-0.3-0.29-0.55-0.51-0.72c-0.22-0.18-0.48-0.27-0.78-0.27c-0.3,0-0.56,0.09-0.78,0.27c-0.22,0.18-0.39,0.42-0.51,0.72
		c-0.12,0.31-0.18,0.65-0.18,1.03c0,0.38,0.06,0.73,0.18,1.03c0.12,0.31,0.29,0.55,0.5,0.72C235.91,50.24,236.17,50.33,236.47,50.33
		z"/>
	<path class="st0" d="M246.97,47.06l-0.18,0.04c-0.06-0.18-0.14-0.34-0.24-0.46c-0.1-0.12-0.23-0.21-0.38-0.28
		c-0.15-0.06-0.32-0.09-0.51-0.09c-0.34,0-0.61,0.09-0.82,0.26c-0.21,0.17-0.32,0.4-0.32,0.68c0,0.22,0.07,0.41,0.21,0.56
		c0.14,0.15,0.36,0.26,0.65,0.33l0.66,0.17c0.31,0.08,0.55,0.21,0.71,0.39c0.16,0.18,0.24,0.41,0.24,0.67
		c0,0.23-0.06,0.43-0.18,0.61c-0.12,0.17-0.29,0.31-0.5,0.41c-0.21,0.1-0.46,0.15-0.74,0.15c-0.38,0-0.69-0.09-0.93-0.28
		s-0.4-0.45-0.47-0.79l0.18-0.04c0.06,0.3,0.2,0.53,0.4,0.69c0.21,0.16,0.48,0.24,0.81,0.24c0.37,0,0.67-0.09,0.9-0.27
		c0.23-0.18,0.34-0.42,0.34-0.71c0-0.22-0.07-0.41-0.2-0.56c-0.14-0.15-0.34-0.26-0.61-0.33l-0.66-0.17
		c-0.33-0.08-0.57-0.21-0.74-0.4c-0.17-0.18-0.25-0.41-0.25-0.67c0-0.22,0.06-0.42,0.17-0.59c0.11-0.17,0.27-0.3,0.46-0.39
		c0.2-0.09,0.43-0.14,0.68-0.14c0.33,0,0.6,0.08,0.82,0.24C246.7,46.5,246.86,46.74,246.97,47.06z"/>
</g>
<g>
	<path class="st0" d="M39.98,21.24c-0.12,0.84-0.21,1.69-0.37,2.52c-0.91,4.68-3.23,8.53-6.87,11.59c-0.06,0.05-0.12,0.1-0.19,0.15
		c-0.26,0.19-0.54,0.27-0.76-0.03c-0.21-0.28-0.11-0.52,0.14-0.75c0.71-0.65,1.45-1.28,2.1-1.99c7.26-8.04,6.45-20.15-1.81-27.18
		c-0.13-0.11-0.33-0.2-0.39-0.35c-0.09-0.19-0.17-0.49-0.07-0.63c0.09-0.13,0.4-0.15,0.61-0.15c0.12,0,0.24,0.15,0.35,0.24
		c4.24,3.57,6.63,8.12,7.17,13.64c0.02,0.21,0.06,0.41,0.1,0.61C39.98,19.69,39.98,20.47,39.98,21.24z"/>
	<path class="st0" d="M21.05,20.05c0.01,4.89,0.01,9.79,0.02,14.68c0,0.16,0.01,0.32,0,0.48c-0.03,0.54-0.41,0.74-0.85,0.44
		c-0.99-0.68-1.98-1.38-2.96-2.08c-2.14-1.51-4.28-3.02-6.44-4.52c-0.19-0.13-0.47-0.21-0.71-0.21c-2.4-0.01-4.8,0-7.19,0
		c-0.72,0-0.83-0.11-0.83-0.85c-0.01-5.31-0.01-10.62-0.02-15.93c0-0.7,0.12-0.82,0.8-0.82c2.4,0,4.8,0,7.19-0.02
		c0.27,0,0.57-0.1,0.79-0.25c3.03-2.12,6.05-4.27,9.08-6.39c0.23-0.16,0.57-0.32,0.81-0.27c0.39,0.09,0.31,0.5,0.31,0.82
		C21.05,10.11,21.05,15.08,21.05,20.05C21.06,20.05,21.06,20.05,21.05,20.05z M20,5.78c-0.12,0.07-0.22,0.11-0.31,0.17
		c-2.77,1.96-5.55,3.91-8.31,5.89c-0.39,0.28-0.78,0.4-1.25,0.4c-2.16-0.01-4.31-0.01-6.47-0.01c-0.19,0-0.38,0-0.58,0
		c0.01,5.23,0.01,10.4,0.02,15.6c0.11,0.01,0.18,0.03,0.26,0.03c2.25-0.01,4.51,0,6.76-0.03c0.47-0.01,0.87,0.1,1.25,0.38
		c2.75,1.96,5.51,3.9,8.27,5.85c0.1,0.07,0.21,0.13,0.38,0.22C20.03,24.75,20.02,15.29,20,5.78z"/>
	<path class="st0" d="M34.62,19.96c-0.06,4.32-1.71,7.87-4.93,10.68c-0.28,0.25-0.61,0.62-0.98,0.19c-0.37-0.42,0.03-0.68,0.32-0.94
		c6.17-5.34,6.13-14.52-0.08-19.82c-0.1-0.08-0.25-0.15-0.28-0.26c-0.05-0.2-0.09-0.46,0-0.61c0.07-0.12,0.36-0.16,0.54-0.14
		c0.16,0.02,0.3,0.17,0.43,0.29C32.9,12.16,34.52,15.72,34.62,19.96z"/>
	<path class="st0" d="M28.92,20.06c-0.07,2.26-0.89,4.19-2.6,5.71c-0.07,0.06-0.14,0.13-0.22,0.19c-0.25,0.17-0.52,0.23-0.73-0.05
		c-0.2-0.26-0.12-0.48,0.09-0.73c0.57-0.65,1.22-1.26,1.64-2c1.49-2.65,0.96-5.85-1.22-7.97c-0.12-0.11-0.23-0.23-0.35-0.33
		c-0.29-0.22-0.4-0.49-0.15-0.78c0.26-0.31,0.55-0.19,0.8,0.03c1.52,1.29,2.44,2.92,2.69,4.91c0.03,0.22,0.04,0.45,0.05,0.67
		C28.92,19.84,28.92,19.95,28.92,20.06z"/>
</g>
</svg>
