<?xml version="1.0" encoding="utf-8"?>
<!-- Generator: Adobe Illustrator 19.0.0, SVG Export Plug-In . SVG Version: 6.00 Build 0)  -->
<svg version="1.1" id="Layer_1" xmlns="http://www.w3.org/2000/svg" xmlns:xlink="http://www.w3.org/1999/xlink" x="0px" y="0px"
	 viewBox="0 0 158.5 166.6" style="enable-background:new 0 0 158.5 166.6;" xml:space="preserve">
<style type="text/css">
	.st0{opacity:0.3;fill:#CFC4B8;}
	.st1{enable-background:new    ;}
	.st2{fill:#E4E3EE;}
	.st3{fill:#B7B6E3;}
	.st4{fill:#919DD6;}
	.st5{fill:#12B0F3;}
	.st6{fill:#1393F2;}
	.st7{fill:#05D4F5;}
	.st8{fill:#D4D5F0;}
	.st9{fill:#C4C3EC;}
	.st10{fill:#FFFFFF;}
	.st11{fill:#EEEFF2;}
	.st12{clip-path:url(#SVGID_2_);enable-background:new    ;}
	.st13{clip-path:url(#SVGID_4_);enable-background:new    ;}
	.st14{clip-path:url(#SVGID_6_);enable-background:new    ;}
	.st15{clip-path:url(#SVGID_8_);enable-background:new    ;}
	.st16{clip-path:url(#SVGID_10_);enable-background:new    ;}
	.st17{fill:#DAD9E8;}
	.st18{clip-path:url(#SVGID_12_);enable-background:new    ;}
	.st19{fill:#EBEBF1;}
	.st20{clip-path:url(#SVGID_14_);enable-background:new    ;}
	.st21{clip-path:url(#SVGID_16_);enable-background:new    ;}
	.st22{clip-path:url(#SVGID_18_);enable-background:new    ;}
	.st23{clip-path:url(#SVGID_20_);enable-background:new    ;}
	.st24{fill:#171C29;}
	.st25{fill:#042F8F;}
	.st26{clip-path:url(#SVGID_22_);enable-background:new    ;}
	.st27{clip-path:url(#SVGID_24_);enable-background:new    ;}
	.st28{clip-path:url(#SVGID_26_);enable-background:new    ;}
	.st29{clip-path:url(#SVGID_28_);enable-background:new    ;}
	.st30{clip-path:url(#SVGID_30_);enable-background:new    ;}
	.st31{clip-path:url(#SVGID_32_);enable-background:new    ;}
</style>
<g>
	<g>
		<polygon class="st0" points="82.9,137.6 93,137.6 131.6,115.3 97.7,95.3 73.5,108.6 		"/>
		<g>
			<g>
				<g class="st1">
					<g>
						<polygon class="st2" points="46,106.7 47.8,105.7 50.3,107.1 48.5,108.1 						"/>
					</g>
					<g>
						<polygon class="st3" points="50.6,105.9 52.4,104.9 50.6,107.9 48.8,108.9 						"/>
					</g>
					<g>
						<polygon class="st4" points="54.9,107.8 56.7,106.7 56.7,107.3 54.9,108.4 						"/>
					</g>
					<g>
						<polygon class="st2" points="50.3,105.1 52.1,104.1 56.7,106.7 54.9,107.8 						"/>
					</g>
					<g>
						<polygon class="st4" points="54.9,107.8 54.9,108.4 50.6,105.9 48.8,108.9 46,107.3 46,106.7 48.5,108.1 50.3,105.1 						"/>
					</g>
				</g>
			</g>
			<g>
				<g class="st1">
					<g>
						<polygon class="st2" points="52.7,102.9 54.5,101.9 56.9,103.3 55.1,104.3 						"/>
					</g>
					<g>
						<polygon class="st3" points="57.3,102.1 59.1,101.1 57.3,104.1 55.5,105.1 						"/>
					</g>
					<g>
						<polygon class="st4" points="61.6,104 63.4,102.9 63.4,103.5 61.6,104.6 						"/>
					</g>
					<g>
						<polygon class="st2" points="57,101.3 58.8,100.3 63.4,102.9 61.6,104 						"/>
					</g>
					<g>
						<polygon class="st4" points="61.6,104 61.6,104.6 57.3,102.1 55.5,105.1 52.7,103.5 52.7,102.9 55.1,104.3 57,101.3 						"/>
					</g>
				</g>
			</g>
			<g>
				<g class="st1">
					<g>
						<polygon class="st2" points="59.1,99.1 60.9,98 63.4,99.5 61.6,100.5 						"/>
					</g>
					<g>
						<polygon class="st3" points="63.7,98.3 65.5,97.3 63.7,100.3 61.9,101.3 						"/>
					</g>
					<g>
						<polygon class="st4" points="68,100.1 69.8,99.1 69.8,99.7 68,100.8 						"/>
					</g>
					<g>
						<polygon class="st2" points="63.4,97.5 65.2,96.5 69.8,99.1 68,100.1 						"/>
					</g>
					<g>
						<polygon class="st4" points="68,100.1 68,100.8 63.7,98.3 61.9,101.3 59.1,99.7 59.1,99.1 61.6,100.5 63.4,97.5 						"/>
					</g>
				</g>
			</g>
			<g>
				<g class="st1">
					<g>
						<polygon class="st2" points="39.4,110.9 41.2,109.8 43.7,111.2 41.9,112.3 						"/>
					</g>
					<g>
						<polygon class="st3" points="44,110.1 45.8,109 44,112 42.2,113.1 						"/>
					</g>
					<g>
						<polygon class="st4" points="48.3,111.9 50.1,110.9 50.1,111.5 48.3,112.5 						"/>
					</g>
					<g>
						<polygon class="st2" points="43.7,109.3 45.5,108.2 50.1,110.9 48.3,111.9 						"/>
					</g>
					<g>
						<polygon class="st4" points="48.3,111.9 48.3,112.5 44,110.1 42.2,113.1 39.4,111.5 39.4,110.9 41.9,112.3 43.7,109.3 						
							"/>
					</g>
				</g>
			</g>
			<g>
				<g class="st1">
					<g>
						<polygon class="st2" points="66.2,95.1 68,94 70.5,95.4 68.7,96.5 						"/>
					</g>
					<g>
						<polygon class="st3" points="70.8,94.3 72.6,93.2 70.8,96.3 69,97.3 						"/>
					</g>
					<g>
						<polygon class="st4" points="75.1,96.1 76.9,95.1 76.9,95.7 75.1,96.7 						"/>
					</g>
					<g>
						<polygon class="st2" points="70.5,93.5 72.3,92.4 76.9,95.1 75.1,96.1 						"/>
					</g>
					<g>
						<polygon class="st4" points="75.1,96.1 75.1,96.7 70.8,94.3 69,97.3 66.2,95.7 66.2,95.1 68.7,96.5 70.5,93.5 						"/>
					</g>
				</g>
			</g>
			<g>
				<g class="st1">
					<g>
						<polygon class="st2" points="73.1,91.2 74.9,90.1 77.3,91.6 75.5,92.6 						"/>
					</g>
					<g>
						<polygon class="st3" points="77.7,90.4 79.5,89.4 77.6,92.4 75.8,93.4 						"/>
					</g>
					<g>
						<polygon class="st4" points="81.9,92.2 83.7,91.2 83.7,91.8 81.9,92.9 						"/>
					</g>
					<g>
						<polygon class="st2" points="77.4,89.6 79.2,88.5 83.7,91.2 81.9,92.2 						"/>
					</g>
					<g>
						<polygon class="st4" points="81.9,92.2 81.9,92.9 77.7,90.4 75.8,93.4 73.1,91.8 73.1,91.2 75.5,92.6 77.4,89.6 						"/>
					</g>
				</g>
			</g>
		</g>
		<g>
			<g>
				<g class="st1">
					<g>
						<polygon class="st2" points="119.3,106.8 117.5,105.8 115.1,107.2 116.9,108.2 						"/>
					</g>
					<g>
						<polygon class="st3" points="114.7,106 112.9,105 114.7,108 116.5,109 						"/>
					</g>
					<g>
						<polygon class="st4" points="110.4,107.9 108.6,106.8 108.6,107.4 110.4,108.5 						"/>
					</g>
					<g>
						<polygon class="st2" points="115,105.2 113.2,104.2 108.6,106.8 110.4,107.9 						"/>
					</g>
					<g>
						<polygon class="st4" points="110.4,107.9 110.4,108.5 114.7,106 116.5,109 119.3,107.4 119.3,106.8 116.9,108.2 115,105.2 
													"/>
					</g>
				</g>
			</g>
			<g>
				<g class="st1">
					<g>
						<polygon class="st2" points="112.6,103 110.8,102 108.4,103.4 110.2,104.4 						"/>
					</g>
					<g>
						<polygon class="st3" points="108,102.2 106.2,101.2 108,104.2 109.8,105.2 						"/>
					</g>
					<g>
						<polygon class="st4" points="103.7,104.1 101.9,103 101.9,103.6 103.7,104.7 						"/>
					</g>
					<g>
						<polygon class="st2" points="108.3,101.4 106.5,100.4 101.9,103 103.7,104.1 						"/>
					</g>
					<g>
						<polygon class="st4" points="103.7,104.1 103.7,104.7 108,102.2 109.8,105.2 112.6,103.6 112.6,103 110.2,104.4 108.3,101.4 
													"/>
					</g>
				</g>
			</g>
			<g>
				<g class="st1">
					<g>
						<polygon class="st2" points="106.2,99.2 104.4,98.1 102,99.6 103.8,100.6 						"/>
					</g>
					<g>
						<polygon class="st3" points="101.6,98.4 99.8,97.4 101.6,100.4 103.4,101.4 						"/>
					</g>
					<g>
						<polygon class="st4" points="97.3,100.2 95.5,99.2 95.5,99.8 97.3,100.9 						"/>
					</g>
					<g>
						<polygon class="st2" points="101.9,97.6 100.1,96.5 95.5,99.2 97.3,100.2 						"/>
					</g>
					<g>
						<polygon class="st4" points="97.3,100.2 97.3,100.9 101.6,98.4 103.4,101.4 106.2,99.8 106.2,99.2 103.8,100.6 101.9,97.6 
													"/>
					</g>
				</g>
			</g>
			<g>
				<g class="st1">
					<g>
						<polygon class="st2" points="125.9,111 124.1,109.9 121.7,111.3 123.5,112.4 						"/>
					</g>
					<g>
						<polygon class="st3" points="121.3,110.2 119.5,109.1 121.3,112.1 123.1,113.2 						"/>
					</g>
					<g>
						<polygon class="st4" points="117,112 115.2,111 115.2,111.6 117,112.6 						"/>
					</g>
					<g>
						<polygon class="st2" points="121.6,109.4 119.8,108.3 115.2,111 117,112 						"/>
					</g>
					<g>
						<polygon class="st4" points="117,112 117,112.6 121.3,110.2 123.1,113.2 125.9,111.6 125.9,111 123.5,112.4 121.6,109.4 
													"/>
					</g>
				</g>
			</g>
			<g>
				<g class="st1">
					<g>
						<polygon class="st2" points="99.1,95.2 97.3,94.1 94.8,95.5 96.6,96.6 						"/>
					</g>
					<g>
						<polygon class="st3" points="94.5,94.4 92.7,93.3 94.5,96.3 96.3,97.4 						"/>
					</g>
					<g>
						<polygon class="st4" points="90.2,96.2 88.4,95.2 88.4,95.8 90.2,96.8 						"/>
					</g>
					<g>
						<polygon class="st2" points="94.8,93.6 93,92.5 88.4,95.2 90.2,96.2 						"/>
					</g>
					<g>
						<polygon class="st4" points="90.2,96.2 90.2,96.8 94.5,94.4 96.3,97.4 99.1,95.8 99.1,95.2 96.6,96.6 94.8,93.6 						"/>
					</g>
				</g>
			</g>
			<g>
				<g class="st1">
					<g>
						<polygon class="st2" points="92.2,91.3 90.4,90.2 88,91.6 89.8,92.7 						"/>
					</g>
					<g>
						<polygon class="st3" points="87.6,90.5 85.8,89.5 87.7,92.5 89.5,93.5 						"/>
					</g>
					<g>
						<polygon class="st4" points="83.4,92.3 81.6,91.3 81.6,91.9 83.4,93 						"/>
					</g>
					<g>
						<polygon class="st2" points="88,89.7 86.2,88.6 81.6,91.3 83.4,92.3 						"/>
					</g>
					<g>
						<polygon class="st4" points="83.4,92.3 83.4,93 87.6,90.5 89.5,93.5 92.3,91.9 92.2,91.3 89.8,92.7 88,89.7 						"/>
					</g>
				</g>
			</g>
		</g>
		<g>
			<g class="st1">
				<g>
					<polygon class="st5" points="121.5,110.9 121.5,115.2 82.9,137.6 83,133.3 					"/>
				</g>
				<g>
					<polygon class="st6" points="83,133.3 82.9,137.6 44.1,115.2 44.1,110.9 					"/>
				</g>
				<g>
					<polygon class="st7" points="121.5,110.9 83,133.3 44.1,110.9 82.7,88.5 					"/>
				</g>
			</g>
		</g>
		<g>
			<g>
				<polygon class="st8" points="112.3,109.8 112.3,111.9 82.9,129 82.9,126.9 				"/>
			</g>
			<g>
				<polygon class="st9" points="82.9,126.9 82.9,129 53.4,111.9 53.4,109.8 				"/>
			</g>
			<g>
				<polygon class="st10" points="112.3,109.8 82.9,126.9 53.4,109.8 82.7,92.7 				"/>
			</g>
		</g>
		<g>
			<g>
				<g class="st1">
					<g>
						<polygon class="st9" points="41,122 39.2,121 41,115.8 42.8,116.9 						"/>
					</g>
					<g>
						<polygon class="st2" points="42.8,116.9 41,115.8 45.6,113.2 47.4,114.2 						"/>
					</g>
					<g>
						<polygon class="st2" points="38.5,123.4 36.7,122.4 39.2,121 41,122 						"/>
					</g>
					<g>
						<polygon class="st3" points="38.5,124 36.7,123 36.7,122.4 38.5,123.4 						"/>
					</g>
					<g>
						<polygon class="st4" points="47.4,114.2 47.4,114.9 43.1,117.3 41.3,122.4 38.5,124 38.5,123.4 41,122 42.8,116.9 						"/>
					</g>
				</g>
			</g>
			<g>
				<g class="st1">
					<g>
						<polygon class="st9" points="47.7,125.9 45.9,124.8 47.7,119.7 49.5,120.8 						"/>
					</g>
					<g>
						<polygon class="st2" points="49.5,120.8 47.7,119.7 52.3,117.1 54.1,118.1 						"/>
					</g>
					<g>
						<polygon class="st2" points="45.3,127.3 43.5,126.2 45.9,124.8 47.7,125.9 						"/>
					</g>
					<g>
						<polygon class="st3" points="45.3,127.9 43.5,126.9 43.5,126.2 45.3,127.3 						"/>
					</g>
					<g>
						<polygon class="st4" points="54.1,118.1 54.1,118.7 49.9,121.2 48.1,126.3 45.3,127.9 45.3,127.3 47.7,125.9 49.5,120.8 
													"/>
					</g>
				</g>
			</g>
			<g>
				<g class="st1">
					<g>
						<polygon class="st9" points="54.4,129.8 52.6,128.7 54.5,123.6 56.3,124.7 						"/>
					</g>
					<g>
						<polygon class="st2" points="56.3,124.7 54.5,123.6 59,121 60.8,122 						"/>
					</g>
					<g>
						<polygon class="st2" points="52,131.2 50.2,130.2 52.6,128.7 54.4,129.8 						"/>
					</g>
					<g>
						<polygon class="st3" points="52,131.8 50.2,130.8 50.2,130.2 52,131.2 						"/>
					</g>
					<g>
						<polygon class="st4" points="60.8,122 60.8,122.6 56.6,125.1 54.8,130.2 52,131.8 52,131.2 54.4,129.8 56.3,124.7 						"/>
					</g>
				</g>
			</g>
			<g>
				<g class="st1">
					<g>
						<polygon class="st9" points="61.2,133.7 59.4,132.6 61.2,127.5 63,128.6 						"/>
					</g>
					<g>
						<polygon class="st2" points="63,128.6 61.2,127.5 65.8,124.9 67.6,125.9 						"/>
					</g>
					<g>
						<polygon class="st2" points="58.7,135.1 56.9,134 59.4,132.6 61.2,133.7 						"/>
					</g>
					<g>
						<polygon class="st3" points="58.7,135.7 56.9,134.7 56.9,134 58.7,135.1 						"/>
					</g>
					<g>
						<polygon class="st4" points="67.6,125.9 67.6,126.5 63.3,129 61.5,134.1 58.7,135.7 58.7,135.1 61.2,133.7 63,128.6 						"/>
					</g>
				</g>
			</g>
			<g>
				<g class="st1">
					<g>
						<polygon class="st9" points="67.9,137.5 66.1,136.5 68,131.4 69.8,132.4 						"/>
					</g>
					<g>
						<polygon class="st2" points="69.8,132.4 68,131.4 72.6,128.7 74.4,129.8 						"/>
					</g>
					<g>
						<polygon class="st2" points="65.5,138.9 63.7,137.9 66.1,136.5 67.9,137.5 						"/>
					</g>
					<g>
						<polygon class="st3" points="65.5,139.6 63.7,138.5 63.7,137.9 65.5,138.9 						"/>
					</g>
					<g>
						<polygon class="st4" points="74.4,129.8 74.4,130.4 70.1,132.8 68.3,138 65.5,139.6 65.5,138.9 67.9,137.5 69.8,132.4 						
							"/>
					</g>
				</g>
			</g>
			<g>
				<g class="st1">
					<g>
						<polygon class="st9" points="74.6,141.4 72.8,140.4 74.6,135.3 76.4,136.3 						"/>
					</g>
					<g>
						<polygon class="st2" points="76.4,136.3 74.6,135.3 79.2,132.6 81,133.7 						"/>
					</g>
					<g>
						<polygon class="st2" points="72.2,142.8 70.4,141.8 72.8,140.4 74.6,141.4 						"/>
					</g>
					<g>
						<polygon class="st3" points="72.2,143.5 70.4,142.4 70.4,141.8 72.2,142.8 						"/>
					</g>
					<g>
						<polygon class="st4" points="81,133.7 81,134.3 76.8,136.7 74.9,141.9 72.2,143.5 72.2,142.8 74.6,141.4 76.4,136.3 						"/>
					</g>
				</g>
			</g>
		</g>
		<g>
			<g>
				<g class="st1">
					<g>
						<polygon class="st9" points="124.8,122.1 126.6,121 124.8,115.9 123,116.9 						"/>
					</g>
					<g>
						<polygon class="st2" points="123,116.9 124.8,115.9 120.2,113.3 118.4,114.3 						"/>
					</g>
					<g>
						<polygon class="st2" points="127.3,123.5 129.1,122.4 126.6,121 124.8,122.1 						"/>
					</g>
					<g>
						<polygon class="st3" points="127.3,124.1 129.1,123.1 129.1,122.4 127.3,123.5 						"/>
					</g>
					<g>
						<polygon class="st4" points="118.4,114.3 118.4,114.9 122.7,117.4 124.5,122.5 127.3,124.1 127.3,123.5 124.8,122.1 
							123,116.9 						"/>
					</g>
				</g>
			</g>
			<g>
				<g class="st1">
					<g>
						<polygon class="st9" points="118.1,125.9 119.9,124.9 118,119.8 116.2,120.8 						"/>
					</g>
					<g>
						<polygon class="st2" points="116.2,120.8 118,119.8 113.5,117.1 111.7,118.2 						"/>
					</g>
					<g>
						<polygon class="st2" points="120.5,127.4 122.3,126.3 119.9,124.9 118.1,125.9 						"/>
					</g>
					<g>
						<polygon class="st3" points="120.5,128 122.3,126.9 122.3,126.3 120.5,127.4 						"/>
					</g>
					<g>
						<polygon class="st4" points="111.7,118.2 111.7,118.8 115.9,121.3 117.7,126.4 120.5,128 120.5,127.4 118.1,125.9 
							116.2,120.8 						"/>
					</g>
				</g>
			</g>
			<g>
				<g class="st1">
					<g>
						<polygon class="st9" points="111.4,129.9 113.2,128.8 111.3,123.7 109.5,124.7 						"/>
					</g>
					<g>
						<polygon class="st2" points="109.5,124.7 111.3,123.7 106.7,121 104.9,122.1 						"/>
					</g>
					<g>
						<polygon class="st2" points="113.8,131.3 115.6,130.2 113.2,128.8 111.4,129.9 						"/>
					</g>
					<g>
						<polygon class="st3" points="113.8,131.9 115.6,130.8 115.6,130.2 113.8,131.3 						"/>
					</g>
					<g>
						<polygon class="st4" points="104.9,122.1 104.9,122.7 109.2,125.2 111,130.3 113.8,131.9 113.8,131.3 111.4,129.9 
							109.5,124.7 						"/>
					</g>
				</g>
			</g>
			<g>
				<g class="st1">
					<g>
						<polygon class="st9" points="104.6,133.7 106.4,132.7 104.6,127.6 102.8,128.6 						"/>
					</g>
					<g>
						<polygon class="st2" points="102.8,128.6 104.6,127.6 100,124.9 98.2,126 						"/>
					</g>
					<g>
						<polygon class="st2" points="107.1,135.2 108.9,134.1 106.4,132.7 104.6,133.7 						"/>
					</g>
					<g>
						<polygon class="st3" points="107.1,135.8 108.9,134.7 108.9,134.1 107.1,135.2 						"/>
					</g>
					<g>
						<polygon class="st4" points="98.2,126 98.2,126.6 102.5,129.1 104.3,134.2 107.1,135.8 107.1,135.2 104.6,133.7 102.8,128.6 
													"/>
					</g>
				</g>
			</g>
			<g>
				<g class="st1">
					<g>
						<polygon class="st9" points="97.8,137.6 99.6,136.6 97.8,131.4 96,132.5 						"/>
					</g>
					<g>
						<polygon class="st2" points="96,132.5 97.8,131.4 93.2,128.8 91.4,129.8 						"/>
					</g>
					<g>
						<polygon class="st2" points="100.3,139 102.1,138 99.6,136.6 97.8,137.6 						"/>
					</g>
					<g>
						<polygon class="st3" points="100.3,139.6 102.1,138.6 102.1,138 100.3,139 						"/>
					</g>
					<g>
						<polygon class="st4" points="91.4,129.8 91.4,130.5 95.7,132.9 97.5,138 100.3,139.6 100.3,139 97.8,137.6 96,132.5 						"/>
					</g>
				</g>
			</g>
			<g>
				<g class="st1">
					<g>
						<polygon class="st9" points="91.2,141.5 93,140.4 91.2,135.3 89.4,136.4 						"/>
					</g>
					<g>
						<polygon class="st2" points="89.4,136.4 91.2,135.3 86.6,132.7 84.8,133.7 						"/>
					</g>
					<g>
						<polygon class="st2" points="93.6,142.9 95.4,141.9 93,140.4 91.2,141.5 						"/>
					</g>
					<g>
						<polygon class="st3" points="93.6,143.5 95.4,142.5 95.4,141.9 93.6,142.9 						"/>
					</g>
					<g>
						<polygon class="st4" points="84.8,133.7 84.8,134.3 89,136.8 90.8,141.9 93.6,143.5 93.6,142.9 91.2,141.5 89.4,136.4 						
							"/>
					</g>
				</g>
			</g>
		</g>
		<g>
			<g>
				<polygon class="st8" points="63.6,109.8 65,110.6 82.8,120.9 82.8,98.6 				"/>
				<polygon class="st9" points="82.8,98.6 82.8,120.9 82.9,120.9 100.7,110.6 102.1,109.8 				"/>
			</g>
			<polygon class="st7" points="100.7,110.6 82.9,120.9 65,110.6 82.8,100.3 			"/>
		</g>
		<polygon class="st7" points="100.7,110.6 82.9,120.9 65,110.6 82.8,100.3 		"/>
		<g>
			<g class="st1">
				<g>
					<polygon class="st8" points="92.4,109.1 92.4,110.2 90.3,111.4 90.3,110.3 					"/>
				</g>
				<g>
					<polygon class="st9" points="90.3,110.3 90.3,111.4 80.9,105.9 80.9,104.9 					"/>
				</g>
				<g>
					<polygon class="st11" points="92.4,109.1 90.3,110.3 80.9,104.9 83,103.6 					"/>
				</g>
			</g>
			<g class="st1">
				<g class="st1">
					<defs>
						<path id="SVGID_1_" class="st1" d="M81.9,110.9l0,1.1c-0.6-0.2-1.1-0.3-1.6-0.4c-0.5-0.1-1-0.3-1.4-0.4
							c-0.4-0.1-0.8-0.2-1.1-0.3c-0.3-0.1-0.6-0.1-0.8-0.2l0-1.1c0.2,0,0.4,0.1,0.8,0.2c0.3,0.1,0.7,0.2,1.1,0.3
							c0.4,0.1,0.9,0.2,1.4,0.4C80.9,110.6,81.4,110.7,81.9,110.9z"/>
					</defs>
					<use xlink:href="#SVGID_1_"  style="overflow:visible;fill:#1393F2;"/>
					<clipPath id="SVGID_2_">
						<use xlink:href="#SVGID_1_"  style="overflow:visible;"/>
					</clipPath>
					<g class="st12">
						<path class="st9" d="M81.9,110.9l0,1.1c-0.6-0.2-1.1-0.3-1.6-0.4c-0.5-0.1-1-0.3-1.4-0.4c-0.4-0.1-0.8-0.2-1.1-0.3
							c-0.3-0.1-0.6-0.1-0.8-0.2l0-1.1c0.2,0,0.4,0.1,0.8,0.2c0.3,0.1,0.7,0.2,1.1,0.3c0.4,0.1,0.9,0.2,1.4,0.4
							C80.9,110.6,81.4,110.7,81.9,110.9z"/>
					</g>
				</g>
				<g class="st1">
					<defs>
						<path id="SVGID_3_" class="st1" d="M85.5,111.9l0,1.1c-0.5-0.1-0.9-0.3-1.4-0.4l0-1.1C84.6,111.7,85.1,111.8,85.5,111.9z"/>
					</defs>
					<use xlink:href="#SVGID_3_"  style="overflow:visible;fill:#1393F2;"/>
					<clipPath id="SVGID_4_">
						<use xlink:href="#SVGID_3_"  style="overflow:visible;"/>
					</clipPath>
					<g class="st13">
						<path class="st9" d="M85.5,111.9l0,1.1c-0.5-0.1-0.9-0.3-1.4-0.4l0-1.1C84.6,111.7,85.1,111.8,85.5,111.9z"/>
					</g>
				</g>
				<g class="st1">
					<defs>
						<path id="SVGID_5_" class="st1" d="M86.9,112.3l0,1.1c-0.4-0.1-0.9-0.3-1.3-0.4l0-1.1C86,112.1,86.4,112.2,86.9,112.3z"/>
					</defs>
					<use xlink:href="#SVGID_5_"  style="overflow:visible;fill:#1393F2;"/>
					<clipPath id="SVGID_6_">
						<use xlink:href="#SVGID_5_"  style="overflow:visible;"/>
					</clipPath>
					<g class="st14">
						<path class="st9" d="M86.9,112.3l0,1.1c-0.4-0.1-0.9-0.3-1.3-0.4l0-1.1C86,112.1,86.4,112.2,86.9,112.3z"/>
					</g>
				</g>
				<g>
					<polygon class="st8" points="89.1,111 89.1,112.1 86.9,113.4 86.9,112.3 					"/>
				</g>
				<g>
					<polygon class="st8" points="84.1,111.5 84.1,112.6 80.5,114.7 80.5,113.7 					"/>
				</g>
				<g class="st1">
					<defs>
						<path id="SVGID_7_" class="st1" d="M79.6,116.5l0,1.1c-0.7-0.8-1.3-1.5-1.8-2.2c-0.5-0.7-1-1.3-1.5-1.9
							c-0.5-0.6-0.9-1.2-1.3-1.8c-0.4-0.6-0.8-1.1-1.1-1.7l0-1.1c0.3,0.6,0.7,1.1,1.1,1.7c0.4,0.6,0.8,1.2,1.3,1.8
							c0.5,0.6,1,1.3,1.5,1.9C78.4,115,79,115.7,79.6,116.5z"/>
					</defs>
					<use xlink:href="#SVGID_7_"  style="overflow:visible;fill:#1393F2;"/>
					<clipPath id="SVGID_8_">
						<use xlink:href="#SVGID_7_"  style="overflow:visible;"/>
					</clipPath>
					<g class="st15">
						<path class="st9" d="M79.6,116.5l0,1.1c-0.7-0.8-1.3-1.5-1.8-2.2c-0.5-0.7-1-1.3-1.5-1.9c-0.5-0.6-0.9-1.2-1.3-1.8
							c-0.4-0.6-0.8-1.1-1.1-1.7l0-1.1c0.3,0.6,0.7,1.1,1.1,1.7c0.4,0.6,0.8,1.2,1.3,1.8c0.5,0.6,1,1.3,1.5,1.9
							C78.4,115,79,115.7,79.6,116.5z"/>
					</g>
				</g>
				<g>
					<polygon class="st8" points="81.8,115.2 81.8,116.3 79.6,117.6 79.6,116.5 					"/>
				</g>
				<g>
					<path class="st11" d="M85.5,111.9c-0.5-0.1-0.9-0.3-1.4-0.4l-3.7,2.1c0.2,0.3,0.5,0.5,0.7,0.8c0.2,0.3,0.5,0.5,0.7,0.8
						l-2.2,1.3c-0.7-0.8-1.3-1.5-1.8-2.2c-0.5-0.7-1-1.3-1.5-1.9c-0.5-0.6-0.9-1.2-1.3-1.8c-0.4-0.6-0.8-1.1-1.1-1.7l2-1.2
						c1,0.2,1.9,0.4,2.9,0.6c1,0.2,2,0.5,3.1,0.7c1.1,0.3,2.2,0.6,3.4,0.9c1.2,0.3,2.5,0.7,3.8,1l-2.3,1.3
						C86.4,112.2,86,112.1,85.5,111.9z M79.3,112.4l2.7-1.6c-0.6-0.2-1.1-0.3-1.6-0.4c-0.5-0.1-1-0.3-1.4-0.4
						c-0.4-0.1-0.8-0.2-1.1-0.3c-0.3-0.1-0.6-0.1-0.8-0.2c0.1,0.1,0.2,0.3,0.4,0.4c0.1,0.2,0.3,0.4,0.5,0.7c0.2,0.2,0.4,0.5,0.6,0.8
						C78.8,111.8,79,112.1,79.3,112.4z"/>
				</g>
			</g>
		</g>
		<g>
			<g>
				<path class="st7" d="M83,154.6l-63.8-36.9l63.4-36.9l63.8,36.9L83,154.6z M20.9,117.8L83,153.7l61.7-35.9L82.6,81.9L20.9,117.8z
					"/>
			</g>
		</g>
		<g>
			<g>
				<g>
					<path class="st7" d="M29.1,123l-4.7,2.7c-0.1,0-0.2,0-0.2,0l-4.8-2.8L3.6,132l-1.5,0.8c0,0-0.1,0-0.1,0c-0.1,0-0.2,0-0.2-0.1
						c-0.1-0.1,0-0.2,0.1-0.3l1.2-0.7l16.1-9.3c0.1,0,0.2,0,0.2,0l4.8,2.8l4.4-2.5L29.1,123z"/>
				</g>
				<g>
					<path class="st7" d="M67.2,144.6l-0.7,0.4l-4.3,2.5c-0.1,0-0.2,0-0.2,0l-4.8-2.8l-6.1,3.5l-0.4,0.3l-9.3,5.4l-1.3,0.8
						c0,0-0.1,0-0.1,0c-0.1,0-0.2,0-0.2-0.1c-0.1-0.1,0-0.2,0.1-0.3l1.2-0.7l9.2-5.3l0.4-0.3l6.4-3.7c0.1,0,0.2,0,0.2,0L62,147
						l4-2.3l0.7-0.4L67.2,144.6z"/>
				</g>
				<g>
					<path class="st7" d="M52.5,136.1l-0.7,0.4l-4.2,2.4c-0.1,0-0.2,0-0.2,0l-4.8-2.8l-6.2,3.6l-0.4,0.3l-8.9,5.2l-1.6,0.9
						c0,0-0.1,0-0.1,0c-0.1,0-0.2,0-0.2-0.1c-0.1-0.1,0-0.2,0.1-0.3l1.4-0.8l8.8-5.1l0.4-0.3l6.6-3.8c0.1,0,0.2,0,0.2,0l4.8,2.8
						l3.8-2.2l0.7-0.4L52.5,136.1z"/>
				</g>
				<g>
					<path class="st7" d="M40.8,129.3l-0.7,0.4l-15.8,9.1l-1.2,0.7c0,0-0.1,0-0.1,0c-0.1,0-0.2,0-0.2-0.1c-0.1-0.1,0-0.2,0.1-0.3
						l1-0.6l15.8-9.1l0.7-0.4L40.8,129.3z"/>
				</g>
				<g>
					<path class="st7" d="M72.6,147.7l-0.7,0.4l-15.6,9l-1.2,0.7c0,0-0.1,0-0.1,0c-0.1,0-0.2,0-0.2-0.1c-0.1-0.1,0-0.2,0.1-0.3
						l1-0.6l15.6-9l0.7-0.4L72.6,147.7z"/>
				</g>
				<g>
					<path class="st7" d="M57.5,139l-0.7,0.4l-10.5,6.1l-0.4,0.3l-4.8,2.8c0,0,0,0,0,0l-1.2,0.7c0,0-0.1,0-0.1,0
						c-0.1,0-0.2,0-0.2-0.1c-0.1-0.1,0-0.2,0.1-0.3l1-0.6l4.8-2.7l0.4-0.3l10.5-6.1l0.7-0.4L57.5,139z"/>
				</g>
				<g>
					<polygon class="st7" points="57.3,151.8 51.4,155.2 49.7,156.2 49.5,155.8 51,155 56.4,151.8 50.5,148.5 50.1,148.2 
						45.8,145.7 45.3,145.5 35.8,140 35.4,139.7 31.5,137.5 42.4,131.1 43.1,130.7 43.6,130.9 42.8,131.4 32.4,137.5 35.8,139.5 
						36.3,139.7 45.8,145.2 46.2,145.5 50.5,147.9 50.9,148.2 					"/>
				</g>
				<g>
					<path class="st7" d="M3.4,131.9c0.7,0.4,0.7,1,0,1.4c-0.7,0.4-1.7,0.4-2.4,0c-0.7-0.4-0.7-1,0-1.4
						C1.7,131.5,2.8,131.5,3.4,131.9z"/>
				</g>
				<g>
					<g>
						<path class="st7" d="M32.7,131.2c0,0.1,0,0.2-0.1,0.2l-13.5,7.8l-1.2,0.7c0,0-0.1,0-0.1,0c-0.1,0-0.2,0-0.2-0.1
							c-0.1-0.1,0-0.2,0.1-0.3l1-0.6l13.4-7.7l-5-2.9c-0.1,0-0.1-0.1-0.1-0.2c0-0.1,0-0.2,0.1-0.2l4.9-2.8l0.7-0.4l0.4,0.3l-0.7,0.4
							l-4.8,2.8l5,2.9C32.7,131.1,32.7,131.1,32.7,131.2z"/>
					</g>
					<g>
						<path class="st7" d="M18.8,139c0.7,0.4,0.7,1,0,1.4c-0.7,0.4-1.7,0.4-2.4,0c-0.7-0.4-0.7-1,0-1.4
							C17.1,138.7,18.2,138.7,18.8,139z"/>
					</g>
				</g>
				<g>
					<g>
						<path class="st7" d="M75.5,155.6c0,0.1,0,0.2-0.1,0.2l-13.2,7.6l-1.6,0.9c0,0-0.1,0-0.1,0c-0.1,0-0.2,0-0.2-0.1
							c-0.1-0.1,0-0.2,0.1-0.3l1.4-0.8l13-7.5l-5-2.9c-0.1,0-0.1-0.1-0.1-0.2c0-0.1,0-0.2,0.1-0.2l4.7-2.7l0.7-0.4l0.4,0.3l-0.7,0.4
							l-4.5,2.6l5,2.9C75.4,155.4,75.5,155.5,75.5,155.6z"/>
					</g>
					<g>
						<path class="st7" d="M62,163.2c0.7,0.4,0.7,1,0,1.4c-0.7,0.4-1.7,0.4-2.4,0c-0.7-0.4-0.7-1,0-1.4
							C60.2,162.8,61.3,162.8,62,163.2z"/>
					</g>
				</g>
				<g>
					<path class="st7" d="M24,138.7c0.7,0.4,0.7,1,0,1.4c-0.7,0.4-1.7,0.4-2.4,0c-0.7-0.4-0.7-1,0-1.4
						C22.2,138.3,23.3,138.3,24,138.7z"/>
				</g>
				<g>
					<path class="st7" d="M26.5,144.8c0.7,0.4,0.7,1,0,1.4c-0.7,0.4-1.7,0.4-2.4,0c-0.7-0.4-0.7-1,0-1.4
						C24.8,144.4,25.9,144.4,26.5,144.8z"/>
				</g>
				<g>
					<path class="st7" d="M40.8,148.3c0.7,0.4,0.7,1,0,1.4c-0.7,0.4-1.7,0.4-2.4,0c-0.7-0.4-0.7-1,0-1.4
						C39.1,147.9,40.1,147.9,40.8,148.3z"/>
				</g>
				<g>
					<path class="st7" d="M40.9,153.5c0.7,0.4,0.7,1,0,1.4c-0.7,0.4-1.7,0.4-2.4,0c-0.7-0.4-0.7-1,0-1.4
						C39.1,153.1,40.2,153.1,40.9,153.5z"/>
				</g>
				<g>
					<path class="st7" d="M51,155c0.7,0.4,0.7,1,0,1.4c-0.7,0.4-1.7,0.4-2.4,0c-0.7-0.4-0.7-1,0-1.4C49.3,154.6,50.4,154.6,51,155z"
						/>
				</g>
				<g>
					<path class="st7" d="M56.1,157c0.7,0.4,0.7,1,0,1.4c-0.7,0.4-1.7,0.4-2.4,0c-0.7-0.4-0.7-1,0-1.4
						C54.3,156.6,55.4,156.6,56.1,157z"/>
				</g>
			</g>
			<g>
				<g>
					<path class="st7" d="M150,138.4c0,0.1-0.1,0.1-0.2,0.1c0,0-0.1,0-0.1,0l-1.4-0.8l-13.4-7.7c-0.1,0-0.1-0.1-0.1-0.2
						c0-0.1,0-0.2,0.1-0.2l5-2.9l-4.5-2.6l-0.7-0.4l0.4-0.3l0.7,0.4l4.6,2.6c0.1,0,0.1,0.1,0.1,0.2c0,0.1,0,0.2-0.1,0.2l-5,2.9
						l13.3,7.7l1.1,0.6C150,138.2,150,138.3,150,138.4z"/>
				</g>
				<g>
					<path class="st7" d="M103.7,165.2c0,0.1-0.1,0.1-0.2,0.1c0,0-0.1,0-0.1,0l-1.3-0.8l-13.4-7.8c-0.1,0-0.1-0.1-0.1-0.2
						c0-0.1,0-0.2,0.1-0.2l5-2.9l-4.4-2.5l-0.7-0.4l0.4-0.3l0.7,0.4l4.5,2.6c0.1,0,0.1,0.1,0.1,0.2c0,0.1,0,0.2-0.1,0.2l-5,2.9
						l13.4,7.7l1,0.6C103.7,165,103.7,165.1,103.7,165.2z"/>
				</g>
				<g>
					<path class="st7" d="M126.5,150.8c0,0.1-0.1,0.1-0.2,0.1c0,0-0.1,0-0.1,0l-1.2-0.7l-10.2-5.9c-0.1,0-0.1-0.1-0.1-0.2
						c0-0.1,0-0.2,0.1-0.2l3.8-2.2l-3.4-2l-0.4-0.3l-2.8-1.7l-0.7-0.4l0.4-0.3l0.7,0.4l2.8,1.7l0.4,0.3l3.5,2.1
						c0.1,0,0.1,0.1,0.1,0.2c0,0.1,0,0.2-0.1,0.2l-3.8,2.2l10.2,5.9c0,0,0,0,0,0l0.9,0.5C126.5,150.6,126.6,150.7,126.5,150.8z"/>
				</g>
				<g>
					<path class="st7" d="M145,150.2c0,0.1-0.1,0.1-0.2,0.1c0,0-0.1,0-0.1,0l-1.3-0.8l-18.5-10.7c-0.1,0-0.1-0.1-0.1-0.2
						c0-0.1,0-0.2,0.1-0.2l6.8-3.9l-7.1-4.1l-0.7-0.4l0.4-0.3l0.7,0.4l7.2,4.1c0.1,0,0.1,0.1,0.1,0.2c0,0.1,0,0.2-0.1,0.2l-6.8,3.9
						l18.5,10.7l1,0.6C145,150,145,150.1,145,150.2z"/>
				</g>
				<g>
					<path class="st7" d="M125.1,155.8c0,0.1-0.1,0.1-0.2,0.1c0,0-0.1,0-0.1,0l-1.1-0.7l-13.1-7.6l-7.2,4.2c-0.1,0-0.2,0-0.2,0
						l-7.7-4.4l-0.7-0.4l0.4-0.3l0.7,0.4l7.4,4.2l7.2-4.2c0.1,0,0.2,0,0.2,0l13.5,7.8l0.9,0.5C125.1,155.6,125.1,155.7,125.1,155.8z
						"/>
				</g>
				<g>
					<path class="st7" d="M144.8,138c0,0.1-0.1,0.1-0.2,0.1c0,0-0.1,0-0.1,0l-1.3-0.7l-15.3-8.8l-0.7-0.4l0.4-0.3l0.7,0.4l15.4,8.9
						l1,0.6C144.8,137.8,144.8,137.9,144.8,138z"/>
				</g>
				<g>
					<path class="st7" d="M156.6,131.1c0,0.1-0.1,0.1-0.2,0.1c0,0-0.1,0-0.1,0l-1.4-0.8l-15.2-8.7l-0.7-0.4l0.4-0.3l0.7,0.4
						l15.1,8.7l1.2,0.7C156.6,130.8,156.7,131,156.6,131.1z"/>
				</g>
				<g>
					<path class="st7" d="M131,145.9c0,0.1-0.1,0.1-0.2,0.1c0,0-0.1,0-0.1,0l-1.4-0.8l-11.7-6.8l-0.4-0.3l-2.9-1.7l-0.7-0.4l0.4-0.3
						l0.7,0.4l2.9,1.7l0.4,0.3l11.7,6.8l1.2,0.7C131,145.6,131.1,145.8,131,145.9z"/>
				</g>
				<g>
					<path class="st7" d="M108.8,158.8c0,0.1-0.1,0.1-0.2,0.1c0,0-0.1,0-0.1,0l-1.3-0.7c0,0,0,0,0,0L92,149.4l-0.7-0.4l0.4-0.3
						l0.7,0.4l15.2,8.8l1,0.6C108.8,158.6,108.8,158.7,108.8,158.8z"/>
				</g>
				<g>
					<polygon class="st7" points="125.2,134 118,138.1 117.6,138.4 115.6,139.5 115.2,139.8 106.2,144.9 104.8,145.7 104.6,145.3 
						105.8,144.6 114.7,139.5 115.2,139.2 117.1,138.1 117.6,137.8 124.3,134 121.4,132.3 120.6,131.9 121.1,131.6 121.8,132 					
						"/>
				</g>
				<g>
					<path class="st7" d="M104.5,164.5c0.7,0.4,0.7,1,0,1.4c-0.7,0.4-1.7,0.4-2.4,0c-0.7-0.4-0.7-1,0-1.4
						C102.7,164.1,103.8,164.1,104.5,164.5z"/>
				</g>
				<g>
					<path class="st7" d="M109.7,158.1c0.7,0.4,0.7,1,0,1.4c-0.7,0.4-1.7,0.4-2.4,0c-0.7-0.4-0.7-1,0-1.4
						C108,157.7,109.1,157.7,109.7,158.1z"/>
				</g>
				<g>
					<path class="st7" d="M105.8,144.7c0.7,0.4,0.7,1,0,1.4c-0.7,0.4-1.7,0.4-2.4,0c-0.7-0.4-0.7-1,0-1.4
						C104.1,144.3,105.2,144.3,105.8,144.7z"/>
				</g>
				<g>
					<path class="st7" d="M126.2,155.1c0.7,0.4,0.7,1,0,1.4c-0.7,0.4-1.7,0.4-2.4,0c-0.7-0.4-0.7-1,0-1.4
						C124.5,154.7,125.6,154.7,126.2,155.1z"/>
				</g>
				<g>
					<path class="st7" d="M127.2,150.3c0.7,0.4,0.7,1,0,1.4c-0.7,0.4-1.7,0.4-2.4,0c-0.7-0.4-0.7-1,0-1.4
						C125.4,149.9,126.5,149.9,127.2,150.3z"/>
				</g>
				<g>
					<path class="st7" d="M132,144.9c0.7,0.4,0.7,1,0,1.4c-0.7,0.4-1.7,0.4-2.4,0c-0.7-0.4-0.7-1,0-1.4
						C130.3,144.5,131.4,144.5,132,144.9z"/>
				</g>
				<g>
					<path class="st7" d="M145.8,149.5c0.7,0.4,0.7,1,0,1.4c-0.7,0.4-1.7,0.4-2.4,0c-0.7-0.4-0.7-1,0-1.4
						C144.1,149.1,145.1,149.1,145.8,149.5z"/>
				</g>
				<g>
					<path class="st7" d="M145.7,137.3c0.7,0.4,0.7,1,0,1.4c-0.7,0.4-1.7,0.4-2.4,0c-0.7-0.4-0.7-1,0-1.4
						C144,136.9,145.1,136.9,145.7,137.3z"/>
				</g>
				<g>
					<path class="st7" d="M150.8,137.7c0.7,0.4,0.7,1,0,1.4s-1.7,0.4-2.4,0c-0.7-0.4-0.7-1,0-1.4
						C149.1,137.3,150.1,137.3,150.8,137.7z"/>
				</g>
				<g>
					<path class="st7" d="M157.6,130.2c0.7,0.4,0.7,1,0,1.4c-0.7,0.4-1.7,0.4-2.4,0c-0.7-0.4-0.7-1,0-1.4
						C155.8,129.8,156.9,129.8,157.6,130.2z"/>
				</g>
			</g>
			<g>
				<g>
					<path class="st7" d="M66.5,76.4c0,0.1,0,0.2-0.1,0.2l-3.5,2.1L62.4,79L58,81.7l-0.4,0.3l-4.2,2.5l11.7,6.8l0.7,0.4l-0.4,0.3
						l-0.7-0.4l-11.8-6.8c-0.1,0-0.1-0.1-0.1-0.2c0-0.1,0-0.2,0.1-0.2l4.3-2.6l0.4-0.3l4.4-2.7l0.4-0.3l3.4-2.1l-6.6-3.8L58.2,72
						c-0.1-0.1-0.1-0.2-0.1-0.3c0.1-0.1,0.2-0.1,0.3-0.1l1.3,0.8l6.7,3.9C66.5,76.3,66.5,76.3,66.5,76.4z"/>
				</g>
				<g>
					<path class="st7" d="M26.5,114.1L15,107.4l5-2.9c0.1,0,0.1-0.1,0.1-0.2c0-0.1,0-0.2-0.1-0.2l-6.8-3.9l-1.3-0.7
						c-0.1-0.1-0.2,0-0.3,0.1c-0.1,0.1,0,0.2,0.1,0.3l1,0.6l6.7,3.9l-5,2.9c-0.1,0-0.1,0.1-0.1,0.2c0,0.1,0,0.2,0.1,0.2l11.6,6.7
						L26.5,114.1z"/>
				</g>
				<g>
					<path class="st7" d="M49.9,100.9l-0.4,0.3l-0.7-0.4l-8-4.6c-0.1,0-0.1-0.1-0.1-0.2c0-0.1,0-0.2,0.1-0.2l3.8-2.2l-9.2-5.4
						l-0.9-0.5c-0.1-0.1-0.1-0.2-0.1-0.3c0.1-0.1,0.2-0.1,0.3-0.1l1.1,0.7l9.3,5.5c0.1,0,0.1,0.1,0.1,0.2c0,0.1,0,0.2-0.1,0.2
						l-3.8,2.2l7.9,4.6L49.9,100.9z"/>
				</g>
				<g>
					<path class="st7" d="M59.9,95.1l-0.4,0.3l-0.7-0.4l-12.4-7.2c-0.1,0-0.1-0.1-0.1-0.2c0-0.1,0-0.2,0.1-0.2l5.5-3.2l-7-4
						l-1.5-0.9c-0.1-0.1-0.1-0.2-0.1-0.3c0.1-0.1,0.2-0.1,0.3-0.1l1.7,1l7.1,4.1c0.1,0,0.1,0.1,0.1,0.2s0,0.2-0.1,0.2l-5.5,3.2
						l12.3,7.1L59.9,95.1z"/>
				</g>
				<g>
					<path class="st7" d="M44.2,104.2l-0.4,0.3l-0.7-0.4l-8.1-4.7l-5.8,3.4c-0.1,0-0.2,0-0.2,0L21,98.1l-1-0.6
						c-0.1-0.1-0.1-0.2-0.1-0.3c0.1-0.1,0.2-0.1,0.3-0.1l1.2,0.7l7.6,4.4l5.8-3.4c0.1,0,0.2,0,0.2,0l8.5,4.9L44.2,104.2z"/>
				</g>
				<g>
					<path class="st7" d="M70.5,88.9l-0.4,0.3l-0.7-0.4l-11.8-6.8l-0.4-0.3l-3.6-2.1c0,0,0,0,0,0L52.5,79c-0.1-0.1-0.1-0.2-0.1-0.3
						c0.1-0.1,0.2-0.1,0.3-0.1l1.2,0.7l3.6,2.1l0.4,0.3l11.8,6.8L70.5,88.9z"/>
				</g>
				<g>
					<path class="st7" d="M75.5,86L75,86.3l-0.7-0.4L62.4,79L62,78.7l-13.7-7.9l-0.7-0.4c-0.1-0.1-0.1-0.2-0.1-0.3
						c0.1-0.1,0.2-0.1,0.3-0.1l1,0.6l13.6,7.8l0.4,0.3l11.9,6.8L75.5,86z"/>
				</g>
				<g>
					<path class="st7" d="M57.5,96.5L57,96.7l-0.7-0.4l-15.7-9.1c0,0,0,0,0,0l-1.1-0.6c-0.1-0.1-0.1-0.2-0.1-0.3
						c0.1-0.1,0.2-0.1,0.3-0.1L41,87L56.7,96L57.5,96.5z"/>
				</g>
				<g>
					<path class="st7" d="M35.4,109.3l-0.4,0.3l-0.7-0.4l-7-4.1l-1.7-1c-0.1-0.1-0.1-0.2-0.1-0.3c0.1-0.1,0.2-0.1,0.3-0.1l1.9,1.1
						l7,4L35.4,109.3z"/>
				</g>
				<g>
					<path class="st7" d="M13.2,98.9c0.7,0.4,0.7,1,0,1.4c-0.7,0.4-1.7,0.4-2.4,0c-0.7-0.4-0.7-1,0-1.4
						C11.4,98.5,12.5,98.5,13.2,98.9z"/>
				</g>
				<g>
					<path class="st7" d="M27.5,103.6c0.7,0.4,0.7,1,0,1.4c-0.7,0.4-1.7,0.4-2.4,0c-0.7-0.4-0.7-1,0-1.4
						C25.7,103.2,26.8,103.2,27.5,103.6z"/>
				</g>
				<g>
					<path class="st7" d="M21.2,96.6c0.7,0.4,0.7,1,0,1.4c-0.7,0.4-1.7,0.4-2.4,0c-0.7-0.4-0.7-1,0-1.4
						C19.4,96.3,20.5,96.3,21.2,96.6z"/>
				</g>
				<g>
					<path class="st7" d="M35.5,86.6c0.7,0.4,0.7,1,0,1.4c-0.7,0.4-1.7,0.4-2.4,0c-0.7-0.4-0.7-1,0-1.4
						C33.8,86.2,34.9,86.2,35.5,86.6z"/>
				</g>
				<g>
					<path class="st7" d="M23.8,93.3c0.7,0.4,0.7,1,0,1.4c-0.7,0.4-1.7,0.4-2.4,0c-0.7-0.4-0.7-1,0-1.4C22.1,93,23.1,93,23.8,93.3z"
						/>
				</g>
				<g>
					<path class="st7" d="M47.2,102.4l-0.4,0.3l-0.7-0.4L27.4,91.5L24,93.5l-1.3,0.7c-0.1,0.1-0.2,0-0.3-0.1c-0.1-0.1,0-0.2,0.1-0.3
						l1-0.6l3.7-2.1c0.1,0,0.2,0,0.2,0L46.4,102L47.2,102.4z"/>
				</g>
				<g>
					<path class="st7" d="M78.3,84.4l-0.4,0.3l-0.7-0.4L69,79.5c-0.1,0-0.1-0.1-0.1-0.2c0-0.1,0-0.2,0.1-0.2l3.8-2.2l-9.2-5.4
						L62.7,71c-0.1-0.1-0.1-0.2-0.1-0.3c0.1-0.1,0.2-0.1,0.3-0.1l1.1,0.7l9.3,5.5c0.1,0,0.1,0.1,0.1,0.2c0,0.1,0,0.2-0.1,0.2
						l-3.8,2.2l8,4.6L78.3,84.4z"/>
				</g>
				<g>
					<path class="st7" d="M63.9,70c0.7,0.4,0.7,1,0,1.4c-0.7,0.4-1.7,0.4-2.4,0c-0.7-0.4-0.7-1,0-1.4C62.1,69.6,63.2,69.6,63.9,70z"
						/>
				</g>
				<g>
					<path class="st7" d="M40.9,85.7c0.7,0.4,0.7,1,0,1.4c-0.7,0.4-1.7,0.4-2.4,0c-0.7-0.4-0.7-1,0-1.4
						C39.2,85.3,40.3,85.3,40.9,85.7z"/>
				</g>
				<g>
					<path class="st7" d="M44.9,78.6c0.7,0.4,0.7,1,0,1.4c-0.7,0.4-1.7,0.4-2.4,0c-0.7-0.4-0.7-1,0-1.4
						C43.2,78.3,44.3,78.3,44.9,78.6z"/>
				</g>
				<g>
					<path class="st7" d="M48.9,69.2c0.7,0.4,0.7,1,0,1.4c-0.7,0.4-1.7,0.4-2.4,0c-0.7-0.4-0.7-1,0-1.4
						C47.1,68.8,48.2,68.8,48.9,69.2z"/>
				</g>
				<g>
					<path class="st7" d="M59.5,71.1c0.7,0.4,0.7,1,0,1.4c-0.7,0.4-1.7,0.4-2.4,0c-0.7-0.4-0.7-1,0-1.4
						C57.7,70.8,58.8,70.8,59.5,71.1z"/>
				</g>
				<g>
					<path class="st7" d="M53.9,78c0.7,0.4,0.7,1,0,1.4c-0.7,0.4-1.7,0.4-2.4,0c-0.7-0.4-0.7-1,0-1.4C52.1,77.6,53.2,77.6,53.9,78z"
						/>
				</g>
			</g>
			<g>
				<g>
					<path class="st7" d="M141.8,102.1c0,0.1,0,0.2-0.1,0.2l-11.1,6.4l-0.7,0.4l-0.4-0.3l0.7-0.4l11-6.4L131,96l-0.4-0.3l-2.5-1.5
						c-0.1,0-0.1-0.1-0.1-0.2c0-0.1,0-0.2,0.1-0.2l6.7-3.9l1.3-0.8c0.1-0.1,0.2,0,0.3,0.1c0.1,0.1,0,0.2-0.1,0.3l-1.1,0.6l-6.6,3.8
						l2.4,1.4l0.4,0.3l10.2,6.1C141.8,101.9,141.8,102,141.8,102.1z"/>
				</g>
				<g>
					<path class="st7" d="M131.2,88l-0.9,0.5l-9.2,5.4l3.8,2.2c0.1,0,0.1,0.1,0.1,0.2c0,0.1,0,0.2-0.1,0.2l-7.7,4.4l-0.7,0.4
						l-0.4-0.3l0.7-0.4l7.6-4.4l-3.8-2.2c-0.1,0-0.1-0.1-0.1-0.2c0-0.1,0-0.2,0.1-0.2l9.3-5.5l1.1-0.7c0.1-0.1,0.2,0,0.3,0.1
						C131.3,87.8,131.3,87.9,131.2,88z"/>
				</g>
				<g>
					<path class="st7" d="M121.6,78.3l-1.4,0.8l-7.2,4.2l5.6,3.2c0.1,0,0.1,0.1,0.1,0.2c0,0.1,0,0.2-0.1,0.2l-12.9,7.4l-0.7,0.4
						l-0.4-0.3l0.7-0.4l12.8-7.4l-5.6-3.2c-0.1,0-0.1-0.1-0.1-0.2c0-0.1,0-0.2,0.1-0.2l7.4-4.3l1.6-0.9c0.1-0.1,0.2,0,0.3,0.1
						C121.8,78.1,121.7,78.2,121.6,78.3z"/>
				</g>
				<g>
					<path class="st7" d="M153.8,106.5l-1,0.6l-6.5,3.7c-0.1,0-0.2,0-0.2,0l-4.9-2.8l-6,3.4l-0.7,0.4l-0.4-0.3l0.7-0.4l6.3-3.6
						c0.1,0,0.2,0,0.2,0l4.9,2.8l6.1-3.5l1.2-0.7c0.1-0.1,0.2,0,0.3,0.1C154,106.3,153.9,106.4,153.8,106.5z"/>
				</g>
				<g>
					<path class="st7" d="M112.6,79.5l-0.9,0.5c0,0,0,0,0,0l-15.3,8.8l-0.7,0.4L95.1,89l0.7-0.4l15.3-8.8l1.2-0.7
						c0.1-0.1,0.2,0,0.3,0.1C112.7,79.3,112.7,79.4,112.6,79.5z"/>
				</g>
				<g>
					<path class="st7" d="M118,70.8l-0.7,0.4L91.5,86.1l-0.7,0.4l-0.4-0.3l0.7-0.4L116.7,71l1-0.6c0.1-0.1,0.2,0,0.3,0.1
						C118.1,70.6,118.1,70.7,118,70.8z"/>
				</g>
				<g>
					<path class="st7" d="M126,87l-1.1,0.6l-15.4,8.9l-0.7,0.4l-0.4-0.3l0.7-0.4l15.4-8.9l1.3-0.8c0.1-0.1,0.2,0,0.3,0.1
						C126.2,86.8,126.1,87,126,87z"/>
				</g>
				<g>
					<path class="st7" d="M109.3,86.8l-1.7,1l-6.6,3.8l-0.7,0.4l-0.4-0.3l0.7-0.4l6.6-3.8l1.9-1.1c0.1-0.1,0.2,0,0.3,0.1
						C109.4,86.6,109.4,86.7,109.3,86.8z"/>
				</g>
				<g>
					<path class="st7" d="M107.3,86.2c-0.7,0.4-0.7,1,0,1.4c0.7,0.4,1.7,0.4,2.4,0c0.7-0.4,0.7-1,0-1.4
						C109.1,85.9,108,85.9,107.3,86.2z"/>
				</g>
				<g>
					<path class="st7" d="M152.5,105.5c-0.7,0.4-0.7,1,0,1.4c0.7,0.4,1.7,0.4,2.4,0c0.7-0.4,0.7-1,0-1.4
						C154.2,105.1,153.1,105.1,152.5,105.5z"/>
				</g>
				<g>
					<path class="st7" d="M130,86.9c-0.7,0.4-0.7,1,0,1.4c0.7,0.4,1.7,0.4,2.4,0c0.7-0.4,0.7-1,0-1.4
						C131.7,86.6,130.6,86.6,130,86.9z"/>
				</g>
				<g>
					<path class="st7" d="M141.7,93.7c-0.7,0.4-0.7,1,0,1.4c0.7,0.4,1.7,0.4,2.4,0c0.7-0.4,0.7-1,0-1.4
						C143.4,93.3,142.4,93.3,141.7,93.7z"/>
				</g>
				<g>
					<path class="st7" d="M143.1,94.5c-0.1,0.1-0.2,0.1-0.3,0.1l-1.3-0.7l-3.4-1.9l-6.6,3.8L131,96l-11.2,6.5l-0.7,0.4l-0.4-0.3
						l0.7-0.4l11.2-6.5l0.4-0.3l7-4c0.1,0,0.2,0,0.2,0l3.7,2.1l1,0.6C143.1,94.3,143.1,94.4,143.1,94.5z"/>
				</g>
				<g>
					<path class="st7" d="M102.8,71.4l-0.9,0.5l-9.2,5.4l3.8,2.2c0.1,0,0.1,0.1,0.1,0.2c0,0.1,0,0.2-0.1,0.2l-7.9,4.5l-0.7,0.4
						l-2.8,1.6c0,0-0.1,0-0.1,0c-0.1,0-0.2,0-0.2-0.1c-0.1-0.1,0-0.2,0.1-0.3l2.6-1.5l0.7-0.4l7.7-4.5l-3.8-2.2
						c-0.1,0-0.1-0.1-0.1-0.2c0-0.1,0-0.2,0.1-0.2l9.3-5.5l1.1-0.7c0.1-0.1,0.2,0,0.3,0.1C103,71.2,102.9,71.3,102.8,71.4z"/>
				</g>
				<g>
					<path class="st7" d="M101.6,70.4c-0.7,0.4-0.7,1,0,1.4c0.7,0.4,1.7,0.4,2.4,0c0.7-0.4,0.7-1,0-1.4
						C103.4,70,102.3,70,101.6,70.4z"/>
				</g>
				<g>
					<path class="st7" d="M124.6,86.1c-0.7,0.4-0.7,1,0,1.4c0.7,0.4,1.7,0.4,2.4,0c0.7-0.4,0.7-1,0-1.4
						C126.3,85.7,125.2,85.7,124.6,86.1z"/>
				</g>
				<g>
					<path class="st7" d="M120.1,77.7c-0.7,0.4-0.7,1,0,1.4c0.7,0.4,1.7,0.4,2.4,0c0.7-0.4,0.7-1,0-1.4
						C121.9,77.3,120.8,77.3,120.1,77.7z"/>
				</g>
				<g>
					<path class="st7" d="M116.6,69.6c-0.7,0.4-0.7,1,0,1.4c0.7,0.4,1.7,0.4,2.4,0c0.7-0.4,0.7-1,0-1.4
						C118.4,69.2,117.3,69.2,116.6,69.6z"/>
				</g>
				<g>
					<path class="st7" d="M135,88.8c-0.7,0.4-0.7,1,0,1.4c0.7,0.4,1.7,0.4,2.4,0c0.7-0.4,0.7-1,0-1.4
						C136.8,88.4,135.7,88.4,135,88.8z"/>
				</g>
				<g>
					<path class="st7" d="M111.2,78.5c-0.7,0.4-0.7,1,0,1.4c0.7,0.4,1.7,0.4,2.4,0c0.7-0.4,0.7-1,0-1.4
						C112.9,78.1,111.9,78.1,111.2,78.5z"/>
				</g>
			</g>
		</g>
	</g>
	<g>
		<g>
			<g class="st1">
				<g class="st1">
					<defs>
						<path id="SVGID_9_" class="st1" d="M59.9,86l-3.7-2.2c-0.4-0.2-0.7-0.7-0.8-1.4l3.7,2.2C59.2,85.3,59.5,85.8,59.9,86z"/>
					</defs>
					<use xlink:href="#SVGID_9_"  style="overflow:visible;fill:#DAD9E8;"/>
					<clipPath id="SVGID_10_">
						<use xlink:href="#SVGID_9_"  style="overflow:visible;"/>
					</clipPath>
					<g class="st16">
						<path class="st17" d="M59.9,86l-3.7-2.2c-0.4-0.2-0.7-0.7-0.8-1.4l3.7,2.2C59.2,85.3,59.5,85.8,59.9,86z"/>
						<polygon class="st17" points="59.1,84.6 55.4,82.4 55.4,82.4 59.1,84.6 						"/>
					</g>
				</g>
				<g>
					<defs>
						<path id="SVGID_11_" d="M63.1,47.4l3.7,2.2c-1.1-0.6-2.6-0.5-4.3,0.4l-3.7-2.2C60.6,46.8,62.1,46.8,63.1,47.4z"/>
					</defs>
					<use xlink:href="#SVGID_11_"  style="overflow:visible;fill:#DAD9E8;"/>
					<clipPath id="SVGID_12_">
						<use xlink:href="#SVGID_11_"  style="overflow:visible;"/>
					</clipPath>
					<g class="st18">
						<path class="st17" d="M62.6,50l-3.7-2.2c1.7-1,3.2-1,4.3-0.4l3.7,2.2C65.8,48.9,64.3,49,62.6,50z"/>
					</g>
				</g>
				<g>
					<polygon class="st17" points="59.1,84.6 55.4,82.4 51.9,59.9 55.6,62 					"/>
				</g>
				<g>
					<polygon class="st19" points="61.5,50.6 57.7,48.5 58.9,47.8 62.6,50 					"/>
				</g>
				<g class="st1">
					<defs>
						<path id="SVGID_13_" class="st1" d="M55.6,62l-3.7-2.2c-0.6-3.8,2.2-9.3,5.9-11.4l3.7,2.2C57.8,52.7,55,58.2,55.6,62z"/>
					</defs>
					<use xlink:href="#SVGID_13_"  style="overflow:visible;fill:#EBEBF1;"/>
					<clipPath id="SVGID_14_">
						<use xlink:href="#SVGID_13_"  style="overflow:visible;"/>
					</clipPath>
					<g class="st20">
						<path class="st19" d="M55.6,62l-3.7-2.2c-0.2-1.2-0.1-2.5,0.3-3.8l3.7,2.2C55.5,59.5,55.4,60.8,55.6,62z"/>
						<path class="st19" d="M55.9,58.2L52.2,56c0.4-1.5,1.2-3,2.1-4.3l3.7,2.2C57,55.2,56.3,56.7,55.9,58.2z"/>
						<path class="st19" d="M58,53.9l-3.7-2.2c0.7-1,1.6-1.9,2.5-2.6l3.7,2.2C59.5,52,58.7,52.9,58,53.9z"/>
						<path class="st19" d="M60.5,51.3l-3.7-2.2c0.3-0.2,0.7-0.5,1-0.7l3.7,2.2C61.1,50.8,60.8,51,60.5,51.3z"/>
					</g>
				</g>
				<g>
					<path class="st9" d="M62.6,50c3.7-2.1,6.5,0,5.9,4.6l-3.4,26.6c-0.3,2.1-1.6,3.9-3,4.6c-1.4,0.8-2.7,0.6-3-1.2L55.6,62
						c-0.6-3.8,2.2-9.3,5.9-11.4L62.6,50z"/>
				</g>
			</g>
		</g>
		<g>
			<g class="st1">
				<g class="st1">
					<defs>
						<path id="SVGID_15_" class="st1" d="M66.7,50.2l2.6,1.5c-1.1-0.6-2.6-0.5-4.3,0.4l-2.6-1.5C64.1,49.6,65.6,49.5,66.7,50.2z"/>
					</defs>
					<use xlink:href="#SVGID_15_"  style="overflow:visible;fill:#05D4F5;"/>
					<clipPath id="SVGID_16_">
						<use xlink:href="#SVGID_15_"  style="overflow:visible;"/>
					</clipPath>
					<g class="st21">
						<path class="st7" d="M65,52.1l-2.6-1.5c1.7-1,3.2-1.1,4.3-0.4l2.6,1.5C68.2,51,66.6,51.1,65,52.1z"/>
					</g>
				</g>
				<g>
					<path class="st7" d="M65.6,54.6c2.3-1.3,4.1-0.3,4.1,2.4c0,2.6-1.8,5.8-4.1,7.1c-2.3,1.3-4.1,0.3-4.1-2.4
						C61.4,59.1,63.3,55.9,65.6,54.6z"/>
				</g>
				<g class="st1">
					<defs>
						<path id="SVGID_17_" class="st1" d="M60.7,66.3l-2.6-1.5c-1.1-0.6-1.8-2-1.8-3.9c0-3.8,2.7-8.5,6-10.4l2.6,1.5
							c-3.3,1.9-6,6.6-6,10.4C59,64.4,59.6,65.7,60.7,66.3z"/>
					</defs>
					<use xlink:href="#SVGID_17_"  style="overflow:visible;fill:#05D4F5;"/>
					<clipPath id="SVGID_18_">
						<use xlink:href="#SVGID_17_"  style="overflow:visible;"/>
					</clipPath>
					<g class="st22">
						<path class="st7" d="M60.7,66.3l-2.6-1.5c-1-0.6-1.6-1.7-1.7-3.2l2.6,1.5C59.1,64.7,59.8,65.8,60.7,66.3z"/>
						<path class="st7" d="M59,63.1l-2.6-1.5c0-0.2,0-0.4,0-0.6c0-3.3,2-7.2,4.7-9.5l2.6,1.5C61,55.3,59,59.2,59,62.5
							C59,62.7,59,62.9,59,63.1z"/>
						<path class="st7" d="M63.6,53l-2.6-1.5c0.4-0.4,0.9-0.7,1.3-0.9l2.6,1.5C64.5,52.3,64.1,52.6,63.6,53z"/>
					</g>
				</g>
				<g class="st1">
					<defs>
						<path id="SVGID_19_" class="st1" d="M65.6,54.6L65,52.1c3.3-1.9,6-0.4,6,3.4c0,3.8-2.7,8.5-6,10.4c-3.3,1.9-6,0.4-6-3.4
							c0-3.8,2.7-8.5,6-10.4L65.6,54.6c-2.3,1.3-4.1,4.5-4.1,7.1c0,2.6,1.9,3.7,4.1,2.4c2.3-1.3,4.1-4.5,4.1-7.1
							C69.7,54.3,67.8,53.3,65.6,54.6z"/>
					</defs>
					<use xlink:href="#SVGID_19_"  style="overflow:visible;fill:#05D4F5;"/>
					<clipPath id="SVGID_20_">
						<use xlink:href="#SVGID_19_"  style="overflow:visible;"/>
					</clipPath>
					<g class="st23">
						<path class="st5" d="M65.6,54.6L65,52.1c3.3-1.9,6-0.4,6,3.4c0,3.8-2.7,8.5-6,10.4c-3.3,1.9-6,0.4-6-3.4c0-3.8,2.7-8.5,6-10.4
							L65.6,54.6c-2.3,1.3-4.1,4.5-4.1,7.1c0,2.6,1.9,3.7,4.1,2.4c2.3-1.3,4.1-4.5,4.1-7.1C69.7,54.3,67.8,53.3,65.6,54.6z"/>
					</g>
				</g>
			</g>
		</g>
		<g>
			<path class="st6" d="M64.6,30.6L57.9,8.8L64.6,30.6z"/>
			
				<rect x="49.8" y="19" transform="matrix(0.2928 0.9562 -0.9562 0.2928 62.1362 -44.6471)" class="st24" width="22.8" height="1.3"/>
		</g>
		<g>
			<g>
				<path class="st4" d="M72.6,99.1c-6.1-3.8-7.5-8.9-8.1-11c0.5,2.1,2.1,4.2,4.9,5.8c7,4.2,18.5,4.3,25.7,0.3
					c3.1-1.7,4.9-4,5.4-6.3c-0.5,1.8-1.2,4.5-3.9,7.7c-1,1.2-3.3,3.4-6.9,4.9C84.2,102.7,77.4,102.2,72.6,99.1z"/>
			</g>
			<g>
				<path class="st2" d="M95.2,49.4c6.8,4.1,6.5,10.6-0.5,14.5c-7.1,3.9-18.3,3.8-25.1-0.3c-6.8-4.1-6.5-10.6,0.5-14.5
					C77.2,45.2,88.4,45.4,95.2,49.4z"/>
			</g>
			<g class="st1">
				<path class="st3" d="M64.4,88L59,64.1c0.6,2.8,2.8,5.5,6.4,7.7c9,5.4,24,5.6,33.4,0.3c4-2.3,6.4-5.1,7.1-8.1l-5.3,23.9
					c-0.5,2.3-2.3,4.5-5.4,6.3c-7.2,4-18.8,3.9-25.7-0.3C66.6,92.2,64.9,90.2,64.4,88z"/>
			</g>
			<path class="st17" d="M67.2,48.8c9.2-5,22.3-4.9,31.1,0.4c-0.8-0.5-1.9-0.4-3.1,0.3c-6.8-4.1-18-4.2-25.1-0.3
				c-7.1,3.9-7.3,10.4-0.5,14.5c6.8,4.1,18,4.2,25.1,0.3c7.1-3.9,7.3-10.4,0.5-14.5c1.2-0.7,2.3-0.7,3.1-0.3c1.8,1.2,4.6,3,6.5,6.8
				c1.8,3.5,1.3,6.7,1,8c-0.7,3.1-3.1,5.9-7.1,8.2c-9.4,5.3-24.4,5.1-33.4-0.3c-3.6-2.2-5.7-4.9-6.4-7.6c-0.2-1.2-0.4-2.4-0.2-4.2
				c0.3-2.3,1.2-4,1.2-4C60.6,54.7,62.4,51.4,67.2,48.8z"/>
		</g>
		<g>
			<g>
				<path class="st19" d="M92.2,20c5.2,3.1,5,8.1-0.4,11.1c-5.4,3-14,2.9-19.2-0.2c-5.2-3.1-5-8.1,0.4-11.1
					C78.4,16.7,87,16.8,92.2,20z"/>
			</g>
			<g class="st1">
				<path class="st3" d="M65.7,57.3c-8.4-5.2-10.2-12-10.3-16.9c0,3.9,2.5,7.8,7.5,10.8c10.3,6.2,27.4,6.4,38.2,0.4
					c5.5-3.1,8.3-7.2,8.3-11.3c-0.1,2.5-0.2,3.8-1.2,6.7c-0.8,2.2-2.2,4.1-3,5.1c-0.4,0.5-3.7,4.7-10.1,7.2
					C84,63.6,72.4,61.4,65.7,57.3z"/>
			</g>
			<path class="st2" d="M66.5,19c4.9-2.7,10.4-4,16.4-3.9c6.1,0.1,11.6,1.5,16.3,4.3c-1.8-1.1-4.2-1-6.9,0.6
				C87,16.8,78.4,16.7,73,19.8c-5.4,3-5.6,8-0.4,11.1c5.2,3.1,13.8,3.2,19.2,0.2c5.4-3,5.6-8,0.4-11.1c2.7-1.5,5.2-1.6,6.9-0.6
				c2.5,1.6,10,6.5,10.3,16.9c0,4.1-2.8,8.2-8.3,11.3c-10.8,6-27.8,5.8-38.2-0.4c-5-3-7.5-6.9-7.5-10.8c0.1-1.5,0.1-3.2,0.8-5.3
				c0.8-2.5,1.5-3.5,2.6-5.3C59.7,24.4,62.4,21.2,66.5,19z"/>
			<g>
				<path class="st25" d="M87.7,51.7c-8.7,1-18.2-0.5-24.8-4.5c-5-3-7.5-6.9-7.5-10.7c0-2.5,1-4.8,2.8-6.7c0,3.5,2.3,6.9,6.7,9.6
					c5.9,3.6,14.4,4.9,22.2,4C87.5,46.3,87.7,49.2,87.7,51.7z"/>
			</g>
			<g class="st1">
				<path class="st17" d="M55.5,40.4l0-4c0,3.9,2.5,7.8,7.5,10.8c10.3,6.2,27.4,6.4,38.2,0.4c5.5-3.1,8.3-7.2,8.3-11.3l0,4
					c0,4.1-2.8,8.2-8.3,11.3c-10.8,6-27.8,5.8-38.2-0.4C58,48.2,55.5,44.3,55.5,40.4z"/>
			</g>
			<g>
				<path class="st7" d="M59.8,40.5c-0.5,1.5-1.4,1.6-2.1,0.2c-1.1-2.3,0-5.1,1.4-4.7c0.2,0.1,0.4,0.2,0.5,0.4
					C60.5,37.7,60.1,39.9,59.8,40.5z"/>
				<path class="st7" d="M75.1,47.3c-0.4,2.3-3.2,2.6-4.7,0.6c-1.5-2.1,0.1-4.5,2.2-4.2c0.1,0,0.2,0,0.3,0
					C74.8,44.3,75.3,46.1,75.1,47.3z"/>
			</g>
		</g>
		<path class="st6" d="M100.3,37.6c0-1.3-0.9-1.9-2.1-1.2c-1.2,0.7-2.1,2.3-2.1,3.6c0,1.3,0.9,1.9,2.1,1.2
			C99.4,40.6,100.3,39,100.3,37.6z"/>
		<g>
			<path class="st6" d="M98.5,38.9l15.2-11.4L98.5,38.9z"/>
			<path class="st24" d="M98.5,39.5c-0.2,0-0.4-0.1-0.5-0.3c-0.2-0.3-0.2-0.7,0.1-0.9l15.2-11.4c0.3-0.2,0.7-0.2,0.9,0.1
				c0.2,0.3,0.2,0.7-0.1,0.9L98.9,39.4C98.8,39.5,98.7,39.5,98.5,39.5z"/>
		</g>
		<circle class="st6" cx="114.1" cy="26.6" r="3.5"/>
		<circle class="st6" cx="57.6" cy="8.8" r="3.5"/>
		<g>
			<g class="st1">
				<g class="st1">
					<defs>
						<path id="SVGID_21_" class="st1" d="M103.5,62.9l2.6,1.5c-1.1-0.6-2.6-0.5-4.3,0.4l-2.6-1.5C100.9,62.3,102.4,62.2,103.5,62.9
							z"/>
					</defs>
					<use xlink:href="#SVGID_21_"  style="overflow:visible;fill:#05D4F5;"/>
					<clipPath id="SVGID_22_">
						<use xlink:href="#SVGID_21_"  style="overflow:visible;"/>
					</clipPath>
					<g class="st26">
						<path class="st7" d="M101.8,64.8l-2.6-1.5c1.7-1,3.2-1.1,4.3-0.4l2.6,1.5C105,63.7,103.4,63.8,101.8,64.8z"/>
					</g>
				</g>
				<g>
					<path class="st7" d="M102.4,67.3c2.3-1.3,4.1-0.3,4.1,2.4c0,2.6-1.8,5.8-4.1,7.1c-2.3,1.3-4.1,0.3-4.1-2.4
						C98.2,71.8,100.1,68.6,102.4,67.3z"/>
				</g>
				<g class="st1">
					<defs>
						<path id="SVGID_23_" class="st1" d="M97.5,79l-2.6-1.5c-1.1-0.6-1.8-2-1.8-3.9c0-3.8,2.7-8.5,6-10.4l2.6,1.5
							c-3.3,1.9-6,6.6-6,10.4C95.8,77.1,96.4,78.4,97.5,79z"/>
					</defs>
					<use xlink:href="#SVGID_23_"  style="overflow:visible;fill:#05D4F5;"/>
					<clipPath id="SVGID_24_">
						<use xlink:href="#SVGID_23_"  style="overflow:visible;"/>
					</clipPath>
					<g class="st27">
						<path class="st7" d="M97.5,79l-2.6-1.5c-1-0.6-1.6-1.7-1.7-3.2l2.6,1.5C95.9,77.4,96.6,78.5,97.5,79z"/>
						<path class="st7" d="M95.8,75.8l-2.6-1.5c0-0.2,0-0.4,0-0.6c0-3.3,2-7.2,4.7-9.5l2.6,1.5c-2.7,2.2-4.7,6.2-4.7,9.5
							C95.8,75.4,95.8,75.6,95.8,75.8z"/>
						<path class="st7" d="M100.4,65.7l-2.6-1.5c0.4-0.4,0.9-0.7,1.3-0.9l2.6,1.5C101.3,65.1,100.9,65.4,100.4,65.7z"/>
					</g>
				</g>
				<g class="st1">
					<defs>
						<path id="SVGID_25_" class="st1" d="M102.4,67.3l-0.6-2.5c3.3-1.9,6-0.4,6,3.4c0,3.8-2.7,8.5-6,10.4c-3.3,1.9-6,0.4-6-3.4
							c0-3.8,2.7-8.5,6-10.4L102.4,67.3c-2.3,1.3-4.1,4.5-4.1,7.1c0,2.6,1.9,3.7,4.1,2.4c2.3-1.3,4.1-4.5,4.1-7.1
							C106.5,67,104.6,66,102.4,67.3z"/>
					</defs>
					<use xlink:href="#SVGID_25_"  style="overflow:visible;fill:#05D4F5;"/>
					<clipPath id="SVGID_26_">
						<use xlink:href="#SVGID_25_"  style="overflow:visible;"/>
					</clipPath>
					<g class="st28">
						<path class="st5" d="M102.4,67.3l-0.6-2.5c3.3-1.9,6-0.4,6,3.4c0,3.8-2.7,8.5-6,10.4c-3.3,1.9-6,0.4-6-3.4
							c0-3.8,2.7-8.5,6-10.4L102.4,67.3c-2.3,1.3-4.1,4.5-4.1,7.1c0,2.6,1.9,3.7,4.1,2.4c2.3-1.3,4.1-4.5,4.1-7.1
							C106.5,67,104.6,66,102.4,67.3z"/>
					</g>
				</g>
			</g>
		</g>
		<g>
			<g class="st1">
				<g class="st1">
					<defs>
						<path id="SVGID_27_" class="st1" d="M103.5,102.7l-3.7-2.2c-0.4-0.2-0.7-0.7-0.8-1.4l3.7,2.2
							C102.8,102,103.1,102.4,103.5,102.7z"/>
					</defs>
					<use xlink:href="#SVGID_27_"  style="overflow:visible;fill:#DAD9E8;"/>
					<clipPath id="SVGID_28_">
						<use xlink:href="#SVGID_27_"  style="overflow:visible;"/>
					</clipPath>
					<g class="st29">
						<path class="st17" d="M103.5,102.7l-3.7-2.2c-0.4-0.2-0.7-0.7-0.8-1.4l3.7,2.2C102.8,102,103.1,102.4,103.5,102.7z"/>
						<polygon class="st17" points="102.7,101.2 99,99.1 99,99.1 102.7,101.2 						"/>
					</g>
				</g>
				<g>
					<defs>
						<path id="SVGID_29_" d="M106.7,64l3.7,2.2c-1.1-0.6-2.6-0.5-4.3,0.4l-3.7-2.2C104.1,63.5,105.6,63.4,106.7,64z"/>
					</defs>
					<use xlink:href="#SVGID_29_"  style="overflow:visible;fill:#DAD9E8;"/>
					<clipPath id="SVGID_30_">
						<use xlink:href="#SVGID_29_"  style="overflow:visible;"/>
					</clipPath>
					<g class="st30">
						<path class="st17" d="M106.1,66.6l-3.7-2.2c1.7-1,3.2-1,4.3-0.4l3.7,2.2C109.3,65.6,107.8,65.6,106.1,66.6z"/>
					</g>
				</g>
				<g>
					<polygon class="st17" points="102.7,101.2 99,99.1 95.4,76.5 99.1,78.6 					"/>
				</g>
				<g>
					<polygon class="st19" points="105,67.3 101.3,65.1 102.4,64.4 106.1,66.6 					"/>
				</g>
				<g class="st1">
					<defs>
						<path id="SVGID_31_" class="st1" d="M99.1,78.6l-3.7-2.2c-0.6-3.8,2.2-9.3,5.9-11.4l3.7,2.2C101.3,69.4,98.5,74.8,99.1,78.6z"
							/>
					</defs>
					<use xlink:href="#SVGID_31_"  style="overflow:visible;fill:#EBEBF1;"/>
					<clipPath id="SVGID_32_">
						<use xlink:href="#SVGID_31_"  style="overflow:visible;"/>
					</clipPath>
					<g class="st31">
						<path class="st19" d="M99.1,78.6l-3.7-2.2c-0.2-1.2-0.1-2.5,0.3-3.8l3.7,2.2C99.1,76.2,98.9,77.5,99.1,78.6z"/>
						<path class="st19" d="M99.4,74.8l-3.7-2.2c0.4-1.5,1.2-3,2.1-4.3l3.7,2.2C100.6,71.9,99.9,73.4,99.4,74.8z"/>
						<path class="st19" d="M101.5,70.5l-3.7-2.2c0.7-1,1.6-1.9,2.5-2.6l3.7,2.2C103.1,68.6,102.3,69.5,101.5,70.5z"/>
						<path class="st19" d="M104,67.9l-3.7-2.2c0.3-0.2,0.7-0.5,1-0.7l3.7,2.2C104.7,67.4,104.3,67.7,104,67.9z"/>
					</g>
				</g>
				<g>
					<path class="st9" d="M106.1,66.6c3.7-2.1,6.5,0,5.9,4.6l-3.4,26.6c-0.3,2.1-1.6,3.9-3,4.6c-1.4,0.8-2.7,0.6-3-1.2l-3.6-22.6
						c-0.6-3.8,2.2-9.3,5.9-11.4L106.1,66.6z"/>
				</g>
			</g>
		</g>
	</g>
</g>
</svg>
