<?xml version="1.0" encoding="utf-8"?>
<!-- Generator: Adobe Illustrator 19.0.0, SVG Export Plug-In . SVG Version: 6.00 Build 0)  -->
<svg version="1.1" id="Слой_1" xmlns="http://www.w3.org/2000/svg" xmlns:xlink="http://www.w3.org/1999/xlink" x="0px" y="0px"
	 viewBox="0 0 543.9 405.6" style="enable-background:new 0 0 543.9 405.6;" xml:space="preserve">
<style type="text/css">
	.st0{filter:url(#Adobe_OpacityMaskFilter);}
	.st1{filter:url(#Adobe_OpacityMaskFilter_1_);}
	.st2{mask:url(#SVGID_1_);fill:url(#SVGID_2_);}
	.st3{fill:url(#SVGID_3_);}
	.st4{filter:url(#Adobe_OpacityMaskFilter_2_);}
	.st5{filter:url(#Adobe_OpacityMaskFilter_3_);}
	.st6{mask:url(#SVGID_4_);fill:url(#SVGID_5_);}
	.st7{opacity:0.72;fill:url(#SVGID_6_);}
	.st8{fill:url(#SVGID_7_);}
	.st9{fill:#FFE272;}
	.st10{fill:#FFD179;}
	.st11{fill:#FFD887;}
	.st12{fill:#FFD989;}
	.st13{fill:#FFD785;}
	.st14{fill:#FFD078;}
	.st15{fill:#FFFFFF;}
	.st16{fill:url(#SVGID_8_);}
	.st17{filter:url(#Adobe_OpacityMaskFilter_4_);}
	.st18{filter:url(#Adobe_OpacityMaskFilter_5_);}
	.st19{mask:url(#SVGID_9_);fill:url(#SVGID_10_);}
	.st20{fill:url(#SVGID_11_);}
	.st21{filter:url(#Adobe_OpacityMaskFilter_6_);}
	.st22{filter:url(#Adobe_OpacityMaskFilter_7_);}
	.st23{mask:url(#SVGID_12_);fill:url(#SVGID_13_);}
	.st24{fill:url(#SVGID_14_);}
	.st25{filter:url(#Adobe_OpacityMaskFilter_8_);}
	.st26{filter:url(#Adobe_OpacityMaskFilter_9_);}
	.st27{mask:url(#SVGID_15_);fill:url(#SVGID_16_);}
	.st28{fill:url(#SVGID_17_);}
	.st29{fill:url(#SVGID_18_);}
	.st30{fill:#FFD255;}
	.st31{filter:url(#Adobe_OpacityMaskFilter_10_);}
	.st32{filter:url(#Adobe_OpacityMaskFilter_11_);}
	.st33{mask:url(#SVGID_19_);fill:url(#SVGID_20_);}
	.st34{opacity:0.72;fill:url(#SVGID_21_);}
	.st35{fill:#323657;}
	.st36{fill:#252840;}
	.st37{fill:#292C47;}
	.st38{fill:#C4B4AF;}
	.st39{fill:#EB4747;}
	.st40{fill:#6880EB;}
	.st41{fill:#4A64E0;}
	.st42{fill:#4860CF;}
	.st43{fill:#EDDAD3;}
	.st44{fill:#DECCC6;}
	.st45{fill:#E3D1CA;}
	.st46{fill:#B39696;}
	.st47{fill:#DBB8B8;}
	.st48{fill:#F2CBCB;}
	.st49{fill:#323438;}
	.st50{fill:#EFAA88;}
	.st51{fill:#CAC7D1;}
	.st52{fill:#1D2033;}
	.st53{fill:#EEA987;}
	.st54{fill:#D88A51;}
	.st55{fill:#C78D71;}
	.st56{fill:#A09EA6;}
	.st57{fill:#EAE6F2;}
	.st58{fill:#3A4066;}
	.st59{fill:#202338;}
	.st60{fill:#81807E;}
	.st61{fill:#DBD8E3;}
	.st62{fill:#E8734D;}
	.st63{fill:#C4C1CC;}
	.st64{fill:#EEA886;}
	.st65{fill:#16202E;}
	.st66{fill:#A77860;}
	.st67{opacity:8.000000e-002;fill:url(#SVGID_22_);}
	.st68{fill:url(#SVGID_23_);}
	.st69{fill:url(#SVGID_24_);}
	.st70{fill:#706865;}
	.st71{fill:#BDAFAA;}
	.st72{fill:#B5DEFF;}
	.st73{fill:#DB9C7C;}
	.st74{fill:#FFDE88;}
	.st75{fill:#4DA8F2;}
	.st76{fill:#424773;}
	.st77{fill:#E2D2CA;}
	.st78{fill:#DFE1E8;}
	.st79{fill:#3A3F47;}
	.st80{fill:#DE9673;}
	.st81{fill:#E0E0E0;}
	.st82{fill:#2F4563;}
	.st83{fill:#5F8CC9;}
	.st84{fill:#6E6760;}
	.st85{fill:#518AFA;}
	.st86{fill:#5779D4;}
	.st87{fill:#E55353;}
	.st88{fill:#E64053;}
	.st89{fill:#434343;}
	.st90{fill:#191A2B;}
	.st91{fill:#525252;}
	.st92{fill:#6E6E6E;}
</style>
<g>
	<g>
		<defs>
			<filter id="Adobe_OpacityMaskFilter" filterUnits="userSpaceOnUse" x="257.7" y="368.1" width="94.4" height="10">
				<feFlood  style="flood-color:white;flood-opacity:1" result="back"/>
				<feBlend  in="SourceGraphic" in2="back" mode="normal"/>
			</filter>
		</defs>
		<mask maskUnits="userSpaceOnUse" x="257.7" y="368.1" width="94.4" height="10" id="SVGID_1_">
			<g class="st0">
				<defs>
					<filter id="Adobe_OpacityMaskFilter_1_" filterUnits="userSpaceOnUse" x="257.7" y="368.1" width="94.4" height="10">
						<feFlood  style="flood-color:white;flood-opacity:1" result="back"/>
						<feBlend  in="SourceGraphic" in2="back" mode="normal"/>
					</filter>
				</defs>
				<mask maskUnits="userSpaceOnUse" x="257.7" y="368.1" width="94.4" height="10" id="SVGID_1_">
					<g class="st1">
					</g>
				</mask>
				<linearGradient id="SVGID_2_" gradientUnits="userSpaceOnUse" x1="328.0442" y1="406.8114" x2="287.5714" y2="347.8679">
					<stop  offset="0" style="stop-color:#000000"/>
					<stop  offset="0.6943" style="stop-color:#FFFFFF"/>
				</linearGradient>
				<ellipse class="st2" cx="304.9" cy="373.1" rx="47.2" ry="5"/>
			</g>
		</mask>
		<linearGradient id="SVGID_3_" gradientUnits="userSpaceOnUse" x1="328.0442" y1="406.8114" x2="287.5714" y2="347.8679">
			<stop  offset="0" style="stop-color:#97CBEC"/>
			<stop  offset="0.6943" style="stop-color:#CCC2F5"/>
		</linearGradient>
		<ellipse class="st3" cx="304.9" cy="373.1" rx="47.2" ry="5"/>
		<defs>
			<filter id="Adobe_OpacityMaskFilter_2_" filterUnits="userSpaceOnUse" x="433.8" y="389.8" width="103" height="10.9">
				<feFlood  style="flood-color:white;flood-opacity:1" result="back"/>
				<feBlend  in="SourceGraphic" in2="back" mode="normal"/>
			</filter>
		</defs>
		<mask maskUnits="userSpaceOnUse" x="433.8" y="389.8" width="103" height="10.9" id="SVGID_4_">
			<g class="st4">
				<defs>
					<filter id="Adobe_OpacityMaskFilter_3_" filterUnits="userSpaceOnUse" x="433.8" y="389.8" width="103" height="10.9">
						<feFlood  style="flood-color:white;flood-opacity:1" result="back"/>
						<feBlend  in="SourceGraphic" in2="back" mode="normal"/>
					</filter>
				</defs>
				<mask maskUnits="userSpaceOnUse" x="433.8" y="389.8" width="103" height="10.9" id="SVGID_4_">
					<g class="st5">
					</g>
				</mask>
				<linearGradient id="SVGID_5_" gradientUnits="userSpaceOnUse" x1="497.0804" y1="422.0449" x2="466.1152" y2="351.1508">
					<stop  offset="0" style="stop-color:#000000"/>
					<stop  offset="0.6943" style="stop-color:#FFFFFF"/>
				</linearGradient>
				<ellipse class="st6" cx="485.4" cy="395.2" rx="51.5" ry="5.5"/>
			</g>
		</mask>
		<linearGradient id="SVGID_6_" gradientUnits="userSpaceOnUse" x1="497.0804" y1="422.0449" x2="466.1152" y2="351.1508">
			<stop  offset="0" style="stop-color:#97CBEC"/>
			<stop  offset="0.6943" style="stop-color:#CCC2F5"/>
		</linearGradient>
		<ellipse class="st7" cx="485.4" cy="395.2" rx="51.5" ry="5.5"/>
		<radialGradient id="SVGID_7_" cx="338.9214" cy="101.3595" r="158.5213" gradientUnits="userSpaceOnUse">
			<stop  offset="7.772020e-003" style="stop-color:#FFDD91"/>
			<stop  offset="0.9948" style="stop-color:#FFE655"/>
		</radialGradient>
		<path class="st8" d="M395.5,124.4v0.3c0,11-2.7,21.6-7.7,31.1c0,0-27.4,54.2-31.1,105.5c0.1,24-22.7,43.5-50.9,43.6h-0.9V48
			C354.8,47.9,395.3,82.1,395.5,124.4z"/>
		<g>
			<path class="st9" d="M306.5,306.6H304c-29.1-0.1-52.6-20.3-52.6-44.9c-3.6-50-30.6-103.6-30.9-104.1c-5.2-9.9-7.9-20.6-7.9-31.6
				v-0.3c0.2-42.8,41.5-77.5,92-77.5c0.1,0,0.1,0,0.2,0l1.6,0V306.6z M215.9,125.6v0.3c0,10.5,2.5,20.7,7.5,30.1
				c0.3,0.6,27.6,54.8,31.2,105.5l0,0.1v0.1c-0.1,22.7,21.6,41.3,48.6,41.7V51.3C255.2,51.9,216.1,85,215.9,125.6z"/>
		</g>
		<polygon class="st10" points="411,20.7 421.1,20.7 418,14.3 407.9,14.3 		"/>
		<polygon class="st10" points="406.2,20.7 408.7,20.7 405.6,14.3 403.1,14.3 		"/>
		<polygon class="st10" points="371.2,13.1 412.3,13.1 410.9,9.9 369.8,9.9 		"/>
		<rect x="197.2" y="26.7" class="st11" width="26" height="1.8"/>
		<rect x="197.2" y="30.1" class="st11" width="26" height="7.7"/>
		<rect x="185" y="40.4" class="st11" width="15.4" height="1.1"/>
		<rect x="185" y="42" class="st11" width="15.4" height="3.1"/>
		<rect x="227.5" y="16.8" class="st12" width="1.1" height="21.5"/>
		<rect x="156" y="147.5" class="st13" width="20.5" height="3.7"/>
		<rect x="156" y="145.8" class="st13" width="20.5" height="0.7"/>
		<g>
			<path class="st14" d="M421.5,143.3l-3.2-0.6c7.6-38.4,1.1-69.5-18.8-89.8c-15-15.3-32.5-19.3-32.7-19.4l0.7-3.2
				c0.8,0.2,18.6,4.2,34.3,20.3C416.3,65.3,431.4,93.4,421.5,143.3z"/>
		</g>
		<g>
			<path class="st14" d="M205.4,191.6c-30.7-58.1-11.5-89.7-10.7-91l2.8,1.7c-0.2,0.3-18.9,31.4,10.8,87.7L205.4,191.6z"/>
		</g>
		<path class="st15" d="M361.6,132.6c0.9-2.2,1.4-4.6,1.6-6.9l4.6-1.8l-0.9-5.3l-0.9-5.3l-5-0.2c-1-2.1-2.2-4.2-3.7-6l2-4.5
			l-4.4-3.1l-4.4-3.1l-3.6,3.4c-2.2-0.9-4.6-1.4-6.9-1.6l-1.8-4.6l-5.3,0.9l-5.3,0.9l-0.2,5c-2.1,1-4.2,2.2-6,3.7l-4.5-2l-3.1,4.4
			l-3.1,4.4l3.4,3.6c-0.9,2.2-1.4,4.6-1.6,6.9l-4.6,1.8l0.9,5.3l0.9,5.3l5,0.2c1,2.1,2.2,4.2,3.7,6l-2,4.5l4.4,3.1l4.4,3.1l3.6-3.4
			c2.2,0.9,4.6,1.4,6.9,1.6l1.8,4.6l5.3-0.9l5.3-0.9l0.2-5c2.1-1,4.2-2.2,6-3.7l4.5,2l3.1-4.4l3.1-4.4L361.6,132.6z M330.1,134.4
			c-6-4.2-7.4-12.5-3.1-18.5c4.2-6,12.5-7.4,18.5-3.1c6,4.2,7.4,12.5,3.1,18.5C344.3,137.2,336.1,138.6,330.1,134.4z"/>
		<radialGradient id="SVGID_8_" cx="278.5879" cy="157.4935" r="18.9813" gradientUnits="userSpaceOnUse">
			<stop  offset="7.772020e-003" style="stop-color:#FFDD91"/>
			<stop  offset="0.9948" style="stop-color:#FFE655"/>
		</radialGradient>
		<path class="st16" d="M293.6,163.2c0.5-1.4,0.9-2.9,1-4.4l2.9-1.1l-0.6-3.4l-0.6-3.4l-3.1-0.1c-0.6-1.4-1.4-2.6-2.4-3.8l1.3-2.9
			l-2.8-2l-2.8-2l-2.3,2.2c-1.4-0.5-2.9-0.9-4.4-1l-1.1-2.9l-3.4,0.6l-3.4,0.6l-0.1,3.1c-1.4,0.6-2.6,1.4-3.8,2.4l-2.9-1.3l-2,2.8
			l-2,2.8l2.2,2.3c-0.5,1.4-0.9,2.9-1,4.4l-2.9,1.1l0.6,3.4l0.6,3.4l3.1,0.1c0.6,1.4,1.4,2.6,2.4,3.8l-1.3,2.9l2.8,2l2.8,2l2.3-2.2
			c1.4,0.5,2.9,0.9,4.4,1l1.1,2.9l3.4-0.6l3.4-0.6l0.1-3.1c1.4-0.6,2.6-1.4,3.8-2.4l2.9,1.3l2-2.8l2-2.8L293.6,163.2z M273.7,164.3
			c-3.8-2.7-4.7-7.9-2-11.7c2.7-3.8,7.9-4.7,11.7-2c3.8,2.7,4.7,7.9,2,11.7C282.7,166.1,277.5,167,273.7,164.3z"/>
		<defs>
			<filter id="Adobe_OpacityMaskFilter_4_" filterUnits="userSpaceOnUse" x="273.9" y="196.1" width="15.5" height="99.9">
				<feFlood  style="flood-color:white;flood-opacity:1" result="back"/>
				<feBlend  in="SourceGraphic" in2="back" mode="normal"/>
			</filter>
		</defs>
		<mask maskUnits="userSpaceOnUse" x="273.9" y="196.1" width="15.5" height="99.9" id="SVGID_9_">
			<g class="st17">
				<defs>
					<filter id="Adobe_OpacityMaskFilter_5_" filterUnits="userSpaceOnUse" x="273.9" y="196.1" width="15.5" height="99.9">
						<feFlood  style="flood-color:white;flood-opacity:1" result="back"/>
						<feBlend  in="SourceGraphic" in2="back" mode="normal"/>
					</filter>
				</defs>
				<mask maskUnits="userSpaceOnUse" x="273.9" y="196.1" width="15.5" height="99.9" id="SVGID_9_">
					<g class="st18">
					</g>
				</mask>
				<linearGradient id="SVGID_10_" gradientUnits="userSpaceOnUse" x1="281.6321" y1="156.2288" x2="281.6321" y2="266.4628">
					<stop  offset="7.772020e-003" style="stop-color:#000000"/>
					<stop  offset="1" style="stop-color:#FFFFFF"/>
				</linearGradient>
				<polygon class="st19" points="289.4,295.6 286.5,296 273.9,196.4 276.8,196.1 				"/>
			</g>
		</mask>
		<linearGradient id="SVGID_11_" gradientUnits="userSpaceOnUse" x1="281.6321" y1="156.2288" x2="281.6321" y2="266.4628">
			<stop  offset="7.772020e-003" style="stop-color:#FFDD91"/>
			<stop  offset="1" style="stop-color:#FFFFFF"/>
		</linearGradient>
		<polygon class="st20" points="289.4,295.6 286.5,296 273.9,196.4 276.8,196.1 		"/>
		<defs>
			<filter id="Adobe_OpacityMaskFilter_6_" filterUnits="userSpaceOnUse" x="326.9" y="195.8" width="14.5" height="100">
				<feFlood  style="flood-color:white;flood-opacity:1" result="back"/>
				<feBlend  in="SourceGraphic" in2="back" mode="normal"/>
			</filter>
		</defs>
		<mask maskUnits="userSpaceOnUse" x="326.9" y="195.8" width="14.5" height="100" id="SVGID_12_">
			<g class="st21">
				<defs>
					<filter id="Adobe_OpacityMaskFilter_7_" filterUnits="userSpaceOnUse" x="326.9" y="195.8" width="14.5" height="100">
						<feFlood  style="flood-color:white;flood-opacity:1" result="back"/>
						<feBlend  in="SourceGraphic" in2="back" mode="normal"/>
					</filter>
				</defs>
				<mask maskUnits="userSpaceOnUse" x="326.9" y="195.8" width="14.5" height="100" id="SVGID_12_">
					<g class="st22">
					</g>
				</mask>
				<linearGradient id="SVGID_13_" gradientUnits="userSpaceOnUse" x1="334.129" y1="156.2281" x2="334.129" y2="266.4631">
					<stop  offset="7.772020e-003" style="stop-color:#000000"/>
					<stop  offset="1" style="stop-color:#FFFFFF"/>
				</linearGradient>
				<polygon class="st23" points="326.9,295.4 329.8,295.7 341.4,196.1 338.5,195.8 				"/>
			</g>
		</mask>
		<linearGradient id="SVGID_14_" gradientUnits="userSpaceOnUse" x1="334.129" y1="156.2281" x2="334.129" y2="266.4631">
			<stop  offset="7.772020e-003" style="stop-color:#FFDD91"/>
			<stop  offset="1" style="stop-color:#FFFFFF"/>
		</linearGradient>
		<polygon class="st24" points="326.9,295.4 329.8,295.7 341.4,196.1 338.5,195.8 		"/>
		<g>
			<defs>
				<filter id="Adobe_OpacityMaskFilter_8_" filterUnits="userSpaceOnUse" x="275.3" y="197.9" width="65" height="13.6">
					<feFlood  style="flood-color:white;flood-opacity:1" result="back"/>
					<feBlend  in="SourceGraphic" in2="back" mode="normal"/>
				</filter>
			</defs>
			<mask maskUnits="userSpaceOnUse" x="275.3" y="197.9" width="65" height="13.6" id="SVGID_15_">
				<g class="st25">
					<defs>
						<filter id="Adobe_OpacityMaskFilter_9_" filterUnits="userSpaceOnUse" x="275.3" y="197.9" width="65" height="13.6">
							<feFlood  style="flood-color:white;flood-opacity:1" result="back"/>
							<feBlend  in="SourceGraphic" in2="back" mode="normal"/>
						</filter>
					</defs>
					<mask maskUnits="userSpaceOnUse" x="275.3" y="197.9" width="65" height="13.6" id="SVGID_15_">
						<g class="st26">
						</g>
					</mask>
					<linearGradient id="SVGID_16_" gradientUnits="userSpaceOnUse" x1="307.7828" y1="156.2292" x2="307.7828" y2="266.4624">
						<stop  offset="7.772020e-003" style="stop-color:#000000"/>
						<stop  offset="1" style="stop-color:#FFFFFF"/>
					</linearGradient>
					<polygon class="st27" points="328.9,211.5 318,200.7 307.4,211.4 296.9,201 286.7,211.3 275.3,200 276.7,198.6 286.7,208.5 
						296.9,198.2 307.4,208.6 318,197.9 328.9,208.7 338.9,198.6 340.3,200 					"/>
				</g>
			</mask>
			<linearGradient id="SVGID_17_" gradientUnits="userSpaceOnUse" x1="307.7828" y1="156.2292" x2="307.7828" y2="266.4624">
				<stop  offset="7.772020e-003" style="stop-color:#FFDD91"/>
				<stop  offset="1" style="stop-color:#FFFFFF"/>
			</linearGradient>
			<polygon class="st28" points="328.9,211.5 318,200.7 307.4,211.4 296.9,201 286.7,211.3 275.3,200 276.7,198.6 286.7,208.5 
				296.9,198.2 307.4,208.6 318,197.9 328.9,208.7 338.9,198.6 340.3,200 			"/>
		</g>
		<linearGradient id="SVGID_18_" gradientUnits="userSpaceOnUse" x1="251.7809" y1="290.3269" x2="359.4051" y2="290.3269">
			<stop  offset="0" style="stop-color:#40D5E6"/>
			<stop  offset="1" style="stop-color:#5577FF"/>
		</linearGradient>
		<path class="st29" d="M342,317.9l-72.4,0.4c-9.7,0-17.5-7.8-17.6-17.4l-0.2-38l107.4-0.5l0.2,38C359.5,310,351.7,317.9,342,317.9z
			"/>
		<g>
			<path class="st14" d="M227.7,134.6l-3.3-0.1c1-32.4,16.8-50.6,30-60.1c14.2-10.4,28-13,28.6-13.1l0.6,3.2
				c-0.1,0-13.8,2.7-27.4,12.6C238,90.4,228.4,109.8,227.7,134.6z"/>
		</g>
		<g>
			<g>
				<path class="st30" d="M152.4,110.2c-1.4-0.4-2.7-1.2-3.5-2.3c-1-1.3-1.3-2.7-1-4.2c0.4-2.9,0.1-6-0.2-8.1
					c-2.9-3.5-3.8-8.1-2.6-12.5c2.1-7.2,9.6-11.4,16.8-9.3c7.2,2.1,11.4,9.6,9.3,16.8c-1.1,3.9-3.9,7.1-7.7,8.7
					c-1.6,2.5-2.7,4.8-3.3,7c-0.6,2.9-3.9,4.7-7.3,4C152.7,110.3,152.5,110.2,152.4,110.2z M161.6,74.9c-6.6-1.9-13.5,1.9-15.5,8.5
					c-1.2,4-0.2,8.3,2.5,11.6l0.1,0.1l0,0.2c0.3,2.2,0.6,5.5,0.2,8.6l0,0c-0.2,1.1,0,2.3,0.8,3.3c0.8,1,2,1.8,3.4,2.1
					c2.8,0.6,5.5-0.8,6-3.1l0,0l0,0c0.7-2.3,1.9-4.8,3.5-7.4l0.1-0.1l0.2-0.1c3.5-1.5,6.1-4.4,7.2-8C172,83.8,168.2,76.8,161.6,74.9
					z"/>
			</g>
			<g>
				<polygon class="st30" points="150.8,105.1 152.1,90.3 154.6,93.4 156.9,91.7 158.2,94 161.5,92.2 156.7,106.4 155.7,106 
					159.5,94.5 157.7,95.5 156.6,93.4 154.4,94.9 153,93.1 151.9,105.2 				"/>
			</g>
			<g>
				
					<rect x="147.9" y="108.9" transform="matrix(0.9773 0.2118 -0.2118 0.9773 26.9484 -29.8298)" class="st30" width="9.6" height="3.9"/>
			</g>
			<g>
				
					<rect x="146.9" y="105" transform="matrix(0.9773 0.2118 -0.2118 0.9773 26.3885 -30.0194)" class="st30" width="12.7" height="6.3"/>
			</g>
		</g>
		<g>
			<g>
				<g>
					<g>
						<polygon class="st14" points="424.7,207.9 423.7,207.6 432.8,181 453.1,175.4 460.1,146.3 475.8,139.2 479.1,116.6 
							480.2,116.8 476.9,140 461.1,147.1 454.1,176.3 433.7,182 						"/>
					</g>
				</g>
			</g>
			<g>
				<g>
					<circle class="st15" cx="453.6" cy="175.9" r="3.1"/>
				</g>
			</g>
			<g>
				<g>
					<path class="st14" d="M455.9,178.7c-1.5,1.3-3.8,1.1-5.1-0.5c-1.3-1.5-1.1-3.8,0.5-5.1c1.5-1.3,3.8-1.1,5.1,0.5
						C457.7,175.1,457.5,177.4,455.9,178.7z M452,174c-1.1,0.9-1.2,2.5-0.3,3.5c0.9,1.1,2.5,1.2,3.5,0.3c1.1-0.9,1.2-2.5,0.3-3.5
						C454.6,173.2,453.1,173.1,452,174z"/>
				</g>
			</g>
			<g>
				<g>
					<circle class="st15" cx="460.7" cy="146.9" r="3.1"/>
				</g>
			</g>
			<g>
				<g>
					<path class="st14" d="M463,149.7c-1.5,1.3-3.8,1.1-5.1-0.5c-1.3-1.5-1.1-3.8,0.5-5.1c1.5-1.3,3.8-1.1,5.1,0.5
						C464.8,146.1,464.6,148.4,463,149.7z M459.1,145c-1.1,0.9-1.2,2.5-0.3,3.5c0.9,1.1,2.5,1.2,3.5,0.3c1.1-0.9,1.2-2.5,0.3-3.5
						C461.7,144.3,460.2,144.1,459.1,145z"/>
				</g>
			</g>
			<g>
				<g>
					<circle class="st15" cx="476.1" cy="139.6" r="3.1"/>
				</g>
			</g>
			<g>
				<g>
					<path class="st14" d="M478.5,142.4c-1.5,1.3-3.8,1.1-5.1-0.5c-1.3-1.5-1.1-3.8,0.5-5.1c1.5-1.3,3.8-1.1,5.1,0.5
						C480.2,138.8,480,141.1,478.5,142.4z M474.5,137.7c-1.1,0.9-1.2,2.5-0.3,3.5c0.9,1.1,2.5,1.2,3.5,0.3c1.1-0.9,1.2-2.5,0.3-3.5
						C477.2,136.9,475.6,136.8,474.5,137.7z"/>
				</g>
			</g>
			<g>
				<g>
					<circle class="st15" cx="433.3" cy="181.8" r="3.1"/>
				</g>
			</g>
			<g>
				<g>
					<path class="st14" d="M435.7,184.6c-1.5,1.3-3.8,1.1-5.1-0.5c-1.3-1.5-1.1-3.8,0.5-5.1c1.5-1.3,3.8-1.1,5.1,0.5
						C437.4,181,437.2,183.3,435.7,184.6z M431.7,179.9c-1.1,0.9-1.2,2.5-0.3,3.5c0.9,1.1,2.5,1.2,3.5,0.3c1.1-0.9,1.2-2.5,0.3-3.5
						C434.4,179.1,432.8,179,431.7,179.9z"/>
				</g>
			</g>
		</g>
		<defs>
			<filter id="Adobe_OpacityMaskFilter_10_" filterUnits="userSpaceOnUse" x="7.1" y="384.6" width="201" height="11.6">
				<feFlood  style="flood-color:white;flood-opacity:1" result="back"/>
				<feBlend  in="SourceGraphic" in2="back" mode="normal"/>
			</filter>
		</defs>
		<mask maskUnits="userSpaceOnUse" x="7.1" y="384.6" width="201" height="11.6" id="SVGID_19_">
			<g class="st31">
				<defs>
					<filter id="Adobe_OpacityMaskFilter_11_" filterUnits="userSpaceOnUse" x="7.1" y="384.6" width="201" height="11.6">
						<feFlood  style="flood-color:white;flood-opacity:1" result="back"/>
						<feBlend  in="SourceGraphic" in2="back" mode="normal"/>
					</filter>
				</defs>
				<mask maskUnits="userSpaceOnUse" x="7.1" y="384.6" width="201" height="11.6" id="SVGID_19_">
					<g class="st32">
					</g>
				</mask>
				<linearGradient id="SVGID_20_" gradientUnits="userSpaceOnUse" x1="127.3754" y1="424.3666" x2="88.8042" y2="358.0892">
					<stop  offset="0" style="stop-color:#000000"/>
					<stop  offset="0.6943" style="stop-color:#FFFFFF"/>
				</linearGradient>
				<ellipse class="st33" cx="107.6" cy="390.4" rx="100.5" ry="5.8"/>
			</g>
		</mask>
		<linearGradient id="SVGID_21_" gradientUnits="userSpaceOnUse" x1="127.3754" y1="424.3666" x2="88.8042" y2="358.0892">
			<stop  offset="0" style="stop-color:#97CBEC"/>
			<stop  offset="0.6943" style="stop-color:#CCC2F5"/>
		</linearGradient>
		<ellipse class="st34" cx="107.6" cy="390.4" rx="100.5" ry="5.8"/>
		<g>
			<g>
				<path class="st35" d="M87.3,269.3c0,0,0.7,12-1.5,13.8c-1,0.8-3.4,1.1-6,1.1c-0.9,0-1.7,0-2.6-0.1c0,0,0,0,0,0
					c-3.4-0.2-6.5-0.6-6.5-0.6s-8.8,0.4-8.4-5c0,0,1-1.7,2.3-2c1.2-0.3,6.8,0.6,7.7,0.7c1.1,0,8.6,1.7,8.9,1.6
					c0.3-0.1,1.2-3.1,1.2-5.1c0.1-2.9,0.1-5.5,0.1-5.5L87.3,269.3z"/>
			</g>
			<path class="st36" d="M40.5,383.2c0,0-0.7,1.8-1.4,2.5c-0.6,0.7-3,2-3,4.1c0,2.3,4,1.6,5.6,1.6c1.6-0.1,1.7-1.3,2.4-2.6
				c0.7-1.3,1.3-1.1,1.5-2.1c0.1-1-0.5-3.4-0.5-3.4L40.5,383.2z"/>
			<g>
				<path class="st36" d="M72.2,383.6c0,0,2.2,2.3,4.4,2.8c2.2,0.5,3.8,1.1,3.8,2.4c0,1.3-6.4,2.2-9,0.9c-3.8-2-4.2-1.4-4.6-2.4
					c-0.4-1,0.5-3.7,0.5-4C67.3,382.9,72.2,383.6,72.2,383.6z"/>
			</g>
			<g>
				<path class="st37" d="M72,316.8c0,0,2.3,16.8,3.3,22.5c1.1,6.6,1.5,12.1,1.8,15.6c0.4,4.3-3.7,27.6-3.4,28.9
					c0.3,1.3-7.3-0.5-7.3-0.5s2.4-27.7,1.2-32.3c-1.1-4.3-5-23.2-5.9-22c-1,1.2-7.1,21.9-7.9,25.3c-0.7,3.4-7.7,29.9-7.7,29.9
					s-5.2,1.1-6.6,0.1c0,0,4.6-24.3,5-30.7c0.2-2.4,1.6-28.8,5.7-39.5C52.3,308.2,72,316.8,72,316.8z"/>
			</g>
			<g>
				<path class="st38" d="M11.5,270.2l0.4-6.3c0.1-1.3,1.2-2.3,2.5-2.2l13.6,0.9c1.3,0.1,2.3,1.2,2.2,2.5l-0.4,6.3
					c-0.1,1.3-1.2,2.3-2.5,2.2l-13.6-0.9C12.4,272.6,11.4,271.5,11.5,270.2z"/>
				
					<rect x="59.5" y="226.2" transform="matrix(-6.714700e-002 0.9977 -0.9977 -6.714700e-002 339.9096 223.5323)" class="st39" width="11.8" height="88.8"/>
				
					<rect x="21.3" y="264.8" transform="matrix(0.9977 6.707694e-002 -6.707694e-002 0.9977 18.0395 -3.8078)" class="st40" width="88.8" height="3.9"/>
				
					<rect x="63.5" y="226.2" transform="matrix(-6.696459e-002 0.9978 -0.9978 -6.696459e-002 339.9015 223.4816)" class="st41" width="3.9" height="88.8"/>
				
					<rect x="63.2" y="230.2" transform="matrix(-6.717512e-002 0.9977 -0.9977 -6.717512e-002 343.5568 228.0063)" class="st42" width="3.9" height="88.8"/>
				<polygon class="st43" points="109.4,279.6 110.2,267.7 123,273.3 126.3,274.8 122.8,275.7 				"/>
				<path class="st44" d="M109.9,271.7c-1.1-0.1-1.8-1-1.8-2.1c0.1-1.1,1-1.9,2-1.8L109.9,271.7z"/>
				<path class="st45" d="M109.6,275.6c-1.1-0.1-1.8-1-1.8-2.1c0.1-1.1,1-1.9,2-1.8L109.6,275.6z"/>
				<path class="st43" d="M109.4,279.6c-1.1-0.1-1.8-1-1.8-2.1c0.1-1.1,1-1.9,2-1.8L109.4,279.6z"/>
				
					<rect x="18.3" y="261.8" transform="matrix(0.9978 6.688733e-002 -6.688733e-002 0.9978 17.6874 -0.8193)" class="st46" width="5.5" height="3.9"/>
				
					<rect x="18.8" y="264.9" transform="matrix(-6.694766e-002 0.9978 -0.9978 -6.694766e-002 289.2736 264.818)" class="st47" width="3.9" height="5.5"/>
				
					<rect x="18.6" y="268.9" transform="matrix(-6.694809e-002 0.9978 -0.9978 -6.694809e-002 292.9192 269.283)" class="st48" width="3.9" height="5.5"/>
				<polygon class="st44" points="109.9,271.7 126.3,274.8 110.2,267.7 				"/>
				<polygon class="st45" points="109.6,275.6 126.3,274.8 109.9,271.7 				"/>
				<polygon class="st43" points="109.6,275.6 126.3,274.8 109.4,279.6 				"/>
				<polygon class="st49" points="122.8,275.7 123,273.3 126.3,274.8 				"/>
			</g>
			<g>
				<g>
					<path class="st50" d="M83.6,265.4c0,0-0.5,2,0,2.6c0.4,0.6,0.6-0.2,0.6-0.2s-0.2,0.7,0.3,1c0.6,0.2,0.8-0.6,0.8-0.6
						s0,0.6,0.6,0.6c0.6,0,0.6-0.7,0.6-0.7s0.4,0.8,0.9,0.3c0.9-1,0.5-2.5,0.5-2.5s-0.1-0.4-0.7-0.3c0,0-0.2-0.9-1.2-0.5
						c0,0-0.8-0.7-1.3,0C84.8,265,83.9,264.2,83.6,265.4z"/>
				</g>
			</g>
			<g>
				<path class="st51" d="M41.5,316.5c0,0,2.9,0.9,4.1,0.7c1.2-0.2,0.6-15,0.6-18.1c0-2.5,1.4-9.1,1.4-9.1s0,0,0,0c0,0,0,0,0,0
					c0,0,0,0,0,0c0.1,0.5,2,7.3,2,10.6c0.1,3.4-0.4,16.4-0.4,16.4l5.1,0.5l14.6,0.4l3-0.4c0,0-0.4-5.6-0.5-8.2
					c-0.1-1.7-0.4-4.7-0.3-7.6c0,0-0.1-3.1,0.3-4.4c0-5.9,0.4-11.7,0.4-11.7c0.2-2.7,0.3-5.2,0.4-7.5c-0.6-0.3-1.4-0.7-2-1
					c-1.9-0.9-4.6-2.1-6.3-2.9c-1-0.5-2-0.8-2-0.8s-6.8-0.7-7.4-0.6c-0.2,0-1,0.3-2.2,0.7c-2.4,0.9-7.1,2.8-7.8,3.3
					c-1.1,0.8-3.4,19.4-3.5,20.7C40.8,299.8,41.5,316.5,41.5,316.5z"/>
			</g>
			<path class="st52" d="M71.5,315.2c0,0-10,0.9-18.8,0v2.9c0,0,13.2,1.9,19.2-0.5L71.5,315.2z"/>
			<g>
				<path class="st35" d="M63,273.8c0,0,1.6,3.8,2.9,12.4c0.5,3.3,1.3,8.8,2,14.5v0c0.5,4.4,1.6,9,2,12.4c0.4,3.5,1.5,13.9,1.5,13.9
					l2.7-1.7c0.4-0.4,0.9-0.8,0.8-1.3c-0.8-2.4-2.2-10.5-3-17.5c0,0,0,0,0,0c0-0.3-0.1-0.7-0.1-1c0,0,0,0,0-0.1
					c-0.2-1.4-0.3-2.7-0.4-4c-0.1-0.9,0-1.9,0.1-2.8c0.4-6.3,0.6-12.9,0.6-12.9c0.2-2.7,0.7-6.2,0.8-8.6c-1-0.1-1.7-0.3-2.4-0.5
					C70.3,276.6,64.9,274.6,63,273.8z"/>
			</g>
			<g>
				<path class="st53" d="M59.4,255.7c0,0,5.1,0.9,4.2,8.8c-0.9,8-5.3,7.3-5.6,7.2c-0.3,0-4.5,0.1-4.7-9.6
					C53.3,262.1,53.2,254.9,59.4,255.7z"/>
			</g>
			<g>
				<path class="st53" d="M61.7,269.5c0,0,0,3.3,0.1,4c0.1,0.8-4.1,3-6.8,0.4c0,0,0.6-3.6,0.4-4.8C55.2,267.7,61.7,269.5,61.7,269.5
					z"/>
			</g>
			<g>
				<path class="st53" d="M63.7,262.7c0,0,0.6-0.6,0.8,0c0.2,0.6-0.7,3.2-0.8,3.4c0,0-0.1,0.2-0.2,0.1
					C63.2,266.1,63.7,262.7,63.7,262.7z"/>
			</g>
			<g>
				<path class="st53" d="M53.3,262.1c0,0-0.5-0.6-0.8,0c-0.2,0.6,0.6,3.3,0.7,3.4c0,0,0.2,0.3,0.3,0.1
					C53.7,265.5,53.3,262.1,53.3,262.1z"/>
			</g>
			<g>
				<path class="st54" d="M64.1,261.6c-0.2,1.1-0.3,1.9-0.3,1.9l-0.7,1c0,0,0-2.1-0.1-2.5c0-0.1-0.1-0.4-0.1-0.6
					c-0.1-0.4-0.2-0.9-0.2-1c-0.1-0.2-4.4-1.5-8.1,0.3c0,0,0,0.3,0,0.7c0,0.4,0,0.9-0.2,1c-0.4,0.1-0.2,2.5-0.2,2.5l-0.6-0.7
					c0,0-0.2-1.2-0.3-2.7c0,0,0,0,0,0c0-0.3-0.1-0.7-0.1-1c-0.1-1.4,0.1-4,1.9-5.5c1.3-0.5,3.3-1,6.6,0c0,0,0.8,0.1,1,0.3
					C64.5,257.5,64.1,261.6,64.1,261.6z"/>
			</g>
			<path class="st55" d="M55.7,270.7c0,0,0.8,1.1,2.7,1.1c1.9,0,2.7-1,2.7-1s-0.9,1.9-2.7,1.8C56.6,272.6,55.7,270.7,55.7,270.7z"/>
			<path class="st56" d="M62,275.9l-1.9,1.4c0,0,1.6-3.4,1.6-4.7L62,275.9z"/>
			<polygon class="st57" points="61.7,272.6 63,273.8 64.4,277.8 62,275.9 			"/>
			<path class="st53" d="M61.5,273.8c0,0-0.5,1.8-1.4,3.5c0,0-2-1.7-2.6-2.4C56.9,274.3,61.5,273.8,61.5,273.8z"/>
			<path class="st56" d="M58,275.4l2.1,1.9c0,0-2.5-0.2-2.9-0.6L58,275.4z"/>
			<path class="st57" d="M55.3,271.8c0,0,1.7,2.7,2.8,3.6l-1.8,3.1l-3-5.4L55.3,271.8z"/>
			<g>
				<path class="st35" d="M46.4,299.2c-0.2,2.9,1,18.6-0.2,18.9c-1.2,0.2-5.6-0.8-5.6-0.8s-0.6-17-0.4-18.8
					c0.1-1.3,2.2-20.8,3.3-21.6c0.6-0.5,5.3-2.1,7.6-3c0.4-0.2,1.7-0.7,2.1-0.9c0.5,0.5,4.7,10.5,5.1,18.2c0.1,2.4-0.4,7.3-0.9,11.4
					c-0.4,4.3-0.9,7.7-1.3,11.4c-0.7,7.2-1.2,12.9-1.2,12.9l-7.1-3.2c-1.2-0.6-2.7-2.9-2.3-4.2c1.6-4.6,3.7-12.5,3.7-16.5
					c0,0-0.8-9.9-1.4-12.1C47.8,291,46.7,295.6,46.4,299.2z"/>
			</g>
			<path class="st50" d="M40.6,325.4c0,0-0.2-0.6-0.2-0.9c0,0,0.1-0.6,0.1-1c0-0.1,0-0.2,0-0.3c0-0.3-0.1-1,0-1.7
				c0.2-0.7,1-3.3,1-3.3l2.3,0.3l2-0.3c0,0,1.5,4.3,1.4,5c0,0.1,0,0.1,0,0.2c-0.1,0.6-0.5,1-0.6,1.3c0,0.1-0.5,1.2-0.8,1.3
				c-0.5,0.1-0.8,0.1-1.1-0.2c0,0-0.9,0.2-1.5,0c0,0-0.8,0.3-1.5-0.3C41.8,325.7,40.9,325.9,40.6,325.4z"/>
			<g>
				<path class="st35" d="M46.6,307.2l-0.1,12.5c0,0-2.5-0.1-6-1.4l-0.2-17.7L46.6,307.2z"/>
			</g>
			<rect x="59.6" y="315.4" class="st58" width="4.7" height="3.5"/>
		</g>
		<g>
			<path class="st59" d="M499.5,388.3c0,0,1.1,2,1.8,2.8c0.7,0.8,3.4,2.2,3.4,4.6c0,2.6-4.6,1.9-6.4,1.8c-1.8-0.1-1.9-1.5-2.7-2.9
				c-0.8-1.5-1.5-1.2-1.7-2.4c-0.1-1.2,0.7-3.9,0.7-3.9H499.5z"/>
			<g>
				<path class="st59" d="M472.3,388c0,0-2.2,2.5-4.4,3c-2.2,0.5-3.8,1.2-3.8,2.6c0,1.4,6.5,2.3,9,0.9c3.8-2.1,4.2-1.5,4.6-2.6
					c0.4-1.1-0.5-3.9-0.5-4.2C477.2,387.3,472.3,388,472.3,388z"/>
			</g>
			<g>
				<path class="st60" d="M472.5,386.8c0,0-0.3,1.2-0.2,1.2c0,0,5.1,0.6,4.9-0.3c-0.1-0.8-0.3-1.6-0.3-1.6L472.5,386.8z"/>
			</g>
			<g>
				<path class="st60" d="M494.8,387.5c0,0-0.2,1.1-0.2,1.1c0,0,5.1,0.9,5,0c0-0.7-0.5-1.6-0.5-1.6L494.8,387.5z"/>
			</g>
			<g>
				<path class="st37" d="M477.1,317.7c0,0-1.8,17.7-2.8,23.7c-1.1,7.1-1.5,12.9-1.8,16.6c-0.4,4.6-0.5,27.3-0.7,28.6
					c-0.3,1.3,6,0.4,6,0.4s3.1-29.6,4.3-34.5c1.1-4.6,5.1-24.2,6.1-23c1,1.2,2.2,23,2.9,26.6c0.7,3.6,2.9,31.8,2.9,31.8s5,1,6.4-0.1
					c0,0,0.6-24.3,0.1-31.1c-0.2-2.6,3-30.9-1.1-42.3C497.2,308.4,477.1,317.7,477.1,317.7z"/>
			</g>
			<g>
				<path class="st61" d="M493.4,313.8c0,0-1.2-1.8-2.5-2.1c-1.3-0.2,17.7-9.4,17.7-12.7c0-2.7-6.8-7.1-6.8-7.1s0,0,0,0c0,0,0,0,0,0
					c0,0,0,0,0,0c-0.1,0.5-2.1,7.8-2.2,11.3c-0.1,3.6,0.2,16.2,0.2,16.2l-4.9,1.3l-15.6,0.1l-3.6-1.5c0,0,0.4-4,0.5-6.8
					c0.1-1.8,0.4-5,0.3-8.1c0,0,0.1-3.3-0.3-4.7c0-6.3-0.4-12.5-0.4-12.5c-0.2-2.8-0.4-5.5-0.4-8c0.7-0.4,1.5-0.8,2.2-1.1
					c2-1,4.9-2.3,6.7-3.1c1.1-0.5,2.1-0.9,2.1-0.9s7.3-0.7,7.9-0.7c0.2,0,1.1,0.3,2.3,0.8c2.6,1,7.6,3,8.4,3.6
					c1.2,0.8,8.8,21,8.9,22.4C514.2,302.8,493.4,313.8,493.4,313.8z"/>
			</g>
			<path class="st52" d="M476.2,318.1c0,0,10.7,0.9,20.1,0v3.1c0,0-13.9,1.3-20.5-0.6L476.2,318.1z"/>
			<g>
				<path class="st35" d="M475.4,279.2c0.1,2.5,0.2,5.2,0.4,8.1c0,0,0.2,7.1,0.6,13.8c0.1,1,0.2,1.9,0.1,3c-0.1,1.3-0.2,2.7-0.4,4.2
					c0,0,0,0,0,0.1c0,0.4-0.1,0.7-0.1,1.1c0,0,0,0,0,0c-0.9,7.5-2.4,16.1-3.3,18.7c-0.2,0.5,0.4,1,0.8,1.4l2.9,1.8
					c0,0,1.2-11.1,1.6-14.9c0.4-3.6,1.6-8.5,2.1-13.3v0c0.7-6,1.6-11.9,2.1-15.4c1.3-9.1,3-13.2,3-13.2
					C484.5,274.8,475.4,279.2,475.4,279.2z"/>
			</g>
			<g>
				<path class="st35" d="M506.4,298.1c1.3,2.8-11.6,7.7-11.3,8.4c0.7,1.6,3.5,5,3.5,5s17-8.4,16.8-10.3c-0.1-1.4-8.1-22.4-9.3-23.2
					c-0.7-0.5-5.7-2.3-8.1-3.2c-0.4-0.2-2-0.8-2.4-0.9c-0.5,0.6-4.1,4.5-5.4,19.5c-0.2,2.5,0.5,7.8,0.9,12.2c0.5,4.6,1,8.3,1.4,12.1
					c0.8,7.6,1.3,13.7,1.3,13.7l7.6-3.4c1.2-0.6,3.4-2.2,2.9-3.5c-1.8-4.9-4.4-14.3-4.4-18.6c0,0,1.2-11.9,1.9-14.3
					C501.9,291.6,505,295,506.4,298.1z"/>
			</g>
			<g>
				<path class="st53" d="M493.8,274.3c0,0,0-2.5,1-7.6c0.3-1.4-7.9,3.6-7.9,3.6s0,0.5,0,1.1c0,0.3,0,0.7,0,1.1c0,0.1,0,0.3,0,0.4
					c0,0.4,0,0.7-0.1,1c0,0.3-0.2,0.8-0.3,1C486.3,275.6,491,276.2,493.8,274.3z"/>
			</g>
			<path class="st62" d="M488.7,276.9l-1.3,1.8c0,0,0.8,1.1,2.2,0.3L488.7,276.9z"/>
			<path class="st62" d="M487.7,278.8c0,0-5.1,19.7-4.1,35.1l1.7,3l1.6-3.2c0,0,0.4-27.4,1.8-35L487.7,278.8z"/>
			<path class="st53" d="M487.2,275.2l1.4,1.7c0,0,2.3-0.4,3-1.7C492.4,274,487.2,275.2,487.2,275.2z"/>
			<path class="st63" d="M486.9,273.7c0,0,0.2,1.3,1.8,3.2l-1.8,2.4l-1-4.9L486.9,273.7z"/>
			<path class="st63" d="M493.9,272.3c0,0-2.9,3.7-5.2,4.6l1.1,2.7l5-6L493.9,272.3z"/>
			<g>
				<path class="st64" d="M445.6,299.6c0,0-5.4,0.6-5.7,1c-0.3,0.3-0.2,0.6,0.3,0.6c0.5,0,5.2-0.5,5.2-0.5s-6.1,1.8-6.5,2
					c-0.2,0.1-0.1,0.7,0.2,0.7c0.3,0,6.5-1.4,6.5-1.4s-5.7,1.7-5.9,2c-0.2,0.2,0.1,0.7,0.5,0.6c0.4-0.1,5.9-1.4,5.9-1.4
					s-4.1,1.5-4.1,1.8c0,0.2,0,0.7,1.1,0.3c1-0.4,3.6-1.2,3.6-1.2L445.6,299.6z"/>
			</g>
			<g>
				<g>
					<path class="st64" d="M451.9,299.8c0,0-1.8,0.1-2.3-0.8c-0.5-0.8-1.6-1.5-1.9-1.7c-0.5-0.3-1.6-1.7-1.9-1.1
						c-0.3,0.6,1.8,2.4,2.1,2.8c0.4,0.5-2.2,0.3-2.7,0.6c-0.5,0.3-0.2,4.6,1.6,4.5c1.8-0.1,3.5-1.3,3.8-1.3c0.3,0,1.3,0,1.3,0
						L451.9,299.8z"/>
				</g>
			</g>
			<g>
				<path class="st35" d="M451.2,304c0,0,13.2-1.8,16.1-2.6c1.3-0.3,3.1-2.2,4.8-4.4c0.6-0.7,1.1-1.5,1.6-2.2c0,0,0,0,0,0
					c2.1-3,3.7-5.9,3.7-5.9s6.1-7.2,1.2-10.4c0,0-2.1,0-3.3,0.6c-1.2,0.6-3.7,5.9-4.2,6.9c-0.4,0.9-5.1,9.6-5.4,9.8
					c-0.3,0.2-5,1.2-7,1.6c-3,0.6-8.6,1.8-8.6,1.8L451.2,304z"/>
			</g>
			<rect x="484.1" y="318.3" class="st58" width="5" height="3.8"/>
			<path class="st50" d="M492.5,314c0,0,0.6,0,0.9-0.2c0,0,0.5-0.3,0.8-0.5c0.1-0.1,0.2-0.1,0.3-0.1c0.3-0.1,0.9-0.3,1.5-0.7
				c0.6-0.4,2.5-2.2,2.5-2.2l-1.2-1.9l-0.6-1.9c0,0-4.5,0.4-5,0.8c-0.1,0-0.1,0.1-0.2,0.1c-0.5,0.3-0.7,0.8-0.9,1
				c-0.1,0.1-0.9,0.9-0.8,1.2c0.1,0.5,0.3,0.8,0.6,0.9c0,0,0.2,0.9,0.6,1.3c0,0,0.1,0.8,0.8,1.2C491.8,313.1,492,313.9,492.5,314z"
				/>
			<path class="st35" d="M498.6,311.5c0,0-2.5-2-3.8-5l7.6-4.2l2.8,5.7L498.6,311.5z"/>
			<g>
				<path class="st64" d="M482.6,257.8c0,0-1.8,3.3-0.9,3.8c0.7,0.4-0.9,3.7-1.1,4.2c-0.2,0.5,1.3,0.9,1.7,1.3
					c0.3,0.3,1.3,4.6,2.6,4.7c1.3,0.1,7-1.9,8.5-3.5c1.6-1.6,2.8-8.9,1.8-12C494.1,253.2,485.8,252,482.6,257.8z"/>
			</g>
			<g>
				<path class="st65" d="M482.3,258.5c0,0-1.8-3.6,1.5-6.2c3.3-2.7,9.4,2,10.1,2.2c0.7,0.2,4.6,0.4,2.6,7.3
					c-1.7,5.9-1.9,6.1-1.9,6.1s-1.3-3.4-2-3.9c-1.1-0.8-3.6-0.6-3.6-0.6s1.2-3.1-0.7-3.5C486.5,259.4,484.1,257.8,482.3,258.5z"/>
			</g>
			<g>
				<path class="st64" d="M490.9,261.6c0.2-0.4,0.7-2.3,2.3-1.2c1.6,1.1-1,4.5-1.3,4.6C491.7,265,489.6,265.1,490.9,261.6z"/>
			</g>
			<path class="st66" d="M487,272.5c0,0.1,0,0.3,0,0.4c4.7-1.6,5.6-3.9,5.6-3.9c-1.5,1-5.6,2.4-5.6,2.4
				C486.9,271.7,487,272.1,487,272.5z"/>
		</g>
		<linearGradient id="SVGID_22_" gradientUnits="userSpaceOnUse" x1="200.4369" y1="158.7876" x2="411.6305" y2="158.7876">
			<stop  offset="0" style="stop-color:#E0E0E0"/>
			<stop  offset="1" style="stop-color:#FF556F"/>
		</linearGradient>
		<path class="st67" d="M208.7,286.1c0,0-50.5-258.2,98.1-254.6C455.4,35,402.5,286,402.5,286L208.7,286.1z"/>
		
			<linearGradient id="SVGID_23_" gradientUnits="userSpaceOnUse" x1="-11676.7764" y1="316.6486" x2="-11990.3262" y2="316.6486" gradientTransform="matrix(-1 0 0 1 -11517.8174 0)">
			<stop  offset="0" style="stop-color:#FF9F55"/>
			<stop  offset="1" style="stop-color:#FFD255"/>
		</linearGradient>
		<rect x="208.7" y="286.3" class="st68" width="193.8" height="60.6"/>
		
			<linearGradient id="SVGID_24_" gradientUnits="userSpaceOnUse" x1="-11792.1006" y1="316.6486" x2="-11884.041" y2="316.6486" gradientTransform="matrix(-1 0 0 1 -11517.8174 0)">
			<stop  offset="0" style="stop-color:#FF9F55"/>
			<stop  offset="1" style="stop-color:#FFD255"/>
		</linearGradient>
		<polygon class="st69" points="402.5,347 402.5,286.3 332,286.3 294.1,346.3 		"/>
		<rect x="206.9" y="271" class="st70" width="2.4" height="107.1"/>
		<path class="st71" d="M212.6,360.4h-63.4c-3.9,0-7.1-3.2-7.1-7.1V233.3c0-3.9,3.2-7.1,7.1-7.1h63.4c3.9,0,7.1,3.2,7.1,7.1v120.1
			C219.7,357.2,216.5,360.4,212.6,360.4z"/>
		<path class="st15" d="M210.6,355.2h-59.3c-3.9,0-7-3.1-7-7V235.3c0-3.9,3.1-7,7-7h59.3c3.9,0,7,3.1,7,7v112.8
			C217.6,352,214.4,355.2,210.6,355.2z"/>
		<rect x="169.3" y="225.2" class="st70" width="23.1" height="5.2"/>
		<g>
			<g>
				<path class="st35" d="M161.3,285.5C161.3,285.5,161.3,285.5,161.3,285.5C161.4,285.5,161.4,285.5,161.3,285.5z"/>
			</g>
		</g>
		<g>
			<path class="st72" d="M179.4,275.3c-0.6,0-1.3,0-1.9-0.1c-0.7-0.1-1.4-0.2-2.1-0.3c-2.9-0.6-5.7-1.9-8.1-3.7
				c-0.7-0.5-1.4-1.1-2-1.8c-0.1-0.1-0.3-0.3-0.4-0.4c-0.4-0.5-0.9-1-1.3-1.5c-2.7-3.5-4.1-7.7-4.1-12.1c0-10.9,8.9-19.8,19.8-19.8
				v0.9c-10.4,0-18.9,8.5-18.9,18.9c0,4.2,1.4,8.2,3.9,11.6c0.4,0.5,0.8,1,1.2,1.4c0.1,0.1,0.2,0.2,0.3,0.4c0.6,0.6,1.2,1.2,1.9,1.7
				c2.3,1.7,4.9,3,7.7,3.5c0.6,0.1,1.3,0.2,2,0.3c0.6,0.1,1.2,0.1,1.8,0.1c0.2,0,0.4,0,0.6,0c0.6,0,1.1-0.1,1.7-0.1
				c3.1-0.4,6.1-1.5,8.6-3.3c0.3-0.2,0.5-0.4,0.8-0.6c0.2-0.2,0.4-0.4,0.7-0.5c0.8-0.7,1.5-1.4,2.1-2.1c2.9-3.4,4.4-7.7,4.4-12.2
				c0-0.9-0.1-1.9-0.2-2.8l0.9-0.1c0.1,1,0.2,1.9,0.2,2.9c0,4.7-1.6,9.2-4.6,12.7c-0.7,0.8-1.4,1.6-2.2,2.2
				c-0.2,0.2-0.5,0.4-0.7,0.6c-0.3,0.2-0.5,0.4-0.8,0.6c-2.7,1.9-5.8,3.1-9,3.5c-0.6,0.1-1.2,0.1-1.8,0.1
				C179.8,275.3,179.6,275.3,179.4,275.3z"/>
		</g>
		<g>
			<g>
				<path class="st35" d="M172.3,288.7C172.3,288.7,172.3,288.7,172.3,288.7C172.3,288.7,172.3,288.7,172.3,288.7z"/>
			</g>
		</g>
		<g>
			<g>
				<g>
					<g>
						<path class="st64" d="M134.4,317.9c0,0,0.5,0.9,0.6,1.6c0.1,0.6,0.5,1.4,0.7,1.9c0.2,0.5,0.9,2.6,0.9,3.1
							c0,0.2-0.5,1.6-0.4,2.1c0.1,0.5,0.3,1.3-0.1,1.4c-0.4,0.1-0.9-0.7-0.9-0.7s0,0.4-0.3,0.6c-0.7,0.3-1,0-1,0s-0.2,0.5-0.6,0.5
							c-0.7,0.1-1-0.1-1-0.1s-0.3,0.3-0.8,0.2c-0.6,0-0.9-0.5-0.9-0.5s-0.8,0.2-1-0.2c-0.2-0.4-0.2-0.7-0.3-1.1
							c-0.1-0.3,0-3.2,1-5.3c1-2.1-0.3-4.1-0.3-4.1L134.4,317.9z"/>
					</g>
				</g>
			</g>
			<g>
				<g>
					<path class="st73" d="M135.4,327c0,0,0.1-2.6-0.6-3.2c-0.7-0.6-0.8,0.4-0.8,0.4s0.1-0.9-0.7-1.1c-0.8-0.1-0.8,1-0.8,1
						s-0.1-0.7-0.9-0.6c-0.8,0.1-0.6,1.1-0.6,1.1s-0.8-0.9-1.2,0c-0.8,1.5,0,3.2,0,3.2s0.2,0.4,1,0.2c0,0,0.5,1,1.6,0.3
						c0,0,1.1,0.6,1.6-0.4C133.9,327.9,135.2,328.5,135.4,327z"/>
				</g>
			</g>
			<path class="st74" d="M143.3,280.3c0,0-4.5,14.9-6,20.4c-0.5,1.7-1.6,18.2-1.8,18.8c-0.2,0.7-5.9,1.6-5.9,1.6s0.7-20.6,0.8-21.7
				c0.1-1.1,6.3-24.1,8-24.9c1.3-0.6,2.1-0.1,3.8,1.2C144.5,277.4,143.3,280.3,143.3,280.3z"/>
			<g>
				
					<rect x="191.7" y="250.4" transform="matrix(0.5479 0.8366 -0.8366 0.5479 301.4841 -44.7813)" class="st75" width="0.9" height="12.2"/>
			</g>
			<path class="st50" d="M198.6,256.6c0,0-0.1,0.6-0.3,0.8c0,0-0.3,0.4-0.6,0.7c-0.1,0.1-0.1,0.2-0.2,0.2c-0.1,0.2-0.4,0.8-0.8,1.3
				c-0.5,0.5-2.4,2.1-2.4,2.1l-1.6-1.4l-1.7-0.8c0,0,0.9-4.1,1.3-4.6c0,0,0.1-0.1,0.1-0.1c0.4-0.4,0.8-0.5,1.1-0.7
				c0.1-0.1,1-0.7,1.3-0.6c0.4,0.1,0.7,0.4,0.8,0.7c0,0,0.8,0.3,1.2,0.7c0,0,0.8,0.2,1,0.9C197.8,255.9,198.6,256.2,198.6,256.6z"/>
			<g>
				<g>
					<path class="st76" d="M139.6,382c0,0-0.4,2.8-0.5,3.3c-0.1,0.4-4.5-0.3-4.5-0.3l-0.4-3.4C134.3,381.6,139.1,381.6,139.6,382z"
						/>
				</g>
			</g>
			<g>
				<g>
					<path class="st37" d="M139.2,384.9c0,0,1.4,1.7,2.8,2.4c1.4,0.7,3.5,1,4.3,1.8c0.6,0.6,2.1,2.9-3.6,2.9c-5.7,0-8.4,0.3-9.1-0.6
						c-0.6-0.9,0.9-6.8,0.9-6.8S136,385.2,139.2,384.9z"/>
				</g>
			</g>
			<g>
				<g>
					<path class="st76" d="M171.7,382c0,0-0.4,2.8-0.5,3.3c-0.1,0.4-4.5-0.3-4.5-0.3l-0.4-3.4C166.4,381.6,171.2,381.6,171.7,382z"
						/>
				</g>
			</g>
			<g>
				<g>
					<path class="st37" d="M171.3,384.9c0,0,1.4,1.7,2.8,2.4c1.4,0.7,6.4,1.4,7.2,2.1c0.6,0.6,1.6,2.8-6.5,2.6
						c-5.7-0.1-8.4,0.3-9.1-0.6c-0.6-0.9,0.9-6.8,0.9-6.8S168,385.2,171.3,384.9z"/>
				</g>
			</g>
			<g>
				<g>
					<path class="st37" d="M143.3,309.4c0,0-4.2,6.7-3.9,12.7c0.3,6-1.5,12.6-2.2,19c-0.7,7-3.6,23.7-3.7,27.5
						c-0.1,3.8,0.4,15.8,0.4,15.8l5.8,0.1c0,0,4.8-29.1,6.1-32.1c1.3-3,7.5-24.2,7.7-26.5C153.8,323.4,143.3,309.4,143.3,309.4z"/>
				</g>
			</g>
			<g>
				<g>
					<path class="st37" d="M165.5,310.3c0,0,3.2,16.6,3.6,20.3c0.4,3.7,0.7,17.9,0.9,20.2c0.2,2.3,2,30.2,2.5,33.7h-7.4
						c0,0-5.7-20.3-5.7-29.9c0-9.6-4.4-20.9-7.2-27.2c-2.8-6.3-9.3-6.5-11-18.3C141.2,309,163.1,306.5,165.5,310.3z"/>
				</g>
			</g>
			<g>
				<g>
					<path class="st64" d="M150.4,253.2c0,0,5.6-2.1,8.3,2.2c2.6,4.3,2.4,12.9-0.5,14c-2.8,1.1-7.1,0.5-8.6-2.2
						c-1.5-2.7-2.8-6.6-2.7-9.2C146.9,255.4,148.9,253.9,150.4,253.2z"/>
				</g>
			</g>
			<g>
				<g>
					<path class="st64" d="M157.5,269.5c0,0-0.2,1.5,0.2,2.3c0.4,0.8-7.3,0.8-7.3,0.8s-0.6-4.1-1.8-7.5
						C147.3,261.6,157.5,269.5,157.5,269.5z"/>
				</g>
			</g>
			<g>
				<g>
					<path class="st37" d="M148.5,265c0,0,0.5,0.9,2.7,0.5c2.2-0.3,4.8-3.2,5.7-3.5c0.9-0.3,0.9-0.8,0.9-0.8l0.6,0.8l1,0.1
						c0,0-0.9-2.6,0.4-3.6c1.3-1.1-1.4-8.4-8.3-5.9c0,0-5.3,1.5-5.2,4.5C146.6,260,147.3,263.5,148.5,265z"/>
				</g>
			</g>
			<g>
				<g>
					<path class="st77" d="M158.1,271.7c0,0,0-1.4-0.7-1.6c-0.7-0.1-7.2-0.8-8-0.5v1.7C149.5,271.3,151,272.3,158.1,271.7z"/>
				</g>
			</g>
			<g>
				<g>
					<path class="st64" d="M157.7,260.1c-0.1-0.5-1.4-2-1.9-0.4c-0.5,1.6,0.8,3.7,1.4,3.5C158,262.9,158,261.3,157.7,260.1z"/>
				</g>
			</g>
			<g>
				<g>
					<path class="st74" d="M168.9,273.9c-4.5-0.6-10.8-2.2-10.8-2.2l-8.7-0.4c0,0-7.9,1.7-11.1,3.2c-0.3,0.1-0.3,7.1-1.1,8.9
						l2.6,5.5c0,0,1.5,10.8,1.8,15.7c0.1,2.2-3.1,20.7-3.1,20.7s3.5,1,9.4,1.7c5.9,0.7,20.7-0.2,20.8-0.9c0.1-0.7-2.9-26-3-27.3
						c-0.2-2,0.7-12.7,0.7-12.7c1.4-1.1,13.3-6.6,16.6-9.5c0.9-0.8,4.6-4.4,5.6-5.6c3.7-4.4,6.8-8.2,7.1-9c0.4-0.5-4.1-2.9-4.5-3.1
						c-0.4-0.1-5.3,6.4-7.2,8.5c-0.9,0.9-4.4,3.5-4.4,3.5S171.7,274,168.9,273.9z"/>
				</g>
			</g>
			<g>
				<g>
					<path class="st37" d="M148.8,253.7c0,0-7.2,0.6-0.2,11.4L148.8,253.7z"/>
				</g>
			</g>
			<polygon class="st78" points="197.5,253.6 198.1,252.7 197,252.8 			"/>
		</g>
		<g>
			<path class="st79" d="M379,216.1c0,0-0.4-1.8-3-1.8c-3.7,0-4,5.2-3.4,8.5c0.8,4.3,2.4,6.1-0.6,17.3c0,0,6.6-13.8,5.5-17.9
				C376.8,219.1,379,216.1,379,216.1z"/>
			<path class="st64" d="M399.7,251c0,0,1.6-0.8,1.5-1.6c0-0.9,0.4-2,0.5-2.4c0.2-0.5,0.3-2.2,0.8-1.9c0.6,0.3,0,2.8,0,3.4
				c0,0.6,1.9-1,2.4-1c0.6,0,2.8,3.5,1.4,4.4c-1.4,0.9-3.4,1-3.7,1.1c-0.3,0.1-1.3,0.5-1.3,0.5L399.7,251z"/>
			<path class="st64" d="M404.6,247.6c0,0,4.5-2.4,4.9-2.3c0.4,0.1,0.5,0.4,0.1,0.6c-0.4,0.2-4.2,2.5-4.2,2.5s5.7-1.9,6.1-1.9
				c0.2,0,0.5,0.5,0.3,0.7c-0.2,0.2-5.8,2.4-5.8,2.4s5.4-1.8,5.7-1.7c0.3,0.1,0.4,0.6,0,0.8c-0.4,0.2-5.3,2.1-5.3,2.1s4-1,4.2-0.8
				c0.1,0.2,0.4,0.6-0.7,0.8c-1,0.2-3.4,1-3.4,1L404.6,247.6z"/>
			<path class="st64" d="M386.2,254.4c0,0,7.3-1.6,8.7-2c1.6-0.5,4.8-1.3,4.8-1.3l1.7,2.4c0,0-9.4,4.8-11.2,5.5
				c-1.6,0.6-6,2.2-6,2.2L386.2,254.4z"/>
			<path class="st80" d="M417.8,284.6c0,0,2.1,9.1,2.2,10.9c0.1,1.8,6.2,25.5,6.7,26.6c0.4,1.2-2.3,2.2-3.1,1.4
				c-0.8-0.8-6.9-14-8.3-16.4c-1.4-2.5-4.8-8.2-5-13.9C410.2,287.6,417.8,284.6,417.8,284.6z"/>
			<path class="st64" d="M419.4,287.4c0,0-3.3,8.7-4.3,10.2c-0.9,1.5-9.1,24.6-9.4,25.8c-0.3,1.2-3.1,0.4-3.3-0.7
				c-0.2-1.1,2.1-15.3,2.3-18.2c0.2-2.8,0.6-9.4,3.6-14.3S419.4,287.4,419.4,287.4z"/>
			<g>
				<path class="st81" d="M402.3,322.8c0,0,3.7-0.9,3.8-1c0.1-0.1,0.1-0.3,0.6-0.1c0.5,0.2,0.7,1,1.1,1.3c0.5,0.3,3.4,1.3,5.1,2.2
					c0.6,0.3,3.1,1.4,3.4,2.2c0.3,0.8,0.2,2-4.2,1.5c-4.3-0.5-9.1-0.1-10-0.7C401.2,327.8,402,324,402.3,322.8z"/>
			</g>
			<g>
				<path class="st81" d="M423.4,323.6c0,0,3.4-1.6,3.5-1.7c0.1-0.1,0.1-0.3,0.6-0.2c0.5,0.1,0.9,0.8,1.4,1c0.5,0.2,3.6,0.5,5.4,1.1
					c0.6,0.2,3.3,0.7,3.8,1.5c0.5,0.7,0.6,1.9-3.7,2.4c-4.3,0.4-8.9,1.8-9.9,1.5C423.5,328.7,423.4,324.9,423.4,323.6z"/>
			</g>
			<path class="st82" d="M388.2,271.9c0,0,28.6,6.3,31.2,15.5c0,0-5.1-0.8-10.2,2.1c0,0-13.3-0.9-26.7-0.6
				c-1.7,0-13.3-3.3-11.5-13.1C372.8,265.7,388.2,271.9,388.2,271.9z"/>
			<g>
				<path class="st53" d="M383.3,232.1c-0.4,0.4-0.8,1-1.1,1.6c-0.3,0.6-0.6,1.2-0.8,1.8c-0.5,1.3-0.8,2.3-0.8,2.3s-6.8-3.6-5.1-4.9
					c1.6-1.4,2.4-6.6,2.4-6.6S384.7,230.8,383.3,232.1z"/>
			</g>
			<g>
				<path class="st64" d="M391.3,219.4c0,0,1.4,2.1-0.7,6.5c0,0-0.6,3.8-0.2,4.6c0.4,0.8-1.8,0.5-2.1,0.9c-0.3,0.4-1.4,2.4-3.2,3.3
					c-1.8,0.9-7.9-5-7.6-7.3c0.3-2.3-2-13.2,5.9-11.5C391.3,217.6,391.3,219.4,391.3,219.4z"/>
			</g>
			<g>
				<path class="st79" d="M391.2,224.3c0,0,3.6-9.3-6.2-10.2c-9.8-0.9-7.9,10.9-7.6,14.7c0,0,1.3-5.3,5.8-4.3
					C387.8,225.6,389,224.8,391.2,224.3z"/>
			</g>
			<g>
				<path class="st64" d="M382.9,222.9c-0.3-1.1-2.4-1.1-2.5,0.4c-0.2,1.5,0.9,3.4,1.6,2.9C382.7,225.6,383.3,224.6,382.9,222.9z"/>
			</g>
			<path class="st66" d="M382.2,233.7c-0.3,0.6-0.6,1.2-0.8,1.8c-2.1-1.8-3-5.6-3-5.6C379.8,231.9,382.2,233.7,382.2,233.7
				L382.2,233.7z"/>
			<path class="st83" d="M381.6,236.7c0,0,6,6.8,6.7,7.4c0.8,0.5,3,5.4,0,8.3c0,0-0.3,3.1-0.8,4.3c-0.5,1.2-0.2,13.4,0.7,14.8
				c0.9,1.4-11.4,6.1-17.3,4.2c0,0,1.7-7.9,2.2-11.9c0.5-4-1.9-15.7-1.9-18.8c-0.1-3.1,2.1-11.1,4.3-12
				C377.7,232.2,381.6,236.7,381.6,236.7z"/>
			
				<rect x="390.3" y="275" transform="matrix(-0.9486 -0.3163 0.3163 -0.9486 695.6304 664.2806)" class="st84" width="22.8" height="1.4"/>
			
				<rect x="409.6" y="271.8" transform="matrix(-0.7991 0.6012 -0.6012 -0.7991 921.3304 237.1836)" class="st84" width="22.8" height="1.4"/>
			<path class="st64" d="M406.9,276.7c0.2-0.5,0.2-1.2-1.2-2.3c-1.4-1-4.5-3.9-5.6-4.1c-1.2-0.2-2,0.3-2.5,0.2
				c-0.5-0.1-1.1,2.7-1.1,2.7L406.9,276.7z"/>
			<path class="st64" d="M397.6,270.5c0,0-6.1-2.5-7.2-3c-1-0.5-6.1-2.3-6.5-2.5c-0.4-0.2-2.7-12-2.9-15.1c-0.2-3.1-0.4-9.6-3.8-9.3
				c-3.5,0.3-4.3,2.6-3.9,7c0.4,4.5,3,20.5,4.1,21c1.1,0.5,13.9,3.1,20,4.9C403.5,275.4,397.6,270.5,397.6,270.5z"/>
			<path class="st83" d="M378.6,216.6c0,0-1.5,2.6-1.3,4.6C377.3,221.2,376,218.2,378.6,216.6z"/>
		</g>
		<polygon class="st85" points="538.9,230.2 505.2,230.2 505.2,254.6 505.2,259.8 510.3,254.6 538.9,254.6 		"/>
		<g>
			<path class="st37" d="M346.5,353.7c-0.2,1.4-8.6,7.3-10.3,8.5c-1.3,0.9-2.5,1.4-4.5,2.1c0,0,0,0,0,0c-4.6,1.2-33.3,9.8-33.3,9.8
				c-0.1-0.3-0.1-0.5-0.3-0.9c-1.1,0.4-2.2,0.7-2.9,0.9c-1.1,0.3-9.5,0.6-11.3,0.9c-1.7,0.3-5.2,0.9-6.6-0.5
				c-1.4-1.3,0.9-4.2,2.8-4.9c1.9-0.7,9-0.9,10.3-1.1c1.3-0.1,2.9-0.6,3.7-0.3c0.3,0.1,1.4-0.2,2.8-0.7c0-0.5,0-0.8,0-0.8l7.5-2.2
				l-1.4-13.3c0,0,3.3-12.3,16.4-2.9c0,0,2.9,0.9,3.9,1.1c0.1,0,0.2,0,0.3,0c2-0.1,10.6-2.7,13.7-2.7c3.3,0,4.4-0.2,5.6,0.4
				C344.2,347.6,346.7,352.3,346.5,353.7z"/>
			<path class="st37" d="M333.1,374.6c-1.4,1.3-4.9,0.8-6.6,0.5c-1.7-0.3-10.2-0.6-11.3-0.9c-1.1-0.3-3.1-0.8-4.5-1.7
				c-0.1-0.1-0.4-0.2-0.7-0.3c0,0,0,0,0,0l-2.1,1.5l-29.5-9.4c-1.8-0.5-3.2-1.2-4.1-2c-1.5-1.3-10.1-7.1-10.3-8.5
				c-0.2-1.4,2.3-6.1,3.5-6.7c1.2-0.6,2.3-0.4,5.6-0.4c3.3,0,13,3,14,2.7c0.5-0.1,1.4-0.6,2.3-1.1c1.1-0.6,2.1-1.2,2.1-1.2
				c14.3-6.4,15.9,4.1,15.9,4.1l-0.8,12.9c0,0,1.2,0.6,2.7,1.3l7.1,2l-0.9,0.7c0.4,0.1,0.7,0.2,0.8,0.2c0.8-0.3,2.5,0.2,3.7,0.3
				c1.3,0.1,8.3,0.3,10.3,1.1C332.2,370.4,334.5,373.2,333.1,374.6z"/>
			<path class="st37" d="M289.4,348.3c1,0.1,7.7,3.9,9.3,4.9c-2.4-1.3-11.5-3.8-11.5-3.8C287.5,349.2,288.5,348.7,289.4,348.3z"/>
			<path class="st37" d="M323.7,349.4c0,0-11.5,2.8-13.6,4c0.1-0.1,6.1-4.6,9.2-5.2c0,0,3.1,1,4.1,1.2
				C323.5,349.4,323.6,349.4,323.7,349.4C323.7,349.4,323.7,349.4,323.7,349.4z"/>
			<path class="st64" d="M333.1,374.6c-1.4,1.3-4.9,0.8-6.6,0.5c-1.7-0.3-10.2-0.6-11.3-0.9c-0.3-0.1-0.7-0.2-1.1-0.3c0,0,0,0,0,0
				c-1.1-0.3-2.4-0.7-3.4-1.4c-0.1-0.1-0.4-0.2-0.7-0.3l5.3-3.8l0.2-0.1c0.4,0.1,0.7,0.2,0.8,0.2c0.8-0.3,2.5,0.2,3.7,0.3
				c1.3,0.1,8.3,0.3,10.3,1.1C332.2,370.4,334.5,373.2,333.1,374.6z"/>
			<path class="st86" d="M333.1,374.6c-1.4,1.3-4.9,0.8-6.6,0.5c-1.7-0.3-10.2-0.6-11.3-0.9c-0.3-0.1-0.7-0.2-1.1-0.3c0,0,0,0,0,0
				c0,0,0,0,0,0s2.3-2.3,1.2-5.6l0.2-0.1c0.4,0.1,0.7,0.2,0.8,0.2c0.8-0.3,2.5,0.2,3.7,0.3c1.3,0.1,8.3,0.3,10.3,1.1
				C332.2,370.4,334.5,373.2,333.1,374.6z"/>
			<path class="st87" d="M292.3,351.2C292.3,351.2,292.3,351.3,292.3,351.2C292.2,351.4,292.2,351.3,292.3,351.2z"/>
			<path class="st88" d="M330.9,335.6c-0.1-0.2-6.2-9.8-7.8-14.1c-1.6-4.4-5.6-6.4-7.5-7c-0.7-0.2-1.9-0.6-3.1-1
				c-2.3-0.7-4.7-1.5-4.7-1.5h-7.8c0,0-2.7,0.9-5.6,1.9c0,0,0,0,0,0c-2.6,0.9-5.4,1.9-6.4,2.4c-2,1-5.3,8-5.9,8.8
				c-0.7,0.8-5.8,10.3-6.5,14c-0.6,2.8,16.3,11.2,16.7,12.2c0.5-0.6,3-2.9,3-2.9s-0.8-0.5-1.9-1.2c4.5,0.2,15.5-0.2,17.1-0.1
				c0.3,0,0.7,0,1,0c0,0,0,0,0,0c0.5,0.4,3.7,3.1,3.7,3.1s7.8-3.2,11.4-6.9C331.6,338.1,331.4,336.7,330.9,335.6z M286.6,341.9
				c-1.7-2-4-3.2-3.4-4.1c0.6-0.9,5.5-9.3,5.5-9.3s2.5,5.6,3.2,8.5c0.7,2.9,0.7,4.2,0.4,5.1c-0.3,0.8-0.5,1.4-0.7,3.8
				C289.6,344.4,287.4,342.8,286.6,341.9z M321,341c-0.7,0.7-3.2,2.4-5.6,3.7c-0.2-1.6-0.4-4.2-0.5-5.1c0-1.4,0.5-5.3,1.2-6.9
				c0.7-1.5,1.2-5.6,1.2-5.6s5.9,8,6.8,8.9C325.2,336.8,323.2,338.5,321,341z"/>
			<g>
				<path class="st64" d="M304.8,290.5c0,0,6.1,1,5.2,10.5c-0.9,9.5-6.3,8.7-6.7,8.7c-0.4,0-5.4,0.2-5.8-11.5
					C297.5,298.3,297.3,289.7,304.8,290.5z"/>
			</g>
			<g>
				<path class="st64" d="M310,298.3c0,0,0.7-0.7,0.9,0c0.2,0.7-0.9,3.9-1,4.1c0,0-0.1,0.3-0.3,0.1C309.5,302.4,310,298.3,310,298.3
					z"/>
			</g>
			<g>
				<path class="st64" d="M297.6,298.2c0,0-0.7-0.7-0.9,0c-0.3,0.7,0.8,4,0.9,4.1c0,0,0.1,0.3,0.3,0.1
					C298,302.3,297.6,298.2,297.6,298.2z"/>
			</g>
			<g>
				<path class="st89" d="M310,299.8l-0.9,1.2c0,0,0-2.6-0.1-3c-0.1-0.4-0.4-1.6-0.5-1.9c-0.1-0.3-5.2-1.7-9.7,0.4
					c0,0,0.2,1.8-0.2,2c-0.4,0.2-0.2,3-0.2,3l-0.7-0.8c0,0-1.1-7.3-0.8-8.1c0.3-0.8,1.1-5.4,10.4-2.6c0,0,2.9-0.6,3.5,1.4
					C311.3,293.3,310,299.8,310,299.8z"/>
			</g>
			<path class="st90" d="M295.8,360.7c0,0-9.3-5.6-13.4-6.5c-3.8-0.8-5.3-2.3-5.3-2.3s6.1,0,10.2,2.9
				C290.1,356.8,295.8,360.7,295.8,360.7z"/>
			<path class="st90" d="M304.1,364.6c0,0,16.2-8.5,22.8-10.4c3.8-1.1,5.3-2.3,5.3-2.3s-10,1-16.1,4.6
				C313.1,358.4,304.1,364.6,304.1,364.6z"/>
			<path class="st64" d="M298.2,373.2c-1.1,0.4-2.2,0.7-2.9,0.9c-1.1,0.3-9.5,0.6-11.3,0.9c-1.7,0.3-5.2,0.9-6.6-0.5
				c-1.4-1.3,0.9-4.2,2.8-4.9c1.9-0.7,9-0.9,10.3-1.1c1.3-0.1,2.9-0.6,3.7-0.3c0.3,0.1,1.4-0.2,2.8-0.7
				C297,368.3,298.2,373.2,298.2,373.2z"/>
			<path class="st37" d="M304.1,372.4l15.9-4.7l-3.2-1C316.9,366.7,304.1,371.3,304.1,372.4z"/>
			<polygon class="st90" points="304.1,372.4 311.5,370.1 306.4,373.1 			"/>
			<path class="st91" d="M299,353.3c0,0-0.1-0.1-0.3-0.2C298.8,353.2,298.9,353.3,299,353.3z"/>
			<path class="st86" d="M295.3,374.1c-1.1,0.3-9.5,0.6-11.3,0.9c-1.7,0.3-5.2,0.9-6.6-0.5c-1.4-1.3,0.9-4.2,2.8-4.9
				c1.9-0.7,9-0.9,10.3-1.1c1.3-0.1,2.9-0.6,3.7-0.3C294.2,368.2,292.1,371.5,295.3,374.1z"/>
			<path class="st91" d="M290,352l-2.5-14l31.8-0.7l-2,13.7c0,0-10.1,3.7-13.6,5.9C303.7,356.9,295,353.3,290,352z"/>
			<ellipse class="st92" cx="303.8" cy="346.4" rx="1.8" ry="2.1"/>
			<path class="st64" d="M307.6,311.2C307.6,311.2,307.6,311.2,307.6,311.2c-0.4-0.8,0-4.3,0-4.3s-7.8-2-7.5-0.5
				c0.2,1.5-0.5,4.8-0.5,4.8l-4.2,2.2c0,0,4.2,11.4,9.1,9.9c4.9-1.5,6.7-10.3,6.7-10.3L307.6,311.2z"/>
			<path class="st66" d="M300.2,308.1c0,0,1.3,1.6,3.4,1.6c1.4,0,2.4-0.3,3.8-1.7c0,0-0.5,2.6-3.8,2.8
				C303.6,310.9,301.2,311.1,300.2,308.1z"/>
		</g>
	</g>
</g>
</svg>
