<?xml version="1.0" encoding="utf-8"?>
<!-- Generator: Adobe Illustrator 19.0.0, SVG Export Plug-In . SVG Version: 6.00 Build 0)  -->
<svg version="1.1" xmlns="http://www.w3.org/2000/svg" xmlns:xlink="http://www.w3.org/1999/xlink" x="0px" y="0px"
	 viewBox="-49 141 512 512" style="enable-background:new -49 141 512 512;" xml:space="preserve">
<style type="text/css">
	.st0{display:none;}
	.st1{display:inline;}
	.st2{fill:#45567C;}
</style>
<g id="Layer_1" xmlns:svgjs="http://svgjs.com/svgjs" class="st0">
	<g class="st1">
		<g>
			<path class="st2" d="M408,150c-26.8,0-49.2,19.3-54,44.8C253.6,237.4,96.6,238,95,238H26c-41.4,0-75,33.6-75,75v72
				c0,41.4,33.6,75,75,75h56.9l26.5,124.3c7.2,34.6,38.1,59.7,73.4,59.7c25.7,0,44.7-23.6,39.5-48.6l-10.8-52.1
				c29.5-9.6,52.6-33.3,61.5-63c28.1,5.1,55.5,12.2,81,22.9c4.8,25.5,27.2,44.8,54,44.8c30.3,0,55-24.7,55-55V205
				C463,174.7,438.3,150,408,150z M264.1,448.4c-16.6-3.1-101.5-13.9-154.1-17.5V267.8c40.9-1.1,155.8-7.2,243-40.2v243
				C324.5,460,294.2,453.3,264.1,448.4L264.1,448.4z M-19,385v-72c0-24.8,20.2-45,45-45h54v162H26C1.2,430-19,409.8-19,385L-19,385z
				 M182.8,614c-21.2,0-39.7-15.1-44.1-35.9l-24.9-116.9c16.5,1.2,33.9,2.8,50.9,4.7L193,601.5C194.3,608,189.4,614,182.8,614
				L182.8,614z M205.3,513.7l-9.2-44.1c15.6,1.8,31.3,3.7,46.9,5.9C236.5,493,222.7,507,205.3,513.7L205.3,513.7z M433,493
				c0,13.8-11.2,25-25,25s-25-11.2-25-25V205c0-13.8,11.2-25,25-25s25,11.2,25,25V493z"/>
		</g>
	</g>
</g>
<g id="Layer_2">
	<g>
		<path class="st2" d="M-49,169c2.6-7,5.5-13.8,11.6-18.7c10-8.2,21.3-7.9,33.2-6C52,153,108.2,161.4,164.5,170
			c18.9,2.9,37.9,5.6,56.7,8.7c18.3,3,28.5,15.2,28.5,34c0.1,37.8,0,75.6,0,113.4c0,2,0,4,0,6.6c8.3,1.7,16.5,3.4,24.7,5.1
			c53.3,10.6,106.7,21.4,160.1,31.7c15.3,3,24.4,11.7,28.5,26.4c0,76,0,152,0,228c-1.1,3.1-2,6.3-3.4,9.2
			c-4.8,9.9-13.3,15.1-23.6,17.8c-152.7,0-305.3,0-458,0c-8.3-2.3-16-5.8-20.8-13.3c-2.5-4-4.2-8.5-6.2-12.7C-49,473-49,321-49,169z
			 M228.2,629.5c0-2.5,0-4.5,0-6.5c0-136,0-271.9,0-407.9c0-1.5,0-3,0-4.5c-0.3-6-3.2-9.6-9.1-10.7c-5.4-1-10.8-1.9-16.3-2.7
			C130.9,186.4,59,175.6-13,164.8c-9.9-1.5-14.8,2.6-14.8,12.8c0,146.3,0,292.6,0,438.9c0,9.3,4.1,13.3,13.5,13.3
			c15.2,0,30.3,0,45.5,0c1.5,0,2.9-0.2,5-0.3c0-2.2,0-4.1,0-6.1c0-29.2,0-58.3,0-87.5c0-20.8,13.3-34.1,34-34.1
			c19.8-0.1,39.7,0,59.5,0c21.6,0,34.4,12.9,34.5,34.6c0,29,0,58,0,87c0,2,0,3.9,0,6.1C185.7,629.5,206.6,629.5,228.2,629.5z
			 M250,629.8c2.4,0,4.2,0,6,0c56.8,0,113.7,0,170.5,0c11.9,0,15.2-3.4,15.2-15.1c0-69.7,0-139.3,0-209c0-10.7-2.4-13.6-12.7-15.6
			c-48.5-9.6-97-19.2-145.5-28.8c-11.1-2.2-22.1-4.3-33.6-6.5C250,446.5,250,537.8,250,629.8z M143,629.5c0-1.8,0-3.1,0-4.4
			c0-29.6,0-59.3,0-88.9c0-9.4-3.8-13.2-13.5-13.2c-19.3,0-38.6,0-57.9,0c-10.4,0-13.8,3.3-13.8,13.7c0,29.3,0,58.6,0,87.9
			c0,1.6,0.2,3.2,0.3,4.9C86.5,629.5,114.4,629.5,143,629.5z"/>
		<path class="st2" d="M436,651c10.3-2.7,18.8-7.9,23.6-17.8c1.4-2.9,2.3-6.1,3.4-9.2c0,9,0,18,0,27C454,651,445,651,436,651z"/>
		<path class="st2" d="M-49,625c2,4.3,3.7,8.8,6.2,12.7c4.8,7.5,12.5,11,20.8,13.3c-9,0-18,0-27,0C-49,642.3-49,633.7-49,625z"/>
		<path class="st2" d="M47.1,267c-6.7,0-13.3,0-20,0c-7.2-0.1-12-4.2-12.1-10.5c-0.1-6.3,4.5-10.7,11.7-10.7
			c13.5-0.1,26.9-0.1,40.4,0c7.3,0,11.9,4.3,11.8,10.6c0,6.3-4.8,10.5-11.9,10.6C60.4,267.1,53.7,267,47.1,267z"/>
		<path class="st2" d="M47.2,309.8c6.8,0,13.6-0.1,20.5,0c6.8,0.1,11.4,4.5,11.3,10.6c-0.1,6.1-4.7,10.5-11.5,10.5
			c-13.6,0.1-27.3,0.1-40.9,0c-6.8,0-11.5-4.4-11.6-10.5c-0.1-6.3,4.5-10.6,11.7-10.7C33.6,309.7,40.4,309.8,47.2,309.8z"/>
		<path class="st2" d="M47,373.8c7,0,14-0.1,21,0c6.6,0.1,11,4.4,11.1,10.4c0.1,6.1-4.5,10.7-11.2,10.8c-13.8,0.1-27.6,0.1-41.4,0
			c-6.7-0.1-11.3-4.6-11.3-10.7c0-6.2,4.5-10.3,11.5-10.5C33.3,373.7,40.1,373.8,47,373.8z"/>
		<path class="st2" d="M47,459c-6.8,0-13.6,0.1-20.5,0c-6.8-0.1-11.4-4.4-11.5-10.5c-0.1-6.2,4.4-10.6,11.3-10.7
			c13.8-0.1,27.6-0.1,41.4,0c6.8,0.1,11.4,4.5,11.3,10.6c-0.1,6.1-4.7,10.3-11.5,10.5c-0.2,0-0.3,0-0.5,0C60.3,459,53.7,459,47,459z
			"/>
		<path class="st2" d="M153.3,267c-6.7,0-13.3,0.1-20,0c-7.2-0.1-11.7-4.4-11.6-10.8c0.1-6.3,4.3-10.3,11.5-10.3
			c13.5-0.1,26.9-0.1,40.4,0c7.3,0,11.9,4.3,12,10.5c0,6.3-4.7,10.6-11.9,10.7C167,267.1,160.2,267,153.3,267z"/>
		<path class="st2" d="M153.9,309.8c6.8,0,13.6-0.1,20.4,0c6.8,0.1,11.4,4.5,11.4,10.6c-0.1,6.1-4.7,10.5-11.5,10.6
			c-13.6,0.1-27.3,0.1-40.9,0c-6.9,0-11.4-4.2-11.5-10.4c-0.1-6.6,4.2-10.6,11.6-10.7C140.2,309.7,147,309.8,153.9,309.8z"/>
		<path class="st2" d="M153.6,395c-6.8,0-13.6,0.1-20.4,0c-6.9-0.1-11.3-4.3-11.4-10.6c0-6.4,4.2-10.5,11.2-10.6
			c13.8-0.1,27.6-0.1,41.4,0c6.8,0.1,11.4,4.7,11.2,10.7c-0.1,6.1-4.7,10.4-11.6,10.4C167.2,395.1,160.4,395,153.6,395z"/>
		<path class="st2" d="M153.6,459c-6.8,0-13.6,0.1-20.4,0c-6.9-0.1-11.3-4.3-11.4-10.6c0-6.4,4.2-10.5,11.2-10.6
			c13.8-0.1,27.6-0.1,41.4,0c6.8,0.1,11.4,4.7,11.2,10.7c-0.1,6.1-4.7,10.3-11.6,10.5c-0.2,0-0.3,0-0.5,0
			C166.9,459,160.3,459,153.6,459z"/>
		<path class="st2" d="M345.6,459c-6.8,0-13.6,0.1-20.4,0c-6.9-0.1-11.3-4.3-11.4-10.6c0-6.4,4.2-10.5,11.2-10.6
			c13.8-0.1,27.6-0.1,41.4,0c6.8,0.1,11.4,4.7,11.2,10.7c-0.1,6.1-4.7,10.3-11.6,10.5c-0.2,0-0.3,0-0.5,0
			C358.9,459,352.3,459,345.6,459z"/>
		<path class="st2" d="M345.3,523c-6.7,0-13.3,0.1-20,0c-7.2-0.1-11.7-4.4-11.6-10.8c0.1-6.3,4.3-10.3,11.5-10.3
			c13.5-0.1,26.9-0.1,40.4,0c7.3,0,11.9,4.3,12,10.5c0,6.3-4.7,10.6-11.9,10.7C359,523.1,352.2,523,345.3,523z"/>
		<path class="st2" d="M346.1,565.8c6.8,0,13.6-0.1,20.4,0c6.6,0.1,11,4.4,11.2,10.3c0.1,6.1-4.4,10.8-11.2,10.8
			c-14,0.1-27.9,0.1-41.9,0c-6.5-0.1-10.8-4.5-10.8-10.6c0-6.2,4.1-10.4,10.8-10.5C331.8,565.6,338.9,565.8,346.1,565.8z"/>
	</g>
</g>
</svg>
