<?xml version="1.0" encoding="utf-8"?>
<!-- Generator: Adobe Illustrator 19.0.0, SVG Export Plug-In . SVG Version: 6.00 Build 0)  -->
<svg version="1.1" id="Layer_1" xmlns:svgjs="http://svgjs.com/svgjs"
	 xmlns="http://www.w3.org/2000/svg" xmlns:xlink="http://www.w3.org/1999/xlink" x="0px" y="0px" viewBox="-49 141 512 512"
	 style="enable-background:new -49 141 512 512;" xml:space="preserve">
<style type="text/css">
	.st0{fill:#45567C;}
</style>
<g>
	<g>
		<path class="st0" d="M408,150c-26.8,0-49.2,19.3-54,44.8C253.6,237.4,96.6,238,95,238H26c-41.4,0-75,33.6-75,75v72
			c0,41.4,33.6,75,75,75h56.9l26.5,124.3c7.2,34.6,38.1,59.7,73.4,59.7c25.7,0,44.7-23.6,39.5-48.6l-10.8-52.1
			c29.5-9.6,52.6-33.3,61.5-63c28.1,5.1,55.5,12.2,81,22.9c4.8,25.5,27.2,44.8,54,44.8c30.3,0,55-24.7,55-55V205
			C463,174.7,438.3,150,408,150z M264.1,448.4c-16.6-3.1-101.5-13.9-154.1-17.5V267.8c40.9-1.1,155.8-7.2,243-40.2v243
			C324.5,460,294.2,453.3,264.1,448.4L264.1,448.4z M-19,385v-72c0-24.8,20.2-45,45-45h54v162H26C1.2,430-19,409.8-19,385L-19,385z
			 M182.8,614c-21.2,0-39.7-15.1-44.1-35.9l-24.9-116.9c16.5,1.2,33.9,2.8,50.9,4.7L193,601.5C194.3,608,189.4,614,182.8,614
			L182.8,614z M205.3,513.7l-9.2-44.1c15.6,1.8,31.3,3.7,46.9,5.9C236.5,493,222.7,507,205.3,513.7L205.3,513.7z M433,493
			c0,13.8-11.2,25-25,25s-25-11.2-25-25V205c0-13.8,11.2-25,25-25s25,11.2,25,25V493z"/>
	</g>
</g>
</svg>
