<?xml version="1.0" encoding="utf-8"?>
<!-- Generator: Adobe Illustrator 19.0.0, SVG Export Plug-In . SVG Version: 6.00 Build 0)  -->
<svg version="1.1" id="Layer_1" xmlns:svgjs="http://svgjs.com/svgjs"
	 xmlns="http://www.w3.org/2000/svg" xmlns:xlink="http://www.w3.org/1999/xlink" x="0px" y="0px" viewBox="-49 141 512 512"
	 style="enable-background:new -49 141 512 512;" xml:space="preserve">
<style type="text/css">
	.st0{fill:#45567C;}
</style>
<g>
	<g>
		<g>
			<path class="st0" d="M443.4,346.1l-11.2-11.8l-39.1-105.6c-6.7-17.8-23.7-29.6-42.8-29.8H70.6c-19,0-36.1,11.9-42.8,29.8
				L-10.8,333l-16.1,14.9c-14,11.9-22.1,29.4-22.1,47.8v153.8c0.1,25.2,20.6,45.5,45.7,45.5h28.9c25.2,0,45.6-20.3,45.7-45.5v-22.3
				h271.3v22.3c0.1,25.2,20.6,45.5,45.7,45.5h28.9c25.2,0,45.6-20.3,45.7-45.5V391.6C462.9,374.5,455.9,358.1,443.4,346.1z
				 M48.4,236.2c3.5-9.3,12.4-15.3,22.2-15.3h279.8c9.8,0,18.7,6.1,22.2,15.3l34.1,91.9h-25.5c-6-41-44.2-69.4-85.2-63.2
				c-32.7,4.8-58.4,30.5-63.2,63.2H14.2L48.4,236.2z M359,328.1H255c6-28.8,34.2-47.2,63-41.1C338.5,291.3,354.6,307.4,359,328.1z
				 M49.5,549.5c-0.1,13.1-10.7,23.6-23.8,23.6h-29c-13.1,0-23.7-10.5-23.8-23.6v-28.7c6.6,4.3,15.2,6.3,23.8,6.3h52.7L49.5,549.5
				L49.5,549.5z M441.1,549.5c-0.1,13.1-10.7,23.6-23.8,23.6h-28.9c-13.1,0-23.7-10.6-23.8-23.6v-22.3h52.7c8.6,0,17.3-2.1,23.8-6.3
				L441.1,549.5L441.1,549.5z M417.3,505.3H-3.3c-13,0.1-23.7-10.3-23.8-23.4v-86.2c0-12,5.4-23.5,14.6-31.3
				c0.1-0.1,0.3-0.3,0.4-0.4l14.9-14h414.3l10.5,11.3c0.1,0.2,0.4,0.3,0.5,0.5c8.2,7.8,12.9,18.6,12.9,29.9V482h0.1
				C441,494.9,430.3,505.4,417.3,505.3z"/>
		</g>
	</g>
	<g>
		<g>
			<path class="st0" d="M95.4,393.7h-82c-6,0-10.9,4.9-10.9,10.9v56.9c0,6,4.9,10.9,10.9,10.9h82.1c6,0,10.9-4.9,10.9-10.9v-56.9
				C106.4,398.6,101.4,393.7,95.4,393.7z M84.5,450.6H24.3v-35h60.2V450.6z"/>
		</g>
	</g>
	<g>
		<g>
			<path class="st0" d="M400.6,393.7h-82.1c-6,0-10.9,4.9-10.9,10.9v56.9c0,6,4.9,10.9,10.9,10.9h82.1c6,0,10.9-4.9,10.9-10.9v-56.9
				C411.6,398.6,406.7,393.7,400.6,393.7z M389.7,450.6h-60.2v-35h60.2V450.6z"/>
		</g>
	</g>
	<g>
		<g>
			<path class="st0" d="M259.8,439.7H154.2c-6,0-10.9,4.9-10.9,10.9s4.9,10.9,10.9,10.9h105.7c6,0,10.9-4.9,10.9-10.9
				S265.9,439.7,259.8,439.7z"/>
		</g>
	</g>
	<g>
		<g>
			<path class="st0" d="M259.8,405.8H154.2c-6,0-10.9,4.9-10.9,10.9s4.9,10.9,10.9,10.9h105.7c6,0,10.9-4.9,10.9-10.9
				S265.9,405.8,259.8,405.8z"/>
		</g>
	</g>
</g>
</svg>
