<svg xmlns="http://www.w3.org/2000/svg" width="18.537" height="16.477" viewBox="0 0 18.537 16.477">
  <path id="Icon_awesome-exclamation-triangle" data-name="Icon awesome-exclamation-triangle" d="M18.328,14.16a1.546,1.546,0,0,1-1.338,2.317H1.546A1.546,1.546,0,0,1,.208,14.16L7.93.772a1.546,1.546,0,0,1,2.676,0Zm-9.06-2.768a1.48,1.48,0,1,0,1.48,1.48A1.48,1.48,0,0,0,9.268,11.392ZM7.863,6.071,8.1,10.448a.386.386,0,0,0,.386.365h1.562a.386.386,0,0,0,.386-.365l.239-4.377a.386.386,0,0,0-.386-.407H8.248a.386.386,0,0,0-.386.407Z" transform="translate(0)" fill="#fc2727"/>
</svg>
