<?xml version="1.0" encoding="utf-8"?>
<!-- Generator: Adobe Illustrator 19.0.0, SVG Export Plug-In . SVG Version: 6.00 Build 0)  -->
<svg version="1.1" id="Layer_1" xmlns:svgjs="http://svgjs.com/svgjs"
	 xmlns="http://www.w3.org/2000/svg" xmlns:xlink="http://www.w3.org/1999/xlink" x="0px" y="0px" viewBox="-49 141 512 512"
	 style="enable-background:new -49 141 512 512;" xml:space="preserve">
<style type="text/css">
	.st0{fill:#45567C;}
</style>
<g>
	<g>
		<path class="st0" d="M460,248c-2.9-4.2-7.6-6.8-12.8-7l-317.5-13.7c-9.1-0.4-16.7,6.6-17.1,15.7c-0.4,9.1,6.6,16.7,15.7,17.1
			l296.1,12.8l-58.2,181.6H107.1L60.3,199.6c-1-5.6-4.9-10.2-10.2-12.3l-76.7-30.1c-8.4-3.3-17.9,0.8-21.3,9.3
			c-3.3,8.4,0.8,18,9.3,21.3l68.2,26.8l47.6,259.3c1.4,7.8,8.2,13.5,16.2,13.5h7.9l-18,50.1c-1.5,4.2-0.9,8.9,1.7,12.5
			c2.6,3.6,6.7,5.8,11.2,5.8h12.7c-7.8,8.7-12.7,20.2-12.7,32.9c0,27.2,22.1,49.3,49.3,49.3s49.3-22.1,49.3-49.3
			c0-12.6-4.8-24.1-12.7-32.9h107.4c-7.8,8.7-12.7,20.2-12.7,32.9c0,27.2,22.1,49.3,49.3,49.3c27.2,0,49.3-22.1,49.3-49.3
			c0-12.6-4.8-24.1-12.7-32.9h15.4c7.6,0,13.7-6.1,13.7-13.7s-6.1-13.7-13.7-13.7H115.6l14.8-41.1h247.7c7.1,0,13.5-4.6,15.6-11.4
			l68.4-213.6C463.8,257.5,463,252.2,460,248z M145.4,610.6c-12.1,0-21.9-9.8-21.9-21.9s9.8-21.9,21.9-21.9
			c12.1,0,21.9,9.8,21.9,21.9C167.3,600.7,157.5,610.6,145.4,610.6z M326.1,610.6c-12.1,0-21.9-9.8-21.9-21.9s9.8-21.9,21.9-21.9
			s21.9,9.8,21.9,21.9C348,600.7,338.2,610.6,326.1,610.6z"/>
	</g>
</g>
</svg>
