<?xml version="1.0" encoding="utf-8"?>
<!-- Generator: Adobe Illustrator 19.0.0, SVG Export Plug-In . SVG Version: 6.00 Build 0)  -->
<svg version="1.1" id="Layer_1" xmlns:svgjs="http://svgjs.com/svgjs"
	 xmlns="http://www.w3.org/2000/svg" xmlns:xlink="http://www.w3.org/1999/xlink" x="0px" y="0px" viewBox="-49 141 512 512"
	 style="enable-background:new -49 141 512 512;" xml:space="preserve">
<style type="text/css">
	.st0{fill:#45567C;}
</style>
<g>
	<g>
		<path class="st0" d="M448,262H334v-89c0-8.3-6.7-15-15-15H-34c-8.3,0-15,6.7-15,15v388c0,41.4,33.6,75,75,75h362
			c41.4,0,75-33.6,75-75V277C463,268.7,456.3,262,448,262z M26,606c-24.8,0-45-20.2-45-45V188h323c0,396.5-0.2,374.4,0.3,380.1
			c1.3,13.9,6.5,27,14.7,37.9H26z M433,561c0,24.8-20.2,45-45,45c-3.4,0-5.7,0-9,0c-24.8,0-45-20.2-45-45V292h99V561z"/>
		<path class="st0" d="M255,230H31c-8.3,0-15,6.7-15,15s6.7,15,15,15h224c8.3,0,15-6.7,15-15S263.3,230,255,230z"/>
		<path class="st0" d="M255,294H31c-8.3,0-15,6.7-15,15s6.7,15,15,15h224c8.3,0,15-6.7,15-15S263.3,294,255,294z"/>
		<path class="st0" d="M255,534H31c-8.3,0-15,6.7-15,15s6.7,15,15,15h224c8.3,0,15-6.7,15-15S263.3,534,255,534z"/>
		<path class="st0" d="M255,358H143c-8.3,0-15,6.7-15,15v112c0,8.3,6.7,15,15,15h112c8.3,0,15-6.7,15-15V373
			C270,364.7,263.3,358,255,358z M240,470h-82v-82h82V470z"/>
		<path class="st0" d="M31,412h48c8.3,0,15-6.7,15-15s-6.7-15-15-15H31c-8.3,0-15,6.7-15,15S22.7,412,31,412z"/>
		<path class="st0" d="M31,476h48c8.3,0,15-6.7,15-15s-6.7-15-15-15H31c-8.3,0-15,6.7-15,15S22.7,476,31,476z"/>
	</g>
</g>
</svg>
