<?xml version="1.0" encoding="utf-8"?>
<!-- Generator: Adobe Illustrator 19.0.0, SVG Export Plug-In . SVG Version: 6.00 Build 0)  -->
<svg version="1.1" id="Layer_1" xmlns:svgjs="http://svgjs.com/svgjs"
	 xmlns="http://www.w3.org/2000/svg" xmlns:xlink="http://www.w3.org/1999/xlink" x="0px" y="0px" viewBox="-49 141 512 512"
	 style="enable-background:new -49 141 512 512;" xml:space="preserve">
<style type="text/css">
	.st0{fill:#45567C;}
</style>
<g>
	<path class="st0" d="M418,142H-4c-24.8,0-45,20.2-45,45v420c0,24.8,20.2,45,45,45h422c24.8,0,45-20.2,45-45V187
		C463,162.2,442.8,142,418,142z M-4,172h422c8.3,0,15,6.7,15,15v75H-19v-75C-19,178.7-12.3,172-4,172z M418,622H-4
		c-8.3,0-15-6.7-15-15V292h452v315C433,615.3,426.3,622,418,622z"/>
	<path class="st0" d="M257.9,338.2c-7.6-3.3-16.4,0.3-19.7,7.9l-90,210c-3.3,7.6,0.3,16.4,7.9,19.7c7.6,3.3,16.4-0.3,19.7-7.9
		l90-210C269.1,350.3,265.5,341.5,257.9,338.2L257.9,338.2z"/>
	<path class="st0" d="M128.7,387.6c-5.2-6.5-14.6-7.5-21.1-2.3l-75,60c-7.5,6-7.5,17.4,0,23.4l75,60c6.5,5.2,15.9,4.1,21.1-2.3
		c5.2-6.5,4.1-15.9-2.3-21.1L66,457l60.4-48.3C132.8,403.5,133.9,394.1,128.7,387.6L128.7,387.6z"/>
	<path class="st0" d="M381.4,445.3l-75-60c-6.5-5.2-15.9-4.1-21.1,2.3c-5.2,6.5-4.1,15.9,2.3,21.1L348,457l-60.4,48.3
		c-6.5,5.2-7.5,14.6-2.3,21.1s14.6,7.5,21.1,2.3l75-60C388.9,462.7,388.9,451.3,381.4,445.3z"/>
	<circle class="st0" cx="27" cy="217" r="15"/>
	<circle class="st0" cx="87" cy="217" r="15"/>
	<circle class="st0" cx="147" cy="217" r="15"/>
	<path class="st0" d="M297,232h90c8.3,0,15-6.7,15-15s-6.7-15-15-15h-90c-8.3,0-15,6.7-15,15S288.7,232,297,232z"/>
</g>
</svg>
