<?xml version="1.0" encoding="utf-8"?>
<!-- Generator: Adobe Illustrator 19.0.0, SVG Export Plug-In . SVG Version: 6.00 Build 0)  -->
<svg version="1.1" id="Layer_1" xmlns:svgjs="http://svgjs.com/svgjs"
	 xmlns="http://www.w3.org/2000/svg" xmlns:xlink="http://www.w3.org/1999/xlink" x="0px" y="0px" viewBox="-49 141 512 512"
	 style="enable-background:new -49 141 512 512;" xml:space="preserve">
<style type="text/css">
	.st0{fill:#45567C;}
</style>
<g>
	<g>
		<path class="st0" d="M408,242H307.8l-9.7-29.2c-6.2-18.4-23.3-30.8-42.7-30.8h-96.8c-19.4,0-36.6,12.4-42.7,30.8l-9.7,29.2H82v-25
			c0-19.3-15.7-35-35-35H27c-19.3,0-35,15.7-35,35v26.8c-23.6,6.2-41,27.7-41,53.2v260c0,30.3,24.7,55,55,55h402
			c30.3,0,55-24.7,55-55V297C463,266.7,438.3,242,408,242z M22,217c0-2.8,2.2-5,5-5h20c2.8,0,5,2.2,5,5v25H22V217z M433,557
			c0,13.8-11.2,25-25,25H6c-13.8,0-25-11.2-25-25V297c0-13.8,11.2-25,25-25h111c6.5,0,12.2-4.1,14.2-10.3l13.2-39.5
			c2-6.1,7.8-10.3,14.2-10.3h96.8c6.5,0,12.2,4.1,14.2,10.3l13.2,39.5c2,6.1,7.8,10.3,14.2,10.3h111c13.8,0,25,11.2,25,25L433,557
			L433,557z"/>
		<circle class="st0" cx="387" cy="317" r="15"/>
		<path class="st0" d="M57,302H27c-8.3,0-15,6.7-15,15s6.7,15,15,15h30c8.3,0,15-6.7,15-15S65.3,302,57,302z"/>
		<g>
			<path class="st0" d="M207,552c-74.4,0-135-60.6-135-135s60.6-135,135-135s135,60.6,135,135S281.4,552,207,552z M207,312
				c-57.9,0-105,47.1-105,105s47.1,105,105,105s105-47.1,105-105S264.9,312,207,312z"/>
		</g>
		<g>
			<path class="st0" d="M207,492c-41.4,0-75-33.6-75-75s33.6-75,75-75s75,33.6,75,75S248.4,492,207,492z M207,372
				c-24.8,0-45,20.2-45,45s20.2,45,45,45s45-20.2,45-45S231.8,372,207,372z"/>
		</g>
	</g>
</g>
</svg>
