<?xml version="1.0" encoding="utf-8"?>
<!-- Generator: Adobe Illustrator 19.0.0, SVG Export Plug-In . SVG Version: 6.00 Build 0)  -->
<svg version="1.1" id="Layer_1" xmlns="http://www.w3.org/2000/svg" xmlns:xlink="http://www.w3.org/1999/xlink" x="0px" y="0px"
	 viewBox="-91 141 427.2 512" style="enable-background:new -91 141 427.2 512;" xml:space="preserve">
<style type="text/css">
	.st0{fill:#45567C;}
</style>
<g id="Layer_2_1_">
	<g id="Layer_1-2">
		<path class="st0" d="M119.4,387.6c33.9,0,63.2-12.1,87.2-36.1s36.1-53.3,36.1-87.2c0-33.9-12.1-63.2-36.1-87.2
			S153.2,141,119.4,141s-63.2,12.1-87.2,36.1S-4,230.4-4,264.3s12.2,63.2,36.1,87.2S85.5,387.6,119.4,387.6z M53.4,198.3
			c18.4-18.3,40-27.3,66-27.3s47.6,9,66,27.3s27.3,40,27.3,66s-9,47.6-27.3,66c-18.3,18.4-40,27.3-66,27.3s-47.6-8.9-66-27.3
			c-18.4-18.4-27.3-40-27.3-66S35,216.7,53.4,198.3L53.4,198.3z"/>
		<path class="st0" d="M335.1,534.7c-0.8-10.8-2.2-21.6-4.1-32.4c-1.9-11-4.6-21.9-8-32.5c-3.4-10.5-7.9-20.7-13.4-30.3
			c-5.4-9.7-12.2-18.5-20.2-26.3c-8.4-7.9-18.2-14.1-29-18.2c-11.8-4.5-24.4-6.8-37-6.7c-5.2,0-10.3,2.1-20,8.5
			c-6,3.9-13,8.4-20.9,13.5c-6.7,4.3-15.8,8.3-27,11.9c-21.5,7.1-44.6,7.1-66.1,0c-11.2-3.6-20.3-7.6-27-11.9
			c-7.8-5-14.8-9.5-20.9-13.5c-9.8-6.4-14.8-8.5-20-8.5c-12.6-0.1-25.2,2.1-37,6.7c-10.8,4.1-20.6,10.3-29,18.2
			c-7.9,7.7-14.7,16.6-20.1,26.3c-5.5,9.6-10,19.8-13.4,30.3c-3.4,10.7-6,21.5-7.9,32.5c-2,10.7-3.4,21.5-4.2,32.4
			c-0.7,9.8-1,20-1,30.2c0,26.7,8.5,48.4,25.2,64.3C-49.2,645-27.3,653-0.7,653h246.5c26.6,0,48.5-8,65.1-23.7
			c16.8-16,25.2-37.6,25.2-64.3C336.2,554.6,335.8,544.5,335.1,534.7z M290.2,607.5c-10.9,10.4-25.5,15.5-44.4,15.5H-0.7
			c-18.9,0-33.5-5.1-44.4-15.5C-55.8,597.3-61,583.4-61,565c0-9.6,0.3-19.1,1-28.2c0.7-9.8,2-19.5,3.8-29.1c1.7-9.7,4-19.3,7-28.7
			c2.8-8.6,6.4-16.8,10.9-24.7c4-7.2,9-13.7,14.8-19.5c5.6-5.2,12.1-9.3,19.3-12c7.5-2.9,15.5-4.4,23.6-4.6c1,0.6,2.9,1.6,6,3.6
			c6.2,4,13.3,8.6,21.1,13.6c8.9,5.6,20.3,10.8,33.9,15.1c27.5,9.1,57.1,9.1,84.5,0c13.6-4.4,25.1-9.5,33.9-15.2
			c8-5.1,15-9.6,21.1-13.6c3-2,4.9-3,6-3.6c8.1,0.1,16.1,1.7,23.6,4.6c7.1,2.7,13.7,6.8,19.3,12c5.9,5.7,10.8,12.3,14.8,19.4
			c4.5,7.8,8.1,16.1,10.8,24.7c3,9.4,5.3,19,7,28.7c1.8,9.6,3,19.4,3.8,29.1l0,0c0.6,9.1,1,18.5,1,28.1
			C306.2,583.4,301,597.3,290.2,607.5L290.2,607.5z"/>
	</g>
</g>
</svg>
