<svg xmlns="http://www.w3.org/2000/svg" xmlns:xlink="http://www.w3.org/1999/xlink" fill="none" version="1.1" width="72" height="72" viewBox="0 0 72 72"><defs><clipPath id="master_svg0_273_97039"><rect x="0" y="0" width="72" height="72" rx="0"/></clipPath></defs><g style="mix-blend-mode:passthrough" clip-path="url(#master_svg0_273_97039)"><g style="mix-blend-mode:passthrough"><rect x="2" y="2" width="2" height="2" rx="0" fill="#D8D8D8" fill-opacity="0.20000000298023224"/></g><g style="mix-blend-mode:passthrough"><rect x="2" y="14" width="2" height="2" rx="0" fill="#D8D8D8" fill-opacity="0.20000000298023224"/></g><g style="mix-blend-mode:passthrough"><rect x="2" y="26" width="2" height="2" rx="0" fill="#D8D8D8" fill-opacity="0.20000000298023224"/></g><g style="mix-blend-mode:passthrough"><rect x="2" y="38" width="2" height="2" rx="0" fill="#D8D8D8" fill-opacity="0.20000000298023224"/></g><g style="mix-blend-mode:passthrough"><rect x="2" y="50" width="2" height="2" rx="0" fill="#D8D8D8" fill-opacity="0.20000000298023224"/></g><g style="mix-blend-mode:passthrough"><rect x="2" y="62" width="2" height="2" rx="0" fill="#D8D8D8" fill-opacity="0.20000000298023224"/></g><g style="mix-blend-mode:passthrough"><rect x="26" y="2" width="2" height="2" rx="0" fill="#D8D8D8" fill-opacity="0.20000000298023224"/></g><g style="mix-blend-mode:passthrough"><rect x="26" y="14" width="2" height="2" rx="0" fill="#D8D8D8" fill-opacity="0.20000000298023224"/></g><g style="mix-blend-mode:passthrough"><rect x="26" y="26" width="2" height="2" rx="0" fill="#D8D8D8" fill-opacity="0.20000000298023224"/></g><g style="mix-blend-mode:passthrough"><rect x="26" y="38" width="2" height="2" rx="0" fill="#D8D8D8" fill-opacity="0.20000000298023224"/></g><g style="mix-blend-mode:passthrough"><rect x="26" y="50" width="2" height="2" rx="0" fill="#D8D8D8" fill-opacity="0.20000000298023224"/></g><g style="mix-blend-mode:passthrough"><rect x="26" y="62" width="2" height="2" rx="0" fill="#D8D8D8" fill-opacity="0.20000000298023224"/></g><g style="mix-blend-mode:passthrough"><rect x="50" y="2" width="2" height="2" rx="0" fill="#D8D8D8" fill-opacity="0.20000000298023224"/></g><g style="mix-blend-mode:passthrough"><rect x="50" y="14" width="2" height="2" rx="0" fill="#D8D8D8" fill-opacity="0.20000000298023224"/></g><g style="mix-blend-mode:passthrough"><rect x="50" y="26" width="2" height="2" rx="0" fill="#D8D8D8" fill-opacity="0.20000000298023224"/></g><g style="mix-blend-mode:passthrough"><rect x="50" y="38" width="2" height="2" rx="0" fill="#D8D8D8" fill-opacity="0.20000000298023224"/></g><g style="mix-blend-mode:passthrough"><rect x="50" y="50" width="2" height="2" rx="0" fill="#D8D8D8" fill-opacity="0.20000000298023224"/></g><g style="mix-blend-mode:passthrough"><rect x="50" y="62" width="2" height="2" rx="0" fill="#D8D8D8" fill-opacity="0.20000000298023224"/></g><g style="mix-blend-mode:passthrough"><rect x="14" y="2" width="2" height="2" rx="0" fill="#D8D8D8" fill-opacity="0.20000000298023224"/></g><g style="mix-blend-mode:passthrough"><rect x="14" y="14" width="2" height="2" rx="0" fill="#D8D8D8" fill-opacity="0.20000000298023224"/></g><g style="mix-blend-mode:passthrough"><rect x="14" y="26" width="2" height="2" rx="0" fill="#D8D8D8" fill-opacity="0.20000000298023224"/></g><g style="mix-blend-mode:passthrough"><rect x="14" y="38" width="2" height="2" rx="0" fill="#D8D8D8" fill-opacity="0.20000000298023224"/></g><g style="mix-blend-mode:passthrough"><rect x="14" y="50" width="2" height="2" rx="0" fill="#D8D8D8" fill-opacity="0.20000000298023224"/></g><g style="mix-blend-mode:passthrough"><rect x="14" y="62" width="2" height="2" rx="0" fill="#D8D8D8" fill-opacity="0.20000000298023224"/></g><g style="mix-blend-mode:passthrough"><rect x="38" y="2" width="2" height="2" rx="0" fill="#D8D8D8" fill-opacity="0.20000000298023224"/></g><g style="mix-blend-mode:passthrough"><rect x="38" y="14" width="2" height="2" rx="0" fill="#D8D8D8" fill-opacity="0.20000000298023224"/></g><g style="mix-blend-mode:passthrough"><rect x="38" y="26" width="2" height="2" rx="0" fill="#D8D8D8" fill-opacity="0.20000000298023224"/></g><g style="mix-blend-mode:passthrough"><rect x="38" y="38" width="2" height="2" rx="0" fill="#D8D8D8" fill-opacity="0.20000000298023224"/></g><g style="mix-blend-mode:passthrough"><rect x="38" y="50" width="2" height="2" rx="0" fill="#D8D8D8" fill-opacity="0.20000000298023224"/></g><g style="mix-blend-mode:passthrough"><rect x="38" y="62" width="2" height="2" rx="0" fill="#D8D8D8" fill-opacity="0.20000000298023224"/></g><g style="mix-blend-mode:passthrough"><rect x="62" y="2" width="2" height="2" rx="0" fill="#D8D8D8" fill-opacity="0.20000000298023224"/></g><g style="mix-blend-mode:passthrough"><rect x="62" y="14" width="2" height="2" rx="0" fill="#D8D8D8" fill-opacity="0.20000000298023224"/></g><g style="mix-blend-mode:passthrough"><rect x="62" y="26" width="2" height="2" rx="0" fill="#D8D8D8" fill-opacity="0.20000000298023224"/></g><g style="mix-blend-mode:passthrough"><rect x="62" y="38" width="2" height="2" rx="0" fill="#D8D8D8" fill-opacity="0.20000000298023224"/></g><g style="mix-blend-mode:passthrough"><rect x="62" y="50" width="2" height="2" rx="0" fill="#D8D8D8" fill-opacity="0.20000000298023224"/></g><g style="mix-blend-mode:passthrough"><rect x="62" y="62" width="2" height="2" rx="0" fill="#D8D8D8" fill-opacity="0.20000000298023224"/></g><g style="mix-blend-mode:passthrough"><rect x="2" y="8" width="2" height="2" rx="0" fill="#D8D8D8" fill-opacity="0.20000000298023224"/></g><g style="mix-blend-mode:passthrough"><rect x="2" y="20" width="2" height="2" rx="0" fill="#D8D8D8" fill-opacity="0.20000000298023224"/></g><g style="mix-blend-mode:passthrough"><rect x="2" y="32" width="2" height="2" rx="0" fill="#D8D8D8" fill-opacity="0.20000000298023224"/></g><g style="mix-blend-mode:passthrough"><rect x="2" y="44" width="2" height="2" rx="0" fill="#D8D8D8" fill-opacity="0.20000000298023224"/></g><g style="mix-blend-mode:passthrough"><rect x="2" y="56" width="2" height="2" rx="0" fill="#D8D8D8" fill-opacity="0.20000000298023224"/></g><g style="mix-blend-mode:passthrough"><rect x="2" y="68" width="2" height="2" rx="0" fill="#D8D8D8" fill-opacity="0.20000000298023224"/></g><g style="mix-blend-mode:passthrough"><rect x="26" y="8" width="2" height="2" rx="0" fill="#D8D8D8" fill-opacity="0.20000000298023224"/></g><g style="mix-blend-mode:passthrough"><rect x="26" y="20" width="2" height="2" rx="0" fill="#D8D8D8" fill-opacity="0.20000000298023224"/></g><g style="mix-blend-mode:passthrough"><rect x="26" y="32" width="2" height="2" rx="0" fill="#D8D8D8" fill-opacity="0.20000000298023224"/></g><g style="mix-blend-mode:passthrough"><rect x="26" y="44" width="2" height="2" rx="0" fill="#D8D8D8" fill-opacity="0.20000000298023224"/></g><g style="mix-blend-mode:passthrough"><rect x="26" y="56" width="2" height="2" rx="0" fill="#D8D8D8" fill-opacity="0.20000000298023224"/></g><g style="mix-blend-mode:passthrough"><rect x="26" y="68" width="2" height="2" rx="0" fill="#D8D8D8" fill-opacity="0.20000000298023224"/></g><g style="mix-blend-mode:passthrough"><rect x="50" y="8" width="2" height="2" rx="0" fill="#D8D8D8" fill-opacity="0.20000000298023224"/></g><g style="mix-blend-mode:passthrough"><rect x="50" y="20" width="2" height="2" rx="0" fill="#D8D8D8" fill-opacity="0.20000000298023224"/></g><g style="mix-blend-mode:passthrough"><rect x="50" y="32" width="2" height="2" rx="0" fill="#D8D8D8" fill-opacity="0.20000000298023224"/></g><g style="mix-blend-mode:passthrough"><rect x="50" y="44" width="2" height="2" rx="0" fill="#D8D8D8" fill-opacity="0.20000000298023224"/></g><g style="mix-blend-mode:passthrough"><rect x="50" y="56" width="2" height="2" rx="0" fill="#D8D8D8" fill-opacity="0.20000000298023224"/></g><g style="mix-blend-mode:passthrough"><rect x="50" y="68" width="2" height="2" rx="0" fill="#D8D8D8" fill-opacity="0.20000000298023224"/></g><g style="mix-blend-mode:passthrough"><rect x="14" y="8" width="2" height="2" rx="0" fill="#D8D8D8" fill-opacity="0.20000000298023224"/></g><g style="mix-blend-mode:passthrough"><rect x="14" y="20" width="2" height="2" rx="0" fill="#D8D8D8" fill-opacity="0.20000000298023224"/></g><g style="mix-blend-mode:passthrough"><rect x="14" y="32" width="2" height="2" rx="0" fill="#D8D8D8" fill-opacity="0.20000000298023224"/></g><g style="mix-blend-mode:passthrough"><rect x="14" y="44" width="2" height="2" rx="0" fill="#D8D8D8" fill-opacity="0.20000000298023224"/></g><g style="mix-blend-mode:passthrough"><rect x="14" y="56" width="2" height="2" rx="0" fill="#D8D8D8" fill-opacity="0.20000000298023224"/></g><g style="mix-blend-mode:passthrough"><rect x="14" y="68" width="2" height="2" rx="0" fill="#D8D8D8" fill-opacity="0.20000000298023224"/></g><g style="mix-blend-mode:passthrough"><rect x="38" y="8" width="2" height="2" rx="0" fill="#D8D8D8" fill-opacity="0.20000000298023224"/></g><g style="mix-blend-mode:passthrough"><rect x="38" y="20" width="2" height="2" rx="0" fill="#D8D8D8" fill-opacity="0.20000000298023224"/></g><g style="mix-blend-mode:passthrough"><rect x="38" y="32" width="2" height="2" rx="0" fill="#D8D8D8" fill-opacity="0.20000000298023224"/></g><g style="mix-blend-mode:passthrough"><rect x="38" y="44" width="2" height="2" rx="0" fill="#D8D8D8" fill-opacity="0.20000000298023224"/></g><g style="mix-blend-mode:passthrough"><rect x="38" y="56" width="2" height="2" rx="0" fill="#D8D8D8" fill-opacity="0.20000000298023224"/></g><g style="mix-blend-mode:passthrough"><rect x="38" y="68" width="2" height="2" rx="0" fill="#D8D8D8" fill-opacity="0.20000000298023224"/></g><g style="mix-blend-mode:passthrough"><rect x="62" y="8" width="2" height="2" rx="0" fill="#D8D8D8" fill-opacity="0.20000000298023224"/></g><g style="mix-blend-mode:passthrough"><rect x="62" y="20" width="2" height="2" rx="0" fill="#D8D8D8" fill-opacity="0.20000000298023224"/></g><g style="mix-blend-mode:passthrough"><rect x="62" y="32" width="2" height="2" rx="0" fill="#D8D8D8" fill-opacity="0.20000000298023224"/></g><g style="mix-blend-mode:passthrough"><rect x="62" y="44" width="2" height="2" rx="0" fill="#D8D8D8" fill-opacity="0.20000000298023224"/></g><g style="mix-blend-mode:passthrough"><rect x="62" y="56" width="2" height="2" rx="0" fill="#D8D8D8" fill-opacity="0.20000000298023224"/></g><g style="mix-blend-mode:passthrough"><rect x="62" y="68" width="2" height="2" rx="0" fill="#D8D8D8" fill-opacity="0.20000000298023224"/></g><g style="mix-blend-mode:passthrough"><rect x="8" y="2" width="2" height="2" rx="0" fill="#D8D8D8" fill-opacity="0.20000000298023224"/></g><g style="mix-blend-mode:passthrough"><rect x="8" y="14" width="2" height="2" rx="0" fill="#D8D8D8" fill-opacity="0.20000000298023224"/></g><g style="mix-blend-mode:passthrough"><rect x="8" y="26" width="2" height="2" rx="0" fill="#D8D8D8" fill-opacity="0.20000000298023224"/></g><g style="mix-blend-mode:passthrough"><rect x="8" y="38" width="2" height="2" rx="0" fill="#D8D8D8" fill-opacity="0.20000000298023224"/></g><g style="mix-blend-mode:passthrough"><rect x="8" y="50" width="2" height="2" rx="0" fill="#D8D8D8" fill-opacity="0.20000000298023224"/></g><g style="mix-blend-mode:passthrough"><rect x="8" y="62" width="2" height="2" rx="0" fill="#D8D8D8" fill-opacity="0.20000000298023224"/></g><g style="mix-blend-mode:passthrough"><rect x="32" y="2" width="2" height="2" rx="0" fill="#D8D8D8" fill-opacity="0.20000000298023224"/></g><g style="mix-blend-mode:passthrough"><rect x="32" y="14" width="2" height="2" rx="0" fill="#D8D8D8" fill-opacity="0.20000000298023224"/></g><g style="mix-blend-mode:passthrough"><rect x="32" y="26" width="2" height="2" rx="0" fill="#D8D8D8" fill-opacity="0.20000000298023224"/></g><g style="mix-blend-mode:passthrough"><rect x="32" y="38" width="2" height="2" rx="0" fill="#D8D8D8" fill-opacity="0.20000000298023224"/></g><g style="mix-blend-mode:passthrough"><rect x="32" y="50" width="2" height="2" rx="0" fill="#D8D8D8" fill-opacity="0.20000000298023224"/></g><g style="mix-blend-mode:passthrough"><rect x="32" y="62" width="2" height="2" rx="0" fill="#D8D8D8" fill-opacity="0.20000000298023224"/></g><g style="mix-blend-mode:passthrough"><rect x="56" y="2" width="2" height="2" rx="0" fill="#D8D8D8" fill-opacity="0.20000000298023224"/></g><g style="mix-blend-mode:passthrough"><rect x="56" y="14" width="2" height="2" rx="0" fill="#D8D8D8" fill-opacity="0.20000000298023224"/></g><g style="mix-blend-mode:passthrough"><rect x="56" y="26" width="2" height="2" rx="0" fill="#D8D8D8" fill-opacity="0.20000000298023224"/></g><g style="mix-blend-mode:passthrough"><rect x="56" y="38" width="2" height="2" rx="0" fill="#D8D8D8" fill-opacity="0.20000000298023224"/></g><g style="mix-blend-mode:passthrough"><rect x="56" y="50" width="2" height="2" rx="0" fill="#D8D8D8" fill-opacity="0.20000000298023224"/></g><g style="mix-blend-mode:passthrough"><rect x="56" y="62" width="2" height="2" rx="0" fill="#D8D8D8" fill-opacity="0.20000000298023224"/></g><g style="mix-blend-mode:passthrough"><rect x="20" y="2" width="2" height="2" rx="0" fill="#D8D8D8" fill-opacity="0.20000000298023224"/></g><g style="mix-blend-mode:passthrough"><rect x="20" y="14" width="2" height="2" rx="0" fill="#D8D8D8" fill-opacity="0.20000000298023224"/></g><g style="mix-blend-mode:passthrough"><rect x="20" y="26" width="2" height="2" rx="0" fill="#D8D8D8" fill-opacity="0.20000000298023224"/></g><g style="mix-blend-mode:passthrough"><rect x="20" y="38" width="2" height="2" rx="0" fill="#D8D8D8" fill-opacity="0.20000000298023224"/></g><g style="mix-blend-mode:passthrough"><rect x="20" y="50" width="2" height="2" rx="0" fill="#D8D8D8" fill-opacity="0.20000000298023224"/></g><g style="mix-blend-mode:passthrough"><rect x="20" y="62" width="2" height="2" rx="0" fill="#D8D8D8" fill-opacity="0.20000000298023224"/></g><g style="mix-blend-mode:passthrough"><rect x="44" y="2" width="2" height="2" rx="0" fill="#D8D8D8" fill-opacity="0.20000000298023224"/></g><g style="mix-blend-mode:passthrough"><rect x="44" y="14" width="2" height="2" rx="0" fill="#D8D8D8" fill-opacity="0.20000000298023224"/></g><g style="mix-blend-mode:passthrough"><rect x="44" y="26" width="2" height="2" rx="0" fill="#D8D8D8" fill-opacity="0.20000000298023224"/></g><g style="mix-blend-mode:passthrough"><rect x="44" y="38" width="2" height="2" rx="0" fill="#D8D8D8" fill-opacity="0.20000000298023224"/></g><g style="mix-blend-mode:passthrough"><rect x="44" y="50" width="2" height="2" rx="0" fill="#D8D8D8" fill-opacity="0.20000000298023224"/></g><g style="mix-blend-mode:passthrough"><rect x="44" y="62" width="2" height="2" rx="0" fill="#D8D8D8" fill-opacity="0.20000000298023224"/></g><g style="mix-blend-mode:passthrough"><rect x="68" y="2" width="2" height="2" rx="0" fill="#D8D8D8" fill-opacity="0.20000000298023224"/></g><g style="mix-blend-mode:passthrough"><rect x="68" y="14" width="2" height="2" rx="0" fill="#D8D8D8" fill-opacity="0.20000000298023224"/></g><g style="mix-blend-mode:passthrough"><rect x="68" y="26" width="2" height="2" rx="0" fill="#D8D8D8" fill-opacity="0.20000000298023224"/></g><g style="mix-blend-mode:passthrough"><rect x="68" y="38" width="2" height="2" rx="0" fill="#D8D8D8" fill-opacity="0.20000000298023224"/></g><g style="mix-blend-mode:passthrough"><rect x="68" y="50" width="2" height="2" rx="0" fill="#D8D8D8" fill-opacity="0.20000000298023224"/></g><g style="mix-blend-mode:passthrough"><rect x="68" y="62" width="2" height="2" rx="0" fill="#D8D8D8" fill-opacity="0.20000000298023224"/></g><g style="mix-blend-mode:passthrough"><rect x="8" y="8" width="2" height="2" rx="0" fill="#D8D8D8" fill-opacity="0.20000000298023224"/></g><g style="mix-blend-mode:passthrough"><rect x="8" y="20" width="2" height="2" rx="0" fill="#D8D8D8" fill-opacity="0.20000000298023224"/></g><g style="mix-blend-mode:passthrough"><rect x="8" y="32" width="2" height="2" rx="0" fill="#D8D8D8" fill-opacity="0.20000000298023224"/></g><g style="mix-blend-mode:passthrough"><rect x="8" y="44" width="2" height="2" rx="0" fill="#D8D8D8" fill-opacity="0.20000000298023224"/></g><g style="mix-blend-mode:passthrough"><rect x="8" y="56" width="2" height="2" rx="0" fill="#D8D8D8" fill-opacity="0.20000000298023224"/></g><g style="mix-blend-mode:passthrough"><rect x="8" y="68" width="2" height="2" rx="0" fill="#D8D8D8" fill-opacity="0.20000000298023224"/></g><g style="mix-blend-mode:passthrough"><rect x="32" y="8" width="2" height="2" rx="0" fill="#D8D8D8" fill-opacity="0.20000000298023224"/></g><g style="mix-blend-mode:passthrough"><rect x="32" y="20" width="2" height="2" rx="0" fill="#D8D8D8" fill-opacity="0.20000000298023224"/></g><g style="mix-blend-mode:passthrough"><rect x="32" y="32" width="2" height="2" rx="0" fill="#D8D8D8" fill-opacity="0.20000000298023224"/></g><g style="mix-blend-mode:passthrough"><rect x="32" y="44" width="2" height="2" rx="0" fill="#D8D8D8" fill-opacity="0.20000000298023224"/></g><g style="mix-blend-mode:passthrough"><rect x="32" y="56" width="2" height="2" rx="0" fill="#D8D8D8" fill-opacity="0.20000000298023224"/></g><g style="mix-blend-mode:passthrough"><rect x="32" y="68" width="2" height="2" rx="0" fill="#D8D8D8" fill-opacity="0.20000000298023224"/></g><g style="mix-blend-mode:passthrough"><rect x="56" y="8" width="2" height="2" rx="0" fill="#D8D8D8" fill-opacity="0.20000000298023224"/></g><g style="mix-blend-mode:passthrough"><rect x="56" y="20" width="2" height="2" rx="0" fill="#D8D8D8" fill-opacity="0.20000000298023224"/></g><g style="mix-blend-mode:passthrough"><rect x="56" y="32" width="2" height="2" rx="0" fill="#D8D8D8" fill-opacity="0.20000000298023224"/></g><g style="mix-blend-mode:passthrough"><rect x="56" y="44" width="2" height="2" rx="0" fill="#D8D8D8" fill-opacity="0.20000000298023224"/></g><g style="mix-blend-mode:passthrough"><rect x="56" y="56" width="2" height="2" rx="0" fill="#D8D8D8" fill-opacity="0.20000000298023224"/></g><g style="mix-blend-mode:passthrough"><rect x="56" y="68" width="2" height="2" rx="0" fill="#D8D8D8" fill-opacity="0.20000000298023224"/></g><g style="mix-blend-mode:passthrough"><rect x="20" y="8" width="2" height="2" rx="0" fill="#D8D8D8" fill-opacity="0.20000000298023224"/></g><g style="mix-blend-mode:passthrough"><rect x="20" y="20" width="2" height="2" rx="0" fill="#D8D8D8" fill-opacity="0.20000000298023224"/></g><g style="mix-blend-mode:passthrough"><rect x="20" y="32" width="2" height="2" rx="0" fill="#D8D8D8" fill-opacity="0.20000000298023224"/></g><g style="mix-blend-mode:passthrough"><rect x="20" y="44" width="2" height="2" rx="0" fill="#D8D8D8" fill-opacity="0.20000000298023224"/></g><g style="mix-blend-mode:passthrough"><rect x="20" y="56" width="2" height="2" rx="0" fill="#D8D8D8" fill-opacity="0.20000000298023224"/></g><g style="mix-blend-mode:passthrough"><rect x="20" y="68" width="2" height="2" rx="0" fill="#D8D8D8" fill-opacity="0.20000000298023224"/></g><g style="mix-blend-mode:passthrough"><rect x="44" y="8" width="2" height="2" rx="0" fill="#D8D8D8" fill-opacity="0.20000000298023224"/></g><g style="mix-blend-mode:passthrough"><rect x="44" y="20" width="2" height="2" rx="0" fill="#D8D8D8" fill-opacity="0.20000000298023224"/></g><g style="mix-blend-mode:passthrough"><rect x="44" y="32" width="2" height="2" rx="0" fill="#D8D8D8" fill-opacity="0.20000000298023224"/></g><g style="mix-blend-mode:passthrough"><rect x="44" y="44" width="2" height="2" rx="0" fill="#D8D8D8" fill-opacity="0.20000000298023224"/></g><g style="mix-blend-mode:passthrough"><rect x="44" y="56" width="2" height="2" rx="0" fill="#D8D8D8" fill-opacity="0.20000000298023224"/></g><g style="mix-blend-mode:passthrough"><rect x="44" y="68" width="2" height="2" rx="0" fill="#D8D8D8" fill-opacity="0.20000000298023224"/></g><g style="mix-blend-mode:passthrough"><rect x="68" y="8" width="2" height="2" rx="0" fill="#D8D8D8" fill-opacity="0.20000000298023224"/></g><g style="mix-blend-mode:passthrough"><rect x="68" y="20" width="2" height="2" rx="0" fill="#D8D8D8" fill-opacity="0.20000000298023224"/></g><g style="mix-blend-mode:passthrough"><rect x="68" y="32" width="2" height="2" rx="0" fill="#D8D8D8" fill-opacity="0.20000000298023224"/></g><g style="mix-blend-mode:passthrough"><rect x="68" y="44" width="2" height="2" rx="0" fill="#D8D8D8" fill-opacity="0.20000000298023224"/></g><g style="mix-blend-mode:passthrough"><rect x="68" y="56" width="2" height="2" rx="0" fill="#D8D8D8" fill-opacity="0.20000000298023224"/></g><g style="mix-blend-mode:passthrough"><rect x="68" y="68" width="2" height="2" rx="0" fill="#D8D8D8" fill-opacity="0.20000000298023224"/></g></g></svg>