<?xml version="1.0" encoding="utf-8"?>
<!-- Generator: Adobe Illustrator 26.1.0, SVG Export Plug-In . SVG Version: 6.00 Build 0)  -->
<svg version="1.1" id="Layer_1" xmlns="http://www.w3.org/2000/svg" xmlns:xlink="http://www.w3.org/1999/xlink" x="0px" y="0px"
	 viewBox="0 0 836.7 227.6" style="enable-background:new 0 0 836.7 227.6;" xml:space="preserve">
<style type="text/css">
	.st0{fill:#6C9898;}
	.st1{fill:#030302;}
	.st2{fill:#0101DB;}
	.st3{fill:#0101DA;}
	.st4{fill:#808080;}
	.st5{fill:#FDFD00;}
	.st6{fill:#FEFFFF;}
	.st7{fill:#BEBFBF;}
	.st8{fill:#7F7E7E;}
	.st9{fill:#BEBEBE;}
	.st10{fill:#FDFDFD;}
	.st11{fill:#FBFBFB;}
	.st12{fill:#BFBFBF;}
	.st13{fill:#010177;}
	.st14{fill:#C0BEBE;}
	.st15{fill:#010179;}
	.st16{fill:#FDFEFE;}
	.st17{fill:#7F7E80;}
	.st18{fill:#FFFFFF;}
	.st19{fill:#BBBCBC;}
	.st20{fill:#BDBEBE;}
	.st21{fill:#777C7C;}
	.st22{fill:#C0BFBF;}
	.st23{fill:#010101;}
	.st24{fill:#040303;}
</style>
<g>
	<path class="st0" d="M7,193.4c0.1,0,0.2,0,0.4,0c0,8.8,0,17.5,0,26.3c0.6,0,1,0,1.4,0c37,0,74,0,110.9,0c0.4,0,0.9,0,1.3,0
		c-0.1,0.1-0.3,0.2-0.4,0.2c-0.3,0-0.6,0-0.9,0c-37.1,0-74.1,0-111.2,0c-0.5,0-1-0.1-1.5-0.2C7,211,7,202.2,7,193.4z"/>
	<path class="st1" d="M121,219.7c-0.4,0-0.9,0-1.3,0c-37,0-74,0-110.9,0c-0.4,0-0.8,0-1.4,0c0-8.8,0-17.6,0-26.3
		c4.9-5.2,9.7-10.4,14.6-15.6c0.3-0.3,0.6-0.5,1.1-0.5c0.7,0,1.4,0,2.1,0c0-0.4,0-0.8,0-1.2c-0.1-15.7-0.2-31.5-0.3-47.2
		c0-0.8,0.2-1.3,0.8-1.9c4.3-4.3,8.6-8.6,12.8-13c0.5-0.5,0.9-0.7,1.6-0.7c15.8,0.1,31.6,0.1,47.3,0.1c0.3,0,0.6,0,0.9,0
		c0-1,0-1.9,0-3c-0.4,0-0.7,0-1.1,0c-3.1,0-6.2,0-9.3,0c-0.2,0-0.5,0-0.7,0c-1,0-1.5-0.4-1.8-1.1c-0.2-0.7,0-1.3,0.8-1.8
		c3.8-2.8,7.5-5.6,11.3-8.4c0.6-0.4,0.8-0.9,0.8-1.6c-0.1-2,0-4,0-6.1c0-0.5,0.2-0.9,0.5-1.3c4.7-5,9.4-10,14.1-15
		c0.4-0.4,0.7-0.6,1.2-0.6c0.6,0,1.3,0,2.1,0c0-0.4,0-0.7,0-1c-0.1-15.7-0.2-31.5-0.3-47.2c0-0.9,0.2-1.5,0.9-2.2
		c4.3-4.3,8.5-8.6,12.7-12.9c0.4-0.5,0.9-0.6,1.5-0.6c26,0.1,52,0.2,78,0.3c1.1,0,2.1,0,3.3,0c0,21.3,0,42.4,0,63.6
		c4.7,0,9.3,0,13.9,0c0,0.3,0.1,0.5,0.1,0.8c0,8.9,0,17.7,0,26.6c0,0.5-0.1,0.9-0.5,1.3c-4.5,4.5-9,9-13.5,13.5
		c-0.4,0.4-0.7,0.6-1.3,0.5c-0.2,0-0.4,0-0.6,0c-26,0-52,0-78,0c-0.4,0-0.8,0-1.3,0c0,20.1,0,40.1,0,60.2c4.7,0,9.3,0,14,0
		c0,0.4,0,0.8,0,1.1c0,8.6,0,17.3,0,25.9c0,0.7-0.2,1.2-0.7,1.7C130.2,210.6,125.6,215.2,121,219.7z M115.9,77.9
		c1.1-0.8,2.2-1.7,3.3-2.5c0.4-0.3,0.7-0.5,1.1-0.8c0.3-0.2,0.5-0.3,0.8-0.5c12.1-9.1,24.2-18.1,36.3-27.2c0.3-0.2,0.7-0.5,1-0.7
		c0.6-0.4,1.3-0.3,1.8,0.1c0.5,0.4,0.7,1.2,0.4,1.8c-0.1,0.3-0.4,0.6-0.7,0.9c-6.6,7.1-13.2,14.2-19.7,21.3
		c-1.6,1.7-3.1,3.4-4.7,5.1c-0.7,0.8-1.4,1.5-2.1,2.3c-2.1,2.3-4.3,4.6-6.4,6.9c-0.1,0.1-0.1,0.2-0.2,0.3c-0.9,0.8-1.8,1.7-2.7,2.9
		c0.5,0,0.8,0,1,0c20.2,0,40.5,0,60.7,0c0.6,0,1.1-0.2,1.5-0.6c3.6-3.6,7.2-7.2,10.9-10.8c0.5-0.5,0.7-0.9,0.7-1.6
		c0-7.2,0-14.5,0-21.7c0-12.6,0-25.2,0-37.9c0-0.4,0-0.8,0-1.3c-0.5,0-0.8,0-1.2,0c-5.7,0-11.3,0-17,0c-0.3,0-0.5,0-0.8,0
		c-0.4,0-0.8,0-1.2,0c-7.8,0-15.6,0-23.4,0c-10.7,0-21.4,0-32.1-0.1c-0.5,0-1,0-1.4,0.5c-3.8,3.8-7.6,7.7-11.5,11.5
		c-0.5,0.1-0.3,0.6-0.3,0.9c0,18.3,0,36.6,0.1,54.8c0,0.2,0,0.4,0.1,0.8c1.1-0.8,2.1-1.6,3-2.3C114.1,79.3,115,78.6,115.9,77.9z
		 M92.1,110.7c-0.1,0.9-0.1,1.9,0,2.8c2.2,0,4.2,0,6.3,0c1.4,0,2.9,0,4.3,0.1c0.2,0,0.4,0,0.6-0.2c0.9-0.9,1.7-1.8,2.5-2.8
		c-0.8-0.1-1.5-0.1-2.3-0.1c-3.5,0-7,0-10.5,0C92.7,110.5,92.3,110.3,92.1,110.7z M11,211.5c0,1.6,0,3.3,0,4.9
		c0.3,0.1,0.6,0.2,0.9,0.2c2.2,0,4.4,0,6.6,0c33.1,0,66.3,0,99.4,0c0.4,0,0.9-0.1,1.3-0.1c1-0.9,1.9-1.7,2.9-2.6
		c3-2.9,6-5.8,9.1-8.7c0.5-0.5,0.7-1,0.7-1.7c0-7.2,0-14.3,0-21.5c0-0.2,0-0.5,0-0.7c0-0.1-0.2-0.2-0.2-0.3c-2.2,0-4.4,0-6.6,0.1
		c-1.3,0-2.5,0-3.8-0.1c-0.6,0-1,0.2-1.4,0.6c-4,4-8,7.9-11.9,11.9c-0.2,0.2-0.4,0.5-0.6,0.7c-0.3,0-0.7,0-1,0
		c-26.9,0-53.9,0-80.8,0c0-0.4-0.1-0.7-0.1-1.1c0-3.6,0-7.3,0-10.9c0-0.4,0-0.7,0-1.1c-1.2-0.3-1.9,0-2.7,0.8
		c-3.8,4.1-7.7,8.2-11.6,12.2c-0.1,0.3-0.2,0.6-0.2,0.9c0,3,0,6.1,0,9.1c0,2.3,0,4.6,0,6.9C10.8,211.2,10.9,211.4,11,211.5z
		 M92,91.5c0,0-0.1,0.1-0.1,0.1c0,1.4,0,2.8,0,4.4c2-1.5,3.8-2.9,5.6-4.2c1-0.7,1.9-1.4,2.9-2.1c2-1.5,4.1-3,6-4.5
		c0-2.3,0-4.5,0-6.7c-1-0.2-1.8-0.1-2.6,0.8c-3.6,3.9-7.3,7.8-11,11.7C92.5,91,92.2,91.3,92,91.5z M96.6,134.9
		c-1.7,1.2-3.3,2.5-5,3.7c-0.2,0.2-0.5,0.3-0.7,0.5c-6.8,5.2-13.6,10.4-20.3,15.6c-1.7,1.3-3.4,2.6-5.1,3.9c-0.5,0.4-1,0.7-1.7,0.4
		c-1.1-0.4-1.4-1.7-0.5-2.7c1-1.1,2-2.2,3-3.2c4.4-4.7,8.8-9.4,13.2-14.1c0.8-0.8,1.5-1.6,2.3-2.4c0.5-0.5,0.9-1,1.4-1.5
		c0.9-0.9,1.7-1.9,2.6-2.8c1.1-1.1,2.2-2.2,3.3-3.4c3.7-4,7.4-7.9,11.2-11.9c0-0.1-0.1-0.1-0.1-0.2c-0.3,0-0.7,0-1,0
		c-19,0-38.1-0.1-57.1-0.1c-0.6,0-1,0.2-1.3,0.6c-2.3,2.3-4.6,4.6-6.9,6.9c-1.5,1.5-2.9,3-4.4,4.5c-0.7,0.1-0.3,0.7-0.3,1
		c0,20,0,40,0,60c0,0.2,0,0.5,0,0.7c0,0.1,0.2,0.1,0.3,0.2c0.2,0,0.4,0,0.6,0c8.1,0,16.3,0,24.4,0c16.8,0,33.6,0,50.3,0
		c0.6,0,1.1-0.1,1.6-0.5c3.7-3.7,7.3-7.3,11-10.9c0.4-0.4,0.6-0.9,0.6-1.4c0-19.3,0-38.7,0-58c0-0.3,0-0.5-0.1-0.9
		c-0.3,0.2-0.6,0.4-0.8,0.5c-5.4,4.1-10.9,8.3-16.3,12.4c-0.2,0.1-0.2,0.3-0.4,0.5c-0.4,0.3-0.9,0.6-1.3,0.9
		C98.1,133.7,97.4,134.3,96.6,134.9z M188.1,91.5c-0.2,0-0.4,0-0.6,0c-22,0-44,0-66,0c-0.2,0-0.4,0-0.6,0c-0.1,0-0.3,0-0.4,0.1
		c-0.6,0.6-1.3,1.3-1.9,2.1c0.5,0,0.9,0,1.2,0c8.3,0,16.7,0,25,0c0.3,0,0.7,0,1,0c0.6,0.1,1,0.4,1.3,1c0.2,0.6,0.1,1.1-0.3,1.5
		c-0.2,0.2-0.5,0.4-0.7,0.6c-0.7,0.6-1.5,1.2-2.2,1.8c-0.9,0.6-1.7,1.2-2.6,1.9c-3.3,2.5-6.6,5-9.8,7.6c-2.4,1.8-4.7,3.6-7.1,5.4
		c0,0,0,0.1,0,0.2c0.4,0,0.7,0,1.1,0c24.6,0,49.1,0,73.7,0c0.2,0,0.3,0,0.5,0c0.5,0.1,0.9-0.1,1.3-0.5c3.8-3.7,7.7-7.4,11.5-11
		c0.4-0.4,0.6-0.8,0.6-1.4c0-7.1,0-14.3,0-21.4c0-0.3-0.1-0.6-0.1-0.9c-0.1-0.1-0.2-0.3-0.4-0.3c-2.1,0-4.2,0-6.2,0.1
		c-1.3,0-2.5,0-3.8-0.1c-0.7,0-1.1,0.2-1.6,0.7c-3.9,3.9-7.8,7.8-11.7,11.7C188.8,90.9,188.5,91.2,188.1,91.5z M79.3,143.7
		c-0.2,0.2-0.3,0.3-0.5,0.5c0,0,0.1,0.1,0.1,0.1c0.2-0.2,0.4-0.3,0.6-0.5c0.3-0.2,0.6-0.4,0.8-0.6c19.9-15.2,39.7-30.4,59.6-45.6
		c0.3-0.2,0.5-0.4,0.9-0.8c-0.6,0-0.9,0-1.2,0c-8,0-16,0-24,0c-0.3,0-0.6,0-0.9,0c-1.3-0.2-1.9-1.5-1.1-2.5c0.2-0.2,0.4-0.4,0.5-0.6
		c10.1-10.9,20.2-21.7,30.2-32.6c0.2-0.3,0.5-0.5,0.8-0.9c-1.1,0.5-62.5,46.6-63,47.2c0.4,0,0.8,0,1.2,0c8.5,0,16.9,0,25.4,0
		c0.3,0,0.5,0,0.8,0c0.7,0,1.2,0.3,1.5,0.9c0.3,0.6,0.2,1.2-0.3,1.7c-0.2,0.2-0.4,0.4-0.6,0.6C99.9,121.7,89.6,132.7,79.3,143.7z"/>
	<path class="st2" d="M79.5,138.9c-4.4,4.7-8.8,9.4-13.2,14.1c-1,1.1-2,2.1-3,3.2c-0.9,1-0.6,2.3,0.5,2.7c0.7,0.3,1.2,0,1.7-0.4
		c1.7-1.3,3.4-2.6,5.1-3.9c6.8-5.2,13.6-10.4,20.3-15.6c0.2-0.2,0.5-0.3,0.7-0.5c1.7,0,3.5,0,5.2,0c0,0.3,0.1,0.6,0.1,0.9
		c0,12.5,0,25,0,37.5c0,0.3,0,0.7,0,1.1c-0.5,0-0.9,0-1.2,0c-18.6,0-37.2,0-55.8,0c-1.2,0-2.4,0-3.6-0.1c0.8-0.1,1.7-0.1,2.6-0.2
		c0-2.2,0-4.4,0-6.5c0-2.2,0-4.4,0-6.6c0-2.2,0-4.3,0-6.5c0-2.2,0-4.4,0-6.6c0-2.2,0-4.3,0-6.5c0-2.2,0-4.4,0-6.6c0.6,0,1,0,1.4,0
		c7.7,0,15.4,0,23.1,0c5,0,9.9,0,14.9,0C78.7,138.7,79.1,138.8,79.5,138.9z"/>
	<path class="st3" d="M135.5,75.4c1.6-1.7,3.1-3.4,4.7-5.1c6.6-7.1,13.2-14.2,19.7-21.3c0.3-0.3,0.5-0.6,0.7-0.9
		c0.3-0.6,0.1-1.4-0.4-1.8c-0.5-0.4-1.2-0.5-1.8-0.1c-0.4,0.2-0.7,0.5-1,0.7C145.2,56,133.1,65.1,121,74.1c-0.2,0.2-0.5,0.4-0.8,0.5
		c-0.1-0.3-0.2-0.6-0.2-1c0-12.3,0-24.6,0-36.9c0-0.3,0-0.6,0.1-0.9c0.4,0,0.7-0.1,1-0.1c0.9,0,1.9,0,2.8,0c18,0,36.1,0,54.1,0
		c0,0.2,0.1,0.3,0.1,0.5c0,12.8,0,25.6,0,38.4c0,0.2-0.1,0.5-0.1,0.7c-0.5,0-0.9,0-1.3,0c-13,0-26.1,0-39.1,0
		C136.9,75.4,136.2,75.4,135.5,75.4z"/>
	<path class="st4" d="M100.2,132.2c0.1-0.2,0.2-0.4,0.4-0.5c5.4-4.1,10.8-8.3,16.3-12.4c0.2-0.2,0.4-0.3,0.8-0.5
		c0,0.4,0.1,0.6,0.1,0.9c0,19.3,0,38.7,0,58c0,0.6-0.2,1-0.6,1.4c-3.7,3.6-7.4,7.3-11,10.9c-0.5,0.5-1,0.5-1.6,0.5
		c-16.8,0-33.6,0-50.3,0c-8.1,0-16.3,0-24.4,0c-0.2,0-0.4,0-0.6,0c1.1-0.9,2.2-1.9,3.4-2.8c0.5,0,1,0,1.5,0c13.4,0,26.9,0,40.3,0
		c8.2,0,16.4,0,24.6,0c0.4,0,0.8,0,1.3,0c0-2.4,0-4.6,0-6.9c0-0.2,0-0.5,0-0.7c0-15.6,0-31.2,0-46.8
		C100.3,132.8,100.3,132.5,100.2,132.2z"/>
	<path class="st4" d="M179.9,13.9c0.3,0,0.5,0,0.8,0c5.7,0,11.3,0,17,0c0.3,0,0.7,0,1.2,0c0,0.5,0,0.9,0,1.3c0,12.6,0,25.2,0,37.9
		c0,7.2,0,14.5,0,21.7c0,0.7-0.2,1.1-0.7,1.6c-3.6,3.6-7.3,7.2-10.9,10.8c-0.5,0.5-0.9,0.6-1.5,0.6c-20.2,0-40.5,0-60.7,0
		c-0.3,0-0.5,0-1,0c0.9-1.1,1.7-2,2.7-2.9c0.4,0,0.8,0,1.1,0c17.3,0,34.7,0,52,0c0.3,0,0.6,0,0.9,0c0.5,0,0.7-0.2,0.7-0.8
		c0-2.1,0-4.2-0.1-6.3c0-0.3,0-0.6,0-0.9c0-15.5,0-31,0-46.4c0-0.3,0-0.6,0-0.9c0-0.2,0-0.3,0.1-0.5c1.2-1,2.3-2.1,3.5-3.1
		c2.2-2,4.5-3.9,6.7-5.9c2.2-2,4.5-3.8,6.7-6.1c-0.6,0-1,0-1.4,0c-5.4,0-10.8,0-16.1,0C180.6,14.1,180.3,14,179.9,13.9z"/>
	<path class="st5" d="M79.3,143.7c10.3-11,20.6-22,30.9-33.1c0.2-0.2,0.4-0.4,0.6-0.6c0.5-0.5,0.5-1.1,0.3-1.7
		c-0.3-0.6-0.8-0.9-1.5-0.9c-0.3,0-0.5,0-0.8,0c-8.5,0-16.9,0-25.4,0c-0.4,0-0.7,0-1.2,0c0.5-0.6,61.9-46.7,63-47.2
		c-0.4,0.4-0.6,0.7-0.8,0.9c-10.1,10.9-20.2,21.7-30.2,32.6c-0.2,0.2-0.4,0.4-0.5,0.6c-0.8,1-0.2,2.4,1.1,2.5c0.3,0,0.6,0,0.9,0
		c8,0,16,0,24,0c0.3,0,0.7,0,1.2,0c-0.4,0.4-0.7,0.6-0.9,0.8c-19.9,15.2-39.7,30.4-59.6,45.6c-0.3,0.2-0.6,0.4-0.8,0.6
		C79.4,143.8,79.4,143.8,79.3,143.7z"/>
	<path class="st6" d="M25.3,194.2c26.9,0,53.9,0,80.8,0c0.3,0,0.7,0,1,0c1.8,0,3.6,0,5.4,0c0.8-0.8,1.7-1.6,2.5-2.5
		c0.6-0.7,1.3-1.3,1.9-2c2.4-2.5,4.9-5.1,7.3-7.6c0.3-0.3,0.5-0.7,0.7-1.1c2.2,0,4.4,0,6.6-0.1c-0.1,0.2-0.2,0.5-0.4,0.7
		c-2.4,2.6-4.9,5.2-7.3,7.8c-3.7,4-7.5,8-11.2,12c-0.4,0-0.9,0-1.3,0c-19.7,0-39.4,0-59,0c-11.1,0-22.3,0-33.4,0c-0.4,0-0.8,0-1.3,0
		c0,0.5,0,0.9,0,1.3c0,2.5,0,4.9,0,7.4c0,0.4-0.1,0.7-0.2,1.1c-2.2,0-4.4,0-6.5-0.1c0-2.3,0-4.6,0-6.9c0-3,0-6.1,0-9.1
		c0-0.3,0.1-0.6,0.2-0.9C15.7,194.2,20.5,194.2,25.3,194.2z"/>
	<path class="st7" d="M179.9,13.9c0.4,0,0.7,0.1,1.1,0.1c5.4,0,10.8,0,16.1,0c0.4,0,0.7,0,1.4,0c-2.2,2.3-4.5,4.1-6.7,6.1
		c-2.2,2-4.5,3.9-6.7,5.9c-0.4-0.1-0.8-0.2-1.3-0.2c-24.1,0-48.3,0-72.4,0c-0.4,0-0.8,0-1.1,0c3.8-3.8,7.7-7.6,11.5-11.5
		c0.4-0.4,0.9-0.5,1.4-0.5c10.7,0,21.4,0,32.1,0.1c7.8,0,15.6,0,23.4,0C179.1,13.9,179.5,13.9,179.9,13.9z"/>
	<path class="st8" d="M112.6,201.4c3.7-4,7.5-8,11.2-12c2.4-2.6,4.9-5.2,7.3-7.8c0.2-0.2,0.3-0.4,0.4-0.7c0.1,0.1,0.2,0.2,0.2,0.3
		c0,0.2,0,0.5,0,0.7c0,7.2,0,14.3,0,21.5c0,0.7-0.2,1.2-0.7,1.7c-3,2.9-6,5.8-9.1,8.7c-0.9,0.9-1.9,1.8-2.9,2.6
		c-33.5,0-67,0-100.4,0c-0.5,0-1,0-1.5,0c0-1.6,0-3.3,0.1-4.9c0-0.1,0-0.1,0-0.2c0.3,0,0.7,0,1,0c18.3,0,36.5,0,54.8,0
		c11.1,0,22.1,0,33.2,0c2.1,0,4.1,0,6.3,0C112.6,207.9,112.6,204.7,112.6,201.4z"/>
	<path class="st4" d="M212.9,78.5c0.1,0.3,0.1,0.6,0.1,0.9c0,7.1,0,14.3,0,21.4c0,0.6-0.2,1-0.6,1.4c-3.8,3.7-7.7,7.3-11.5,11
		c-0.4,0.4-0.8,0.6-1.3,0.5c-0.2,0-0.3,0-0.5,0c-24.6,0-49.1,0-73.7,0c-0.4,0-0.7,0-1.1,0c0-0.1,0-0.2,0-0.2
		c2.4-1.8,4.7-3.6,7.1-5.4c0.3,0.5,0.8,0.3,1.2,0.3c5,0,9.9,0,14.9,0c2.2,0,4.5,0,6.7,0c0.3,0.1,0.7,0.2,1,0.2c10.4,0,20.9,0,31.3,0
		c0.3,0,0.7-0.1,1-0.2c2,0,4.1,0,6.2,0c0-3.3,0-6.5,0-9.7c1.6-1.7,3.2-3.4,4.8-5.1c4.1-4.4,8.3-8.8,12.4-13.2
		C211.5,79.8,212.2,79.2,212.9,78.5z"/>
	<path class="st9" d="M29.2,128.6c1.5-1.5,2.9-3,4.4-4.5c2.3-2.3,4.6-4.6,6.9-6.9c0.4-0.4,0.8-0.6,1.3-0.6c19,0,38.1,0.1,57.1,0.1
		c0.3,0,0.7,0,1,0c0,0.1,0.1,0.1,0.1,0.2c-3.7,4-7.4,7.9-11.2,11.9c-0.4-0.1-0.8-0.2-1.3-0.2c-19.1,0-38.1,0-57.2,0
		C30,128.6,29.6,128.6,29.2,128.6z"/>
	<path class="st10" d="M212.9,78.5c-0.7,0.6-1.3,1.2-2,1.9c-4.1,4.4-8.3,8.8-12.4,13.2c-1.6,1.7-3.2,3.4-4.8,5.1c-0.5,0-1,0-1.4,0
		c-16.1,0-32.3,0-48.4,0c0.7-0.6,1.5-1.2,2.2-1.8c0.2-0.2,0.5-0.4,0.7-0.6c0.4-0.4,0.5-1,0.3-1.5c-0.2-0.6-0.6-1-1.3-1
		c-0.3,0-0.7,0-1,0c-8.3,0-16.7,0-25,0c-0.3,0-0.7,0-1.2,0c0.7-0.9,1.3-1.5,1.9-2.1c0.1-0.1,0.3-0.1,0.4-0.1c0.2,0,0.4,0,0.6,0
		c22,0,44,0,66,0c0.2,0,0.4,0,0.6,0c1.9,0,3.7,0,5.6,0c1-0.9,1.9-1.9,2.9-2.8c0.4-0.5,0.9-0.9,1.3-1.4c2.4-2.5,4.8-5,7.2-7.5
		c0.4-0.4,0.7-0.9,1.1-1.4c2.1,0,4.2-0.1,6.2-0.1C212.6,78.3,212.8,78.5,212.9,78.5z"/>
	<path class="st11" d="M110.3,25.8c0.4,0,0.8,0,1.1,0c24.1,0,48.3,0,72.4,0c0.4,0,0.8,0.1,1.3,0.2c-1.2,1-2.3,2.1-3.5,3.1
		c-0.5,0-1,0-1.5,0c-21.8,0-43.6,0-65.4,0c-0.3,0-0.6,0-0.9,0c-0.1,0-0.3,0.1-0.4,0.2c0,0.3,0,0.6,0,0.9c0,15.6,0,31.2,0,46.8
		c0,0.3,0,0.5,0,0.8c0,0.7,0,1.3,0,2c-1,0.7-1.9,1.5-3,2.3c0-0.3-0.1-0.5-0.1-0.8c0-18.3-0.1-36.6-0.1-54.8
		C110,26.4,109.8,26,110.3,25.8z"/>
	<path class="st11" d="M29.2,128.6c0.4,0,0.8,0,1.2,0c19.1,0,38.1,0,57.2,0c0.4,0,0.8,0.1,1.3,0.2c-1.1,1.1-2.2,2.2-3.3,3.4
		c-0.3,0-0.5-0.1-0.8-0.1c-17.3,0-34.6,0-51.9,0c-0.3,0-0.6,0-0.9,0.1c0,0.5,0,0.8,0,1.2c0,15.5,0,30.9,0,46.4c0,0.4,0,0.8,0.1,1.1
		c0,2,0,4,0,6.1c0,0.4,0,0.7,0.5,0.7c-1.1,0.9-2.2,1.9-3.4,2.8c-0.1-0.1-0.3-0.1-0.3-0.2c0-0.2,0-0.5,0-0.7c0-20,0-40,0-60
		C28.9,129.2,28.5,128.7,29.2,128.6z"/>
	<path class="st12" d="M143.8,98.7c16.1,0,32.3,0,48.4,0c0.5,0,1,0,1.4,0c0,3.2,0,6.4,0,9.7c-2.1,0.1-4.1,0-6.2,0c0-1.7,0-3.4,0-5.1
		c-11.1,0-22.1,0-33.2,0c0,1.7,0,3.4,0,5.1c-2.2,0-4.5,0-6.7,0c-5,0-9.9,0-14.9,0c-0.4,0-0.9,0.2-1.2-0.3c3.3-2.5,6.6-5,9.8-7.6
		C142.1,99.9,143,99.3,143.8,98.7z"/>
	<path class="st13" d="M178,35.8c-18,0-36.1,0-54.1,0c-0.9,0-1.9,0-2.8,0c-0.3,0-0.6,0-1,0.1c0,0.3-0.1,0.6-0.1,0.9
		c0,12.3,0,24.6,0,36.9c0,0.3,0.1,0.6,0.2,1c-0.4,0.3-0.7,0.5-1.1,0.8c-0.7,0-1.5,0-2.2,0c-0.7-0.1-0.6-0.6-0.6-1.1
		c0-13.7,0-27.5,0-41.2c0-0.3,0-0.6,0.1-1c20.5,0,41,0,61.5,0C177.9,33.4,177.9,34.6,178,35.8z"/>
	<path class="st14" d="M181.5,77.9c0,2.1,0,4.2,0.1,6.3c0,0.5-0.2,0.8-0.7,0.8c-0.3,0-0.6,0-0.9,0c-17.3,0-34.7,0-52,0
		c-0.4,0-0.8,0-1.1,0c0.1-0.1,0.1-0.3,0.2-0.3c2.1-2.3,4.3-4.6,6.4-6.9c0.4,0.1,0.8,0.2,1.1,0.2c15.3,0,30.6,0,46,0
		C180.8,77.9,181.1,77.9,181.5,77.9z"/>
	<path class="st15" d="M79.5,138.9c-0.4-0.1-0.8-0.2-1.2-0.2c-5,0-9.9,0-14.9,0c-7.7,0-15.4,0-23.1,0c-0.4,0-0.8,0-1.4,0
		c0,2.3,0,4.4,0,6.6c0,2.2,0,4.3,0,6.5c0,2.2,0,4.4,0,6.6c0,2.2,0,4.3,0,6.5c0,2.2,0,4.4,0,6.6c0,2.2,0,4.3,0,6.5
		c-0.9,0.1-1.8,0.1-2.6,0.2c-0.1,0-0.3,0.1-0.4,0.1c-0.2-0.1-0.4-0.1-0.6-0.2c0-14.4,0-28.7,0-43.1c0.5,0,0.9,0,1.3,0
		c15.2,0,30.4,0,45.6,0c0.3,0,0.7,0,1,0c-0.5,0.5-0.9,1-1.4,1.5C81,137.3,80.2,138.1,79.5,138.9z"/>
	<path class="st16" d="M35.8,178.2c0.1,0,0.3-0.1,0.4-0.1c1.2,0,2.4,0.1,3.6,0.1c18.6,0,37.2,0,55.8,0c0.4,0,0.7,0,1.2,0
		c0-0.4,0-0.7,0-1.1c0-12.5,0-25,0-37.5c0-0.3-0.1-0.6-0.1-0.9c0-1.1,0-2.2,0-3.2c0-0.2-0.2-0.3-0.3-0.5c0.8-0.6,1.6-1.3,2.4-1.9
		c0.4-0.3,0.9-0.6,1.3-0.9c0,0.3,0.1,0.7,0.1,1c0,15.6,0,31.2,0,46.8c0,0.2,0,0.5,0,0.7c-19.4,0-38.8,0-58.2,0c-0.2,0-0.4,0-0.6,0
		c-2.7,0-5.5,0.1-8.2,0.1c-0.3,0-0.5,0-0.5-0.4C33.8,179.7,34.8,179,35.8,178.2z"/>
	<path class="st17" d="M35.8,178.2c-1,0.8-2,1.5-3.1,2.3c-0.2,0.1-0.4,0.2-0.6,0.4c0-0.4-0.1-0.8-0.1-1.1c0-15.5,0-30.9,0-46.4
		c0-0.4,0-0.7,0-1.2c0.4,0,0.7-0.1,0.9-0.1c17.3,0,34.6,0,51.9,0c0.3,0,0.5,0.1,0.8,0.1c-0.9,0.9-1.7,1.9-2.6,2.8c-0.3,0-0.7,0-1,0
		c-15.2,0-30.4,0-45.6,0c-0.4,0-0.8,0-1.3,0c0,14.4,0,28.7,0,43.1C35.5,178.1,35.6,178.2,35.8,178.2z"/>
	<path class="st18" d="M181.5,77.9c-0.3,0-0.7,0.1-1,0.1c-15.3,0-30.6,0-46,0c-0.4,0-0.8-0.2-1.1-0.2c0.7-0.8,1.4-1.5,2.1-2.3
		c0.7,0,1.4,0,2.1,0c13,0,26.1,0,39.1,0c0.4,0,0.8,0,1.3,0c0-0.3,0.1-0.5,0.1-0.7c0-12.8,0-25.6,0-38.4c0-0.2,0-0.3-0.1-0.5
		c0-1.2-0.1-2.4-0.1-3.6c0.1-0.1,0.1-0.3,0.2-0.3c1.1-0.8,2.2-1.5,3.3-2.3c0,0,0.1,0.1,0.1,0.1c0,0.3,0,0.6,0,0.9
		c0,15.5,0,31,0,46.4C181.5,77.3,181.5,77.6,181.5,77.9z"/>
	<path class="st19" d="M25.3,194.2c-4.8,0-9.6,0-14.4,0c3.9-4.1,7.8-8.1,11.6-12.2c0.8-0.8,1.5-1.1,2.7-0.8c0,0.3,0,0.7,0,1.1
		c0,3.6,0,7.3,0,10.9C25.2,193.5,25.3,193.9,25.3,194.2z"/>
	<path class="st19" d="M92,91.5c0.2-0.2,0.5-0.5,0.7-0.7c3.7-3.9,7.4-7.7,11-11.7c0.8-0.8,1.6-1,2.6-0.8c0,2.2,0,4.5,0,6.7
		c-2,1.5-4,3-6,4.5c-1,0.7-1.9,1.4-2.9,2.1c-0.3-0.1-0.6-0.2-0.9-0.3C95,91.5,93.5,91.5,92,91.5z"/>
	<path class="st20" d="M125,181.1c-0.2,0.4-0.4,0.8-0.7,1.1c-2.4,2.5-4.9,5.1-7.3,7.6c-0.6,0.7-1.3,1.3-1.9,2c-0.1,0-0.3,0-0.4,0.1
		c-0.6,0.6-1.2,1.2-1.8,1.8c-0.1,0.2-0.2,0.4-0.3,0.6c-1.8,0-3.6,0-5.4,0c0.2-0.2,0.4-0.5,0.6-0.7c4-4,8-7.9,11.9-11.9
		c0.4-0.4,0.8-0.6,1.4-0.6C122.4,181.1,123.7,181.1,125,181.1z"/>
	<path class="st20" d="M206.3,78.4c-0.4,0.5-0.7,0.9-1.1,1.4c-2.4,2.5-4.8,5-7.2,7.5c-0.4,0.5-0.9,0.9-1.3,1.4c-0.1,0-0.3,0-0.4,0.1
		c-0.7,0.7-1.5,1.4-2.2,2.2c-0.2,0.2-0.2,0.4-0.3,0.6c-1.9,0-3.7,0-5.6,0c0.3-0.3,0.7-0.6,1-0.9c3.9-3.9,7.8-7.8,11.7-11.7
		c0.5-0.5,1-0.7,1.6-0.7C203.7,78.3,205,78.3,206.3,78.4z"/>
	<path class="st20" d="M17.3,211.5c0,1.6,0,3.3-0.1,4.9c-2.1,0-4.2,0-6.2,0c0-1.6,0-3.3,0-4.9c0.3-0.1,0.6-0.2,0.9-0.2
		c1.5,0,3.1,0,4.6,0C16.7,211.3,17,211.5,17.3,211.5z"/>
	<path class="st4" d="M11,216.4c2.1,0,4.2,0,6.2,0c0.5,0,1,0,1.5,0c33.5,0,67,0,100.4,0c-0.4,0-0.9,0.1-1.3,0.1
		c-33.1,0-66.3,0-99.4,0c-2.2,0-4.4,0-6.6,0C11.6,216.7,11.3,216.5,11,216.4z"/>
	<path class="st21" d="M92.1,110.7c0.2-0.5,0.6-0.2,0.9-0.2c3.5,0,7,0,10.5,0c0.7,0,1.5,0,2.3,0.1c-0.8,1-1.6,2-2.5,2.8
		c-0.1,0.1-0.4,0.2-0.6,0.2c-1.4,0-2.9,0-4.3-0.1c0-0.9,0-1.8,0-2.8C96.2,110.7,94.2,110.7,92.1,110.7z"/>
	<path class="st12" d="M92.1,110.7c2,0,4.1,0,6.3,0c0,1,0,1.9,0,2.8c-2.1,0-4.1,0-6.3,0C92.1,112.6,92.1,111.6,92.1,110.7z"/>
	<path class="st11" d="M92,91.5c1.5,0,3,0,4.5,0c0.3,0,0.6,0.2,0.9,0.3c-1.8,1.4-3.6,2.7-5.6,4.2c0-1.6,0-3,0-4.4
		C91.9,91.6,91.9,91.5,92,91.5z"/>
	<path class="st15" d="M96.6,134.9c0.1,0.2,0.3,0.3,0.3,0.5c0,1.1,0,2.2,0,3.2c-1.7,0-3.5,0-5.2,0C93.2,137.4,94.9,136.1,96.6,134.9
		z"/>
	<path class="st11" d="M116.9,75.5c0.7,0,1.5,0,2.2,0c-1.1,0.8-2.2,1.7-3.3,2.5c-0.7-0.1-1.4,0.2-2-0.2
		C114.9,77,115.9,76.2,116.9,75.5z"/>
	<path class="st19" d="M113.9,77.8c0.6,0.4,1.3,0.1,2,0.2c-0.9,0.7-1.8,1.3-2.7,2c0-0.7,0-1.3,0-2C113.4,77.9,113.6,77.8,113.9,77.8
		z"/>
	<path class="st4" d="M17.3,211.5c-0.3-0.1-0.6-0.2-0.9-0.2c-1.5,0-3.1,0-4.6,0c-0.3,0-0.6,0.1-0.9,0.2c-0.1-0.1-0.2-0.3-0.2-0.4
		c2.2,0,4.4,0,6.5,0.1c0,0.1,0,0.1,0,0.2C17.3,211.4,17.3,211.5,17.3,211.5z"/>
	<path class="st21" d="M79.3,143.7c0.1,0,0.1,0.1,0.2,0.1c-0.2,0.2-0.4,0.3-0.6,0.5c0,0-0.1-0.1-0.1-0.1
		C79,144.1,79.2,143.9,79.3,143.7z"/>
	<path class="st22" d="M32.1,180.8c0.2-0.1,0.4-0.2,0.6-0.4c0,0.3,0.3,0.4,0.5,0.4c2.7,0,5.5-0.1,8.2-0.1c0.2,0,0.4,0,0.6,0
		c19.4,0,38.8,0,58.2,0c0,2.3,0,4.5,0,6.9c-0.5,0-0.9,0-1.3,0c-8.2,0-16.4,0-24.6,0c-13.4,0-26.9,0-40.3,0c-0.5,0-1,0-1.5,0
		c-0.5,0-0.5-0.4-0.5-0.7C32.1,184.9,32.1,182.9,32.1,180.8z"/>
	<path class="st14" d="M181.5,29.6c-0.1,0-0.1,0-0.1-0.1c-0.4-0.1-0.8-0.2-1.3-0.2c-21.9,0-43.8,0-65.7,0c-0.4,0-0.8,0-1.1,0
		c0.1-0.1,0.3-0.2,0.4-0.2c0.3,0,0.6,0,0.9,0c21.8,0,43.6,0,65.4,0c0.5,0,1,0,1.5,0C181.5,29.3,181.5,29.4,181.5,29.6z"/>
	<path class="st12" d="M17.3,211.4c0-0.1,0-0.1,0-0.2c0.1-0.4,0.2-0.7,0.2-1.1c0-2.5,0-4.9,0-7.4c0-0.4,0-0.7,0-1.3
		c0.5,0,0.9,0,1.3,0c11.1,0,22.3,0,33.4,0c19.7,0,39.4,0,59,0c0.4,0,0.9,0,1.3,0c0,3.2,0,6.5,0,9.9c-2.1,0-4.2,0-6.3,0
		c0-1.7,0-3.4,0-5c-0.2-0.6-0.8-0.3-1.1-0.3c-10.3,0-20.6,0-30.9,0c-0.3,0-0.6,0-0.8,0c-0.1,0-0.2,0.2-0.4,0.3c0,1.7,0,3.4,0,5.1
		c-18.3,0-36.5,0-54.8,0C18,211.3,17.6,211.3,17.3,211.4z"/>
	<path class="st19" d="M112.6,194.2c0.1-0.2,0.2-0.4,0.3-0.6c0.6-0.6,1.2-1.2,1.8-1.8c0.1-0.1,0.3,0,0.4-0.1
		C114.3,192.6,113.4,193.4,112.6,194.2z"/>
	<path class="st23" d="M73.1,211.3c0-1.7,0-3.4,0-5.1c0.4,0,0.7-0.1,1.1-0.1c10.3,0,20.7,0,31,0c0.4,0,0.7,0.1,1.1,0.1
		c0,1.7,0,3.4,0,5C95.3,211.3,84.2,211.3,73.1,211.3z"/>
	<path class="st24" d="M154.3,108.4c0-1.7,0-3.3,0-5.1c11.1,0,22.1,0,33.2,0c0,1.7,0,3.4,0,5.1c-0.3,0.1-0.7,0.2-1,0.2
		c-10.4,0-20.9,0-31.3,0C154.9,108.6,154.6,108.5,154.3,108.4z"/>
	<path class="st19" d="M193.7,91.5c0.1-0.2,0.2-0.4,0.3-0.6c0.7-0.7,1.4-1.5,2.2-2.2c0.1-0.1,0.3-0.1,0.4-0.1
		C195.6,89.6,194.7,90.5,193.7,91.5z"/>
	<path class="st17" d="M113.2,29.4c0.4,0,0.8,0,1.1,0c21.9,0,43.8,0,65.7,0c0.4,0,0.8,0.1,1.3,0.2c-1.1,0.8-2.2,1.5-3.3,2.3
		c-0.1,0.1-0.1,0.2-0.2,0.3c-20.5,0-40.9,0-61.5,0c0,0.4-0.1,0.7-0.1,1c0,13.7,0,27.5,0,41.2c0,0.5-0.1,1,0.6,1.1
		c-1,0.8-2,1.5-3.1,2.3c-0.2,0.1-0.4,0.1-0.6,0.2c0-0.3,0-0.5,0-0.8c0-15.6,0-31.2,0-46.8C113.2,30,113.2,29.7,113.2,29.4z"/>
	<path class="st8" d="M106.4,206.3c-0.4,0-0.7-0.1-1.1-0.1c-10.3,0-20.7,0-31,0c-0.4,0-0.7,0.1-1.1,0.1c0.1-0.1,0.2-0.2,0.4-0.3
		c0.3,0,0.5,0,0.8,0c10.3,0,20.6,0,30.9,0C105.6,206,106.1,205.6,106.4,206.3z"/>
</g>
<g>
	<path class="st4" d="M267.7,75.8c4.2-0.9,10.7-1.5,17.4-1.5c9.5,0,15.6,1.6,20.2,5.4c3.8,2.8,6.1,7.2,6.1,13
		c0,7.1-4.7,13.3-12.5,16.2v0.2c7,1.7,15.2,7.5,15.2,18.5c0,6.3-2.5,11.1-6.2,14.7c-5.1,4.7-13.4,6.9-25.4,6.9
		c-6.6,0-11.6-0.4-14.7-0.9V75.8z M277.2,105.9h8.6c10,0,15.9-5.2,15.9-12.3c0-8.6-6.6-12-16.2-12c-4.4,0-6.9,0.3-8.4,0.7V105.9z
		 M277.2,141.2c1.9,0.3,4.6,0.4,8,0.4c9.8,0,18.9-3.6,18.9-14.3c0-10-8.6-14.2-19-14.2h-7.9V141.2z"/>
	<path class="st4" d="M382.9,145.1c-4.3,1.5-12.7,4-22.6,4c-11.1,0-20.3-2.8-27.5-9.7c-6.3-6.1-10.3-15.9-10.3-27.4
		c0.1-22,15.2-38,39.9-38c8.5,0,15.2,1.9,18.3,3.4l-2.3,7.8c-3.9-1.7-8.8-3.2-16.3-3.2c-17.9,0-29.6,11.1-29.6,29.6
		c0,18.7,11.2,29.7,28.4,29.7c6.2,0,10.5-0.9,12.7-2v-22h-15v-7.6h24.2V145.1z"/>
	<path class="st4" d="M420.6,75.8c4.8-1,11.7-1.5,18.2-1.5c10.2,0,16.7,1.9,21.3,6c3.7,3.3,5.8,8.3,5.8,14c0,9.7-6.1,16.2-13.9,18.8
		v0.3c5.7,2,9.1,7.2,10.8,14.9c2.4,10.3,4.2,17.4,5.7,20.2h-9.8c-1.2-2.1-2.8-8.4-4.9-17.6c-2.2-10.2-6.1-14-14.7-14.3h-9v31.9h-9.5
		V75.8z M430.1,109.3h9.7c10.2,0,16.6-5.6,16.6-14c0-9.5-6.9-13.7-16.9-13.8c-4.6,0-7.9,0.4-9.4,0.9V109.3z"/>
	<path class="st4" d="M484.8,123.7c0.2,13,8.5,18.3,18.1,18.3c6.9,0,11-1.2,14.6-2.7l1.6,6.9c-3.4,1.5-9.2,3.3-17.6,3.3
		c-16.3,0-26-10.7-26-26.7c0-15.9,9.4-28.5,24.8-28.5c17.3,0,21.8,15.2,21.8,24.9c0,2-0.2,3.5-0.3,4.5H484.8z M513,116.8
		c0.1-6.1-2.5-15.6-13.3-15.6c-9.7,0-14,9-14.7,15.6H513z"/>
	<path class="st4" d="M534.2,109.8c0-5.5-0.1-9.9-0.4-14.3h8.4l0.4,8.5h0.3c2.9-5,7.9-9.7,16.6-9.7c7.2,0,12.7,4.4,15,10.6h0.2
		c1.6-2.9,3.7-5.2,5.9-6.9c3.2-2.4,6.7-3.7,11.7-3.7c7,0,17.4,4.6,17.4,22.9v31.1h-9.4v-29.9c0-10.2-3.7-16.3-11.5-16.3
		c-5.5,0-9.7,4-11.4,8.7c-0.4,1.3-0.8,3.1-0.8,4.8v32.7h-9.4v-31.7c0-8.4-3.7-14.5-11-14.5c-6,0-10.4,4.8-11.9,9.6
		c-0.5,1.4-0.8,3.1-0.8,4.7v31.9h-9.4V109.8z"/>
	<path class="st4" d="M673.1,121.5c0,19.6-13.5,28.1-26.3,28.1c-14.3,0-25.3-10.5-25.3-27.2c0-17.7,11.6-28.1,26.2-28.1
		C662.8,94.3,673.1,105.4,673.1,121.5z M631.1,122.1c0,11.6,6.7,20.3,16.1,20.3c9.2,0,16.1-8.6,16.1-20.5c0-9-4.5-20.3-15.8-20.3
		S631.1,112,631.1,122.1z"/>
	<path class="st4" d="M688.1,95.5l10.4,29.7c1.7,4.8,3.2,9.2,4.3,13.5h0.3c1.2-4.4,2.7-8.7,4.5-13.5l10.3-29.7h10l-20.8,52.9H698
		l-20.1-52.9H688.1z"/>
	<path class="st4" d="M741.2,123.7c0.2,13,8.5,18.3,18.1,18.3c6.9,0,11-1.2,14.6-2.7l1.6,6.9c-3.4,1.5-9.2,3.3-17.6,3.3
		c-16.3,0-26-10.7-26-26.7c0-15.9,9.4-28.5,24.8-28.5c17.3,0,21.8,15.2,21.8,24.9c0,2-0.2,3.5-0.3,4.5H741.2z M769.4,116.8
		c0.1-6.1-2.5-15.6-13.3-15.6c-9.7,0-14,9-14.7,15.6H769.4z"/>
	<path class="st4" d="M790.6,112c0-6.2-0.1-11.6-0.4-16.5h8.4l0.3,10.4h0.4c2.4-7.1,8.2-11.6,14.6-11.6c1.1,0,1.9,0.1,2.7,0.3v9.1
		c-1-0.2-2-0.3-3.3-0.3c-6.8,0-11.6,5.1-12.9,12.3c-0.2,1.3-0.4,2.8-0.4,4.5v28.2h-9.5V112z"/>
</g>
</svg>
