<?xml version="1.0" encoding="utf-8"?>
<!-- Generator: Adobe Illustrator 26.1.0, SVG Export Plug-In . SVG Version: 6.00 Build 0)  -->
<svg version="1.1" id="Layer_1" xmlns="http://www.w3.org/2000/svg" xmlns:xlink="http://www.w3.org/1999/xlink" x="0px" y="0px"
	 viewBox="0 0 836.7 227.6" style="enable-background:new 0 0 836.7 227.6;" xml:space="preserve">
<style type="text/css">
	.st0{fill:#1A9BA1;}
	.st1{fill:#37C6D0;}
	.st2{fill:#ABD7D9;}
	.st3{fill:#A3D7D9;}
	.st4{fill:#036C70;}
	.st5{fill:#036165;}
	.st6{fill:#178B91;}
	.st7{fill:#037B80;}
	.st8{fill:#027276;}
	.st9{fill:#048186;}
	.st10{fill:#278E96;}
	.st11{fill:#2C9EA6;}
	.st12{fill:#195B60;}
	.st13{fill:#31B2BB;}
	.st14{fill:#04888C;}
	.st15{fill:#023E41;}
	.st16{fill:#0E595D;}
	.st17{fill:#FDFEFE;}
	.st18{fill:#1F7278;}
</style>
<g>
	<path class="st0" d="M267.7,75.8c4.2-0.9,10.7-1.5,17.4-1.5c9.5,0,15.6,1.6,20.2,5.4c3.8,2.8,6.1,7.2,6.1,13
		c0,7.1-4.7,13.3-12.5,16.2v0.2c7,1.7,15.2,7.5,15.2,18.5c0,6.3-2.5,11.1-6.2,14.7c-5.1,4.7-13.4,6.9-25.4,6.9
		c-6.6,0-11.6-0.4-14.7-0.9V75.8H267.7z M277.2,105.9h8.6c10,0,15.9-5.2,15.9-12.3c0-8.6-6.6-12-16.2-12c-4.4,0-6.9,0.3-8.4,0.7
		v23.6H277.2z M277.2,141.2c1.9,0.3,4.6,0.4,8,0.4c9.8,0,18.9-3.6,18.9-14.3c0-10-8.6-14.2-19-14.2h-7.9V141.2z"/>
	<path class="st0" d="M382.9,145.1c-4.3,1.5-12.7,4-22.6,4c-11.1,0-20.3-2.8-27.5-9.7c-6.3-6.1-10.3-15.9-10.3-27.4
		c0.1-22,15.2-38,39.9-38c8.5,0,15.2,1.9,18.3,3.4l-2.3,7.8c-3.9-1.7-8.8-3.2-16.3-3.2c-17.9,0-29.6,11.1-29.6,29.6
		c0,18.7,11.2,29.7,28.4,29.7c6.2,0,10.5-0.9,12.7-2v-22h-15v-7.6h24.2L382.9,145.1L382.9,145.1z"/>
	<path class="st0" d="M420.6,75.8c4.8-1,11.7-1.5,18.2-1.5c10.2,0,16.7,1.9,21.3,6c3.7,3.3,5.8,8.3,5.8,14c0,9.7-6.1,16.2-13.9,18.8
		v0.3c5.7,2,9.1,7.2,10.8,14.9c2.4,10.3,4.2,17.4,5.7,20.2h-9.8c-1.2-2.1-2.8-8.4-4.9-17.6c-2.2-10.2-6.1-14-14.7-14.3h-9v31.9h-9.5
		V75.8z M430.1,109.3h9.7c10.2,0,16.6-5.6,16.6-14c0-9.5-6.9-13.7-16.9-13.8c-4.6,0-7.9,0.4-9.4,0.9L430.1,109.3L430.1,109.3z"/>
	<path class="st0" d="M484.8,123.7c0.2,13,8.5,18.3,18.1,18.3c6.9,0,11-1.2,14.6-2.7l1.6,6.9c-3.4,1.5-9.2,3.3-17.6,3.3
		c-16.3,0-26-10.7-26-26.7c0-15.9,9.4-28.5,24.8-28.5c17.3,0,21.8,15.2,21.8,24.9c0,2-0.2,3.5-0.3,4.5
		C521.8,123.7,484.8,123.7,484.8,123.7z M513,116.8c0.1-6.1-2.5-15.6-13.3-15.6c-9.7,0-14,9-14.7,15.6H513z"/>
	<path class="st0" d="M534.2,109.8c0-5.5-0.1-9.9-0.4-14.3h8.4l0.4,8.5h0.3c2.9-5,7.9-9.7,16.6-9.7c7.2,0,12.7,4.4,15,10.6h0.2
		c1.6-2.9,3.7-5.2,5.9-6.9c3.2-2.4,6.7-3.7,11.7-3.7c7,0,17.4,4.6,17.4,22.9v31.1h-9.4v-29.9c0-10.2-3.7-16.3-11.5-16.3
		c-5.5,0-9.7,4-11.4,8.7c-0.4,1.3-0.8,3.1-0.8,4.8v32.7h-9.4v-31.7c0-8.4-3.7-14.5-11-14.5c-6,0-10.4,4.8-11.9,9.6
		c-0.5,1.4-0.8,3.1-0.8,4.7v31.9h-9.4v-38.5H534.2z"/>
	<path class="st0" d="M673.1,121.5c0,19.6-13.5,28.1-26.3,28.1c-14.3,0-25.3-10.5-25.3-27.2c0-17.7,11.6-28.1,26.2-28.1
		C662.8,94.3,673.1,105.4,673.1,121.5z M631.1,122.1c0,11.6,6.7,20.3,16.1,20.3c9.2,0,16.1-8.6,16.1-20.5c0-9-4.5-20.3-15.8-20.3
		S631.1,112,631.1,122.1z"/>
	<path class="st0" d="M688.1,95.5l10.4,29.7c1.7,4.8,3.2,9.2,4.3,13.5h0.3c1.2-4.4,2.7-8.7,4.5-13.5l10.3-29.7h10l-20.8,52.9H698
		l-20.1-52.9C677.9,95.5,688.1,95.5,688.1,95.5z"/>
	<path class="st0" d="M741.2,123.7c0.2,13,8.5,18.3,18.1,18.3c6.9,0,11-1.2,14.6-2.7l1.6,6.9c-3.4,1.5-9.2,3.3-17.6,3.3
		c-16.3,0-26-10.7-26-26.7c0-15.9,9.4-28.5,24.8-28.5c17.3,0,21.8,15.2,21.8,24.9c0,2-0.2,3.5-0.3,4.5
		C778.2,123.7,741.2,123.7,741.2,123.7z M769.4,116.8c0.1-6.1-2.5-15.6-13.3-15.6c-9.7,0-14,9-14.7,15.6H769.4z"/>
	<path class="st0" d="M790.6,112c0-6.2-0.1-11.6-0.4-16.5h8.4l0.3,10.4h0.4c2.4-7.1,8.2-11.6,14.6-11.6c1.1,0,1.9,0.1,2.7,0.3v9.1
		c-1-0.2-2-0.3-3.3-0.3c-6.8,0-11.6,5.1-12.9,12.3c-0.2,1.3-0.4,2.8-0.4,4.5v28.2h-9.5V112H790.6z"/>
</g>
<g>
	<path class="st0" d="M229.7,120.3c0,2.7,0,5.4,0,8.2c-0.1,0.3-0.1,0.6-0.2,0.9c-0.2,1.5-0.2,3-0.5,4.4
		c-2.7,14.2-9.7,25.9-21.2,34.7c-7.7,5.9-16.3,9.6-25.9,10.9c-2.7,0.4-5.5,0.4-8.2,0.6c-0.1-2.6,0.2-5.1-0.2-7.7
		c-0.2-1.5-0.4-3-0.8-4.5c-1-4.5-2.7-8.7-5.1-12.6c-1.7-2.8-3.6-5.4-5.9-7.8c-0.9-0.9-1.9-1.8-2.9-2.7c-2.6-2.3-5.4-4.2-8.5-5.8
		c-2.7-1.4-5.4-2.5-8.3-3.3c-3-0.8-6-1.3-9.1-1.5c0-4.9,0-9.8,0-14.7c0-11.3,0-22.5,0-33.8c0-0.1,0-0.1,0-0.2c0.7-0.6,1.4-1.3,2-1.9
		c2.9-2.9,6.2-5.4,9.7-7.5c2.5-1.5,5-2.8,7.7-3.9c3.5-1.4,7.1-2.6,10.8-3.2c2.3-0.4,4.7-0.8,7-0.9c3-0.1,6.1-0.3,9.1,0.2
		c1.6,0.2,3.2,0.4,4.8,0.6c0.9,0.2,1.7,0.3,2.6,0.5c18.6,4.4,33.4,17.5,39.9,35.4c1.6,4.4,2.7,8.9,3,13.6
		C229.6,119,229.6,119.7,229.7,120.3z"/>
	<path class="st1" d="M127,220.8c-0.8-0.1-1.6-0.3-2.4-0.4c-15.4-2.4-26.5-10.7-33.4-24.7c-1.7-3.4-2.8-7-3.4-10.7
		c10.5,0,21,0,31.6,0c0.2,0,0.5,0,0.7,0c3.2-0.7,5.6-2.4,6.9-5.4c0.1-0.1,0.2-0.3,0.2-0.4c1.5-0.5,2.6-1.5,3.6-2.7
		c1.4-1.6,2-3.5,2-5.5c0-12.2,0-24.5,0-36.7l0,0c3.1,0.1,6.1,0.7,9.1,1.5c2.9,0.8,5.7,1.9,8.3,3.3c3.1,1.6,5.9,3.5,8.5,5.8
		c1,0.9,2,1.8,2.9,2.7c2.3,2.3,4.2,5,5.9,7.8c2.4,3.9,4.1,8.1,5.1,12.6c0.3,1.5,0.5,3,0.8,4.5c0.4,2.6,0.1,5.1,0.2,7.7
		c-0.2,2-0.4,4-0.7,5.9c-1.9,9.5-6.5,17.6-13.9,24c-6.5,5.7-14.1,9.2-22.7,10.4c-0.8,0.1-1.6,0.3-2.4,0.4
		C131.6,220.8,129.3,220.8,127,220.8z"/>
	<path class="st2" d="M10.4,66.2c0.1,0,0.2,0,0.3,0c0,0.6,0,1.1,0,1.7c0,26,0,51.9,0,77.9c0,0.4,0,0.8,0.1,1.1
		c0,0.1-0.1,0.3-0.1,0.4c0,4.7,0,9.5,0,14.2c-0.1,0-0.2,0-0.3,0C10.4,129.7,10.4,97.9,10.4,66.2z"/>
	<path class="st3" d="M229.5,118.4c0.1,0,0.1,0,0.2,0c0,0.6,0,1.3,0,1.9C229.6,119.7,229.6,119,229.5,118.4z"/>
	<path class="st4" d="M120.1,6.8c1.7,0,3.5,0,5.2,0c6.4,0.4,12.5,1.5,18.5,3.7c19.8,7.3,34.5,24.3,38.8,45c0.9,4.4,1.3,8.9,1.3,13.4
		c-1.6-0.2-3.2-0.4-4.8-0.6c-3-0.4-6.1-0.3-9.1-0.2c-2.3,0.1-4.7,0.5-7,0.9c-3.7,0.7-7.3,1.8-10.8,3.2c-2.7,1.1-5.2,2.4-7.7,3.9
		c-3.5,2.1-6.8,4.6-9.7,7.5c-0.7,0.7-1.3,1.3-2,1.9c0-7.9,0-15.9,0-23.8c0-1.8-0.5-3.4-1.5-4.9c-1.9-2.8-4.7-4.3-8.1-4.3
		c-19.4,0-38.8,0-58.2,0c-0.5,0-1,0-1.5,0c0.5-2.6,1.5-5.2,2.5-7.6C73.7,26.4,89.4,13,108.9,8.3C112.6,7.5,116.4,7,120.1,6.8z"/>
	<path class="st5" d="M63.7,52.5c0.5,0,1,0,1.5,0c19.4,0,38.8,0,58.2,0c3.4,0,6.2,1.4,8.1,4.3c1,1.5,1.5,3.1,1.5,4.9
		c0,7.9,0,15.9,0,23.8c0,0.1,0,0.1,0,0.2c-1.7,1.4-2.9,3.2-4.2,4.9c-0.2,0.3-0.5,0.5-0.8,0.8c0-0.4,0-0.8,0-1.3c0-7.8,0-15.5,0-23.3
		c0-0.7-0.1-1.3-0.2-2c-0.6-2.4-1.9-4.3-3.9-5.7c-2.5-1.7-5.2-1.7-8-1.4c-0.1,0-0.1,0.1-0.2,0.1c-1.2-0.1-2.5-0.2-3.7-0.2
		c-15.9,0-31.9,0-47.8,0c-0.5,0-1,0-1.6,0c0.4-1.6,0.7-3.2,1.1-4.8C63.5,52.8,63.6,52.7,63.7,52.5z"/>
	<path class="st6" d="M127.9,91.5c0.3-0.3,0.5-0.5,0.8-0.8c1.3-1.7,2.5-3.5,4.2-4.9c0,11.3,0,22.5,0,33.8c0,4.9,0,9.8,0,14.7
		c0,0,0,0,0,0c-1.7,0-3.3,0-5,0c0-0.4,0-0.8,0-1.1c0-13.2,0-26.4,0-39.5c0-0.5,0-0.9,0-1.4C127.9,92,127.9,91.7,127.9,91.5z"/>
	<path class="st7" d="M57.7,169.8c-0.3,0-0.6,0-0.9,0c-12.1,0-24.2,0-36.3,0c-2.3,0-4.3-0.6-6.1-2c-0.2-0.1-0.3-0.3-0.5-0.5
		c0.2-0.3,0.4-0.6,0.7-0.8c1.8-1.1,3.6-2.1,5.4-3.1c2.1-1.2,4.3-2.5,6.4-3.7c2-1.2,4.1-2.3,6.1-3.5c2-1.2,4.1-2.4,6.1-3.5
		c2.4-1.4,4.9-2.8,7.3-4.2c1.7-1,3.4-2,5.1-3c0.2-0.1,0.3-0.4,0.5-0.6c3.8,0.8,7.7,1.3,11.6,1.5c5.1,0.2,10.2-0.2,15-1.8
		c5.1-1.7,8.9-4.8,10.9-9.9c1-2.5,1.1-5.1,1-7.7c-0.2-3.8-1.4-7.2-4.1-10c-0.9-1-2-1.8-3-2.6c0.1-0.7,0.7-0.8,1.1-1.1
		c2-1.2,4-2.3,6-3.4c2.4-1.4,4.7-2.8,7.1-4.2c2.6-1.5,5.1-2.9,7.7-4.4c2.4-1.4,4.7-2.8,7.1-4.2c3.1-1.8,6.1-3.6,9.2-5.3
		c0.6-0.3,1.2-0.8,1.9-0.7c0,0.4,0,0.8,0,1.1c0,2.7,0,5.4,0,8.1c0,10.6,0,21.2,0,31.8c-0.6,0.3-1.3,0.5-1.9,0.8
		c-1.6,0.9-3.2,1.9-4.9,2.8c-2,1.2-4.1,2.4-6.1,3.5c-2.4,1.4-4.9,2.8-7.3,4.2c-2,1.1-4,2.3-6,3.4c-2,1.2-4.1,2.4-6.1,3.6
		c-2.4,1.4-4.9,2.8-7.3,4.2c-2,1.2-4.1,2.4-6.1,3.5c-2,1.2-4.1,2.3-6.1,3.5c-2.5,1.4-5,2.9-7.5,4.3c-1.8,1-3.6,2-5.3,3.1
		C58,169.2,57.8,169.5,57.7,169.8z"/>
	<path class="st8" d="M57.7,169.8c0.2-0.3,0.3-0.6,0.6-0.8c1.8-1.1,3.5-2.1,5.3-3.1c2.5-1.4,5-2.9,7.5-4.3c2-1.2,4.1-2.3,6.1-3.5
		c2-1.2,4.1-2.4,6.1-3.5c2.4-1.4,4.9-2.8,7.3-4.2c2-1.2,4.1-2.4,6.1-3.6c2-1.1,4-2.3,6-3.4c2.4-1.4,4.9-2.8,7.3-4.2
		c2-1.2,4.1-2.4,6.1-3.5c1.6-0.9,3.2-1.9,4.9-2.8c0.6-0.3,1.3-0.5,1.9-0.8c0,1,0,1.9,0,2.9c0,9,0,18,0,27c-0.1,0.2-0.2,0.3-0.2,0.5
		c-0.5,1.9-1.4,3.7-2.9,5.1c-1.7,1.5-3.6,2.4-5.9,2.4c-6.3,0-12.7,0-19,0c-2.4,0-4.7,0-7.1,0c-9.9,0-19.8,0-29.6,0
		C57.9,169.9,57.8,169.8,57.7,169.8z"/>
	<path class="st9" d="M51.4,144.8c-0.2,0.2-0.3,0.5-0.5,0.6c-1.7,1-3.4,2-5.1,3c-2.4,1.4-4.9,2.8-7.3,4.2c-2,1.2-4.1,2.4-6.1,3.5
		c-2,1.2-4.1,2.3-6.1,3.5c-2.1,1.2-4.3,2.5-6.4,3.7c-1.8,1-3.6,2.1-5.4,3.1c-0.3,0.2-0.5,0.5-0.7,0.8c-1.8-1.5-2.7-3.6-3-5.9
		c0-4.7,0-9.5,0-14.2c0-0.1,0-0.3,0.1-0.4c0.8,0.1,1.3-0.5,1.9-0.8c2.1-1.2,4.2-2.4,6.3-3.6c2.4-1.4,4.8-2.8,7.2-4.2
		c2-1.2,4-2.3,6-3.5c2.1-1.2,4.2-2.4,6.3-3.6c2-1.2,4.1-2.4,6.1-3.5c1.9-1.1,3.8-2.2,5.8-3.3c2-1.2,4.1-2.4,6.1-3.5
		c1.8-1,3.5-2.3,5.6-3c0.2,0.1,0.4,0.1,0.6,0.2c2.2,1,4.5,2,6.7,3c2,0.9,3.9,2,5.5,3.6c3.3,3.1,2.5,8.2-1.6,10.2
		c-2.3,1.1-4.8,1.7-7.4,1.7c-2.9,0-5.8-0.2-8.6-0.9c-4.1-0.9-8-2.3-11.4-4.7c-0.2-0.1-0.4-0.1-0.5-0.2c0,4.1,0,8.1,0,12.3
		C47.4,143.5,49.4,144.2,51.4,144.8z"/>
	<path class="st10" d="M127.3,179.2c-0.1,0.1-0.2,0.3-0.2,0.4c-0.4,0.1-0.8,0.1-1.1,0.2c-0.6,0.1-1.3,0.3-1.9,0.3
		c-12.2,0-24.5,0-36.7,0c0-1.7,0-3.3,0-5c0.1,0,0.1,0,0.2,0c9.4-0.1,18.8,0.2,28.2-0.2c0.3,0.1,0.5,0.2,0.8,0.2
		c1.2,0,2.4-0.1,3.5-0.2c2-0.2,3.7-1.1,5.2-2.5c1-0.9,1.6-2,2.2-3.3c0.2-0.3,0.1-0.9,0.6-1c0,2,0,4.1,0,6.1
		C127.9,175.9,127.8,177.6,127.3,179.2z"/>
	<path class="st11" d="M87.2,180.1c12.2,0,24.5,0,36.7,0c0.6,0,1.3-0.2,1.9-0.3c0.4-0.1,0.8-0.1,1.1-0.2c-1.3,3-3.7,4.7-6.9,5.4
		c-0.2,0-0.5,0-0.7,0c-10.5,0-21,0-31.6,0C87.6,183.4,87.4,181.7,87.2,180.1z"/>
	<path class="st12" d="M115.6,174.9c-9.4,0.4-18.8,0.1-28.2,0.2c0-0.2-0.1-0.4-0.1-0.6c0.1-1.2,0.2-2.3,0.3-3.5c0-0.3,0.1-0.7,0.1-1
		c2.4,0,4.7,0,7.1,0c6.3,0,12.7,0,19,0c2.3,0,4.2-0.9,5.9-2.4c1.5-1.4,2.4-3.1,2.9-5.1c0-0.2,0.1-0.3,0.2-0.5
		c-0.1,1.7,0.1,3.3-0.2,5c-0.5,3.5-2.4,5.8-5.4,7.3C116.7,174.5,116.1,174.6,115.6,174.9z"/>
	<path class="st11" d="M87.3,174.4c0,0.2,0.1,0.4,0.1,0.6c-0.1,0-0.1,0-0.2,0C87.2,174.8,87.3,174.6,87.3,174.4z"/>
	<path class="st13" d="M127.3,179.2c0.6-1.6,0.7-3.3,0.6-5c0-2,0-4.1,0-6.1c0-0.6,0-1.1,0-1.7c0-10.7,0-21.4,0-32.2l0,0
		c1.7,0,3.3,0,5,0c0,12.2,0,24.5,0,36.7c0,2.1-0.7,3.9-2,5.5C129.9,177.8,128.7,178.7,127.3,179.2z"/>
	<path class="st14" d="M62.1,117.7c-2.1,0.6-3.7,2-5.6,3c-2.1,1.1-4.1,2.3-6.1,3.5c-1.9,1.1-3.8,2.2-5.8,3.3c-2,1.2-4.1,2.4-6.1,3.5
		c-2.1,1.2-4.2,2.4-6.3,3.6c-2,1.2-4,2.3-6,3.5c-2.4,1.4-4.8,2.8-7.2,4.2c-2.1,1.2-4.2,2.4-6.3,3.6c-0.6,0.3-1.1,0.9-1.9,0.8
		c0-0.4-0.1-0.8-0.1-1.1c0-26,0-51.9,0-77.9c0-0.6,0-1.1,0-1.7c0.6-4,2.8-6.8,6.7-8c1-0.3,2.1-0.4,3.2-0.4c13.3,0,26.5,0,39.8,0
		c0.7,0,1.4,0,2.1,0c0.5,0,1,0,1.6,0c15.9,0,31.9,0,47.8,0c1.2,0,2.5,0.1,3.7,0.2c0.6,0.2,1.3,0.4,1.9,0.6c3.5,1.8,5.3,4.7,5.4,8.6
		c0.1,7.6,0,15.3,0,22.9c0,0.3,0,0.6,0,0.8c-0.8-0.1-1.3,0.4-1.9,0.7c-3.1,1.8-6.1,3.5-9.2,5.3c-2.4,1.4-4.7,2.8-7.1,4.2
		c-2.6,1.5-5.1,2.9-7.7,4.4c-2.4,1.4-4.7,2.8-7.1,4.2c-2,1.2-4,2.3-6,3.4c-0.4,0.3-1.1,0.4-1.1,1.1c-3-1.9-6.2-3.5-9.5-4.8
		c-3.2-1.3-6.4-2.8-9.6-4.2c-1.4-0.6-2.6-1.6-3.8-2.6c-2.8-2.6-2.2-7.3,1.3-9.2c1.9-1,4-1.7,6.1-2c2.3-0.3,4.6-0.2,6.9,0
		c4.2,0.4,8.3,1.4,12,3.5c0.2,0.1,0.4,0.2,0.6,0.2c0-3.9,0-7.7,0-11.6c-0.4-0.1-0.7-0.2-1-0.3c-3.9-1.1-7.8-1.8-11.8-2
		c-4.6-0.2-9.1,0-13.6,1.2c-3.4,0.9-6.7,2.2-9.5,4.5c-4.9,4.1-6.6,9.3-5.6,15.5c0.8,4.5,3.3,7.8,7.1,10.3c1.9,1.3,4,2.3,6,3.4
		C59.7,116.7,60.9,117.2,62.1,117.7z"/>
	<path class="st15" d="M122.8,91c0-0.3,0-0.6,0-0.8c0-7.6,0.1-15.3,0-22.9c0-3.9-1.9-6.8-5.4-8.6c-0.6-0.3-1.2-0.4-1.9-0.6
		c0.1,0,0.1-0.1,0.2-0.1c2.8-0.2,5.6-0.3,8,1.4c2,1.4,3.3,3.3,3.9,5.7c0.2,0.6,0.2,1.3,0.2,2c0,7.8,0,15.5,0,23.3c0,0.4,0,0.8,0,1.3
		c0,0.3-0.1,0.5-0.1,0.8c-0.2,0.2-0.6,0.4-0.7,0.7c-1.2,2.1-2.4,4.2-3.6,6.2c-0.2,0.4-0.4,0.7-0.6,1.1c0-2.7,0-5.4,0-8.1
		C122.9,91.8,122.8,91.4,122.8,91z"/>
	<path class="st16" d="M122.9,100.2c0.2-0.4,0.4-0.7,0.6-1.1c1.2-2.1,2.4-4.2,3.6-6.2c0.2-0.3,0.5-0.4,0.7-0.7c0,0.5,0,0.9,0,1.4
		c0,13.2,0,26.4,0,39.5c0,0.4,0,0.8,0,1.1c0,0,0,0,0,0c-1.7,0.2-3.3,0.4-5,0.6c0-1,0-1.9,0-2.9C122.9,121.4,122.9,110.8,122.9,100.2
		z"/>
	<path class="st17" d="M62.1,117.7c-1.2-0.5-2.4-1-3.6-1.7c-2-1.1-4.1-2.1-6-3.4c-3.7-2.4-6.3-5.8-7.1-10.3
		c-1-6.2,0.6-11.4,5.6-15.5c2.8-2.3,6-3.6,9.5-4.5c4.5-1.1,9-1.3,13.6-1.2c4,0.1,8,0.8,11.8,2c0.3,0.1,0.7,0.2,1,0.3
		c0,3.8,0,7.7,0,11.6c-0.2-0.1-0.5-0.1-0.6-0.2c-3.7-2.1-7.8-3.1-12-3.5c-2.3-0.2-4.6-0.3-6.9,0c-2.2,0.3-4.2,0.9-6.1,2
		c-3.5,1.9-4.1,6.7-1.3,9.2c1.1,1.1,2.3,2,3.8,2.6c3.2,1.4,6.4,2.8,9.6,4.2c3.3,1.4,6.5,2.9,9.5,4.8c1,0.9,2.1,1.7,3,2.6
		c2.7,2.8,3.9,6.2,4.1,10c0.1,2.6,0,5.2-1,7.7c-2,5.1-5.8,8.2-10.9,9.9c-4.9,1.6-9.9,2-15,1.8c-3.9-0.2-7.8-0.6-11.6-1.5
		c-2-0.7-4-1.3-6-2c0-4.2,0-8.2,0-12.3c0.2,0.1,0.4,0.1,0.5,0.2c3.4,2.5,7.4,3.8,11.4,4.7c2.8,0.6,5.7,0.9,8.6,0.9
		c2.6,0,5-0.6,7.4-1.7c4.1-2,4.9-7.1,1.6-10.2c-1.6-1.5-3.5-2.7-5.5-3.6c-2.2-1-4.5-2-6.7-3C62.5,117.9,62.3,117.8,62.1,117.7z"/>
	<path class="st18" d="M122.9,134.9c1.7-0.2,3.3-0.4,5-0.6c0,10.7,0,21.4,0,32.2c0,0.6,0,1.1,0,1.7c-0.5,0.1-0.5,0.7-0.6,1
		c-0.6,1.2-1.2,2.3-2.2,3.3c-1.5,1.4-3.2,2.3-5.2,2.5c-1.2,0.1-2.3,0.2-3.5,0.2c-0.3,0-0.5-0.1-0.8-0.2c0.6-0.2,1.2-0.4,1.7-0.7
		c3.1-1.5,4.9-3.9,5.4-7.3c0.2-1.7,0.1-3.3,0.2-5C122.9,152.9,122.9,143.9,122.9,134.9z"/>
</g>
</svg>
