<svg enable-background="new 0 0 945 495" viewBox="0 0 945 495" xmlns="http://www.w3.org/2000/svg" xmlns:xlink="http://www.w3.org/1999/xlink"><defs><path id="SVGID_1_" d="M0 0H945V495H0Z"/><clipPath id="SVGID_00000084494461024996277880000010701794918554266240_"><use xlink:href="#SVGID_1_"/></clipPath></defs><path clip-path="url(#SVGID_00000084494461024996277880000010701794918554266240_)" d="M-13.9-4H958.2V494.9H-13.9Z" fill="#e2e2e2"/><path clip-path="url(#SVGID_00000084494461024996277880000010701794918554266240_)" d="M231.3 56h187.6c40.7 0 78.3 21.7 98.7 57l93.8 162.6c20.4 35.2 20.4 78.7 0 113.9l-93.8 162.6c-20.4 35.2-58 57-98.7 57H231.3c-40.7 0-78.3-21.7-98.7-57L38.8 389.6c-20.4-35.2-20.4-78.7 0-113.9L132.6 113C153 77.8 190.6 56 231.3 56z" fill="#ff7059"/><g fill="#dbc5ff"><path clip-path="url(#SVGID_00000084494461024996277880000010701794918554266240_)" d="M177.3 312l-44.6 81.3c-11.9 21.6 3.8 48 28.4 48h91.3l8.4-81.3L177.3 312z"/><path clip-path="url(#SVGID_00000084494461024996277880000010701794918554266240_)" d="M463.9 312l45 81.9c11.7 21.3-3.7 47.4-28.1 47.4h-92l-8.4-81.3L463.9 312z"/><path clip-path="url(#SVGID_00000084494461024996277880000010701794918554266240_)" d="M472.3 351c-.2.2-.3.4-.5.7-13.1 16.3-28.7 30.5-46.3 41.9-.1 0-.1.1-.1.1-1 .7-2.1 1.3-3.2 2 0 0-.1 0-.1.1-1 .6-2 1.2-3 1.8h0c-28.8 17.1-62.4 26.8-98.4 26.8-47.2 0-90.5-16.9-124.1-45.1-.6-.5-1.3-1.1-1.9-1.6-8.6-7.4-16.6-15.6-23.8-24.4-.6-.7-1.2-1.5-1.8-2.3l3.9-23.4c4.3-25.8 20.8-47.9 44.3-59.4l62.2-29.2h82.4l62.1 29.2c23.5 11.5 40 33.6 44.3 59.4L472.3 351z"/></g><path clip-path="url(#SVGID_00000084494461024996277880000010701794918554266240_)" d="M425.4 393.6c-.1 0-.1.1-.1.1-1 .7-2.1 1.3-3.2 2 0 0-.1 0-.1.1-1 .6-2 1.2-3 1.8l.9-4.4c.3-1.3 1.2-2 2.2-2.2 1.4-.3 3 .5 3.3 2.3L425.4 393.6z" fill="#ce8282"/><path clip-path="url(#SVGID_00000084494461024996277880000010701794918554266240_)" d="M421 415.2H223.3L215 489c-2.1 19 12.7 35.7 31.7 35.7h150.8c19 0 33.8-16.7 31.7-35.7L421 415.2z" fill="#dbc5ff"/><g clip-path="url(#SVGID_00000084494461024996277880000010701794918554266240_)" fill="#3d3d3d"><path d="M667.6 457.5H25.2c-4.2 0-7.6-3.4-7.6-7.6v-1c0-4.2 3.4-7.6 7.6-7.6h642.4c4.2 0 7.6 3.4 7.6 7.6v1C675.2 454.1 671.8 457.5 667.6 457.5z"/><path d="M121.5 447.6l-1.2 10-41 350.7H63l41-350.7 1.4-11.8L121.5 447.6z"/><path d="M629.9 808.2h-16.3l-41-350.7-1.2-10 16.1-1.9 1.4 11.8L629.9 808.2z"/></g><path clip-path="url(#SVGID_00000084494461024996277880000010701794918554266240_)" d="M428.8 441.3H212.5c-8.9 0-16.1-7.2-16.1-16.1V299.5c0-8.9 7.2-16.1 16.1-16.1h216.2c8.9 0 16.1 7.2 16.1 16.1v125.8C444.8 434.1 437.7 441.3 428.8 441.3z" fill="#ffffff"/><path clip-path="url(#SVGID_00000084494461024996277880000010701794918554266240_)" d="M320.7 374.9c6.9 0 12.5-5.6 12.5-12.5 0-6.9-5.6-12.5-12.5-12.5-6.9 0-12.5 5.6-12.5 12.5C308.1 369.3 313.7 374.9 320.7 374.9z" fill="#e2e2e2"/><path clip-path="url(#SVGID_00000084494461024996277880000010701794918554266240_)" d="M362.6 253.6c0 2.6-1.7 4.9-4.2 5.7l-4.2 1.4c-21.9 7-45.4 7-67.2 0l-4.2-1.4c-2.5-.8-4.2-3.1-4.2-5.7v-92.6h84L362.6 253.6z" fill="#814f36"/><path clip-path="url(#SVGID_00000084494461024996277880000010701794918554266240_)" d="M285.3 164.8c0-6.3-5.1-11.4-11.4-11.4-6.3 0-11.4 5.1-11.4 11.4 0 6.3 5.1 16.6 11.4 16.6C280.2 181.4 285.3 171.1 285.3 164.8z" fill="#814f36"/><path clip-path="url(#SVGID_00000084494461024996277880000010701794918554266240_)" d="M378.6 164.8c0-6.3-5.1-11.4-11.4-11.4-6.3 0-11.4 5.1-11.4 11.4 0 6.3 5.1 16.6 11.4 16.6C373.5 181.4 378.6 171.1 378.6 164.8z" fill="#814f36"/><path clip-path="url(#SVGID_00000084494461024996277880000010701794918554266240_)" d="M320.6 217.8c-26.5 0-48.3-20.9-49.3-47.4l-1.7-26.8c-1.2-29 22-53.1 51-53.1 29 0 52.2 24.1 51 53.1l-1.7 26.8C368.9 196.9 347.1 217.8 320.6 217.8L320.6 217.8z"/><path clip-path="url(#SVGID_00000084494461024996277880000010701794918554266240_)" d="M320.6 237.4c-26.5 0-48.3-20.9-49.3-47.4l-1.7-26.8c-1.2-29 22-53.1 51-53.1 29 0 52.2 24.1 51 53.1l-1.7 26.8C368.9 216.4 347.1 237.4 320.6 237.4L320.6 237.4z" fill="#814f36"/><path clip-path="url(#SVGID_00000084494461024996277880000010701794918554266240_)" d="M318.5 240.2c-2.1-.6-1.3-2.9.8-2.9.4 0 .8 0 1.2 0h0c17.7 0 33.4-9.4 42.1-23.5v18.2c-8.3 6.3-18.6 10-29.9 10C328.3 242.1 323.2 241.6 318.5 240.2z" fill="#663c2b"/><path clip-path="url(#SVGID_00000084494461024996277880000010701794918554266240_)" d="M371.5 163.6v-22.5h0c0-28.2-22.9-51-51-51s-51.1 22.9-51.1 51v22.4c0 2.2 1.8 4 4 4 2.2 0 4-1.8 4-4 0-1.4.1-2.8.2-4.2 0-4.9 1-7.9 2.2-9.8 1.8-2.9 5.5-2.4 8.8-1.7 18.6 3.9 49.2-6 49.2-22.8 0 17.6 7.5 28.4 20.8 29.4 1.3.1 2.7.2 3.6 1.2.6.7 1.2 1.8 1.2 3.5v4.4c0 2.2 1.8 4 4 4C369.7 167.6 371.5 165.8 371.5 163.6z"/><g clip-path="url(#SVGID_00000084494461024996277880000010701794918554266240_)"><path d="M304.8 187.1c0 4.1-.5 7.5-2.1 7.5-1.6 0-2.1-3.4-2.1-7.5 0-4.1.5-7.5 2.1-7.5C304.3 179.6 304.8 183 304.8 187.1z"/><path d="M341.8 187.1c0 4.1-.5 7.5-2.1 7.5-1.6 0-2.1-3.4-2.1-7.5 0-4.1.5-7.5 2.1-7.5C341.2 179.6 341.8 183 341.8 187.1z"/><path d="M285.3 175.6 285.3 175.6c1.6 0 3 1.3 3 3v10c0 1.6-1.3 3-3 3l0 0c-1.6 0-3-1.3-3-3v-10C282.4 176.9 283.7 175.6 285.3 175.6z" fill="#95d1f9"/><path d="M292.8 170.7c-.7.5-1.2 1.4-1.1 2.3 0 1.6 1.3 2.9 2.9 2.9.3 0 7-.1 13.2-5.3 1.2-1 1.4-2.8.4-4.1-1-1.2-2.8-1.4-4.1-.4-4.5 3.8-9.5 3.9-9.5 3.9C293.9 170.1 293.3 170.4 292.8 170.7z"/><path d="M349.7 170.7c.7.5 1.2 1.4 1.1 2.3 0 1.6-1.3 2.9-2.9 2.9-.3 0-7-.1-13.2-5.3-1.2-1-1.4-2.8-.4-4.1 1-1.2 2.8-1.4 4.1-.4 4.5 3.8 9.5 3.9 9.5 3.9C348.6 170.1 349.2 170.4 349.7 170.7z"/><path d="M341.9 213.4c1 .3 1.9-.2 2.2-1.1.3-.9-.2-1.9-1.1-2.2-.4-.1-.8-.3-1.3-.4-8.1-2.2-17.8 1.6-21.9 8.7-.2.4-.3.9-.2 1.3.1.5.4.8.8 1.1.1.1.3.1.4.2.8.2 1.6-.1 2-.8 3.4-5.8 11.3-8.9 18-7.1C341.2 213.2 341.6 213.3 341.9 213.4L341.9 213.4 341.9 213.4z"/></g><path clip-path="url(#SVGID_00000084494461024996277880000010701794918554266240_)" d="M885.3 327.2H530.1c-19.2 0-34.9-15.7-34.9-34.9V114.7c0-19.2 15.7-34.9 34.9-34.9h355.2c19.2 0 34.9 15.7 34.9 34.9v177.7C920.1 311.6 904.5 327.2 885.3 327.2z" fill="#3d3d3d"/><path clip-path="url(#SVGID_00000084494461024996277880000010701794918554266240_)" d="M920.1 124.2c0 52.3 0 168.2 0 168.2 0 19.2-15.7 34.9-34.9 34.9H530.1c-19.2 0-34.9-15.7-34.9-34.9 0 0 0-124.4 0-170.5"/><path clip-path="url(#SVGID_00000084494461024996277880000010701794918554266240_)" d="M496 265c-7 15.9-36.7 82.7-36.7 82.7-4 8.7 5.1 17.7 13.8 13.5 0 0 63.7-29.4 77-35.6"/><g clip-path="url(#SVGID_00000084494461024996277880000010701794918554266240_)"><path d="M784.7 213.2c-4.1-2.5-11.2.7-11.2.7-.7.3-1.7.2-2.3-.1l-106.9-59.6c-.6-.3-1.2-1.2-1.3-1.9 0 0-1-8.3-5.6-10.4-4.6-2.1-10.1-.5-12.9 3.7-2 3.1-1.1 8.5-1.1 8.5.1.7-.3 1.5-1 1.8 0 0-5.2 2-6.8 5.4-2.2 4.7-.5 10.4 4 13.2 4 2.4 11-.5 11-.5.7-.3 1.7-.2 2.3.1L760 233.7c.6.3 1.2 1.2 1.3 1.9 0 0 1.2 8.1 5.8 10.1 4.6 2 10.1.4 12.8-3.7 2-3.1 1.1-8.5 1.1-8.5-.1-.7.3-1.5 1-1.8 0 0 5.2-2 6.7-5.4C790.9 221.7 789.1 216 784.7 213.2z" fill="#e2e2e2"/><path d="M642.3 211.4c4.1-2.5 11.2.7 11.2.7.7.3 1.7.2 2.3-.1l106.9-59.6c.6-.3 1.2-1.2 1.3-1.9 0 0 1-8.3 5.6-10.4 4.6-2.1 10.1-.5 12.9 3.7 2 3.1 1.1 8.5 1.1 8.5-.1.7.3 1.5 1 1.8 0 0 5.2 2 6.8 5.4 2.2 4.7.5 10.4-4 13.2-4 2.4-11-.5-11-.5-.7-.3-1.7-.2-2.3.1L667 231.9c-.6.3-1.2 1.2-1.3 1.9 0 0-1.2 8.1-5.8 10.1-4.6 2-10.1.4-12.8-3.7-2-3.1-1.1-8.5-1.1-8.5.1-.7-.3-1.5-1-1.8 0 0-5.2-2-6.7-5.4C636.1 219.9 637.8 214.1 642.3 211.4z" fill="#e2e2e2"/><path d="M761.8 184.5c0-26.9-21.9-48.8-49-48.8-27 0-49 21.8-49 48.8 0 17.1 8.9 32.2 22.3 40.9v11.9c0 7.7 6.3 14 14 14h26.2c7.7 0 14-6.3 14-14v-12.5C753.3 216 761.8 201.2 761.8 184.5z" fill="#ffffff"/><g fill="#3d3d3d"><ellipse cx="737.6" cy="186.4" rx="11.8" ry="11.8"/><ellipse cx="689.7" cy="186.4" rx="11.8" ry="11.8"/></g></g><path clip-path="url(#SVGID_00000084494461024996277880000010701794918554266240_)" d="M872.5 299.8H543.9c-8 0-14.5-6.5-14.5-14.5v-5.8c0-8 6.5-14.5 14.5-14.5h328.6c8 0 14.5 6.5 14.5 14.5v5.8C887 293.3 880.4 299.8 872.5 299.8z" fill="#f7f7f7"/><path clip-path="url(#SVGID_00000084494461024996277880000010701794918554266240_)" d="M773.1 265c-97.4 0-230.5 0-230.5 0-7.3 0-13.2 6-13.2 13.2v8.3c0 7.3 6 13.2 13.2 13.2 0 0 132.6 0 230.1 0L773.1 265z" fill="#ff7059"/><path clip-path="url(#SVGID_00000084494461024996277880000010701794918554266240_)" d="M877.7 115.8h-20.9c-4.5 0-8.3-3.7-8.3-8.3v-5.2c0-4.5 3.7-8.3 8.3-8.3h20.9c4.5 0 8.3 3.7 8.3 8.3v5.2C886 112.1 882.3 115.8 877.7 115.8z" fill="#bbbbbb"/></svg>