<svg viewBox="0 0 945 495" xmlns="http://www.w3.org/2000/svg" xmlns:xlink="http://www.w3.org/1999/xlink"><clipPath id="clippath"><path d="M0 0H945V494.69H0Z"/></clipPath><g clip-path="url(#clippath)"><path d="M-51.26-50.73H1013.32V537.89H-51.26Z" fill="#e2f1ff"/><circle cx="434.99" cy="262.09" fill="#94d0f8" r="379.98"/><path d="m621.56 190.21v-20.53h50.42l-35.67 27.75c-6 4.67-14.75.39-14.75-7.21Z" fill="#ffffff"/><rect fill="#ffffff" height="132.45" rx="59.61" width="335.92" x="563.14" y="38.86"/><path d="m857.02 104.27c0-17.1-13.86-30.96-30.96-30.96h-182.82c-17.1 0-30.96 13.86-30.96 30.96s13.86 30.96 30.96 30.96h182.82c17.1 0 30.96-13.86 30.96-30.96Z" fill="#3e5fff"/><g fill="#ffffff"><path d="m745.38 104.27c0 5.93-4.8 10.73-10.73 10.73s-10.73-4.8-10.73-10.73 4.8-10.73 10.73-10.73 10.73 4.8 10.73 10.73Z"/><path d="m709.93 104.27c0 5.93-4.8 10.73-10.73 10.73s-10.73-4.8-10.73-10.73 4.8-10.73 10.73-10.73 10.73 4.8 10.73 10.73Z"/><path d="m674.48 104.27c0 5.93-4.8 10.73-10.73 10.73s-10.73-4.8-10.73-10.73 4.8-10.73 10.73-10.73 10.73 4.8 10.73 10.73Z"/><path d="m780.83 104.27c0 5.93-4.8 10.73-10.73 10.73s-10.73-4.8-10.73-10.73 4.8-10.73 10.73-10.73 10.73 4.8 10.73 10.73Z"/><path d="m816.28 104.27c0 5.93-4.8 10.73-10.73 10.73s-10.73-4.8-10.73-10.73 4.8-10.73 10.73-10.73 10.73 4.8 10.73 10.73Z"/></g><path d="m306.01 197.32c51.21-98.59 225.98-96.78 274.01 2.84l102.17 211.91c37.75 78.29-20.35 204.31-124.92 203.23l-225.81-1.1c-144.88 0-174.64-129.66-134.39-207.15l108.94-209.73Z" fill="#3e5fff"/><path d="m290.33 455.58c-21.85 3.65-41.75 15.05-63.66 18.46-2.29.35-4.35-1.32-4.59-3.62l-7.3-69.18c-.24-2.3 1.44-4.37 3.75-4.54 31.38-2.27 43.22 9.08 66.3 6.64l5.51 52.24Z"/><path d="m407.58 84.74c0 10.13-4.02 19.86-11.17 27.05l-11.74 11.78c-7.15 7.17-11.17 16.9-11.17 27.05v3.01c0 21.13 17.08 38.24 38.12 38.24h71.94c21.06 0 38.13-17.13 38.13-38.24v-3.6c0-5.17-2.05-10.12-5.69-13.77l-9.25-9.28c-3.65-3.66-5.69-8.62-5.69-13.77s-2.05-10.12-5.69-13.78l-7.31-7.35" fill="#e37b4c"/><path d="m593.11 389.28-58.25 71.12h-143.58l-83.06-36.32c-30.56-13.36-48.47-45.44-43.81-78.47 1.25-8.84 4.81-17.18 10.34-24.19l23.24-29.48c1.67-2.12 3.03-4.48 4.02-7l21.72-55.22c6.08-15.47 17.1-28.5 31.33-37.08l56.25-33.19h78.05l54.72 32.32c15.12 9.11 26.56 23.22 32.38 39.88l29.56 84.84c8.65 24.84 3.77 52.4-12.9 72.76v.02Z" fill="#ec9595"/><path d="m471.74 100.1h-42.74l-20.22 60.87 36.1 59.96c2.48 4.11 8.47 4.11 10.94 0l36.13-59.96-20.22-60.87h.01Z" fill="#f3c8b7"/><path d="m418.96 72.44c0 5.35-4.17 14.08-9.34 14.08h-.11c-5.13-.11-9.23-8.76-9.23-14.08 0-4.97 3.62-9.08 8.3-9.65.34 0 .68-.03 1.02-.03 2.57 0 4.85 1.06 6.53 2.77 1.75 1.77 2.8 4.23 2.8 6.91" fill="#f3c8b7"/><path d="m500.44 72.44c0 5.32-4.14 13.98-9.23 14.08h-.11c-4.21 0-7.76-5.82-8.93-10.85-.28-1.17-.41-2.23-.41-3.23 0-5.32 4.17-9.69 9.34-9.69.34 0 .65.03.99.03 0 0 0 .03.03 0 4.65.56 8.31 4.68 8.31 9.64" fill="#f3c8b7"/><path d="m479.73 56.2c-7.28-11.8-15.99-27.82-31.28-28.63-7.52-.4-15.05 6.35-21.15 10.06-2.94 1.79-5.56 3.39-7.85 5.49-1.18 1.09-2.39 2.46-2.84 3.1-.08.11-.6.99-.82 1.35-.11.32-.5 1.73-.37.75-.65 5.06-3.43 9.49-8.32 10.68 0 .74 0 1.47.03 2.22l.07 1.53.07 1.91.55 13.85.31 7.57.07 1.67v.17l.35 8.31c.42 10.43 4.66 19.81 11.34 26.82 5.5 5.76 12.65 9.91 20.65 11.69.42.11.85.22 1.26.25.56.14 1.08.25 1.64.32h.11c.66.1 1.29.17 1.95.24.6.08 1.18.11 1.78.14.77.03 1.53.07 2.3.07 1.12 0 2.23-.03 3.31-.14.25 0 .53-.03.77-.07.66-.07 1.35-.13 2.02-.24.66-.1 1.29-.21 1.95-.35.6-.1 1.18-.24 1.78-.38 4-.97 7.75-2.54 11.23-4.6.44-.3.93-.59 1.39-.9 1.21-.8 2.4-1.67 3.54-2.62.35-.27.69-.55 1.04-.87.91-.8 1.78-1.64 2.64-2.51 6.49-6.83 10.71-15.95 11.29-26.09 0-.24.03-.49.03-.73l.41-10.16.28-7.54.63-15.8.07-1.53v-.08c0-.08 0-.15 0-.23-4.29 1.24-9.2.15-12.21-4.72Z" fill="#f3c8b7"/><path d="m437.46 97.18c0 3.45-.44 6.25-1.76 6.25s-1.76-2.8-1.76-6.25.44-6.25 1.76-6.25 1.76 2.8 1.76 6.25Z"/><path d="m468.18 97.18c0 3.45-.44 6.25-1.76 6.25s-1.76-2.8-1.76-6.25.44-6.25 1.76-6.25 1.76 2.8 1.76 6.25Z"/><path d="m439.81 83.58c.59-.46.96-1.16.95-1.95-.02-1.31-1.09-2.39-2.41-2.38-.26 0-5.85.07-10.99 4.37-1.03.85-1.16 2.35-.31 3.4.85 1.02 2.37 1.15 3.4.3 3.75-3.16 7.88-3.22 7.93-3.22.53 0 1.02-.23 1.43-.52Z" fill="#cb6942"/><path d="m462.39 83.58c-.59-.46-.96-1.16-.95-1.95.02-1.31 1.09-2.39 2.41-2.38.26 0 5.85.07 10.99 4.37 1.03.85 1.16 2.35.31 3.4-.85 1.02-2.37 1.15-3.4.3-3.75-3.16-7.88-3.22-7.93-3.22-.53 0-1.02-.23-1.42-.52Z" fill="#cb6942"/><path d="m451.65 120.51c-.82-.22-1.59.18-1.84.9-.27.74.14 1.58.88 1.84.34.12.7.23 1.05.33 6.78 1.82 14.79-1.36 18.26-7.24.19-.33.24-.72.15-1.1-.1-.38-.33-.69-.67-.89-.11-.07-.23-.11-.36-.15-.63-.17-1.3.11-1.63.67-2.83 4.81-9.41 7.4-15.01 5.9-.28-.07-.57-.15-.84-.27v.02s.01 0 .01 0Z"/><path d="m479.33 122.96c-7.42 7.67-17.61 12.41-28.83 12.41-3.09 0-6.1-.36-9-1.03-2.1-.49-3.22 2.55-1.33 3.64 5.88 3.41 12.65 5.35 19.84 5.35 6.39 0 12.45-1.53 17.85-4.27 1.92-.97 3.94-2.21 5.67-3.47l-4.2-12.63Z" fill="#cda092"/><rect fill="#e3e3e3" height="98.2" rx="38.19" width="244.61" x="350.28" y="375.89"/><path d="m261.23 397.57c-2.53-8.09 3.51-16.32 11.99-16.32h260.07l2.54 52.81c1.05 21.79-16.34 40.03-38.15 40.03h-203.25c-5.49 0-10.35-3.57-11.99-8.81l-21.21-67.71Z" fill="#e3e3e3"/><path d="m261.23 397.57c-2.53-8.09 3.51-16.32 11.99-16.32h48.49l4.46 92.84h-31.75c-5.49 0-10.35-3.57-11.99-8.81l-21.21-67.71Z" fill="#bcbcbc"/><path d="m387.91 397.55 10.09 76.54h23.71l-30.36-77.42c-.77-1.96-3.71-1.2-3.43.89Z" fill="#bcbcbc"/><path d="m528.33 250.17h-170.68c-9.38 0-16.98 7.6-16.98 16.98v96.12c0 9.38 7.6 16.98 16.98 16.98h170.68c9.38 0 16.98-7.6 16.98-16.98v-96.12c0-9.38-7.6-16.98-16.98-16.98Z" fill="#ffffff"/><path d="m442.98 325.54c5.71 0 10.34-4.63 10.34-10.34s-4.63-10.34-10.34-10.34-10.34 4.63-10.34 10.34 4.63 10.34 10.34 10.34Z" fill="#bcbcbc"/><path d="m346.05 341.93c19.02 0 35.14 13.99 37.82 32.82l36.7 258.37c1.08 7.57-4.8 14.33-12.44 14.33h-59.88c-6.06 0-11.26-4.32-12.36-10.28l-46.23-250.11c-4.34-23.48 13.68-45.14 37.56-45.14h18.83Z" fill="#e3e3e3"/><path d="m493.38 58.43v1.74l-.04-.07v.07l-.55 16.76c-.05 1.29-1.09 2.31-2.38 2.31h-1.06c-.56 0-1.13-.21-1.57-.58l-32.24-27.99c-3.34-2.91-7.66-4.53-12.1-4.53h-9.51c-8.78 0-16.36 6.2-18.08 14.82l-3.27 16.37c-.21 1.13-1.21 1.92-2.34 1.92-1.29 0-2.36-1.02-2.39-2.32l-.53-16.67v-1.06c0-23.52 18.58-43.31 42.1-43.81 24.19-.51 43.96 18.94 43.96 43.01l-.02.02Z" fill="#e37b4c"/></g></svg>