<svg fill="none" height="495" viewBox="0 0 945 495" width="945" xmlns="http://www.w3.org/2000/svg" xmlns:xlink="http://www.w3.org/1999/xlink"><clipPath id="clip0_1471_1852"><path d="M0 0H945V495H0Z"/></clipPath><clipPath id="clip1_1471_1852"><rect height="388.591" rx="19.7054" width="497.365" x="218.336" y="40.9873"/></clipPath><g clip-path="url(#clip0_1471_1852)"><path d="M0 0H945V495H0Z" fill="#e2f1ff"/><rect fill="#b1cfe5" height="310.755" rx="15.7643" width="185.326" x="742.155" y="41.097"/><rect fill="#b1cfe5" height="54.8121" rx="15.7643" width="185.326" x="742.155" y="374.766"/><g fill="#ffffff"><rect height="47.5188" rx="7.69988" width="15.3998" x="765.518" y="124.374"/><rect height="47.5188" rx="7.69988" width="15.3998" x="857.917" y="124.374"/><rect height="80.0779" rx="7.69988" width="15.3998" x="827.117" y="91.8149"/><rect height="65.9983" rx="7.69988" width="15.3998" x="888.716" y="105.895"/></g><rect fill="#e2f1ff" height="107.357" rx="7.69988" width="15.3998" x="796.318" y="64.5356"/><rect fill="#ffffff" height="138.598" rx="7.69988" transform="matrix(0 1 -1 0 1298.588 -509.644)" width="15.3998" x="904.116" y="394.472"/><g clip-path="url(#clip1_1471_1852)"><rect fill="#ffffff" height="388.591" rx="19.7054" width="497.365" x="218.336" y="40.9873"/><path d="M-752.022-30.799H387.888V659.66H-752.022Z" fill="#95d1f9"/><path d="M-193.7 266.659-202.732 256.276C-205.882 252.655-211.108 251.675-215.356 253.908L-221.198 256.98C-224.008 258.457-225.141 261.896-223.76 264.754-222.411 267.544-223.456 270.903-226.151 272.435L-242.367 281.654C-245.68 283.538-249.761 283.448-252.989 281.419L-255.703 279.713C-258.327 278.063-260.073 275.325-260.462 272.25L-261.042 267.661C-261.454 264.406-260.297 261.149-257.925 258.882L-255.967 257.011C-254.763 255.86-253.299 255.017-251.699 254.554L-244.433 252.448C-240.045 251.177-237.652 246.455-239.222 242.165-240.397 238.951-239.366 235.346-236.669 233.24L-215.211 216.483C-212.73 214.546-211.279 211.573-211.279 208.425V203.976C-211.279 202.565-210.436 201.292-209.137 200.743-207.796 200.175-206.244 200.495-205.236 201.546L-200.905 206.061C-199.664 207.355-198.108 208.304-196.389 208.816L-188.538 211.152C-186.186 211.852-183.661 211.694-181.415 210.704L-175.379 208.045C-172.474 206.766-170.317 204.224-169.527 201.149L-168.618 197.609C-167.955 195.025-166.319 192.797-164.053 191.39L-159.169 188.359C-158.312 187.827-157.681 186.996-157.398 186.027-156.949 184.487-157.441 182.827-158.656 181.78L-164.997 176.317C-166.609 174.928-167.4 172.813-167.095 170.707-166.499 166.601-170.014 163.071-174.123 163.651-176.986 164.055-179.195 166.378-179.452 169.259L-181.428 191.346C-181.82 195.725-185.351 199.161-189.739 199.434L-190.154 199.46C-193.483 199.666-196.61 197.853-198.085 194.862L-199.592 191.806C-200.761 189.438-203.617 188.449-205.999 189.588-208.012 190.551-210.422 190.008-211.826 188.275L-215.132 184.199C-217.782 180.93-218.189 176.383-216.161 172.696L-191.966 128.69C-191.184 127.268-190.079 126.05-188.739 125.134L-169.986 112.31C-166.761 110.104-162.57 109.903-159.149 111.789L-127.918 129.006C-126.366 129.862-125.402 131.493-125.402 133.266-125.402 135.363-126.747 137.224-128.738 137.883L-138.64 141.161C-141.469 142.097-142.678 145.432-141.107 147.964-139.98 149.78-137.751 150.582-135.724 149.901L-125.483 146.458C-122.021 145.294-119.688 142.049-119.688 138.396-119.688 136.478-119.04 134.617-117.849 133.114L-115.268 129.856C-113.577 127.724-111.115 126.342-108.414 126.012L-84.2503 123.056C-82.1569 122.8-80.1916 121.91-78.6179 120.506L-73.3625 115.817C-70.2692 113.057-69.1214 108.718-70.4458 104.79L-72.1224 99.8164C-73.2866 96.3633-72.0101 92.5573-68.9992 90.5045-67.0186 89.154-64.5428 88.7468-62.234 89.3917L-53.5693 91.8119C-49.0112 93.0851-44.1702 91.1038-41.8127 87.0002L-13.0358 36.9095C-11.6106 34.4286-9.22177 32.6485-6.43693 31.9922L6.79878 28.8728C9.36427 28.2681 12.0638 28.6652 14.3465 29.9831L31.9664 40.1555C34.1449 41.4133 35.7907 43.4215 36.596 45.8047L38.0949 50.2407C39.9943 55.8619 46.2217 58.7381 51.7328 56.5395L68.9743 49.6612C71.7347 48.56 74.8352 48.6988 77.4862 50.0422L92.4302 57.6151C96.0078 59.4281 100.311 59.0105 103.473 56.5434L125.229 39.5698C127.624 37.7008 130.72 36.9791 133.695 37.596L184.101 48.0486C186.852 48.6192 189.718 48.0461 192.038 46.4609L208.503 35.2141C210.961 33.5352 214.023 32.9959 216.906 33.7341L232.038 37.6079C232.984 37.85 233.96 37.9571 234.936 37.9259L256.45 37.2377C264.686 36.9743 269.911 45.974 265.598 52.9957L260.323 61.5862C258.072 65.2509 258.323 69.9257 260.953 73.3287L264.779 78.281C266.836 80.9423 267.471 84.437 266.482 87.6515L262.034 102.108C261.145 104.995 259.039 107.35 256.269 108.555L242.088 114.72C237.197 116.846 234.724 122.34 236.373 127.411L249.686 168.337C250.844 171.896 249.272 175.772 245.962 177.519 242.357 179.422 237.893 178.182 235.786 174.692L225.713 158.008C224.201 155.505 223.82 152.479 224.662 149.679L227.32 140.843C228.651 136.417 226.813 131.651 222.854 129.265 219.034 126.963 214.157 127.435 210.849 130.426L204.4 136.257C201.981 138.444 198.673 139.363 195.473 138.737L191.233 137.908C187.425 137.163 183.522 138.61 181.12 141.656L170.297 155.383C166.913 159.675 167.451 165.86 171.526 169.504L187.735 183.996C189.061 185.18 190.058 186.687 190.632 188.369L196.143 204.527C196.82 206.51 196.878 208.652 196.311 210.669L191.743 226.912C191.324 228.4 190.578 229.776 189.558 230.937L177.747 244.392C177.162 245.058 176.388 245.53 175.528 245.745 173.052 246.364 171.635 248.967 172.459 251.382L177.231 265.374C178.15 268.07 176.814 271.016 174.18 272.101 171.64 273.147 168.719 272.115 167.399 269.706L162.934 261.557C160.624 257.342 155.647 255.358 151.07 256.829 145.28 258.69 142.466 265.236 145.099 270.719L154.39 290.06C154.741 290.791 155.005 291.56 155.176 292.351L159.19 310.895C159.992 314.596 158.707 318.44 155.841 320.915L146.498 328.985C145.484 329.861 144.308 330.532 143.038 330.96L129.61 335.485C124.354 337.256 121.429 342.856 122.978 348.182L127.358 363.234C128.739 367.978 126.45 373.02 121.969 375.103L120.762 375.664C117.087 377.373 112.716 376.216 110.368 372.913L109.26 371.356C107.318 368.625 103.593 367.868 100.739 369.624 97.7446 371.467 96.8125 375.39 98.6583 378.383L108.853 394.916C109.684 396.263 109.543 397.993 108.505 399.188 107.075 400.835 104.524 400.852 103.073 399.224L94.5094 389.626C93.8835 388.925 93.3562 388.141 92.9419 387.297L70.7855 342.164C69.1646 338.862 65.8069 336.77 62.1288 336.77 59.5991 336.77 57.1706 337.764 55.367 339.538L43.5028 351.206C42.4476 352.243 41.6274 353.495 41.0973 354.877L34.2008 372.853C33.8648 373.729 33.4114 374.555 32.8529 375.308L26.3113 384.134C25.6079 385.083 24.5768 385.737 23.4184 385.969 21.3054 386.392 19.1718 385.343 18.2153 383.412L-1.00405 344.611C-1.37056 343.871-1.8243 343.178-2.35562 342.545L-14.0614 328.62C-16.0276 326.281-18.927 324.93-21.9827 324.93H-27.5894C-28.5272 324.93-29.4606 324.803-30.364 324.551L-60.5181 316.159C-63.8066 315.243-66.3934 319.006-64.3614 321.749-63.8086 322.495-62.9878 322.998-62.0719 323.151L-50.7476 325.047C-47.6348 325.568-44.9299 327.481-43.4019 330.243L-43.2451 330.526C-40.8977 334.769-41.8108 340.072-45.4417 343.286L-60.6799 356.771C-61.619 357.602-62.7013 358.255-63.874 358.699L-74.2723 362.636C-78.2853 364.155-82.8195 363.04-85.6702 359.833L-106.148 336.796C-107.099 335.725-108.722 335.587-109.841 336.481-110.801 337.249-111.119 338.571-110.613 339.692L-98.9261 365.571C-97.0919 369.632-92.8633 372.063-88.4304 371.605L-72.5555 369.963C-67.7124 369.462-63.4996 373.261-63.4996 378.13-63.4996 379.828-64.0263 381.485-65.007 382.871L-94.2974 424.282C-95.3182 425.725-95.9523 427.406-96.1392 429.164L-101.589 480.448C-101.83 482.713-102.811 484.835-104.38 486.485L-145.583 529.813C-147.536 531.867-150.247 533.03-153.081 533.03H-163.736C-167.611 533.03-171.162 530.865-172.936 527.419L-191.59 491.19C-192.344 489.725-192.738 488.101-192.738 486.453V428.106C-192.738 427.031-192.906 425.962-193.235 424.938L-198.769 407.728C-199.603 405.136-201.424 402.977-203.839 401.719L-214.694 396.063C-216.064 395.349-217.577 394.951-219.121 394.898L-266.15 393.287C-270.358 393.143-274.059 390.463-275.51 386.509L-285.054 360.499C-285.902 358.187-285.898 355.648-285.042 353.339L-267.54 306.109C-266.674 303.771-264.993 301.825-262.806 300.628L-234.383 285.067C-233.315 284.482-232.152 284.09-230.947 283.91L-206.023 280.175C-202.343 279.623-198.65 281.09-196.352 284.016L-187.515 295.265C-185.553 297.763-182.553 299.221-179.377 299.221H-161.395C-160.842 299.221-160.289 299.265-159.744 299.353L-134.713 303.399C-133.014 303.673-131.273 303.52-129.647 302.952L-122.245 300.364C-118.063 298.902-116.04 294.164-117.877 290.133-119.324 286.957-122.764 285.191-126.188 285.867L-134.508 287.509C-138.948 288.385-143.378 285.956-145.027 281.742-146.988 276.731-144.326 271.103-139.208 269.44L-128.284 265.892C-126.84 265.422-125.31 265.277-123.803 265.465L-115.22 266.539C-109.73 267.225-104.671 263.472-103.737 258.019L-103.643 257.474C-102.704 251.992-106.265 246.748-111.707 245.6L-129.429 241.863C-136.539 240.363-142.94 246.468-141.779 253.642L-141.42 255.86C-140.71 260.25-143.449 264.461-147.75 265.59-150.227 266.24-152.287 267.956-153.374 270.273L-155.953 275.769C-156.7 277.363-158.026 278.614-159.661 279.268-163.072 280.633-166.957 279.104-168.522 275.779L-180.68 249.97C-181.51 248.209-183.472 247.284-185.358 247.764-187.792 248.384-189.087 251.042-188.074 253.34L-186.55 256.799C-186.367 257.214-186.145 257.611-185.888 257.985L-177.911 269.589C-175.673 272.843-176.896 277.328-180.476 278.996-183.677 280.487-187.481 279.098-188.967 275.895L-192.121 269.096C-192.53 268.213-193.062 267.393-193.7 266.659Z" fill="#f8f8f8"/><path d="M218.696 260.915 211.349 242.967C210.469 240.818 211.497 238.363 213.645 237.481 216.519 236.301 217.167 232.519 214.849 230.45L212.309 228.182C210.723 226.766 208.516 226.276 206.479 226.887 203.288 227.844 201.451 231.18 202.347 234.388L207.782 253.844C208.965 258.079 207.342 262.599 203.735 265.115L189.931 274.743C188.842 275.503 187.915 276.472 187.205 277.594L184.587 281.726C182.881 284.42 183.831 287.997 186.65 289.489 188.961 290.713 191.814 290.13 193.461 288.098L197.646 282.933C198.61 281.744 199.824 280.784 201.203 280.121L213.602 274.162C218.538 271.79 220.771 265.983 218.696 260.915Z" fill="#f8f8f8"/><path d="M255.169 429.794 211.31 417.035C209.26 416.438 207.076 417.393 206.121 419.303 205.215 421.115 205.657 423.312 207.194 424.633L224.323 439.35C226.2 440.962 228.592 441.849 231.067 441.849H237.633C238.774 441.849 239.907 442.037 240.986 442.407L250.18 445.556C255.949 447.531 261.799 442.796 261.068 436.743 260.671 433.454 258.35 430.719 255.169 429.794Z" fill="#f8f8f8"/><path d="M283.033-30.799H1397.123V659.66H283.033Z" fill="#95d1f9"/><g fill="#f8f8f8"><path d="M317.964 135.926 311.391 109.632C310.599 106.466 311.348 103.111 313.411 100.581L341.444 66.218C341.755 65.8368 342.038 65.4339 342.292 65.0124L361.979 32.2972C365.496 26.4522 373.608 25.5503 378.323 30.4799L418.019 71.9797C420.201 74.2609 423.304 75.4213 426.448 75.1312L444.744 73.4423C446.441 73.2856 448.152 73.5509 449.722 74.2145L468.916 82.3246C472.632 83.8948 476.925 82.2438 478.631 78.5881 480.103 75.4335 479.211 71.6807 476.476 69.5263L475.683 68.901C471.587 65.674 471.192 59.6083 474.836 55.8781L478.248 52.3843C481.934 48.6105 487.869 48.2134 492.025 51.4626L504.962 61.5775C506.045 62.4244 507.286 63.0469 508.613 63.4087L514.961 65.1401C520.136 66.5518 523.375 71.6846 522.421 76.9637L520.104 89.7832C519.04 95.6684 523.173 101.227 529.115 101.905L554.314 104.778C559.542 105.375 563.49 109.798 563.49 115.06V116.092C563.49 119.611 561.701 122.888 558.743 124.793L511.386 155.279C505.602 159.002 504.994 167.228 510.167 171.762L537.434 195.661C543.563 201.033 553.209 197.54 554.477 189.489L557.375 171.086C557.957 167.388 560.492 164.293 564.003 162.993L571.604 160.177C576.337 158.425 581.644 160.342 584.164 164.715L614.866 217.992C617.85 223.171 615.84 229.793 610.48 232.438L562.416 256.162C559.806 257.451 557.859 259.779 557.053 262.576L552.778 277.413C551.997 280.123 550.144 282.397 547.647 283.709L532.194 291.829C529.58 293.202 527.677 295.626 526.965 298.492L524.882 306.866C522.564 316.185 509.906 317.596 505.594 309.016L503.56 304.969C501.386 300.643 496.502 298.402 491.804 299.577L468.584 305.382C463.01 306.775 459.638 312.443 461.074 318.007L465.363 334.626C466.817 340.26 472.63 343.589 478.225 341.99L486.01 339.766C490.686 338.43 495.211 342.295 494.622 347.122 494.198 350.602 496.49 353.833 499.915 354.582L501.282 354.881C504.515 355.589 507.022 358.142 507.671 361.387L508.384 364.952C509.017 368.114 511.087 370.8 513.983 372.217L524.751 377.487C526.906 378.542 529.361 378.815 531.695 378.259L561.958 371.059C564.868 370.366 567.936 370.967 570.37 372.706L622.074 409.655C622.532 409.983 623.017 410.272 623.523 410.521L664.008 430.437C668.642 432.717 670.886 438.063 669.267 442.967L659.016 474.011C658.46 475.696 657.48 477.21 656.17 478.406L627.727 504.391C626.555 505.462 625.645 506.788 625.067 508.266L616.673 529.756C616.228 530.895 615.584 531.947 614.772 532.861L575.921 576.613C573.407 579.443 572.64 583.421 573.92 586.983L587.099 623.653C588.756 628.266 586.225 633.329 581.54 634.771 577.545 636 573.246 634.176 571.353 630.45L550.528 589.45C549.64 587.702 549.267 585.737 549.453 583.785L557.912 494.782C558.172 492.043 557.331 489.314 555.575 487.197L509.867 432.078C506.614 428.155 506.701 422.448 510.073 418.626L520.587 406.71C524.613 402.147 523.852 395.112 518.943 391.516L494.831 373.852C494.195 373.386 493.507 372.995 492.782 372.685L450.631 354.671C448.493 353.758 446.725 352.151 445.612 350.109L419.203 301.668C417.422 298.402 412.442 299.974 412.86 303.671 413.3 307.571 407.865 308.975 406.362 305.349L391.402 269.282C390.713 267.62 390.543 265.788 390.915 264.028L400.261 219.823C400.505 218.668 400.55 217.48 400.393 216.31L396.184 184.865C395.999 183.482 395.537 182.152 394.824 180.953L367.931 135.682C364.972 130.701 358.5 129.12 353.577 132.175L317.809 154.376C315.729 155.667 313.013 155.207 311.474 153.302 309.753 151.171 310.136 148.039 312.319 146.385L314.995 144.356C317.584 142.394 318.752 139.077 317.964 135.926Z"/><path d="M556.743 342.584 521.618 331.52C519.433 330.832 517.088 331.95 516.247 334.08 515.314 336.445 516.59 339.103 519.019 339.853L554.205 350.72C556.482 351.423 558.893 350.122 559.556 347.833 560.199 345.61 558.95 343.279 556.743 342.584Z"/><path d="M583.957 109.858 566.503 99.0997C559.358 94.6952 560.154 84.064 567.875 80.772L578.212 76.3645C582.055 74.7258 586.507 75.5592 589.497 78.4772L615.417 103.769C617.253 105.561 618.358 107.972 618.518 110.534L620.578 143.684C620.948 149.64 616.217 154.674 610.25 154.674H597.909C591.982 154.674 587.266 149.705 587.575 143.786L588.861 119.208C589.058 115.429 587.178 111.844 583.957 109.858Z"/><path d="M552.898 76.6484 553.752 74.0506C555.392 69.0573 552.326 63.747 547.181 62.6719 542.44 61.681 537.787 64.7022 536.764 69.4367L536.186 72.1094C535.139 76.949 538.351 81.6807 543.235 82.4947 547.458 83.1984 551.562 80.7153 552.898 76.6484Z"/><path d="M535.347 28.2256 535.274 27.6427C534.681 22.8997 530.917 19.18 526.167 18.6437L521.648 18.1334C518.932 17.8268 516.206 18.6067 514.063 20.3028L512.464 21.5687C507.987 25.1137 507.227 31.6161 510.768 36.0973L513.751 39.8731C517.858 45.0713 525.724 45.1249 529.902 39.9833L533.11 36.0347C534.889 33.8454 535.697 31.0247 535.347 28.2256Z"/><path d="M644.103 9.21096 584.324 60.5302C581.035 63.3539 576.334 63.8282 572.547 61.7184L563.511 56.684C561.232 55.4143 559.819 53.01 559.819 50.4011 559.819 46.4289 563.039 43.2089 567.011 43.2089H568.986C570.808 43.2089 572.589 42.6658 574.101 41.6491L580.807 37.1399C584.764 34.4786 586.391 29.4568 584.744 24.9805L581.553 16.3051C579.954 11.9571 581.439 7.07607 585.19 4.35612L600.871-7.01741C602.638-8.29871 604.764-8.98868 606.947-8.98868L637.362-8.98866C646.966-8.98865 651.389 2.95565 644.103 9.21096Z"/><path d="M649.489 73.3523 628.793 55.0703C623.735 50.6018 624.239 42.5647 629.817 38.7638L671.108 10.6248C672.601 9.60703 674.335 8.99815 676.137 8.85874L723.134 5.22243C728.132 4.83575 732.688 8.08643 733.948 12.9379L737.897 28.1382C738.433 30.2037 738.318 32.3846 737.567 34.3821L725.04 67.6953C724.666 68.69 724.448 69.7364 724.392 70.7976L722.286 111.11C722.132 114.071 720.714 116.824 718.392 118.67L661.451 163.938C656.671 167.738 649.657 166.594 646.332 161.472L641.343 153.787C640.255 152.11 639.675 150.153 639.675 148.153V124.398C639.675 123.285 639.854 122.18 640.206 121.125L652.455 84.38C653.767 80.442 652.6 76.1006 649.489 73.3523Z"/><path d="M729.94 151.543 720.344 152.415C716.898 152.729 713.722 150.532 712.8 147.197 711.422 142.216 715.618 137.461 720.732 138.21L723.478 138.612C723.908 138.675 724.342 138.707 724.777 138.707H729.357C734.138 138.707 737.248 143.738 735.11 148.014 734.114 150.006 732.158 151.341 729.94 151.543Z"/></g></g><path d="M494.342 192.244C504.504 179.516 527.679 148.666 527.679 131.338 527.679 110.322 510.644 93.2712 489.648 93.2712 468.651 93.2712 451.616 110.322 451.616 131.338 451.616 148.666 474.791 179.516 484.953 192.244 487.389 195.277 491.906 195.277 494.342 192.244ZM489.648 144.026C482.655 144.026 476.97 138.336 476.97 131.338 476.97 124.339 482.655 118.649 489.648 118.649 496.64 118.649 502.325 124.339 502.325 131.338 502.325 138.336 496.64 144.026 489.648 144.026Z" fill="#3e5fff"/><rect height="372.826" rx="11.8232" stroke="#ffffff" stroke-width="15.7643" width="481.6" x="226.218" y="48.8694"/><path d="M779.709 269.262C776.955 269.262 774.702 267.026 774.93 264.281 775.827 253.491 779.627 243.11 785.97 234.258 793.284 224.052 803.611 216.393 815.501 212.357 827.391 208.32 840.247 208.11 852.262 211.755 864.278 215.4 874.85 222.717 882.494 232.679 890.138 242.64 894.469 254.746 894.88 267.296 895.291 279.845 891.761 292.209 884.785 302.649 877.809 313.089 867.738 321.082 855.986 325.505 845.795 329.341 834.783 330.324 824.129 328.398 821.419 327.909 819.842 325.153 820.555 322.493L833.136 275.539C833.984 272.372 831.598 269.262 828.32 269.262L779.709 269.262Z" fill="#e2f1ff"/><path d="M889.926 269.262C892.68 269.262 894.934 271.498 894.705 274.243 893.808 285.033 890.008 295.414 883.665 304.266 876.351 314.472 866.024 322.131 854.134 326.167 842.244 330.203 829.389 330.414 817.373 326.769 805.357 323.124 794.785 315.807 787.141 305.845 779.497 295.884 775.166 283.778 774.755 271.228 774.344 258.679 777.875 246.315 784.851 235.875 791.827 225.435 801.898 217.442 813.649 213.019 823.841 209.183 834.852 208.2 845.507 210.126 848.217 210.615 849.793 213.371 849.081 216.031L836.499 262.985C835.651 266.152 838.037 269.262 841.316 269.262H889.926Z" fill="#ffffff"/><path d="M373.8 260.498 397.212 241.05C407.858 232.207 420.125 225.522 433.328 221.37L458.168 213.557C463.146 211.991 466.417 218.669 462.129 221.643L433.98 241.162 435.752 248.34C438.706 260.3 431.196 272.337 419.155 274.943L399.034 279.298 385.879 288.897 373.8 260.498Z" fill="#ffbd6e"/><path d="M247.381 424.656C250.4 439.51 239.047 453.401 223.89 453.401H71.9934C56.775 453.401 45.4089 439.404 48.5329 424.51L52.3717 406.208-15.5897 422.627C-46.4647 430.086-69.3296 394.286-49.5783 369.411L47.0602 247.701C50.3429 243.566 54.6112 240.323 59.4735 238.267L112.028 216.046 174.581 216.046 221.574 232.792C226.94 234.704 231.688 238.035 235.313 242.429L296.941 317.148 373.783 260.51 399.004 279.461 335.04 359.847C316.029 383.738 281.804 388.91 256.582 371.704L233.404 355.892 247.381 424.656Z" fill="#dcc6ff"/><circle cx="144.666" cy="79.6479" fill="#824f36" r="36.1265"/><path d="M176.829 148.159V219.307C176.829 221.325 175.543 223.102 173.632 223.719L170.398 224.766C153.601 230.172 135.533 230.172 118.751 224.766L115.539 223.719C113.628 223.102 112.342 221.325 112.342 219.33V148.159H176.837 176.829Z" fill="#ffbd6e"/><path d="M176.827 183.561 176.83 197.702C170.458 202.566 164.532 205.477 155.926 205.477 149.397 205.477 143.259 203.844 137.896 200.922 136.151 199.974 137.144 197.271 139.092 197.647 141.514 198.144 145.868 197.647 148.433 197.647 166.711 193.489 166.897 192.628 176.827 183.561Z" fill="#e59a48"/><path d="M113.468 142.636C113.468 137.053 108.961 132.558 103.408 132.558 97.8556 132.558 93.3394 137.053 93.3394 142.636 93.3394 148.22 97.847 157.286 103.408 157.286 108.969 157.286 113.468 148.185 113.468 142.636Z" fill="#ffbd6e"/><path d="M195.729 142.636C195.729 137.053 191.221 132.558 185.66 132.558 180.099 132.558 175.591 137.053 175.591 142.636 175.591 148.22 180.099 157.286 185.66 157.286 191.221 157.286 195.729 148.185 195.729 142.636Z" fill="#ffbd6e"/><path d="M144.526 198.044C121.159 198.044 101.971 179.582 101.039 156.237L99.5621 132.598C98.5345 107.023 118.974 85.7258 144.535 85.7258 170.096 85.7258 190.527 107.023 189.508 132.598L188.031 156.237C187.099 179.582 167.902 198.044 144.535 198.044H144.526Z" fill="#ffbd6e"/><path d="M130.479 141.641C130.479 145.242 130.023 148.158 128.642 148.158 127.261 148.158 126.805 145.242 126.805 141.641 126.805 138.04 127.261 135.123 128.642 135.123 130.023 135.123 130.479 138.04 130.479 141.641Z" fill="#000000"/><path d="M162.49 141.641C162.49 145.242 162.034 148.158 160.653 148.158 159.273 148.158 158.816 145.242 158.816 141.641 158.816 138.04 159.273 135.123 160.653 135.123 162.034 135.123 162.49 138.04 162.49 141.641Z" fill="#000000"/><path d="M132.871 127.479C133.484 127.003 133.873 126.268 133.864 125.446 133.847 124.08 132.732 122.956 131.35 122.964 131.081 122.966 125.25 123.042 119.893 127.531 118.822 128.421 118.683 129.987 119.573 131.076 120.463 132.14 122.045 132.278 123.116 131.388 127.03 128.093 131.33 128.024 131.385 128.023 131.937 128.015 132.447 127.781 132.871 127.479Z" fill="#824f36"/><path d="M156.424 127.479C155.811 127.003 155.422 126.268 155.431 125.446 155.448 124.08 156.563 122.956 157.945 122.964 158.214 122.966 164.045 123.042 169.402 127.531 170.473 128.421 170.612 129.987 169.722 131.076 168.832 132.14 167.25 132.278 166.179 131.388 162.265 128.093 157.965 128.024 157.91 128.024 157.357 128.015 156.848 127.781 156.424 127.479Z" fill="#824f36"/><path clip-rule="evenodd" d="M137.816 168.936C137.038 168.644 136.17 169.035 135.873 169.812 135.575 170.592 135.965 171.466 136.745 171.765 136.93 171.836 137.122 171.892 137.313 171.945 137.65 172.038 138.137 172.157 138.784 172.273 140.079 172.506 142.009 172.729 144.647 172.729 147.285 172.729 149.215 172.506 150.51 172.273 151.157 172.157 151.644 172.038 151.981 171.945 152.173 171.891 152.362 171.831 152.549 171.765 153.329 171.466 153.719 170.592 153.421 169.812 153.124 169.035 152.256 168.644 151.478 168.936 151.478 168.936 151.477 168.936 151.476 168.937 151.456 168.944 151.356 168.979 151.172 169.03 150.927 169.098 150.531 169.196 149.975 169.296 148.865 169.495 147.114 169.704 144.647 169.704 142.18 169.704 140.429 169.495 139.319 169.296 138.763 169.196 138.367 169.098 138.122 169.03 137.938 168.979 137.838 168.944 137.818 168.937 137.817 168.936 137.816 168.936 137.816 168.936Z" fill="#000000" fill-rule="evenodd"/><path d="M189.577 132.083V121.763H189.542C189.542 96.9048 169.387 76.723 144.535 76.723 119.682 76.723 99.5187 96.9048 99.5187 121.763V132.057C99.5187 134.01 101.099 135.626 103.068 135.626 105.037 135.626 106.626 134.01 106.626 132.057 106.626 130.855 106.686 129.628 106.807 128.392 106.807 122.269 108.622 116.741 110.141 113.187 111.332 110.399 113.349 108.093 115.658 106.126L116.955 105.021C133.384 91.0263 157.628 91.3315 173.699 105.735V105.735C177.242 108.911 179.965 112.938 181.032 117.575 181.784 120.843 182.47 124.755 182.47 128.159V132.083C182.47 134.045 184.059 135.626 186.019 135.626 187.979 135.626 189.577 134.045 189.577 132.083Z" fill="#824f36"/><path d="M105.966 206.45C105.966 204.086 107.882 202.17 110.246 202.17H178.479C180.843 202.17 182.76 204.086 182.76 206.45V239.13H105.966V206.45Z" fill="#dcc6ff"/><path d="M71.2323 466.493H224.473L259.175 562.733C267.71 586.405 271.718 611.471 270.989 636.624L262.569 927.226H33.1371L24.7163 636.624C23.9875 611.471 27.9952 586.405 36.5307 562.733L71.2323 466.493Z" fill="#3d3d3d"/><path d="M71.1237 453.401H224.4757V466.6935H71.1237Z" fill="#000000"/><path d="M89.9249 398.815 52.1983 406.367 48.5768 424.477 91.0615 402.008C92.8072 401.084 91.8614 398.428 89.9249 398.815Z" fill="#bca4ea"/><rect fill="#e3e3e3" height="130.783" rx="9.37322" transform="matrix(.98171998 -.19033097 .19033097 .98171998 -53.711631 24.292221)" width="91.8114" x="99.6091" y="291.768"/><rect fill="#ffffff" height="130.783" rx="9.37322" transform="matrix(.99663096 .08201661 -.08201661 .99663096 23.964793 -8.902366)" width="91.8114" x="120.343" y="287.251"/><path d="M105.964 348.379C100.25 349.428 91.6486 356.056 91.6486 361.875V383.048C91.6486 386.212 93.254 389.617 99.0102 388.235 103.07 387.252 112.81 384.93 119.581 383.306 124.098 382.224 127.908 379.226 130.021 375.088 133.814 367.653 139.653 356.222 140.934 353.866 144.095 348.063 140.044 342.551 135.361 342.976 130.836 343.384 116.853 346.381 105.956 348.388L105.964 348.379Z" fill="#ffbd6e"/></g></svg>