<svg fill="none" height="495" viewBox="0 0 945 495" width="945" xmlns="http://www.w3.org/2000/svg" xmlns:xlink="http://www.w3.org/1999/xlink"><clipPath id="clip0_1471_2056"><path d="M0 0H945V495H0Z"/></clipPath><clipPath id="clip1_1471_2056"><rect height="388.591" rx="19.7054" width="497.365" x="218.336" y="40.9873"/></clipPath><g clip-path="url(#clip0_1471_2056)"><path d="M0 0H945V495H0Z" fill="#e2f1ff"/><rect fill="#b1cfe5" height="310.755" rx="15.7643" width="185.326" x="742.155" y="41.0969"/><rect fill="#b1cfe5" height="54.8121" rx="15.7643" width="185.326" x="742.155" y="374.766"/><g fill="#ffffff"><rect height="47.5188" rx="7.69988" width="15.3998" x="765.518" y="124.374"/><rect height="47.5188" rx="7.69988" width="15.3998" x="857.917" y="124.374"/><rect height="80.0779" rx="7.69988" width="15.3998" x="827.117" y="91.8149"/><rect height="65.9983" rx="7.69988" width="15.3998" x="888.716" y="105.895"/></g><rect fill="#e2f1ff" height="107.357" rx="7.69988" width="15.3998" x="796.318" y="64.5356"/><rect fill="#ffffff" height="138.598" rx="7.69988" transform="matrix(0 1 -1 0 1298.588 -509.644)" width="15.3998" x="904.116" y="394.472"/><g clip-path="url(#clip1_1471_2056)"><rect fill="#ffffff" height="388.591" rx="19.7054" width="497.365" x="218.336" y="40.9873"/><path d="M-1306.99-703.689H2908.89V1909.101H-1306.99Z" fill="#95d1f9"/><g fill="#f8f8f8"><path d="M79.7271-309.566 1.41274-378.747C-17.7292-395.657-15.8202-426.07 5.28592-440.453L161.537-546.935C167.188-550.786 173.75-553.091 180.568-553.618L358.412-567.378C377.324-568.842 394.565-556.541 399.334-538.182L414.275-480.662C416.306-472.846 415.87-464.593 413.028-457.034L365.625-330.972C364.21-327.208 363.383-323.249 363.173-319.233L355.204-166.687C354.619-155.479 349.253-145.062 340.468-138.078L124.996 33.2232C106.907 47.6037 80.3638 43.2745 67.7819 23.8917L48.9047-5.18944C44.7844-11.537 42.5916-18.9424 42.5916-26.51V-116.403C42.5916-120.612 43.2701-124.794 44.6011-128.786L90.9509-267.835C95.9184-282.738 91.4998-299.166 79.7271-309.566Z"/><path d="M708.069 421.933 673.891 382.642C661.972 368.94 642.197 365.231 626.123 373.682L604.013 385.307C593.381 390.897 589.094 403.909 594.321 414.723 599.425 425.283 595.469 437.991 585.273 443.788L523.909 478.677C511.37 485.806 495.926 485.464 483.715 477.787L473.442 471.329C463.513 465.088 456.905 454.725 455.434 443.09L453.238 425.726C451.681 413.408 456.058 401.081 465.034 392.504L472.443 385.425C477 381.07 482.541 377.88 488.596 376.125L516.091 368.157C532.694 363.345 541.749 345.477 535.811 329.243 531.362 317.082 535.264 303.44 545.47 295.471L626.67 232.061C636.059 224.729 641.547 213.481 641.547 201.568V184.73C641.547 179.394 644.74 174.576 649.655 172.497 654.729 170.35 660.602 171.559 664.416 175.536L680.805 192.622C685.502 197.519 691.391 201.111 697.895 203.047L727.603 211.888C736.505 214.538 746.058 213.937 754.558 210.193L777.4 200.131C788.393 195.289 796.556 185.669 799.543 174.034L802.983 160.638C805.493 150.86 811.683 142.43 820.26 137.106L838.739 125.636C841.985 123.622 844.372 120.479 845.441 116.812 847.141 110.985 845.28 104.702 840.681 100.739L816.686 80.0664C810.587 74.8123 807.594 66.8058 808.749 58.8394 811.001 43.299 797.702 29.9438 782.154 32.1365 771.316 33.6649 762.96 42.4574 761.985 53.3582L754.509 136.94C753.027 153.51 739.664 166.513 723.06 167.544L721.487 167.641C708.891 168.423 697.057 161.563 691.475 150.244L685.772 138.68C681.352 129.717 670.545 125.976 661.529 130.288 653.913 133.93 644.794 131.874 639.477 125.317L626.97 109.892C616.942 97.5241 615.402 80.3156 623.073 66.3631L714.634-100.159C717.592-105.54 721.774-110.149 726.843-113.615L797.808-162.146C810.01-170.491 825.871-171.252 838.817-164.116L956.999-98.9642C962.871-95.7267 966.519-89.5516 966.519-82.8457 966.519-74.909 961.431-67.8661 953.896-65.3723L916.425-52.9699C905.72-49.4268 901.143-36.8069 907.09-27.226 911.356-20.3521 919.79-17.3162 927.458-19.8943L966.212-32.9237C979.315-37.3288 988.141-49.608 988.141-63.431 988.141-70.6884 990.594-77.7328 995.101-83.4207L1004.87-95.7467C1011.26-103.818 1020.58-109.044 1030.8-110.295L1122.24-121.481C1130.16-122.451 1137.6-125.817 1143.56-131.13L1163.44-148.873C1175.15-159.317 1179.49-175.738 1174.48-190.603L1168.14-209.422C1163.73-222.489 1168.56-236.891 1179.95-244.659 1187.45-249.77 1196.82-251.311 1205.56-248.87L1238.34-239.712C1255.59-234.894 1273.91-242.392 1282.83-257.92L1391.73-447.47C1397.12-456.858 1406.16-463.594 1416.7-466.078L1466.78-477.882C1476.49-480.17 1486.71-478.667 1495.35-473.68L1562.02-435.187C1570.27-430.427 1576.49-422.828 1579.54-413.809L1585.21-397.023C1592.4-375.752 1615.97-364.868 1636.82-373.187L1702.06-399.216C1712.51-403.383 1724.24-402.858 1734.28-397.774L1790.83-369.117C1804.36-362.256 1820.65-363.837 1832.61-373.173L1914.94-437.403C1924-444.475 1935.72-447.206 1946.98-444.872L2137.72-405.318C2148.13-403.159 2158.97-405.328 2167.76-411.326L2230.06-453.886C2239.36-460.239 2250.95-462.279 2261.86-459.486L2319.12-444.827C2322.7-443.911 2326.39-443.506 2330.08-443.624L2411.5-446.228C2442.66-447.225 2462.44-413.169 2446.12-386.598L2426.15-354.09C2417.64-340.222 2418.59-322.532 2428.54-309.655L2443.02-290.915C2450.8-280.844 2453.2-267.62 2449.46-255.455L2432.63-200.751C2429.27-189.825 2421.3-180.913 2410.81-176.355L2357.15-153.024C2338.64-144.978 2329.28-124.188 2335.52-104.999L2385.9 49.8676C2390.28 63.3367 2384.34 78.0044 2371.81 84.6155 2358.17 91.8155 2341.28 87.1229 2333.3 73.9175L2295.18 10.7833C2289.47 1.31057 2288.02-10.1398 2291.21-20.7363L2301.27-54.1718C2306.3-70.9218 2299.35-88.9567 2284.37-97.9846 2269.91-106.696 2251.45-104.911 2238.94-93.5906L2214.53-71.5247C2205.38-63.2482 2192.86-59.7704 2180.75-62.1394L2164.71-65.2783C2150.3-68.0965 2135.53-62.6207 2126.44-51.0933L2085.49.848059C2072.68 17.0926 2074.71 40.4975 2090.14 54.2853L2151.47 109.124C2156.49 113.607 2160.26 119.307 2162.44 125.674L2183.29 186.816C2185.85 194.32 2186.07 202.426 2183.92 210.059L2166.64 271.525C2165.05 277.157 2162.23 282.361 2158.37 286.757L2113.67 337.671C2111.46 340.192 2108.53 341.979 2105.28 342.792 2095.91 345.134 2090.55 354.984 2093.66 364.122L2111.72 417.071C2115.2 427.272 2110.15 438.421 2100.18 442.525 2090.56 446.483 2079.51 442.58 2074.52 433.462L2057.62 402.628C2048.88 386.674 2030.05 379.168 2012.73 384.735 1990.81 391.778 1980.17 416.549 1990.13 437.296L2025.29 510.487C2026.62 513.251 2027.62 516.16 2028.26 519.157L2043.45 589.326C2046.49 603.334 2041.62 617.878 2030.78 627.246L1995.42 657.782C1991.59 661.098 1987.14 663.636 1982.33 665.256L1931.52 682.378C1911.63 689.08 1900.56 710.273 1906.42 730.427L1923 787.386C1928.22 805.339 1919.56 824.418 1902.6 832.301L1898.04 834.424C1884.13 840.89 1867.59 836.512 1858.7 824.014L1854.51 818.119C1847.16 807.788 1833.07 804.922 1822.27 811.566 1810.94 818.54 1807.41 833.385 1814.39 844.711L1852.97 907.273C1856.12 912.371 1855.58 918.919 1851.66 923.441 1846.24 929.672 1836.59 929.737 1831.1 923.578L1798.69 887.257C1796.32 884.602 1794.33 881.638 1792.76 878.444L1708.92 707.652C1702.79 695.159 1690.08 687.242 1676.16 687.242 1666.59 687.242 1657.4 691.003 1650.57 697.716L1605.68 741.869C1601.68 745.796 1598.58 750.533 1596.57 755.762L1570.48 823.786C1569.21 827.1 1567.49 830.225 1565.38 833.077L1540.62 866.475C1537.96 870.067 1534.06 872.541 1529.68 873.418 1521.68 875.017 1513.61 871.05 1509.99 863.743L1437.26 716.913C1435.87 714.113 1434.15 711.489 1432.14 709.097L1387.85 656.4C1380.41 647.549 1369.43 642.438 1357.87 642.438H1336.65C1333.11 642.438 1329.57 641.956 1326.16 641.004L1212.05 609.246C1199.6 605.783 1189.82 620.02 1197.5 630.399 1199.6 633.223 1202.7 635.125 1206.17 635.706L1249.02 642.88C1260.8 644.853 1271.04 652.093 1276.82 662.543L1277.41 663.616C1286.29 679.67 1282.84 699.739 1269.1 711.899L1211.44 762.928C1207.88 766.072 1203.79 768.545 1199.35 770.225L1160 785.121C1144.81 790.87 1127.66 786.651 1116.87 774.515L1039.38 687.34C1035.78 683.289 1029.64 682.766 1025.41 686.15 1021.77 689.057 1020.57 694.058 1022.48 698.3L1066.71 796.228C1073.65 811.598 1089.65 820.797 1106.42 819.062L1166.5 812.847C1184.82 810.951 1200.77 825.329 1200.77 843.754 1200.77 850.181 1198.77 856.449 1195.06 861.696L1084.22 1018.4C1080.36 1023.86 1077.96 1030.22 1077.25 1036.87L1056.63 1230.94C1055.72 1239.51 1052.01 1247.54 1046.07 1253.79L890.153 1417.74C882.761 1425.52 872.504 1429.92 861.777 1429.92H821.459C806.794 1429.92 793.358 1421.72 786.645 1408.68L716.055 1271.59C713.2 1266.05 711.711 1259.9 711.711 1253.66V1032.87C711.711 1028.8 711.076 1024.76 709.831 1020.88L688.887 955.756C685.733 945.948 678.841 937.778 669.703 933.017L628.628 911.615C623.443 908.913 617.718 907.407 611.875 907.207L433.911 901.109C417.986 900.564 403.979 890.422 398.49 875.463L362.376 777.037C359.165 768.288 359.181 758.68 362.419 749.942L428.65 571.217C431.928 562.371 438.289 555.006 446.563 550.476L554.12 491.59C558.162 489.377 562.563 487.895 567.121 487.212L661.439 473.078C675.364 470.991 689.337 476.541 698.035 487.614L731.476 530.183C738.9 539.633 750.252 545.151 762.27 545.151H830.318C832.411 545.151 834.5 545.319 836.566 545.653L931.283 560.961C937.715 562 944.304 561.419 950.454 559.269L978.467 549.475C994.29 543.944 1001.94 526.016 994.995 510.761 989.52 498.742 976.503 492.06 963.545 494.618L932.061 500.831C915.26 504.148 898.495 494.957 892.254 479.009 884.834 460.045 894.909 438.748 914.276 432.457L955.613 419.029C961.078 417.253 966.868 416.703 972.57 417.416L1005.05 421.477C1025.82 424.074 1044.97 409.872 1048.5 389.237L1048.86 387.175C1052.41 366.431 1038.94 346.586 1018.34 342.243L951.281 328.101C924.374 322.427 900.153 345.527 904.546 372.673L905.905 381.069C908.593 397.679 898.225 413.615 881.95 417.887 872.579 420.347 864.783 426.839 860.668 435.611L850.911 456.408C848.082 462.44 843.066 467.172 836.88 469.647 823.97 474.811 809.271 469.025 803.345 456.446L757.339 358.781C754.199 352.117 746.775 348.616 739.636 350.434 730.426 352.779 725.528 362.835 729.361 371.533L735.129 384.622C735.821 386.193 736.658 387.695 737.631 389.109L767.82 433.02C776.286 445.336 771.658 462.306 758.111 468.618 745.999 474.261 731.605 469.004 725.982 456.882L714.046 431.154C712.497 427.814 710.485 424.71 708.069 421.933Z"/><path d="M514.834 174.022 486.299 121.309C481.86 113.109 484.532 102.873 492.412 97.8879 501.75 91.9807 514.158 95.9633 518.314 106.202L533.755 144.239C535.923 149.579 539.242 154.375 543.477 158.284L556.661 170.454C578.425 190.545 570.866 226.592 542.865 236.247L520.46 243.972C514.559 246.007 508.039 243.633 504.827 238.28 502.22 233.936 502.328 228.483 505.105 224.245L513.25 211.814C520.685 200.465 521.293 185.953 514.834 174.022Z"/><path d="M470.787 209.597 485.066 197.935C492.566 191.81 493.734 180.788 487.684 173.228 481.036 164.919 468.603 164.335 461.206 171.984L448.388 185.236C441.967 191.875 442.211 202.482 448.931 208.819 454.988 214.529 464.34 214.862 470.787 209.597Z"/></g></g><path d="M557.763 203.202C567.924 190.474 591.1 159.624 591.1 142.296 591.1 121.28 574.065 104.229 553.068 104.229 532.071 104.229 515.036 121.28 515.036 142.296 515.036 159.624 538.212 190.474 548.374 203.202 550.81 206.236 555.326 206.236 557.763 203.202ZM553.068 154.985C546.076 154.985 540.391 149.295 540.391 142.296 540.391 135.297 546.076 129.607 553.068 129.607 560.061 129.607 565.746 135.297 565.746 142.296 565.746 149.295 560.061 154.985 553.068 154.985Z" fill="#3e5fff"/><rect height="372.826" rx="11.8232" stroke="#ffffff" stroke-width="15.7643" width="481.6" x="226.218" y="48.8695"/><path d="M779.709 269.262C776.955 269.262 774.702 267.026 774.93 264.281 775.827 253.491 779.627 243.11 785.97 234.258 793.284 224.052 803.611 216.393 815.501 212.357 827.391 208.321 840.247 208.11 852.262 211.755 864.278 215.4 874.85 222.717 882.494 232.679 890.138 242.64 894.469 254.746 894.88 267.296 895.291 279.845 891.761 292.209 884.785 302.649 877.809 313.089 867.738 321.082 855.986 325.505 845.795 329.341 834.783 330.324 824.129 328.398 821.419 327.909 819.842 325.153 820.555 322.493L833.136 275.539C833.984 272.372 831.598 269.262 828.32 269.262L779.709 269.262Z" fill="#e2f1ff"/><path d="M889.926 269.262C892.68 269.262 894.934 271.498 894.705 274.243 893.808 285.033 890.008 295.415 883.665 304.266 876.351 314.472 866.024 322.131 854.134 326.168 842.244 330.204 829.389 330.414 817.373 326.769 805.357 323.124 794.785 315.807 787.141 305.845 779.497 295.884 775.166 283.778 774.755 271.228 774.344 258.679 777.875 246.316 784.851 235.875 791.827 225.435 801.898 217.442 813.649 213.019 823.841 209.183 834.852 208.2 845.507 210.126 848.217 210.616 849.793 213.371 849.081 216.031L836.499 262.985C835.651 266.152 838.037 269.262 841.316 269.262H889.926Z" fill="#ffffff"/><path d="M373.8 260.498 397.212 241.05C407.858 232.207 420.125 225.522 433.328 221.37L458.168 213.557C463.146 211.991 466.417 218.669 462.129 221.643L433.98 241.162 435.752 248.34C438.706 260.3 431.196 272.337 419.155 274.943L399.034 279.298 385.879 288.897 373.8 260.498Z" fill="#f4c9b8"/><path d="M247.381 424.656C250.4 439.51 239.047 453.402 223.89 453.402H71.9934C56.775 453.402 45.4089 439.404 48.5329 424.51L52.3717 406.208-15.5897 422.627C-46.4647 430.086-69.3296 394.286-49.5783 369.411L47.0602 247.701C50.3429 243.567 54.6112 240.323 59.4735 238.267L112.028 216.046 174.581 216.046 221.574 232.792C226.94 234.704 231.688 238.035 235.313 242.43L296.941 317.148 373.783 260.511 399.004 279.462 335.04 359.847C316.029 383.738 281.804 388.91 256.582 371.705L233.404 355.893 247.381 424.656Z" fill="#4680e1"/><circle cx="144.666" cy="79.648" fill="#e47b4c" r="36.1265"/><path d="M176.829 148.159V219.308C176.829 221.325 175.543 223.102 173.632 223.72L170.398 224.766C153.601 230.172 135.533 230.172 118.751 224.766L115.539 223.72C113.628 223.102 112.342 221.325 112.342 219.33V148.159H176.837 176.829Z" fill="#f4c9b8"/><path d="M176.827 183.561 176.83 197.702C170.458 202.566 164.532 205.477 155.926 205.477 149.397 205.477 143.259 203.844 137.896 200.922 136.151 199.974 137.144 197.271 139.092 197.647 141.514 198.144 145.868 197.647 148.433 197.647 166.711 193.489 166.897 192.628 176.827 183.561Z" fill="#cea193"/><path d="M113.468 142.636C113.468 137.053 108.961 132.558 103.408 132.558 97.8556 132.558 93.3394 137.053 93.3394 142.636 93.3394 148.22 97.847 157.286 103.408 157.286 108.969 157.286 113.468 148.185 113.468 142.636Z" fill="#f4c9b8"/><path d="M195.729 142.636C195.729 137.053 191.221 132.558 185.66 132.558 180.099 132.558 175.591 137.053 175.591 142.636 175.591 148.22 180.099 157.287 185.66 157.287 191.221 157.287 195.729 148.185 195.729 142.636Z" fill="#f4c9b8"/><path d="M144.526 198.044C121.159 198.044 101.971 179.582 101.039 156.237L99.5621 132.598C98.5345 107.023 118.974 85.7258 144.535 85.7258 170.096 85.7258 190.527 107.023 189.508 132.598L188.031 156.237C187.099 179.582 167.902 198.044 144.535 198.044H144.526Z" fill="#f4c9b8"/><path d="M130.479 141.641C130.479 145.242 130.023 148.159 128.642 148.159 127.261 148.159 126.805 145.242 126.805 141.641 126.805 138.04 127.261 135.123 128.642 135.123 130.023 135.123 130.479 138.04 130.479 141.641Z" fill="#000000"/><path d="M162.49 141.641C162.49 145.242 162.034 148.159 160.653 148.159 159.273 148.159 158.816 145.242 158.816 141.641 158.816 138.04 159.273 135.123 160.653 135.123 162.034 135.123 162.49 138.04 162.49 141.641Z" fill="#000000"/><path d="M132.871 127.479C133.484 127.003 133.873 126.268 133.864 125.446 133.847 124.08 132.732 122.956 131.35 122.964 131.081 122.966 125.25 123.042 119.893 127.531 118.822 128.421 118.683 129.987 119.573 131.076 120.463 132.14 122.045 132.278 123.116 131.388 127.03 128.093 131.33 128.024 131.385 128.024 131.937 128.015 132.447 127.781 132.871 127.479Z" fill="#e47b4c"/><path d="M156.424 127.479C155.811 127.003 155.422 126.268 155.431 125.447 155.448 124.08 156.563 122.956 157.945 122.965 158.214 122.966 164.045 123.042 169.402 127.531 170.473 128.421 170.612 129.987 169.722 131.076 168.832 132.14 167.25 132.278 166.179 131.388 162.265 128.093 157.965 128.024 157.91 128.024 157.357 128.015 156.848 127.781 156.424 127.479Z" fill="#e47b4c"/><path clip-rule="evenodd" d="M137.816 168.936C137.038 168.644 136.17 169.035 135.873 169.812 135.575 170.592 135.965 171.467 136.745 171.765 136.93 171.836 137.122 171.892 137.313 171.945 137.65 172.038 138.137 172.157 138.784 172.273 140.079 172.506 142.009 172.729 144.647 172.729 147.285 172.729 149.215 172.506 150.51 172.273 151.157 172.157 151.644 172.038 151.981 171.945 152.173 171.891 152.362 171.831 152.549 171.765 153.329 171.467 153.719 170.592 153.421 169.812 153.124 169.035 152.256 168.644 151.478 168.936 151.478 168.936 151.477 168.937 151.476 168.937 151.456 168.944 151.356 168.979 151.172 169.03 150.927 169.098 150.531 169.196 149.975 169.296 148.865 169.495 147.114 169.704 144.647 169.704 142.18 169.704 140.429 169.495 139.319 169.296 138.763 169.196 138.367 169.098 138.122 169.03 137.938 168.979 137.838 168.944 137.818 168.937 137.817 168.937 137.816 168.936 137.816 168.936Z" fill="#000000" fill-rule="evenodd"/><path d="M189.577 132.083V121.763H189.542C189.542 96.9049 169.387 76.723 144.535 76.723 119.682 76.723 99.5187 96.9049 99.5187 121.763V132.057C99.5187 134.01 101.099 135.626 103.068 135.626 105.037 135.626 106.626 134.01 106.626 132.057 106.626 130.855 106.686 129.628 106.807 128.392 106.807 122.269 108.622 116.741 110.141 113.187 111.332 110.399 113.349 108.093 115.658 106.126L116.955 105.021C133.384 91.0263 157.628 91.3315 173.699 105.735V105.735C177.242 108.911 179.965 112.938 181.032 117.575 181.784 120.843 182.47 124.755 182.47 128.159V132.083C182.47 134.045 184.059 135.626 186.019 135.626 187.979 135.626 189.577 134.045 189.577 132.083Z" fill="#e47b4c"/><path d="M105.966 206.45C105.966 204.086 107.882 202.17 110.246 202.17H178.479C180.843 202.17 182.76 204.086 182.76 206.45V239.13H105.966V206.45Z" fill="#4680e1"/><path d="M71.2323 466.493H224.473L259.175 562.733C267.71 586.405 271.718 611.471 270.989 636.624L262.569 927.226H33.1371L24.7163 636.624C23.9875 611.471 27.9952 586.405 36.5307 562.733L71.2323 466.493Z" fill="#3d3d3d"/><path d="M71.1237 453.401H224.4757V466.6935H71.1237Z" fill="#000000"/><path d="M89.9249 398.815 52.1983 406.368 48.5768 424.478 91.0615 402.008C92.8072 401.085 91.8614 398.428 89.9249 398.815Z" fill="#306dc6"/><rect fill="#e3e3e3" height="130.783" rx="9.37322" transform="matrix(.98171998 -.19033097 .19033097 .98171998 -53.711631 24.292221)" width="91.8114" x="99.6091" y="291.768"/><rect fill="#ffffff" height="130.783" rx="9.37322" transform="matrix(.99663096 .08201661 -.08201661 .99663096 23.964793 -8.902366)" width="91.8114" x="120.343" y="287.251"/><path d="M105.964 348.379C100.25 349.428 91.6486 356.056 91.6486 361.875V383.048C91.6486 386.212 93.254 389.617 99.0102 388.235 103.07 387.253 112.81 384.93 119.581 383.306 124.098 382.224 127.908 379.226 130.021 375.089 133.814 367.654 139.653 356.222 140.934 353.866 144.095 348.063 140.044 342.551 135.361 342.976 130.836 343.384 116.853 346.381 105.956 348.388L105.964 348.379Z" fill="#f4c9b8"/></g></svg>