<svg fill="none" height="495" viewBox="0 0 945 495" width="945" xmlns="http://www.w3.org/2000/svg" xmlns:xlink="http://www.w3.org/1999/xlink"><clipPath id="clip0_1777_935"><path d="M0 0H945V495H0Z"/></clipPath><mask id="mask0_1777_935" height="637" maskUnits="userSpaceOnUse" width="412" x="39" y="21"><path d="M41.3309 191.263 84.0743 362.236 136.003 351.545C153.43 347.957 169.837 362.105 160.907 377.495V377.495L141.397 411.119C134.038 423.802 128.887 437.643 126.166 452.052L106.317 557.132C103.275 573.239 97.3354 588.661 88.7876 602.648L79.7582 617.424C76.0993 623.411 75.2393 630.698 77.404 637.373 81.381 649.635 92.8045 657.939 105.695 657.939H408.879C423.922 657.939 437.089 647.836 440.984 633.306L447.954 607.303C453.296 587.374 451.458 566.2 442.761 547.49L435.202 531.225C430.751 521.65 427.489 511.566 425.488 501.199L404.964 394.844C402.177 380.405 400.447 365.783 399.785 351.093L392.378 186.663 397.446 59.9681C397.889 48.8814 389.021 39.6516 377.926 39.6516H304.064C291.299 39.6516 278.579 38.1465 266.166 35.1675L220.167 24.1276C207.475 21.0816 194.233 21.1687 181.583 24.3815 160.098 29.8378 141.817 43.9155 131.052 63.2923L130.011 65.1657C125.175 73.8712 119.088 81.8203 111.945 88.7593L54.6815 144.386C42.1951 156.516 37.1089 174.375 41.3309 191.263Z" fill="#f8f8f8"/></mask><g clip-path="url(#clip0_1777_935)"><path d="M0 0H945V495H0Z" fill="#3e5fff"/><path d="M487.746 380.681 492.866 390.217C496.908 389.164 502.944 382.636 504.427 380.681L487.746 380.681Z" fill="#ffffff"/><path d="M41.3309 191.263 84.0743 362.236 136.003 351.545C153.43 347.957 169.837 362.105 160.907 377.495V377.495L141.397 411.119C134.038 423.802 128.887 437.643 126.166 452.052L106.317 557.132C103.275 573.239 97.3354 588.661 88.7876 602.648L79.7582 617.424C76.0993 623.411 75.2393 630.698 77.404 637.373 81.381 649.635 92.8045 657.939 105.695 657.939H408.879C423.922 657.939 437.089 647.836 440.984 633.306L447.954 607.303C453.296 587.374 451.458 566.2 442.761 547.49L435.202 531.225C430.751 521.65 427.489 511.566 425.488 501.199L404.964 394.844C402.177 380.405 400.446 365.783 399.785 351.093L392.378 186.663 397.446 59.9681C397.889 48.8814 389.021 39.6516 377.926 39.6516H304.064C291.299 39.6516 278.579 38.1465 266.166 35.1675L220.167 24.1276C207.475 21.0816 194.233 21.1687 181.583 24.3815 160.098 29.8378 141.817 43.9155 131.052 63.2923L130.011 65.1657C125.175 73.8712 119.088 81.8203 111.945 88.7593L54.6815 144.386C42.1951 156.516 37.1089 174.375 41.3309 191.263Z" fill="#ffffff"/><g fill="#e3e3e3" mask="url(#mask0_1777_935)"><path d="M153.663 308.446 128.64 237.45C127.666 234.686 131.499 232.864 133.027 235.365L165.074 287.805C166.892 290.779 170.333 292.352 173.772 291.779L248.153 279.382C253.363 278.514 258.105 282.531 258.105 287.813V295.502C258.105 303.8 254.857 311.767 249.055 317.699L222.38 344.974 136.867 434.407C135.03 436.328 131.88 434.347 132.817 431.86L143.16 404.371 169.684 344.974 153.663 308.446Z"/><path d="M293.27 279.413 274.686 258.507C273.151 256.779 274.652 254.083 276.93 254.479L326.144 263.038C333.911 264.389 341.888 262.412 348.127 257.592L403.66 214.68 412.568 247.342 378.896 281.575C367.874 292.782 352.813 299.093 337.094 299.093 320.346 299.093 304.397 291.931 293.27 279.413Z"/></g><path d="M134.474 91.062 133.503 83.7296C133.085 80.5781 136.605 78.4272 139.219 80.2367L150.112 87.7784C161.694 95.7963 176.064 98.6973 189.848 95.8005L196.044 94.4986C212.659 91.007 226.469 79.5185 232.926 63.8164L238.394 50.5189C239.325 48.2547 241.531 46.7767 243.979 46.7767 247.918 46.7767 250.803 50.4878 249.831 54.3054L239.398 95.282C236.074 108.341 225.388 118.228 212.111 120.532L183.694 125.461C176.057 126.786 168.196 125.476 161.401 121.747L151.916 116.54C142.38 111.306 135.904 101.846 134.474 91.062Z" fill="#e3e3e3"/><path d="M291.829 464.171C291.829 469.078 285.708 473.056 278.157 473.056 270.606 473.056 264.484 469.078 264.484 464.171 264.484 459.264 270.606 455.286 278.157 455.286 285.708 455.286 291.829 459.264 291.829 464.171Z" fill="#e3e3e3"/><path d="M257.866 251.827 227.148 222.173C225.969 221.035 227.222 219.103 228.742 219.716L252.688 229.371C253.967 229.886 255.433 229.458 256.234 228.335L273.763 203.745C274.713 202.413 276.804 203.359 276.431 204.951L266.013 249.427C265.148 253.117 260.592 254.459 257.866 251.827Z" fill="#e3e3e3"/><path d="M169.445 342.165C172.388 354.099 155.695 368.478 132.16 374.281 108.626 380.085 87.1615 375.115 84.2188 363.181 81.276 351.247 97.9689 336.868 121.504 331.064 145.038 325.261 166.502 330.231 169.445 342.165Z" fill="#e3e3e3"/><path d="M490.699 148.983 408.132 57.2447C401.171 49.5104 390.861 45.68 380.539 46.9932 364.688 49.0098 352.809 62.4964 352.809 78.4747V100.48C352.809 104.285 353.192 108.08 353.952 111.808L390.402 290.638C394.253 309.529 410.869 323.1 430.148 323.1 449.743 323.1 468.001 313.167 478.646 296.716L500.292 263.263C509.925 248.375 515.05 231.02 515.05 213.287V212.441C515.05 189.006 506.376 166.401 490.699 148.983Z" fill="#ffffff"/><path clip-rule="evenodd" d="M508.614 45.1663C510.896 44.7474 513.095 46.149 513.68 48.3949 516.372 58.7411 514.92 70.1357 508.721 79.8624 502.523 89.589 492.808 95.7178 482.293 97.6472 480.01 98.066 477.811 96.6644 477.227 94.4185 474.534 84.0724 475.986 72.6777 482.185 62.9511 488.384 53.2245 498.098 47.0956 508.614 45.1663Z" fill="#0ead69" fill-rule="evenodd"/><path clip-rule="evenodd" d="M603.324 20.0605C601.969 21.9445 602.295 24.532 604.075 26.0211 612.275 32.8807 623.195 36.4428 634.638 35.0013 646.082 33.5599 655.778 27.4009 662.02 18.7222 663.375 16.8382 663.049 14.2506 661.269 12.7615 653.07 5.90195 642.149 2.33989 630.706 3.78133 619.263 5.22277 609.567 11.3817 603.324 20.0605Z" fill="#0ead69" fill-rule="evenodd"/><path clip-rule="evenodd" d="M375.718 45.0535C376.029 43.3777 377.64 42.2718 379.316 42.5834 397.068 45.8843 417.499 56.5554 438.619 69.4699 449.223 75.9549 460.098 83.0684 470.986 90.1981L471.593 90.5954C482.293 97.6029 493.003 104.616 503.552 111.11 525.117 124.385 545.692 135.28 563.713 139.47 581.578 143.624 596.379 141.101 607.388 128.258 615.458 118.843 617.259 109.854 616.203 100.492 615.308 92.5569 612.396 84.4641 609.166 75.4851 608.453 73.5027 607.724 71.477 606.998 69.4003 603.051 58.1106 599.339 45.6466 599.697 31.6971 600.057 17.6704 604.518 2.38413 616.484-14.6448 617.464-16.0394 619.389-16.3755 620.784-15.3955 622.178-14.4155 622.515-12.4905 621.535-11.0959 610.202 5.03071 606.193 19.1533 605.867 31.8553 605.54 44.6344 608.928 56.2186 612.824 67.3632 613.498 69.2897 614.192 71.2146 614.885 73.1363 618.131 82.1396 621.352 91.0754 622.336 99.7995 623.567 110.71 621.357 121.446 612.074 132.275 599.063 147.454 581.55 149.954 562.315 145.482 543.236 141.046 521.922 129.666 500.317 116.367 489.693 109.827 478.92 102.772 468.243 95.7804L467.604 95.3619C456.704 88.2235 445.908 81.1627 435.398 74.7359 414.288 61.827 394.713 51.7248 378.188 48.6519 376.512 48.3403 375.406 46.7293 375.718 45.0535Z" fill="#000000" fill-rule="evenodd"/><path clip-rule="evenodd" d="M339.901 99.0845C340.628 101.288 339.541 103.659 337.396 104.545 327.515 108.626 316.029 108.745 305.546 103.934 295.063 99.1234 287.664 90.3375 284.315 80.185 283.588 77.981 284.676 75.6107 286.821 74.7248 296.702 70.6435 308.188 70.5245 318.671 75.3353 329.153 80.146 336.553 88.9319 339.901 99.0845Z" fill="#0ead69" fill-rule="evenodd"/><path clip-rule="evenodd" d="M95.9361 184.982C93.6893 185.563 91.3953 184.322 90.6515 182.124 87.2254 171.997 87.8581 160.528 93.3443 150.382 98.8306 140.237 108.082 133.428 118.432 130.751 120.678 130.17 122.972 131.41 123.716 133.609 127.142 143.736 126.51 155.205 121.023 165.35 115.537 175.496 106.286 182.304 95.9361 184.982Z" fill="#0ead69" fill-rule="evenodd"/><path clip-rule="evenodd" d="M296.911 35.7617C298.588 36.0646 299.703 37.67 299.4 39.3474 293.16 73.8994 279.515 98.9207 261.764 116.129 244.021 133.33 222.347 142.556 200.32 145.809 178.314 149.059 155.91 146.359 136.556 139.67 117.237 132.994 100.717 122.259 90.6959 109.208 89.6578 107.856 89.9123 105.918 91.2642 104.88 92.6161 103.842 94.5536 104.096 95.5917 105.448 104.679 117.283 120.044 127.433 138.572 133.836 157.064 140.227 178.468 142.797 199.418 139.703 220.347 136.612 240.776 127.879 257.468 111.697 274.153 95.5215 287.278 71.7363 293.325 38.2503 293.628 36.573 295.234 35.4588 296.911 35.7617Z" fill="#000000" fill-rule="evenodd"/><path d="M401.578 49.6611C393.662 40.3966 378.941 39.1299 372.57 39.6546L357.841 48.6493 378.529 74.8462 417.88 67.9878C415.744 65.7391 409.493 58.9257 401.578 49.6611Z" fill="#ffffff"/><path d="M657.89 367.457V169.658C657.89 161.869 651.576 155.554 643.791 155.554H319.134C311.345 155.554 305.031 161.869 305.031 169.658V367.457H281.164C281.164 374.76 287.084 380.68 294.387 380.68H668.534C672.186 380.68 675.49 379.201 677.886 376.805 680.278 374.413 681.757 371.108 681.757 367.457H657.89ZM315.901 171.89C315.901 168.837 318.381 166.357 321.438 166.357H641.483C644.54 166.357 647.02 168.837 647.02 171.89V352.074C647.02 355.131 644.54 357.611 641.483 357.611H321.438C318.381 357.611 315.901 355.131 315.901 352.074V171.89ZM521.617 371.256C520.644 372.228 519.301 372.83 517.818 372.83H445.103C442.137 372.83 439.729 370.423 439.729 367.457H523.192C523.192 368.94 522.59 370.283 521.617 371.256Z" fill="#3d3d3d"/><path d="M641.481 166.358H321.438C318.38 166.358 315.901 168.837 315.901 171.895V352.073C315.901 355.131 318.38 357.61 321.438 357.61H641.481C644.539 357.61 647.018 355.131 647.018 352.073V171.895C647.018 168.837 644.539 166.358 641.481 166.358Z" fill="#e3e3e3"/><path d="M523.192 367.456C523.192 368.939 522.59 370.282 521.617 371.255 520.644 372.228 519.301 372.83 517.818 372.83H445.103C442.137 372.83 439.729 370.422 439.729 367.456H523.192Z" fill="#e3e3e3"/><path d="M523.192 367.456C523.192 368.939 522.59 370.282 521.617 371.255 520.644 372.228 519.301 372.83 517.818 372.83H445.103C442.137 372.83 439.729 370.422 439.729 367.456H523.192Z" fill="#000000"/><path d="M641.482 166.359H321.439C318.381 166.359 315.902 168.838 315.902 171.896V352.074C315.902 355.132 318.381 357.611 321.439 357.611H641.482C644.54 357.611 647.019 355.132 647.019 352.074V171.896C647.019 168.838 644.54 166.359 641.482 166.359Z" fill="#000000"/><path clip-rule="evenodd" d="M657.89 367.456V367.458H681.757C681.757 371.109 680.278 374.414 677.886 376.806 675.49 379.202 672.186 380.681 668.534 380.681H294.387C287.084 380.681 281.164 374.761 281.164 367.458H305.031V367.456H657.89ZM517.818 372.832C519.301 372.832 520.644 372.23 521.617 371.257 522.59 370.284 523.192 368.941 523.192 367.458H439.729C439.729 370.424 442.137 372.832 445.103 372.832H517.818Z" fill="#f8f8f8" fill-rule="evenodd"/><path clip-rule="evenodd" d="M657.89 367.456V367.458H681.757C681.757 371.109 680.278 374.414 677.886 376.806 675.49 379.202 672.186 380.681 668.534 380.681H294.387C287.084 380.681 281.164 374.761 281.164 367.458H305.031V367.456H657.89ZM517.818 372.832C519.301 372.832 520.644 372.23 521.617 371.257 522.59 370.284 523.192 368.941 523.192 367.458H439.729C439.729 370.424 442.137 372.832 445.103 372.832H517.818Z" fill="#bcbcbc" fill-rule="evenodd"/><g fill="#ffffff"><path d="M377.756 287.363C374.797 287.363 372.191 285.414 371.356 282.575L359.659 242.828C358.745 239.72 361.074 236.607 364.313 236.607 366.511 236.607 368.434 238.084 369 240.207L377.986 273.881H378.482L387.141 241.537C387.92 238.629 390.555 236.607 393.565 236.607 396.577 236.607 399.213 238.631 399.99 241.541L408.585 273.716H409.081L418.002 240.211C418.567 238.086 420.491 236.607 422.69 236.607 425.929 236.607 428.258 239.719 427.346 242.826L415.68 282.557C414.843 285.406 412.229 287.363 409.259 287.363 406.261 287.363 403.629 285.369 402.817 282.484L393.88 250.717H393.12L384.179 282.498C383.37 285.375 380.745 287.363 377.756 287.363Z"/><path d="M464.263 287.363C461.304 287.363 458.698 285.414 457.862 282.575L446.166 242.828C445.252 239.72 447.581 236.607 450.82 236.607 453.017 236.607 454.94 238.084 455.507 240.207L464.493 273.881H464.988L473.648 241.537C474.426 238.629 477.061 236.607 480.072 236.607 483.083 236.607 485.719 238.631 486.496 241.541L495.092 273.716H495.587L504.508 240.211C505.074 238.086 506.998 236.607 509.197 236.607 512.435 236.607 514.765 239.719 513.852 242.826L502.187 282.557C501.35 285.406 498.736 287.363 495.766 287.363 492.768 287.363 490.136 285.369 489.324 282.484L480.387 250.717H479.627L470.686 282.498C469.876 285.375 467.252 287.363 464.263 287.363Z"/><path d="M550.769 287.363C547.81 287.363 545.204 285.414 544.368 282.575L532.672 242.828C531.757 239.72 534.087 236.607 537.326 236.607 539.523 236.607 541.446 238.084 542.013 240.207L550.998 273.881H551.494L560.154 241.537C560.932 238.629 563.567 236.607 566.577 236.607 569.589 236.607 572.225 238.631 573.002 241.541L581.598 273.716H582.093L591.014 240.211C591.58 238.086 593.504 236.607 595.703 236.607 598.941 236.607 601.271 239.719 600.358 242.826L588.693 282.557C587.856 285.406 585.241 287.363 582.272 287.363 579.274 287.363 576.642 285.369 575.83 282.484L566.893 250.717H566.133L557.192 282.498C556.382 285.375 553.758 287.363 550.769 287.363Z"/><path d="M492.901 390.226 484.507 360.086C482.629 355.142 477.427 352.296 472.249 353.385 468.075 354.262 465.463 358.432 466.491 362.569L472.177 385.203C473.767 391.531 480.545 395.032 486.626 392.667L492.901 390.226Z"/><path d="M476.497 390.226 468.103 360.086C466.225 355.142 461.023 352.296 455.845 353.385 451.671 354.262 449.059 358.432 450.087 362.569L455.773 385.203C457.363 391.531 464.141 395.032 470.222 392.667L476.497 390.226Z"/><path d="M461.279 390.226 452.885 360.086C451.006 355.142 445.805 352.296 440.627 353.385 436.453 354.262 433.841 358.432 434.869 362.569L440.555 385.203C442.145 391.531 448.923 395.032 455.003 392.667L461.279 390.226Z"/><path d="M446.765 387.314 431.595 362.543C428.659 358.608 423.29 357.392 418.944 359.683 415.442 361.529 414.171 365.917 416.143 369.349L426.984 388.107C430.015 393.352 436.957 394.752 441.784 391.092L446.765 387.314Z"/></g><path clip-rule="evenodd" d="M600.507 200.458C602.5 201.646 605.05 201.1 606.381 199.198 612.512 190.44 615.123 179.254 612.705 167.977 610.287 156.7 603.319 147.568 594.136 142.094 592.143 140.905 589.593 141.452 588.262 143.353 582.131 152.111 579.52 163.297 581.938 174.574 584.356 185.852 591.325 194.983 600.507 200.458Z" fill="#0ead69" fill-rule="evenodd"/><path d="M592.032 145.521C589.669 146.325 586.105 146.903 584.618 147.092V142.505L595.173 139.992 597.498 143.511C596.66 143.846 594.394 144.717 592.032 145.521Z" fill="#000000"/></g></svg>