<svg viewBox="0 0 945 495" xmlns="http://www.w3.org/2000/svg" xmlns:xlink="http://www.w3.org/1999/xlink"><clipPath id="clippath"><path d="M0 0H945V495H0Z"/></clipPath><g clip-path="url(#clippath)"><path d="M-20.48-9.13H967.16V519.73H-20.48Z" fill="#94d0f8"/><g fill="none"><path d="m332.68 443.25c-.05-1.63-1.19-70.99-1.19-72.64v-127.22c0-73.6 53.82-133.82 119.6-133.82h74.02c65.78 0 119.6 60.22 119.6 133.82v127.22s-.03 72.59-.03 72.64h-311.99Z" stroke="#3d3d3d" stroke-linecap="round" stroke-linejoin="round" stroke-width="12"/><path d="m332.06 403.09c-.03-.82-.57-35.5-.57-36.32v-63.61c0-36.8 25.8-66.91 57.33-66.91h35.48c31.53 0 57.33 30.11 57.33 66.91v63.61s-.02 36.3-.02 36.32h-149.56Z" stroke="#3d3d3d" stroke-linecap="round" stroke-linejoin="round" stroke-width="12"/><path d="m181.92 403.09c-.03-.82-.57-35.5-.57-36.32v-63.61c0-36.8 25.8-66.91 57.33-66.91h35.48c31.53 0 57.33 30.11 57.33 66.91v63.61s-.02 36.3-.02 36.32h-149.56Z" stroke="#3d3d3d" stroke-linecap="round" stroke-linejoin="round" stroke-width="12"/><path d="m410.48 234.48c.29-53.73 23.72-101.71 55.03-124.38" stroke="#3d3d3d" stroke-linecap="round" stroke-linejoin="round" stroke-width="12"/><path d="m578.34 441.87c.06-1.69 1.33-207.3 1.33-207.3 0-53.73-30.69-101.97-74.09-125.01" stroke="#3d3d3d" stroke-linecap="round" stroke-linejoin="round" stroke-width="12"/><path d="m509.44 441.88c.03-1.73.66-75.06.66-76.8v-134.51c0-48.3-11.23-94.06-28.85-119.62" stroke="#3d3d3d" stroke-linecap="round" stroke-linejoin="round" stroke-width="12"/><rect height="40.34" rx="19.08" stroke="#3d3d3d" stroke-linecap="round" stroke-linejoin="round" stroke-width="12" transform="matrix(-1 0 0 -1 969.5 175.04)" width="43.17" x="463.16" y="67.35"/></g><path d="m829.37 145.46s20.8-49.71-31.24-77.83c-24.43-13.2-57.46-37.37-61.41-40.78 0 0-7.24-6.5-9.4-1.45-2.29 5.34-2.19 11.79-1.13 17.37.9 4.71 2.66 9.04 4.87 13.27 2.11 4.04 4.33 8.13 4.6 12.78.34 5.92-1.28 11.74-2.23 17.53-1.85 11.37.92 20.36 10.8 26.83 24.27 15.9-.76 32.99 38.14 49.72 0 0 28.22 11.92 44.98-14.08" fill="#f7f7f7"/><path d="m780.64 201.84s22.44-59.02-39.58-89.95c-29.12-14.52-68.74-41.56-73.5-45.39 0 0-8.73-7.33-11.06-1.34-2.47 6.34-2.11 13.89-.65 20.39 1.23 5.49 3.46 10.49 6.21 15.36s5.38 9.35 5.88 14.79c.63 6.92-1.05 13.8-1.93 20.62-1.73 13.38 1.86 23.81 13.69 31.01 29.04 17.69.38 38.66 46.58 56.76 0 0 33.51 12.87 52.14-18.22" fill="#ffffff"/><path d="m955.88 98.04-115.47-33.06c-16.24-4.65-33.17 4.74-37.82 20.98l-81.33 284.06c-4.65 16.24 4.75 33.16 20.98 37.81l115.47 33.06c16.24 4.65 33.17-4.74 37.82-20.98l81.33-284.06c4.65-16.24-4.74-33.17-20.98-37.82Z" fill="#3e5fff"/><path d="m886.29 414.72 79.98-279.34h0c3.45-12.07-3.53-24.66-15.59-28.11l-110.76-31.7c-12.07-3.45-24.65 3.53-28.1 15.59l-79.98 279.34c-3.46 12.07 3.53 24.65 15.59 28.1l110.76 31.71c12.07 3.46 24.65-3.52 28.1-15.59Z"/><circle cx="909.36" cy="107.97" fill="#e3e3e3" r="3.64" transform="matrix(.2753018 -.96135785 .96135785 .2753018 555.26 952.49)"/><path d="m873.42 95.62 24.24 6.94c.97.28 1.53 1.29 1.25 2.25h0c-.28.97-1.29 1.53-2.25 1.25l-24.24-6.94c-.97-.28-1.53-1.29-1.25-2.25h0c.28-.97 1.29-1.53 2.25-1.25Z" fill="#e3e3e3"/><path d="M485.25 63.8 484.25-8.07" fill="none" stroke="#3d3d3d" stroke-linecap="round" stroke-linejoin="round" stroke-width="12"/><path d="m46.17 296.49 95.48-60.33.19-.11c.47-.28.94-.57 1.48-.83 6.8-3.36 15.19-.82 19.04 5.94 2.01 3.52 2.97 7.42 2.91 11.24-.12 7.31-3.69 14.41-10.23 18.63l-17.96 11.79-36.95 24.2c-1.24.81-57.65-8.14-53.96-10.51Z" fill="#663c2b"/><path d="m64.81 289.1 123.09-41.21.19-.11c.53-.19 1.13-.36 1.63-.48 7.36-1.71 14.98 2.63 17.14 10.1 1.11 3.94 1.16 7.94.26 11.63-1.73 7.07-6.81 13.16-14.16 15.83l-20.16 7.42-5.96 2.21-35.48 13c-1.41.53-70.6-16.82-66.55-18.38Z" fill="#824f36"/><path d="m61.17 289 11.79 5.92 74.64-14.97 36.63 8.02c4.11-1.15 11.74-4.3 11.74-4.3-14.08-6.64-32.33-15.81-32.33-15.81-4.07-2.27-8.29-4.26-12.93-4.52 0 0-6.99-.12-10.1.55-1.76.37-4.62.3-5.13.42l-74.31 24.69Z" fill="#663c2b"/><path d="m177.61 327.98c11.19 6.09 25.16 2.42 31.8-8.4 4.62-7.48 2.06-17.2-5.66-21.48l-45.28-25.13c-4.07-2.27-8.6-3.62-13.32-3.9 0 0-.08-.02-.32 0-3.68-.58-9.78 1.19-9.78 1.19-13.98 2.71-81.83 22.53-81.83 22.53-3.84 1.37-7.4 3.53-10.47 6.29l-63.01 57.68c-6.79 6.23-14.43 11.38-22.81 15.3l-16.49 7.76-24.98 119.21 186.24-68.26c4.49-1.02 8.8-2.7 12.78-5l40.36-23.32-14.53-45.37-32.87 14.05c-4.02 1.72-8.69 0-10.64-3.92-8.48-17.04-.84-37.69 16.67-45.13l26.13-11.09c4.5-2.09 6.65-.13 6.65-.13 5.63 3.05 31.38 17.1 31.38 17.1Z" fill="#824f36"/><path d="m196.34 361.63c-7.45-13.14-23.61-18.53-37.46-12.47l-66.85 28.57 19.78 49.45 79.11-45.29c7.03-4.15 9.44-13.17 5.42-20.26Z" fill="#824f36"/><path d="m181.35 336.4c0-16.36 0-33.24 0-33.24 0-26.37 13.25-49.31 32.36-60.19" fill="none" stroke="#3d3d3d" stroke-linecap="round" stroke-linejoin="round" stroke-width="10"/></g></svg>