<svg enable-background="new 0 0 945 495" viewBox="0 0 945 495" xmlns="http://www.w3.org/2000/svg" xmlns:xlink="http://www.w3.org/1999/xlink"><defs><path id="SVGID_00000096058363961652105540000014587257836419521465_" d="M857.8 461.5H87.2c-16.2 0-29.3-13.1-29.3-29.3V56.8c0-16.2 13.1-29.3 29.3-29.3h770.7c16.2 0 29.3 13.1 29.3 29.3v375.4C887.1 448.4 874 461.5 857.8 461.5z"/><clipPath id="SVGID_00000142868231032502488190000013555020315165281164_"><use xlink:href="#SVGID_00000096058363961652105540000014587257836419521465_"/></clipPath></defs><path d="M0 0H945V495H0Z" fill="#ff7059"/><path d="M857.8 464.6H87.2c-16.2 0-29.3-13.1-29.3-29.3V59.9c0-16.2 13.1-29.3 29.3-29.3h770.7c16.2 0 29.3 13.1 29.3 29.3v375.4C887.1 451.5 874 464.6 857.8 464.6z" fill="#e2e2e2"/><path d="M887.1 77.6H57.9V59.9c0-16.2 13.1-29.3 29.3-29.3h770.7c16.2 0 29.3 13.1 29.3 29.3V77.6z" fill="#3d3d3d"/><g fill="#f7f7f7"><circle cx="93.8" cy="54.1" r="10"/><circle cx="125.7" cy="54.1" r="10"/><circle cx="157.5" cy="54.1" r="10"/></g><g clip-path="url(#SVGID_00000142868231032502488190000013555020315165281164_)"><path d="M350.9 442.8c44.3 0 80.2-35.9 80.2-80.2s-35.9-80.2-80.2-80.2-80.2 35.9-80.2 80.2S306.6 442.8 350.9 442.8z" fill="#ffffff"/><path d="M350.9 409.6c22.5 0 40.8-18.3 40.8-40.8 0-22.5-18.3-40.8-40.8-40.8-22.5 0-40.8 18.3-40.8 40.8S328.3 409.6 350.9 409.6z" fill="#94d0f8"/><path d="M350.9 387.2c10.1 0 18.3-8.2 18.3-18.3 0-10.1-8.2-18.3-18.3-18.3-10.1 0-18.3 8.2-18.3 18.3C332.5 379 340.7 387.2 350.9 387.2z"/><circle cx="337.5" cy="357.3" fill="#ffffff" r="8.7"/><path d="M712.7 263c44.3 0 80.2-35.9 80.2-80.2s-35.9-80.2-80.2-80.2c-44.3 0-80.2 35.9-80.2 80.2S668.4 263 712.7 263z" fill="#ffffff"/><path d="M712.7 229.8c22.5 0 40.8-18.3 40.8-40.8s-18.3-40.8-40.8-40.8c-22.5 0-40.8 18.3-40.8 40.8S690.2 229.8 712.7 229.8z" fill="#94d0f8"/><path d="M712.7 207.4c10.1 0 18.3-8.2 18.3-18.3s-8.2-18.3-18.3-18.3c-10.1 0-18.3 8.2-18.3 18.3C694.4 199.2 702.6 207.4 712.7 207.4z"/><circle cx="699.4" cy="177.5" fill="#ffffff" r="8.7"/><path d="M106 442.3c44.3 0 80.2-35.9 80.2-80.2s-35.9-80.2-80.2-80.2-80.2 35.9-80.2 80.2S61.7 442.3 106 442.3z" fill="#ffffff"/><path d="M106 409.2c22.5 0 40.8-18.3 40.8-40.8 0-22.5-18.3-40.8-40.8-40.8-22.5 0-40.8 18.3-40.8 40.8C65.2 390.9 83.4 409.2 106 409.2z" fill="#94d0f8"/><path d="M106 386.7c10.1 0 18.3-8.2 18.3-18.3 0-10.1-8.2-18.3-18.3-18.3-10.1 0-18.3 8.2-18.3 18.3C87.7 378.5 95.9 386.7 106 386.7z"/><circle cx="92.6" cy="356.8" fill="#ffffff" r="8.7"/><path d="M839 442.3c44.3 0 80.2-35.9 80.2-80.2s-35.9-80.2-80.2-80.2c-44.3 0-80.2 35.9-80.2 80.2S794.7 442.3 839 442.3z" fill="#ffffff"/><path d="M839 409.2c22.5 0 40.8-18.3 40.8-40.8 0-22.5-18.3-40.8-40.8-40.8-22.5 0-40.8 18.3-40.8 40.8C798.2 390.9 816.5 409.2 839 409.2z" fill="#94d0f8"/><path d="M839 386.7c10.1 0 18.3-8.2 18.3-18.3 0-10.1-8.2-18.3-18.3-18.3-10.1 0-18.3 8.2-18.3 18.3C820.7 378.5 828.9 386.7 839 386.7z"/><circle cx="825.7" cy="356.8" fill="#ffffff" r="8.7"/><path d="M472.5 263c44.3 0 80.2-35.9 80.2-80.2s-35.9-80.2-80.2-80.2-80.2 35.9-80.2 80.2S428.2 263 472.5 263z" fill="#ffffff"/><path d="M472.5 229.8c22.5 0 40.8-18.3 40.8-40.8s-18.3-40.8-40.8-40.8c-22.5 0-40.8 18.3-40.8 40.8S450 229.8 472.5 229.8z" fill="#94d0f8"/><path d="M472.5 207.4c10.1 0 18.3-8.2 18.3-18.3s-8.2-18.3-18.3-18.3c-10.1 0-18.3 8.2-18.3 18.3C454.2 199.2 462.4 207.4 472.5 207.4z"/><circle cx="459.1" cy="177.5" fill="#ffffff" r="8.7"/><path d="M230.4 263c44.3 0 80.2-35.9 80.2-80.2s-35.9-80.2-80.2-80.2-80.2 35.9-80.2 80.2S186.1 263 230.4 263z" fill="#ffffff"/><path d="M243.6 148.3h-26.4c-6.4 0-12.3 3.4-15.5 9l-13.2 22.9c-3.2 5.5-3.2 12.4 0 17.9l13.2 22.9c3.2 5.5 9.1 9 15.5 9h26.4c6.4 0 12.3-3.4 15.5-9l13.2-22.9c3.2-5.5 3.2-12.4 0-17.9l-13.2-22.9C255.9 151.7 250 148.3 243.6 148.3z" fill="#ff7059"/><path d="M230.4 207.4c10.1 0 18.3-8.2 18.3-18.3s-8.2-18.3-18.3-18.3c-10.1 0-18.3 8.2-18.3 18.3C212 199.2 220.2 207.4 230.4 207.4z"/><circle cx="217" cy="177.5" fill="#ffffff" r="8.7"/><path d="M594.3 442.3c44.3 0 80.2-35.9 80.2-80.2s-35.9-80.2-80.2-80.2c-44.3 0-80.2 35.9-80.2 80.2S550 442.3 594.3 442.3z" fill="#ffffff"/><path d="M594.3 386.7c10.1 0 18.3-8.2 18.3-18.3 0-10.1-8.2-18.3-18.3-18.3-10.1 0-18.3 8.2-18.3 18.3C576 378.5 584.2 386.7 594.3 386.7z"/><circle cx="580.9" cy="356.8" fill="#ffffff" r="8.7"/><path d="M607.5 327.6h-26.4c-6.4 0-12.3 3.4-15.5 9l-13.2 22.9c-3.2 5.5-3.2 12.4 0 17.9l13.2 22.9c3.2 5.5 9.1 9 15.5 9h26.4c6.4 0 12.3-3.4 15.5-9l13.2-22.9c3.2-5.5 3.2-12.4 0-17.9L623 336.5C619.8 331 613.9 327.6 607.5 327.6z" fill="#ff7059"/><path d="M594.3 386.7c10.1 0 18.3-8.2 18.3-18.3 0-10.1-8.2-18.3-18.3-18.3-10.1 0-18.3 8.2-18.3 18.3C576 378.5 584.2 386.7 594.3 386.7z"/><circle cx="580.9" cy="356.8" fill="#ffffff" r="8.7"/></g></svg>