<svg fill="none" height="495" viewBox="0 0 945 495" width="945" xmlns="http://www.w3.org/2000/svg" xmlns:xlink="http://www.w3.org/1999/xlink"><clipPath id="clip0_1081_626"><path d="M0 0H945V495H0Z"/></clipPath><g clip-path="url(#clip0_1081_626)"><path d="M0 0H945V495H0Z" fill="#c3dcf4"/><g fill="#e2f1ff"><circle cx="477.638" cy="382.186" r="362.988"/><path d="M67.8844-57.8316 142.597-111.147 335.737 197.701 297.14 225.243 67.8844-57.8316Z"/><path d="M-130.322 495-143.748 404.202 219.176 372.964 226.112 419.871-130.322 495Z"/><path d="M-143.748 224.092-86.5808 82.8212 318.087 286.311 288.554 359.293-143.748 224.092Z"/><path d="M879.246-56.6352 804.534-109.95 611.393 198.897 649.99 226.44 879.246-56.6352Z"/><path d="M1077.45 496.196 1090.88 405.399 727.955 374.16 721.019 421.067 1077.45 496.196Z"/><path d="M1090.88 225.289 1033.71 84.0176 629.044 287.508 658.577 360.49 1090.88 225.289Z"/></g><path d="M234.581 438.448C201.516 440.005 184.583 399.383 208.964 376.994L332.936 263.15C341.77 255.038 352.163 248.809 363.482 244.844L429.462 221.727 522.854 221.727 584.648 245.256C594.374 248.959 603.368 254.351 611.218 261.184L743.64 376.453C768.927 398.465 752.31 440.028 718.818 438.539L622.046 434.239C614.592 433.907 607.845 429.73 604.226 423.206V423.206L471.092 382.693 342.384 423.206V423.206C337.916 429.814 330.592 433.927 322.624 434.302L234.581 438.448Z" fill="#ed9696"/><path d="M352.219 333.219H593.335L585.067 567.722H360.487L352.219 333.219Z" fill="#ed9696"/><circle cx="427.262" cy="105.459" fill="#000000" r="31.8633"/><circle cx="440.422" cy="67.5193" fill="#000000" r="31.8633"/><circle cx="519.576" cy="67.5193" fill="#000000" r="31.8633"/><circle cx="483.29" cy="51.0606" fill="#000000" r="31.8633"/><circle cx="525.391" cy="105.459" fill="#000000" r="31.8633"/><path d="M522.279 232.923C522.279 235.844 520.417 238.416 517.652 239.31L512.97 240.825C488.655 248.65 462.501 248.65 438.209 240.825L433.559 239.31C430.793 238.416 428.931 235.844 428.931 232.956V129.932H522.284L522.279 232.923Z" fill="#f4c9b8"/><path d="M436.352 134.172C436.352 127.132 430.668 121.464 423.667 121.464 416.665 121.464 410.971 127.132 410.971 134.172 410.971 141.213 416.654 152.645 423.667 152.645 430.679 152.645 436.352 141.169 436.352 134.172Z" fill="#f4c9b8"/><path d="M540.077 134.172C540.077 127.132 534.393 121.464 527.381 121.464 520.368 121.464 514.685 127.132 514.685 134.172 514.685 141.213 520.368 152.645 527.381 152.645 534.393 152.645 540.077 141.169 540.077 134.172Z" fill="#f4c9b8"/><path d="M475.514 214.92C446.05 214.92 421.855 191.641 420.679 162.204L418.817 132.397C417.521 100.148 443.295 73.2941 475.525 73.2941 507.755 73.2941 533.518 100.148 532.233 132.397L530.371 162.204C529.195 191.641 504.99 214.92 475.525 214.92H475.514Z" fill="#f4c9b8"/><path d="M473.22 218.12C470.901 217.475 471.753 214.844 474.16 214.903 474.61 214.914 475.061 214.919 475.514 214.919H475.524C495.241 214.919 512.603 204.495 522.285 188.778V209.017C513.062 216.058 501.553 220.178 489.096 220.178 484.143 220.178 478.495 219.588 473.22 218.12Z" fill="#cea193"/><path d="M532.193 132.854V107.853H532.15C532.15 76.5086 506.736 51.0606 475.399 51.0606 444.061 51.0606 418.636 76.5086 418.636 107.853V132.821C418.636 135.284 420.629 137.322 423.111 137.322 425.594 137.322 427.598 135.284 427.598 132.821 427.598 131.306 427.674 129.759 427.826 128.2 427.826 122.798 428.946 119.388 430.275 117.242 432.247 114.059 436.408 114.549 440.072 115.312 460.807 119.63 494.721 108.686 494.721 89.9425 494.721 109.504 503.055 121.561 517.891 122.638 519.349 122.743 520.908 122.901 521.876 123.997 522.583 124.797 523.232 126.039 523.232 127.906V132.854C523.232 135.328 525.236 137.322 527.707 137.322 530.179 137.322 532.193 135.328 532.193 132.854Z" fill="#000000"/><path d="M463.272 161.156C463.272 163.576 459.919 161.502 455.782 161.502 451.646 161.502 448.292 163.576 448.292 161.156 448.292 158.737 451.646 156.776 455.782 156.776 459.919 156.776 463.272 158.737 463.272 161.156Z" fill="#000000"/><path d="M503.673 161.156C503.673 163.576 500.319 161.502 496.183 161.502 492.046 161.502 488.693 163.576 488.693 161.156 488.693 158.737 492.046 156.776 496.183 156.776 500.319 156.776 503.673 158.737 503.673 161.156Z" fill="#000000"/><path d="M460.78 141.658C461.553 141.059 462.043 140.133 462.032 139.097 462.01 137.375 460.605 135.958 458.863 135.969 458.524 135.971 451.176 136.067 444.425 141.724 443.075 142.846 442.9 144.819 444.022 146.192 445.143 147.533 447.136 147.707 448.486 146.584 453.419 142.432 458.838 142.346 458.907 142.345 459.604 142.334 460.246 142.04 460.78 141.658Z" fill="#000000"/><path d="M490.463 141.658C489.69 141.059 489.2 140.133 489.21 139.097 489.232 137.375 490.637 135.958 492.379 135.969 492.718 135.971 500.066 136.067 506.817 141.724 508.167 142.846 508.342 144.819 507.22 146.192 506.099 147.533 504.106 147.707 502.756 146.584 497.823 142.432 492.404 142.346 492.335 142.345 491.639 142.334 490.996 142.04 490.463 141.658Z" fill="#000000"/><path d="M476.357 190.231C475.274 189.941 474.264 190.471 473.934 191.409 473.582 192.387 474.11 193.487 475.09 193.829 475.544 193.985 476.012 194.133 476.475 194.257 485.383 196.646 495.905 192.461 500.464 184.736 500.717 184.297 500.786 183.785 500.66 183.288 500.534 182.792 500.226 182.382 499.779 182.116 499.635 182.021 499.48 181.968 499.302 181.92 498.471 181.697 497.596 182.06 497.161 182.801 493.438 189.126 484.792 192.538 477.44 190.567 477.072 190.468 476.693 190.366 476.339 190.215L476.333 190.236 476.357 190.231Z" fill="#000000"/><path d="M548.894 262.615 490.787 393.355 348.159 378.104" stroke="#2e53bc" stroke-linecap="round" stroke-width="19.6624"/><path d="M492.782 395.645 539.648 476.962" stroke="#2e53bc" stroke-linecap="round" stroke-width="19.6624"/><path d="M382.226 311.522C381.352 306.801 384.47 302.265 389.191 301.39L526.229 276.006C530.95 275.131 535.486 278.249 536.361 282.971L560.869 415.275C561.274 417.463 559.771 419.548 557.567 419.855L406.196 440.92 382.226 311.522Z" fill="#6aaed8"/><rect fill="#f8f8f8" height="151.523" rx="9.21909" transform="matrix(-.08111398 -.99670483 .99670483 -.08111398 17.439393 878.081794)" width="120.879" x="413.482" y="431.002"/><path d="M368.297 362.436C365.935 357.289 369.047 351.294 374.615 350.262L511.118 324.977C515.034 324.251 518.942 326.28 520.603 329.9L560.419 416.688C561.025 418.01 560.226 419.549 558.796 419.814L412.807 446.857C409.674 447.437 406.547 445.814 405.219 442.918L368.297 362.436Z" fill="#95d1f9"/><path d="M402.745 246.038 345.833 375.604 395.625 461.846 539.044 478.62 600.156 346.884" stroke="#3e5fff" stroke-linejoin="round" stroke-width="19.6624"/><path d="M404.611 245.238 547.037 259.81 599.826 343.671" stroke="#2e53bc" stroke-linecap="round" stroke-linejoin="round" stroke-width="19.6624"/><path d="M398.366 459.837 454.147 329.379 600.926 345.871" stroke="#3e5fff" stroke-linecap="round" stroke-width="19.6624"/><path d="M452.151 327.088 403.511 244.689" stroke="#3e5fff" stroke-linecap="round" stroke-width="19.6624"/><path d="M306.717 424.984C318.989 430.103 332.895 422.819 335.673 409.815L348.819 348.292C350.004 342.746 347.068 337.142 341.833 334.958L341.288 334.731C335.249 332.212 328.315 335.097 325.844 341.156L298.264 408.797C295.822 414.788 298.667 421.627 304.638 424.117L306.717 424.984Z" fill="#f4c9b8"/><path d="M641.514 424.984C629.242 430.103 615.336 422.819 612.557 409.815L599.412 348.292C598.227 342.746 601.163 337.142 606.397 334.958L606.943 334.731C612.982 332.212 619.916 335.097 622.387 341.156L649.966 408.797C652.409 414.788 649.564 421.627 643.593 424.117L641.514 424.984Z" fill="#f4c9b8"/></g></svg>