<svg viewBox="0 0 945 495" xmlns="http://www.w3.org/2000/svg" xmlns:xlink="http://www.w3.org/1999/xlink"><clipPath id="clippath"><path d="M0 0H945V495H0Z"/></clipPath><g clip-path="url(#clippath)"><path d="M-97.19-13.09H999.34V496.68H-97.19Z" fill="#c2dbf3"/><circle cx="488.45" cy="269.16" fill="#3e5fff" r="335.15"/><g fill="#f1c6b5"><path d="m404.42 235.9-92.04-13.86c-13.64-2.05-26.72 6.24-30.67 19.47h0c-3.99 13.37 2.58 27.62 15.34 33.26l84.58 37.41 22.79-76.29Z"/><path d="M551.77 356.56H721.91V483.8H551.77Z" transform="matrix(.83771872 -.54610196 .54610196 .83771872 -126.12 415.93)"/><path d="m681.15 324.28c5.68 17.87 1.94 32-3.51 46.9-3.02 8.27-7.32 16.08-12.78 23-6.95 8.81-16.12 17.26-16.78 28.46-.31 5.29 1.28 11.08-1.5 15.59-2.26 3.66-6.71 5.21-10.83 6.44-26.91 8.02-54.65 13.25-82.63 15.59-23.33 1.95-47.6 1.73-69.1-7.54-29.21-12.6-49-39.83-67.33-65.84-15.68-22.26-31.36-44.52-47.04-66.78-3.93-5.58-8.07-12.12-6.44-18.75 1.13-4.61 4.82-8.08 8.34-11.26 16.21-14.68 32.43-29.36 48.64-44.04 12.43-11.26 25.24-22.75 40.87-28.84 15.85-6.18 33.32-6.31 50.33-6.35 34.89-.09 69.78-.19 104.67-.28 6.64-.02 14.39-.6 18.06-6.13-.38.54 2.28 5.71 2.6 6.5.9 2.26 1.8 4.52 2.7 6.77 1.8 4.52 3.61 9.03 5.41 13.55 3.61 9.03 7.21 18.07 10.82 27.1 6.61 16.56 13.22 33.12 19.83 49.68"/><path d="m399.09 361.04h94.59c8.14 0 14.75 6.61 14.75 14.75v40.17c0 8.14-6.61 14.75-14.75 14.75h-94.59v-69.67h0Z" transform="matrix(-.95817286 -.2861901 .2861901 -.95817286 775.22 905.07)"/><path d="m358.8 301.93h54.41c19.23 0 34.84 15.61 34.84 34.84h0c0 19.23-15.61 34.84-34.84 34.84h-54.41c-11.09 0-20.09-9-20.09-20.09v-29.5c0-11.09 9-20.09 20.09-20.09Z" transform="matrix(-.95817286 -.2861901 .2861901 -.95817286 673.92 772.04)"/></g><path d="m590.12 233.66 21.78 7.25c1.35.45 2.09 1.9 1.67 3.26h0c-.32 1.03-1.24 1.75-2.31 1.82l-20.77 1.41-.35-13.74Z" fill="#cb9e90"/><path d="m262.28 85.24L392.35.45c18.29-11.92 42.79-6.77 54.71 11.53l208.59 320c11.92 18.29 6.75 42.78-11.54 54.71l-130.07 84.79c-18.29 11.92-42.79 6.77-54.71-11.53L250.75 139.95c-11.93-18.3-6.76-42.79 11.53-54.71Z" fill="#3d3d3d"/><path d="m468.76 450.01-205.12-314.69h0c-8.86-13.6-5.02-31.81 8.57-40.67L396.98 13.34c13.6-8.86 31.8-5.02 40.66 8.57l205.12 314.69c8.86 13.6 5.03 31.79-8.57 40.66l-124.77 81.33c-13.59 8.86-31.79 5.03-40.66-8.57Z" fill="#f7f7f7"/><circle cx="323.52" cy="79.8" fill="#3d3d3d" r="4.71"/><path d="m363.23 50.86-27.31 17.8c-1.09.71-1.4 2.17-.69 3.26h0c.71 1.09 2.17 1.4 3.26.69l27.31-17.8c1.09-.71 1.4-2.17.69-3.26h0c-.71-1.09-2.17-1.4-3.26-.69Z" fill="#3d3d3d"/><path d="m404.76 417.55c-17.72-5.29-27.8-23.96-22.51-41.68l.77-2.57c5.29-17.72 23.96-27.8 41.68-22.51h0c.74.22 1.46.46 2.18.73 22 8.23 23.84 38.88 3.62 50.82l-25.74 15.21Z" fill="#f1c6b5"/><path d="m364.8 363.65c-17.72-5.29-27.8-23.96-22.51-41.68l.77-2.57c5.29-17.72 23.96-27.8 41.68-22.51h0c.74.22 1.46.46 2.18.73 22 8.23 23.84 38.88 3.62 50.82l-25.74 15.21Z" fill="#f1c6b5"/><path d="m635.63 252.32h0c13.33-37.2-8.93-77.67-47.48-86.35l-44.77-10.07c-5.23-1.18-10.51 1.72-12.34 6.75h0c-8.25 22.76 2.92 47.98 25.32 57.17l79.26 32.5Z" fill="#f1c6b5"/><path d="M0 0H945V495H0Z" fill="none"/><circle cx="451.94" cy="234.16" fill="#a3f7ca" r="62.69"/><ellipse cx="385.58" cy="182.07" fill="#0eac69" rx="25.28" ry="14.5" transform="matrix(.97228837 -.23378477 .23378477 .97228837 -31.89 95.22)"/><path d="m421.71 192.98c-1.13.74-2.64.42-3.38-.71l-4.64-7.11c-4.11-6.3-5.58-13.84-4.14-21.22l1.23-6.32c.26-1.32 1.54-2.19 2.86-1.93 1.32.26 2.19 1.54 1.93 2.86l-1.23 6.33c-1.19 6.13.03 12.39 3.44 17.62l4.64 7.11c.74 1.13.42 2.64-.71 3.38Z" fill="#3d3d3d"/><path d="m923.1 713.81-115.88 80.14c-18.97 13.12-44.99 8.38-58.11-10.6l-171.6-248.14c-13.12-18.97-8.38-44.99 10.6-58.11l115.88-80.14c18.97-13.12 39.92-8.46 58.11 10.6l237.24 225.25c13.12 18.97-57.26 67.88-76.23 81Z" fill="#ec9595"/></g></svg>