<svg viewBox="0 0 945 495" xmlns="http://www.w3.org/2000/svg" xmlns:xlink="http://www.w3.org/1999/xlink"><clipPath id="clippath"><path d="M0 0H945V495H0Z"/></clipPath><g clip-path="url(#clippath)"><path d="M-13.93-4.02H958.19V494.86H-13.93Z" fill="#e2f1ff"/><path d="m806.22 439.53H101.85c-4.6 0-8.33-3.75-8.33-8.37v-1.12c0-4.63 3.73-8.37 8.33-8.37h704.39c4.6 0 8.33 3.75 8.33 8.37v1.12c0 4.61-3.74 8.37-8.35 8.37Z" fill="#3d3d3d"/><path d="m207.42 428.55-1.28 10.97-44.97 386.44h-17.9l44.97-386.44 1.53-13.04 17.65 2.07Z" fill="#3d3d3d"/><path d="m764.81 825.97h-17.92l-44.97-386.44-1.28-10.97 17.67-2.07 1.53 13.04 44.97 386.44Z" fill="#3d3d3d"/><path d="m696.48 403.4V130.26c0-10.76-8.67-19.48-19.37-19.48H230.99c-10.7 0-19.38 8.72-19.38 19.48v273.14h484.87ZM226.54 133.34c0-4.22 3.41-7.64 7.61-7.64h439.78c4.2 0 7.61 3.42 7.61 7.64v248.82c0 4.22-3.41 7.65-7.61 7.65H234.15c-4.2 0-7.61-3.43-7.61-7.65v-248.82Zm282.68 275.3c-1.34 1.34-3.18 2.18-5.22 2.18h-99.92c-4.08 0-7.38-3.33-7.38-7.42h114.69c0 2.05-.83 3.91-2.16 5.25Z" fill="#ffffff"/><path d="m673.93 125.7H234.15c-4.2 0-7.61 3.42-7.61 7.65v248.81c0 4.22 3.41 7.65 7.61 7.65h439.78c4.2 0 7.61-3.42 7.61-7.65v-248.81c0-4.22-3.41-7.65-7.61-7.65Z" fill="#e2e2e2"/><path d="m511.39 403.4c0 2.05-.83 3.9-2.16 5.25-1.34 1.34-3.18 2.17-5.22 2.17h-99.92c-4.08 0-7.38-3.32-7.38-7.42h114.69Z" fill="#e2e2e2"/><path d="m511.39 403.4c0 2.05-.83 3.9-2.16 5.25-1.34 1.34-3.18 2.17-5.22 2.17h-99.92c-4.08 0-7.38-3.32-7.38-7.42h114.69Z" fill="#bbbbbb"/><path d="m673.93 125.7H234.15c-4.2 0-7.61 3.42-7.61 7.65v248.81c0 4.22 3.41 7.65 7.61 7.65h439.78c4.2 0 7.61-3.43 7.61-7.65v-248.81c0-4.22-3.41-7.65-7.61-7.65Z" fill="#ff7059"/><path d="m696.48 403.4h0s32.8 0 32.8 0c0 5.04-2.03 9.6-5.32 12.91-3.29 3.31-7.83 5.35-12.85 5.35H196.98c-10.04 0-18.17-8.17-18.17-18.26h32.8s484.87 0 484.87 0Zm-192.47 7.42c2.04 0 3.88-.83 5.22-2.17 1.34-1.34 2.16-3.2 2.16-5.25h-114.69c0 4.09 3.31 7.42 7.38 7.42h99.92Z" fill="#ffffff" fill-rule="evenodd"/><path d="m431.7 241c-.28-12.02 9.09-22 20.93-22.28 11.84-.28 21.67 9.24 21.96 21.26.19 7.88-3.78 14.89-9.87 18.85l.62 26.11c.15 6.22-4.75 11.43-10.87 11.57-6.12.15-11.26-4.83-11.4-11.04l-.61-26.11c-6.27-3.67-10.55-10.48-10.74-18.36h0Z"/><path d="m275.6 75.76 38.88 27.67h.01s6.53 4.64 6.53 4.64l22.08 15.71c7.99 5.72 18 6.72 26.64 3.48 4.53-1.7 8.67-4.56 11.96-8.52 6.28-7.57 5.4-18.58-1.65-25.04-.52-.48-1.07-.93-1.65-1.35l-.23-.17L263.54 7.53c-4.5-3.25 10.55 67.16 12.06 68.24Z"/><path d="m289.22 112.67 31.5 35.79h.01s5.29 6.01 5.29 6.01l17.89 20.32c6.46 7.38 15.97 10.64 25.13 9.44 4.79-.63 9.48-2.47 13.58-5.59 7.84-5.95 9.51-16.88 4.12-24.77-.4-.59-.82-1.15-1.3-1.69l-.18-.21-104.63-125.8c-3.64-4.19 7.36 85.12 8.58 86.51Z" fill="#3d3d3d"/><path d="m342.15 97.74c.36.53 1.63 3.97 2.85 5.8 2.24 3.35 5.23 11.62 5.23 11.62 1.78 5.62 1.32 11.4.5 17.25 0 0-2.53 25.64-3.98 45.19 0 0-7.2-7.54-10.39-11.85-3.19-4.32 0 0 0 0l-7.17-46.75-51.63-80.85 1.63-16.52 62.96 76.11Z"/><path d="m225.36 225.8c7.24 6.91 18.73 6.74 25.81-.38 13.1-13.17 14.12-34.05 2.36-48.35l-26.2-32.18s-40.36-43.72-16.77-61.87c0 0 21.73-21.58 45.58 5.11l32.74 35.86c4.48 4.32 3.18 7.71 3.18 7.71-1.08 8.06-5.96 44.66-5.96 44.66-2.12 15.88 8.57 30.64 24.41 33.58 10.97 2.03 21.24-5.48 22.78-16.5l9.05-64.7c.82-5.85.32-11.8-1.46-17.42 0 0-.06-.11-.11-.34-.98-4.55-5.84-10.94-5.84-10.94-9.58-15.21-63.84-85.92-63.84-85.92-3.4-3.9-7.54-7.1-12.2-9.43l-96.78-47.65c-10.42-5.13-20-11.81-28.4-19.8l-16.64-15.82-42.39 127.92 34.18 33.27c3.11 3.72 5.2 8.15 6.28 12.88 3.97 17.36 15.01 30.01 15.01 30.01l95.21 100.3Z" fill="#3d3d3d"/><path d="m-50.45-31.07L23.04-143.34c6.57-10.03 20.15-12.87 30.19-6.3l112.26 73.49c10.03 6.57 12.87 20.15 6.3 30.19l-73.49 112.26c-6.57 10.03-20.15 12.87-30.19 6.3L-54.54 9.57c-10.03-6.57-2.48-30.61 4.09-40.64Z"/><path d="m277.94 229.3c-2.98 0-5.39 2.41-5.38 5.37l.16 89.2c0 2.96 2.42 5.36 5.4 5.36l18.28-.03c2.98 0 5.39-2.41 5.38-5.37 0-2.96-2.42-5.36-5.4-5.36l-12.89.02-.03-17.79 12.89-.02c2.98 0 5.39-2.41 5.38-5.38 0-2.96-2.42-5.36-5.4-5.35l-12.89.02-.1-55.31c0-2.96-2.42-5.36-5.4-5.35Z" fill="#f7f7f7" fill-rule="evenodd"/><path d="m263.75 211.76c0 8.88 7.23 16.08 16.15 16.08s16.16-7.2 16.16-16.08-7.23-16.07-16.16-16.07-16.15 7.2-16.15 16.07Zm-10.78 0c0 14.81 12.06 26.81 26.94 26.81s26.94-12 26.94-26.81-12.06-26.81-26.94-26.81-26.94 12-26.94 26.81Z" fill="#f7f7f7" fill-rule="evenodd"/><path d="m860.45 260.24-33.76 42.3c-5.79 7.25-4.29 17.9 3.27 23.27 10.73 7.61 25.5 5.58 33.78-4.67l45.99-56.64c1.03-1.27-46.24-8.09-49.29-4.26h.01Z" fill="#663c2b"/><path d="m846.76 230.37-73.03 50.88c-7.85 4.93-9.92 15.48-4.53 23.05 7.64 10.74 22.25 13.71 33.43 6.77l81.73-48.45c1.39-.86 15.45-65.25-31.19-29.48l-6.41-2.77Z" fill="#663c2b"/><path d="m860.53 233.57c4.91-16.24-13.42-56.8-52.04-35.84l-5.9-3.74-80.05 38.8c-8.52 3.64-12.2 13.73-8.06 22.05 5.88 11.8 19.86 17.03 31.98 11.93 0 0 38.45-15.26 64.59-25.64 0 0 3.47-1.92 6.65.05l25.61 19.75" fill="#663c2b"/><path d="m937.5 199.85c9.39 3.83 19.11 6.65 29.28 7.61l20.1 1.89-8.96 96.84-183.03.39c-8.8-.16-15.86-7.36-15.86-16.2-.01-16.36 12.28-30.07 28.47-31.75l42.03-4.36c2.75-.29 3.97-3.62 2.06-5.64l-14.1-20.51c-5.68-8.64-11.19-17.03-11.19-17.03-1.52-2.33-3.98-3.86-6.72-4.24l-54.31-7.37c-1.72-.23-3.47.01-5.06.7l-37.64 16.22c-12.83 5.53-27.74.13-34.11-12.37-4.49-8.8-.67-19.58 8.36-23.54h-.02s52.6-23.07 52.6-23.07c4.75-2.09 9.91-3.08 15.09-2.91 0 0 80.9 2.61 80.91 2.61 9.59.31 18.8 5.22 27.17 9.49 10.51 5.37 19.8 9.91 29.95 15.25 11.48 6.04 22.86 13.03 34.99 17.97Z" fill="#814f36"/><path d="m594.96 170.94c1.67-8.03 9.5-13.2 17.49-11.54l189.19 39.29c7.99 1.66 13.12 9.52 11.45 17.55l-19.25 92.69c-1.67 8.03-9.5 13.2-17.49 11.54l-189.19-39.29c-7.99-1.66-13.12-9.52-11.45-17.55l19.25-92.69Z" fill="#0eac69"/><path d="m603.35 176.2c1.08-5.22 6.18-8.58 11.37-7.5l181.14 37.62c5.2 1.08 8.53 6.19 7.44 11.41l-17.89 86.13c-1.08 5.22-6.18 8.58-11.37 7.5l-181.14-37.62c-5.2-1.08-8.53-6.19-7.44-11.41l17.89-86.13Z" fill="#84dba8"/><g fill="#0eac69"><path d="m726.65 247.35c-3.66 17.6-20.82 28.92-38.33 25.28-17.52-3.64-28.75-20.85-25.1-38.46 3.66-17.6 20.82-28.92 38.33-25.28 17.52 3.64 28.75 20.86 25.1 38.46Z"/><path d="m770.82 256.11c-1.38 6.65-7.87 10.93-14.49 9.56-6.62-1.37-10.87-7.88-9.49-14.54 1.38-6.65 7.87-10.93 14.49-9.56 6.62 1.37 10.87 7.88 9.49 14.54Z"/><path d="m643.19 229.61c-1.38 6.65-7.87 10.93-14.49 9.56-6.62-1.38-10.87-7.88-9.49-14.54 1.38-6.65 7.87-10.93 14.49-9.56 6.62 1.38 10.87 7.88 9.49 14.54Z"/><path d="m589.72 226.18c-.41-8.19 5.87-15.17 14.02-15.58l192.98-9.69c8.15-.41 15.1 5.9 15.51 14.09l4.74 94.55c.41 8.19-5.87 15.17-14.02 15.58l-192.98 9.69c-8.15.41-15.1-5.9-15.51-14.09l-4.74-94.55Z"/></g><path d="m599.16 229.16c-.27-5.33 3.81-9.86 9.11-10.13l184.77-9.28c5.3-.27 9.81 3.84 10.08 9.16l4.41 87.86c.27 5.33-3.81 9.86-9.11 10.13l-184.77 9.28c-5.3.27-9.81-3.84-10.08-9.16l-4.41-87.86Z" fill="#84dba8"/><path d="m736.41 266.91c.9 17.95-12.85 33.24-30.72 34.13-17.87.9-33.08-12.93-33.98-30.89-.9-17.95 12.85-33.24 30.72-34.13 17.87-.9 33.08 12.93 33.98 30.89Z" fill="#0eac69"/><path d="m781.37 264.26c.34 6.79-4.86 12.56-11.61 12.9-6.75.34-12.51-4.89-12.85-11.68-.34-6.79 4.86-12.56 11.61-12.9 6.75-.34 12.51 4.89 12.85 11.68Z" fill="#0eac69"/><path d="m651.18 270.79c.34 6.79-4.86 12.57-11.61 12.9-6.75.34-12.51-4.89-12.85-11.68-.34-6.79 4.86-12.57 11.61-12.9 6.75-.34 12.51 4.89 12.85 11.68Z" fill="#0eac69"/><path d="m599.04 267.55c-2.14-7.92 2.52-16.07 10.4-18.2l186.54-50.37c7.88-2.13 16 2.57 18.14 10.49l24.68 91.4c2.14 7.92-2.52 16.07-10.4 18.2l-186.54 50.37c-7.88 2.13-16-2.57-18.14-10.49l-24.68-91.4Z" fill="#0eac69"/><path d="m608.91 268.45c-1.39-5.15 1.64-10.44 6.76-11.83l178.61-48.23c5.12-1.38 10.4 1.67 11.79 6.82l22.93 84.93c1.39 5.15-1.64 10.44-6.76 11.83l-178.61 48.23c-5.12 1.38-10.4-1.67-11.79-6.82l-22.93-84.93Z" fill="#84dba8"/><path d="m751.04 276.26c4.69 17.36-5.52 35.21-22.79 39.87-17.27 4.66-35.07-5.63-39.76-22.98-4.69-17.36 5.52-35.21 22.79-39.87 17.27-4.66 35.07 5.63 39.76 22.98Z" fill="#0eac69"/><path d="m794.41 264.14c1.77 6.56-2.09 13.31-8.61 15.07-6.53 1.76-13.26-2.13-15.03-8.69-1.77-6.56 2.09-13.31 8.61-15.07 6.53-1.76 13.26 2.13 15.03 8.69Z" fill="#0eac69"/><path d="m668.56 298.12c1.77 6.56-2.09 13.31-8.61 15.07-6.53 1.76-13.26-2.13-15.03-8.69-1.77-6.56 2.09-13.31 8.61-15.07 6.53-1.76 13.26 2.13 15.03 8.69Z" fill="#0eac69"/><path d="m859.59 306.45c-35.26.08-64.69.14-64.69.14-8.8-.16-15.86-7.36-15.86-16.2-.01-16.36 12.28-30.07 28.47-31.75l42.03-4.36c1.04-.11 1.85-.65 2.37-1.39" fill="#814f36"/></g></svg>