<svg fill="none" height="495" viewBox="0 0 945 495" width="945" xmlns="http://www.w3.org/2000/svg" xmlns:xlink="http://www.w3.org/1999/xlink"><clipPath id="clip0_1_67"><path d="M0 0H945V495H0Z"/></clipPath><g clip-path="url(#clip0_1_67)"><path d="M0 0H945V495H0Z" fill="#ffffff"/><path d="M0 0H945V495H0V0Z" fill="#ff7059"/><path clip-rule="evenodd" d="M697.543 495H258.615C255.861 483.536 254.402 471.567 254.402 459.258V310.102C254.402 203.258 308.512 103.619 398.19 45.4896L420.523 30.9929C452.789 10.0949 494.183 9.6927 526.85 29.9879L552.887 46.2072C645.493 103.792 701.785 205.037 701.785 314.063L701.814 314.035 701.756 459.258C701.756 471.567 700.297 483.536 697.543 495Z" fill="#000000" fill-rule="evenodd"/><path clip-rule="evenodd" d="M624.603 495H341.12L364.067 286.62H601.638L624.603 495Z" fill="#f4c9b8" fill-rule="evenodd"/><path d="M482.79 461.499C400.69 461.499 338.8 420.564 335.643 341.565L330.619 216.348C327.146 129.914 396.298 57.9486 482.79 57.9486 569.281 57.9486 638.434 129.914 634.961 216.348L629.937 341.565C626.779 420.535 564.889 461.499 482.79 461.499Z" fill="#f4c9b8"/><path d="M635.104 210.091C635.104 212.186 635.046 214.282 634.96 216.377L634.645 223.784 629.936 341.564C629.621 348.97 628.846 356.032 627.554 362.778L450.007 295.519C417.368 283.147 380.538 291.07 355.822 315.786L335.384 336.225 330.59 216.405C330.503 213.879 330.447 211.411 330.447 208.914 331.136 125.838 398.795 57.9769 482.76 57.9769 566.726 57.9769 635.046 126.498 635.046 210.119L635.104 210.091Z" fill="#cea193"/><path d="M368.628 255.791C368.628 236.989 353.386 221.717 334.555 221.717 315.723 221.717 300.48 236.96 300.48 255.791 300.48 274.623 315.723 305.337 334.555 305.337 353.386 305.337 368.628 274.594 368.628 255.791Z" fill="#cea193"/><path d="M665.074 255.791C665.074 236.989 649.832 221.717 631 221.717 612.169 221.717 596.926 236.96 596.926 255.791 596.926 274.622 612.169 305.337 631 305.337 649.832 305.337 665.074 274.594 665.074 255.791Z" fill="#cea193"/><path d="M475.557 339.384C474.122 339.384 472.745 338.695 471.912 337.403 470.592 335.394 471.166 332.695 473.175 331.375 475.558 329.825 531.678 293.511 572.01 302.352 574.364 302.869 575.856 305.194 575.34 307.548 574.823 309.902 572.498 311.395 570.144 310.878 533.401 302.812 478.486 338.322 477.94 338.666 477.194 339.154 476.39 339.384 475.557 339.384V339.384Z" fill="#000000"/><path d="M482.788 461.499C473.401 461.499 464.301 460.953 455.517 459.891 449.919 459.202 447.594 466.809 452.646 469.335 483.62 484.779 543.961 502.06 620.893 461.527L614.032 399.378C590.148 440.428 541.664 461.527 482.759 461.527L482.788 461.499Z" fill="#cea193"/><path clip-rule="evenodd" d="M701.783 495C701.803 494.121 701.814 493.24 701.814 492.358V314.006C701.814 204.981 645.55 103.706 552.916 46.1506L552.887 46.1794 526.85 29.96C494.212 9.66486 452.817 10.0383 420.523 30.965L398.19 45.4905C308.483 103.649 254.401 203.23 254.401 310.103L254.659 492.416C254.659 493.279 254.669 494.14 254.689 495H345.407L303.546 460.839C292.035 451.423 285.318 437.328 285.318 422.429V302.524C285.318 289.376 290.571 276.775 299.843 267.446L355.82 211.497C380.507 186.81 417.394 178.888 450.004 191.26L595.802 246.462C628.7 258.949 650.516 290.439 650.516 325.633V429.205C650.516 443.988 643.914 457.996 632.546 467.383L599.218 495H701.783Z" fill="#3d3d3d" fill-rule="evenodd"/><path clip-rule="evenodd" d="M945 199.431V370.23L734.074 289.95 740.359 124.98 945 199.431Z" fill="#3d3d3d" fill-rule="evenodd"/><path d="M531.397 184.574 529.084 263.24C515.512 238.301 498.548 223.522 480.195 223.522 462.922 223.522 446.883 236.608 433.774 259.084L430.844 183.497C443.953 161.021 462.768 156.402 480.195 156.402 498.548 156.402 517.826 159.481 531.243 184.574H531.397Z" fill="#fb7059"/><path d="M785.922 186.635C785.922 186.635 761.322 89.4089 653.949 93.6947 607.409 96.6991 627.562 126.551 627.562 126.551 627.562 126.551 737.542 143.833 720.259 242.815 696.692 324.515 607.137 324.515 607.137 324.515 600.853 354.367 687.266 346.511 722.696 319.738 744.431 307.738 796.671 244.309 785.922 186.635Z" fill="#f4c9b8"/><path clip-rule="evenodd" d="M0 375.737V213.039L207.742 140.691 220.311 300.947 0 375.737Z" fill="#3d3d3d" fill-rule="evenodd"/><path d="M176.319 186.635C176.319 186.635 201.245 89.4089 308.617 93.6947 355.157 96.6991 335.004 126.551 335.004 126.551 335.004 126.551 225.024 143.833 242.307 242.815 265.874 324.515 355.429 324.515 355.429 324.515 361.714 354.367 275.301 346.511 239.87 319.738 218.136 307.738 165.57 244.309 176.319 186.635Z" fill="#f4c9b8"/><path d="M402.13 310.165C452.381 279.087 467.843 213.218 436.919 163.121 405.84 112.87 339.972 97.4075 289.875 128.332 239.623 159.41 224.161 225.279 255.085 275.376 286.164 325.627 352.032 341.089 402.13 310.165Z" fill="#000000"/><path d="M672.366 310.165C722.617 279.086 738.079 213.218 707.155 163.121 676.077 112.869 610.208 97.4071 560.111 128.331 509.86 159.41 494.398 225.278 525.322 275.375 556.4 325.627 622.269 341.089 672.366 310.165V310.165Z" fill="#000000"/><path d="M672.366 310.165C722.617 279.087 738.079 213.218 707.155 163.121 676.077 112.87 610.208 97.4075 560.111 128.332 509.86 159.41 494.398 225.279 525.322 275.376 556.4 325.627 622.269 341.089 672.366 310.165V310.165Z" fill="#000000"/><path d="M249.902 162C249.902 158.686 252.588 156 255.902 156H285.093C288.407 156 291.093 158.686 291.093 162V286.53C291.093 289.843 288.407 292.53 285.093 292.53H255.902C252.588 292.53 249.902 289.843 249.902 286.53V162Z" fill="#ffffff"/><path d="M245.902 171.335C245.902 168.021 248.588 165.335 251.902 165.335H275.758C279.071 165.335 281.758 168.021 281.758 171.335V253.856C281.758 257.169 279.071 259.856 275.758 259.856H245.902C245.902 259.856 239.402 257.169 239.402 253.856L245.902 171.335Z" fill="#95d1f9"/><path d="M253.264 206.487C254.224 204.822 256.627 204.821 257.589 206.485L272.516 232.317C273.477 233.981 272.277 236.062 270.355 236.063L240.52 236.074C238.598 236.075 237.396 233.995 238.357 232.33L253.264 206.487Z" fill="#6aaed8"/><path d="M254.385 191.28C254.387 195.466 250.994 198.862 246.808 198.863 242.621 198.865 239.226 195.472 239.224 191.286 239.223 187.099 242.615 183.704 246.802 183.703 250.988 183.701 254.383 187.093 254.385 191.28Z" fill="#6aaed8"/><path d="M314.996 162C314.996 158.686 317.682 156 320.996 156H422.187C425.501 156 428.187 158.686 428.187 162V286.53C428.187 289.843 425.501 292.53 422.187 292.53H320.996C317.682 292.53 314.996 289.843 314.996 286.53V162Z" fill="#ffffff"/><path d="M324.331 171.335C324.331 168.021 327.017 165.335 330.331 165.335H412.852C416.165 165.335 418.852 168.021 418.852 171.335V253.856C418.852 257.169 416.165 259.856 412.852 259.856H330.331C327.017 259.856 324.331 257.169 324.331 253.856V171.335Z" fill="#95d1f9"/><path d="M358.409 189.147C359.369 187.482 361.772 187.482 362.734 189.146L387.685 232.325C388.647 233.99 387.447 236.071 385.525 236.071L335.654 236.09C333.732 236.091 332.53 234.011 333.49 232.346L358.409 189.147Z" fill="#6aaed8"/><path d="M390.358 206.487C391.318 204.823 393.72 204.822 394.682 206.486L409.609 232.317C410.571 233.982 409.37 236.063 407.448 236.063L377.614 236.075C375.692 236.075 374.49 233.995 375.45 232.33L390.358 206.487Z" fill="#6aaed8"/><path d="M391.479 191.28C391.481 195.466 388.088 198.862 383.902 198.863 379.715 198.865 376.32 195.472 376.318 191.286 376.317 187.099 379.709 183.704 383.896 183.703 388.082 183.701 391.477 187.093 391.479 191.28Z" fill="#6aaed8"/><path clip-rule="evenodd" d="M283.366 117.786C339.28 83.2709 412.78 100.53 447.459 156.602L447.464 156.611C481.98 212.526 464.72 286.026 408.648 320.705L408.639 320.71C352.725 355.225 279.224 337.966 244.546 281.894L244.54 281.885C210.025 225.971 227.284 152.47 283.357 117.791L283.366 117.786ZM296.39 138.874C251.963 166.353 238.299 224.585 265.629 268.863 293.109 313.289 351.342 326.952 395.62 299.62 440.044 272.139 453.705 213.907 426.374 169.63 398.894 125.208 340.666 111.546 296.39 138.874Z" fill="#fb7059" fill-rule="evenodd"/><path d="M600.825 131C600.825 124.373 606.198 119 612.825 119H669.746C676.374 119 681.746 124.373 681.746 131V187.921C681.746 194.548 676.374 199.921 669.746 199.921H612.825C606.198 199.921 600.825 194.548 600.825 187.921V131Z" fill="#95d1f9"/><path d="M626.202 170.696C625.493 171.769 625.122 173.025 625.122 174.312L625.112 178.33C625.106 180.535 626.892 182.326 629.098 182.326H653.813C656.019 182.326 657.806 180.534 657.799 178.327L657.786 174.312C657.786 173.223 657.293 171.601 656.692 170.694L653.201 165.444C652.127 163.833 649.69 162.524 647.76 162.524H635.153C633.217 162.524 630.78 163.834 629.706 165.444L626.202 170.696Z" fill="#6aaed8"/><path d="M652.132 145.869C652.132 151.761 647.356 156.537 641.464 156.537 635.573 156.537 630.796 151.761 630.796 145.869 630.796 139.978 635.573 135.201 641.464 135.201 647.356 135.201 652.132 139.978 652.132 145.869Z" fill="#6aaed8"/><path d="M709.953 288.903C709.953 285.327 707.054 282.429 703.479 282.429H591.808C588.233 282.429 585.334 285.327 585.334 288.903V288.903C585.334 292.478 588.233 295.376 591.808 295.376H703.479C707.054 295.376 709.953 292.478 709.953 288.903V288.903Z" fill="#3d3d3d"/><path d="M679 313.5C679 309.91 676.814 307 674.117 307H589.883C587.186 307 585 309.91 585 313.5V313.5C585 317.09 587.186 320 589.883 320H674.117C676.814 320 679 317.09 679 313.5V313.5Z" fill="#3d3d3d"/><path d="M579.766 214.269H710.734C722.106 214.269 731.5 223.469 731.5 235.156 731.5 246.594 722.353 256.043 710.734 256.043H579.766C568.394 256.043 559 246.843 559 235.156 559.247 223.718 568.394 214.269 579.766 214.269Z" fill="#95d1f9"/><g fill="#ffffff"><path d="M600.774 235.156C600.774 239.962 596.877 243.859 592.071 243.859 587.264 243.859 583.368 239.962 583.368 235.156 583.368 230.349 587.264 226.453 592.071 226.453 596.877 226.453 600.774 230.349 600.774 235.156Z"/><path d="M630.363 235.156C630.363 239.962 626.467 243.859 621.66 243.859 616.854 243.859 612.957 239.962 612.957 235.156 612.957 230.349 616.854 226.453 621.66 226.453 626.467 226.453 630.363 230.349 630.363 235.156Z"/><path d="M659.952 235.156C659.952 239.962 656.056 243.859 651.25 243.859 646.443 243.859 642.547 239.962 642.547 235.156 642.547 230.349 646.443 226.453 651.25 226.453 656.056 226.453 659.952 230.349 659.952 235.156Z"/><path d="M689.542 235.156C689.542 239.962 685.646 243.859 680.839 243.859 676.033 243.859 672.137 239.962 672.137 235.156 672.137 230.349 676.033 226.453 680.839 226.453 685.646 226.453 689.542 230.349 689.542 235.156Z"/><path d="M719.132 235.156C719.132 239.962 715.235 243.859 710.429 243.859 705.623 243.859 701.726 239.962 701.726 235.156 701.726 230.349 705.623 226.453 710.429 226.453 715.235 226.453 719.132 230.349 719.132 235.156Z"/></g><path clip-rule="evenodd" d="M553.602 117.786C609.516 83.2709 683.017 100.53 717.695 156.602L717.701 156.611C752.216 212.526 734.957 286.026 678.884 320.705L678.875 320.71C622.961 355.225 549.461 337.966 514.782 281.894L514.776 281.885C480.261 225.971 497.521 152.47 553.593 117.791L553.602 117.786ZM566.626 138.874C522.199 166.353 508.536 224.585 535.865 268.863 563.346 313.289 621.579 326.952 665.856 299.62 710.281 272.139 723.942 213.907 696.61 169.63 669.13 125.208 610.903 111.546 566.626 138.874Z" fill="#fb7059" fill-rule="evenodd"/></g></svg>