<svg viewBox="0 0 945 495" xmlns="http://www.w3.org/2000/svg" xmlns:xlink="http://www.w3.org/1999/xlink"><clipPath id="clippath"><path d="M0 0H945V495H0Z"/></clipPath><g clip-path="url(#clippath)"><path d="M-14.75 0H962.31V517.46H-14.75Z" fill="#e2f1ff"/><circle cx="472.93" cy="255.67" fill="#3e5fff" r="335.54"/><path d="m533.28 382.75h189.94V102.14c0-11.05-8.96-20.01-20-20.01H242.65c-11.05 0-20.01 8.96-20.01 20.01v280.6h191.22" fill="#3d3d3d"/><path d="m532.13 382.75c0 2.1-.85 4.01-2.23 5.39s-3.29 2.23-5.39 2.23h-103.16c-4.21 0-7.63-3.41-7.63-7.62h118.4Z"/><path d="m699.94 97.46H245.91c-4.34 0-7.85 3.52-7.85 7.86v255.61c0 4.34 3.52 7.86 7.85 7.86h454.03c4.34 0 7.86-3.52 7.86-7.86V105.32c0-4.34-3.52-7.86-7.86-7.86Z" fill="#c2dbf3"/><path d="m532.34 382.75h224.74c0 5.18-2.1 9.87-5.49 13.26-3.4 3.4-8.09 5.5-13.27 5.5H207.54c-10.36 0-18.76-8.4-18.76-18.76h225.01m110.71 7.63c2.1 0 4.01-.86 5.39-2.23 1.38-1.38 2.23-3.29 2.23-5.39h-118.4c0 4.21 3.42 7.63 7.63 7.63h103.16Z" fill="#f7f7f7" fill-rule="evenodd"/><path d="m898.26 417.52v-4.22c0-6.6-5.4-12-12-12H59.64c-6.6 0-12 5.4-12 12v4.22c0 6.6 5.4 12 12 12h50.31l-47.24 129.59 30 5.47 49.6-135.06h672.79l52.63 143.3 30-5.47-50.24-137.84h38.78c6.6 0 12-5.4 12-12Z" fill="#ffbc6e"/><path d="m532.13 382.86c-.03 2.06-.88 3.92-2.23 5.27-1.38 1.38-3.29 2.24-5.39 2.24h-103.16c-4.17 0-7.57-3.36-7.62-7.52"/><path d="m453.32 368.5c.3 0 .59 0 .89 0" fill="#f7f7f7"/><path d="m394.98 258.73c-3.86 0-7.54.77-10.91 2.16-4.62-16.41-19.68-28.44-37.57-28.44-21.56 0-39.03 17.48-39.03 39.03 0 .08 0 .15 0 .23-.98-.14-1.97-.23-2.98-.23-11.87 0-21.5 9.63-21.5 21.5s9.55 21.01 21.42 21.01h91.8c15.81 0 27.39-10.82 27.39-26.63s-12.82-28.63-28.63-28.63Z" fill="#ffffff"/><path d="m707.8 191.7h-216.65c-2.51 0-4.54-2.03-4.54-4.54v-89.69h-26.66v89.55c0 2.59-2.1 4.68-4.68 4.68h-217.2v22.38h217.26c2.55 0 4.62 2.07 4.62 4.62v149.81h26.66v-149.6c0-2.66 2.16-4.82 4.82-4.82h216.37v-22.38Z" fill="#9ac1dd"/><path d="m663.36 368.78h36.58c4.34 0 7.86-3.52 7.86-7.86V105.32c0-4.34-3.52-7.86-7.86-7.86 0 0-101.68 0-213.34 0 0 0 16.93 118.46 162.97 126.57l-43.81 144.75h57.6Z" fill="#ec9595"/><path d="m649.57 224.03 36.78-6.15s5.68-.81 5.68 4.54c0 2.23-1.59 2.97-5.6 4.53-14.15 5.49-42.7 16.36-42.7 16.36l5.84-19.28Z" fill="#cd8181"/></g></svg>