<svg viewBox="0 0 945 495" xmlns="http://www.w3.org/2000/svg" xmlns:xlink="http://www.w3.org/1999/xlink"><clipPath id="clippath"><path d="M0 0H945V495H0Z"/></clipPath><g clip-path="url(#clippath)"><path d="M0 0H958.81V508.58H0Z" fill="#e2f1ff"/><circle cx="476.63" cy="404.32" fill="#3e5fff" r="391.88"/><path d="m357.61 206.41c0 86.46-70.09 156.56-156.56 156.56S44.5 292.87 44.5 206.41 114.59 49.85 201.06 49.85s156.56 70.09 156.56 156.56Z"/><path d="m289.36 302.61c2.7 2.81 7.16 2.96 9.89.18 12.02-12.23 21.93-26.93 28.9-43.75 2.22-5.37 4.08-10.8 5.59-16.27 1.21-4.38-2.2-8.56-6.74-8.56h-13.19c-3.26 0-6.09 2.21-7.07 5.32-.98 3.1-2.1 6.18-3.37 9.25-5.45 13.16-13.15 24.72-22.47 34.4-2.8 2.91-2.97 7.54-.18 10.45l8.63 8.98Z" fill="#4680e0"/><path d="m243.44 104.09c-56.51-23.41-121.29 3.43-144.7 59.94-17.5 42.25-6.91 89.14 23.17 119.89 2.85 2.92 3.04 7.61.19 10.54l-8.68 8.91c-2.69 2.76-7.11 2.91-9.83.18-38.01-38.17-51.53-96.89-29.62-149.76 29.07-70.19 109.54-103.52 179.73-74.45 40.81 16.9 69.16 51.18 80.03 90.71 1.2 4.38-2.2 8.56-6.74 8.56h-13.18c-3.26 0-6.09-2.21-7.07-5.32-9.48-30.19-31.77-56.12-63.29-69.18Z" fill="#94d0f8"/><path d="m195.75 206.41c0-3.36 2.73-6.09 6.09-6.09h124.08c3.36 0 6.09 2.73 6.09 6.09s-2.73 6.09-6.09 6.09h-124.08c-3.36 0-6.09-2.73-6.09-6.09Z" fill="#f8f8f8" fill-rule="evenodd"/><path d="m201.08 189.58c3.31 0 6.59.98 9.35 2.82 2.76 1.84 4.93 4.48 6.19 7.54 1.29 3.07 1.62 6.44.95 9.72-.67 3.28-2.24 6.26-4.6 8.62-2.36 2.36-5.33 3.96-8.61 4.6-3.25.64-6.65.31-9.72-.95-3.06-1.29-5.7-3.43-7.54-6.19-1.84-2.76-2.82-6.01-2.82-9.35 0-4.45 1.78-8.74 4.9-11.9 3.19-3.13 7.45-4.91 11.89-4.91Z" fill="#f8f8f8"/><path d="m192.65 206.39c0-4.67 3.78-8.45 8.45-8.45s8.45 3.78 8.45 8.45-3.78 8.45-8.45 8.45-8.45-3.78-8.45-8.45Z"/><path d="m651.05 160.73c0 11.41-9.28 21.21-12.62 31.5-3.46 10.67-1.84 24.03-8.3 32.91-6.53 8.97-19.78 11.52-28.75 18.05-8.88 6.46-15.37 18.32-26.04 21.78s-22.46-2.32-33.87-2.32-23.58 5.67-33.87 2.32c-10.67-3.46-17.16-15.32-26.04-21.78-8.97-6.53-22.22-9.08-28.75-18.05-6.46-8.88-4.84-22.24-8.3-32.91s-12.62-20.1-12.62-31.5 9.28-21.21 12.62-31.5c3.46-10.67 1.84-24.03 8.3-32.91s19.78-11.52 28.75-18.05c8.88-6.46 15.37-18.32 26.04-21.78 10.29-3.34 22.46 2.32 33.87 2.32s23.58-5.67 33.87-2.32 17.16 15.32 26.04 21.78c8.97 6.53 22.22 9.08 28.75 18.05 6.46 8.88 4.84 22.24 8.3 32.91 3.34 10.29 12.62 20.1 12.62 31.5Z"/><path d="m748.8 526.55c-47.99 50.37-128.01 2.85-203.06 2.85s-162.31 53.68-210.46 1.27c5.81-21.16 11.62-42.32 17.43-63.48 14.96-54.48 20.9-113.61 73.86-145.69 0 0 26.78-16.23 26.78-16.23l22.22-13.46c2.03-1.24 10-6.26 19.79-12.26 9.95-6.08 21.78-13.19 31.13-18.34 7.64-4.2 13.63-7.11 15.61-7.11s8.08 2.86 15.95 7.02c5.25 2.77 11.27 6.11 17.33 9.56.56.32 1.11.64 1.67.96 3.98 2.27 7.96 4.58 11.73 6.78 11.1 6.49 20.35 12.08 22.5 13.39l19.37 11.74s29.63 17.95 29.63 17.95c13.73 8.31 25.75 19.34 35.21 32.31 11.03 15.12 16.2 32.18 20.95 50 3.4 12.73 6.71 25.47 10.07 38.21 6.52 24.75 13.05 49.5 19.57 74.25.9 3.43 1.81 6.86 2.71 10.29Z" fill="#bba3e9"/><path d="m528.31 395.45c-4.2-4.14-11-4.09-15.15.11l-23.98 24.32c-4.14 4.2-4.1 11 .11 15.15 1.07 1.05 2.33 1.9 3.7 2.4l46.43 17.51c5.07 1.94 10.67 1.95 15.75.09l15.62-5.71c4.1-1.52 5.27-6.78 2.13-9.88l-44.61-43.99h0Z" fill="#ffbd6e"/><path d="m594.54 370.2h-43.49c-8.89 0-16.13 7.19-16.13 16.13v98.5c0 8.89 7.24 16.13 16.13 16.13h43.49c8.89 0 16.13-7.24 16.13-16.13v-98.5c0-8.93-7.23-16.13-16.13-16.13Z" fill="#ffffff"/><g fill="#ffbd6e"><path d="m618.14 430.63h-62.65c-4.41 0-7.28 4.57-5.42 8.53l7.11 15.04c2.3 4.89 6.31 8.81 11.28 10.99l45.35 20.13c1.33.61 2.83.89 4.33.89 5.9 0 10.71-4.81 10.71-10.71v-34.15c0-5.9-4.81-10.71-10.71-10.71h0Z"/><path d="m593.03 288.15c0 3.1-1.98 5.84-4.92 6.79l-4.98 1.61c-25.87 8.32-53.7 8.32-79.55 0l-4.95-1.61c-2.94-.95-4.92-3.68-4.92-6.75v-109.52h99.33v109.49Z"/><path d="m501.6 183.17c0-7.48-6.05-13.51-13.5-13.51s-13.51 6.02-13.51 13.51 6.05 19.64 13.51 19.64 13.5-12.2 13.5-19.64Z"/><path d="m611.97 183.17c0-7.48-6.05-13.51-13.51-13.51s-13.51 6.02-13.51 13.51 6.05 19.64 13.51 19.64 13.51-12.2 13.51-19.64Z"/><path d="m543.27 269.02c-31.35 0-57.1-24.75-58.35-56.04l-1.98-31.69c-1.38-34.28 26.05-62.83 60.34-62.83s61.71 28.55 60.34 62.83l-1.98 31.69c-1.25 31.29-27.01 56.04-58.36 56.04h-.01Z"/></g><path d="m540.83 272.42c-2.47-.69-1.56-3.48 1-3.42.48.01.96.02 1.44.02h.01c20.98 0 39.45-11.08 49.76-27.79v21.52c-9.81 7.48-22.06 11.86-35.31 11.86-5.27 0-11.28-.63-16.89-2.19Z" fill="#e49948"/><path d="m524.3 210.16c0 4.83-.61 8.74-2.46 8.74s-2.46-3.91-2.46-8.74.61-8.74 2.46-8.74 2.46 3.91 2.46 8.74Z"/><path d="m567.25 210.16c0 4.83-.61 8.74-2.46 8.74s-2.46-3.91-2.46-8.74.61-8.74 2.46-8.74 2.46 3.91 2.46 8.74Z"/><path d="m527.59 191.13c.82-.64 1.34-1.62 1.33-2.72-.02-1.83-1.52-3.34-3.37-3.33-.36 0-8.18.1-15.36 6.12-1.44 1.19-1.62 3.29-.43 4.75 1.19 1.43 3.31 1.61 4.75.42 5.25-4.41 11.01-4.51 11.09-4.51.74-.01 1.42-.32 1.99-.73Z"/><path d="m559.18 191.13c-.82-.64-1.34-1.62-1.33-2.72.02-1.83 1.52-3.34 3.37-3.33.36 0 8.18.1 15.36 6.12 1.44 1.19 1.62 3.29.43 4.75-1.19 1.43-3.31 1.61-4.75.42-5.25-4.41-11.01-4.51-11.09-4.51-.74-.01-1.42-.32-1.99-.73Z"/><path d="m544.17 242.77c-1.15-.31-2.23.25-2.58 1.25-.37 1.04.19 2.21 1.23 2.57.48.17.98.32 1.47.45 9.48 2.54 20.67-1.91 25.53-10.12.27-.47.34-1.01.21-1.54-.13-.53-.46-.96-.94-1.25-.15-.1-.32-.16-.51-.21-.88-.24-1.82.15-2.28.94-3.96 6.72-13.16 10.35-20.98 8.26-.39-.11-.79-.21-1.17-.37v.02s.02 0 .02 0Z"/><path d="m603.79 181.77v-26.58h-.05c0-33.32-27.04-60.37-60.39-60.37s-60.4 27.05-60.4 60.37v26.54c0 2.62 2.12 4.78 4.76 4.78s4.77-2.17 4.77-4.78c0-1.61.08-3.26.24-4.91 0-5.74 1.19-9.37 2.61-11.65 2.1-3.38 6.53-2.86 10.42-2.05 22.06 4.59 58.15-7.04 58.15-26.97 0 20.8 8.87 33.61 24.65 34.76 1.55.11 3.21.28 4.24 1.44.75.85 1.44 2.17 1.44 4.16v5.26c0 2.63 2.13 4.75 4.76 4.75s4.77-2.12 4.77-4.75Z"/></g></svg>