<svg enable-background="new 0 0 945 495" viewBox="0 0 945 495" xmlns="http://www.w3.org/2000/svg" xmlns:xlink="http://www.w3.org/1999/xlink"><defs><path id="SVGID_1_" d="M0 0H945V495H0Z"/><clipPath id="SVGID_00000029724051128689716780000015258444402555943350_"><use xlink:href="#SVGID_1_"/></clipPath></defs><g clip-path="url(#SVGID_00000029724051128689716780000015258444402555943350_)"><path d="M0 0H945.9V495H0Z" fill="#f7f7f7"/><path d="M618.7 27.7H327.1c-35.4 0-68 18.9-85.7 49.5L95.6 329.7c-17.7 30.6-17.7 68.4 0 99l145.8 252.5c17.7 30.6 50.4 49.5 85.7 49.5h291.6c35.4 0 68-18.9 85.7-49.5l145.8-252.5c17.7-30.6 17.7-68.4 0-99L704.4 77.2C686.8 46.6 654.1 27.7 618.7 27.7L618.7 27.7z" fill="#ff7059"/><path d="M760.4 442.8V120.5c0-12.7-10.3-23-23-23h-529c-12.7 0-23 10.3-23 23v322.3L760.4 442.8 760.4 442.8zM203.2 124.1c0-5 4-9 9-9h521.5c5 0 9 4 9 9v293.6c0 5-4 9-9 9H212.2c-5 0-9-4-9-9L203.2 124.1 203.2 124.1zM538.4 449c-1.6 1.6-3.8 2.6-6.2 2.6H413.7c-4.8 0-8.8-3.9-8.8-8.8h136C540.9 445.2 539.9 447.4 538.4 449z"/><path d="M733.7 115.1H212.2c-5 0-9 4-9 9v293.6c0 5 4 9 9 9h521.5c5 0 9-4 9-9V124.1C742.7 119.1 738.7 115.1 733.7 115.1z" fill="#3d3d3d"/><path d="M540.9 442.8c0 2.4-1 4.6-2.6 6.2s-3.8 2.6-6.2 2.6H413.7c-4.8 0-8.8-3.9-8.8-8.8H540.9z" fill="#bcbcbc"/><path d="M540.9 442.8c0 2.4-1 4.6-2.6 6.2s-3.8 2.6-6.2 2.6H413.7c-4.8 0-8.8-3.9-8.8-8.8H540.9z"/><path clip-rule="evenodd" d="M760.4 442.8h38.9c0 6-2.4 11.3-6.3 15.2-3.9 3.9-9.3 6.3-15.2 6.3H168.1c-11.9 0-21.5-9.6-21.5-21.5L760.4 442.8 760.4 442.8zM532.2 451.5c2.4 0 4.6-1 6.2-2.6 1.6-1.6 2.6-3.8 2.6-6.2h-136c0 4.8 3.9 8.8 8.8 8.8L532.2 451.5 532.2 451.5z" fill="#bcbcbc" fill-rule="evenodd"/><path d="M476.1 310.8c39 0 70.6-31.6 70.6-70.6s-31.6-70.6-70.6-70.6-70.6 31.6-70.6 70.6S437.1 310.8 476.1 310.8L476.1 310.8z" fill="#ffffff"/><path d="M476.1 278.1c20.9 0 37.9-17 37.9-37.9s-17-37.9-37.9-37.9-37.9 17-37.9 37.9S455.2 278.1 476.1 278.1L476.1 278.1z" fill="#ff7059"/><path d="M476.1 257.2c9.4 0 17-7.6 17-17s-7.6-17-17-17-17 7.6-17 17C459.1 249.6 466.7 257.2 476.1 257.2z"/><circle cx="463.7" cy="229.4" fill="#ffffff" r="8.1"/><path d="M226.1 125.9h492c6 0 10.9 4.9 10.9 10.9v26.7c0 6-4.9 10.9-10.9 10.9h-492c-6 0-10.9-4.9-10.9-10.9v-26.7C215.2 130.8 220.1 125.9 226.1 125.9z" fill="#ffffff"/><path d="M718.1 177.2h-492c-7.5 0-13.7-6.1-13.7-13.7v-26.7c0-7.5 6.1-13.7 13.7-13.7h492c7.5 0 13.7 6.1 13.7 13.7v26.7C731.8 171 725.6 177.2 718.1 177.2zM226.1 128.6c-4.5 0-8.1 3.7-8.1 8.2v26.7c0 4.5 3.7 8.2 8.1 8.2h492c4.5 0 8.2-3.7 8.2-8.2v-26.7c0-4.5-3.7-8.2-8.2-8.2H226.1z" fill="#3d3d3d"/><path d="M716.8 222.8l-228.1-28c-11-1.4-22.1-1.4-33.2 0l-228.1 28c-1.3.2-2.6.2-3.9-.2-4.8-1.2-8.3-5.5-8.3-10.6v-26.7c0-6 4.9-10.9 10.9-10.9l239-11.6c4.4-.2 8.8-.2 13.1 0l239.8 11.6c6 0 10.9 4.9 10.9 10.9V212c0 5.1-3.5 9.4-8.3 10.6C719.4 222.9 718.1 222.9 716.8 222.8L716.8 222.8z" fill="#ffffff"/><path d="M718.4 225.6c-.6 0-1.3 0-2-.1l0 0-228.1-28c-10.8-1.3-21.7-1.3-32.5 0l-228.1 28c-1.8.2-3.4.2-4.9-.2-6.1-1.5-10.4-7-10.4-13.3v-26.7c0-7.5 6.1-13.6 13.6-13.7l239-11.6c4.4-.2 8.9-.2 13.4 0l239.8 11.6c7.5 0 13.6 6.2 13.6 13.7V212c0 6.3-4.3 11.8-10.4 13.3C720.5 225.5 719.5 225.6 718.4 225.6zM717.1 220c1.1.1 2.1.1 2.9-.1 3.7-.9 6.2-4.2 6.2-7.9v-26.7c0-4.5-3.7-8.1-8.2-8.1l-.1 0-239.8-11.6c-4.3-.2-8.6-.2-12.9 0l-239.2 11.6c-4.5 0-8.2 3.7-8.2 8.1V212c0 3.8 2.5 7 6.2 7.9.8.2 1.8.2 2.9.1l228.1-28c11.2-1.4 22.6-1.4 33.8 0L717.1 220z" fill="#3d3d3d"/><path d="M226.1 322.2h492c6 0 10.9 4.9 10.9 10.9v26.7c0 6-4.9 10.9-10.9 10.9h-492c-6 0-10.9-4.9-10.9-10.9v-26.7C215.2 327 220.1 322.2 226.1 322.2z" fill="#ffffff"/><path d="M718.1 373.5h-492c-7.5 0-13.7-6.1-13.7-13.7v-26.7c0-7.5 6.1-13.7 13.7-13.7h492c7.5 0 13.7 6.1 13.7 13.7v26.7C731.8 367.3 725.6 373.5 718.1 373.5zM226.1 324.9c-4.5 0-8.1 3.7-8.1 8.2v26.7c0 4.5 3.7 8.2 8.1 8.2h492c4.5 0 8.2-3.7 8.2-8.2v-26.7c0-4.5-3.7-8.2-8.2-8.2H226.1z" fill="#3d3d3d"/><path d="M226.1 370.7h492c6 0 10.9 4.9 10.9 10.9v26.7c0 6-4.9 10.9-10.9 10.9h-492c-6 0-10.9-4.9-10.9-10.9v-26.7C215.2 375.6 220.1 370.7 226.1 370.7z" fill="#ffffff"/><path d="M718.1 422h-492c-7.5 0-13.7-6.1-13.7-13.7v-26.7c0-7.5 6.1-13.7 13.7-13.7h492c7.5 0 13.7 6.1 13.7 13.7v26.7C731.8 415.8 725.6 422 718.1 422zM226.1 373.5c-4.5 0-8.1 3.7-8.1 8.1v26.7c0 4.5 3.7 8.2 8.1 8.2h492c4.5 0 8.2-3.7 8.2-8.2v-26.7c0-4.5-3.7-8.1-8.2-8.1H226.1z" fill="#3d3d3d"/><path d="M722.1 320.4l-237.5 13c-8.3.5-16.7.5-25 0l-237.5-13c-3.9-.2-6.9-3.4-6.9-7.3v-33.6c0-4.3 3.7-7.6 8-7.2l248.9 23.5L721 272.2c4.3-.4 8 3 8 7.2v33.6C729 317 726 320.1 722.1 320.4L722.1 320.4z" fill="#ffffff"/><path d="M472.1 336.4c-4.2 0-8.4-.1-12.6-.3l-237.5-12.9c-5.3-.3-9.5-4.7-9.5-10v-33.6c0-2.8 1.2-5.5 3.3-7.4 2.1-1.9 4.9-2.8 7.7-2.6l248.7 23.5 248.7-23.5c2.8-.3 5.6.7 7.7 2.6 2.1 1.9 3.3 4.6 3.3 7.4v33.6c0 5.3-4.2 9.7-9.5 10l-237.5 12.9C480.6 336.3 476.3 336.4 472.1 336.4zM222.5 274.9c-1.1 0-2.2.4-3 1.2-.9.9-1.5 2-1.5 3.3v33.6c0 2.4 1.9 4.4 4.3 4.5l237.5 12.9c8.2.4 16.5.4 24.7 0L722 317.6c2.4-.1 4.3-2.1 4.3-4.5v-33.6c0-1.3-.5-2.5-1.5-3.3-1-.9-2.2-1.3-3.5-1.2l-249.2 23.5-.3 0L222.9 275C222.8 274.9 222.6 274.9 222.5 274.9z" fill="#3d3d3d"/><circle cx="233.4" cy="144.2" fill="#3d3d3d" r="5.9"/><circle cx="233.4" cy="192.7" fill="#3d3d3d" r="5.9"/><circle cx="233.4" cy="292" fill="#3d3d3d" r="5.9"/><circle cx="233.4" cy="340.5" fill="#3d3d3d" r="5.9"/><circle cx="233.4" cy="389" fill="#3d3d3d" r="5.9"/><path d="M723.1 271.2l-235.3 46.4c-10.4 2-21.1 2-31.5 0l-235.3-46.4c-3.4-.7-5.9-3.7-5.9-7.1v-32.9c0-4.8 4.6-8.3 9.2-7L449.9 288c14.5 4.1 29.9 4.1 44.5 0l225.4-63.9c4.6-1.3 9.2 2.2 9.2 7V264C729 267.5 726.5 270.5 723.1 271.2L723.1 271.2z" fill="#ffffff"/><g fill="#3d3d3d"><path d="M472.1 321.8c-5.4 0-10.9-.5-16.3-1.6l-235.3-46.4c-4.7-.9-8.1-5.1-8.1-9.8v-32.9c0-3.2 1.5-6.1 4-8 2.5-1.9 5.7-2.5 8.8-1.7l225.4 63.9c14.1 4 28.9 4 43 0L719 221.4c3-.9 6.2-.3 8.8 1.6 2.5 1.9 4 4.8 4 8V264c0 4.8-3.4 8.9-8.1 9.8l0 0-235.3 46.4C483 321.3 477.6 321.8 472.1 321.8zM222.5 226.6c-1 0-1.9.3-2.7.9-1.1.9-1.8 2.2-1.8 3.6V264c0 2.2 1.5 4 3.6 4.4l235.3 46.4c10.1 2 20.4 2 30.5 0l235.2-46.4c2.1-.4 3.6-2.3 3.6-4.4v-32.9c0-1.4-.7-2.7-1.8-3.6-1.1-.9-2.6-1.1-3.9-.7l-225.4 63.9c-15 4.3-30.9 4.3-46 0l-225.4-63.9C223.3 226.6 222.9 226.6 222.5 226.6z"/><circle cx="233.4" cy="242.7" r="5.9"/><circle cx="710.7" cy="144.2" r="5.9"/><circle cx="710.7" cy="192.7" r="5.9"/><circle cx="710.7" cy="292" r="5.9"/><circle cx="710.7" cy="340.5" r="5.9"/><circle cx="710.7" cy="389" r="5.9"/><circle cx="710.7" cy="242.7" r="5.9"/></g></g></svg>