<svg width="945" height="495" viewBox="0 0 945 495" fill="none" xmlns="http://www.w3.org/2000/svg">
<g clip-path="url(#clip0_1371_601)">
<rect width="945" height="495" fill="#3E5FFF"/>
<rect x="210.17" y="310.182" width="365.252" height="222.396" rx="30.9058" transform="rotate(-12.8598 210.17 310.182)" fill="#D9D9D9"/>
<path fill-rule="evenodd" clip-rule="evenodd" d="M573.139 259.02C573.787 261.857 574.116 264.782 573.661 267.656C571.951 278.449 565.978 288.359 556.696 294.9L431.7 382.99C422.874 389.209 411.959 391.717 401.304 389.972L249.171 365.066C235.669 362.855 224.358 354.148 218.631 342.135C216.877 338.456 216.011 334.361 216.423 330.306C217.726 317.478 227.033 306.332 240.3 303.303L536.13 235.768C552.771 231.969 569.34 242.379 573.139 259.02V259.02Z" fill="white"/>
<rect x="575.859" y="317.781" width="52.5621" height="52.5621" rx="8.37792" transform="rotate(-13.4546 575.859 317.781)" fill="#D9D9D9"/>
<rect x="584.083" y="422.717" width="52.5621" height="52.5621" rx="8.37792" transform="rotate(-13.4546 584.083 422.717)" fill="#D9D9D9"/>
<rect x="647.433" y="359.367" width="52.5621" height="52.5621" rx="8.37792" transform="rotate(-13.4546 647.433 359.367)" fill="white"/>
<rect x="615.758" y="245.546" width="52.5621" height="52.5621" rx="8.37792" transform="rotate(-13.4546 615.758 245.546)" fill="#E3E3E3"/>
<rect x="689.13" y="286.107" width="52.5621" height="52.5621" rx="8.37792" transform="rotate(-13.4546 689.13 286.107)" fill="#E3E3E3"/>
<rect x="757.846" y="327.692" width="52.5621" height="52.5621" rx="8.37792" transform="rotate(-13.4546 757.846 327.692)" fill="white"/>
<rect x="808.966" y="191.475" width="52.5621" height="52.5621" rx="8.37792" transform="rotate(-13.4546 808.966 191.475)" fill="white"/>
<path d="M276.997 167.189L285.367 160.948L358.033 258.397C359.757 260.709 359.28 263.98 356.969 265.703V265.703C354.658 267.427 351.387 266.95 349.664 264.639L276.997 167.189Z" fill="#ED9696"/>
<path d="M108.855 145.959L132.321 145.959L132.321 117.924C132.321 117.924 125.765 117.924 114.686 126.063C109.434 129.922 106.011 134.594 103.863 138.441C101.835 142.074 104.695 145.959 108.855 145.959Z" fill="#BCBCBC"/>
<path fill-rule="evenodd" clip-rule="evenodd" d="M347.525 268.895C334.989 272.271 330.603 287.811 339.524 297.243L342.891 300.803C344.872 302.898 344.78 306.202 342.685 308.183C340.59 310.164 337.286 310.072 335.305 307.977L331.938 304.417C317.587 289.243 324.643 264.244 344.81 258.813L351.806 256.929C354.59 256.179 357.455 257.828 358.204 260.612C358.954 263.396 357.305 266.261 354.521 267.011L347.525 268.895Z" fill="#ED9696"/>
<path d="M130.773 144.559C117.346 126.456 121.136 100.896 139.239 87.4693V87.4693C157.342 74.0421 182.901 77.8323 196.329 95.935L252.421 171.56L186.866 220.184L130.773 144.559Z" fill="#3D3D3D"/>
<path d="M200.47 238.524L134.74 149.907C158.083 124.643 179.369 73.4497 204.963 107.955C210.485 115.4 218.613 125.979 237.07 124.676C255.526 123.372 526.709 123.306 526.709 123.306C526.709 123.306 537.284 156.915 502.974 173.057L310.445 263.641C280.886 277.548 234.951 285.012 200.47 238.524Z" fill="#3D3D3D"/>
<path d="M312.471 199.714C326.534 194.399 359.744 176.662 360.069 159.294C371.499 105.006 375.084 90.1046 386.158 50.2764C388.668 41.25 382.916 32.0998 373.581 31.3071C359.784 30.1355 339.463 29.6186 319.187 33.4785C283.425 40.2866 259.7 55.1195 243.809 81.7935C227.917 108.468 227.06 126.076 227.419 138.339C227.778 150.602 238.966 180.924 257.504 193.856C276.042 206.787 298.408 205.028 312.471 199.714Z" fill="#3D3D3D"/>
<circle cx="151.962" cy="112.798" r="9.60898" transform="rotate(-36.5652 151.962 112.798)" fill="#BCBCBC"/>
<path d="M453.103 166.362C463.619 152.252 511.073 97.6204 511.073 97.6204C511.073 97.6204 501.682 83.5353 485.302 91.5105L393.387 136.264C370.379 166.362 425.917 202.838 453.103 166.362Z" fill="#3D3D3D"/>
</g>
<defs>
<clipPath id="clip0_1371_601">
<rect width="945" height="495" fill="white"/>
</clipPath>
</defs>
</svg>
