<svg fill="none" height="495" viewBox="0 0 945 495" width="945" xmlns="http://www.w3.org/2000/svg" xmlns:xlink="http://www.w3.org/1999/xlink"><clipPath id="clip0_410_446"><path d="M0 0H945V495H0Z"/></clipPath><g clip-path="url(#clip0_410_446)"><path d="M0 0H945V495H0Z" fill="#95d1f9"/><path d="M563.842 329.686C563.842 335.344 560.235 340.327 554.877 342.058L545.807 344.993C498.705 360.152 448.039 360.152 400.979 344.993L391.972 342.058C386.614 340.327 383.007 335.344 383.007 329.75V130.171H563.851L563.842 329.686Z" fill="#e59a48"/><path d="M397.382 138.384C397.382 124.745 386.371 113.767 372.808 113.767 359.245 113.767 348.213 124.745 348.213 138.384 348.213 152.023 359.224 174.17 372.808 174.17 386.392 174.17 397.382 151.939 397.382 138.384Z" fill="#ffbd6e"/><path d="M598.319 138.384C598.319 124.745 587.308 113.767 573.724 113.767 560.14 113.767 549.129 124.745 549.129 138.384 549.129 152.023 560.14 174.17 573.724 174.17 587.308 174.17 598.319 151.939 598.319 138.384Z" fill="#ffbd6e"/><path d="M473.247 252.585C416.168 252.585 369.299 207.488 367.02 150.463L363.413 92.7195C360.903 30.247 410.832-21.7747 473.268-21.7747 535.705-21.7747 585.612 30.247 583.123 92.7195L579.517 150.463C577.238 207.488 530.348 252.585 473.268 252.585H473.247Z" fill="#000000"/><path d="M473.247 294.81C416.168 294.81 369.299 249.714 367.021 192.688L363.413 134.945C360.903 72.4726 410.832 20.4509 473.269 20.4509 535.705 20.4509 585.613 72.4726 583.124 134.945L579.517 192.688C577.239 249.714 530.348 294.81 473.269 294.81H473.247Z" fill="#ffbd6e"/><path d="M468.804 301.009C464.311 299.759 465.962 294.663 470.624 294.777 471.496 294.798 472.37 294.808 473.247 294.808H473.268C511.463 294.808 545.096 274.615 563.852 244.167V283.375C545.986 297.014 523.69 304.995 499.559 304.995 489.964 304.995 479.022 303.854 468.804 301.009Z" fill="#e59a48"/><g fill="#000000"><path d="M438.73 187.489C438.73 196.282 437.616 203.402 434.245 203.402 430.873 203.402 429.76 196.282 429.76 187.489 429.76 178.697 430.873 171.577 434.245 171.577 437.616 171.577 438.73 178.697 438.73 187.489Z"/><path d="M516.885 187.489C516.885 196.282 515.771 203.402 512.4 203.402 509.028 203.402 507.915 196.282 507.915 187.489 507.915 178.697 509.028 171.577 512.4 171.577 515.771 171.577 516.885 178.697 516.885 187.489Z"/><path d="M444.703 142.293C446.201 141.132 447.15 139.337 447.129 137.332 447.087 133.996 444.366 131.251 440.991 131.272 440.334 131.276 426.099 131.462 413.021 142.42 410.405 144.594 410.068 148.416 412.24 151.076 414.413 153.673 418.273 154.011 420.889 151.836 430.444 143.792 440.942 143.625 441.075 143.623 442.425 143.602 443.67 143.032 444.703 142.293Z"/><path d="M502.183 142.293C500.685 141.132 499.736 139.337 499.757 137.332 499.799 133.996 502.52 131.251 505.895 131.272 506.552 131.276 520.787 131.462 533.865 142.42 536.481 144.594 536.819 148.416 534.646 151.076 532.473 153.673 528.613 154.011 525.997 151.836 516.442 143.792 505.944 143.625 505.811 143.623 504.461 143.602 503.217 143.032 502.183 142.293Z"/><path clip-rule="evenodd" d="M504.753 251.352C504.605 245.423 499.746 240.743 493.783 240.889 487.788 241.036 483.14 245.94 483.268 251.874 483.367 255.839 485.56 259.224 488.789 261.019L488.8 261.025 488.81 261.031C490.401 261.932 492.261 262.423 494.26 262.374L494.261 262.374C499.614 262.243 504.068 258.106 504.668 252.894L504.677 252.815 504.69 252.736C504.744 252.411 504.752 252.03 504.753 251.352ZM493.627 234.56C503.128 234.327 510.87 241.827 511.077 251.245L511.078 251.28V251.315C511.078 251.34 511.078 251.366 511.078 251.393 511.078 251.979 511.078 252.825 510.943 253.693 509.95 261.993 502.91 268.495 494.415 268.703 491.274 268.78 488.288 268.006 485.707 266.548 480.594 263.7 477.1 258.31 476.945 252.026L476.945 252.022 476.945 252.017C476.738 242.591 484.148 234.793 493.627 234.56Z" fill-rule="evenodd"/><path d="M583.047 135.831V87.3982H582.963C582.963 26.6781 533.731-22.6201 473.024-22.6201 412.316-22.6201 363.063 26.6781 363.063 87.3982V135.767C363.063 140.539 366.923 144.487 371.733 144.487 376.542 144.487 380.423 140.539 380.423 135.767 380.423 132.833 380.571 129.835 380.866 126.816 380.866 116.351 383.036 109.744 385.611 105.588 389.431 99.4209 397.491 100.371 404.589 101.849 444.756 110.213 510.455 89.0132 510.455 52.7022 510.455 90.5971 526.6 113.954 555.341 116.039 558.165 116.244 561.185 116.55 563.061 118.672 564.43 120.222 565.687 122.63 565.687 126.246V135.831C565.687 140.623 569.568 144.487 574.357 144.487 579.145 144.487 583.047 140.623 583.047 135.831Z"/></g><path d="M233.664 246.75C233.664 234.249 245.809 225.348 257.73 229.115L472.438 296.952V594.569H233.664V246.75Z" fill="#ffffff"/><path d="M711.213 246.75C711.213 234.249 699.067 225.348 687.146 229.115L472.438 296.952V594.569H711.213V246.75Z" fill="#ffffff"/><path d="M200.952 275.999C200.952 265.383 210.524 257.332 220.982 259.151L446.808 298.42V635.426L215.123 595.139C206.932 593.714 200.952 586.605 200.952 578.291V275.999Z" fill="#3e5fff"/><path d="M501.201 298.42 727.027 259.151C737.486 257.332 747.057 265.383 747.057 275.999V579.726C747.057 588.04 741.078 595.149 732.886 596.574L501.201 636.861 501.201 298.42Z" fill="#3e5fff"/><path d="M251.663 328.392C251.663 317.755 261.27 309.699 271.744 311.553L371.646 329.239C379.814 330.685 385.766 337.783 385.766 346.077V445.287C385.766 455.923 376.159 463.979 365.685 462.125L265.782 444.44C257.615 442.994 251.663 435.896 251.663 427.601V328.392Z" fill="#2e53bc"/><path d="M546.677 348.577C546.677 341.418 551.826 335.295 558.88 334.068L691.469 311C700.477 309.433 708.72 316.366 708.72 325.509V325.509C708.72 332.668 703.571 338.79 696.518 340.018L563.929 363.086C554.921 364.653 546.677 357.72 546.677 348.577V348.577Z" fill="#2e53bc"/><path d="M546.677 406.666C546.677 399.507 551.826 393.384 558.88 392.157L691.469 369.089C700.477 367.522 708.72 374.455 708.72 383.598V383.598C708.72 390.757 703.571 396.879 696.518 398.107L563.929 421.175C554.921 422.742 546.677 415.809 546.677 406.666V406.666Z" fill="#2e53bc"/><rect fill="#2e53bc" height="367.139" rx="17.1006" width="81.8451" x="431.516" y="282.994"/><path d="M531.89 294.378C531.89 289.497 535.396 285.32 540.204 284.475L577.074 277.989C583.23 276.906 588.872 281.642 588.872 287.892V398.317C588.872 402.365 584.659 405.035 580.999 403.306L563.733 395.153C561.706 394.196 559.301 394.56 557.649 396.075L541.136 411.212C537.597 414.456 531.89 411.945 531.89 407.144V294.378Z" fill="#ff7059"/><path d="M254.768 437.826 204.568 405.648C197.199 400.925 187.521 406.217 187.521 414.97V497.099C187.521 502.172 190.969 506.596 195.888 507.835L254.305 522.554C267.249 525.815 279.806 516.029 279.806 502.681V483.614C279.806 465.082 270.37 447.826 254.768 437.826Z" fill="#ffbd6e"/><path d="M693.241 437.826 743.442 405.648C750.811 400.925 760.489 406.217 760.489 414.97V497.099C760.489 502.172 757.041 506.596 752.122 507.835L693.704 522.554C680.761 525.815 668.203 516.029 668.203 502.681V483.614C668.203 465.082 677.639 447.826 693.241 437.826Z" fill="#ffbd6e"/><path d="M156.013 151.088C156.976 146.633 163.33 146.633 164.293 151.088L170.681 180.629C170.987 182.044 171.994 183.204 173.352 183.707L190.216 189.947C193.904 191.312 193.904 196.528 190.216 197.893L173.352 204.133C171.994 204.635 170.987 205.796 170.681 207.21L164.293 236.752C163.33 241.206 156.976 241.206 156.013 236.752L149.625 207.21C149.319 205.796 148.312 204.635 146.954 204.133L130.09 197.893C126.402 196.528 126.402 191.312 130.09 189.947L146.954 183.707C148.312 183.204 149.319 182.044 149.625 180.629L156.013 151.088Z" fill="#ffffff"/><path d="M816.865 254.382C817.357 252.104 820.608 252.104 821.101 254.382L824.368 269.494C824.525 270.218 825.04 270.811 825.734 271.068L834.361 274.261C836.248 274.959 836.248 277.627 834.361 278.325L825.734 281.517C825.04 281.774 824.525 282.368 824.368 283.092L821.101 298.204C820.608 300.482 817.357 300.482 816.865 298.204L813.597 283.092C813.44 282.368 812.925 281.774 812.231 281.517L803.604 278.325C801.717 277.627 801.717 274.959 803.604 274.261L812.231 271.068C812.925 270.811 813.44 270.218 813.597 269.494L816.865 254.382Z" fill="#ffffff"/><path d="M776.748 176.192C777.653 172.006 783.625 172.006 784.53 176.192L790.534 203.955C790.821 205.285 791.768 206.375 793.043 206.848L808.892 212.712C812.358 213.995 812.358 218.897 808.892 220.18L793.043 226.044C791.768 226.516 790.821 227.607 790.534 228.936L784.53 256.7C783.625 260.886 777.653 260.886 776.748 256.7L770.744 228.936C770.457 227.607 769.511 226.516 768.235 226.044L752.386 220.18C748.92 218.897 748.92 213.995 752.386 212.712L768.235 206.848C769.511 206.375 770.457 205.285 770.744 203.955L776.748 176.192Z" fill="#ffffff"/></g></svg>