<svg enable-background="new 0 0 945 495" viewBox="0 0 945 495" xmlns="http://www.w3.org/2000/svg" xmlns:xlink="http://www.w3.org/1999/xlink"><defs><path id="SVGID_00000144317403782522994740000004889682183996261306_" d="M0 0H945V495H0Z"/><clipPath id="SVGID_00000182508061217808499300000009467410185461296273_"><use xlink:href="#SVGID_00000144317403782522994740000004889682183996261306_"/></clipPath></defs><path clip-path="url(#SVGID_00000182508061217808499300000009467410185461296273_)" d="M0-16.1H945V494.77H0Z" fill="#f7f7f7"/><circle clip-path="url(#SVGID_00000182508061217808499300000009467410185461296273_)" cx="472.5" cy="247.5" fill="#ffffff" r="232.88"/><g clip-path="url(#SVGID_00000182508061217808499300000009467410185461296273_)"><path d="M650.4 270.35H492.26c-13.85 0-25.08-11.23-25.08-25.08V69.78c0-13.85 11.23-25.08 25.08-25.08H650.4c13.85 0 25.08 11.23 25.08 25.08v175.5C675.48 259.12 664.25 270.35 650.4 270.35z" fill="#c2dbf3"/><path d="M623.41 114.13H519.25c-9.59 0-17.36-7.77-17.36-17.36v0c0-9.59 7.77-17.36 17.36-17.36h104.15c9.59 0 17.36 7.77 17.36 17.36v0C640.77 106.36 632.99 114.13 623.41 114.13z" fill="#ffffff"/><path d="M623.41 166.2H519.25c-9.59 0-17.36-7.77-17.36-17.36v0c0-9.59 7.77-17.36 17.36-17.36h104.15c9.59 0 17.36 7.77 17.36 17.36v0C640.77 158.43 632.99 166.2 623.41 166.2z" fill="#ffffff"/><path d="M623.41 235.63H519.25c-9.59 0-17.36-7.77-17.36-17.36v0c0-9.59 7.77-17.36 17.36-17.36h104.15c9.59 0 17.36 7.77 17.36 17.36v0C640.77 227.86 632.99 235.63 623.41 235.63z" fill="#3e5fff"/></g><g clip-path="url(#SVGID_00000182508061217808499300000009467410185461296273_)"><path d="M509.04 494.78h-234.6l-.02-158.98c-.01-2.52.78-4.98 2.24-7.05 1.14-1.61 2.63-2.88 4.33-3.76 1.7-.88 3.61-1.36 5.58-1.36l210.28-.17c3.94 0 7.63 1.9 9.91 5.1.72 1.03 1.29 2.16 1.67 3.35.38 1.19.58 2.43.58 3.7L509.04 494.78z" fill="#94d0f8"/></g><g clip-path="url(#SVGID_00000182508061217808499300000009467410185461296273_)"><path d="M312.49 246.38h109.7v51.28c0 14.32-11.61 25.93-25.93 25.93h-83.77V246.38z" fill="#c2dbf3"/><path d="M382.72 77.22l-24.64 83.21 75.3 11.8 2-86.76c.32-13.47-9.39-25.09-22.71-27.18C399.36 56.21 386.55 64.3 382.72 77.22L382.72 77.22z"/><path d="M440.36 273.42 350 259.25l-15.4 20.39c-2.84 1.07-5.79 1.35-8.59.91-5.37-.84-10.2-4.27-12.64-9.51l-8.51-18.16c-6.55-14.03-5.81-30.38 2-43.76l27.99-47.96c5.27-9.02 13.37-16.06 23.03-20.02l20.74-8.5c2.44-1.01 25.38-10.95 28-10.54l0 0c2.6.41 22.44 17.06 24.45 18.77l17.14 14.44c7.99 6.72 13.55 15.91 15.79 26.11l11.99 54.23c.02.14.06.29.09.44C480.61 257.54 462.02 276.82 440.36 273.42L440.36 273.42z" fill="#ff7059"/><path d="M430.8 271.77c-7.58-1.19-18.95-12.19-24.92-18.51-1.65-1.74-4.59-.82-4.96 1.55l-1.88 11.98L430.8 271.77z" fill="#e55041"/><path d="M384.12 185.8c-2.11.33-3.56 2.32-3.23 4.44l1.92 12.23c.33 2.11 2.32 3.56 4.44 3.23.54-.08 1.05-.27 1.5-.56l15.1-9.75c1.66-1.06 2.87-2.69 3.42-4.57l1.7-5.78c.44-1.52-.84-3-2.42-2.75L384.12 185.8" fill="#ffbd6e"/><path d="M419.58 171.82l-15.57-2.44c-3.18-.5-6.18 1.67-6.68 4.87l-5.53 35.26c-.5 3.18 1.68 6.18 4.87 6.68l15.57 2.44c3.18.5 6.18-1.68 6.68-4.87l5.53-35.26C424.95 175.3 422.77 172.31 419.58 171.82z" fill="#ffffff"/><path d="M424.64 194.77l-22.43-3.52c-1.58-.25-2.86 1.23-2.42 2.75l1.7 5.78c.55 1.88 1.76 3.51 3.42 4.57l15.1 9.75c.44.29.96.48 1.5.56 2.11.33 4.1-1.12 4.44-3.23l1.92-12.23C428.21 197.09 426.75 195.1 424.64 194.77" fill="#ffbd6e"/><path d="M421.02 145.59l-10.48 14.55c-5.24 7.26-16.51 5.49-19.27-3.02l-5.51-17.06c-.69-2.09-.71-4.34-.08-6.45L397.5 93.6l26.57 4.17-1 41.71C423.03 141.67 422.3 143.81 421.02 145.59z" fill="#ffbd6e"/><path d="M423.33 128.99c-.84.37-1.68.69-2.55.96-3.19.98-6.64 1.25-10.14.7-3.95-.62-7.5-2.21-10.46-4.51-.94-.73-.07-2.23 1.03-1.79 1.54.6 3.15 1.05 4.85 1.31 6.43 1.01 12.67-.78 17.45-4.48L423.33 128.99z" fill="#e59a48"/><path d="M294.97 303.49l-3.76-79.75c-3.23-16.86 9.7-32.49 26.87-32.49h0c8.32 0 16.19 3.79 21.38 10.29l37.19 61.89-3.31 27.53-34.73 12.53" fill="#c2dbf3"/><path d="M461.9 434.31c-3.25 7.12 28.37 25.75 24.87 33.43l-68.92-31.43c3.74-8.19 12.63-16.33 12.63-16.33L461.9 434.31z"/><path d="M338.65 299.9v-59.74c0-.72.58-1.3 1.3-1.3l0 0c.65 0 1.21.48 1.29 1.13l11.19 83.6h-14.16L338.65 299.9z" fill="#9ac1dd"/><path d="M304.06 303.49h34.53c0 10.05 2.09 10.05 2.09 20.1h-50.45C290.22 315.67 304.06 310.97 304.06 303.49z"/><path d="M381.21 323.56l52.26.06-9.59 95.15 44.37 20.31 17.48-136.58c0-11.53-6.68-22.03-17.12-26.92h0c-2.64-1.23-5.44-2.07-8.32-2.49l-83.65-9.66L381.21 323.56z" fill="#c2dbf3"/><circle cx="442.89" cy="244.25" fill="#ff7059" r="32.86"/><g fill="#ffbd6e"><path d="M392.46 91.99c0-2.98-2.41-5.38-5.37-5.38-2.97 0-5.38 2.4-5.38 5.38 0 2.98 2.41 7.82 5.38 7.82S392.46 94.95 392.46 91.99z"/><path d="M436.39 91.99c0-2.98-2.41-5.38-5.38-5.38-2.97 0-5.38 2.4-5.38 5.38 0 2.98 2.41 7.82 5.38 7.82C433.99 99.8 436.39 94.95 436.39 91.99z"/><path d="M409.05 126.16c-12.48 0-22.73-9.85-23.23-22.31l-.79-12.61c-.55-13.65 10.37-25.01 24.02-25.01 13.65 0 24.56 11.36 24.02 25.01l-.79 12.61C431.78 116.31 421.53 126.16 409.05 126.16L409.05 126.16z"/></g><path d="M401.5 102.73c0 1.92-.24 3.48-.98 3.48-.74 0-.98-1.56-.98-3.48 0-1.92.24-3.48.98-3.48C401.25 99.25 401.5 100.81 401.5 102.73z"/><path d="M418.59 102.73c0 1.92-.24 3.48-.98 3.48-.74 0-.98-1.56-.98-3.48 0-1.92.24-3.48.98-3.48C418.35 99.25 418.59 100.81 418.59 102.73z"/><path d="M402.81 95.15c.33-.25.54-.65.53-1.08-.01-.73-.6-1.33-1.34-1.32-.14 0-3.26.04-6.12 2.44-.57.48-.65 1.31-.17 1.89.48.57 1.32.64 1.89.17 2.09-1.76 4.38-1.79 4.41-1.79C402.31 95.44 402.58 95.32 402.81 95.15z"/><path d="M415.38 95.15c-.33-.25-.54-.65-.53-1.08.01-.73.6-1.33 1.34-1.32.14 0 3.26.04 6.12 2.44.57.48.65 1.31.17 1.89-.48.57-1.32.64-1.89.17-2.09-1.76-4.38-1.79-4.41-1.79C415.88 95.44 415.61 95.32 415.38 95.15z"/><path d="M409.4 115.71c-.46-.12-.89.1-1.03.5-.15.41.07.88.49 1.02.19.07.39.13.59.18 3.77 1.01 8.23-.76 10.16-4.03.11-.19.14-.4.08-.61-.05-.21-.18-.38-.37-.5-.06-.04-.13-.06-.2-.08-.35-.09-.72.06-.91.37-1.58 2.68-5.24 4.12-8.35 3.29C409.71 115.81 409.55 115.77 409.4 115.71l-.01 0L409.4 115.71z"/><path d="M432.92 79.78l.67 8.55c.07.85-.6 1.59-1.47 1.66-.43.03-.85-.1-1.18-.37l-13.83-11.7c-5.21-4.41-13.2-3.78-17.64 1.38l-11.86 13.72c-.27.32-.68.52-1.1.55-.89.07-1.65-.56-1.71-1.41l-.63-8.08c-1.01-12.83 8.64-24.48 21.97-25.81 6.95-.7 13.46 1.46 18.34 5.47 4.75 3.9 7.94 9.55 8.45 16.04L432.92 79.78z"/></g></svg>