<svg viewBox="0 0 945 495" xmlns="http://www.w3.org/2000/svg" xmlns:xlink="http://www.w3.org/1999/xlink"><clipPath id="clippath"><path d="M0 0H945V495H0Z"/></clipPath><g clip-path="url(#clippath)"><path d="M-2.98-37.77H1038.62V559.35H-2.98Z" fill="#e2f1ff"/><circle cx="472.39" cy="412.59" fill="#94d0f8" r="405.75"/><path d="m826.78 311.8c11.11-1.89 21.54-6.6 30.19-13.82l7.15-5.97c2.25-1.88 2.78-5.14 1.22-7.63h0c-1.34-2.15-3.92-3.2-6.38-2.6l-26.52 6.49c-13.6 3.33-27.78 3.42-41.42.27l-4.94-1.14c-17.82-4.12-35.61 7-39.72 24.82l-3.18 13.79 41.17 9.51c3.36-14.55 26.33-20.98 42.43-23.72Z" fill="#ffbc6e"/><path d="m593.64 229.21c-.48-.52-.95-1.05-1.39-1.59-2.74-3.38-3.3-7.67-3.56-11.88-.44-7.22.23-14.46-.55-21.63-.64-5.94-2.02-11.79-4.11-17.39-3.3-8.87-8.35-17.04-14.61-24.14-2.88-3.27-6.02-6.27-9.34-9.09-5.67-4.83-4.57-15.21-4.57-15.21v-.7c0-6.06-.74-12.11-2.22-17.98-1.82-7.24-4.75-14.19-8.65-20.56-3.85-6.28-8.63-11.99-14.13-16.89-5.52-4.91-11.77-9-18.48-12.08-6.87-3.15-14.21-5.23-21.71-6.15-4.18-.51-8.34-.52-12.54-.56-5.58-.06-11.16-.02-16.73.1-8.2.18-16.22 1.58-23.95 4.42-7.04 2.59-13.68 6.25-19.63 10.82-5.91 4.54-11.14 9.96-15.46 16.02-4.36 6.13-7.79 12.91-10.12 20.06-2.39 7.35-3.61 15.07-3.61 22.81v.7s.71 6.77-2 11.93c-1.5 1.16-2.96 2.36-4.38 3.62-6.08 5.41-11.37 11.72-15.62 18.66-4.31 7.04-7.55 14.72-9.56 22.73-1.63 6.49-2.45 13.18-2.45 19.88v.77c0 5.07-.1 10.34-3.23 14.58-2.96 4.03-7.36 7.07-10.75 10.77s-6.57 7.78-9.33 12.04c-5.52 8.53-9.55 18.02-11.6 27.98-.14.7-.28 1.41-.4 2.12-.95 5.39-1.34 10.87-1.2 16.34.95 39.33 35.22 57.59 78.35 57.54l15.71-91.83c4.61.52 9.4.78 14.31.78h91.53c4.21 0 8.31-.19 12.3-.58l16.79 98.16c43.13.05 77.4-18.2 78.35-57.54.52-21.51-7.62-42.09-22.02-57.96-2.91-3.21-6.5-5.89-9.45-9.05Z"/><path d="m184.9 294.45-.74.37-2.94-3.5c-.35-.42-.88-.63-1.42-.56l-36.08 4.26c-.99.12-1.63 1.09-1.36 2.05l20.43 70.23c.34 1.15 1.77 1.55 2.65.72l39.13-36.73c.52-.49-3.02 19.62-3.34 18.98l-5.29-33.95s-.9-5.36.52-7.84c.64-1.12 3.28-3.63 5.98-6.05 4.35-3.9 7.41-9.04 8.7-14.73l1.26-5.54c.6-2.66.31-5.44-.82-7.91 0 0-1.34-2.84-4.21-2.84 0 0-4.4-.13-5.14 3.53s-4.65 13.19-4.65 13.19l-5.32 6.18" fill="#e49948"/><path d="m198.11 281.07-3.37 8.06c-.1.24-.27.46-.48.62l-8.67 6.64" fill="#e49948"/><path d="m583.01 446.99c.15.72-.31.82-1.72-.06" fill="#dbc5ff"/><path d="m448.77 243.08h65.86c1.83 0 3.63.4 5.28 1.18l67.14 31.57c30.92 15.1 50.85 49.55 64.93 79.49 5.16 10.98 10.33 21.96 15.49 32.94 5.86 12.45 11.72 24.91 17.57 37.36.32.34.48.52.48.52l45.26-97.11c2.49-5.35 8.4-8.2 14.13-6.83l38.82 9.25c7.13 1.7 11.25 9.17 8.87 16.1l-33.27 97.19s0 .03-.01.04c-1.98 5.76-4.17 11.43-6.67 16.99-5.54 12.32-12.25 24.22-20.56 34.9-9.25 11.88-20.84 22.58-35.07 28.06-16.59 6.39-34.4 3.98-50.2-3.52-9.1-4.32-15.91-11.4-22.84-18.51-9.96-10.21-29.11-36.28-45.77-58.26" fill="#0eac69"/><path d="m584.87 275.98c-11.72-5.51-64.97-30.51-64.97-30.51-1.65-.78-3.45-1.18-5.28-1.18h-86.81c-1.83 0-3.63.4-5.28 1.18l-67.14 31.57c-30.92 15.1-50.85 49.55-64.93 79.49-5.16 10.98-10.33 21.96-15.49 32.94-5.86 12.45-11.72 24.91-17.57 37.36-.32.34-.48.52-.48.52l-45.26-97.11c-2.49-5.35-8.4-8.2-14.13-6.83l-38.82 9.25c-7.13 1.7-11.25 9.17-8.87 16.1l33.27 97.19s0 .03.01.04c1.98 5.76 4.17 11.43 6.67 16.99 5.54 12.32 12.25 24.22 20.56 34.9 9.25 11.88 20.84 22.58 35.07 28.06 16.59 6.39 34.4 3.98 50.2-3.52 9.1-4.32 15.91-11.4 22.84-18.51 9.96-10.21 30.31-39.39 46.97-61.38l-2.09 103.77h219.71l-8.69-151" fill="#0eac69"/><path d="m520.4 146.17v105.86c0 3-1.92 5.65-4.76 6.56l-4.82 1.56c-25.02 8.04-51.92 8.04-76.92 0l-4.78-1.56c-2.85-.92-4.76-3.56-4.76-6.53v-105.9h96.05-.01Z" fill="#ffbc6e"/><path d="m520.4 195.36v25.91c-9.49 7.24-21.33 11.47-34.14 11.47-9.72 0-18.86-2.43-26.85-6.78-2.6-1.41-1.12-5.43 1.78-4.87 3.61.74 7.34 1.13 11.16 1.13 20.27 0 38.11-10.73 48.06-26.86Z" fill="#e49948"/><g fill="#ffbc6e"><path d="m432 150.43c0-7.24-5.85-13.06-13.05-13.06s-13.06 5.83-13.06 13.06 5.85 18.99 13.06 18.99 13.05-11.8 13.05-18.99Z"/><path d="m538.71 150.43c0-7.24-5.85-13.06-13.06-13.06s-13.06 5.83-13.06 13.06 5.85 18.99 13.06 18.99 13.06-11.8 13.06-18.99Z"/><path d="m472.29 222.24c-30.31 0-55.21-23.93-56.42-54.19l-1.92-30.64c-1.33-33.15 25.18-60.75 58.34-60.75s59.66 27.6 58.34 60.75l-1.92 30.64c-1.21 30.26-26.11 54.19-56.43 54.19h-.01Z"/></g><path d="m454.08 149.19c0 4.67-.59 8.45-2.38 8.45s-2.38-3.78-2.38-8.45.59-8.45 2.38-8.45 2.38 3.78 2.38 8.45Z"/><path d="m457.26 130.78c.8-.62 1.3-1.57 1.29-2.63-.02-1.77-1.47-3.23-3.26-3.22-.35 0-7.91.1-14.86 5.92-1.39 1.15-1.57 3.18-.41 4.6 1.15 1.38 3.21 1.56 4.6.4 5.08-4.27 10.66-4.36 10.73-4.36.72-.01 1.38-.31 1.93-.71Z"/><path d="m487.82 136.74c-.8-.62-1.3-1.57-1.29-2.63.02-1.77 1.47-3.23 3.26-3.22.35 0 7.91.1 14.86 5.92 1.39 1.15 1.57 3.18.41 4.6-1.15 1.38-3.21 1.56-4.6.4-5.08-4.27-10.66-4.36-10.73-4.36-.72-.01-1.38-.31-1.93-.71Z"/><path d="m500.95 150.84c0 2.49-3.45.36-7.7.36s-7.7 2.13-7.7-.36 3.45-4.5 7.7-4.5 7.7 2.02 7.7 4.5Z"/><path d="m473.3 183.58c-1.12-.3-2.15.25-2.49 1.21-.36 1.01.18 2.14 1.19 2.49.47.16.95.31 1.43.44 9.17 2.46 20-1.85 24.69-9.79.26-.45.33-.98.2-1.49-.13-.51-.45-.93-.91-1.21-.15-.1-.31-.15-.49-.2-.86-.23-1.76.14-2.2.91-3.83 6.5-12.73 10.01-20.3 7.99-.38-.1-.77-.21-1.13-.36v.02s.02 0 .02 0Z"/><path d="m530.73 136.75v-13.38h-.04c0-32.22-26.15-58.38-58.39-58.38s-58.4 26.16-58.4 58.38v13.34c0 2.53 2.05 4.63 4.6 4.63s4.62-2.1 4.62-4.63c0-1.56.08-3.15.24-4.75 0-15.13 17.85-20.99 32.85-23 18.02-2.41 35.97-11.07 35.97-21.69 0 10.33 3.93 21.62 11.04 26.94 7.36 5.51 18.29 8.24 18.29 17.44v5.09c0 2.54 2.06 4.59 4.6 4.59s4.62-2.05 4.62-4.59Z"/><path d="m538.71 182.02c6.32 0 11.45-5.12 11.45-11.44s-5.12-11.45-11.45-11.45-11.44 5.12-11.44 11.45 5.12 11.44 11.44 11.44Z" fill="#ff7059"/><path d="m405.89 180.86c6.32 0 11.45-5.12 11.45-11.44s-5.12-11.45-11.45-11.45-11.44 5.12-11.44 11.45 5.12 11.44 11.44 11.44Z" fill="#ff7059"/><path d="m182.98 268.63c6.01-.06 10.94 4.76 11 10.77.06 6.01-4.76 10.94-10.77 11-6.01.06-10.94-4.76-11-10.77-.06-6.01 4.76-10.94 10.77-11Zm-.12-10.83c12-.13 21.82 9.49 21.95 21.49.13 12-9.49 21.82-21.49 21.95-11.99.13-21.82-9.49-21.95-21.49-.13-11.99 9.49-21.82 21.49-21.95Z" fill-rule="evenodd"/><path d="m182.94 265.44c2.99-.03 5.39-2.48 5.36-5.47l-.75-71.07c-.03-2.99-2.48-5.39-5.47-5.36l-13.74.14c-2.99.03-5.39 2.48-5.36 5.47.03 2.99 2.48 5.39 5.47 5.36l8.33-.09.11 10.72-8.33.09c-2.99.03-5.39 2.48-5.36 5.47.03 2.99 2.48 5.39 5.47 5.36l8.33-.09.47 44.11c.03 2.99 2.48 5.39 5.47 5.36Z" fill-rule="evenodd"/><path d="m137.79 279.16c8.42-8.84 24.14-25.34 24.14-25.34 4.28-4.48 10.63-4.28 14.02.42l6.79 9.43c1.95 2.71 2.96 6.2 2.84 9.86l-.45 14.54c-.19 6.26-4.8 11.59-10.26 11.89 0 0-22.49 1.26-22.49 1.26-4.15.23-8.22-.96-11.59-3.41-2.85-2.07-5.82-5.04-6.83-8.91-.95-3.64 1.47-7.26 3.83-9.73Z" fill="#ffbc6e"/><rect fill="#bbbbbb" height="70.77" rx="5.52" width="50.63" x="787.85" y="90.58"/><rect fill="#2e53bb" height="17.23" rx="4.29" width="61.11" x="782.61" y="134.36"/><path d="m849.79 145.77v91.09c0 21.53-17.64 39.01-39.12 37.55-18.99-1.29-34.13-17.24-34.13-36.54v-92.47c0-3.25 2.64-5.89 5.89-5.89h61.1c3.46 0 6.27 2.8 6.27 6.27Z" fill="#3e5fff"/><rect fill="#3d3d3d" height="9.95" rx="2.07" width="13.48" x="796.44" y="107.44"/><rect fill="#3d3d3d" height="9.95" rx="2.07" width="13.48" x="816.41" y="107.44"/><circle cx="813.17" cy="189.56" r="9.97"/><rect height="25.16" rx="4.35" width="8.71" x="808.81" y="186.45"/></g></svg>