<svg fill="none" height="495" viewBox="0 0 945 495" width="945" xmlns="http://www.w3.org/2000/svg" xmlns:xlink="http://www.w3.org/1999/xlink"><clipPath id="clip0_649_300"><path d="M0 0H945V495H0Z"/></clipPath><clipPath id="clip1_649_300"><path d="M0-9.61041H945V503.51459H0Z"/></clipPath><g clip-path="url(#clip0_649_300)"><path d="M0 0H945V495H0Z" fill="#f8f8f8"/><g clip-path="url(#clip1_649_300)"><path d="M945 293.351H0V503.515H945V293.351Z" fill="#f8f8f8"/><path d="M945-7.85892V396.449H711.773C704.387 396.449 698.396 390.559 698.396 383.297V355.134L629.677 273.395V239.179H562.795V225.237H374.742V239.179H308.038V273.395L239.218 355.134V383.297C239.218 390.559 233.228 396.449 225.842 396.449H0V-9.61041L945-7.85892Z" fill="#e2f1ff"/><path d="M698.396 82.8932V354.421H643.054C635.668 354.421 629.677 348.43 629.677 341.045V319.624H569.483C565.786 319.624 562.795 316.632 562.795 312.936V305.441H374.742V312.936C374.742 316.632 371.75 319.624 368.054 319.624H308.038V341.045C308.038 348.43 302.047 354.421 294.662 354.421H239.218V82.8932C239.218 78.6152 242.69 75.1432 246.976 75.1432H690.646C694.924 75.1432 698.396 78.6152 698.396 82.8932Z" fill="#c3dcf4"/><path d="M698.396 105.477 239.218 105.477V82.901C239.218 78.6152 242.698 75.1433 246.976 75.1433L690.638 75.1433C694.924 75.1433 698.396 78.623 698.396 82.901V105.477Z" fill="#3e5fff"/><g fill="#ffffff"><path d="M309.619 97.8196C313.231 97.8196 316.16 94.8148 316.16 91.1081 316.16 87.4015 313.231 84.3967 309.619 84.3967 306.006 84.3967 303.078 87.4015 303.078 91.1081 303.078 94.8148 306.006 97.8196 309.619 97.8196Z"/><path d="M288.655 97.8196C292.268 97.8196 295.196 94.8148 295.196 91.1081 295.196 87.4015 292.268 84.3967 288.655 84.3967 285.043 84.3967 282.114 87.4015 282.114 91.1081 282.114 94.8148 285.043 97.8196 288.655 97.8196Z"/><path d="M267.692 97.8196C271.304 97.8196 274.233 94.8148 274.233 91.1081 274.233 87.4015 271.304 84.3967 267.692 84.3967 264.079 84.3967 261.151 87.4015 261.151 91.1081 261.151 94.8148 264.079 97.8196 267.692 97.8196Z"/></g><path d="M629.576 134.857V319.631H569.483C565.786 319.631 562.795 316.64 562.795 312.943V305.449H374.742V312.943C374.742 316.64 371.75 319.631 368.054 319.631H308.038V134.857C308.038 131.858 310.464 129.432 313.463 129.432H624.151C627.151 129.432 629.576 131.858 629.576 134.857Z" fill="#95d1f9"/><path d="M629.576 150.674 308.038 150.674V134.864C308.038 131.865 310.471 129.432 313.471 129.432L624.144 129.432C627.143 129.432 629.576 131.865 629.576 134.864V150.674Z" fill="#3e5fff"/><path d="M342.657 145.304C345.187 145.304 347.237 143.201 347.237 140.607 347.237 138.013 345.187 135.911 342.657 135.911 340.127 135.911 338.077 138.013 338.077 140.607 338.077 143.201 340.127 145.304 342.657 145.304Z" fill="#ffffff"/><path d="M327.979 145.304C330.508 145.304 332.559 143.201 332.559 140.607 332.559 138.013 330.508 135.911 327.979 135.911 325.449 135.911 323.398 138.013 323.398 140.607 323.398 143.201 325.449 145.304 327.979 145.304Z" fill="#ffffff"/><path d="M562.725 191.338V305.449H374.889V191.338C374.889 189.587 376.307 188.169 378.059 188.169H559.548C561.299 188.169 562.725 189.587 562.725 191.338Z" fill="#3e5fff"/><path d="M562.725 200.576 374.889 200.576V191.338C374.889 189.587 376.315 188.161 378.067 188.161L559.555 188.161C561.307 188.161 562.733 189.587 562.733 191.338V200.576H562.725Z" fill="#2e53bc"/><path d="M395.117 197.438C396.593 197.438 397.79 196.209 397.79 194.694 397.79 193.179 396.593 191.951 395.117 191.951 393.64 191.951 392.443 193.179 392.443 194.694 392.443 196.209 393.64 197.438 395.117 197.438Z" fill="#ffffff"/><path d="M386.537 197.438C388.014 197.438 389.211 196.209 389.211 194.694 389.211 193.179 388.014 191.951 386.537 191.951 385.061 191.951 383.864 193.179 383.864 194.694 383.864 196.209 385.061 197.438 386.537 197.438Z" fill="#ffffff"/><path d="M801.091 435.772V64.1228C801.091 49.4831 789.226 37.6257 774.594 37.6257H164.594C149.954 37.6257 138.097 49.4909 138.097 64.1228V435.772H801.099 801.091ZM158.518 68.3155C158.518 62.5806 163.176 57.9228 168.918 57.9228H770.262C776.012 57.9228 780.662 62.5806 780.662 68.3155V406.865C780.662 412.608 776.004 417.266 770.262 417.266H168.918C163.176 417.266 158.518 412.608 158.518 406.865V68.3155ZM545.04 442.91C543.211 444.739 540.684 445.871 537.902 445.871H401.278C395.706 445.871 391.18 441.345 391.18 435.772H548C548 438.555 546.869 441.089 545.04 442.91Z" fill="#3d3d3d"/><path d="M548 435.772C548 438.555 546.869 441.081 545.04 442.91 543.211 444.739 540.684 445.871 537.902 445.871H401.278C395.706 445.871 391.18 441.352 391.18 435.78H548V435.772Z" fill="#000000"/><path clip-rule="evenodd" d="M548.279 435.772H845.932C845.932 442.639 843.15 448.847 838.663 453.342 834.16 457.844 827.952 460.627 821.093 460.627H118.094C104.369 460.627 93.2476 449.505 93.2476 435.78H391.265M537.902 445.878C540.684 445.878 543.211 444.747 545.04 442.918 546.869 441.089 548 438.562 548 435.772H391.18C391.18 441.345 395.706 445.871 401.278 445.871H537.902V445.878Z" fill="#bcbcbc" fill-rule="evenodd"/></g></g></svg>