<svg viewBox="0 0 945 495" xmlns="http://www.w3.org/2000/svg" xmlns:xlink="http://www.w3.org/1999/xlink"><clipPath id="clippath"><path d="M0 0H945V495H0Z"/></clipPath><clipPath id="clippath-1"><rect height="429.97" rx="9.48" transform="matrix(0 1 -1 0 735.25 -202.79)" width="248.35" x="344.85" y="51.24"/></clipPath><g clip-path="url(#clippath)"><path d="M-13.56-2.95H958.56V495.93H-13.56Z" fill="#ff7059"/><path d="m358.36 15.54h216.06c46.84 0 90.15 24.95 113.66 65.71l108.03 187.3c23.51 40.58 23.51 90.67 0 131.25l-108.03 187.3c-23.51 40.58-66.81 65.71-113.66 65.71h-216.06c-46.84 0-90.15-24.95-113.66-65.71l-108.03-187.3c-23.51-40.58-23.51-90.67 0-131.25l108.03-187.3c23.51-40.58 66.81-65.71 113.66-65.71Z" fill="#ffffff"/><path d="m818.58 438.89H114.2c-4.6 0-8.33-3.75-8.33-8.37v-1.12c0-4.63 3.73-8.37 8.33-8.37h704.39c4.6 0 8.33 3.75 8.33 8.37v1.12c0 4.61-3.74 8.37-8.35 8.37Z" fill="#3d3d3d"/><path d="m219.77 427.91-1.28 10.97-44.97 386.44h-17.9l44.97-386.44 1.53-13.04 17.65 2.07Z" fill="#3d3d3d"/><path d="m777.16 825.33h-17.92l-44.97-386.44-1.28-10.97 17.67-2.07 1.53 13.04 44.97 386.44Z" fill="#3d3d3d"/><path d="M0 0H945V495H0Z" fill="none"/><path d="m264.08 128.32h409.88c13.34 0 24.16 10.83 24.16 24.16v251H239.92v-251c0-13.34 10.83-24.16 24.16-24.16Z" fill="#3d3d3d"/><rect height="429.97" rx="9.48" transform="matrix(0 1 -1 0 735.25 -202.79)" width="248.35" x="344.85" y="51.24"/><path d="m216.15 403.48h505.75v1.9c0 8.43-6.84 15.27-15.27 15.27H231.42c-8.43 0-15.27-6.84-15.27-15.27v-1.9h0Z" fill="#bcbcbc"/><path d="m414.83 403.48h108.38v.77c0 3.43-2.78 6.21-6.21 6.21h-95.97c-3.43 0-6.21-2.78-6.21-6.21v-.77h0Z"/><g fill="#ff7059"><g clip-path="url(#clippath-1)"><path d="m510.61 114.41h-83.17c-28.51 0-54.85 15.21-69.1 39.9l-41.58 72.03c-14.25 24.69-14.25 55.1 0 79.79l41.58 72.03c14.25 24.69 40.6 39.9 69.1 39.9h83.17c28.51 0 54.85-15.21 69.1-39.9l41.58-72.03c14.25-24.69 14.25-55.1 0-79.79l-41.58-72.03c-14.25-24.69-40.6-39.9-69.1-39.9Z" opacity=".25"/><path d="m489.89 171.8h-41.73c-20.83 0-40.07 11.11-50.48 29.15l-20.87 36.14c-10.41 18.04-10.41 40.26 0 58.29l20.87 36.14c10.41 18.04 29.66 29.15 50.48 29.15h41.73c20.83 0 40.07-11.11 50.48-29.15l20.87-36.14c10.41-18.04 10.41-40.26 0-58.29l-20.87-36.14c-10.41-18.04-29.66-29.15-50.48-29.15Z" opacity=".5"/><path d="m482.03 211.39h-26.02c-11.54 0-22.21 6.16-27.98 16.15l-13.01 22.54c-5.77 10-5.77 22.31 0 32.31l13.01 22.54c5.77 10 16.44 16.15 27.98 16.15h26.02c11.54 0 22.21-6.16 27.98-16.15l13.01-22.54c5.77-10 5.77-22.31 0-32.31l-13.01-22.54c-5.77-10-16.44-16.15-27.98-16.15Z"/></g><path d="m319.11 128.27h-33.26c-14.3 0-25.89-11.59-25.89-25.89v-14.97c0-7.95 6.44-14.39 14.39-14.39h0c7.95 0 14.39 6.44 14.39 14.39v6.45c0 3.12 2.53 5.64 5.64 5.64h0c13.66 0 24.73 11.07 24.73 24.73v4.04Z"/><path d="m698.24 247.48h0v-34.11c0-3.42-2.77-6.2-6.2-6.2h-39.34c-7.95 0-14.39-6.44-14.39-14.39h0c0-7.95 6.44-14.39 14.39-14.39h45.58c15.87 0 28.73 12.86 28.73 28.73v11.58c0 15.89-12.88 28.77-28.77 28.77Z"/><path d="m639.74 349.62h-42.05c-7.95 0-14.39-6.44-14.39-14.39h0c0-7.95 6.44-14.39 14.39-14.39h33.83c3.92 0 7.1-3.18 7.1-7.1v-17.31c0-7.95 6.44-14.39 14.39-14.39h0c7.95 0 14.39 6.44 14.39 14.39v25.53c0 15.27-12.38 27.65-27.65 27.65Z"/><path d="m288.83 326.3h-53c-13.67 0-24.75-11.08-24.75-24.75h0c0-13.67 11.08-24.75 24.75-24.75h4.02v15.72c0 2.76 2.24 5.01 5.01 5.01h43.97c7.95 0 14.39 6.44 14.39 14.39h0c0 7.95-6.44 14.39-14.39 14.39Z"/><path d="m319.11 142.06v24.17c0 7.95-6.44 14.39-14.39 14.39h0c-7.95 0-14.39-6.44-14.39-14.39v-24.17h28.77Z" opacity=".7"/><path d="m254.03 276.81h11.7c7.95 0 14.39 6.44 14.39 14.39h0c0 7.95-6.44 14.39-14.39 14.39h-11.7s0-28.77 0-28.77Z" opacity=".7"/><path d="m361.51 403.48h-49.26v-6.39c0-12.36 10.02-22.38 22.38-22.38h16.48c4.43 0 8.02-3.59 8.02-8.02v-15.61c0-7.95 6.44-14.39 14.39-14.39h0c7.95 0 14.39 6.44 14.39 14.39v26.01c0 14.58-11.82 26.4-26.4 26.4Z"/></g></g></svg>