<svg fill="none" height="495" viewBox="0 0 945 495" width="945" xmlns="http://www.w3.org/2000/svg" xmlns:xlink="http://www.w3.org/1999/xlink"><clipPath id="clip0_131_304"><path d="M0 0H945V495H0Z"/></clipPath><clipPath id="clip1_131_304"><path d="M-69-21H1025.59V609H-69Z"/></clipPath><g clip-path="url(#clip0_131_304)"><path d="M0 0H945V495H0Z" fill="#f8f8f8"/><g clip-path="url(#clip1_131_304)"><path d="M1025.59-21H-69V547.861H1025.59V-21Z" fill="#e2f1ff"/><path d="M708.886 105.248 644.793 216.261C735.778 273.901 796.311 387.119 796.311 502.564H924.458C924.458 339.78 838.141 185.132 708.886 105.259V105.248Z" fill="#3e5fff"/><path d="M298.079 216.25 233.986 105.238C104.731 185.111 18.4145 339.759 18.4145 502.543H146.561C146.561 387.098 207.094 273.88 298.079 216.24V216.25Z" fill="#c3dcf4"/><path d="M320.261 203.405C365.446 179.551 416.889 166.008 471.441 166.008 525.993 166.008 577.436 179.54 622.621 203.405L686.725 92.3721C622.652 57.6218 549.314 37.8611 471.441 37.8611 393.568 37.8611 320.231 57.6115 256.157 92.3721L320.261 203.405Z" fill="#8ecaf2"/><path d="M402.648 364.588 224.547 215.07C222.618 213.449 220.053 216.096 221.725 217.974L376.322 391.685C372.884 404.725 376.352 419.181 386.715 429.246 402.002 444.092 426.431 443.744 441.287 428.456 456.144 413.169 455.785 388.74 440.497 373.884 430.135 363.819 415.586 360.761 402.648 364.578V364.588ZM429.16 416.688C420.829 425.265 407.07 425.471 398.493 417.129 389.916 408.798 389.721 395.04 398.052 386.462 406.383 377.885 420.142 377.69 428.719 386.021 437.296 394.352 437.501 408.111 429.16 416.688Z" fill="#101012"/><path d="M402.648 364.588 224.547 215.07C222.618 213.449 220.053 216.096 221.725 217.974L376.322 391.685C372.884 404.725 376.352 419.181 386.715 429.246 402.002 444.092 426.431 443.744 441.287 428.456 456.144 413.169 455.785 388.74 440.497 373.884 430.135 363.819 415.586 360.761 402.648 364.578V364.588ZM429.16 416.688C420.829 425.265 407.07 425.471 398.493 417.129 389.916 408.798 389.721 395.04 398.052 386.462 406.383 377.885 420.142 377.69 428.719 386.021 437.296 394.352 437.501 408.111 429.16 416.688Z" fill="#101012"/><path d="M418.079 405.915C415.689 408.378 411.728 408.439 409.266 406.038 406.804 403.637 406.742 399.687 409.143 397.225 411.544 394.763 415.494 394.701 417.956 397.102 420.419 399.503 420.48 403.453 418.079 405.915Z" fill="#101012"/><path d="M243.209 461.688H400.237L403.233 347.834 221.181 408.501 243.209 461.688Z" fill="#0ead69"/><path d="M172.118 339.041 280.822 446.124C255.696 470.871 213.579 465.351 195.901 435.002L151.701 359.14 172.118 339.031V339.041Z" fill="#0ead69"/><path d="M151.722 359.15C136.352 344.007 96.1231 333.193 81.7181 329.694 79.3481 329.12 78.4144 326.278 80.015 324.441 80.6306 323.713 81.554 323.313 82.5184 323.313H136.547C149.105 323.313 161.14 328.217 170.015 336.969L172.129 339.051 151.711 359.161 151.722 359.15Z" fill="#ffbd6e"/><path d="M695.271 461.688H538.243L535.248 347.834 717.3 408.501 695.271 461.688Z" fill="#0ead69"/><path d="M766.363 339.041 657.659 446.124C682.785 470.871 724.902 465.351 742.58 435.002L786.78 359.14 766.363 339.031V339.041Z" fill="#0ead69"/><path d="M786.77 359.15C802.139 344.007 842.368 333.193 856.773 329.694 859.143 329.12 860.077 326.278 858.476 324.441 857.86 323.713 856.937 323.313 855.973 323.313H801.944C789.386 323.313 777.351 328.217 768.476 336.969L766.363 339.051 786.78 359.161 786.77 359.15Z" fill="#ffbd6e"/><path d="M369.314 459.882 403.182 347.854 433.9 333.398H504.601L535.227 347.803 573.568 459.882 589.153 609H354.837L369.304 459.882H369.314Z" fill="#0ead69"/><path d="M505.227 259.557V338.384C505.227 340.621 503.801 342.591 501.677 343.268L498.086 344.428C479.464 350.419 459.427 350.419 440.815 344.428L437.255 343.268C435.131 342.581 433.715 340.621 433.715 338.405V259.557H505.227Z" fill="#ffbd6e"/><path d="M505.227 296.185V315.474C498.168 320.861 489.345 324.01 479.803 324.01 472.56 324.01 465.757 322.205 459.806 318.962 457.867 317.916 458.975 314.92 461.13 315.33 463.818 315.884 466.588 316.172 469.441 316.172 484.533 316.172 497.819 308.179 505.227 296.175V296.185Z" fill="#e59a48"/><path d="M469.41 316.192C446.838 316.192 428.309 298.381 427.406 275.85L425.98 253.042C424.984 228.357 444.735 207.806 469.42 207.806 494.106 207.806 513.846 228.357 512.861 253.042L511.434 275.85C510.532 298.381 491.992 316.192 469.42 316.192H469.41Z" fill="#ffbd6e"/><g fill="#000000"><path d="M459.735 263.025C459.735 264.882 457.17 263.292 453.999 263.292 450.829 263.292 448.264 264.882 448.264 263.025 448.264 261.168 450.829 259.67 453.999 259.67 457.17 259.67 459.735 261.168 459.735 263.025Z"/><path d="M490.668 263.025C490.668 264.882 488.103 263.292 484.933 263.292 481.763 263.292 479.198 264.882 479.198 263.025 479.198 261.168 481.763 259.67 484.933 259.67 488.103 259.67 490.668 261.168 490.668 263.025Z"/><path d="M458.144 248.097C458.739 247.635 459.109 246.927 459.109 246.137 459.088 244.814 458.021 243.737 456.677 243.747 456.421 243.747 450.788 243.819 445.607 248.148 444.57 249.01 444.437 250.518 445.299 251.575 446.161 252.601 447.689 252.735 448.726 251.873 452.501 248.692 456.657 248.631 456.708 248.631 457.241 248.631 457.734 248.395 458.144 248.107V248.097Z"/><path d="M480.901 248.097C480.306 247.635 479.936 246.927 479.936 246.137 479.957 244.814 481.024 243.737 482.368 243.747 482.624 243.747 488.257 243.819 493.438 248.148 494.475 249.01 494.608 250.518 493.746 251.575 492.884 252.601 491.356 252.735 490.319 251.873 486.544 248.692 482.388 248.631 482.337 248.631 481.804 248.631 481.311 248.395 480.901 248.107V248.097Z"/><path d="M470.087 287.413C469.256 287.187 468.486 287.598 468.23 288.316 467.963 289.065 468.363 289.906 469.112 290.173 469.461 290.296 469.82 290.409 470.169 290.501 477.002 292.328 485.056 289.127 488.555 283.217 488.75 282.878 488.801 282.488 488.709 282.109 488.616 281.729 488.38 281.411 488.031 281.206 487.919 281.134 487.806 281.093 487.662 281.052 487.026 280.878 486.359 281.155 486.02 281.729 483.168 286.572 476.54 289.188 470.908 287.68 470.631 287.608 470.333 287.526 470.066 287.413V287.434H470.077L470.087 287.413Z"/><path d="M513.692 252.837 515.908 247.43 516.739 242.208C516.739 216.599 493.839 195.813 469.42 195.813 445.002 195.813 421.619 215.696 421.619 241.305L425.169 252.817C425.169 254.828 426.718 256.49 428.657 256.49 430.597 256.49 432.156 254.828 432.156 252.817 432.156 251.575 432.218 250.313 432.33 249.041 432.33 237.17 446.346 232.461 458.073 230.635 471.431 228.562 484.471 221.791 484.471 213.521 484.471 221.534 487.303 230.265 492.443 234.616 497.963 239.284 506.694 241.562 506.694 248.795V252.837C506.694 254.858 508.254 256.49 510.183 256.49 512.112 256.49 513.681 254.858 513.681 252.837H513.692Z"/></g><path d="M424.902 242.762C426.513 242.721 427.837 244.003 427.878 245.604L428.606 277.297C428.647 278.908 427.365 280.231 425.764 280.272 417.648 280.457 410.918 274.024 410.733 265.908L410.549 257.782C410.364 249.667 416.797 242.936 424.912 242.752L424.902 242.762Z" fill="#0ead69"/><path d="M512.46 280.477C510.849 280.375 509.639 278.98 509.752 277.379L511.824 245.748C511.927 244.137 513.322 242.926 514.912 243.039 523.007 243.573 529.153 250.57 528.62 258.665L528.086 266.77C527.553 274.865 520.555 281.011 512.46 280.477Z" fill="#0ead69"/><path d="M419.547 251.719 419.505 237.95C419.731 225.69 424.328 214.937 432.802 206.832 442.077 197.936 454.995 193.237 469.174 193.555L470.887 193.596C484.43 193.915 496.876 199.629 505.945 209.684 515.015 219.749 519.417 232.728 518.329 246.23L518.226 247.594 513.794 247.246 513.907 245.881C514.892 233.61 510.901 221.811 502.652 212.67 494.413 203.528 483.096 198.337 470.795 198.049L469.081 198.008C456.082 197.7 444.293 201.979 435.88 210.053 428.288 217.328 424.163 227.003 423.958 238.001L423.999 251.719H419.557 419.547Z" fill="#0ead69"/><path d="M463.346 308.436 463.059 304.003 481.886 302.803C485.159 302.598 488.401 301.664 491.263 300.135L501.503 294.646C508.131 291.096 512.594 284.499 513.435 277.02L517.847 277.512C516.841 286.449 511.516 294.318 503.596 298.566L493.367 304.055C489.95 305.891 486.072 306.999 482.173 307.245L463.346 308.446V308.436Z" fill="#0ead69"/><path d="M474.981 299.407 464.516 299.643C461.284 299.715 458.719 302.403 458.791 305.635 458.862 308.867 461.551 311.432 464.782 311.36L475.237 311.124C478.479 311.052 481.044 308.364 480.962 305.132 480.891 301.89 478.202 299.325 474.971 299.407H474.981Z" fill="#000000"/><path d="M469.882 465.248C491.176 465.248 508.438 447.986 508.438 426.692 508.438 405.397 491.176 388.135 469.882 388.135 448.587 388.135 431.325 405.397 431.325 426.692 431.325 447.986 448.587 465.248 469.882 465.248Z" fill="#c5ffe1"/></g></g></svg>