<svg fill="none" height="495" viewBox="0 0 945 495" width="945" xmlns="http://www.w3.org/2000/svg" xmlns:xlink="http://www.w3.org/1999/xlink"><clipPath id="clip0_41_667"><path d="M0 0H945V495H0Z"/></clipPath><g clip-path="url(#clip0_41_667)"><path d="M0 0H945V495H0Z" fill="#ffffff"/><path d="M0 0H1200V628H0Z" fill="#e2f1ff"/><path d="M260.795 175.723H684.041C755.443 175.723 813.323 233.649 813.323 305.11 813.323 376.57 755.443 434.497 684.041 434.497H260.795C189.392 434.487 131.512 376.57 131.512 305.11 131.512 233.649 189.392 175.723 260.795 175.723Z" fill="#ffffff"/><path d="M410.212 100.527H575.067C646.469 100.527 704.349 158.454 704.349 229.915 704.349 301.375 646.469 359.302 575.067 359.302H410.212C338.81 359.302 280.93 301.375 280.93 229.915 280.94 158.454 338.82 100.527 410.212 100.527Z" fill="#ffffff"/><path d="M384.928 46.3438C466.15 46.3438 531.992 112.239 531.992 193.527V212.108C531.992 293.395 466.15 359.29 384.928 359.29 303.707 359.29 237.865 293.395 237.865 212.108V193.527C237.865 112.239 303.707 46.3438 384.928 46.3438Z" fill="#ffffff"/><path d="M312.305 121.336C337.502 121.336 357.934 141.785 357.934 167.002V172.77C357.934 197.987 337.502 218.435 312.305 218.435 287.109 218.435 266.676 197.987 266.676 172.77V167.002C266.676 141.776 287.1 121.336 312.305 121.336Z" fill="#e3e3e3"/><path d="M365.584 127.736C389.081 127.736 408.13 146.801 408.13 170.317V175.692C408.13 199.209 389.081 218.273 365.584 218.273 342.087 218.273 323.038 199.209 323.038 175.692V170.317C323.038 146.801 342.087 127.736 365.584 127.736Z" fill="#e3e3e3"/><path d="M264.38 74.4719C262.271 66.6018 266.941 58.5094 274.805 56.4073L318.419 44.7089C322.192 43.692 326.214 44.2218 329.604 46.1787L350.813 58.424C354.203 60.3808 356.67 63.6024 357.686 67.3879L378.614 145.568C380.723 153.438 376.052 161.531 368.188 163.633L307.848 179.818C299.984 181.928 291.899 177.254 289.79 169.384L264.38 74.4719Z" fill="#dcc6ff"/><path d="M354.835 61.8249 339.628 65.9009C334.889 67.1742 330.014 64.3543 328.742 59.6117L324.669 44.3926C326.394 44.6831 328.067 45.2727 329.613 46.17L350.822 58.4153C352.359 59.3211 353.716 60.4747 354.835 61.8249Z" fill="#bca4ea"/><path d="M314.457 140.502C345.332 140.502 370.357 165.548 370.357 196.448V203.515C370.357 234.414 345.332 259.46 314.457 259.46 283.583 259.46 258.557 234.414 258.557 203.515V196.448C258.557 165.548 283.583 140.502 314.457 140.502Z" fill="#ffffff"/><path d="M379.732 148.346C408.523 148.346 431.858 171.7 431.858 200.514V207.103C431.858 235.917 408.523 259.271 379.732 259.271 350.941 259.271 327.606 235.917 327.606 207.103V200.514C327.606 171.7 350.941 148.346 379.732 148.346Z" fill="#ffffff"/><path d="M658.731 303.541C683.936 303.541 704.377 323.99 704.377 349.224V354.992C704.377 380.217 683.945 400.675 658.731 400.675 633.526 400.675 613.085 380.226 613.085 354.992V349.224C613.094 323.99 633.526 303.541 658.731 303.541Z" fill="#e3e3e3"/><path d="M715.801 299.383C739.307 299.383 758.364 318.456 758.364 341.981V347.356C758.364 370.881 739.307 389.954 715.801 389.954 692.295 389.954 673.237 370.881 673.237 347.356V341.981C673.237 318.447 692.295 299.383 715.801 299.383Z" fill="#e3e3e3"/><path d="M658.619 245.358C660.071 237.343 667.738 232.01 675.747 233.463L720.181 241.496C724.031 242.188 727.438 244.384 729.667 247.597L743.635 267.73C745.864 270.943 746.726 274.916 746.035 278.77L731.665 358.42C730.222 366.436 722.554 371.768 714.537 370.315L653.061 359.206C645.052 357.762 639.724 350.089 641.176 342.065L658.619 245.358Z" fill="#95d1f9"/><path d="M745.822 272.506 730.325 269.703C725.492 268.832 722.29 264.209 723.161 259.372L725.961 243.871C727.396 244.871 728.66 246.118 729.676 247.58L743.644 267.712C744.66 269.182 745.395 270.814 745.822 272.506Z" fill="#6aaed8"/><path d="M652.668 322.557C683.543 322.557 708.568 347.603 708.568 378.502V385.569C708.568 416.469 683.543 425.253 652.668 425.253 621.794 425.253 596.768 416.469 596.768 385.569V378.502C596.768 347.611 621.794 322.557 652.668 322.557Z" fill="#ffffff"/><path d="M722.554 317.463C751.346 317.463 774.681 340.817 774.681 369.632V376.22C774.681 405.034 751.346 410.646 722.554 410.646 693.763 410.646 670.428 405.034 670.428 376.22V369.632C670.428 340.817 693.772 317.463 722.554 317.463Z" fill="#ffffff"/><path d="M467.35 435.494C468.193 449.401 473.667 462.666 475.007 476.506 475.322 479.744 472.662 482.387 469.418 482.387H428.592C425.338 482.387 422.677 479.744 422.917 476.497 424.276 457.59 431.912 450.388 431.912 435.494H467.35Z" fill="#000000"/><path d="M385.316 311.05C372.415 314.593 361.036 322.38 348.299 326.384 345.322 327.322 342.317 325.349 341.667 322.294L333.58 283.877C332.939 280.822 334.891 277.795 337.982 277.364 356.022 274.893 364.29 280.65 378.291 277.7L385.316 311.05Z" fill="#000000"/><path d="M594.747 269.483 555.443 317.516H458.565L402.523 292.987C381.909 283.965 369.822 262.3 372.961 240.002 373.803 234.035 376.205 228.404 379.937 223.672L393.776 206.106C396.13 203.118 398.025 199.804 399.422 196.27L412.983 161.751C417.088 151.302 424.515 142.51 434.123 136.715L475.877 114.303H521.345L561.664 136.131C571.865 142.28 579.588 151.81 583.512 163.064L603.456 220.349C609.294 237.129 606.002 255.739 594.757 269.483H594.747Z" fill="#ffbd6e"/><path d="M469.533 259.885H557.855C579.177 259.885 596.47 277.192 596.47 298.531 596.47 319.871 579.177 337.178 557.855 337.178H469.533C448.21 337.178 430.917 319.871 430.917 298.531 430.917 277.182 448.21 259.885 469.533 259.885Z" fill="#4680e1"/><path d="M372.999 285.44C369.927 273.851 379.028 262.636 390.991 263.268L554.055 271.926 554.505 280.805C556.046 311.473 531.613 337.18 500.932 337.18H400.293C392.292 337.18 385.287 331.788 383.239 324.049L372.999 285.44Z" fill="#4680e1"/><path clip-rule="evenodd" d="M422.716 265.269 457.264 268.736 491.506 337.17H400.303C392.302 337.17 385.297 331.777 383.249 324.038L373.038 285.564C369.956 273.937 379.124 262.692 391.125 263.401L422.716 265.269Z" fill="#306dc6" fill-rule="evenodd"/><path d="M555.711 199.555H456.201C450.737 199.555 446.306 203.989 446.306 209.458V265.536C446.306 271.005 450.737 275.44 456.201 275.44H555.711C561.175 275.44 565.606 271.005 565.606 265.536V209.458C565.606 203.989 561.175 199.555 555.711 199.555Z" fill="#ffffff"/><path d="M505.956 243.537C509.286 243.537 511.985 240.836 511.985 237.503 511.985 234.17 509.286 231.469 505.956 231.469 502.626 231.469 499.927 234.17 499.927 237.503 499.927 240.836 502.626 243.537 505.956 243.537Z" fill="#c3dcf4"/><path d="M374.856 424.125C406.848 424.125 432.783 398.169 432.783 366.15 432.783 334.132 406.848 308.176 374.856 308.176 342.863 308.176 316.928 334.132 316.928 366.15 316.928 398.169 342.863 424.125 374.856 424.125Z" fill="#ffffff"/><path d="M544.963 366.294C509.994 399.309 509.43 387.155 465.599 387.155 421.768 387.155 386.234 410.17 386.234 366.294 386.234 322.418 421.768 286.865 465.599 286.865 509.43 286.865 544.963 322.428 544.963 366.294Z" fill="#ffffff"/><path d="M423.07 237.502C439.023 237.502 452.814 248.651 456.173 264.262L490.166 422.441C492.529 433.436 484.156 443.818 472.911 443.818H427.443C418.601 443.818 411.126 437.277 409.949 428.503L389.517 275.89C386.79 255.566 402.58 237.502 423.07 237.502Z" fill="#4680e1"/><g fill="#824f36"><path d="M568.535 235.137H538.38C536.275 235.137 534.887 237.32 535.787 239.226L539.203 246.477C540.313 248.833 542.237 250.71 544.62 251.764L566.449 261.447C567.109 261.734 567.818 261.888 568.535 261.888 571.387 261.888 573.694 259.579 573.694 256.725V240.28C573.694 237.445 571.387 235.137 568.535 235.137Z"/><path d="M427.405 246.189C428.793 243.632 428.601 240.5 426.898 238.143L420.974 229.926C418.495 226.478 413.662 225.759 410.284 228.336L404.676 232.607C402.628 234.169 400.934 236.142 399.699 238.402L394.359 248.191C393.68 249.445 393.517 250.92 393.919 252.29L395.795 258.688C396.264 260.297 398.044 261.111 399.556 260.421L423.864 249.464C425.376 248.794 426.611 247.635 427.405 246.189Z"/><path d="M479.804 75.3324C479.804 71.8219 476.97 68.9961 473.479 68.9961 469.988 68.9961 467.149 71.8219 467.149 75.3324 467.149 78.8428 469.983 84.5433 473.479 84.5433 476.976 84.5433 479.804 78.8211 479.804 75.3324Z"/><path d="M522.631 75.1602V126.513C522.631 127.97 521.702 129.252 520.323 129.698L517.989 130.453C505.865 134.355 492.824 134.355 480.712 130.453L478.393 129.698C477.014 129.252 476.086 127.97 476.086 126.529V75.1602H522.636 522.631Z"/><path d="M531.53 75.3324C531.53 71.8219 528.695 68.9961 525.199 68.9961 521.703 68.9961 518.869 71.8219 518.869 75.3324 518.869 78.8428 521.703 84.5433 525.199 84.5433 528.695 84.5433 531.53 78.8211 531.53 75.3324Z"/><path d="M499.311 111.666C484.619 111.666 472.556 100.059 471.969 85.3809L471.041 70.5184C470.395 54.4387 483.246 41.0488 499.316 41.0488 515.387 41.0488 528.232 54.4387 527.592 70.5184L526.663 85.3809C526.077 100.059 514.008 111.666 499.316 111.666H499.311Z"/></g><path d="M490.599 88.008C490.599 90.2849 490.268 92.1162 489.247 92.1162 488.226 92.1162 487.895 90.2849 487.895 88.008 487.895 85.731 488.226 83.916 489.247 83.916 490.268 83.916 490.599 85.7473 490.599 88.008Z" fill="#000000"/><path d="M491.939 79.2428C492.335 78.9548 492.596 78.5037 492.607 77.9875 492.629 77.1289 491.95 76.3953 491.087 76.3735 490.929 76.3627 487.254 76.2866 483.79 78.982 483.1 79.5199 482.97 80.4981 483.507 81.1991 484.045 81.8838 485.033 82.0088 485.723 81.4708 488.258 79.4928 490.962 79.5254 490.989 79.5417 491.336 79.5471 491.668 79.433 491.939 79.2537" fill="#000000"/><path d="M509.373 83.916C510.394 83.916 510.725 85.7473 510.725 88.008 510.725 90.2686 510.394 92.1162 509.373 92.1162 508.352 92.1162 508.021 90.2849 508.021 88.008 508.021 85.7473 508.352 83.916 509.373 83.916Z" fill="#000000"/><path d="M506.685 79.3022C506.957 79.4815 507.288 79.5902 507.635 79.5793 507.662 79.563 510.372 79.5032 512.923 81.4595 513.618 81.9867 514.606 81.8562 515.138 81.1661 515.671 80.4596 515.535 79.4815 514.834 78.9489 511.343 76.2862 507.668 76.3949 507.51 76.4112 506.647 76.4438 505.974 77.1828 506.001 78.0414 506.017 78.5577 506.283 79.0087 506.685 79.2913" fill="#000000"/><path d="M522.63 98.6348V111.204C518.031 114.715 512.293 116.769 506.082 116.769 501.369 116.769 496.939 115.589 493.068 113.481 491.808 112.796 492.525 110.845 493.931 111.117 495.679 111.476 497.487 111.666 499.338 111.666 509.16 111.666 517.809 106.46 522.63 98.6348" fill="#663c2b"/><path d="M527.614 62.2155C527.614 46.5814 514.942 33.8926 499.317 33.8926 483.691 33.8926 471.014 46.5814 471.014 62.2155V74.1164C471.014 75.3499 472.019 76.3607 473.251 76.3607 474.483 76.3607 475.488 75.3499 475.488 74.1164 475.488 73.361 475.526 72.5948 475.596 71.8123 475.607 69.4539 475.96 67.1824 476.612 65.0304L483.263 65.8021C491.819 66.7965 500.289 63.3404 505.712 56.6401 504.969 63.0524 509.562 68.8561 515.968 69.6006L523.129 70.432C523.157 70.845 523.173 71.2526 523.173 71.6601V74.1273C523.173 75.3608 524.177 76.3553 525.41 76.3553 526.642 76.3553 527.647 75.3608 527.647 74.1273V62.2047H527.625L527.614 62.2155Z" fill="#000000"/><path d="M500.945 102.463C500.945 102.463 507.01 103.609 511.152 99.0664" stroke="#000000" stroke-linecap="round" stroke-miterlimit="10" stroke-width="1.03495"/><path d="M225.605 330.326C250.802 330.326 271.234 350.775 271.234 375.992V381.76C246.037 381.76 179.977 381.76 179.977 381.76V375.992C179.977 350.775 200.409 330.326 225.605 330.326Z" fill="#e3e3e3"/><path d="M278.893 336.736C302.39 336.736 321.439 355.801 321.439 379.317V384.692C321.439 408.209 304.373 403.343 280.875 403.343 257.378 403.343 236.346 408.209 236.346 384.692V379.317C236.346 355.801 255.395 336.736 278.893 336.736Z" fill="#e3e3e3"/><path d="M195.123 283.124C194.081 275.04 199.785 267.649 207.862 266.606L252.646 260.838C256.522 260.343 260.441 261.402 263.532 263.786L282.922 278.758C286.022 281.15 288.037 284.671 288.541 288.559L298.863 368.833C299.905 376.917 294.202 384.308 286.124 385.351L224.162 393.332C216.085 394.375 208.699 388.666 207.657 380.583L195.123 283.124Z" fill="#ffbd6e"/><path d="M286.449 282.68 270.832 284.688C265.965 285.312 261.508 281.877 260.885 277.006L258.879 261.377C260.544 261.89 262.132 262.71 263.541 263.795L282.931 278.767C284.34 279.86 285.527 281.185 286.449 282.68Z" fill="#e59a48"/><path d="M227.757 349.494C258.631 349.494 283.657 374.54 283.657 405.44V412.507C252.783 412.507 173.236 393.034 173.236 393.034 178.874 368.105 201.142 349.494 227.757 349.494Z" fill="#ffffff"/><path d="M293.033 357.338C321.824 357.338 345.159 380.692 345.159 409.507V416.095C316.368 416.095 240.915 416.095 240.915 416.095V409.507C240.915 380.692 264.25 357.338 293.033 357.338Z" fill="#ffffff"/></g></svg>