<svg enable-background="new 0 0 945 495" viewBox="0 0 945 495" xmlns="http://www.w3.org/2000/svg" xmlns:xlink="http://www.w3.org/1999/xlink"><defs><path id="SVGID_1_" d="M0 0H945V495H0Z"/><clipPath id="SVGID_00000005241505993186424190000009451243053441669549_"><use xlink:href="#SVGID_1_"/></clipPath></defs><path clip-path="url(#SVGID_00000005241505993186424190000009451243053441669549_)" d="M-9.2-5.8H967.4V528.6H-9.2Z" fill="#94d0f8"/><path clip-path="url(#SVGID_00000005241505993186424190000009451243053441669549_)" d="M625.9-5.8H995.3V564.7H625.9Z" fill="#bbbbbb"/><path clip-path="url(#SVGID_00000005241505993186424190000009451243053441669549_)" d="M565.9 127.7 823.9 175.4 729.4 319.8 561.1 136Z" fill="#f7f7f7" opacity=".5"/><g fill="#814f36"><path clip-path="url(#SVGID_00000005241505993186424190000009451243053441669549_)" d="M186.9 280.5c3.6 3.7 9.8.9 9.4-4.3l-5.6-63.2-30-2.4-28.8 12.6L186.9 280.5z"/><path clip-path="url(#SVGID_00000005241505993186424190000009451243053441669549_)" d="M194.8 222.3c40.7-.6 72-36 67.7-76.4l-4.2-39.5c-4.1-37.9-38.1-65.4-76-61.3-37.9 4.1-65.4 38.1-61.3 76l10.9 102.1"/><path clip-path="url(#SVGID_00000005241505993186424190000009451243053441669549_)" d="M259 112.9 259 112.9l-.8 15.6 3.9 13.9 6-8.9c1.6-2.3 1.5-5.4-.1-7.7L259 112.9 259 112.9z"/></g><path clip-path="url(#SVGID_00000005241505993186424190000009451243053441669549_)" d="M120.9 121.1l8.5 79.6c23.7-2.6 38.4-31 36.9-65 1-2.7 2-5.3 2.9-7.8 11.4-2.4 65.8-25.3 45.8-61.9.7.9 13.2 15.8 33.1 11-.2-.3-.4-.6-.6-.9C233.8 55 209 42.2 182.3 45c-35.4 3.8-61.7 33.7-61.7 68.6C120.5 116.1 120.7 118.6 120.9 121.1z"/><path clip-path="url(#SVGID_00000005241505993186424190000009451243053441669549_)" d="M250 107.3c-1.8.2-1.7 5.2-1 11.3.8 6.1 2 10.9 3.8 10.7 1.8-.2 1.7-5.2 1-11.3C253 111.9 251.8 107.1 250 107.3z"/><path clip-path="url(#SVGID_00000005241505993186424190000009451243053441669549_)" d="M242.7 100.8c.1 0 4.5-4 11.5-4.5 1.9-.1 3.3-1.8 3.2-3.7-.1-1.9-1.8-3.4-3.7-3.2-9.6.6-15.6 6.1-15.8 6.3-1.4 1.3-1.5 3.5-.2 4.9.8.8 1.9 1.2 2.9 1.1C241.5 101.6 242.2 101.3 242.7 100.8z"/><path clip-path="url(#SVGID_00000005241505993186424190000009451243053441669549_)" d="M246.9 170 246.9 170c-.4.1-.9.1-1.3.2-8.8.9-18.1-4.5-21.3-12.5-.4-.9-1.3-1.5-2.3-1.4-.2 0-.4.1-.6.1-.6.2-1 .6-1.2 1.2-.2.5-.2 1.1 0 1.7 3.9 9.7 15.2 16.4 25.8 15.2.6-.1 1.1-.1 1.7-.2 1.2-.2 2-1.4 1.8-2.6C249.2 170.6 248.1 169.9 246.9 170L246.9 170z"/><path clip-path="url(#SVGID_00000005241505993186424190000009451243053441669549_)" d="M273.3 401l-28.7-129.5-114-60.3-29 30.6C81.2 263.5 72 291.6 68.4 323L50 500.2c.8 9.9 16.3 68.2 14.3 77.8l-13.4-5.7c-5.1 24.8 11.8 48.7 36.9 52.2l86.7 11.9c49.2 6.8 94.2-28.6 99.2-78l5.5-54.2C282.8 469.7 280.8 434.9 273.3 401z" fill="#e2f1ff"/><path clip-path="url(#SVGID_00000005241505993186424190000009451243053441669549_)" d="M279.9 445.2 197 379.4c-2.5-2 .1-5.9 2.9-4.4l77.2 40 1.7 16.7L279.9 445.2z" fill="#b1cfe5"/><path clip-path="url(#SVGID_00000005241505993186424190000009451243053441669549_)" d="M152.5 350.5l-25-88.4 64.8-18.1L374 339l121-102.7 39.2 16.2-75 135.9c-28 50.6-92.1 72.4-144.3 47.5L152.5 350.5z" fill="#e2f1ff"/><path clip-path="url(#SVGID_00000005241505993186424190000009451243053441669549_)" d="M510.6 199.1l8.9-21.6c2.1-5 6.7-8.6 12.1-9.2l10.8-1.3c3.3-.4 4.9 3.9 2.2 5.8l-15.1 17.7L510.6 199.1z" fill="#814f36"/><path clip-path="url(#SVGID_00000005241505993186424190000009451243053441669549_)" d="M525.3 241.3c-3.8-1.3-5.8-5.5-4.5-9.3L559 123.4c1.3-3.8 5.5-5.8 9.3-4.5 3.8 1.3 5.8 5.5 4.5 9.4l-38.2 108.5C533.3 240.6 529.2 242.6 525.3 241.3z"/><path clip-path="url(#SVGID_00000005241505993186424190000009451243053441669549_)" d="M570.2 156.3c-.6 12-1.2 24-1.9 36-.3 6.1.1 11.6-2.7 17.1-2.7 5.4-6.3 10.4-10.4 14.8-7.3 7.7-17.5 19.5-21.1 28.3L495 236.2l7.1-17 10.4-24.7 28.3-19.3-7.9 22.7 20.4-14.2 11.2-31.4C566.4 150.4 570.8 152.2 570.2 156.3" fill="#814f36"/><path clip-path="url(#SVGID_00000005241505993186424190000009451243053441669549_)" d="M169.7 169.7c-4.8-6.7-3.8-17.1-3.8-17.1l-16.9 8.8 9.2-76 44.4-39.6c0 0-47.7-11.4-84.8 34-9.2 11.3-13 25.4-18.1 38.8-1.8 4.8-3.8 9.7-7.2 13.7-3.3 3.9-8 5.2-12.5 6.8-8.4 3-15.7 9.8-17.9 18.6-2.7 11.1 4.8 19.9 14.2 24.8 23.5 12.3 55.1 29.1 63.7 33.7 0 0 21 13.5 36.2-7.9C186.9 193.1 174.1 175.8 169.7 169.7z"/><path clip-path="url(#SVGID_00000005241505993186424190000009451243053441669549_)" d="M165.8 152.6c-8.1.9-15.4-5-16.3-13.1-.9-8.1 5-15.4 13.1-16.3 8.1-.9 15.4 5 16.3 13.1C179.8 144.5 173.9 151.8 165.8 152.6z" fill="#814f36"/><g clip-path="url(#SVGID_00000005241505993186424190000009451243053441669549_)"><path d="M851.7 327.4H747.8c-19.8 0-35.9-16.2-35.9-35.9v-92.1c0-19.8 16.2-35.9 35.9-35.9h103.9c19.8 0 35.9 16.2 35.9 35.9v92.1C887.6 311.2 871.5 327.4 851.7 327.4z" fill="#f8f8f8"/><path d="M769.7 230.8h-20.6c-7.3 0-13.2-5.9-13.2-13.2v-18.8c0-7.3 5.9-13.2 13.2-13.2h20.6c7.3 0 13.2 5.9 13.2 13.2v18.8C782.9 224.9 776.9 230.8 769.7 230.8zM749.1 194.4c-2.4 0-4.4 2-4.4 4.4v18.8c0 2.4 2 4.4 4.4 4.4h20.6c2.4 0 4.4-2 4.4-4.4v-18.8c0-2.4-2-4.4-4.4-4.4H749.1z"/><path d="M765.1 217h-11.5c-1.7 0-3.1-1.4-3.1-3.1v-11.5c0-1.7 1.4-3.1 3.1-3.1h11.5c1.7 0 3.1 1.4 3.1 3.1V214C768.2 215.6 766.8 217 765.1 217z"/><path d="M765.1 290.7h-11.5c-1.7 0-3.1-1.4-3.1-3.1v-11.5c0-1.7 1.4-3.1 3.1-3.1h11.5c1.7 0 3.1 1.4 3.1 3.1v11.5C768.2 289.3 766.8 290.7 765.1 290.7z"/><path d="M847.3 217h-11.5c-1.7 0-3.1-1.4-3.1-3.1v-11.5c0-1.7 1.4-3.1 3.1-3.1h11.5c1.7 0 3.1 1.4 3.1 3.1V214C850.3 215.6 848.9 217 847.3 217z"/><path d="M850.4 230.8h-20.6c-7.3 0-13.2-5.9-13.2-13.2v-18.8c0-7.3 5.9-13.2 13.2-13.2h20.6c7.3 0 13.2 5.9 13.2 13.2v18.8C863.6 224.9 857.7 230.8 850.4 230.8zM829.8 194.4c-2.4 0-4.4 2-4.4 4.4v18.8c0 2.4 2 4.4 4.4 4.4h20.6c2.4 0 4.4-2 4.4-4.4v-18.8c0-2.4-2-4.4-4.4-4.4H829.8z"/><path d="M769.7 304.5h-20.6c-7.3 0-13.2-5.9-13.2-13.2v-18.8c0-7.3 5.9-13.2 13.2-13.2h20.6c7.3 0 13.2 5.9 13.2 13.2v18.8C782.9 298.6 776.9 304.5 769.7 304.5zM749.1 268.1c-2.4 0-4.4 2-4.4 4.4v18.8c0 2.4 2 4.4 4.4 4.4h20.6c2.4 0 4.4-2 4.4-4.4v-18.8c0-2.4-2-4.4-4.4-4.4H749.1z"/><path d="M792 252.4h-22.6c-2.4 0-4.4-2-4.4-4.4s2-4.4 4.4-4.4h18.2v-20.4c0-2.4 2-4.4 4.4-4.4h7.9v-23.8c0-2.4 2-4.4 4.4-4.4s4.4 2 4.4 4.4v28.2c0 2.4-2 4.4-4.4 4.4h-7.9V248C796.4 250.5 794.5 252.4 792 252.4z"/><path d="M858.5 259.6h-29.5c-2.4 0-4.4-2-4.4-4.4V246h-13.9c-2.4 0-4.4-2-4.4-4.4s2-4.4 4.4-4.4h18.2c2.4 0 4.4 2 4.4 4.4v9.2h25.1c2.4 0 4.4 2 4.4 4.4S860.9 259.6 858.5 259.6z"/><path d="M751.8 254.2h-9.2c-2.4 0-4.4-2-4.4-4.4s2-4.4 4.4-4.4h9.2c2.4 0 4.4 2 4.4 4.4S754.2 254.2 751.8 254.2z"/><path d="M839.3 287.8h-9.2c-2.4 0-4.4-2-4.4-4.4 0-2.4 2-4.4 4.4-4.4h9.2c2.4 0 4.4 2 4.4 4.4C843.7 285.8 841.7 287.8 839.3 287.8z"/><path d="M792 297.9c-2.4 0-4.4-2-4.4-4.4v-17.6c0-2.4 2-4.4 4.4-4.4h15.3v-7.8c0-2.4 2-4.4 4.4-4.4s4.4 2 4.4 4.4v12.2c0 2.4-2 4.4-4.4 4.4h-15.3v13.2C796.4 295.9 794.4 297.9 792 297.9z"/><path d="M858 304.5h-27.2c-2.4 0-4.4-2-4.4-4.4s2-4.4 4.4-4.4h22.8V277c0-2.4 2-4.4 4.4-4.4s4.4 2 4.4 4.4v23.1C862.4 302.5 860.5 304.5 858 304.5z"/></g></svg>