<svg viewBox="0 0 945 495" xmlns="http://www.w3.org/2000/svg" xmlns:xlink="http://www.w3.org/1999/xlink"><clipPath id="clippath"><path d="M0 0H945V495H0Z"/></clipPath><g clip-path="url(#clippath)"><path d="m945.43 0H-.43v495h945.86V0Z" fill="#94d0f8"/><path d="m472.5 786.33c205.26 0 371.65-166.39 371.65-371.65S677.76 43.03 472.5 43.03 100.85 209.42 100.85 414.68s166.39 371.65 371.65 371.65Z" fill="#3e5fff"/><g fill="#ff7059"><path d="m260.99 308.7-35.18 64.05c-9.35 17.03 2.97 37.84 22.39 37.84h71.99l6.63-64.1-65.83-37.79Z"/><path d="m486.9 308.7 35.44 64.53c9.23 16.81-2.93 37.37-22.11 37.37h-72.53l-6.63-64.1 65.83-37.8Z"/><path d="m554.59 174.81v23.19c0 21.34 17.3 38.64 38.64 38.64v-73.93l-38.64 12.1Z"/><path d="m561.88 76.57h-9.88l67.07 67.63v-10.43c0-14.72-5.67-28.87-15.84-39.51-10.79-11.3-25.73-17.69-41.36-17.69Z"/><path d="m493.51 339.44c-.14.17-.27.34-.41.52-10.31 12.87-22.64 24.02-36.53 32.99-.04.02-.07.05-.11.07-.82.53-1.66 1.05-2.5 1.57-.02.02-.05.03-.07.05-.77.48-1.54.95-2.33 1.41h-.01c-22.71 13.44-49.22 21.16-77.53 21.16-37.24 0-71.36-13.35-97.83-35.52-.49-.41-.99-.83-1.47-1.26-6.8-5.83-13.08-12.26-18.76-19.2-.48-.59-.96-1.18-1.43-1.78l3.09-18.42c3.41-20.31 16.42-37.75 34.93-46.8l49.04-23.03h64.94l48.98 23.03c18.51 9.04 31.51 26.49 34.91 46.8l3.09 18.41Z"/></g><path d="m456.57 372.95s-.07.05-.11.07c-.82.53-1.66 1.05-2.5 1.57-.02.02-.05.03-.07.05-.77.48-1.54.95-2.33 1.41l.68-3.43c.21-1 .93-1.57 1.72-1.72 1.12-.21 2.38.42 2.58 1.84l.03.21Z" fill="#ce8282"/><path d="m453.1 389.98h-155.83l-6.52 58.23c-1.68 15.01 9.99 28.14 25 28.14h118.87c15.01 0 26.68-13.14 25-28.14l-6.52-58.23Z" fill="#ff7059"/><path d="m658.53 423.38H152.19c-3.31 0-5.99-2.68-5.99-5.99v-.8c0-3.31 2.68-5.99 5.99-5.99h506.35c3.31 0 5.99 2.68 5.99 5.99v.8c0 3.3-2.69 5.99-6 5.99Z" fill="#ffffff"/><path d="m228.08 415.53-.92 7.85-32.33 276.43h-12.87l32.33-276.43 1.1-9.33 12.69 1.48Z" fill="#ffffff"/><path d="m628.76 699.81h-12.88l-32.33-276.43-.92-7.85 12.7-1.48 1.1 9.33 32.33 276.43Z" fill="#ffffff"/><path d="m459.24 410.59h-170.44c-6.99 0-12.66-5.67-12.66-12.66v-99.12c0-6.99 5.67-12.66 12.66-12.66h170.44c6.99 0 12.66 5.67 12.66 12.66v99.12c0 6.99-5.67 12.66-12.66 12.66Z" fill="#3d3d3d"/><path d="m374.02 358.26c5.46 0 9.89-4.43 9.89-9.89s-4.43-9.89-9.89-9.89-9.89 4.43-9.89 9.89 4.43 9.89 9.89 9.89Z" fill="#c2dbf3"/><path d="m700.76 315.26-47.87 162.58c-5.69 19.34-7.38 39.63-4.96 59.65l12.88 106.54c1.79 14.77 14.32 25.88 29.2 25.88h55.77l-4.77-217.62" fill="#94d0f8"/><path d="m655.62 601.08 5.19 42.94c1.78 14.69 14.18 25.75 28.95 25.87l-18.77-67.91 15.72-151.37c.22-2.1-2.87-2.54-3.25-.47l-27.84 150.94Z" fill="#6aadd7"/><path d="m785.53 315.26v330.44c0 13.36-10.83 24.2-24.2 24.2h-70.56c-14.35 0-25.55-12.42-24.07-26.7l34.05-327.94h84.78Z" fill="#94d0f8"/><path d="m678.91 389.47 64.05-50.29c1.86-1.46.08-4.37-2.07-3.38l-44.18 20.39-8.43 1.44-9.37 31.84Z" fill="#6aadd7"/><path d="m623.91 346.49h18.56c17.48 0 31.65-14.17 31.65-31.65v-57.26" fill="#9ac1dd"/><path d="m526.03 270.9v21.06l-25.42 2.67c-5.94.63-11.68-2.35-14.58-7.56-1.33-2.36-3.23-4.28-5.48-5.59-2.25-1.32-4.85-2.05-7.55-2.05h-18.88c-1.46 0-2.52-1.4-2.12-2.81.22-.74.79-1.31 1.52-1.52l34.51-9.72c6.05-1.7 12.47-1.7 18.52.01l19.48 5.51Z" fill="#ffbc6e"/><path d="m786.26 314.86-89.55 41.33c-14.05 6.49-30.72.75-37.81-13.01l-63.95-124.23c-7.82-15.18-8.75-32.99-2.56-48.9l12.1-33.18 29.23 14.55c31.89 15.88 61.26 36.39 87.15 60.87l71.17 67.29c11.11 10.49 8.09 28.88-5.78 35.28Z" fill="#ffffff"/><path d="m603.02 389.98c0 5.49-8.52 6.22-15.62 5.87-6.92-.34-13.83.79-20.22 3.46l-16.48 6.87c-.85.36-1.41 1.19-1.41 2.11 0 1.26 1.03 2.29 2.29 2.29h86.85l1.63-11.65" fill="#ffbc6e"/><path d="m646.24 181.54h-43.22v208.44l17.71 14.34c5.01 4.06 11.26 6.27 17.7 6.27 16.66 0 29.67-14.4 27.98-30.98l-20.17-198.07Z" fill="#ffffff"/><path d="m644.13 346.49h-83.98c-18.84 0-34.12-15.27-34.12-34.12v-41.47l93.86 26.57 24.24 49.02Z" fill="#ffffff"/><path d="m644.46 190.7h-56.11v114.58h56.11v-114.58Z" fill="#ffffff"/><path d="m593.23 346.49s3.11-23.3 5.82-43.62c.33-2.46 3.97-2.22 3.97.27v43.35h-9.79Z" fill="#e2e2e2"/><path d="m658.46 301.54 4.89 47.99c3.56 3.87 8.06 6.64 12.97 8.1l-14.57-56.68c-.52-2-3.5-1.47-3.29.59Z" fill="#e2e2e2"/><path d="m372.54 465.51-1.17.9c-22.72-17.85-50.78-27.55-79.68-27.55h-.05c-20.09 0-36.07 16.88-34.96 36.94l10.97 199.2h55.65l9.64-175.2h77.69l9.64 175.2h55.65l10.97-199.21c1.1-20.06-14.87-36.94-34.96-36.94h-.87c-28.39.01-55.99 9.37-78.52 26.66Z" fill="#94d0f8"/><path d="m619.06 144.19-18.41.52-13.62 13.66 11.11 30.02c1.04 2.83 5.06 2.77 6.03-.09l14.89-44.12Z" fill="#ffbc6e"/><path d="m590.53 167.63 28.53-23.44-14.19-20.93-26.28-20.23c-12.55-18.51-31.05-32.03-49.56-19.48-18.51 12.55-23.34 37.73-10.8 56.23l13.07 19.27c13.37 19.73 40.81 23.69 59.23 8.57" fill="#ffbc6e"/><path d="m521.23 152.15c.15 1.65 1.29 3.02 2.89 3.48l6.55 1.94-10.26-15.35.83 9.93Z" fill="#ffbc6e"/><path d="m524.32 131.02c.51-.35.86-.92.9-1.59.06-1.12-.8-2.07-1.92-2.12-.2-.01-4.94-.22-9.46 3.16-.9.67-1.09 1.94-.42 2.84.67.9 1.94 1.1 2.84.42 3.31-2.48 6.8-2.36 6.83-2.36.45.02.87-.11 1.22-.36" fill="#ff7059"/><path d="m524.68 143.26c1.95 3.01 3.83 5.25 4.7 4.68.88-.57-.41-3.19-2.36-6.2-1.95-3.01-3.83-5.25-4.7-4.68-.88.57.41 3.19 2.36 6.2Z"/><path d="m547.47 163.91c-.63.43-.81 1.18-.48 1.77.35.62 1.15.84 1.77.48.28-.17.57-.35.84-.53 5.2-3.53 7.74-10.82 5.8-16.61-.11-.33-.35-.59-.66-.75-.31-.15-.66-.18-1-.07-.11.04-.22.09-.32.16-.48.32-.69.94-.5 1.49 1.6 4.73-.51 10.71-4.8 13.62-.21.15-.44.3-.67.41h.01s0 0 0 0Z"/><path d="m566.53 115.89c-.32.47-12.29 10.8-31.35 8.31-10.71-1.39-19.23-4.87-23.85-9.57.74-12.11 6.89-23.75 17.7-31.08 18.51-12.55 43.69-7.71 56.24 10.8l19.6 28.91c-12.77 8.79-25.69-.23-36.95-6.58-.47-.26-.93-.53-1.38-.78Z" fill="#ff7059"/><path d="m565.09 123.14c-2.69-3.96-1.65-9.35 2.32-12.05 3.97-2.69 9.36-1.65 12.05 2.32s1.65 9.35-2.32 12.05c-3.97 2.69-9.35 1.65-12.05-2.32Z" fill="#ffbc6e"/><path d="m407.1 262.66c0 2.07-1.32 3.89-3.28 4.52l-3.32 1.07c-17.24 5.54-35.78 5.54-53 0l-3.3-1.07c-1.96-.63-3.28-2.45-3.28-4.5v-72.97h66.18v72.95Z" fill="#ffbc6e"/><path d="m346.18 192.64c0-4.99-4.03-9-8.99-9s-9 4.01-9 9 4.03 13.08 9 13.08 8.99-8.13 8.99-13.08Z" fill="#ffbc6e"/><path d="m419.72 192.64c0-4.99-4.03-9-9-9s-9 4.01-9 9 4.03 13.08 9 13.08 9-8.13 9-13.08Z" fill="#ffbc6e"/><path d="m373.94 234.4c-20.89 0-38.04-16.49-38.88-37.34l-1.32-21.11c-.92-22.84 17.35-41.86 40.2-41.86s41.12 19.02 40.21 41.86l-1.32 21.11c-.83 20.85-17.99 37.34-38.89 37.34h0Z"/><path d="m373.94 249.84c-20.89 0-38.04-16.49-38.88-37.34l-1.32-21.11c-.92-22.84 17.35-41.86 40.2-41.86s41.12 19.02 40.21 41.86l-1.32 21.11c-.83 20.85-17.99 37.34-38.89 37.34h0Z" fill="#ffbc6e"/><path d="m372.32 252.1c-1.64-.46-1.04-2.32.67-2.28.32 0 .64.01.96.01h0c13.98 0 26.29-7.38 33.15-18.52v14.34c-6.54 4.99-14.7 7.9-23.53 7.9-3.51 0-7.52-.42-11.26-1.46Z" fill="#e59a48"/><path d="m414.13 191.71v-17.71h-.03c0-22.2-18.02-40.23-40.23-40.23s-40.24 18.03-40.24 40.23v17.69c0 1.74 1.41 3.19 3.17 3.19s3.18-1.44 3.18-3.19c0-1.07.05-2.17.16-3.27 0-3.83.79-6.24 1.74-7.76 1.4-2.25 4.35-1.91 6.95-1.37 14.7 3.06 38.74-4.69 38.74-17.97 0 13.86 5.91 22.4 16.43 23.16 1.03.07 2.14.19 2.83.96.5.57.96 1.45.96 2.77v3.51c0 1.75 1.42 3.16 3.17 3.16s3.18-1.41 3.18-3.16Z"/><path d="m374.51 232.96c-.77-.21-1.48.17-1.72.83-.25.69.12 1.47.82 1.71.32.11.65.21.98.3 6.32 1.69 13.78-1.27 17.01-6.74.18-.31.23-.67.14-1.03-.09-.35-.31-.64-.62-.83-.1-.07-.21-.1-.34-.14-.59-.16-1.21.1-1.52.62-2.64 4.48-8.77 6.9-13.98 5.5-.26-.07-.53-.14-.78-.25h0s.02.01.02.01Z"/><path d="m361.27 210.67c0 3.22-.41 5.82-1.64 5.82s-1.64-2.61-1.64-5.82.41-5.82 1.64-5.82 1.64 2.6 1.64 5.82Z"/><path d="m389.89 210.67c0 3.22-.41 5.82-1.64 5.82s-1.64-2.61-1.64-5.82.41-5.82 1.64-5.82 1.64 2.6 1.64 5.82Z"/><path d="m363.47 197.99c.55-.43.9-1.08.89-1.81-.02-1.22-1.01-2.22-2.25-2.22-.22 0-5.45.07-10.24 4.08-.96.79-1.08 2.19-.29 3.16.79.95 2.21 1.07 3.17.28 3.5-2.94 7.35-3.03 7.39-3 .49 0 .96-.18 1.34-.46"/><path d="m384.43 198.33c.39.25.86.4 1.36.38.04-.02 3.88-.15 7.54 2.59 1 .74 2.4.54 3.14-.45.74-1.01.54-2.4-.46-3.14-5-3.74-10.23-3.53-10.45-3.5-1.23.06-2.17 1.12-2.12 2.33.03.73.42 1.37.99 1.76"/></g></svg>