<svg fill="none" height="495" viewBox="0 0 945 495" width="945" xmlns="http://www.w3.org/2000/svg" xmlns:xlink="http://www.w3.org/1999/xlink"><clipPath id="clip0_289_201"><path d="M0 0H945V495H0Z"/></clipPath><clipPath id="clip1_289_201"><path d="M-44-24H989.93V762.05H-44Z"/></clipPath><g clip-path="url(#clip0_289_201)"><path d="M0 0H945V495H0Z" fill="#f8f8f8"/><g clip-path="url(#clip1_289_201)"><path d="M989.93-24H-44V515.03H989.93V-24Z" fill="#f8f8f8"/><path d="M612.34 450.31C726.983 450.31 819.92 357.373 819.92 242.73 819.92 128.087 726.983 35.15 612.34 35.15 497.697 35.15 404.76 128.087 404.76 242.73 404.76 357.373 497.697 450.31 612.34 450.31Z" fill="#e55041"/><path d="M732.09 194.72 705.25 219.3C689.69 233.56 665.52 232.51 651.26 216.95L627.14 190.63C612.88 175.07 613.93 150.9 629.49 136.64L657.05 111.38C676.79 93.29 704.36 86.41 730.29 93.14L736.75 94.81C746.07 97.23 753.16 104.81 754.94 114.29L756.35 121.85C761.39 148.71 752.22 176.26 732.07 194.72H732.08 732.09Z" fill="#000000"/><path d="M665.11 234.48 612.51 177.09 679.96 127.68 720.19 171.57 665.11 234.47V234.48Z" fill="#f4c9b8"/><path d="M667.75 179.23C653.85 164.06 650.93 145.69 664.99 131.73L687.28 109.6C702.66 94.32 727.67 94.91 742.32 110.89 756.97 126.87 755.38 151.83 738.82 165.83L714.83 186.11C699.7 198.9 681.66 194.4 667.75 179.23Z" fill="#f4c9b8"/><path d="M739.99 164.79C739.6 165.14 739.21 165.49 738.8 165.83L737.38 167.03 714.82 186.11C713.4 187.31 711.96 188.36 710.5 189.26L692.86 145.07C689.62 136.94 681.92 131.48 673.17 131.1L665.93 130.78 687.26 109.6C687.71 109.16 688.16 108.73 688.62 108.3 704.09 94.36 728.08 95.37 742.3 110.88 756.52 126.39 755.43 150.62 739.98 164.78H739.99V164.79Z" fill="#cea193"/><path d="M686.42 123.3C689.89 120.12 690.13 114.71 686.95 111.23 683.76 107.75 678.36 107.51 674.88 110.7 671.4 113.89 668.31 121.91 671.5 125.39 674.69 128.87 682.95 126.48 686.42 123.29V123.3Z" fill="#cea193"/><path d="M736.63 178.07C740.1 174.89 740.34 169.48 737.15 166 733.96 162.52 728.56 162.29 725.08 165.47 721.6 168.66 718.51 176.68 721.7 180.16 724.89 183.64 733.15 181.25 736.63 178.07Z" fill="#cea193"/><g fill="#000000"><path d="M689.08 157.21C688.84 156.95 688.73 156.57 688.83 156.2 688.98 155.62 689.57 155.26 690.16 155.41 690.85 155.59 707.06 159.81 712.26 168.76 712.56 169.28 712.39 169.95 711.86 170.26 711.34 170.56 710.67 170.39 710.37 169.86 705.64 161.7 689.78 157.57 689.62 157.53 689.4 157.47 689.22 157.37 689.08 157.21Z"/><path d="M716.58 150.3C714.95 152.87 713.24 154.71 712.08 153.97 710.93 153.23 711.87 150.91 713.5 148.33 715.13 145.76 718.22 147.73 716.58 150.29V150.3Z"/><path d="M698.13 130.17C696.5 132.74 694.79 134.58 693.63 133.84 692.47 133.1 693.42 130.78 695.05 128.2 696.68 125.63 699.77 127.6 698.13 130.16V130.17Z"/><path d="M692.96 128.39C691.98 127.32 691.02 126.25 690.07 125.16 689.08 124.03 689.2 122.3 690.33 121.31 691.46 120.32 693.2 120.43 694.18 121.57 707.58 136.9 724.61 150.74 724.78 150.88 725.95 151.83 726.13 153.54 725.18 154.72 724.23 155.89 722.51 156.07 721.34 155.12 721.18 154.99 706.1 142.74 692.96 128.39Z"/></g><path d="M667.75 179.23C666.16 177.5 664.72 175.72 663.43 173.92 662.61 172.77 660.81 173.63 661.2 174.99 663.59 183.33 670.62 197.4 691.14 204.75L701.46 192.96C689.83 195.5 677.72 190.11 667.75 179.23Z" fill="#cea193"/><path d="M590.88 403.4 451.64 218.15C436.54 201.67 440.03 175.55 458.91 163.6L504.18 136.67C532.89 118.53 575.02 115.58 601.66 136.65L631.03 159.9C631.03 159.9 626.26 184.26 642.7 202.2 659.15 220.14 683.83 217.51 683.83 217.51L704.44 248.79C723.12 277.14 721.85 314.2 701.29 341.22L665.19 388.64C650.5 406.44 623.23 403.4 590.9 403.4H590.88Z" fill="#3d3d3d"/><path d="M669.38 230.24 653.07 223.58C651.07 222.76 649.51 225.43 651.2 226.78L716.29 278.4C714.4 268.04 710.46 257.96 704.42 248.79L687.77 223.52 669.37 230.25 669.38 230.24Z" fill="#000000"/><path d="M756.36 121.85 754.95 114.29C753.17 104.82 746.09 97.24 736.76 94.81L730.29 93.14C704.35 86.41 676.8 93.28 657.05 111.38L623.41 142.3C615.36 149.67 612.29 161.03 615.52 171.46L624.62 200.81C627.12 208.87 633.09 215.39 640.9 218.57L669.39 230.22C679.5 234.35 691.09 232.28 699.14 224.9L732.09 194.7C752.23 176.24 761.42 148.69 756.37 121.83H756.36V121.85ZM639.62 182.59 637.52 146C637.31 142.28 638.78 138.65 641.53 136.13L663.68 115.82C666.11 113.59 669.33 112.43 672.62 112.56L692.44 113.43C701.18 113.81 708.89 119.28 712.13 127.4L726.62 163.69C729.88 171.88 727.76 181.25 721.26 187.21L702.12 204.75C699.39 207.25 695.68 208.41 692.02 207.89L658.8 203.31C648.28 201.86 640.24 193.18 639.62 182.58V182.59Z" fill="#3d3d3d"/><path d="M590.88 120.18H183.56C168.06 120.18 155.5 132.74 155.5 148.24V375.34C155.5 390.84 168.06 403.4 183.56 403.4H590.88C606.38 403.4 618.94 390.84 618.94 375.34V148.24C618.94 132.74 606.38 120.18 590.88 120.18Z" fill="#bcbcbc"/><path d="M618.94 146.95H155.5V197.29H618.93V146.95H618.94Z" fill="#3d3d3d"/><path d="M510.86 379.72C531.17 379.72 547.64 363.25 547.64 342.94 547.64 322.63 531.17 306.16 510.86 306.16 490.55 306.16 474.08 322.63 474.08 342.94 474.08 363.25 490.55 379.72 510.86 379.72Z" fill="#2e53bb"/><path d="M563.19 380.11C583.5 380.11 599.97 363.64 599.97 343.33 599.97 323.02 583.5 306.55 563.19 306.55 542.88 306.55 526.41 323.02 526.41 343.33 526.41 363.64 542.88 380.11 563.19 380.11Z" fill="#2e53bb"/><path d="M591.11 120.72H433.5C418.06 120.72 416 167.5 411.5 188.5L398.5 244 411.5 323C411.5 338.44 461.56 402.86 477 402.86H591.1C606.54 402.86 619.05 390.35 619.05 374.91V148.67C619.05 133.23 606.54 120.72 591.1 120.72H591.11Z" fill="#e3e3e3"/><path d="M619.06 147.38H422.5L405 197.53H619.05V147.38H619.06Z" fill="#000000"/><path d="M612.34 453.12C729.314 453.12 824.14 358.294 824.14 241.32 824.14 124.346 729.314 29.52 612.34 29.52 495.366 29.52 400.54 124.346 400.54 241.32 400.54 358.294 495.366 453.12 612.34 453.12Z" stroke="#000000" stroke-miterlimit="10" stroke-width="18.29"/><path d="M508.649 437.93 458.275 399.93C450.594 394.136 439.671 395.665 433.877 403.345L430.89 407.305C425.096 414.986 426.626 425.909 434.306 431.703L484.68 469.704C492.361 475.498 503.284 473.968 509.078 466.288L512.065 462.328C517.859 454.648 516.329 443.724 508.649 437.93Z" fill="#000000"/><path d="M231.18 752.94C210.75 737.53 207.2 708.23 223.36 688.38L433.25 430.74 485.44 470.11 295.4 742.71C280.76 763.71 251.61 768.35 231.18 752.93V752.94Z" fill="#3d3d3d"/><path d="M520.541 306H498.459C493.671 306 489.236 308.632 486.842 312.913L475.796 332.587C473.401 336.856 473.401 342.132 475.796 346.39L486.842 366.087C489.236 370.356 493.671 373 498.459 373H520.541C525.329 373 529.764 370.368 532.158 366.087L543.204 346.39C545.599 342.121 545.599 336.845 543.204 332.587L532.158 312.913C529.764 308.644 525.329 306 520.541 306Z" fill="#ff7059"/><path d="M575.541 306H553.459C548.671 306 544.236 308.632 541.842 312.913L530.796 332.587C528.401 336.856 528.401 342.132 530.796 346.39L541.842 366.087C544.236 370.356 548.671 373 553.459 373H575.541C580.329 373 584.764 370.368 587.158 366.087L598.204 346.39C600.599 342.121 600.599 336.845 598.204 332.587L587.158 312.913C584.764 308.644 580.329 306 575.541 306Z" fill="#ff7059"/><rect fill="#d9d9d9" height="39" rx="19.5" width="180" x="186" y="232"/><rect fill="#f7f7f7" height="24" rx="12" width="92" x="186" y="299"/><rect fill="#f7f7f7" height="24" rx="12" width="67" x="299" y="299"/></g></g></svg>