<svg viewBox="0 0 945 495" xmlns="http://www.w3.org/2000/svg" xmlns:xlink="http://www.w3.org/1999/xlink"><clipPath id="clippath"><path d="M0 0H945V495H0Z"/></clipPath><g clip-path="url(#clippath)"><path d="M-7.25-8.3H953.95V524.32H-7.25Z" fill="#f7f7f7"/><rect fill="#94d0f8" height="360.43" rx="30.62" width="304.35" x="607.8" y="54.04"/><path d="m607.8 98.34v-13.68c0-16.84 13.78-30.62 30.62-30.62h243.11c16.84 0 30.62 13.78 30.62 30.62v13.05" fill="#6aadd7"/><rect fill="#3e5fff" height="180.04" rx="22.13" width="245.48" x="639.01" y="115.57"/><path d="m745.22 224.14v-37.1c0-6.25 7.58-10.01 13.31-6.59l31.07 18.55c5.2 3.11 5.2 10.08 0 13.18l-31.07 18.55c-5.72 3.42-13.31-.34-13.31-6.59Z" fill="#ffffff"/><rect fill="#e2f1ff" height="26.92" rx="13.46" width="234.32" x="642.79" y="313.88"/><rect fill="#6aadd7" height="26.92" rx="13.46" width="87.05" x="723.64" y="361.08"/><path d="m355.98 289.33s-1.9-12.07 4.76-18.08c2.5-2.26 4.93-4.59 7.59-6.66 1.69-1.32 5.09-4.27 7.22-2.04 1.66 1.74 1.58 3.47.71 5.14s-6.21 10.07-6.21 10.07l-14.07 11.58Z" fill="#ffbc6e"/><path d="m379.77 314.27c2.41 4.32 4.05 7.26 4.05 7.26 2.24 6.14-1.17 12.9-7.45 14.75l-186.04 54.56-72.82-59.38 4.4-98.13s93.07 66.88 103.33 74.07l118.73-22.43s13.19-2.52 15.51 4.69" fill="#dcc6ff"/><path d="m-31.23 525.27L-6.35 377.1c-8.99-41.66-3.3-84.81 15.58-122.87l32.23-53.82 61.28 21.46c20.08 8.39 35.96 24.87 43.15 45.25l37.24 283.8c7.49 20.68 42.17 0 20.3 0H56.28c-14.68 0-84.22-10.97-87.51-25.65Z" fill="#dcc6ff"/><path d="m291.2 352.94s4.31-14.69 18.32-18.08l10.28 16.18-17.89 4.54-10.71-2.65Z" fill="#ffbc6e"/><path d="m555.71 146.01c-55.53-66.82-154.6-75.97-221.42-20.44-66.82 55.53-75.97 154.6-20.44 221.42 2.98 3.59 5.99 6.87 9.29 10.19 0 0 1.38-.23 3.72-.63l.09.46-4.16.74c19.02 18.91 41.57 32.13 65.87 39.49 48.9 14.75 103.91 5.68 146.28-29.53 66.85-55.83 76-154.9 20.77-221.7Zm-193.82 13.1c42.7-35.48 103.4-34.39 144.81-.47l-171.76 142.45c-25.76-46.92-15.42-106.76 26.95-141.97Zm145.45 175.04c-10.43 8.67-21.86 15.14-34 19.43-30.19 10.76-63.96 8.24-92.73-6.15-6.29-3.59-12.2-8.05-18.08-12.8l171.78-142.75c25.76 46.92 15.42 106.76-26.98 142.27Z" fill="#ff7059"/><path d="m288.82 352.05c-4.9.7-5.53 3.33-4.79 7.61l3.97 24.83c1.43 8.26.89 10.32 7.63 6.85l42.25-22.33c3.86-2.31 6.94-5.58 8.23-9.36l4.29-11.91c1.24-3.2-1.79-5.93-5.44-5.41l-56.14 9.73Z" fill="#ffbc6e"/><path d="m389.28 323.05 26.27-24.78c1.83-1.73 1.24-4.77-1.1-5.69l-8.93-3.51c-2.9-1.14-6.12-1.2-9.06-.16l-26.97 9.5c-.81.29-1.56.74-2.19 1.33-2.48 2.34-2.6 6.25-.26 8.73l13.5 14.32c2.34 2.48 6.25 2.6 8.73.26" fill="#ffbc6e"/><path d="m144.87 310.13 33.72 37.99c.64.72 1.56 1.14 2.53 1.17l42.9 1.15c4.07.11 4.62 5.72.64 6.45l-63.22 11.59c-1.68.31-3.36-.64-3.91-2.21l-18.47-53.06c-1.18-3.4 3.37-5.82 5.8-3.08Z" fill="#bba3e9"/><path d="m133.82 446.35-68.41-86.86c-1.57-2.45-6.07-1.17-5 1.42l36.77 81.16c9.11 13.46 27.41 11.62 36.63 4.28h0Z" fill="#bba3e9"/><path d="m69.29 364.61s26.34 44.94 37.39 65.36c12.84 23.74 52.46 26.45 74.72 16.99l115.19-38.23c6.5-2.16 10.11-9.09 8.16-15.65l-12.67-42.54-119.31 16.38s-30.27-52.36-41.99-72.45c-11.72-20.09-29.4-29.9-51.72-35.66-22.32-5.76-41.09 17-41.09 17" fill="#dcc6ff"/><g fill="#ffbc6e"><path d="m97.2 205.54c35.94 3.32 66.97-24.97 66.97-61.07v-35.26c0-33.87-27.46-61.33-61.33-61.33-33.87 0-61.33 27.47-61.33 61.33v91.2"/><path d="m164.18 115.06h-.02s-2.26 13.14-2.26 13.14l2.26 13.14 6.11-7.26c1.62-1.92 1.87-4.62.66-6.81l-6.77-12.21h.01Z"/><path d="m97.63 243.09c3.64 2.76 8.73-.57 7.63-5.01l-8.08-32.53-32.18-20.11-23.49 14.99 56.12 42.67Z"/></g><path d="m41.52 109.22v52.32c21.14-.03 30.48-18.73 38.7-35.17 1.12-2.25 2.23-4.46 3.34-6.57 10.26-1.06 60.49-16.1 46.24-50.29.54.83 10.18 15.21 28.17 12.81-.14-.29-.28-.58-.43-.86-10.13-19.92-30.82-33.56-54.7-33.56-31.63 0-57.66 23.95-60.97 54.69-.23 2.22-.34 4.43-.34 6.64Z" fill="#663c2b"/><path d="m78.15 141.31c-7.26 0-13.14-5.88-13.14-13.14s5.88-13.14 13.14-13.14 13.14 5.88 13.14 13.14c0 7.26-5.88 13.14-13.14 13.14Z" fill="#ffbc6e"/><path d="m151.49 104.74c.05-.04 4.32-3.15 10.56-2.85 1.72.08 3.12-1.25 3.21-2.94.08-1.7-1.25-3.15-2.94-3.21-8.54-.39-14.31 3.89-14.54 4.08-1.36 1.02-1.63 2.94-.61 4.3.62.81 1.55 1.24 2.48 1.24.64 0 1.29-.2 1.83-.61Z"/><path d="m157.3 111.23c-1.58.03-2.02 4.44-1.92 9.87.11 5.43.72 9.81 2.3 9.78 1.58-.03 2.02-4.44 1.92-9.87-.11-5.43-.72-9.81-2.3-9.78Z"/><path d="m131.38 161.63s.02.02.05.04c.06.04.15.1.3.18.29.17.75.42 1.42.74 1.33.62 3.46 1.48 6.56 2.31 3.1.83 5.37 1.16 6.84 1.28 1.28.11 1.94.06 2.01.05 0 0 0 0 0 0 1.08-.1 2.03.68 2.15 1.75.11 1.08-.67 2.05-1.75 2.16 0 0-.54.03-.77.03-.46 0-1.11-.01-1.96-.08-1.71-.14-4.21-.51-7.52-1.4-3.32-.89-5.67-1.82-7.22-2.55-.77-.36-1.35-.68-1.74-.91-.2-.12-.35-.21-.45-.28-.02-.01-.2-.14-.2-.14-.88-.64-1.08-1.87-.44-2.75.63-.88 1.86-1.07 2.74-.45 0 0 0 0 0 0Z" fill-rule="evenodd"/><circle cx="831.2" cy="76.19" fill="#94d0f8" r="14.12"/><circle cx="872.32" cy="76.19" fill="#c2dbf3" r="14.12"/></g></svg>