<svg viewBox="0 0 945 495" xmlns="http://www.w3.org/2000/svg" xmlns:xlink="http://www.w3.org/1999/xlink"><clipPath id="clippath"><path d="M0 0H945V495H0Z"/></clipPath><g clip-path="url(#clippath)"><path d="M-14.47-1H962.34V517.63H-14.47Z" fill="#e2f1ff"/><circle cx="478.96" cy="255.84" fill="#3e5fff" r="335.54"/><path d="m539.31 382.92h189.94V102.32c0-11.05-8.96-20.01-20-20.01H248.68c-11.05 0-20.01 8.96-20.01 20.01v280.6h191.22" fill="#3d3d3d"/><path d="m538.16 382.92c0 2.1-.85 4.01-2.23 5.39s-3.29 2.23-5.39 2.23h-103.16c-4.21 0-7.63-3.41-7.63-7.62h118.4Z"/><path d="m705.97 97.64H251.94c-4.34 0-7.85 3.52-7.85 7.86v255.61c0 4.34 3.52 7.86 7.85 7.86h454.03c4.34 0 7.86-3.52 7.86-7.86V105.49c0-4.34-3.52-7.86-7.86-7.86Z" fill="#ffffff"/><path d="m713.83 133.13v-28.58c0-3.96-3.52-7.17-7.86-7.17H251.94c-4.34 0-7.85 3.21-7.85 7.17v28.58h469.74Z" fill="#c2dbf3"/><path d="m538.37 382.92h224.74c0 5.18-2.1 9.87-5.49 13.26-3.4 3.4-8.09 5.5-13.27 5.5H213.57c-10.36 0-18.76-8.4-18.76-18.76h225.01m110.71 7.63c2.1 0 4.01-.86 5.39-2.23 1.38-1.38 2.23-3.29 2.23-5.39h-118.4c0 4.21 3.42 7.63 7.63 7.63h103.16Z" fill="#f7f7f7" fill-rule="evenodd"/><path d="m898.3 417.7v-4.22c0-6.6-5.4-12-12-12H59.67c-6.6 0-12 5.4-12 12v4.22c0 6.6 5.4 12 12 12h50.31l-47.24 129.59 30 5.47 49.6-135.06h672.79l52.63 143.3 30-5.47-50.24-137.84h38.78c6.6 0 12-5.4 12-12Z" fill="#f3c8b7"/><path d="m538.16 383.04c-.03 2.06-.88 3.92-2.23 5.27-1.38 1.38-3.29 2.24-5.39 2.24h-103.16c-4.17 0-7.57-3.36-7.62-7.52"/><path d="m459.35 368.68c.3 0 .59 0 .89 0" fill="#f7f7f7"/><path d="m538.08 242.24h-7.18c-.41 0-.75-.34-.75-.75v-18.22c0-10.1-8.26-18.36-18.36-18.36h-20.94s-.06-.03-.06-.06v-12.69c0-11.08-9.07-20.15-20.15-20.15h-3.43c-11.08 0-20.15 9.07-20.15 20.15v12.61c0 .08-.06.14-.14.14h-16.8c-10.1 0-18.36 8.26-18.36 18.36v18.07c0 .83.67 1.5 1.5 1.5h6.93c11.08 0 20.15 9.07 20.15 20.15v3.43c0 11.08-9.07 20.15-20.15 20.15h-5.84c-1.43 0-2.59 1.16-2.59 2.59v15.78c0 10.1 8.26 18.36 18.36 18.36h19c1.09 0 1.97-.88 1.97-1.97v-9.76c0-11.08 9.07-20.15 20.15-20.15h3.43c11.08 0 20.15 9.07 20.15 20.15v9.69c0 1.12.91 2.03 2.03 2.03h14.94c10.1 0 18.36-8.26 18.36-18.36v-17.69c0-.71.57-1.28 1.28-1.28h6.65c11.08 0 20.15-9.07 20.15-20.15v-3.43c0-11.08-9.07-20.15-20.15-20.15Z" fill="#6aadd7"/><circle cx="267.34" cy="114.66" fill="#94d0f8" r="8.07"/><g fill="#e2f1ff"><circle cx="293.82" cy="114.66" r="8.07"/><rect height="18.6" rx="9.3" width="146.27" x="406.69" y="106.11"/></g></g></svg>