<svg enable-background="new 0 0 945 495" viewBox="0 0 945 495" xmlns="http://www.w3.org/2000/svg" xmlns:xlink="http://www.w3.org/1999/xlink"><defs><path id="SVGID_1_" d="M0 0H945V495H0Z"/><clipPath id="SVGID_00000173854546135619974970000005726048351943859852_"><use xlink:href="#SVGID_1_"/></clipPath></defs><path clip-path="url(#SVGID_00000173854546135619974970000005726048351943859852_)" d="M-1.7-.8H948V496.5H-1.7Z" fill="#3e5fff"/><g clip-path="url(#SVGID_00000173854546135619974970000005726048351943859852_)"><path d="M758.2 241.4c0 165.2-135.2 299.2-302 299.2-166.8 0-302-133.9-302-299.2s135.2-299.2 302-299.2C622.9-57.8 758.2 76.2 758.2 241.4z" fill="#94d0f8"/></g><g clip-path="url(#SVGID_00000173854546135619974970000005726048351943859852_)"><g fill="#3d3d3d"><path d="M196.8 265.1h-494.3c-6.6 0-12-5.4-12-12v-25.4c0-6.6 5.4-12 12-12h494.3c6.6 0 12 5.4 12 12v25.4C208.8 259.7 203.4 265.1 196.8 265.1z"/><path d="M337.1 215.7h-92.8c-3.7 0-6.7-3-6.7-6.7v-3.5c0-3.7 3-6.7 6.7-6.7h92.8c3.7 0 6.7 3 6.7 6.7v3.5C343.8 212.7 340.8 215.7 337.1 215.7z"/><path d="M337.1 286.7h-92.8c-3.7 0-6.7-3-6.7-6.7v-3.5c0-3.7 3-6.7 6.7-6.7h92.8c3.7 0 6.7 3 6.7 6.7v3.5C343.8 283.7 340.8 286.7 337.1 286.7z"/></g><path d="M281.5 164.4h-77.8c-6.8 0-12.7 3.7-16 9.1l-32.5 42.1v49.4l34 36.3 0 0c3.4 4.3 8.7 7 14.6 7h77.8c10.3 0 18.7-8.4 18.7-18.7V183.1C300.2 172.8 291.8 164.4 281.5 164.4z" fill="#ffffff"/></g><path clip-path="url(#SVGID_00000173854546135619974970000005726048351943859852_)" d="M1199.8 264.3H705.5c-6.6 0-12-5.4-12-12v-25.4c0-6.6 5.4-12 12-12h494.3c6.6 0 12 5.4 12 12v25.4C1211.8 258.9 1206.4 264.3 1199.8 264.3z" fill="#3d3d3d"/><path clip-path="url(#SVGID_00000173854546135619974970000005726048351943859852_)" d="M638.4 307.7c12.1 0 51.6 0 51.6 0 17.3 0 31.4-14.1 31.4-31.4v-81.1c0-17.3-14.1-31.4-31.4-31.4 0 0-45.3 0-51.6 0V307.7z" fill="#ffffff"/><path clip-path="url(#SVGID_00000173854546135619974970000005726048351943859852_)" d="M651.6 307.7h-15.3c-6.6 0-12-5.4-12-12v-120c0-6.6 5.4-12 12-12h15.3c6.6 0 12 5.4 12 12v120C663.6 302.3 658.2 307.7 651.6 307.7z" fill="#e2f1ff"/><path clip-path="url(#SVGID_00000173854546135619974970000005726048351943859852_)" d="M641.3 213.9h-2.6c-2.8 0-5-2.3-5-5v-8.2c0-2.8 2.3-5 5-5h2.6c2.8 0 5 2.3 5 5v8.2C646.3 211.7 644 213.9 641.3 213.9z" fill="#3d3d3d"/><path clip-path="url(#SVGID_00000173854546135619974970000005726048351943859852_)" d="M642.6 280H640c-2.8 0-5-2.3-5-5v-8.2c0-2.8 2.3-5 5-5h2.6c2.8 0 5 2.3 5 5v8.2C647.6 277.7 645.4 280 642.6 280z" fill="#3d3d3d"/><path clip-path="url(#SVGID_00000173854546135619974970000005726048351943859852_)" d="M710.8 172.1 757 214.9 757 264.3 710.2 300.3Z" fill="#ffffff"/><path clip-path="url(#SVGID_00000173854546135619974970000005726048351943859852_)" d="M504.9 321.4H599.1V409.4H504.9Z" fill="#e37b4c" transform="matrix(.8324 -.5541 .5541 .8324 -109.9566 367.1221)"/><path clip-path="url(#SVGID_00000173854546135619974970000005726048351943859852_)" d="M466.5 285.6l-48 12.6L388.2 166c-2.4-10.3 3.9-20.7 14.1-23.4l0 0c10.2-2.7 20.6 3.1 23.7 13.1L466.5 285.6z" fill="#e37b4c"/><path clip-path="url(#SVGID_00000173854546135619974970000005726048351943859852_)" d="M573.1 374.9 573.1 374.9c-28.5 33.1-78.5 36.8-111.6 8.3l-31.9-28.8 14.9-137.6 41.8 44.7c5.9 6.3 16 5.8 21.3-1.1l0 0 50 28.3c22.5 12.7 34.3 39.1 27.4 64C582.8 360.6 578.8 368.2 573.1 374.9z" fill="#e37b4c"/><path clip-path="url(#SVGID_00000173854546135619974970000005726048351943859852_)" d="M467 311.3l-29.3 35.1c-.6.7-.5 1.8.2 2.4l0 0c.6.5 1.4.6 2 .2l35.2-22.4L467 311.3z" fill="#cb6942"/><path clip-path="url(#SVGID_00000173854546135619974970000005726048351943859852_)" d="M491.6 354.5l-3 .9c-6.1 1.9-12.6-1.6-14.4-7.7l-80-264c-1.9-6.1 1.6-12.6 7.7-14.4l3-.9c6.1-1.9 12.6 1.6 14.4 7.7l80 264C501.2 346.2 497.7 352.7 491.6 354.5z" fill="#3d3d3d"/><g fill="#e37b4c"><path clip-path="url(#SVGID_00000173854546135619974970000005726048351943859852_)" d="M450.9 231.8l-39.7 46.1-4.1-3.5c-16.3-14.1-18.2-38.8-4.1-55.1l21.9-25.4c4.9-5.7 13.6-6.4 19.3-1.4l4.1 3.5C458.9 205.2 460.1 221.2 450.9 231.8z"/><path clip-path="url(#SVGID_00000173854546135619974970000005726048351943859852_)" d="M459.8 272.6 420 318.6l-4.1-3.5c-16.3-14.1-18.2-38.8-4.1-55.1l21.9-25.4c4.9-5.7 13.6-6.4 19.3-1.4l4.1 3.5C467.7 245.9 468.9 261.9 459.8 272.6z"/><path clip-path="url(#SVGID_00000173854546135619974970000005726048351943859852_)" d="M466.1 313.4l-35.8 41.5-3.8-3.3c-15.4-13.2-17.1-36.4-3.8-51.8l22.1-25.6c3.8-4.4 10.5-4.9 14.9-1.1l3.8 3.3C474.3 285.9 475.6 302.4 466.1 313.4z"/><path clip-path="url(#SVGID_00000173854546135619974970000005726048351943859852_)" d="M500.9 207.5 500.9 207.5c5.4-2.8 12-1.1 15.4 3.9l62.1 99.1-28.7 52-60.2-119.7C483.1 229.8 488.1 214.1 500.9 207.5z"/></g><path clip-path="url(#SVGID_00000173854546135619974970000005726048351943859852_)" d="M733.6 516.3 588.5 548.2 536.8 428.4 615.6 375.9Z" fill="#0eac69"/></svg>