<svg viewBox="0 0 945 495" xmlns="http://www.w3.org/2000/svg" xmlns:xlink="http://www.w3.org/1999/xlink"><clipPath id="b"><path d="M0 0H945V495H0Z"/></clipPath><g clip-path="url(#b)"><path d="M-14.75 0H962.31V517.46H-14.75Z" fill="#94d0f8"/><circle cx="472.93" cy="255.67" fill="#3e5fff" r="335.54"/><path d="m723.22 382.75V102.14c0-11.05-8.96-20.01-20-20.01H242.65c-11.05 0-20.01 8.96-20.01 20.01v280.6h500.58ZM238.06 105.31c0-4.33 3.52-7.85 7.85-7.85h454.03c4.34 0 7.85 3.52 7.85 7.85v255.62c0 4.34-3.51 7.85-7.85 7.85H245.91c-4.34 0-7.85-3.52-7.85-7.85V105.31Zm291.84 282.83c-1.38 1.38-3.29 2.24-5.39 2.24h-103.16c-4.21 0-7.63-3.42-7.63-7.63h118.4c0 2.1-.85 4.01-2.23 5.39Z" fill="#3d3d3d"/><path d="m532.13 382.75c0 2.1-.85 4.01-2.23 5.39s-3.29 2.23-5.39 2.23h-103.16c-4.21 0-7.63-3.41-7.63-7.62h118.4Z"/><path d="m699.94 97.46H245.91c-4.34 0-7.85 3.52-7.85 7.86v255.61c0 4.34 3.52 7.86 7.85 7.86h454.03c4.34 0 7.86-3.52 7.86-7.86V105.32c0-4.34-3.52-7.86-7.86-7.86Z" fill="#f7f7f7"/><path d="m532.34 382.75h224.74c0 5.18-2.1 9.87-5.49 13.26-3.4 3.4-8.09 5.5-13.27 5.5H207.54c-10.36 0-18.76-8.4-18.76-18.76h225.01m110.71 7.63c2.1 0 4.01-.86 5.39-2.23 1.38-1.38 2.23-3.29 2.23-5.39h-118.4c0 4.21 3.42 7.63 7.63 7.63h103.16Z" fill="#e2e2e2" fill-rule="evenodd"/><path d="m898.26 417.52v-4.22c0-6.6-5.4-12-12-12H59.64c-6.6 0-12 5.4-12 12v4.22c0 6.6 5.4 12 12 12h50.31l-47.24 129.59 30 5.47 49.6-135.06h672.79l52.63 143.3 30-5.47-50.24-137.84h38.78c6.6 0 12-5.4 12-12Z" fill="#ffffff"/><circle cx="478.65" cy="253.57" fill="#a3f7ca" r="77.06"/><ellipse cx="445.27" cy="155.38" fill="#0eac69" rx="17.83" ry="31.08" transform="matrix(.33495826 -.94223297 .94223297 .33495826 149.7 522.86)"/><path d="m475.15 190.87c-1.66 0-3-1.34-3-3v-10.44c0-9.25 3.54-18 9.98-24.63l5.51-5.69c1.16-1.19 3.05-1.22 4.24-.07 1.19 1.15 1.22 3.05.07 4.24l-5.51 5.69c-5.35 5.51-8.29 12.78-8.29 20.46v10.44c0 1.66-1.34 3-3 3Z" fill="#3d3d3d"/></g></svg>