<svg viewBox="0 0 945 495" xmlns="http://www.w3.org/2000/svg" xmlns:xlink="http://www.w3.org/1999/xlink"><clipPath id="clippath"><path d="M0 0H945V495H0Z"/></clipPath><g clip-path="url(#clippath)"><path d="M-16.3-4.19H945V514.11H-16.3Z" fill="#e2f1ff"/><path d="m851.84 575.65c17.95-45.92 27.8-95.89 27.8-148.17 0-224.86-182.29-407.15-407.15-407.15S65.35 202.62 65.35 427.48c0 50.06 9.03 98 25.56 142.3" fill="#3e5fff"/><path d="m205.97 113.38c.04-16.06 13.1-29.04 29.16-29l193.98.52c7.71.02 15.1 3.1 20.53 8.57l75.22 75.59c5.44 5.47 8.49 12.88 8.47 20.59l-.86 321.21c-.04 16.06-13.1 29.04-29.16 29l-269.4-.73c-16.06-.04-29.05-13.1-29-29.16l1.06-396.6Z" fill="#ffffff"/><g fill="#e2e2e2"><path d="m532.32 182.06-59.75-4.59c-17.48-.05-31.61-14.26-31.57-31.74l-.89-58.54c6.34 2.2 11.9 8.67 16.38 13.16l61.53 61.83c4.49 4.51 11.91 10.29 14.3 19.88Z"/><path d="m259.47 243.32c0-6.76 5.46-12.25 12.22-12.26l195.84-.3c6.76 0 12.25 5.46 12.26 12.22 0 6.76-5.46 12.25-12.22 12.26l-195.84.3c-6.76 0-12.25-5.46-12.26-12.22Z"/><path d="m259.54 292.28c-.01-6.76 5.46-12.25 12.22-12.26l195.84-.3c6.76-.01 12.25 5.46 12.26 12.22 0 6.76-5.46 12.25-12.22 12.26l-195.84.3c-6.76.01-12.25-5.46-12.26-12.22Z"/><path d="m259.62 341.25c-.01-6.76 5.46-12.25 12.22-12.26l195.84-.3c6.76 0 12.25 5.46 12.26 12.22 0 6.76-5.46 12.25-12.22 12.26l-195.84.3c-6.76 0-12.25-5.46-12.26-12.22Z"/><path d="m259.68 390.21c0-6.76 5.46-12.25 12.23-12.26l195.84-.3c6.76 0 12.25 5.46 12.26 12.22 0 6.76-5.46 12.25-12.22 12.26l-195.84.3c-6.76 0-12.25-5.46-12.26-12.22Z"/><path d="m259.78 439.15c-.01-6.76 5.46-12.25 12.22-12.26l195.84-.3c6.76 0 12.25 5.46 12.26 12.22 0 6.76-5.46 12.25-12.22 12.26l-195.84.3c-6.76 0-12.25-5.46-12.26-12.22Z"/></g><path d="m714.08 520.37h-175.4l-23.13 43.2c-5.04 2.88-10.55 4.27-16.01 4.27-10.4 0-20.58-5.04-26.77-14.25l-21.5-31.89c-16.58-24.63-20.02-55.82-9.21-83.5l38.79-99.16c7.29-18.66 20.55-34.41 37.69-44.79l36.75-22.27c4.33-2.63 9.32-4.01 14.39-4.01h73.04c5.07 0 10.06 1.39 14.39 4.01l36.75 22.27c17.14 10.37 30.39 26.12 37.69 44.79l38.79 99.16c.1.27.21.54.32.82 14.93 39.32-14.54 81.36-56.59 81.36h.02Z" fill="#a2f6c9"/><path d="m645.76 271.47c0 2.42-1.55 4.55-3.84 5.29l-3.89 1.26c-20.18 6.48-41.89 6.48-62.05 0l-3.86-1.26c-2.3-.74-3.84-2.87-3.84-5.26v-85.35h77.48v85.32Z" fill="#ffbb6e"/><path d="m574.44 189.66c0-5.83-4.72-10.53-10.53-10.53s-10.54 4.7-10.54 10.53 4.72 15.3 10.54 15.3 10.53-9.51 10.53-15.3Z" fill="#ffbb6e"/><path d="m660.53 189.66c0-5.83-4.72-10.53-10.54-10.53s-10.54 4.7-10.54 10.53 4.72 15.3 10.54 15.3 10.54-9.51 10.54-15.3Z" fill="#ffbb6e"/><path d="m606.94 238.49c-24.45 0-44.53-19.29-45.51-43.67l-1.55-24.69c-1.07-26.72 20.32-48.96 47.07-48.96s48.13 22.25 47.06 48.96l-1.55 24.69c-.98 24.39-21.07 43.67-45.52 43.67h0Z"/><path d="m606.94 256.55c-24.45 0-44.53-19.28-45.51-43.67l-1.55-24.69c-1.07-26.72 20.32-48.96 47.07-48.96s48.13 22.25 47.06 48.96l-1.55 24.69c-.98 24.39-21.07 43.67-45.52 43.67h0Z" fill="#ffbb6e"/><path d="m605.04 259.2c-1.93-.53-1.22-2.71.78-2.67.37 0 .75.01 1.12.01h0c16.36 0 30.77-8.63 38.81-21.66v16.77c-7.66 5.83-17.21 9.24-27.55 9.24-4.11 0-8.8-.49-13.18-1.7Z" fill="#e39848"/><path d="m592.15 210.68c0 3.76-.48 6.81-1.92 6.81s-1.92-3.05-1.92-6.81.48-6.81 1.92-6.81 1.92 3.05 1.92 6.81Z"/><path d="m625.64 210.68c0 3.76-.48 6.81-1.92 6.81s-1.92-3.05-1.92-6.81.48-6.81 1.92-6.81 1.92 3.05 1.92 6.81Z"/><path d="m594.71 195.86c.64-.5 1.05-1.26 1.04-2.12-.02-1.43-1.19-2.6-2.63-2.59-.28 0-6.38.08-11.98 4.77-1.12.93-1.27 2.56-.33 3.7.93 1.11 2.58 1.25 3.7.32 4.09-3.44 8.59-3.51 8.65-3.51.58 0 1.11-.25 1.56-.57Z"/><path d="m619.35 195.86c-.64-.5-1.05-1.26-1.04-2.12.02-1.43 1.18-2.6 2.63-2.59.28 0 6.38.08 11.98 4.77 1.12.93 1.27 2.56.33 3.7-.93 1.11-2.58 1.25-3.7.32-4.09-3.44-8.59-3.51-8.65-3.51-.58 0-1.11-.25-1.56-.57Z"/><path d="m607.64 236.1c-.9-.24-1.74.2-2.01.98-.29.81.15 1.72.96 2 .38.13.77.25 1.15.35 7.39 1.98 16.13-1.49 19.91-7.89.21-.36.27-.79.16-1.2-.1-.41-.36-.75-.73-.97-.12-.08-.25-.12-.4-.16-.69-.18-1.42.12-1.78.73-3.09 5.24-10.27 8.07-16.37 6.43-.31-.08-.62-.17-.91-.29v.02s.02 0 .02 0Z"/><path d="m653.61 188.98v-20.54h-.04c0-25.75-20.88-46.65-46.64-46.65s-46.65 20.9-46.65 46.65v20.51c0 2.02 1.64 3.7 3.68 3.7s3.69-1.67 3.69-3.7c0-1.24.06-2.51.19-3.8 0-4.44.92-7.24 2.01-9 1.62-2.62 5.04-2.21 8.05-1.58 17.04 3.55 44.91-5.44 44.91-20.84 0 16.07 6.85 25.97 19.04 26.86 1.2.09 2.48.22 3.27 1.12.58.66 1.11 1.68 1.11 3.21v4.06c0 2.03 1.65 3.67 3.68 3.67s3.69-1.64 3.69-3.67Z"/><path d="m644.52 334.06h-30.21c-6.19 0-11.2 5.02-11.2 11.21v68.44c0 6.19 5.02 11.21 11.2 11.21h30.21c6.19 0 11.2-5.02 11.2-11.21v-68.44c0-6.19-5.02-11.21-11.2-11.21Z"/><path d="m660.92 376.07h-43.53c-3.04 0-5.04 3.16-3.75 5.9l4.94 10.47c1.6 3.4 4.38 6.12 7.82 7.64l31.51 13.97c.95.42 1.98.63 3.02.63 4.11 0 7.44-3.34 7.44-7.44v-23.72c0-4.11-3.34-7.44-7.44-7.44" fill="#ffbb6e"/><rect fill="#bbbbbb" height="23.16" rx="11.58" width="119.84" x="259.47" y="153.37"/></g></svg>