<svg fill="none" height="495" viewBox="0 0 945 495" width="945" xmlns="http://www.w3.org/2000/svg" xmlns:xlink="http://www.w3.org/1999/xlink"><clipPath id="clip0_748_210"><path d="M0 0H945V495H0Z"/></clipPath><mask id="path-14-inside-1_748_210" fill="#ffffff"><path clip-rule="evenodd" d="M395.02 274.54 436.101 279.585 454.295 336.149 444.136 338.843H392.035C389.896 338.843 388.012 337.436 387.405 335.386L370.918 279.722C369.971 276.525 372.472 273.354 375.802 273.529L395.02 274.54Z" fill="#ffffff" fill-rule="evenodd"/></mask><g clip-path="url(#clip0_748_210)"><path d="M0 0H945V495H0Z" fill="#ffffff"/><circle cx="477.093" cy="296.128" fill="#e2f1ff" r="322.128"/><path d="M369.56 404.217H590.567V417.993H369.56V404.217Z" fill="#6aaed8"/><path d="M352.86 351.817 352.83 397.335C352.83 403.067 357.472 407.721 363.204 407.721L596.898 407.915C602.618 407.915 607.26 403.285 607.266 397.559L607.297 352.023C607.297 349.287 606.449 346.612 604.863 344.379 602.394 340.898 598.387 338.828 594.12 338.828L366.061 338.634C361.794 338.634 357.787 340.698 355.311 344.173 353.726 346.406 352.872 349.076 352.866 351.811L352.86 351.817Z" fill="#95d1f9"/><path d="M369.56 482.921H590.567V496.697H369.56V482.921Z" fill="#6aaed8"/><path d="M352.86 430.522 352.83 476.039C352.83 481.771 357.472 486.426 363.204 486.426L596.898 486.619C602.618 486.619 607.26 481.989 607.266 476.263L607.297 430.727C607.297 427.992 606.449 425.316 604.863 423.083 602.394 419.602 598.387 417.532 594.12 417.532L366.061 417.339C361.794 417.339 357.787 419.403 355.311 422.877 353.726 425.11 352.872 427.78 352.866 430.516L352.86 430.522Z" fill="#95d1f9"/><path d="M546.648 381.881C541.894 381.881 538.04 378.028 538.04 373.274 538.04 368.52 541.894 364.667 546.648 364.667 551.401 364.667 555.255 368.52 555.255 373.274 555.255 378.028 551.401 381.881 546.648 381.881Z" fill="#c5ffe1"/><path d="M574.617 460.587C569.864 460.587 566.01 456.734 566.01 451.98 566.01 447.226 569.864 443.373 574.617 443.373 579.371 443.373 583.225 447.226 583.225 451.98 583.225 456.734 579.371 460.587 574.617 460.587Z" fill="#ffffff"/><path d="M574.435 382.238C569.682 382.238 565.828 378.384 565.828 373.631 565.828 368.877 569.682 365.024 574.435 365.024 579.189 365.024 583.042 368.877 583.042 373.631 583.042 378.384 579.189 382.238 574.435 382.238Z" fill="#ffffff"/><path d="M546.648 460.587C541.894 460.587 538.04 456.734 538.04 451.98 538.04 447.226 541.894 443.373 546.648 443.373 551.401 443.373 555.255 447.226 555.255 451.98 555.255 456.734 551.401 460.587 546.648 460.587Z" fill="#c5ffe1"/><path d="M470.205 434.605C471.106 449.526 477.49 463.674 477.929 478.665 477.955 479.554 477.232 480.275 476.343 480.275H428.301C427.412 480.275 426.689 479.546 426.706 478.657 427.116 457.083 435.656 450.145 435.656 434.605H470.205Z" fill="#000000"/><path d="M594.388 272.907 556.077 319.686H461.639L397.422 291.606C382.994 285.297 374.535 270.148 376.735 254.555L378.549 241.688C379.138 237.516 380.822 233.575 383.431 230.266L400.972 208.016C401.615 207.2 402.135 206.294 402.516 205.327L417.207 167.969C421.206 157.792 428.452 149.225 437.814 143.581L478.516 121.751H522.838L562.136 143.012C572.081 149 579.608 158.284 583.431 169.241L602.871 225.038C608.564 241.378 605.352 259.504 594.388 272.893V272.907Z" fill="#84dba8"/><path d="M386.648 331.591C386.648 331.591 379.249 341.716 369.687 344.534L346.153 264.7C355.113 262.059 364.968 288.668 373.273 286.22" fill="#000000"/><rect fill="#e3e3e3" height="65.5285" rx="32.7642" width="160.609" x="435.319" y="273.718"/><path clip-rule="evenodd" d="M395.02 274.54 436.101 279.585 454.295 336.149 444.136 338.843H392.035C389.896 338.843 388.012 337.436 387.405 335.386L370.918 279.722C369.971 276.525 372.472 273.354 375.802 273.529L395.02 274.54Z" fill="#bcbcbc" fill-rule="evenodd"/><path d="M395.02 274.54 395.067 274.157 395.054 274.155 395.04 274.155 395.02 274.54ZM436.101 279.585 436.469 279.467 436.393 279.232 436.148 279.202 436.101 279.585ZM454.295 336.149 454.394 336.523 454.787 336.419 454.662 336.031 454.295 336.149ZM444.136 338.843V339.23H444.187L444.235 339.217 444.136 338.843ZM387.405 335.386 387.775 335.276 387.775 335.276 387.405 335.386ZM370.918 279.722 371.288 279.613 370.918 279.722ZM375.802 273.529 375.782 273.915 375.802 273.529ZM394.973 274.924 436.054 279.968 436.148 279.202 395.067 274.157 394.973 274.924ZM435.733 279.703 453.927 336.268 454.662 336.031 436.469 279.467 435.733 279.703ZM454.196 335.776 444.037 338.47 444.235 339.217 454.394 336.523 454.196 335.776ZM444.136 338.457H392.035V339.23H444.136V338.457ZM392.035 338.457C390.067 338.457 388.334 337.163 387.775 335.276L387.035 335.495C387.691 337.71 389.725 339.23 392.035 339.23V338.457ZM387.775 335.276 371.288 279.613 370.548 279.832 387.035 335.495 387.775 335.276ZM371.288 279.613C370.417 276.671 372.718 273.753 375.782 273.915L375.822 273.143C372.226 272.954 369.525 276.379 370.548 279.832L371.288 279.613ZM375.782 273.915 395 274.926 395.04 274.155 375.822 273.143 375.782 273.915Z" fill="#bcbcbc" mask="url(#path-14-inside-1_748_210)"/><path d="M461.324 289.415 471.617 339.506H490.749L464.325 288.355C463.468 286.696 460.948 287.587 461.324 289.415Z" fill="#bcbcbc"/><path d="M551.782 190.06H439.525C433.357 190.06 428.357 195.06 428.357 201.228V264.445C428.357 270.612 433.357 275.612 439.525 275.612H551.782C557.949 275.612 562.949 270.612 562.949 264.445V201.228C562.949 195.06 557.949 190.06 551.782 190.06Z" fill="#ffffff"/><path d="M495.647 238.694C499.403 238.694 502.447 235.65 502.447 231.894 502.447 228.139 499.403 225.094 495.647 225.094 491.892 225.094 488.848 228.139 488.848 231.894 488.848 235.65 491.892 238.694 495.647 238.694Z" fill="#e3e3e3"/><path d="M441.837 255.898C448.753 255.898 454.732 260.727 456.186 267.49L495.651 451.004C496.298 454.011 494.006 456.848 490.93 456.848L420.466 456.848C418.047 456.848 416.002 455.059 415.68 452.661L391.54 272.525C390.36 263.723 397.206 255.898 406.087 255.898L441.837 255.898Z" fill="#e3e3e3"/><path d="M527.187 123.581 475.748 123.955C473.155 123.567 471.277 119.829 471.581 115.675L474.208 63.4332 529.027 65.2734 532.221 115.675C532.417 120.246 530.021 124.013 527.187 123.581Z" fill="#000000"/><path d="M524.521 80.0233V130.023C524.521 131.435 523.61 132.686 522.269 133.115L519.99 133.848C508.176 137.646 495.477 137.646 483.672 133.848L481.411 133.124C480.071 132.695 479.159 131.444 479.159 130.032V80.0323H524.521V80.0233Z" fill="#ffbd6e"/><path d="M482.795 80.1933C482.795 76.7885 480.034 74.027 476.629 74.027 473.224 74.027 470.463 76.7885 470.463 80.1933 470.463 83.5982 473.224 89.1657 476.629 89.1657 480.034 89.1657 482.795 83.5982 482.795 80.1933Z" fill="#ffbd6e"/><path d="M533.18 80.1935C533.18 76.7886 530.418 74.0271 527.013 74.0271 523.608 74.0271 520.847 76.7886 520.847 80.1935 520.847 83.5983 523.608 89.1658 527.013 89.1658 530.418 89.1658 533.18 83.5983 533.18 80.1935Z" fill="#ffbd6e"/><path d="M501.821 115.573C487.514 115.573 475.753 104.277 475.181 89.9789L474.27 75.5196C473.644 59.8717 486.155 46.8421 501.821 46.8421 517.478 46.8421 529.998 59.8717 529.372 75.5196L528.461 89.9789C527.889 104.277 516.128 115.573 501.821 115.573Z" fill="#ffbd6e"/><path d="M529.4 67.4409V79.0226C529.4 80.2201 528.426 81.1941 527.229 81.1941 526.031 81.1941 525.057 80.2201 525.057 79.0226V76.6366C525.057 70.7564 521.947 65.3051 516.871 62.3202L516.675 62.204C511.179 58.9689 504.548 58.2988 498.516 60.3542L489.856 63.3031C483.127 65.5909 478.605 71.9181 478.605 79.0226 478.605 80.2201 477.631 81.1941 476.433 81.1941 475.236 81.1941 474.262 80.2201 474.262 79.0226V67.4409C474.262 52.213 486.603 39.8715 501.831 39.8715 517.059 39.8715 529.4 52.213 529.4 67.4409Z" fill="#000000"/><path d="M524.521 102.892V115.118C520.043 118.522 514.449 120.542 508.399 120.542 503.815 120.542 499.489 119.38 495.718 117.334 494.485 116.664 495.191 114.769 496.558 115.046 498.265 115.386 500.025 115.564 501.822 115.564 511.393 115.564 519.82 110.506 524.512 102.883L524.521 102.892Z" fill="#e59a48"/><path d="M568.512 228.366H539.386C537.355 228.366 536.011 230.477 536.88 232.315L540.184 239.317C541.255 241.59 543.113 243.408 545.417 244.429L566.501 253.774C567.137 254.057 567.824 254.198 568.522 254.198 571.269 254.198 573.502 251.965 573.502 249.217V233.346C573.502 230.598 571.269 228.366 568.522 228.366" fill="#ffbd6e"/><g fill="#000000"><path d="M492.124 87.0196C492.124 89.2808 491.837 91.112 490.97 91.112 490.102 91.112 489.815 89.2808 489.815 87.0196 489.815 84.7585 490.102 82.9272 490.97 82.9272 491.837 82.9272 492.124 84.7585 492.124 87.0196Z"/><path d="M512.243 87.0196C512.243 89.2808 511.956 91.112 511.088 91.112 510.22 91.112 509.934 89.2808 509.934 87.0196 509.934 84.7585 510.22 82.9272 511.088 82.9272 511.956 82.9272 512.243 84.7585 512.243 87.0196Z"/><path d="M493.668 78.1083C494.053 77.8099 494.297 77.3485 494.292 76.833 494.281 75.9755 493.581 75.27 492.712 75.2754 492.544 75.2765 488.881 75.3243 485.516 78.1409 484.843 78.6999 484.756 79.6822 485.315 80.366 485.874 81.0335 486.868 81.1203 487.54 80.5614 489.999 78.4937 492.7 78.4508 492.734 78.4502 493.081 78.4448 493.402 78.2983 493.668 78.1083Z"/><path d="M508.46 78.1083C508.075 77.8098 507.831 77.3485 507.836 76.8329 507.847 75.9754 508.547 75.2699 509.415 75.2754 509.584 75.2764 513.247 75.3242 516.611 78.1408 517.284 78.6998 517.371 79.6821 516.812 80.3659 516.253 81.0335 515.26 81.1203 514.587 80.5613 512.129 78.4936 509.428 78.4507 509.394 78.4502 509.046 78.4448 508.726 78.2982 508.46 78.1083Z"/><path d="M501.43 103.675C500.891 103.531 500.387 103.795 500.223 104.262 500.047 104.749 500.311 105.297 500.799 105.467 501.025 105.544 501.258 105.618 501.489 105.68 505.929 106.87 511.173 104.786 513.446 100.939 513.572 100.72 513.606 100.465 513.543 100.218 513.48 99.9709 513.327 99.7669 513.104 99.6341 513.033 99.5869 512.955 99.5605 512.866 99.5367 512.452 99.4257 512.016 99.6066 511.799 99.9755 509.944 103.125 505.634 104.824 501.97 103.842 501.787 103.793 501.598 103.743 501.421 103.667L501.419 103.678 501.43 103.675Z"/></g><rect fill="#e3e3e3" height="65.5285" rx="32.7642" transform="matrix(-.1676188 -.98585188 .98585188 -.1676188 91.547096 867.013669)" width="160.609" x="411.795" y="394.859"/><path d="M109.118 420.993H73.472C65.7363 420.993 58.5905 425.12 54.7227 431.818L36.9009 462.688C33.033 469.387 33.033 477.64 36.9009 484.338L54.7227 515.209C58.5905 521.907 65.7385 526.034 73.472 526.034H109.118C116.853 526.034 123.999 521.907 127.867 515.209L145.689 484.338C149.557 477.64 149.557 469.387 145.689 462.688L127.867 431.818C123.999 425.12 116.851 420.993 109.118 420.993V420.993Z" fill="#ff7059"/><path d="M885.804 379.459H856.915C850.646 379.459 844.855 382.803 841.72 388.232L827.277 413.25C824.142 418.679 824.142 425.367 827.277 430.796L841.72 455.814C844.855 461.243 850.648 464.587 856.915 464.587H885.804C892.073 464.587 897.864 461.243 900.999 455.814L915.442 430.796C918.577 425.367 918.577 418.679 915.442 413.25L900.999 388.232C897.864 382.803 892.071 379.459 885.804 379.459V379.459Z" fill="#ff7059"/><path d="M960.171 22.1493H914.107C904.11 22.1493 894.876 27.4819 889.878 36.1382L866.847 76.0307C861.849 84.6869 861.849 95.352 866.847 104.008L889.878 143.901C894.876 152.557 904.113 157.89 914.107 157.89H960.171C970.167 157.89 979.401 152.557 984.4 143.901L1007.43 104.008C1012.43 95.352 1012.43 84.6869 1007.43 76.0307L984.4 36.1382C979.401 27.4819 970.164 22.1493 960.171 22.1493V22.1493Z" fill="#ff7059"/><path d="M106.13 49.8421H76.4604C70.0218 49.8421 64.0741 53.2768 60.8548 58.8522L46.0212 84.5464C42.8019 90.1218 42.8019 96.9911 46.0212 102.566L60.8548 128.261C64.0741 133.836 70.0237 137.271 76.4604 137.271H106.13C112.568 137.271 118.516 133.836 121.735 128.261L136.569 102.566C139.788 96.9911 139.788 90.1218 136.569 84.5464L121.735 58.8522C118.516 53.2768 112.566 49.8421 106.13 49.8421V49.8421Z" fill="#ff7059"/></g></svg>