<svg enable-background="new 0 0 945 495" viewBox="0 0 945 495" xmlns="http://www.w3.org/2000/svg" xmlns:xlink="http://www.w3.org/1999/xlink"><defs><path id="SVGID_1_" d="M0 0H945V495H0Z"/><clipPath id="SVGID_00000050650699070379048890000004225776103888655032_"><use xlink:href="#SVGID_1_"/></clipPath></defs><path clip-path="url(#SVGID_00000050650699070379048890000004225776103888655032_)" d="M-36.1-18.9H981V513.9H-36.1Z" fill="#c2dbf3"/><ellipse clip-path="url(#SVGID_00000050650699070379048890000004225776103888655032_)" cx="452.3" cy="388.1" fill="#e2f1ff" rx="211.3" ry="211.5"/><circle clip-path="url(#SVGID_00000050650699070379048890000004225776103888655032_)" cx="210.5" cy="101.4" fill="#ffffff" r="23.6"/><circle clip-path="url(#SVGID_00000050650699070379048890000004225776103888655032_)" cx="782.7" cy="138.8" fill="#e2f1ff" r="176.4"/><circle clip-path="url(#SVGID_00000050650699070379048890000004225776103888655032_)" cx="150.1" cy="145.2" fill="#e2f1ff" r="158.6"/><g clip-path="url(#SVGID_00000050650699070379048890000004225776103888655032_)"><path d="M917.4 173.1l-30-133.3c-1.2-5.2-6.5-8.6-11.9-7.4l-225 48.9c-5.4 1.2-8.8 6.4-7.6 11.6l30 133.3L917.4 173.1zM650.7 92.9c-.5-2.1.9-4.1 3-4.6l221.9-48.2c2.1-.5 4.2.8 4.7 2.9l27.3 121.4c.5 2.1-.9 4.1-3 4.6l-221.9 48.2c-2.1.5-4.2-.8-4.7-2.9L650.7 92.9z" fill="#3d3d3d"/><path d="M875.6 40.1 653.7 88.3c-2.1.5-3.5 2.5-3 4.6L678 214.3c.5 2.1 2.6 3.4 4.7 2.9L904.6 169c2.1-.5 3.5-2.5 3-4.6L880.2 43C879.8 40.9 877.7 39.6 875.6 40.1z" fill="#e3e3e3"/><path d="M824.1 193.4c.2 1 0 2-.5 2.8-.5.8-1.4 1.4-2.4 1.6l-50.4 11c-2.1.4-4.1-.8-4.5-2.8L824.1 193.4z" fill="#e3e3e3"/><path d="M875.6 40.1 653.7 88.3c-2.1.5-3.5 2.5-3 4.6L678 214.3c.5 2.1 2.6 3.4 4.7 2.9L904.6 169c2.1-.5 3.5-2.5 3-4.6L880.2 43C879.8 40.9 877.7 39.6 875.6 40.1z" fill="#94d0f8"/><path clip-rule="evenodd" d="M823.9 193.5c50.2-10.9 93.6-20.3 93.6-20.3l16.5-3.6c.6 2.5 0 4.9-1.3 6.9-1.3 2-3.4 3.5-5.9 4l-259.4 56.4c-5.1 1.1-10.1-2-11.2-6.9 0 0 16.5-3.6 16.5-3.6 0 0 43.3-9.4 93.5-20.3" fill="#bbbbbb" fill-rule="evenodd"/><path clip-rule="evenodd" d="M766.2 206c.4 2 2.5 3.3 4.5 2.8l50.4-11c1-.2 1.9-.8 2.4-1.6.5-.8.7-1.8.5-2.8" fill="#bbbbbb" fill-rule="evenodd"/><path d="M824.1 193.4c.2 1 0 2-.5 2.8s-1.4 1.4-2.4 1.6l-50.4 11c-2.1.4-4.1-.8-4.5-2.8L824.1 193.4z"/></g><path clip-path="url(#SVGID_00000050650699070379048890000004225776103888655032_)" d="M271.8 449.3h-86.3c-46.1 0-83.7-37.5-83.7-83.7l0-84.9 47.3 16.8v68.1c0 20.1 16.3 36.4 36.4 36.4h86.3V449.3z" fill="#e2f1ff"/><path clip-path="url(#SVGID_00000050650699070379048890000004225776103888655032_)" d="M127-41.5H174.3V59.1H127Z" fill="#e2f1ff"/><g clip-path="url(#SVGID_00000050650699070379048890000004225776103888655032_)"><path d="M221 65.8l-66.3-25.1c-9.3-3.5-19.7 1.2-23.3 10.5L69.7 214.3c-3.5 9.3 1.2 19.7 10.5 23.3l66.3 25.1c9.3 3.5 19.7-1.2 23.3-10.5l61.7-163.1C235 79.7 230.3 69.3 221 65.8z" fill="#3d3d3d"/><path d="M164.6 248.6l60.7-160.4 0 0c2.6-6.9-.9-14.7-7.8-17.3l-63.6-24.1c-6.9-2.6-14.7.9-17.3 7.8L75.9 215.1c-2.6 6.9.9 14.7 7.8 17.3l63.6 24.1C154.2 259.1 162 255.6 164.6 248.6z" fill="#94d0f8"/><ellipse cx="193.2" cy="69.4" rx="2.1" ry="2.1" transform="matrix(.3538 -.9353 .9353 .3538 59.9228 225.4801)"/><path d="M172.6 60.4l13.9 5.3c.6.2.8.8.6 1.4l0 0c-.2.6-.8.8-1.4.6l-13.9-5.3c-.6-.2-.8-.8-.6-1.4l0 0C171.4 60.4 172.1 60.1 172.6 60.4z"/></g><path clip-path="url(#SVGID_00000050650699070379048890000004225776103888655032_)" d="M746.8 449.8H635.8v-47.3h111.1c29.4 0 53.3-22 53.3-49v-72.8h47.3v72.8C847.4 406.6 802.3 449.8 746.8 449.8z" fill="#e2f1ff"/><g clip-path="url(#SVGID_00000050650699070379048890000004225776103888655032_)"><path d="M571.2 244.6c3.5.6 5.9 4 5.3 7.5l-26.8 152.3c-.2.9-1 1.5-2 1.4l-9.4-1.7c-.9-.2-1.5-1.1-1.4-2l26.8-152.3C564.3 246.3 567.7 244 571.2 244.6z"/><path d="M409 422.5l-8.7 4c-.9.4-1.9 0-2.3-.8l-13-28h14.3l10.5 22.5C410.2 421 409.8 422.1 409 422.5L409 422.5z"/><path d="M399.3 397.7H385l-52.3-112.2c-1.5-3.3-.1-7.1 3.1-8.6 3.2-1.5 7.1-.1 8.6 3.1L399.3 397.7 399.3 397.7z"/><path d="M596.4 417.2v25.6c0 10.8-8.7 19.5-19.5 19.5H332.6c-10.8 0-19.5-8.7-19.5-19.5v-25.6c0-10.8 8.7-19.5 19.5-19.5h244.3C587.6 397.7 596.4 406.4 596.4 417.2z" fill="#3d3d3d"/><path d="M577.3 418.3c0 2.4-1.9 4.3-4.3 4.3s-4.3-1.9-4.3-4.3c0-2.4 1.9-4.3 4.3-4.3S577.3 415.9 577.3 418.3zM559.8 414c-2.4 0-4.3 1.9-4.3 4.3 0 2.4 1.9 4.3 4.3 4.3 2.4 0 4.3-1.9 4.3-4.3C564.1 415.9 562.2 414 559.8 414zM546.7 414c-2.4 0-4.3 1.9-4.3 4.3 0 2.4 1.9 4.3 4.3 4.3s4.3-1.9 4.3-4.3C551 415.9 549 414 546.7 414z" fill="#bcbcbc"/><path d="M532.3 414c-2.4 0-4.3 1.9-4.3 4.3 0 2.4 1.9 4.3 4.3 4.3 2.4 0 4.3-1.9 4.3-4.3C536.6 415.9 534.6 414 532.3 414z" fill="#0ead69"/><path d="M519.1 414c-2.4 0-4.3 1.9-4.3 4.3 0 2.4 1.9 4.3 4.3 4.3s4.3-1.9 4.3-4.3C523.4 415.9 521.5 414 519.1 414z" fill="#0ead69"/><path d="M350.2 414h-13.8c-2.4 0-4.3 1.9-4.3 4.3 0 2.4 1.9 4.3 4.3 4.3h13.8c2.4 0 4.3-1.9 4.3-4.3C354.5 415.9 352.6 414 350.2 414z" fill="#bcbcbc"/></g><g fill="#ffffff"><ellipse clip-path="url(#SVGID_00000050650699070379048890000004225776103888655032_)" cx="125.5" cy="350.3" rx="23.6" ry="23.6" transform="matrix(.03327793 -.9994 .9994 .03327793 -228.7757 464.0312)"/><ellipse clip-path="url(#SVGID_00000050650699070379048890000004225776103888655032_)" cx="823.8" cy="349.7" rx="23.6" ry="23.6" transform="matrix(.03327793 -.9994 .9994 .03327793 446.8151 1161.4375)"/></g></svg>