<svg fill="none" height="495" viewBox="0 0 945 495" width="945" xmlns="http://www.w3.org/2000/svg" xmlns:xlink="http://www.w3.org/1999/xlink"><clipPath id="clip0_1471_1954"><path d="M0 0H945V495H0Z"/></clipPath><clipPath id="clip1_1471_1954"><rect height="388.591" rx="19.7054" width="497.365" x="218.336" y="40.9873"/></clipPath><g clip-path="url(#clip0_1471_1954)"><path d="M0 0H945V495H0Z" fill="#e2f1ff"/><rect fill="#b1cfe5" height="310.755" rx="15.7643" width="185.326" x="742.155" y="41.0969"/><rect fill="#b1cfe5" height="54.8121" rx="15.7643" width="185.326" x="742.155" y="374.766"/><rect fill="#ffffff" height="47.5188" rx="7.69988" width="15.3998" x="765.518" y="124.374"/><rect fill="#ffffff" height="47.5188" rx="7.69988" width="15.3998" x="857.917" y="124.374"/><rect fill="#ffffff" height="80.0779" rx="7.69988" width="15.3998" x="827.117" y="91.8149"/><rect fill="#ffffff" height="65.9983" rx="7.69988" width="15.3998" x="888.716" y="105.895"/><rect fill="#e2f1ff" height="107.357" rx="7.69988" width="15.3998" x="796.318" y="64.5356"/><rect fill="#ffffff" height="138.598" rx="7.69988" transform="matrix(0 1 -1 0 1298.588 -509.644)" width="15.3998" x="904.116" y="394.472"/><g clip-path="url(#clip1_1471_1954)"><rect fill="#ffffff" height="388.591" rx="19.7054" width="497.365" x="218.336" y="40.9873"/><path d="M-1026.77-686.001H811.72V453.399H-1026.77Z" fill="#95d1f9"/><g fill="#f8f8f8"><path d="M-148.029-195.133-162.933-212.267C-168.131-218.242-176.755-219.86-183.764-216.175L-193.406-211.105C-198.043-208.667-199.912-202.993-197.632-198.277-195.407-193.672-197.132-188.13-201.578-185.602L-228.338-170.388C-233.806-167.279-240.541-167.428-245.866-170.776L-250.346-173.592C-254.676-176.314-257.558-180.833-258.199-185.907L-259.157-193.478C-259.836-198.85-257.927-204.226-254.013-207.967L-250.782-211.054C-248.795-212.953-246.378-214.344-243.738-215.109L-231.747-218.584C-224.507-220.682-220.558-228.474-223.148-235.554-225.088-240.857-223.386-246.806-218.936-250.281L-183.525-277.933C-179.431-281.131-177.038-286.036-177.038-291.231V-298.574C-177.038-300.901-175.645-303.002-173.502-303.908-171.289-304.845-168.728-304.317-167.065-302.583L-159.918-295.132C-157.87-292.997-155.301-291.43-152.465-290.586L-139.51-286.73C-135.628-285.575-131.462-285.837-127.755-287.47L-117.794-291.857C-113-293.969-109.441-298.164-108.138-303.238L-106.638-309.08C-105.543-313.344-102.844-317.02-99.1035-319.342L-91.0449-324.344C-89.6296-325.222-88.5888-326.593-88.1224-328.192-87.3812-330.733-88.1927-333.473-90.1982-335.201L-100.662-344.216C-103.322-346.507-104.627-349.999-104.123-353.473-103.141-360.25-108.941-366.074-115.721-365.118-120.447-364.451-124.091-360.617-124.516-355.863L-127.777-319.414C-128.423-312.188-134.25-306.518-141.491-306.068L-142.177-306.026C-147.67-305.685-152.831-308.676-155.265-313.612L-157.752-318.655C-159.679-322.564-164.392-324.196-168.324-322.315-171.645-320.727-175.622-321.623-177.94-324.483L-183.395-331.21C-187.768-336.603-188.44-344.107-185.094-350.192L-145.166-422.81C-143.876-425.156-142.052-427.166-139.842-428.678L-108.895-449.842C-103.574-453.481-96.6566-453.813-91.0111-450.701L-39.4736-422.289C-36.9126-420.877-35.3222-418.184-35.3222-415.26-35.3222-411.799-37.5408-408.727-40.8266-407.64L-57.1675-402.231C-61.8358-400.686-63.8314-395.183-61.2384-391.005-59.378-388.007-55.6999-386.683-52.3559-387.808L-35.4557-393.49C-29.742-395.411-25.893-400.765-25.893-406.793-25.893-409.958-24.8233-413.03-22.8577-415.511L-18.5981-420.886C-15.809-424.405-11.7458-426.685-7.28828-427.23L32.5869-432.108C36.0415-432.531 39.2845-433.999 41.8816-436.316L50.5541-444.054C55.6587-448.608 57.5527-455.769 55.3673-462.251L52.6005-470.458C50.6793-476.156 52.7857-482.437 57.7543-485.825 61.0228-488.053 65.1083-488.725 68.9184-487.661L83.2169-483.667C90.7387-481.566 98.7274-484.836 102.618-491.607L150.106-574.268C152.458-578.361 156.4-581.299 160.995-582.382L182.837-587.53C187.071-588.528 191.525-587.872 195.292-585.698L224.369-568.911C227.964-566.835 230.68-563.521 232.009-559.589L234.482-552.268C237.616-542.992 247.893-538.246 256.987-541.874L285.439-553.224C289.995-555.042 295.111-554.813 299.486-552.596L324.147-540.099C330.05-537.107 337.151-537.796 342.37-541.868L378.271-569.877C382.224-572.962 387.333-574.153 392.243-573.135L475.422-555.886C479.963-554.944 484.692-555.89 488.521-558.506L515.692-577.065C519.747-579.836 524.8-580.726 529.558-579.508L554.529-573.115C556.09-572.715 557.7-572.539 559.31-572.59L594.813-573.726C608.404-574.161 617.026-559.309 609.91-547.722L601.205-533.546C597.491-527.498 597.904-519.784 602.244-514.168L608.559-505.996C611.952-501.604 613-495.837 611.368-490.533L604.028-466.677C602.561-461.912 599.087-458.026 594.515-456.038L571.113-445.864C563.043-442.355 558.96-433.289 561.682-424.921L583.652-357.385C585.563-351.512 582.968-345.115 577.506-342.232 571.556-339.092 564.191-341.139 560.714-346.898L544.091-374.43C541.597-378.56 540.967-383.554 542.357-388.175L546.743-402.756C548.94-410.06 545.906-417.925 539.373-421.862 533.069-425.661 525.021-424.882 519.562-419.946L508.92-410.323C504.929-406.714 499.47-405.197 494.188-406.23L487.191-407.599C480.909-408.828 474.467-406.44 470.503-401.413L452.644-378.762C447.058-371.678 447.947-361.472 454.672-355.459L481.42-331.545C483.607-329.589 485.254-327.104 486.201-324.327L495.295-297.664C496.411-294.392 496.508-290.857 495.572-287.528L488.033-260.723C487.342-258.268 486.11-255.998 484.427-254.081L464.937-231.878C463.972-230.779 462.694-230 461.275-229.645 457.19-228.624 454.851-224.328 456.211-220.343L464.085-197.253C465.602-192.804 463.398-187.943 459.051-186.153 454.859-184.427 450.039-186.129 447.86-190.105L440.492-203.551C436.68-210.509 428.467-213.782 420.915-211.354 411.359-208.283 406.716-197.481 411.062-188.433L426.393-156.516C426.972-155.31 427.407-154.042 427.69-152.735L434.315-122.135C435.637-116.026 433.517-109.684 428.787-105.598L413.37-92.2821C411.696-90.8361 409.757-89.7293 407.66-89.0229L385.501-81.5563C376.827-78.6335 372-69.3914 374.558-60.6028L381.785-35.7637C384.064-27.9345 380.286-19.6146 372.892-16.1771L370.9-15.251C364.836-12.4315 357.623-14.3405 353.747-19.7908L351.919-22.3616C348.715-26.8669 342.567-28.1164 337.859-25.219 332.916-22.1777 331.378-15.7042 334.424-10.765L351.248 16.5175C352.619 18.7403 352.387 21.5961 350.674 23.5679 348.314 26.2854 344.105 26.3135 341.709 23.6279L327.578 7.78859C326.545 6.63098 325.675 5.33809 324.991 3.94556L288.428-70.5344C285.754-75.9828 280.213-79.4354 274.143-79.4354 269.968-79.4354 265.961-77.795 262.985-74.8677L243.406-55.6129C241.665-53.9005 240.311-51.8346 239.437-49.5545L228.056-19.8902C227.502-18.4452 226.753-17.0822 225.832-15.8387L215.037-1.27394C213.876.292301 212.174 1.37132 210.263 1.75369 206.776 2.45103 203.255.720878 201.677-2.46566L169.961-66.496C169.356-67.7171 168.607-68.8613 167.73-69.9043L148.413-92.8849C145.169-96.7449 140.384-98.9735 135.341-98.9735H126.089C124.542-98.9735 123.001-99.1838 121.511-99.5988L71.7501-113.448C66.3233-114.958 62.0546-108.75 65.4078-104.223 66.3201-102.992 67.6744-102.162 69.186-101.909L87.8733-98.7806C93.0102-97.9206 97.4737-94.7632 99.9953-90.2059L100.254-89.7381C104.128-82.7371 102.621-73.9852 96.6292-68.6827L71.4829-46.4296C69.9333-45.0583 68.1473-43.98 66.2121-43.2474L49.0527-36.7513C42.4304-34.2443 34.948-36.0843 30.2437-41.3767L-3.54823-79.3926C-5.11829-81.159-7.79636-81.3869-9.64236-79.9113-11.228-78.6439-11.7529-76.4628-10.9173-74.6127L8.36877-31.9077C11.3957-25.2053 18.3737-21.1937 25.6888-21.9504L51.8858-24.6604C59.8779-25.4872 66.8298-19.2173 66.8298-11.1825 66.8298-8.37983 65.9607-5.64608 64.3423-3.35797L16.0071 64.9781C14.3225 67.3598 13.2761 70.1335 12.9678 73.0345L3.97432 157.664C3.57715 161.401 1.95807 164.903-.631916 167.627L-68.6242 239.126C-71.8478 242.516-76.3209 244.435-80.9988 244.435H-98.5805C-104.976 244.435-110.835 240.862-113.763 235.176L-144.546 175.391C-145.791 172.973-146.44 170.293-146.44 167.574V71.2885C-146.44 69.5139-146.717 67.7501-147.26 66.0608L-156.393 37.6601C-157.769 33.3828-160.775 29.82-164.759 27.7439L-182.672 18.4108C-184.933 17.2326-187.429 16.5757-189.978 16.4884L-267.585 13.8294C-274.53 13.5915-280.638 9.16896-283.031 2.64531L-298.781-40.2767C-300.181-44.0922-300.174-48.2818-298.762-52.0927L-269.879-130.032C-268.45-133.89-265.676-137.101-262.068-139.077L-215.164-164.756C-213.401-165.721-211.482-166.368-209.494-166.666L-168.363-172.829C-162.291-173.739-156.197-171.319-152.404-166.49L-137.821-147.926C-134.583-143.805-129.633-141.399-124.392-141.399H-94.7172C-93.8046-141.399-92.8936-141.326-91.9927-141.18L-50.6878-134.505C-47.8831-134.051-45.0098-134.305-42.3279-135.243L-30.1117-139.513C-23.2113-141.926-19.8734-149.744-22.9039-156.396-25.2917-161.637-30.9683-164.551-36.6191-163.436L-50.3485-160.726C-57.6754-159.28-64.9864-163.288-67.7078-170.243-70.9438-178.512-66.5502-187.8-58.1045-190.544L-40.0779-196.399C-37.6946-197.174-35.17-197.414-32.6834-197.103L-18.5193-195.332C-9.46005-194.199-1.11226-200.392.430322-209.391L.584472-210.29C2.13522-219.337-3.74214-227.991-12.7228-229.884L-41.9669-236.051C-53.7008-238.526-64.2635-228.452-62.3475-216.614L-61.755-212.953C-60.5826-205.71-65.104-198.76-72.2014-196.897-76.288-195.824-79.6876-192.993-81.4821-189.168L-85.7369-180.099C-86.971-177.468-89.1581-175.405-91.8558-174.326-97.4858-172.073-103.896-174.597-106.48-180.082L-126.543-222.673C-127.912-225.579-131.149-227.105-134.262-226.313-138.279-225.29-140.415-220.904-138.744-217.112L-136.228-211.404C-135.926-210.719-135.561-210.064-135.137-209.447L-121.972-190.298C-118.28-184.927-120.298-177.527-126.206-174.774-131.488-172.313-137.765-174.606-140.217-179.892L-145.422-191.112C-146.098-192.568-146.975-193.922-148.029-195.133Z"/><path d="M465.879-22.7905 444.695-46C442.47-48.4379 438.897-49.1018 435.944-47.6257 432.043-45.6748 430.676-40.7832 433.001-37.0921L447.472-14.119C448.56-12.3916 449.33-10.483 449.744-8.48396L451.927 2.0467C452.823 6.36548 456.627 9.46221 461.038 9.46221 466.177 9.46221 470.342 5.29653 470.342.157919V-11.2788C470.342-15.5384 468.75-19.6443 465.879-22.7905Z"/><path d="M422.114 27.239 417.473 23.1624C412.715 18.9825 406.034 17.7797 400.116 20.0377L396.327 21.4833C392.444 22.9651 389.235 25.8122 387.301 29.491L384.238 35.3165C380.246 42.9083 382.506 52.2829 389.517 57.2229L399.468 64.2337C406.169 68.9546 415.278 68.2486 421.172 62.5518L421.815 61.9298C424.747 59.0956 426.568 55.3058 426.948 51.2458L427.847 41.6625C428.358 36.2139 426.226 30.8506 422.114 27.239Z"/><path d="M359.757 57.3949 331.343 28.7872C328.455 25.8795 323.913 25.422 320.503 27.6954 316.262 30.5227 315.409 36.4033 318.672 40.3189L346.071 73.1979C347.548 74.9696 349.626 76.1336 351.909 76.4664 356.811 77.1813 361.421 73.9508 362.422 69.0989L362.757 67.474C363.51 63.8238 362.384 60.0392 359.757 57.3949Z"/><path d="M234.601 2.7563 239.239-3.65619C240.353-5.1955 240.079-7.33497 238.615-8.5448 236.899-9.96199 234.321-9.49971 233.205-7.57457L229.234-.728222C228.47.588811 228.739 2.26149 229.877 3.27299 231.294 4.53272 233.489 4.29261 234.601 2.7563Z"/><path d="M428.592 89.7154 389.603 81.6273C386.787 81.0429 384.055 82.9389 383.618 85.7824 383.209 88.4363 384.96 90.9422 387.593 91.4714L426.631 99.3192C429.665 99.9292 432.498 97.6091 432.498 94.5143 432.498 92.1912 430.867 90.1872 428.592 89.7154Z"/><path d="M592.7 74.0743 520.324 53.019C516.94 52.0347 513.337 53.6096 511.761 56.7614 510.265 59.7527 510.995 63.3779 513.532 65.5574L541.798 89.8428C544.895 92.5036 548.843 93.9667 552.927 93.9667H563.763C565.645 93.9667 567.514 94.2779 569.295 94.8878L584.468 100.084C593.987 103.344 603.64 95.5303 602.435 85.5407 601.78 80.1136 597.949 75.6012 592.7 74.0743Z"/><path d="M603.673 203.643 563.967 119.924C563.006 117.898 560.964 116.606 558.721 116.606 555.515 116.606 552.916 119.205 552.916 122.412V133.261C552.916 139.802 548.299 145.434 541.885 146.717 534.771 148.14 527.778 143.78 525.925 136.766L523.679 128.261C522.51 123.836 519.614 120.066 515.641 117.796L513.757 116.719C507.548 113.171 499.786 113.868 494.308 118.464L459.836 147.39C458.368 148.621 456.704 149.597 454.912 150.276L403.357 169.817C396.721 172.332 392.333 178.689 392.333 185.785V248.294C392.333 254.99 396.246 261.068 402.343 263.839L403.532 264.38C407.498 266.183 412.003 266.401 416.125 264.991L478.3 243.721C485.153 241.377 492.739 243.61 497.228 249.293L534.099 295.971C537.338 300.071 542.275 302.463 547.5 302.463H565.029C570.633 302.463 575.88 299.713 579.069 295.106L590.911 278.001C592.243 276.077 593.165 273.9 593.621 271.605L604.994 214.284C605.707 210.687 605.244 206.956 603.673 203.643Z"/><path d="M547.846 319.008 543.697 318.397C532.64 316.768 526.555 330.823 535.31 337.771 536.161 338.447 537.109 338.992 538.121 339.388L542.027 340.916C546.108 342.513 550.744 341.631 553.953 338.646 560.959 332.129 557.312 320.402 547.846 319.008Z"/><path d="M685.558 313.907 687.684 304.813C690.311 293.576 704.599 290.098 712.097 298.871 716.07 303.52 716.588 310.202 713.378 315.408L701.286 335.016C700.042 337.034 697.84 338.263 695.469 338.263 692.427 338.263 689.751 336.252 688.905 333.329L685.783 322.543C684.969 319.731 684.891 316.758 685.558 313.907Z"/><path d="M682.329 350.604 663.563 383.806C660.006 390.1 652.074 392.4 645.702 388.987 637.221 384.444 636.219 372.679 643.809 366.767L673.898 343.331C676.09 341.624 679.196 341.754 681.237 343.638 683.174 345.425 683.626 348.31 682.329 350.604Z"/></g></g><path d="M578.571 253.826C588.733 241.098 611.908 210.248 611.908 192.92 611.908 171.904 594.873 154.854 573.877 154.854 552.88 154.854 535.845 171.904 535.845 192.92 535.845 210.248 559.02 241.098 569.182 253.826 571.618 256.86 576.135 256.86 578.571 253.826ZM573.877 205.609C566.884 205.609 561.199 199.919 561.199 192.92 561.199 185.921 566.884 180.231 573.877 180.231 580.869 180.231 586.554 185.921 586.554 192.92 586.554 199.919 580.869 205.609 573.877 205.609Z" fill="#3e5fff"/><rect height="372.826" rx="11.8232" stroke="#ffffff" stroke-width="15.7643" width="481.6" x="226.218" y="48.8695"/><path d="M779.709 269.262C776.955 269.262 774.702 267.026 774.93 264.281 775.827 253.491 779.627 243.11 785.97 234.258 793.284 224.052 803.611 216.393 815.501 212.357 827.391 208.321 840.247 208.11 852.262 211.755 864.278 215.4 874.85 222.717 882.494 232.679 890.138 242.64 894.469 254.746 894.88 267.296 895.291 279.845 891.761 292.209 884.785 302.649 877.809 313.089 867.738 321.082 855.986 325.505 845.795 329.341 834.783 330.324 824.129 328.398 821.419 327.909 819.842 325.153 820.555 322.493L833.136 275.539C833.984 272.372 831.598 269.262 828.32 269.262L779.709 269.262Z" fill="#e2f1ff"/><path d="M889.926 269.262C892.68 269.262 894.934 271.498 894.705 274.243 893.808 285.033 890.008 295.414 883.665 304.266 876.351 314.472 866.024 322.131 854.134 326.167 842.244 330.203 829.389 330.414 817.373 326.769 805.357 323.124 794.785 315.807 787.141 305.845 779.497 295.884 775.166 283.778 774.755 271.228 774.344 258.679 777.875 246.315 784.851 235.875 791.827 225.435 801.898 217.442 813.649 213.019 823.841 209.183 834.852 208.2 845.507 210.126 848.217 210.615 849.793 213.371 849.081 216.031L836.499 262.985C835.651 266.152 838.037 269.262 841.316 269.262H889.926Z" fill="#ffffff"/><path d="M373.8 260.498 397.212 241.05C407.858 232.207 420.125 225.522 433.328 221.37L458.168 213.557C463.146 211.991 466.417 218.669 462.129 221.643L433.98 241.162 435.752 248.34C438.706 260.3 431.196 272.337 419.155 274.943L399.034 279.298 385.879 288.897 373.8 260.498Z" fill="#ffbd6e"/><path d="M247.381 424.656C250.4 439.51 239.047 453.401 223.89 453.401H71.9934C56.775 453.401 45.4089 439.404 48.5329 424.51L52.3717 406.208-15.5897 422.627C-46.4647 430.086-69.3296 394.286-49.5783 369.411L47.0602 247.701C50.3429 243.566 54.6112 240.323 59.4735 238.267L112.028 216.046 174.581 216.046 221.574 232.792C226.94 234.704 231.688 238.035 235.313 242.429L296.941 317.148 373.783 260.51 399.004 279.461 335.04 359.847C316.029 383.738 281.804 388.91 256.582 371.704L233.404 355.892 247.381 424.656Z" fill="#824f36"/><circle cx="144.666" cy="79.648" fill="#000000" r="36.1265"/><path d="M176.829 148.159V219.308C176.829 221.325 175.543 223.102 173.632 223.72L170.398 224.766C153.601 230.172 135.533 230.172 118.751 224.766L115.539 223.72C113.628 223.102 112.342 221.325 112.342 219.33V148.159H176.837 176.829Z" fill="#ffbd6e"/><path d="M176.827 183.561 176.83 197.702C170.458 202.566 164.532 205.477 155.926 205.477 149.397 205.477 143.259 203.844 137.896 200.922 136.151 199.974 137.144 197.271 139.092 197.647 141.514 198.144 145.868 197.647 148.433 197.647 166.711 193.489 166.897 192.628 176.827 183.561Z" fill="#e59a48"/><path d="M113.468 142.636C113.468 137.053 108.961 132.558 103.408 132.558 97.8556 132.558 93.3394 137.053 93.3394 142.636 93.3394 148.22 97.847 157.286 103.408 157.286 108.969 157.286 113.468 148.185 113.468 142.636Z" fill="#ffbd6e"/><path d="M195.729 142.636C195.729 137.053 191.221 132.558 185.66 132.558 180.099 132.558 175.591 137.053 175.591 142.636 175.591 148.22 180.099 157.287 185.66 157.287 191.221 157.287 195.729 148.185 195.729 142.636Z" fill="#ffbd6e"/><path d="M144.526 198.044C121.159 198.044 101.971 179.582 101.039 156.237L99.5621 132.598C98.5345 107.023 118.974 85.7258 144.535 85.7258 170.096 85.7258 190.527 107.023 189.508 132.598L188.031 156.237C187.099 179.582 167.902 198.044 144.535 198.044H144.526Z" fill="#ffbd6e"/><g fill="#000000"><path d="M130.479 141.641C130.479 145.242 130.023 148.159 128.642 148.159 127.261 148.159 126.805 145.242 126.805 141.641 126.805 138.04 127.261 135.123 128.642 135.123 130.023 135.123 130.479 138.04 130.479 141.641Z"/><path d="M162.49 141.641C162.49 145.242 162.034 148.159 160.653 148.159 159.273 148.159 158.816 145.242 158.816 141.641 158.816 138.04 159.273 135.123 160.653 135.123 162.034 135.123 162.49 138.04 162.49 141.641Z"/><path d="M132.871 127.479C133.484 127.003 133.873 126.268 133.864 125.446 133.847 124.08 132.732 122.956 131.35 122.964 131.081 122.966 125.25 123.042 119.893 127.531 118.822 128.421 118.683 129.987 119.573 131.076 120.463 132.14 122.045 132.278 123.116 131.388 127.03 128.093 131.33 128.024 131.385 128.024 131.937 128.015 132.447 127.781 132.871 127.479Z"/><path d="M156.424 127.479C155.811 127.003 155.422 126.268 155.431 125.447 155.448 124.08 156.563 122.956 157.945 122.965 158.214 122.966 164.045 123.042 169.402 127.531 170.473 128.421 170.612 129.987 169.722 131.076 168.832 132.14 167.25 132.278 166.179 131.388 162.265 128.093 157.965 128.024 157.91 128.024 157.357 128.015 156.848 127.781 156.424 127.479Z"/><path clip-rule="evenodd" d="M137.816 168.936C137.038 168.644 136.17 169.035 135.873 169.812 135.575 170.592 135.965 171.467 136.745 171.765 136.93 171.836 137.122 171.892 137.313 171.945 137.65 172.038 138.137 172.157 138.784 172.273 140.079 172.506 142.009 172.729 144.647 172.729 147.285 172.729 149.215 172.506 150.51 172.273 151.157 172.157 151.644 172.038 151.981 171.945 152.173 171.891 152.362 171.831 152.549 171.765 153.329 171.467 153.719 170.592 153.421 169.812 153.124 169.035 152.256 168.644 151.478 168.936 151.478 168.936 151.477 168.937 151.476 168.937 151.456 168.944 151.356 168.979 151.172 169.03 150.927 169.098 150.531 169.196 149.975 169.296 148.865 169.495 147.114 169.704 144.647 169.704 142.18 169.704 140.429 169.495 139.319 169.296 138.763 169.196 138.367 169.098 138.122 169.03 137.938 168.979 137.838 168.944 137.818 168.937 137.817 168.937 137.816 168.936 137.816 168.936Z" fill-rule="evenodd"/><path d="M189.577 132.083V121.763H189.542C189.542 96.9049 169.387 76.723 144.535 76.723 119.682 76.723 99.5187 96.9049 99.5187 121.763V132.057C99.5187 134.01 101.099 135.626 103.068 135.626 105.037 135.626 106.626 134.01 106.626 132.057 106.626 130.855 106.686 129.628 106.807 128.392 106.807 122.269 108.622 116.741 110.141 113.187 111.332 110.399 113.349 108.093 115.658 106.126L116.955 105.021C133.384 91.0263 157.628 91.3315 173.699 105.735V105.735C177.242 108.911 179.965 112.938 181.032 117.575 181.784 120.843 182.47 124.755 182.47 128.159V132.083C182.47 134.045 184.059 135.626 186.019 135.626 187.979 135.626 189.577 134.045 189.577 132.083Z"/></g><path d="M105.966 206.45C105.966 204.086 107.882 202.17 110.246 202.17H178.479C180.843 202.17 182.76 204.086 182.76 206.45V239.13H105.966V206.45Z" fill="#824f36"/><path d="M71.2323 466.493H224.473L259.175 562.733C267.71 586.405 271.718 611.471 270.989 636.624L262.569 927.226H33.1371L24.7163 636.624C23.9875 611.471 27.9952 586.405 36.5307 562.733L71.2323 466.493Z" fill="#3d3d3d"/><path d="M71.1237 453.401H224.4757V466.6935H71.1237Z" fill="#000000"/><path d="M89.9249 398.815 52.1983 406.367 48.5768 424.477 91.0615 402.008C92.8072 401.084 91.8614 398.428 89.9249 398.815Z" fill="#663c2b"/><rect fill="#e3e3e3" height="130.783" rx="9.37322" transform="matrix(.98171998 -.19033097 .19033097 .98171998 -53.711631 24.292221)" width="91.8114" x="99.6091" y="291.768"/><rect fill="#ffffff" height="130.783" rx="9.37322" transform="matrix(.99663096 .08201661 -.08201661 .99663096 23.964793 -8.902366)" width="91.8114" x="120.343" y="287.251"/><path d="M105.964 348.379C100.25 349.428 91.6486 356.056 91.6486 361.875V383.048C91.6486 386.212 93.254 389.617 99.0102 388.235 103.07 387.253 112.81 384.93 119.581 383.306 124.098 382.224 127.908 379.226 130.021 375.089 133.814 367.654 139.653 356.222 140.934 353.866 144.095 348.063 140.044 342.551 135.361 342.976 130.836 343.384 116.853 346.381 105.956 348.388L105.964 348.379Z" fill="#ffbd6e"/></g></svg>