<svg fill="none" height="495" viewBox="0 0 945 495" width="945" xmlns="http://www.w3.org/2000/svg" xmlns:xlink="http://www.w3.org/1999/xlink"><clipPath id="clip0_227_160"><path d="M0 0H945V495H0Z"/></clipPath><clipPath id="clip1_227_160"><path d="M-6.61783 0H946.88517V499H-6.61783Z"/></clipPath><clipPath id="clip2_227_160"><path d="M-80.5143-93.7612H1007.2757V564.1558H-80.5143Z"/></clipPath><g clip-path="url(#clip0_227_160)"><path d="M0 0H945V495H0Z" fill="#f8f8f8"/><g clip-path="url(#clip1_227_160)"><path d="M0 0H953.503V499H0Z" fill="#f8f8f8" transform="matrix(1 0 0 1 -6.61783 0)"/><g clip-path="url(#clip2_227_160)"><path d="M0 0H1087.79V657.917H0Z" fill="#3e5fff" transform="matrix(1 0 0 1 -80.5143 -93.7612)"/><path d="M574.184 425.194C669.16 425.194 746.154 348.35 746.154 253.558 746.154 158.766 669.16 81.9216 574.184 81.9216 479.207 81.9216 402.214 158.766 402.214 253.558 402.214 348.35 479.207 425.194 574.184 425.194Z" fill="#c3dcf4"/><path d="M574.184 477.445C698.074 477.445 798.507 377.208 798.507 253.558 798.507 129.908 698.074 29.6706 574.184 29.6706 450.294 29.6706 349.861 129.908 349.861 253.558 349.861 377.208 450.294 477.445 574.184 477.445Z" fill="#c3dcf4" fill-opacity=".5"/><path d="M626.924 181.626 625.213 159.163H524.333L522.433 181.029C489.025 198.435 466.29 232.205 466.072 271.136 465.758 328.175 513.907 374.684 573.614 375.026 573.832 375.026 574.06 375.026 574.279 375.026 633.681 375.026 681.973 329.199 682.287 272.369 682.505 233.438 660.132 199.403 626.924 181.617V181.626Z" fill="#ffbd6e"/><path d="M565.978 163.65V162.856H565.183 560.222 559.427V163.65 237.861H536.822 536.028V237.881C520.321 238.303 507.666 251.192 507.666 266.971 507.666 282.906 520.562 295.893 536.493 296.07L536.504 296.081H536.832C552.641 296.081 565.559 283.458 565.977 267.766H565.978V267.728C565.984 267.48 565.987 267.231 565.987 266.981V266.186H565.978V244.402H582.38V266.971 267.765L582.401 267.765C582.823 283.444 595.73 296.072 611.546 296.072H611.875L611.886 296.06C627.806 295.883 640.711 282.896 640.711 266.962 640.711 251.179 628.06 238.288 612.34 237.871V237.861H611.555 611.546 610.76 588.931V163.65 162.856H588.136 583.175 582.38V163.65 237.861H565.978V163.65ZM588.94 266.178 588.931 266.178V244.402H610.76 611.546 611.555C624.025 244.402 634.17 254.53 634.17 266.971 634.17 279.413 624.025 289.54 611.555 289.54 599.085 289.54 588.94 279.413 588.94 266.971V266.178ZM537.617 244.411V244.402H559.427V266.971 267.639C559.077 279.777 549.071 289.55 536.822 289.55 524.353 289.55 514.207 279.422 514.207 266.981 514.207 254.539 524.353 244.411 536.822 244.411H537.617Z" fill="#ffffff" stroke="#ffffff" stroke-width="1.58917"/><g fill="#3d3d3d"><path d="M618.778 99.9615H529.713C518.879 99.9615 510.096 108.727 510.096 119.541V143.881C510.096 154.695 518.879 163.46 529.713 163.46H618.778C629.613 163.46 638.395 154.695 638.395 143.881V119.541C638.395 108.727 629.613 99.9615 618.778 99.9615Z"/><path d="M586.625-45.5339H561.743V99.9616H586.625V-45.5339Z"/><path d="M267.728 287.007C279.958 287.007 289.872 277.112 289.872 264.905 289.872 252.699 279.958 242.804 267.728 242.804 255.498 242.804 245.584 252.699 245.584 264.905 245.584 277.112 255.498 287.007 267.728 287.007Z"/></g><path d="M174.244 291.242 186.56 255.425 188.62 249.415 195.608 229.079C198.161 221.715 196.691 213.884 192.287 208.066 189.98 205.02 186.886 202.529 183.136 200.935 175.986 197.894 167.808 201.078 164.49 207.904 164.244 208.408 164.019 208.926 163.837 209.46L163.763 209.674 125.127 315.984C123.67 320.139 173.777 292.655 174.252 291.265L174.244 291.242Z" fill="#cea193"/><path d="M199.223 272.481 219.354 240.409 222.726 235.021 234.152 216.807C238.309 210.215 238.653 202.256 235.702 195.58 234.158 192.088 231.707 188.956 228.411 186.55 222.136 181.959 213.459 183.187 208.67 189.079 208.311 189.513 207.982 189.972 207.674 190.445L207.549 190.63 135.432 298.727C133.063 302.448 198.432 273.729 199.212 272.48L199.223 272.481Z" fill="#f4c9b8"/><path d="M176.034 235.723C176.354 235.33 178.684 233.582 179.801 232.233 181.846 229.777 187.454 225.614 187.454 225.614 191.331 222.976 195.812 222.007 200.436 221.302 200.436 221.302 220.475 217.37 235.639 214.019 235.639 214.019 231.527 221.198 228.964 224.614L195.064 240.724 145.224 298.352 132.311 300.884 176.022 235.733 176.034 235.723Z" fill="#cea193"/><path d="M299.439 295.139C303.069 288.064 300.362 279.386 293.373 275.639 280.436 268.698 264.351 272.687 256.125 284.875L237.553 312.101C237.553 312.101 213.386 352.705 194.315 338.944 194.315 338.944 173.056 327.375 187.999 303.188L207.899 270.169C210.178 265.787 213.041 265.989 213.041 265.989 219.403 264.967 248.297 260.323 248.297 260.323 260.839 258.312 269.652 246.827 268.337 234.141 267.429 225.356 259.423 219.272 250.708 220.617L199.545 228.507C194.92 229.222 190.516 230.951 186.64 233.589 186.64 233.589 186.575 233.659 186.407 233.748 183.168 235.531 179.404 240.677 179.404 240.677 169.997 251.423 128.446 308.721 128.446 308.721 126.245 312.185 124.736 316.066 124.017 320.129L109.495 404.444C107.93 413.527 105.01 422.317 100.818 430.514L92.522 446.752 170.219 486.541 216.783 416.213C218.907 412.996 221.806 410.408 225.161 408.506 237.459 401.532 244.591 390.271 244.591 390.271L299.452 295.13 299.439 295.139Z" fill="#f4c9b8"/><path d="M-34.8147 613.16 85.5674 445.85C87.5345 441.293 92.8134 439.188 97.3611 441.157L177.002 475.558C181.55 477.527 183.648 482.815 181.68 487.372L102.303 671.659C100.336 676.216 95.0575 678.321 90.5098 676.352L-30.1363 624.973C-34.684 623.004-36.7819 617.717-34.8147 613.16Z" fill="#dcc6ff"/><path d="M265.539 267.201C277.769 267.201 289.872 277.112 289.872 264.905 289.872 252.699 279.958 242.804 267.728 242.804 255.498 242.804 245.584 252.699 245.584 264.905 245.584 277.112 253.309 267.201 265.539 267.201Z" fill="#3d3d3d"/><path d="M261.343 264.905H274.113L274.113-8.10376H261.343L261.343 264.905Z" fill="#3d3d3d"/></g></g></g></svg>