<svg fill="none" height="495" viewBox="0 0 945 495" width="945" xmlns="http://www.w3.org/2000/svg" xmlns:xlink="http://www.w3.org/1999/xlink"><clipPath id="clip0_970_672"><path d="M0 0H945V495H0Z"/></clipPath><g clip-path="url(#clip0_970_672)"><path d="M0 0H945V495H0Z" fill="#e2f1ff"/><g fill="#c3dcf4"><path d="M-76.3121-50.9506 46.2586-76.7105 282.185 364.647 193.317 377.179-76.3121-50.9506Z"/><path d="M1037.85-50.9506 915.278-76.7106 691.01 373.082 765.501 383.031 1037.85-50.9506Z"/><path d="M723.567-84.0708 596.672-84.0708 494.462 495 583.691 495 723.567-84.0708Z"/><path d="M265.356-84.0708 392.251-84.0708 494.462 495 405.233 495 265.356-84.0708Z"/></g><path d="M184.61 387.883 149.667 455.665C143.969 466.717 128.535 467.682 121.505 457.425L96.9848 421.649C89.9549 411.392 96.4229 397.346 108.787 396.019L184.61 387.883Z" fill="#ffbd6e"/><path d="M761.25 387.883 796.193 455.665C801.891 466.717 817.325 467.682 824.355 457.425L848.875 421.649C855.905 411.392 849.437 397.346 837.073 396.019L761.25 387.883Z" fill="#ffbd6e"/><path clip-rule="evenodd" d="M172.65 411.729C165.832 403.86 165.832 392.335 172.65 384.466 222.765 326.628 337.992 286.164 472.129 286.164 606.266 286.164 721.493 326.628 771.608 384.466 778.426 392.335 778.426 403.86 771.608 411.729 721.493 469.567 606.266 510.031 472.129 510.031 337.992 510.031 222.765 469.567 172.65 411.729Z" fill="#2e53bc" fill-rule="evenodd"/><path clip-rule="evenodd" d="M178.211 378.394C230.941 323.816 342.737 286.164 472.129 286.164 602.814 286.164 715.55 324.572 767.61 380.036 720.181 413.677 606.605 437.367 474.036 437.367 339.321 437.367 224.219 412.904 178.211 378.394Z" fill="#3e5fff" fill-rule="evenodd"/><path d="M405.6 280.88 420.752 231.356 687.498 305.206C705.576 310.211 715.964 329.142 710.476 347.079V347.079C704.988 365.016 685.785 374.893 668.002 368.926L405.6 280.88Z" fill="#3d3d3d"/><rect fill="#ffbd6e" height="21.9364" rx="10.9682" transform="matrix(.29256865 -.95624452 .95624452 .29256865 21.425903 649.205682)" width="82.0371" x="449.483" y="310.122"/><path clip-rule="evenodd" d="M191.154 147.085C187.129 151.915 187.518 159.032 192.044 163.395L196.258 167.457C199.958 171.023 200.918 176.532 199.062 181.325 197.087 186.427 195.471 191.627 194.212 196.887 193.024 201.849 189.15 205.816 184.122 206.679L178.128 207.709C171.964 208.768 167.65 214.385 168.216 220.613L171.457 256.248C172.023 262.476 177.281 267.222 183.534 267.152L189.615 267.083C194.717 267.026 199.244 270.228 201.307 274.895 203.479 279.807 205.986 284.597 208.826 289.229 211.491 293.579 211.556 299.122 208.612 303.288L205.106 308.247C201.497 313.354 202.418 320.377 207.222 324.38L234.712 347.286C239.516 351.289 246.59 350.928 250.962 346.456L255.207 342.114C258.774 338.466 264.237 337.53 268.996 339.367 274.065 341.324 279.229 342.926 284.452 344.176 289.414 345.364 293.381 349.238 294.244 354.267L295.274 360.261C296.333 366.424 301.95 370.739 308.178 370.173L343.813 366.932C350.04 366.365 354.787 361.108 354.717 354.855L354.648 348.773C354.591 343.671 357.793 339.145 362.46 337.082 367.372 334.909 372.162 332.402 376.794 329.563 381.144 326.897 386.687 326.832 390.852 329.777L395.812 333.282C400.919 336.892 407.942 335.97 411.945 331.166L434.851 303.677C438.854 298.873 438.493 291.799 434.021 287.427L429.679 283.181C426.031 279.615 425.095 274.151 426.932 269.392 428.903 264.288 430.514 259.086 431.768 253.825 432.96 248.825 436.879 244.835 441.951 244L447.735 243.049C453.938 242.029 458.3 236.392 457.73 230.131L454.504 194.655C453.934 188.394 448.627 183.636 442.342 183.752L436.481 183.86C431.341 183.954 426.767 180.737 424.692 176.033 422.495 171.05 419.952 166.192 417.068 161.497 414.378 157.117 414.328 151.526 417.325 147.35L420.736 142.595C424.401 137.488 423.499 130.417 418.67 126.393L391.303 103.588C386.473 99.5642 379.356 99.9529 374.993 104.479L370.932 108.693C367.365 112.393 361.856 113.353 357.063 111.497 351.925 109.508 346.688 107.884 341.391 106.621 336.39 105.429 332.4 101.51 331.566 96.4375L330.615 90.6538C329.594 84.4507 323.957 80.0886 317.696 80.658L282.22 83.8846C275.959 84.454 271.201 89.7616 271.317 96.0469L271.425 101.907C271.519 107.047 268.302 111.621 263.598 113.696 258.616 115.894 253.757 118.437 249.062 121.32 244.682 124.01 239.091 124.06 234.915 121.064L230.16 117.652C225.053 113.987 217.982 114.889 213.958 119.718L191.154 147.085ZM382.434 283.288C414.399 244.928 409.214 187.918 370.853 155.954 332.493 123.99 275.483 129.175 243.519 167.535 211.555 205.895 216.74 262.905 255.1 294.869 293.461 326.834 350.47 321.649 382.434 283.288Z" fill="#e59a48" fill-rule="evenodd"/><path clip-rule="evenodd" d="M323.387 81.5261C327.093 83.0704 329.921 86.4367 330.615 90.6537L331.566 96.4375C332.4 101.51 336.39 105.429 341.391 106.621 346.688 107.884 351.925 109.508 357.064 111.497 361.857 113.353 367.365 112.393 370.932 108.693L374.993 104.479C379.356 99.9528 386.473 99.5641 391.303 103.588L403.509 113.759 369.851 155.13C341.283 131.999 302.749 129.112 271.852 144.869L323.387 81.5261ZM175.089 263.806C177.284 265.916 180.274 267.189 183.534 267.152L189.615 267.083C194.717 267.026 199.244 270.228 201.307 274.895 203.479 279.807 205.987 284.597 208.826 289.229 211.491 293.579 211.556 299.122 208.612 303.287L205.107 308.247C201.497 313.354 202.418 320.377 207.223 324.38L222.081 336.761 255.736 295.394C255.524 295.22 255.312 295.045 255.1 294.869 227.014 271.466 216.712 234.636 225.754 201.531L175.089 263.806Z" fill="#ffbd6e" fill-rule="evenodd"/><path clip-rule="evenodd" d="M419.147 126.812 384.23 169.73C393.122 181.086 398.971 194.187 401.667 207.845L425.844 178.128C425.404 177.471 425.017 176.77 424.692 176.033 422.494 171.05 419.952 166.192 417.068 161.497 414.378 157.117 414.328 151.526 417.325 147.35L420.737 142.595C424.277 137.661 423.555 130.894 419.147 126.812ZM289.068 346.247 313.822 315.82C299.882 315.957 285.862 312.888 272.955 306.504L238.145 349.291C242.486 350.933 247.548 349.948 250.962 346.456L255.207 342.114C258.774 338.466 264.237 337.53 268.996 339.367 274.065 341.324 279.229 342.926 284.452 344.176 286.132 344.578 287.698 345.288 289.068 346.247Z" fill="#ffbd6e" fill-rule="evenodd"/><path d="M183.977 40.5305C184.932 35.2597 192.49 35.2597 193.445 40.5305L195.362 51.1077C196.836 59.2401 203.201 65.6047 211.333 67.0787L221.91 68.9959C227.181 69.9512 227.181 77.5086 221.91 78.4639L211.333 80.3811C203.201 81.8551 196.836 88.2197 195.362 96.3521L193.445 106.929C192.49 112.2 184.932 112.2 183.977 106.929L182.06 96.352C180.586 88.2197 174.221 81.8551 166.089 80.3811L155.512 78.4639C150.241 77.5086 150.241 69.9512 155.512 68.9959L166.089 67.0787C174.221 65.6047 180.586 59.2401 182.06 51.1077L183.977 40.5305Z" fill="#ffbd6e"/><path d="M462.827 116.651C463.299 114.047 467.031 114.047 467.503 116.651L468.45 121.874C469.178 125.891 472.321 129.034 476.338 129.762L481.562 130.709C484.165 131.181 484.165 134.914 481.562 135.385L476.338 136.332C472.321 137.06 469.178 140.204 468.45 144.22L467.503 149.444C467.031 152.047 463.299 152.047 462.827 149.444L461.88 144.22C461.152 140.204 458.009 137.06 453.992 136.332L448.768 135.385C446.165 134.914 446.165 131.181 448.768 130.709L453.992 129.762C458.009 129.034 461.152 125.891 461.88 121.874L462.827 116.651Z" fill="#ffbd6e"/></g></svg>