<svg viewBox="0 0 945 495" xmlns="http://www.w3.org/2000/svg" xmlns:xlink="http://www.w3.org/1999/xlink"><clipPath id="clippath"><path d="M0 0H945V495H0Z"/></clipPath><g clip-path="url(#clippath)"><path d="M-97.19-21.4H999.34V510.68H-97.19Z" fill="#e2f1ff"/><circle cx="488.45" cy="283.16" fill="#3e5fff" r="335.15"/><g fill="#e37b4c"><path d="m404.42 249.9-92.04-13.86c-13.64-2.05-26.72 6.24-30.67 19.47h0c-3.99 13.37 2.58 27.62 15.34 33.26l84.58 37.41 22.79-76.29Z"/><path d="M551.77 370.56H721.91V497.8H551.77Z" transform="matrix(.83771872 -.54610196 .54610196 .83771872 -133.76 418.2)"/><path d="m681.15 338.28c5.68 17.87 1.94 32-3.51 46.9-3.02 8.27-7.32 16.08-12.78 23-6.95 8.81-16.12 17.26-16.78 28.46-.31 5.29 1.28 11.08-1.5 15.59-2.26 3.66-6.71 5.21-10.83 6.44-26.91 8.02-54.65 13.25-82.63 15.59-23.33 1.95-47.6 1.73-69.1-7.54-29.21-12.6-49-39.83-67.33-65.84-15.68-22.26-31.36-44.52-47.04-66.78-3.93-5.58-8.07-12.12-6.44-18.75 1.13-4.61 4.82-8.08 8.34-11.26 16.21-14.68 32.43-29.36 48.64-44.04 12.43-11.26 25.24-22.75 40.87-28.84 15.85-6.18 33.32-6.31 50.33-6.35 34.89-.09 69.78-.19 104.67-.28 6.64-.02 14.39-.6 18.06-6.13-.38.54 2.28 5.71 2.6 6.5.9 2.26 1.8 4.52 2.7 6.77 1.8 4.52 3.61 9.03 5.41 13.55 3.61 9.03 7.21 18.07 10.82 27.1 6.61 16.56 13.22 33.12 19.83 49.68"/><path d="m399.09 375.04h94.59c8.14 0 14.75 6.61 14.75 14.75v40.17c0 8.14-6.61 14.75-14.75 14.75h-94.59v-69.67h0Z" transform="matrix(-.95817286 -.2861901 .2861901 -.95817286 771.21 932.48)"/><path d="m358.8 315.93h54.41c19.23 0 34.84 15.61 34.84 34.84h0c0 19.23-15.61 34.84-34.84 34.84h-54.41c-11.09 0-20.09-9-20.09-20.09v-29.5c0-11.09 9-20.09 20.09-20.09Z" transform="matrix(-.95817286 -.2861901 .2861901 -.95817286 669.92 799.46)"/></g><path d="m591.62 248.22 21.13 8.97c1.31.56 1.93 2.06 1.4 3.38h0c-.4 1-1.38 1.64-2.45 1.63l-20.82-.26.75-13.72Z" fill="#cb6942"/><path d="m262.28 99.24L392.35 14.45c18.29-11.92 42.79-6.77 54.71 11.53l208.59 320c11.92 18.29 6.75 42.78-11.54 54.71l-130.07 84.79c-18.29 11.92-42.79 6.77-54.71-11.53L250.75 153.95c-11.93-18.3-6.76-42.79 11.53-54.71Z" fill="#3d3d3d"/><path d="m468.76 464.01-205.12-314.69h0c-8.86-13.6-5.02-31.81 8.57-40.67l124.77-81.32c13.6-8.86 31.8-5.02 40.66 8.57l205.12 314.69c8.86 13.6 5.03 31.79-8.57 40.66l-124.77 81.33c-13.59 8.86-31.79 5.03-40.66-8.57Z" fill="#f7f7f7"/><circle cx="323.52" cy="93.8" fill="#3d3d3d" r="4.71"/><path d="m363.23 64.86-27.31 17.8c-1.09.71-1.4 2.17-.69 3.26h0c.71 1.09 2.17 1.4 3.26.69l27.31-17.8c1.09-.71 1.4-2.17.69-3.26h0c-.71-1.09-2.17-1.4-3.26-.69Z" fill="#3d3d3d"/><path d="m404.76 431.55c-17.72-5.29-27.8-23.96-22.51-41.68l.77-2.57c5.29-17.72 23.96-27.8 41.68-22.51h0c.74.22 1.46.46 2.18.73 22 8.23 23.84 38.88 3.62 50.82l-25.74 15.21Z" fill="#e37b4c"/><path d="m364.8 377.65c-17.72-5.29-27.8-23.96-22.51-41.68l.77-2.57c5.29-17.72 23.96-27.8 41.68-22.51h0c.74.22 1.46.46 2.18.73 22 8.23 23.84 38.88 3.62 50.82l-25.74 15.21Z" fill="#e37b4c"/><path d="m635.63 266.32h0c13.33-37.2-8.93-77.67-47.48-86.35l-44.77-10.07c-5.23-1.18-10.51 1.72-12.34 6.75h0c-8.25 22.76 2.92 47.98 25.32 57.17l79.26 32.5Z" fill="#e37b4c"/><path d="m923.1 727.81-115.88 80.14c-18.97 13.12-44.99 8.38-58.11-10.6l-171.6-248.14c-13.12-18.97-8.38-44.99 10.6-58.11l115.88-80.14c18.97-13.12 39.92-8.46 58.11 10.6l237.24 225.25c13.12 18.97-57.26 67.88-76.23 81Z" fill="#dbc5ff"/><path d="m402.67 298.85c-5.74-4.67-10.79-10.35-14.85-16.99-19.77-32.3-8.88-74.96 24.33-95.29 33.21-20.33 76.16-10.63 95.93 21.67 1.16 1.9 2.22 3.84 3.18 5.81" fill="#a3f7ca"/><path d="m390.09 241.48h141.01v40.54c0 4.36-3.54 7.9-7.9 7.9h-125.22c-4.36 0-7.9-3.54-7.9-7.9v-40.54h0Z" fill="#a3f7ca" transform="matrix(.8528225 -.52220091 .52220091 .8528225 -70.96 279.59)"/><circle cx="462.11" cy="205.69" fill="#3d3d3d" r="5.31"/><circle cx="410.66" cy="237.19" fill="#3d3d3d" r="5.31"/></g></svg>