<svg fill="none" height="495" viewBox="0 0 945 495" width="945" xmlns="http://www.w3.org/2000/svg" xmlns:xlink="http://www.w3.org/1999/xlink"><linearGradient id="paint0_linear_1378_14339" gradientUnits="userSpaceOnUse" x1="382.404" x2="671.938" y1="527.689" y2="-376.044"><stop offset="0" stop-color="#243a67"/><stop offset=".6012" stop-color="#2f5eb0"/></linearGradient><radialGradient id="paint1_radial_1378_14339" cx="0" cy="0" gradientTransform="matrix(-264.89837963 -.57329616 .07209232 -33.31112199 523.557 463.324)" gradientUnits="userSpaceOnUse" r="1"><stop offset=".00190595" stop-color="#3d72c9" stop-opacity=".4"/><stop offset=".199" stop-color="#4074ca" stop-opacity=".3155"/><stop offset=".3369" stop-color="#497bcc" stop-opacity=".2564"/><stop offset=".4566" stop-color="#5886d1" stop-opacity=".2051"/><stop offset=".566" stop-color="#6e96d7" stop-opacity=".1581"/><stop offset=".6684" stop-color="#8baadf" stop-opacity=".1142"/><stop offset=".7656" stop-color="#aec4e8" stop-opacity=".072585"/><stop offset=".8569" stop-color="#d6e1f4" stop-opacity=".033435"/><stop offset=".9349" stop-color="#ffffff" stop-opacity="0"/></radialGradient><linearGradient id="paint2_linear_1378_14339" gradientUnits="userSpaceOnUse" x1="760.485" x2="364.942" y1="91.9314" y2="343.72"><stop offset="0" stop-color="#6ca5ff"/><stop offset=".7202" stop-color="#b7d3ff"/></linearGradient><linearGradient id="lg1"><stop offset="0" stop-color="#b7d3ff"/><stop offset="1" stop-color="#e4eeff"/></linearGradient><linearGradient id="paint3_linear_1378_14339" gradientUnits="userSpaceOnUse" x1="381.359" x2="518.144" xlink:href="#lg1" y1="323.42" y2="246.75"/><linearGradient id="lg2"><stop offset="0" stop-color="#3284ff"/><stop offset=".9992" stop-color="#6ca5ff"/></linearGradient><linearGradient id="paint4_linear_1378_14339" gradientUnits="userSpaceOnUse" x1="569.02" x2="707.1" xlink:href="#lg2" y1="121.888" y2="121.888"/><linearGradient id="lg3"><stop offset=".000785176" stop-color="#6ca5ff"/><stop offset=".0222496" stop-color="#76abff"/><stop offset=".0872176" stop-color="#8ebaff"/><stop offset=".1612" stop-color="#a0c5ff"/><stop offset=".2483" stop-color="#adcdff"/><stop offset=".3611" stop-color="#b5d2ff"/><stop offset=".5922" stop-color="#b7d3ff"/></linearGradient><linearGradient id="paint5_linear_1378_14339" gradientUnits="userSpaceOnUse" x1="543.73" x2="520.956" xlink:href="#lg3" y1="126.427" y2="78.594"/><linearGradient id="lg4"><stop offset="0" stop-color="#b7d3ff"/><stop offset="1" stop-color="#ebf2ff"/></linearGradient><linearGradient id="paint6_linear_1378_14339" gradientUnits="userSpaceOnUse" x1="523.481" x2="512.525" xlink:href="#lg4" y1="111.811" y2="78.9919"/><linearGradient id="paint7_linear_1378_14339" gradientUnits="userSpaceOnUse" x1="545.333" x2="562.843" xlink:href="#lg4" y1="143.89" y2="142.217"/><linearGradient id="paint8_linear_1378_14339" gradientUnits="userSpaceOnUse" x1="703.33" x2="559.88" xlink:href="#lg4" y1="137.455" y2="137.455"/><linearGradient id="lg5"><stop offset="0" stop-color="#b7d3ff"/><stop offset=".4633" stop-color="#b5d2ff"/><stop offset=".638" stop-color="#aeceff"/><stop offset=".7639" stop-color="#a2c6ff"/><stop offset=".8664" stop-color="#91bcff"/><stop offset=".9537" stop-color="#7baeff"/><stop offset="1" stop-color="#6ca5ff"/></linearGradient><radialGradient id="paint9_radial_1378_14339" cx="0" cy="0" gradientTransform="matrix(7.64422943 -.73066574 .73066574 7.64422943 553.127 133.031)" gradientUnits="userSpaceOnUse" r="1" xlink:href="#lg5"/><linearGradient id="paint10_linear_1378_14339" gradientUnits="userSpaceOnUse" x1="686.21" x2="721.51" xlink:href="#lg2" y1="239.501" y2="239.501"/><linearGradient id="paint11_linear_1378_14339" gradientUnits="userSpaceOnUse" x1="645.828" x2="635.767" xlink:href="#lg3" y1="238.998" y2="189.04"/><linearGradient id="paint12_linear_1378_14339" gradientUnits="userSpaceOnUse" x1="569.429" x2="687.281" xlink:href="#lg4" y1="212.307" y2="192.825"/><linearGradient id="paint13_linear_1378_14339" gradientUnits="userSpaceOnUse" x1="723.929" x2="667.3" xlink:href="#lg4" y1="246.705" y2="246.705"/><linearGradient id="paint14_linear_1378_14339" gradientUnits="userSpaceOnUse" x1="652.938" x2="669.623" xlink:href="#lg4" y1="252.884" y2="250.126"/><radialGradient id="paint15_radial_1378_14339" cx="0" cy="0" gradientTransform="matrix(7.28435336 -1.20421496 1.20421496 7.28435336 659.699 241.955)" gradientUnits="userSpaceOnUse" r="1" xlink:href="#lg5"/><linearGradient id="paint16_linear_1378_14339" gradientUnits="userSpaceOnUse" x1="619.484" x2="619.481" xlink:href="#lg3" y1="351.796" y2="351.708"/><linearGradient id="paint17_linear_1378_14339" gradientUnits="userSpaceOnUse" x1="660.703" x2="659.175" xlink:href="#lg3" y1="350.453" y2="306.717"/><linearGradient id="paint18_linear_1378_14339" gradientUnits="userSpaceOnUse" x1="599.075" x2="701.595" xlink:href="#lg4" y1="317.441" y2="316.121"/><linearGradient id="paint19_linear_1378_14339" gradientUnits="userSpaceOnUse" x1="680.69" x2="679.15" xlink:href="#lg4" y1="357.795" y2="357.795"/><linearGradient id="paint20_linear_1378_14339" gradientUnits="userSpaceOnUse" x1="664.61" x2="679.18" xlink:href="#lg4" y1="362.35" y2="362.35"/><radialGradient id="paint21_radial_1378_14339" cx="0" cy="0" gradientTransform="matrix(6.33678474 -.0815917 .0815917 6.33678474 671.848 354.252)" gradientUnits="userSpaceOnUse" r="1" xlink:href="#lg5"/><linearGradient id="paint22_linear_1378_14339" gradientUnits="userSpaceOnUse" x1="361.005" x2="443.773" xlink:href="#lg2" y1="404.47" y2="-45.0902"/><linearGradient id="paint23_linear_1378_14339" gradientUnits="userSpaceOnUse" x1="456.199" x2="382.278" xlink:href="#lg2" y1="205.555" y2="271.739"/><linearGradient id="paint24_linear_1378_14339" gradientUnits="userSpaceOnUse" x1="336.144" x2="383.344" xlink:href="#lg1" y1="443.316" y2="281.073"/><linearGradient id="lg6"><stop offset="0" stop-color="#ff627d"/><stop offset=".9987" stop-color="#ffd1d6"/></linearGradient><linearGradient id="paint25_linear_1378_14339" gradientUnits="userSpaceOnUse" x1="513.022" x2="458.717" xlink:href="#lg6" y1="344.857" y2="369.357"/><linearGradient id="paint26_linear_1378_14339" gradientUnits="userSpaceOnUse" x1="497.382" x2="443.077" xlink:href="#lg6" y1="310.192" y2="334.692"/><linearGradient id="paint27_linear_1378_14339" gradientUnits="userSpaceOnUse" x1="496.934" x2="442.628" xlink:href="#lg6" y1="309.196" y2="333.697"/><linearGradient id="paint28_linear_1378_14339" gradientUnits="userSpaceOnUse" x1="498.638" x2="444.333" xlink:href="#lg6" y1="312.973" y2="337.474"/><linearGradient id="paint29_linear_1378_14339" gradientUnits="userSpaceOnUse" x1="497.898" x2="443.595" xlink:href="#lg6" y1="311.334" y2="335.833"/><linearGradient id="paint30_linear_1378_14339" gradientUnits="userSpaceOnUse" x1="500.684" x2="446.379" xlink:href="#lg6" y1="317.509" y2="342.01"/><linearGradient id="paint31_linear_1378_14339" gradientUnits="userSpaceOnUse" x1="499.427" x2="445.122" xlink:href="#lg6" y1="314.723" y2="339.223"/><linearGradient id="paint32_linear_1378_14339" gradientUnits="userSpaceOnUse" x1="501.871" x2="447.565" xlink:href="#lg6" y1="320.139" y2="344.639"/><linearGradient id="paint33_linear_1378_14339" gradientUnits="userSpaceOnUse" x1="500.467" x2="446.162" xlink:href="#lg6" y1="317.028" y2="341.528"/><linearGradient id="paint34_linear_1378_14339" gradientUnits="userSpaceOnUse" x1="502.305" x2="448" xlink:href="#lg6" y1="321.102" y2="345.603"/><linearGradient id="paint35_linear_1378_14339" gradientUnits="userSpaceOnUse" x1="504.846" x2="450.541" xlink:href="#lg6" y1="326.734" y2="351.235"/><linearGradient id="paint36_linear_1378_14339" gradientUnits="userSpaceOnUse" x1="502.261" x2="447.956" xlink:href="#lg6" y1="321.005" y2="345.505"/><linearGradient id="paint37_linear_1378_14339" gradientUnits="userSpaceOnUse" x1="505.435" x2="451.13" xlink:href="#lg6" y1="328.041" y2="352.541"/><linearGradient id="paint38_linear_1378_14339" gradientUnits="userSpaceOnUse" x1="514.606" x2="460.301" xlink:href="#lg6" y1="348.367" y2="372.868"/><linearGradient id="paint39_linear_1378_14339" gradientUnits="userSpaceOnUse" x1="521.753" x2="467.448" xlink:href="#lg6" y1="364.208" y2="388.708"/><linearGradient id="paint40_linear_1378_14339" gradientUnits="userSpaceOnUse" x1="520.994" x2="466.688" xlink:href="#lg6" y1="362.525" y2="387.025"/><linearGradient id="paint41_linear_1378_14339" gradientUnits="userSpaceOnUse" x1="511.879" x2="457.574" xlink:href="#lg6" y1="342.323" y2="366.823"/><linearGradient id="paint42_linear_1378_14339" gradientUnits="userSpaceOnUse" x1="508.246" x2="453.94" xlink:href="#lg6" y1="334.269" y2="358.77"/><linearGradient id="paint43_linear_1378_14339" gradientUnits="userSpaceOnUse" x1="506.073" x2="451.768" xlink:href="#lg6" y1="329.454" y2="353.955"/><linearGradient id="paint44_linear_1378_14339" gradientUnits="userSpaceOnUse" x1="510.402" x2="456.097" xlink:href="#lg6" y1="339.051" y2="363.551"/><linearGradient id="paint45_linear_1378_14339" gradientUnits="userSpaceOnUse" x1="512.803" x2="458.498" xlink:href="#lg6" y1="344.37" y2="368.87"/><linearGradient id="paint46_linear_1378_14339" gradientUnits="userSpaceOnUse" x1="521.935" x2="467.63" xlink:href="#lg6" y1="364.612" y2="389.112"/><linearGradient id="paint47_linear_1378_14339" gradientUnits="userSpaceOnUse" x1="518.203" x2="463.898" xlink:href="#lg6" y1="356.34" y2="380.84"/><linearGradient id="paint48_linear_1378_14339" gradientUnits="userSpaceOnUse" x1="523.474" x2="469.169" xlink:href="#lg6" y1="368.023" y2="392.524"/><linearGradient id="paint49_linear_1378_14339" gradientUnits="userSpaceOnUse" x1="516.138" x2="461.833" xlink:href="#lg6" y1="351.763" y2="376.264"/><linearGradient id="paint50_linear_1378_14339" gradientUnits="userSpaceOnUse" x1="508.701" x2="454.396" xlink:href="#lg6" y1="335.28" y2="359.781"/><linearGradient id="paint51_linear_1378_14339" gradientUnits="userSpaceOnUse" x1="515.588" x2="461.282" xlink:href="#lg6" y1="350.543" y2="375.043"/><linearGradient id="paint52_linear_1378_14339" gradientUnits="userSpaceOnUse" x1="509.827" x2="455.522" xlink:href="#lg6" y1="337.774" y2="362.274"/><linearGradient id="paint53_linear_1378_14339" gradientUnits="userSpaceOnUse" x1="522.007" x2="467.702" xlink:href="#lg6" y1="364.771" y2="389.271"/><linearGradient id="paint54_linear_1378_14339" gradientUnits="userSpaceOnUse" x1="516.721" x2="462.416" xlink:href="#lg6" y1="353.055" y2="377.555"/><linearGradient id="paint55_linear_1378_14339" gradientUnits="userSpaceOnUse" x1="517.509" x2="463.204" xlink:href="#lg6" y1="354.803" y2="379.303"/><linearGradient id="paint56_linear_1378_14339" gradientUnits="userSpaceOnUse" x1="512.552" x2="458.247" xlink:href="#lg6" y1="343.815" y2="368.316"/><linearGradient id="paint57_linear_1378_14339" gradientUnits="userSpaceOnUse" x1="516.149" x2="461.844" xlink:href="#lg6" y1="351.788" y2="376.288"/><linearGradient id="paint58_linear_1378_14339" gradientUnits="userSpaceOnUse" x1="511.929" x2="457.623" xlink:href="#lg6" y1="342.433" y2="366.934"/><linearGradient id="paint59_linear_1378_14339" gradientUnits="userSpaceOnUse" x1="256.787" x2="451.073" y1="436.966" y2="186.049"><stop offset=".3992" stop-color="#027eff" stop-opacity="0"/><stop offset=".5364" stop-color="#037dfc" stop-opacity=".04568"/><stop offset=".6342" stop-color="#0478f3" stop-opacity=".078239"/><stop offset=".7198" stop-color="#0771e3" stop-opacity=".1067"/><stop offset=".7983" stop-color="#0b67cd" stop-opacity=".1329"/><stop offset=".8721" stop-color="#105ab0" stop-opacity=".1574"/><stop offset=".9413" stop-color="#174a8e" stop-opacity=".1804"/><stop offset="1" stop-color="#1d3a6a" stop-opacity=".2"/></linearGradient><linearGradient id="paint60_linear_1378_14339" gradientUnits="userSpaceOnUse" x1="393.648" x2="331.492" xlink:href="#lg1" y1="287.911" y2="395.801"/><linearGradient id="lg7"><stop offset="0" stop-color="#6ca5ff"/><stop offset="1" stop-color="#b7d3ff"/></linearGradient><linearGradient id="paint61_linear_1378_14339" gradientUnits="userSpaceOnUse" x1="487.806" x2="320.527" xlink:href="#lg7" y1="226.915" y2="206.658"/><linearGradient id="paint62_linear_1378_14339" gradientUnits="userSpaceOnUse" x1="396.808" x2="429.53" xlink:href="#lg7" y1="231.967" y2="193"/><linearGradient id="paint63_linear_1378_14339" gradientUnits="userSpaceOnUse" x1="363.619" x2="270.026" xlink:href="#lg7" y1="216.249" y2="194.995"/><linearGradient id="paint64_linear_1378_14339" gradientUnits="userSpaceOnUse" x1="281.232" x2="309.162" xlink:href="#lg7" y1="198.868" y2="198.868"/><linearGradient id="paint65_linear_1378_14339" gradientUnits="userSpaceOnUse" x1="282.767" x2="307.628" xlink:href="#lg1" y1="198.92" y2="198.92"/><linearGradient id="paint66_linear_1378_14339" gradientUnits="userSpaceOnUse" x1="286.72" x2="303.802" xlink:href="#lg7" y1="199.168" y2="199.168"/><linearGradient id="paint67_linear_1378_14339" gradientUnits="userSpaceOnUse" x1="410.055" x2="592.509" y1="241.757" y2="263.438"><stop offset=".2062" stop-color="#ebf2ff" stop-opacity="0"/><stop offset=".2457" stop-color="#ece8f6" stop-opacity=".029962"/><stop offset=".5023" stop-color="#f4afc3" stop-opacity=".2246"/><stop offset=".722" stop-color="#fa859d" stop-opacity=".3914"/><stop offset=".894" stop-color="#fe6c86" stop-opacity=".5218"/><stop offset=".9971" stop-color="#ff627d" stop-opacity=".6"/></linearGradient><linearGradient id="paint68_linear_1378_14339" gradientUnits="userSpaceOnUse" x1="301.631" x2="491.574" y1="167.283" y2="167.283"><stop offset=".1915" stop-color="#ebf2ff" stop-opacity="0"/><stop offset="1" stop-color="#ff627d" stop-opacity=".6"/></linearGradient><linearGradient id="paint69_linear_1378_14339" gradientUnits="userSpaceOnUse" x1="460.975" x2="609.931" y1="329.497" y2="371.663"><stop offset=".1592" stop-color="#ebf2ff" stop-opacity="0"/><stop offset=".2012" stop-color="#ece8f6" stop-opacity=".029962"/><stop offset=".4736" stop-color="#f4afc3" stop-opacity=".2246"/><stop offset=".707" stop-color="#fa859d" stop-opacity=".3914"/><stop offset=".8896" stop-color="#fe6c86" stop-opacity=".5218"/><stop offset=".999" stop-color="#ff627d" stop-opacity=".6"/></linearGradient><clipPath id="clip0_1378_14339"><path d="M0 0H945V495H0Z"/></clipPath><g clip-path="url(#clip0_1378_14339)"><path d="M947-1.7998H-2V494.8H947V-1.7998Z" fill="url(#paint0_linear_1378_14339)"/><path d="M258.6 463C258.6 481.4 377.1 496.6 523.4 496.9 669.7 497.2 788.3 482.6 788.4 464.2 788.4 445.8 669.9 430.6 523.6 430.3 377.3 430 258.7 444.6 258.6 463Z" fill="url(#paint1_radial_1378_14339)" opacity=".6"/><path d="M535.7 434.2C645.715 434.2 734.9 345.015 734.9 235 734.9 124.985 645.715 35.7998 535.7 35.7998 425.685 35.7998 336.5 124.985 336.5 235 336.5 345.015 425.685 434.2 535.7 434.2Z" fill="url(#paint2_linear_1378_14339)"/><path d="M328.1 126C327.3 125 325.6 124.4 324.3 124.7 323 124.9 322.7 125.9 323.5 126.9 324.3 127.9 326 128.5 327.3 128.2 328.6 128 328.9 127 328.1 126Z" fill="#7ac90d"/><path d="M535.7 425.1C639.64 425.1 723.9 340.84 723.9 236.9 723.9 132.96 639.64 48.7002 535.7 48.7002 431.76 48.7002 347.5 132.96 347.5 236.9 347.5 340.84 431.76 425.1 535.7 425.1Z" fill="url(#paint3_linear_1378_14339)"/><path d="M707.1 159.1C706.9 159.1 706.8 159.1 706.6 159.2 695.6 160.2 681.9 160.7 667.8 157.3 658.5 155.1 650 151.3 642.6 146.1 641.9 145.6 641.3 145.1 640.6 144.6 638.6 143.1 636.6 141.4 634.7 139.6 631.5 136.6 628.4 133.2 625.6 129.4 622.6 125.5 619.9 121.1 617.5 116.5 611 104.4 606.6 96.7999 600.7 92.4999 592.1 86.2999 580.9 85.6999 570.5 90.7999L569 87.6999C574.2 85.0999 579.9 83.7999 585.4 83.8999 591.7 83.9999 597.5 85.9999 602.7 89.6999 609.3 94.4999 613.8 102.4 620.6 114.9 623.4 120.3 626.4 124.9 629.7 129 632.8 132.9 636.1 136.2 639.5 139.1 642.5 141.7 645.6 143.9 648.8 145.8 668.1 157.3 689.8 157.2 705.6 155.8 706.1 156.9 706.6 158 707.1 159.1Z" fill="url(#paint4_linear_1378_14339)"/><path d="M573.6 112.5 560.5 127.2 549.5 132.5 529.9 134.2 529.4 133 573.4 111.8 573.6 112.5Z" fill="#3284ff"/><path d="M500 147.1C503 145.8 508.1 142.3 508.8 133.5 509.2 128.1 508 121.9 505.3 115.9 502.6 109.9 498.7 104.8 494.4 101.4 488.9 97.1998 484.1 96.9998 480.7 97.6998L480.4 97.7998C480 97.8998 479.6 98.0998 479.3 98.1998 475.9 99.6998 469.9 104 469.4 113.4 469.2 116.1 469.5 119.1 470.2 122.1 470.8 124.6 471.7 127.2 472.8 129.7 475.5 135.7 479.4 140.8 483.7 144.2 488.3 147.7 492.4 148.4 495.6 148.1 496.5 148 497.4 147.8 498.2 147.6 498.9 147.6 499.5 147.4 500 147.1Z" fill="#3284ff"/><path d="M573.6 112.5 573.4 111.8 529.4 133 529.9 134.2 573.6 112.5Z" fill="#e4e4e4"/><path d="M493.6 103.9C487.3 99.0003 482 100.2 479.4 101.3 476.8 102.4 472.3 105.5 471.8 113.3 471.5 118 472.6 123.6 475 128.9 477.4 134.2 480.8 138.8 484.6 141.8 490.9 146.7 496.2 145.5 498.8 144.4 501.4 143.3 505.9 140.2 506.4 132.4 506.7 127.7 505.6 122.1 503.2 116.8 500.8 111.4 497.4 106.9 493.6 103.9Z" fill="#225db7"/><path d="M497.602 141.693C503.906 138.879 505.256 128.176 500.617 117.787 495.979 107.399 487.109 101.259 480.805 104.074 474.501 106.888 473.151 117.591 477.79 127.98 482.428 138.368 491.298 144.508 497.602 141.693Z" fill="#1d3a6a"/><path d="M491.623 128.25C493.387 127.459 493.735 124.407 492.402 121.434 491.068 118.461 488.557 116.692 486.793 117.483 485.03 118.275 484.681 121.326 486.015 124.299 487.349 127.272 489.86 129.041 491.623 128.25Z" fill="#ff627d"/><path d="M469.4 113.5C469.7 108.7 471.3 105.4 473.3 103 470.6 102.7 460.3 102 457.8 106.2 454.6 114 466.2 126.4 470.3 129.5L472.4 128.7C470.2 123.5 469.1 118.2 469.4 113.5Z" fill="#cbcbcb"/><path d="M579 83.5996C576.8 78.5996 573.8 74.1996 570.7 71.1996 565 65.7996 560.1 66.3996 557.5 67.3996L480.8 97.7996C484.1 97.0996 489 97.2996 494.5 101.5 498.8 104.8 502.7 110 505.4 116 508.1 122 509.4 128.3 508.9 133.6 508.2 142.5 503.1 145.9 500.1 147.2 499.6 147.4 499 147.6 498.3 147.8 499.2 147.5 500.1 147.2 500.8 146.9 501.1 146.8 501.5 146.6 501.9 146.4L576.1 110.6C576.3 110.5 576.5 110.4 576.7 110.3H576.8C579.3 109 582.9 105.7 582.7 98.0996 582.5 93.6996 581.2 88.5996 579 83.5996Z" fill="url(#paint5_linear_1378_14339)"/><path d="M579.6 82.2001C579.6 82.2001 571.5 63.5001 557.1 64.1001 557.1 64.1001 462.2 101.9 462 102 460.2 102.7 459 104 458.3 105.2 453.5 112.9 465.9 126.3 470.2 129.6L472.3 128.8C472.3 128.8 465.1 113 473.2 103.1 473.2 103.1 474.5 103.2 475.3 103.3 491.6 105.3 502.6 116.2 502.6 116.2 502.6 116.1 579.6 82.2001 579.6 82.2001Z" fill="url(#paint6_linear_1378_14339)"/><path d="M561.6 66.8996 477.5 100.8C476.5 100.6 475 100.4 474 100.3L558 66.0996C558.7 66.0996 560.6 66.3996 561.6 66.8996Z" fill="#ffffff" opacity=".5"/><path d="M504.9 115.1 578.6 82.7002 578.9 83.2002 505.7 116.9 504.9 115.1Z" fill="#e4e4e4"/><path d="M457.8 106.2C457.8 106.2 457.9 106 458.1 105.7 458.3 105.4 458.7 105 459.3 104.7 459.9 104.3 460.6 104 461.5 103.6 461.9 103.5 462.4 103.3 462.9 103.2 463.2 103.1 463.4 103.1 463.7 103 464 103 464.3 102.9 464.5 102.9 465.6 102.7 466.9 102.6 468.2 102.6 469.5 102.6 470.9 102.6 472.4 102.7 473.8 102.8 475.3 103 476.8 103.2 478.3 103.5 479.8 103.8 481.3 104.1 484.3 104.8 487.2 105.8 489.9 107 491.2 107.6 492.5 108.2 493.7 108.8 494 109 494.3 109.1 494.6 109.3 494.9 109.5 495.2 109.6 495.4 109.8 495.5 109.9 495.7 110 495.8 110 495.9 110.1 496.1 110.2 496.2 110.2 496.5 110.4 496.7 110.5 497 110.7 497.5 111 497.9 111.3 498.4 111.6 498.8 111.9 499.2 112.2 499.6 112.5 500 112.8 500.3 113.1 500.6 113.3 500.9 113.6 501.2 113.8 501.5 114 502 114.4 502.4 114.8 502.7 115.1 503 115.4 503.3 115.7 503.3 115.7L502.1 116.3 501.9 116.1C501.6 115.9 501.3 115.5 500.8 115 500.6 114.8 500.3 114.5 500 114.3 499.7 114 499.4 113.8 499 113.5 498.6 113.2 498.2 112.9 497.8 112.6 497.4 112.3 496.9 112 496.5 111.7 496.3 111.5 496 111.4 495.8 111.2 495.7 111.1 495.6 111 495.4 111 495.3 110.9 495.1 110.8 495 110.8 494.7 110.6 494.5 110.5 494.2 110.3 493.9 110.1 493.6 110 493.4 109.8 492.3 109.2 491 108.5 489.7 107.9 487.1 106.7 484.2 105.6 481.3 104.8 479.8 104.4 478.3 104 476.9 103.7 475.4 103.4 474 103.2 472.5 103.1 471.1 103 469.7 102.9 468.4 102.9 467.1 102.9 465.8 103 464.7 103.1 464.4 103.1 464.1 103.2 463.9 103.2 463.6 103.2 463.4 103.3 463.1 103.4 462.6 103.5 462.1 103.6 461.7 103.8 460.8 104.1 460.1 104.4 459.5 104.8 458.9 105.2 458.5 105.5 458.3 105.8 457.9 106 457.8 106.2 457.8 106.2Z" fill="#ebf2ff"/><path d="M556.4 152.2 553.6 152.5C549.5 152.9 545.9 149.9 545.5 145.8L544.4 134.8C544.4 134.6 544.5 134.5 544.7 134.4L561.6 132.8C561.8 132.8 561.9 132.9 562 133.1L563.1 144.1C563.4 148.2 560.5 151.9 556.4 152.2Z" fill="url(#paint7_linear_1378_14339)"/><path d="M561.7 133.1V133H561.6L560.8 133.1C560.8 137 557.8 140.4 553.9 140.8 552 141 550.2 140.5 548.8 139.4 550.4 140.9 552.5 141.7 554.9 141.5 559 141 562.1 137.3 561.7 133.1Z" fill="#5b9bff" opacity=".2"/><path d="M703.3 151.2 687.6 144.3 648.7 145.8 642.7 146 578.8 148.4 561.5 150 560.7 150.1 559.8 150.2C560.6 149.5 561.3 148.6 561.8 147.7 561.9 147.6 562 147.4 562 147.3 562.1 147.2 562.1 147 562.2 146.9 562.2 146.8 562.3 146.6 562.4 146.5 562.8 145.4 563 144.2 562.8 142.9V142.8L562.1 135.5 563.2 135.4 625.6 129.4 629.6 129 686 123.6C688.5 127 691 130.4 693.3 133.9 696.9 139.5 700.3 145.3 703.3 151.2Z" fill="url(#paint8_linear_1378_14339)"/><path d="M703.3 151.2 687.6 144.3 648.7 145.8 642.7 146 578.8 148.4 561.5 150 560.7 150.1 559.8 150.2C560.6 149.5 561.3 148.6 561.8 147.7 561.9 147.6 562 147.4 562 147.3 562.1 147.2 562.1 147 562.2 146.9 562.2 146.8 562.3 146.6 562.4 146.5H562.8L563.5 146.4 634.6 139.6 639.3 139.1 693.2 134C696.9 139.5 700.3 145.3 703.3 151.2Z" fill="#5b9bff" opacity=".2"/><path d="M564 142.699 563.3 135.399 562.2 135.499 562.9 142.799C563.2 145.799 562 148.499 559.9 150.299L561.6 150.099C563.3 148.199 564.3 145.499 564 142.699Z" fill="#5b9bff" opacity=".2"/><path d="M553.1 140.7C557.352 140.7 560.8 137.252 560.8 133 560.8 128.747 557.352 125.3 553.1 125.3 548.847 125.3 545.4 128.747 545.4 133 545.4 137.252 548.847 140.7 553.1 140.7Z" fill="url(#paint9_radial_1378_14339)"/><path d="M556.093 133.471C556.318 131.83 555.17 130.317 553.529 130.091 551.887 129.866 550.374 131.013 550.149 132.655 549.923 134.296 551.071 135.81 552.712 136.035 554.354 136.261 555.867 135.113 556.093 133.471Z" fill="#dfebff"/><path d="M721.5 267.1C721.3 268.2 721.1 269.3 720.9 270.4 720.6 270.2 720.2 270 719.9 269.8 716.2 267.4 712.1 263.2 709.4 255.7 708.6 253.5 707.9 250.9 707.4 248 706.8 244.9 706.5 241.4 706.3 237.5 706.2 235.5 706.3 233.3 706.3 231.1 706.3 221.9 703.8 215.9 698.7 213.2 694.3 210.8 688.9 211.7 686.2 212.8 686.3 211.3 686 209.6 686 209.6 689.6 208.4 695.2 207.9 700.1 210.5 704.3 212.7 709.3 218.1 709.3 231.1V231.2C709.2 233.2 709.2 235.2 709.3 237 709.4 240.8 709.7 244.3 710.3 247.5 710.9 250.5 711.6 253.3 712.6 255.8 714.8 260.8 717.7 264.7 721.5 267.1Z" fill="url(#paint10_linear_1378_14339)"/><path d="M676.9 232.2 661.4 243 649.9 245.5 631.2 242.7 631 241.5 676.8 231.5 676.9 232.2Z" fill="#3284ff"/><path d="M600.3 248.1C603.4 247.6 609 245.5 611.6 237.3 613.2 232.4 613.4 226.3 612.2 220 611 213.8 608.5 208.1 605.2 204 601 198.9 596.5 197.6 593.3 197.5H593C592.6 197.5 592.2 197.6 591.9 197.7 588.4 198.4 581.8 201.1 579.2 209.7 578.4 212.2 578 215 578 218 578 220.5 578.3 223.1 578.7 225.7 579.9 231.9 582.4 237.6 585.7 241.7 589.2 246 592.9 247.6 596 248.1 596.9 248.2 597.7 248.3 598.5 248.2 599.2 248.3 599.8 248.2 600.3 248.1Z" fill="#3284ff"/><path d="M676.9 232.2 676.8 231.5 631 241.5 631.2 242.7 676.9 232.2Z" fill="#e4e4e4"/><path d="M604 206.2C599.2 200.2 594 200.1 591.3 200.6 588.6 201.1 583.8 202.9 581.5 210.1 580.1 214.5 579.9 219.9 581 225.4 582 230.9 584.2 236 587.1 239.6 591.9 245.6 597.1 245.7 599.8 245.2 602.5 244.7 607.3 242.9 609.6 235.7 611 231.3 611.2 225.9 610.1 220.4 609 214.9 606.9 209.8 604 206.2Z" fill="#225db7"/><path d="M599.234 242.436C605.749 241.22 609.404 231.52 607.397 220.77 605.391 210.021 598.483 202.293 591.968 203.509 585.453 204.725 581.799 214.425 583.805 225.174 585.812 235.924 592.72 243.652 599.234 242.436Z" fill="#1d3a6a"/><path d="M596.628 228.531C598.473 228.184 599.505 225.438 598.933 222.399 598.36 219.359 596.4 217.177 594.555 217.525 592.71 217.873 591.678 220.618 592.25 223.657 592.823 226.697 594.783 228.879 596.628 228.531Z" fill="#ff627d"/><path d="M579.2 209.8C580.5 205.4 582.8 202.7 585.2 200.9 582.8 200 573.3 197.1 570 200.4 565.2 207 573.3 221.2 576.4 225L578.5 224.7C577.8 219.3 577.9 214.1 579.2 209.8Z" fill="#cbcbcb"/><path d="M683.4 192.9C679.3 186.6 674.6 186.1 671.9 186.4L593.3 197.7C596.6 197.8 601.1 199.1 605.2 204.2 608.5 208.3 611 213.9 612.2 220.2 613.4 226.4 613.2 232.6 611.6 237.5 609 245.6 603.4 247.7 600.3 248.3 599.8 248.4 599.2 248.5 598.5 248.5 599.4 248.5 600.3 248.4 601 248.2 601.3 248.1 601.7 248.1 602.1 248L679.5 231.2C679.7 231.2 679.9 231.1 680.1 231.1H680.2C682.9 230.4 686.9 228.2 688.5 221 689.4 216.9 689.4 211.8 688.5 206.6 687.5 201.2 685.7 196.4 683.4 192.9Z" fill="url(#paint11_linear_1378_14339)"/><path d="M689.3 205.2C689.3 205.2 685.9 185.9 672.4 183.2 672.4 183.2 575.2 197.2 574.9 197.3 573 197.6 571.7 198.5 570.7 199.5 564.5 205.7 573.1 220.9 576.4 225L578.5 224.7C578.5 224.7 575.3 208.3 585.1 200.9 585.1 200.9 586.3 201.3 587 201.5 601.8 207 609.6 219.7 609.6 219.7 609.7 219.7 689.3 205.2 689.3 205.2Z" fill="url(#paint12_linear_1378_14339)"/><path d="M672.4 187.4 590.4 199.5C588.6 198.7 586.9 198 586.9 198 586.9 198 589.5 197.6 590.1 197.5L672.1 185.4C673.7 185.7 675.4 186.9 675.4 186.9 675.4 186.9 673 187.3 672.4 187.4Z" fill="#ffffff" opacity=".5"/><path d="M612.1 219.3 688.3 205.4 688.4 206 612.5 221.1 612.1 219.3Z" fill="#e4e4e4"/><path d="M570 200.4C570 200.4 570.1 200.2 570.4 200 570.7 199.8 571.1 199.5 571.7 199.3 572.3 199.1 573.1 198.9 574 198.8 574.5 198.8 574.9 198.7 575.4 198.7 575.7 198.7 575.9 198.7 576.2 198.7 576.5 198.7 576.7 198.7 577 198.8 578.1 198.9 579.3 199.1 580.5 199.3 581.7 199.6 583 199.9 584.4 200.3 585.7 200.7 587.1 201.2 588.4 201.8 589.7 202.4 591.1 203 592.4 203.7 595 205.1 597.6 206.7 599.8 208.3 600.9 209.1 602 210 602.9 210.8 603.1 211 603.4 211.2 603.6 211.4 603.8 211.6 604 211.8 604.3 212 604.4 212.1 604.5 212.2 604.6 212.3 604.7 212.4 604.8 212.5 604.9 212.6 605.1 212.8 605.3 213 605.5 213.2 605.9 213.6 606.2 214 606.6 214.4 606.9 214.8 607.2 215.2 607.5 215.5 607.8 215.9 608 216.2 608.3 216.5 608.5 216.8 608.7 217.1 608.9 217.4 609.3 217.9 609.6 218.4 609.8 218.7 610 219 610.2 219.4 610.2 219.4L609 219.6C609 219.6 607.6 217.5 606.6 216.3 604.9 214.2 601.9 211.1 599.2 208.9 596.5 206.8 594.6 205.5 592.1 204.1 590.8 203.4 589.5 202.8 588.1 202.2 586.8 201.6 585.5 201.1 584.2 200.6 582.9 200.1 581.6 199.8 580.4 199.5 579.2 199.2 578 199 576.9 198.9 576.6 198.9 576.4 198.8 576.1 198.8 575.8 198.8 575.6 198.8 575.3 198.8 574.8 198.8 574.3 198.8 573.9 198.8 573 198.9 572.2 199 571.6 199.2 571 199.4 570.5 199.7 570.3 199.9 570.2 200.2 570 200.4 570 200.4Z" fill="#ebf2ff"/><path d="M723.9 234.6C724 238.2 723.9 241.8 723.7 245.3 723.5 249.8 723.1 254.3 722.6 258.8L717.2 255.9 712.7 255.8 709.4 255.7 685.3 255.1 668.8 257.8 668.1 257.9 667.2 258.1C667.6 257.7 668 257.3 668.3 256.8 668.4 256.6 668.5 256.5 668.6 256.3 668.7 256.2 668.8 256 668.8 255.9 668.9 255.7 669 255.5 669 255.3 669.1 255.1 669.1 255 669.2 254.8 669.3 254.6 669.3 254.4 669.4 254.3 669.7 253.2 669.8 251.9 669.6 250.7L668.5 243.7 669.5 243.5 706.3 237.4 709.4 236.9 723.9 234.6Z" fill="url(#paint13_linear_1378_14339)"/><path d="M723.8 245.3C723.6 249.8 723.2 254.3 722.7 258.8L717.3 255.9 712.8 255.8 709.5 255.7 685.4 255.1 668.9 257.8 668.2 257.9 667.3 258.1C667.7 257.7 668.1 257.3 668.4 256.8 668.5 256.6 668.6 256.5 668.7 256.3 668.8 256.2 668.9 256 668.9 255.9 669 255.7 669.1 255.5 669.1 255.3 669.2 255.1 669.2 255 669.3 254.8 669.4 254.6 669.4 254.4 669.5 254.3L669.9 254.2 670.6 254.1 707.4 248 710.4 247.5 723.8 245.3Z" fill="#5b9bff" opacity=".2"/><path d="M664.1 260.199 661.5 260.599C657.6 261.199 653.9 258.599 653.3 254.699L651.6 244.299C651.6 244.099 651.7 243.999 651.9 243.899L668 241.199C668.2 241.199 668.3 241.299 668.4 241.499L670.1 251.899C670.6 255.899 667.9 259.499 664.1 260.199Z" fill="url(#paint14_linear_1378_14339)"/><path d="M667.9 241.4V241.3H667.8L667.1 241.4C667.4 245.2 664.7 248.6 660.9 249.2 659.1 249.5 657.3 249.1 655.9 248.2 657.5 249.5 659.6 250.2 661.9 249.8 665.9 249.3 668.6 245.5 667.9 241.4Z" fill="#5b9bff" opacity=".2"/><path d="M670.7 250.5 669.6 243.5 668.6 243.7 669.7 250.7C670.2 253.5 669.2 256.2 667.3 258.1L668.9 257.8C670.4 255.8 671.2 253.2 670.7 250.5Z" fill="#5b9bff" opacity=".2"/><path d="M659.7 249.4C663.787 249.4 667.1 246.087 667.1 242 667.1 237.913 663.787 234.6 659.7 234.6 655.613 234.6 652.3 237.913 652.3 242 652.3 246.087 655.613 249.4 659.7 249.4Z" fill="url(#paint15_radial_1378_14339)"/><path d="M659.7 244.9C661.301 244.9 662.6 243.601 662.6 242 662.6 240.398 661.301 239.1 659.7 239.1 658.098 239.1 656.8 240.398 656.8 242 656.8 243.601 658.098 244.9 659.7 244.9Z" fill="#dfebff"/><path d="M699.2 330.1C699 330.5 698.7 331 698.4 331.4 698.5 330.7 698.5 330.2 698.5 330.2 698.8 330.2 699 330.1 699.2 330.1Z" fill="#225db7"/><path d="M687.7 348.2 673.1 355.3 663.1 356 647.6 351.2 647.5 350.2 687.7 347.6V348.2Z" fill="#3284ff"/><path d="M620.7 351.8C623.4 351.7 628.4 350.7 631.7 344.1 633.7 340.1 634.7 335 634.5 329.5 634.3 324.1 632.9 318.9 630.6 315 627.7 310.1 624.1 308.4 621.3 307.9H621.1C620.7 307.9 620.4 307.9 620.1 307.9 617 308 611.1 309.4 607.8 316.4 606.8 318.4 606.1 320.8 605.7 323.3 605.4 325.4 605.3 327.6 605.3 329.9 605.5 335.3 606.9 340.5 609.2 344.4 611.6 348.5 614.6 350.3 617.1 351.1 617.8 351.3 618.6 351.5 619.2 351.5 619.7 351.8 620.2 351.8 620.7 351.8Z" fill="#3284ff"/><path d="M687.7 348.2V347.6L647.5 350.2 647.6 351.2 687.7 348.2Z" fill="#e4e4e4"/><path d="M629.2 316.7C625.9 311 621.5 310.2 619.2 310.3 616.9 310.4 612.5 311.3 609.6 317.1 607.9 320.6 607 325.2 607.2 330 607.4 334.8 608.5 339.4 610.5 342.8 613.8 348.5 618.2 349.3 620.5 349.2 622.8 349.1 627.2 348.2 630.1 342.4 631.8 338.9 632.7 334.3 632.5 329.5 632.4 324.7 631.2 320.2 629.2 316.7Z" fill="#225db7"/><path d="M620.448 346.879C626.133 346.689 630.486 338.927 630.171 329.544 629.857 320.161 624.993 312.709 619.308 312.9 613.622 313.09 609.269 320.852 609.584 330.235 609.898 339.618 614.762 347.07 620.448 346.879Z" fill="#1d3a6a"/><path d="M620.083 334.706C621.684 334.649 622.906 332.456 622.812 329.807 622.719 327.157 621.346 325.055 619.745 325.112 618.144 325.168 616.922 327.362 617.016 330.011 617.109 332.66 618.483 334.762 620.083 334.706Z" fill="#ff627d"/><path d="M607.7 316.6C609.4 313 611.7 311 613.9 309.8 611.9 308.8 604.3 305 601.1 307.5 596.2 312.5 601.2 325.5 603.4 329.2H605.2C605.3 324.5 606.1 320 607.7 316.6Z" fill="#cbcbcb"/><path d="M619.1 351.7C619.4 351.7 619.6 351.7 619.8 351.8 619.6 351.8 619.4 351.8 619.1 351.7Z" fill="url(#paint16_linear_1378_14339)"/><path d="M700.8 327.2C700.3 328.2 699.7 329.1 699.2 330.1 699 330.5 698.7 331 698.4 331.4 695.2 337 691.6 342.4 687.8 347.6L674.4 348.4 668.6 348.8 622.2 351.7C621.9 351.7 621.5 351.8 621.2 351.8 620.8 351.8 620.3 351.8 619.8 351.8 620 351.8 620.2 351.8 620.4 351.8H620.6C623.3 351.8 628.3 350.7 631.6 344.1 633.6 340.1 634.6 335 634.4 329.5 634.2 324.1 632.8 318.9 630.5 315 627.6 310.1 624 308.4 621.2 307.9L689.3 308.5C691.6 308.6 695.6 309.6 698.2 315.5 699.8 318.8 700.6 322.9 700.8 327.2Z" fill="url(#paint17_linear_1378_14339)"/><path d="M701.7 326.9C701.7 326.9 701.3 310.1 690.2 306.1 690.2 306.1 605.9 305.5 605.7 305.5 604.1 305.5 602.8 306.1 601.8 306.8 595.7 311.2 601.1 325.3 603.3 329.1H605.1C605.1 329.1 604.5 314.8 613.8 309.7 613.8 309.7 614.8 310.2 615.3 310.5 627.1 317.1 632.2 328.9 632.2 328.9 632.3 328.9 701.7 326.9 701.7 326.9Z" fill="url(#paint18_linear_1378_14339)"/><path d="M689.7 309.6 618.6 309.3C617.2 308.3 615.9 307.6 615.9 307.6 615.9 307.6 618.2 307.6 618.7 307.6L689.8 307.9C691.1 308.4 692.4 309.6 692.4 309.6 692.4 309.6 690.2 309.6 689.7 309.6Z" fill="#ffffff" opacity=".5"/><path d="M634.4 328.8 700.8 327V327.5L634.5 330.5 634.4 328.8Z" fill="#e4e4e4"/><path d="M601.1 307.4C601.1 307.4 601.2 307.3 601.5 307.1 601.8 306.9 602.2 306.8 602.7 306.7 603.2 306.6 603.9 306.5 604.7 306.6 605.1 306.6 605.5 306.7 605.9 306.7 606.1 306.7 606.3 306.8 606.6 306.8 606.8 306.9 607.1 306.9 607.3 307 608.2 307.2 609.2 307.5 610.2 307.9 611.2 308.3 612.3 308.8 613.3 309.3 614.4 309.8 615.5 310.4 616.5 311.1 617.6 311.8 618.6 312.5 619.7 313.2 621.8 314.7 623.7 316.4 625.4 318.1 626.2 319 627 319.8 627.7 320.7 627.9 320.9 628 321.1 628.2 321.3 628.4 321.5 628.5 321.7 628.7 321.9 628.8 322 628.9 322.1 628.9 322.2 629 322.3 629 322.4 629.1 322.5 629.2 322.7 629.4 322.9 629.5 323.1 629.8 323.5 630 323.9 630.3 324.2 630.5 324.6 630.7 324.9 631 325.3 631.2 325.6 631.4 326 631.5 326.3 631.7 326.6 631.8 326.9 631.9 327.1 632.2 327.6 632.3 328 632.5 328.3 632.6 328.6 632.8 328.9 632.8 328.9H631.8C631.8 328.9 630.9 326.9 630.2 325.8 629.1 323.8 626.9 320.8 624.9 318.6 622.9 316.4 621.5 315.1 619.5 313.6 618.5 312.8 617.4 312.1 616.4 311.5 615.4 310.8 614.3 310.2 613.3 309.7 612.3 309.1 611.2 308.7 610.2 308.2 609.2 307.8 608.2 307.4 607.3 307.2 607.1 307.1 606.8 307.1 606.6 307 606.4 307 606.2 306.9 605.9 306.9 605.5 306.8 605.1 306.8 604.7 306.7 603.9 306.7 603.3 306.7 602.7 306.8 602.2 306.9 601.7 307 601.5 307.2 601.3 307.3 601.1 307.4 601.1 307.4Z" fill="#ebf2ff"/><path d="M680.7 356.9C680.5 357.2 680.3 357.4 680.1 357.7 679.8 358 679.5 358.4 679.2 358.7V356.9H680.1 680.7Z" fill="url(#paint19_linear_1378_14339)"/><path d="M679.2 358.7C676.8 361.5 674.4 364.2 671.9 366.8 671 367.8 670.1 368.7 669.1 369.7 669 369.8 668.9 369.9 668.8 370 666.4 369.2 664.7 367 664.7 364.3V363.2L664.6 355.3C664.6 355.2 664.7 355.1 664.8 355.1H665.4 669.3L674.1 355H678 678.6C678.6 355 678.6 355 678.7 355 678.8 355 678.9 355.1 678.9 355.2V357.1L679.2 358.7Z" fill="url(#paint20_linear_1378_14339)"/><path d="M678.9 354.9V354.8H678.8 678.2C678 358 675.3 360.6 672 360.6 670.4 360.6 669 360.1 667.9 359.1 669.1 360.4 670.8 361.3 672.7 361.3 676.2 361.2 679 358.4 678.9 354.9Z" fill="#5b9bff" opacity=".2"/><path d="M680.1 357.7C679.8 358 679.5 358.4 679.2 358.7V356.9H680.1V357.7Z" fill="#5b9bff" opacity=".2"/><path d="M671.9 360.6C675.38 360.6 678.2 357.779 678.2 354.3 678.2 350.821 675.38 348 671.9 348 668.421 348 665.6 350.821 665.6 354.3 665.6 357.779 668.421 360.6 671.9 360.6Z" fill="url(#paint21_radial_1378_14339)"/><path d="M671.9 356.8C673.281 356.8 674.4 355.681 674.4 354.3 674.4 352.919 673.281 351.8 671.9 351.8 670.52 351.8 669.4 352.919 669.4 354.3 669.4 355.681 670.52 356.8 671.9 356.8Z" fill="#dfebff"/><path d="M495.396 132.956C497.563 131.984 498.018 128.296 496.413 124.718 494.808 121.14 491.751 119.028 489.584 120 487.417 120.972 486.962 124.66 488.567 128.238 490.172 131.816 493.229 133.928 495.396 132.956Z" fill="#cacaca"/><path d="M599.817 234.624C601.662 234.276 602.694 231.531 602.121 228.492 601.549 225.452 599.589 223.27 597.743 223.618 595.898 223.965 594.866 226.711 595.439 229.75 596.011 232.789 597.971 234.972 599.817 234.624Z" fill="#cacaca"/><path d="M621.981 340.105C623.581 340.049 624.803 337.855 624.71 335.206 624.616 332.557 623.243 330.455 621.642 330.511 620.042 330.568 618.82 332.761 618.913 335.41 619.007 338.06 620.38 340.162 621.981 340.105Z" fill="#cacaca"/><path d="M575.5 389.8C576 389.7 576.4 389.5 576.9 389.3 577 389.3 577.1 389.2 577.2 389.2 577.7 389 578.1 388.8 578.6 388.6 578.7 388.6 578.7 388.5 578.7 388.5 579.1 388.3 579.5 388.1 579.9 387.9 580 387.9 580.1 387.8 580.1 387.8 580.3 387.7 580.4 387.6 580.6 387.5 580.7 387.4 580.8 387.3 580.9 387.3 581.1 387.2 581.2 387.1 581.3 387 581.4 386.9 581.5 386.8 581.6 386.8 581.8 386.7 581.9 386.5 582 386.4 582.1 386.3 582.2 386.3 582.2 386.2 582.4 386 582.6 385.8 582.7 385.6 582.7 385.6 582.7 385.6 582.8 385.5 583 385.3 583.2 385 583.4 384.8 583.5 384.7 583.5 384.6 583.6 384.6 583.7 384.4 583.8 384.2 584 384.1 584.1 384 584.1 383.9 584.2 383.8 584.3 383.6 584.4 383.4 584.5 383.2 584.5 383.1 584.6 383 584.6 382.9 584.7 382.6 584.8 382.3 584.9 382.1 584.9 382.1 582.8 390.8 580.5 394 577.6 398 574.1 401.6 567.6 402.9 533.9 409.7 434.2 429.5 434.2 429.5 433.5 429.6 432.8 429.7 432 429.8 431.8 429.8 431.6 429.8 431.5 429.9 431.3 429.9 431.2 429.9 431 430 430.7 430 430.3 430 430 430.1 429.7 430.1 429.3 430.1 429 430.2 428.5 430.2 428 430.2 427.4 430.2 427.1 430.2 426.8 430.2 426.5 430.2 426.4 430.2 426.4 430.2 426.3 430.2 425.6 430.2 424.8 430.1 424.1 430 424 430 423.8 430 423.7 430 423 429.9 422.3 429.8 421.7 429.7 421.4 429.7 421.2 429.6 420.9 429.6 420.3 429.5 419.8 429.4 419.2 429.3 418.9 429.2 418.6 429.2 418.3 429.1 417.7 429 417.1 428.8 416.6 428.7 416.4 428.6 416.1 428.6 415.9 428.5 415.1 428.3 414.3 428 413.5 427.8 413.4 427.8 413.3 427.7 413.2 427.7 412.5 427.5 411.8 427.2 411.1 426.9 410.8 426.8 410.6 426.7 410.3 426.6 409.8 426.4 409.2 426.2 408.7 425.9 408.4 425.8 408.2 425.7 407.9 425.5 407.4 425.2 406.8 425 406.3 424.7 406.1 424.6 405.9 424.5 405.6 424.4 404.9 424 404.2 423.6 403.5 423.2 403.4 423.2 403.4 423.1 403.4 423.1 402.8 422.7 402.1 422.3 401.5 421.9 401.3 421.8 401.1 421.6 400.9 421.5 400.5 421.2 400 420.8 399.6 420.5 399.4 420.3 399.2 420.2 399 420 398.6 419.7 398.2 419.3 397.8 418.9 397.6 418.7 397.4 418.6 397.3 418.4 396.8 417.9 396.2 417.3 395.7 416.8 395.7 416.8 242.4 242.2 190.7 183.3 185.1 176.9 183.7 173.1 184.7 167.4 185.3 164.3 188.9 155.3 188.9 155.3 187.5 159.3 188.8 164.2 193.1 169.1L400 404.3C400.5 404.9 401 405.4 401.6 405.9 401.8 406.1 402 406.2 402.1 406.4 402.5 406.8 402.9 407.1 403.3 407.5 403.5 407.7 403.7 407.9 403.9 408 404.3 408.3 404.8 408.7 405.2 409 405.4 409.2 405.6 409.3 405.8 409.4 406.4 409.8 407 410.2 407.7 410.6 407.8 410.6 407.8 410.7 407.8 410.7 408.5 411.1 409.2 411.5 409.9 411.9 410.1 412 410.3 412.1 410.6 412.2 411.1 412.5 411.6 412.7 412.2 413 412.5 413.1 412.7 413.2 413 413.4 413.5 413.6 414.1 413.9 414.6 414.1 414.9 414.2 415.1 414.3 415.4 414.4 416.1 414.7 416.8 414.9 417.5 415.2 417.6 415.2 417.7 415.3 417.8 415.3 418.6 415.6 419.4 415.8 420.2 416 420.4 416.1 420.7 416.1 420.9 416.2 421.5 416.4 422.1 416.5 422.6 416.6 422.9 416.7 423.2 416.7 423.5 416.8 424.1 416.9 424.6 417 425.2 417.1 425.5 417.1 425.7 417.2 426 417.2 426.7 417.3 427.4 417.4 428 417.5 428.1 417.5 428.3 417.5 428.4 417.5 429.2 417.6 430 417.6 430.8 417.7 431.1 417.7 431.4 417.7 431.7 417.7 432.2 417.7 432.7 417.7 433.3 417.7 433.6 417.7 434 417.7 434.3 417.6 434.8 417.6 435.3 417.5 435.8 417.5 436 417.5 436.2 417.5 436.3 417.4 437 417.3 437.8 417.2 438.5 417.1L573.2 390.2C573.5 390.1 573.7 390.1 574 390 574.5 390.1 575 390 575.5 389.8 575.5 389.8 575.5 389.9 575.5 389.8Z" fill="url(#paint22_linear_1378_14339)"/><path d="M573.3 390.4C586 387.9 589.5 377.9 580.9 368.2L374 132.6C365.5 122.9 348.2 117.1 335.5 119.6L200.8 146.5C188.1 149 184.6 159 193.2 168.7L400 404.3C408.5 414 425.8 419.8 438.5 417.3L573.3 390.4Z" fill="#6ca5ff"/><path d="M572.7 390C585.4 387.5 588.9 377.5 580.3 367.8L373.4 132.2C364.9 122.5 347.6 116.7 334.9 119.2L200.2 146.1C187.5 148.6 184 158.6 192.6 168.3L399.5 403.9C408 413.6 425.3 419.4 438 416.9L572.7 390Z" fill="url(#paint23_linear_1378_14339)"/><path d="M574.4 386.6C577.6 386 580.1 384.7 581.8 383.2 583.3 381.9 584.2 381 585 379.4 585.3 378.8 585.5 378.2 585.6 377.4 585.8 379.3 585.6 381 584.9 382.6 582.9 385 579.8 387.5 574.9 388.5 539.5 395.6 439.4 415.7 438.4 415.9 426.1 418.4 409.5 412.7 401.3 403.4L193.2 166.6C190 163 188.7 159.1 188.7 155.6 189.2 153.5 190.4 151.7 192.3 150.2 189.4 153.7 189.9 159.9 194.6 165.3L402.5 402C410.3 410.9 426.1 416.2 437.8 413.9" fill="url(#paint24_linear_1378_14339)"/><path d="M260.7 143.8C261.7 145 263.6 145.7 265 145.4L298 138.8C299.3 138.5 299.6 137.4 298.5 136.2 297.5 135 295.6 134.3 294.2 134.6L261.2 141.2C259.9 141.5 259.7 142.6 260.7 143.8Z" fill="#225db7" opacity=".25"/><path d="M261.4 141.8 294.4 135.2C295.7 134.9 297.6 135.7 298.7 136.8 298.9 137 299 137.3 299.2 137.5 299.2 137.1 299 136.7 298.6 136.2 297.6 135 295.7 134.3 294.3 134.6L261.3 141.2C260.2 141.4 259.9 142.2 260.3 143.1 260.2 142.5 260.6 142 261.4 141.8Z" fill="#1d3a6a"/><path d="M485.9 343.1C485.8 343.4 486 343.9 486.3 344.1 486.3 344.1 490.9 346.9 495.4 353.4 499.8 359.8 500.5 363.5 500.5 363.5 500.6 363.9 500.9 364.2 501.3 364.3 501.4 364.3 501.6 364.3 501.7 364.2 501.9 364.1 501.9 363.9 501.9 363.6 501.9 363.4 501.2 359.6 496.5 352.8 491.8 346 487.1 343.1 486.9 342.9 486.4 342.7 486 342.8 485.9 343.1Z" fill="url(#paint25_linear_1378_14339)"/><path d="M453.5 331.5C453.5 331.5 453.5 331.4 453.5 331.5L455.5 329.2C455.7 328.9 455.7 328.5 455.4 328.2 455.1 327.9 454.7 327.9 454.5 328.1L452.6 330.3C452.4 330.6 452.4 331 452.7 331.3 452.9 331.6 453.2 331.7 453.5 331.5Z" fill="url(#paint26_linear_1378_14339)"/><path d="M457.3 328.2C457.7 327.9 458.8 326.9 459.5 326.6 460.4 326.3 461.9 325.6 462 325.6 462 325.6 462.1 325.6 462.1 325.5 462.3 325.3 462.4 325 462.2 324.7 462 324.3 461.6 324.1 461.3 324.3 461.3 324.3 459.8 325 458.8 325.3 457.8 325.7 456.3 327 456.3 327.1 456.1 327.3 456.1 327.8 456.4 328.1 456.6 328.3 457 328.4 457.3 328.2Z" fill="url(#paint27_linear_1378_14339)"/><path d="M452.6 336.3 452.7 336.2C452.7 336.2 454.8 333.3 456.5 331.9 458.3 330.5 461.1 328.9 461.4 328.8 461.7 328.7 461.8 328.3 461.6 327.9 461.4 327.5 461 327.3 460.7 327.5 460.3 327.7 457.4 329.3 455.6 330.8 453.7 332.2 451.7 335.2 451.6 335.3 451.4 335.6 451.5 336 451.8 336.3 452.1 336.4 452.4 336.5 452.6 336.3Z" fill="url(#paint28_linear_1378_14339)"/><path d="M462.7 326.3C462.4 326.5 462.4 326.901 462.7 327.201 462.9 327.501 463.4 327.7 463.6 327.5 463.6 327.5 464.6 326.9 467 326.3 467.1 326.3 467.1 326.301 467.2 326.201 467.4 326.001 467.5 325.8 467.3 325.4 467.1 325 466.7 324.8 466.4 324.9 463.8 325.5 462.7 326.2 462.7 326.3Z" fill="url(#paint29_linear_1378_14339)"/><path d="M452.4 341.5C452.5 341.4 452.5 341.4 452.6 341.3 452.6 341.3 453.4 339 455.1 337.6 455.4 337.4 455.3 337 455.1 336.6 454.8 336.3 454.4 336.2 454.2 336.4 452.3 338 451.5 340.5 451.4 340.6 451.3 340.9 451.5 341.4 451.8 341.6 451.9 341.6 452.2 341.6 452.4 341.5Z" fill="url(#paint30_linear_1378_14339)"/><path d="M455.2 335C455 335.2 455 335.7 455.3 336 455.6 336.3 456 336.4 456.2 336.1 462.5 329.5 471.1 328.1 471.1 328.1 471.2 328.1 471.3 328.1 471.3 328 471.5 327.9 471.6 327.6 471.5 327.3 471.4 326.9 471 326.6 470.6 326.7 470.3 326.8 461.7 328.1 455.2 335Z" fill="url(#paint31_linear_1378_14339)"/><path d="M453.2 346C453.3 345.8 453.4 345.7 453.7 345 454.6 343.2 456.7 339 458.2 337.4 458.4 337.2 458.4 336.7 458.1 336.4 457.8 336.1 457.4 336 457.2 336.3 455.5 338 453.4 342.3 452.5 344.1 452.3 344.4 452.2 344.8 452.1 344.8 451.9 345.1 452 345.5 452.3 345.8 452.6 346.2 452.9 346.2 453.2 346Z" fill="url(#paint32_linear_1378_14339)"/><path d="M458.7 334.7C458.4 334.9 458.5 335.3 458.7 335.7 459 336 459.4 336.1 459.6 335.9 459.9 335.7 460.1 335.5 460.3 335.3 468.4 329.1 475 330.6 475.1 330.6 475.3 330.6 475.4 330.6 475.6 330.5 475.7 330.4 475.8 330.3 475.8 330.1 475.8 329.7 475.5 329.3 475.1 329.2 474.9 329.1 467.5 327.4 458.7 334.7Z" fill="url(#paint33_linear_1378_14339)"/><path d="M467.2 334.2C467.4 334.6 467.8 334.7 468.1 334.6 473 332.3 479.6 334.6 479.6 334.6 479.8 334.7 480 334.6 480.1 334.5 480.2 334.4 480.3 334.3 480.3 334.1 480.3 333.7 480.1 333.3 479.7 333.2 479.4 333.1 472.6 330.7 467.3 333.2 467.1 333.4 467 333.9 467.2 334.2Z" fill="url(#paint34_linear_1378_14339)"/><path d="M454.4 352C454.6 351.8 454.6 351.6 454.7 351.1 454.8 350.4 455 349.2 455.6 348 455.8 347.7 455.6 347.2 455.3 347 455 346.8 454.6 346.8 454.4 347.1 453.8 348.4 453.6 349.7 453.4 350.5 453.4 350.6 453.4 350.8 453.3 350.9 453.2 351.1 453.2 351.5 453.4 351.7 453.7 352.1 454.1 352.2 454.4 352Z" fill="url(#paint35_linear_1378_14339)"/><path d="M455.4 344.5C455.3 344.8 455.5 345.3 455.8 345.5 456 345.6 456.3 345.6 456.5 345.5 456.6 345.4 456.6 345.4 456.7 345.3 459.3 337.9 466.5 335.1 466.6 335 466.9 334.9 467 334.5 466.8 334.1 466.6 333.7 466.2 333.5 465.9 333.6 465.5 333.7 458.1 336.6 455.4 344.5Z" fill="url(#paint36_linear_1378_14339)"/><path d="M457.4 358.9C457.5 358.8 457.6 358.6 457.6 358.5 457.6 358.4 457.6 350.2 461.7 342.9 465.6 336 473.7 336.2 474.6 336.3 475 336.3 475.2 336 475.1 335.6 475 335.2 474.7 334.9 474.3 334.9 473.3 334.8 464.6 334.6 460.5 342 456.3 349.5 456.3 357.8 456.3 358.2 456.3 358.6 456.6 359 457 359.1 457.1 359 457.2 359 457.4 358.9Z" fill="url(#paint37_linear_1378_14339)"/><path d="M473.7 359.001C471.5 355.301 470.8 353.501 472.9 352.101 475.1 350.701 476.2 351.801 481.1 357.401 482.9 359.501 485.4 363.001 486.4 367.601 486.4 367.801 486.5 367.901 486.5 368.001 486.7 368.401 487.1 368.601 487.4 368.501 487.7 368.401 487.9 368.101 487.7 367.701 487.7 367.701 487.7 367.601 487.7 367.501 486.5 362.501 483.9 358.801 481.9 356.501 477.3 351.201 475.1 348.701 472 350.801 468.7 352.901 470.8 356.401 472.6 359.501 474.5 362.701 479 370.301 475.1 381.401 475 381.701 475.2 382.201 475.5 382.401 475.7 382.501 476 382.501 476.2 382.401 476.3 382.301 476.3 382.301 476.4 382.201 480.5 370.501 475.7 362.501 473.7 359.001Z" fill="url(#paint38_linear_1378_14339)"/><path d="M501.6 365.4C501.3 365.5 501.1 365.9 501.3 366.2 501.3 366.2 502.6 369.3 502.8 373.7 503 377.7 499.9 380.2 499.7 380.4 499.4 380.6 499.4 381 499.7 381.4 500 381.7 500.4 381.9 500.6 381.7 501 381.4 504.3 378.7 504.1 374.1 503.9 369.5 502.6 366.2 502.5 366.1 502.4 365.6 502 365.3 501.6 365.4Z" fill="url(#paint39_linear_1378_14339)"/><path d="M500.2 367.3C499.9 367.3 499.7 367.7 499.8 368.1 500.7 370.9 500 375.1 500 375.1 499.9 375.5 500.2 375.9 500.5 376 500.7 376.1 500.9 376.1 501.1 376 501.2 375.9 501.3 375.8 501.3 375.7 501.3 375.5 502.1 371.1 501.1 367.9 501 367.6 500.6 367.3 500.2 367.3Z" fill="url(#paint40_linear_1378_14339)"/><path d="M500 366C500.2 365.9 500.3 365.6 500.1 365.3 495.6 353 487.6 344 477.6 340 477.5 340 477.4 339.9 477.4 339.9 477.2 339.7 476.9 339.7 476.7 339.9 476.5 340 476.5 340.3 476.5 340.6 476.6 341.1 477 341.2 477.5 341.4 487.1 345.2 494.7 353.8 499 365.6 499.1 366 499.5 366.3 499.9 366.2 499.9 366.1 500 366.1 500 366Z" fill="url(#paint41_linear_1378_14339)"/><path d="M462 367.6C462.1 367.5 462.2 367.4 462.2 367.3 462.3 366.9 462.1 366.4 461.8 365.3 460.7 361.4 457.9 350.9 464.6 343.2 464.8 342.9 464.8 342.5 464.5 342.2 464.2 341.9 463.8 341.9 463.6 342.1 456.4 350.3 459.4 361.3 460.5 365.4 460.7 366 460.8 366.6 460.8 366.8 460.8 367.1 461 367.5 461.3 367.7 461.6 367.7 461.8 367.7 462 367.6Z" fill="url(#paint42_linear_1378_14339)"/><path d="M490.4 343.101C490.3 343.001 487.4 340.201 482.8 338.501 478.6 336.901 472.1 336.001 465 340.401 464.7 340.601 464.7 341.001 464.9 341.401 465.1 341.701 465.6 341.901 465.8 341.701 471.1 338.401 476.8 337.801 482.5 339.901 486.8 341.501 489.5 344.101 489.5 344.101 489.8 344.401 490.1 344.401 490.3 344.201 490.3 344.201 490.4 344.201 490.4 344.101 490.7 343.901 490.7 343.401 490.4 343.101Z" fill="url(#paint43_linear_1378_14339)"/><path d="M467.2 373.501C467.2 373.501 464.7 368.501 463.5 362.401 462 354.301 463.4 348.201 467.8 344.201 468 344.001 468 343.501 467.7 343.201 467.4 342.901 467 342.801 466.8 343.001 462.2 347.201 460.6 353.901 462.2 362.401 463.4 368.701 465.9 373.801 466 374.001 466.2 374.401 466.6 374.601 466.9 374.501 466.9 374.501 467 374.501 467 374.401 467.4 374.101 467.4 373.801 467.2 373.501Z" fill="url(#paint44_linear_1378_14339)"/><path d="M472.8 341C470.5 341 469.1 341.9 469.1 341.9 468.8 342.1 468.8 342.5 469 342.8 469.2 343.2 469.7 343.3 469.9 343.1 469.9 343.1 474.8 340.2 481.5 345.9 488.3 351.6 496.7 360.9 497.8 372.1 497.8 372.5 498.2 372.8 498.5 372.9 498.7 372.9 498.8 372.9 498.9 372.8 499 372.7 499.1 372.5 499.1 372.3 497.9 360.5 489.2 350.8 482.1 344.9 478.3 341.6 474.9 340.9 472.8 341Z" fill="url(#paint45_linear_1378_14339)"/><path d="M493.5 369.8C493.4 369.4 493 369.2 492.6 369.2 492.3 369.3 492.1 369.6 492.2 370 493.6 373.9 493.3 379.3 491.4 385.3 491.4 385.4 491.3 385.5 491.3 385.5 491.2 385.8 491.4 386.3 491.8 386.5 492 386.6 492.3 386.6 492.5 386.5 492.6 386.4 492.6 386.4 492.7 386.2 492.7 386.2 492.7 386.1 492.8 386 493.9 382.4 495.6 375.5 493.5 369.8Z" fill="url(#paint46_linear_1378_14339)"/><path d="M495 365.2C490.9 357 487.1 352.3 486.9 352.1 486.6 351.8 486.2 351.7 486 351.9 485.7 352.1 485.8 352.6 486 352.9 486 352.9 489.9 357.7 493.9 365.7 497.8 373.5 494.4 384.5 494.4 384.6 494.3 384.9 494.5 385.4 494.8 385.6 495 385.7 495.3 385.7 495.5 385.6 495.6 385.5 495.6 385.5 495.7 385.3 495.7 385.2 496.6 382.4 497 378.5 497.4 373.2 496.7 368.8 495 365.2Z" fill="url(#paint47_linear_1378_14339)"/><path d="M499.6 375.2C499.5 374.8 499.2 374.5 498.8 374.4 498.4 374.4 498.2 374.7 498.3 375.1 498.5 376.2 498.4 378.5 497.1 383 497.1 383.2 497 383.3 497 383.3 496.9 383.7 497.2 384.1 497.5 384.2 497.7 384.3 498 384.3 498.1 384.2 498.2 384.1 498.3 384 498.3 383.9 498.3 383.9 498.3 383.8 498.4 383.7 499.5 379.8 499.9 377 499.6 375.2Z" fill="url(#paint48_linear_1378_14339)"/><path d="M473.4 364.9C473.3 364.5 472.9 364.2 472.6 364.2 472.2 364.2 472 364.5 472.1 364.9 473 368.7 471.1 376.3 470.6 378 470.5 378.3 470.7 378.8 471 379 471.2 379.1 471.5 379.1 471.7 379 471.8 378.9 471.8 378.9 471.9 378.7 472.5 376.9 474.4 369.1 473.4 364.9Z" fill="url(#paint49_linear_1378_14339)"/><path d="M470.1 348.201C467.2 349.801 468.2 355.801 468.9 357.001 469.1 357.401 469.5 357.501 469.8 357.401 469.8 357.401 469.9 357.401 469.9 357.301 470.1 357.101 470.2 356.801 470 356.401 469.6 355.601 468.8 350.601 470.9 349.501 471.2 349.301 471.2 348.901 471 348.601 470.8 348.201 470.4 348.001 470.1 348.201Z" fill="url(#paint50_linear_1378_14339)"/><path d="M469.5 376.1C469.6 376 469.7 375.9 469.7 375.8 470.1 373.6 470.5 369.1 470.3 367.5 470.3 367.1 469.9 366.8 469.6 366.7 469.2 366.7 469 366.9 469 367.3 469.1 368.7 468.8 372.9 468.4 375.2 468.3 375.6 468.6 376 468.9 376.1 469.1 376.2 469.3 376.2 469.5 376.1Z" fill="url(#paint51_linear_1378_14339)"/><path d="M464.8 352.5C465.1 354.7 465.1 356.3 464.9 359.5 464.8 361.9 465.7 364.9 466.3 366.5 466.4 366.8 466.5 367.1 466.5 367.3 466.5 367.6 466.6 367.8 466.9 368 467.2 368.2 467.5 368.2 467.7 368.1L467.8 368C468 367.7 467.9 367.5 467.5 366.4 467 364.9 466.1 362.1 466.2 360 466.4 356.8 466.4 355.1 466.1 352.7 465.8 350.9 468.5 346.2 471.6 345.7 474.6 345.2 478.2 345.5 483.6 350.9 483.9 351.2 484.3 351.2 484.5 351 484.7 350.7 484.6 350.3 484.4 350 478.5 344.1 474.4 343.8 471.1 344.4 467.7 344.8 464.4 349.7 464.8 352.5Z" fill="url(#paint52_linear_1378_14339)"/><path d="M488.1 374.3C487.7 374.2 487.4 374.4 487.4 374.8 487.4 376.3 486 383.1 485.5 385.6 485.4 386 485.7 386.4 486 386.5 486.2 386.6 486.5 386.6 486.6 386.5 486.7 386.4 486.8 386.3 486.8 386.2 486.9 385.8 488.8 377.1 488.7 375.1 488.7 374.8 488.4 374.4 488.1 374.3Z" fill="url(#paint53_linear_1378_14339)"/><path d="M485 370.8C483.6 359.9 476.9 354.5 476.6 354.3 476.3 354 475.9 354.1 475.7 354.4 475.5 354.7 475.7 355.1 476 355.4 476 355.4 477.6 356.7 479.4 359.2 481 361.5 483 365.4 483.7 370.7 485 380.8 481.9 384.5 481.9 384.5 481.7 384.7 481.7 385.2 482 385.5 482.3 385.8 482.6 385.8 482.9 385.7 482.9 385.7 482.9 385.7 483 385.6 483.1 385.4 486.3 381.6 485 370.8Z" fill="url(#paint54_linear_1378_14339)"/><path d="M490.6 370.1C489.8 365.4 488.3 362.2 488.3 362.1 485.7 357.3 480.7 352.4 480.5 352.2 480.2 351.9 479.8 351.9 479.6 352.1 479.4 352.4 479.5 352.8 479.8 353.1 479.8 353.1 484.8 357.9 487.2 362.5 487.3 362.8 488.6 365.8 489.4 370.1 490.1 374.2 490.5 380.5 488 386.6 487.9 386.9 488 387.4 488.4 387.6 488.7 387.8 488.9 387.8 489.1 387.6 489.2 387.5 489.2 387.5 489.3 387.4 491.7 380.9 491.4 374.4 490.6 370.1Z" fill="url(#paint55_linear_1378_14339)"/><path d="M492.9 368C492.9 368 493 368 493 367.9 493.2 367.7 493.3 367.4 493.1 367.1 488 357.1 485.6 354.7 482.2 351.3 481.9 351 481.6 350.7 481.3 350.4 477.3 346.3 472.1 346.9 471.8 346.9 471.5 346.9 471.3 347.3 471.4 347.7 471.5 348.1 471.9 348.4 472.2 348.3 472.2 348.3 477 347.8 480.4 351.3 480.7 351.6 481 351.9 481.3 352.2 484.5 355.5 486.9 357.8 491.8 367.5 492.2 367.9 492.6 368.1 492.9 368Z" fill="url(#paint56_linear_1378_14339)"/><path d="M474.9 355.1C474.7 354.7 474.2 354.6 474 354.8 473.7 355 473.7 355.4 473.9 355.7 478.6 362.7 480.9 369.2 480.7 375 480.6 378 479.9 380.8 478.5 383.1 478.4 383.2 478.4 383.3 478.4 383.3 478.2 383.6 478.4 384.1 478.7 384.3 479 384.5 479.3 384.5 479.4 384.3 479.5 384.3 479.5 384.2 479.5 384.1 479.5 384.1 479.6 384 479.6 383.9 481.1 381.4 481.9 378.5 481.9 375.2 482.2 369.2 479.8 362.3 474.9 355.1Z" fill="url(#paint57_linear_1378_14339)"/><path d="M468.3 359.2 468.8 364C468.8 364.4 469.2 364.7 469.5 364.8 469.7 364.8 469.8 364.8 469.9 364.7 470 364.6 470.1 364.4 470.1 364.2L469.6 359.4C469.6 359 469.2 358.7 468.9 358.6 468.5 358.5 468.3 358.8 468.3 359.2Z" fill="url(#paint58_linear_1378_14339)"/><path d="M573.7 390.2C586.4 387.7 589.9 377.7 581.3 368L374.4 132.4C365.9 122.7 348.6 116.9 335.9 119.4L201.2 146.3C188.5 148.8 185 158.8 193.6 168.5L400.5 404.1C409 413.8 426.3 419.6 439 417.1L573.7 390.2Z" fill="url(#paint59_linear_1378_14339)"/><path d="M435.7 333.3 280.6 365.2C279.1 365.5 277.5 365 276.4 363.8L253.1 338.3C250.8 335.7 252.1 331.6 255.5 330.9L410.6 299C412.1 298.7 413.7 299.2 414.8 300.4L438.1 325.9C440.5 328.5 439.1 332.6 435.7 333.3Z" fill="url(#paint60_linear_1378_14339)"/><g fill="#ffffff"><path d="M403.3 311.8 270.7 339.8C269.5 340.1 268.3 339.3 268 338 267.7 336.8 268.5 335.6 269.8 335.3L402.4 307.3C403.6 307 404.8 307.8 405.1 309.1 405.3 310.3 404.5 311.5 403.3 311.8Z"/><path d="M410.8 321.1 278.2 349.1C277 349.4 275.8 348.6 275.5 347.3 275.2 346.1 276 344.9 277.3 344.6L409.9 316.6C411.1 316.3 412.3 317.1 412.6 318.4 412.8 319.6 412 320.8 410.8 321.1Z"/><path d="M354.4 343.8 286.4 357.6C285.2 357.9 284 357.1 283.7 355.8 283.4 354.6 284.2 353.4 285.5 353.1L353.5 339.3C354.7 339 355.9 339.8 356.2 341.1 356.4 342.4 355.6 343.6 354.4 343.8Z"/></g><path d="M517.2 240.6 365.9 271.8C363.7 272.3 361.4 271.5 360 269.8L303.7 205C300.6 201.4 302.5 195.8 307.1 194.8L458.4 163.6C460.6 163.1 462.9 163.9 464.3 165.6L520.6 230.3C523.7 234 521.8 239.6 517.2 240.6Z" fill="url(#paint61_linear_1378_14339)"/><path d="M434.8 197.4C446.4 207.1 447.2 222.7 436.8 232.3 426.3 241.8 408.4 241.7 396.8 232 385.2 222.3 384.4 206.7 394.8 197.1 405.3 187.5 423.2 187.7 434.8 197.4Z" fill="url(#paint62_linear_1378_14339)"/><path d="M401.2 194.701C389 201.101 385.6 215.201 393.6 226.201 401.6 237.201 418.1 241.001 430.3 234.701 442.5 228.301 445.9 214.201 437.9 203.201 429.9 192.101 413.4 188.301 401.2 194.701ZM427.7 210.101 422.7 218.801 417.7 227.501C417.1 228.501 415.4 228.501 414.6 227.501L401.7 209.801C400.9 208.701 401.7 207.401 403.1 207.401L414.5 207.501 425.9 207.601C427.3 207.701 428.3 209.101 427.7 210.101Z" fill="#ffffff" opacity=".34"/><path d="M335.8 210.2 280.7 221.7C279.9 221.9 279 221.5 278.4 220.8L254 192.2C252.7 190.6 253.1 188.2 254.8 187.9L309.9 176.4C310.7 176.2 311.6 176.6 312.2 177.3L336.5 205.9C337.9 207.5 337.5 209.9 335.8 210.2Z" fill="url(#paint63_linear_1378_14339)"/><path d="M309.2 199.8C309.2 207.4 302.9 213.3 295.2 213 287.5 212.7 281.2 206.4 281.2 198.8 281.2 191.2 287.5 185.3 295.2 185.6 302.9 185.9 309.2 192.2 309.2 199.8Z" fill="url(#paint64_linear_1378_14339)"/><path d="M307.6 199.8C307.6 206.5 302 211.8 295.2 211.6 288.3 211.4 282.8 205.7 282.8 199 282.8 192.3 288.4 187 295.2 187.2 302.1 187.4 307.6 193 307.6 199.8Z" fill="url(#paint65_linear_1378_14339)"/><path d="M290.9 199.8C289.1 200.3 287.3 199.2 286.8 197.4 286.3 195.6 287.4 193.8 289.1 193.3 290.9 192.8 292.7 193.9 293.2 195.6 293.8 197.4 292.7 199.3 290.9 199.8ZM299 190.7 293.6 207.6 291.4 208.2 296.8 191.3 299 190.7ZM289.7 195.1C288.9 195.3 288.5 196.1 288.7 196.9 288.9 197.7 289.7 198.1 290.5 197.9 291.3 197.7 291.7 196.9 291.5 196.1 291.3 195.4 290.4 194.9 289.7 195.1ZM301.4 205.6C299.6 206.1 297.8 205 297.3 203.3 296.8 201.5 297.9 199.7 299.7 199.2 301.5 198.7 303.3 199.8 303.8 201.6 304.2 203.2 303.1 205.1 301.4 205.6ZM300.1 201C299.3 201.2 298.9 202 299.1 202.8 299.3 203.6 300.1 204 300.9 203.8 301.7 203.6 302.1 202.8 301.9 202 301.7 201.2 300.9 200.8 300.1 201Z" fill="url(#paint66_linear_1378_14339)"/><path d="M411 233.7C412 233.6 561.6 219.4 594.6 217.5L596.7 228.6 420.3 289.3 411 233.7Z" fill="url(#paint67_linear_1378_14339)"/><path d="M301.6 173.8C302.7 173.5 486.8 117.5 486.8 117.5L491.6 128.2 336.7 217 301.6 173.8Z" fill="url(#paint68_linear_1378_14339)"/><path d="M462.1 325.5C463.1 325.5 606.8 324.7 619.3 325 619.9 325 620.4 334.5 620.4 334.5L485.4 385.6 462.1 325.5Z" fill="url(#paint69_linear_1378_14339)"/></g></svg>