<svg fill="none" height="495" viewBox="0 0 945 495" width="945" xmlns="http://www.w3.org/2000/svg" xmlns:xlink="http://www.w3.org/1999/xlink"><filter id="filter0_f_605_45436" color-interpolation-filters="sRGB" filterUnits="userSpaceOnUse" height="128.771" width="202.731" x="761.814" y="226.159"><feFlood flood-opacity="0" result="BackgroundImageFix"/><feBlend in="SourceGraphic" in2="BackgroundImageFix" mode="normal" result="shape"/><feGaussianBlur result="effect1_foregroundBlur_605_45436" stdDeviation="1.09426"/></filter><filter id="filter1_f_605_45436" color-interpolation-filters="sRGB" filterUnits="userSpaceOnUse" height="187.486" width="289.431" x="711.454" y="279.878"><feFlood flood-opacity="0" result="BackgroundImageFix"/><feBlend in="SourceGraphic" in2="BackgroundImageFix" mode="normal" result="shape"/><feGaussianBlur result="effect1_foregroundBlur_605_45436" stdDeviation="3.28279"/></filter><linearGradient id="paint0_linear_605_45436" gradientUnits="userSpaceOnUse" x1="482.737" x2="535.5" y1="326.419" y2="153.956"><stop offset=".00127618" stop-color="#4687ff"/><stop offset=".9992" stop-color="#77a7ff"/></linearGradient><linearGradient id="lg1"><stop offset="0" stop-color="#f9dc5c"/><stop offset="1" stop-color="#fff5c8"/></linearGradient><linearGradient id="paint1_linear_605_45436" gradientUnits="userSpaceOnUse" x1="481.071" x2="481.071" xlink:href="#lg1" y1="88.263" y2="44.8755"/><linearGradient id="paint2_linear_605_45436" gradientUnits="userSpaceOnUse" x1="481.016" x2="481.016" xlink:href="#lg1" y1="423.568" y2="380.048"/><linearGradient id="paint3_linear_605_45436" gradientUnits="userSpaceOnUse" x1="313.347" x2="313.347" xlink:href="#lg1" y1="255.673" y2="212.135"/><linearGradient id="paint4_linear_605_45436" gradientUnits="userSpaceOnUse" x1="648.64" x2="648.64" xlink:href="#lg1" y1="255.673" y2="212.135"/><linearGradient id="paint5_linear_605_45436" gradientUnits="userSpaceOnUse" x1="397.405" x2="397.405" xlink:href="#lg1" y1="110.594" y2="67.0709"/><linearGradient id="paint6_linear_605_45436" gradientUnits="userSpaceOnUse" x1="564.609" x2="564.609" xlink:href="#lg1" y1="401.223" y2="357.707"/><linearGradient id="paint7_linear_605_45436" gradientUnits="userSpaceOnUse" x1="335.475" x2="335.557" xlink:href="#lg1" y1="312.638" y2="295.756"/><linearGradient id="paint8_linear_605_45436" gradientUnits="userSpaceOnUse" x1="629.075" x2="629.075" xlink:href="#lg1" y1="170.186" y2="126.56"/><linearGradient id="paint9_linear_605_45436" gradientUnits="userSpaceOnUse" x1="567.717" x2="567.717" xlink:href="#lg1" y1="112.429" y2="68.8914"/><linearGradient id="paint10_linear_605_45436" gradientUnits="userSpaceOnUse" x1="394.28" x2="394.28" xlink:href="#lg1" y1="399.388" y2="355.85"/><linearGradient id="paint11_linear_605_45436" gradientUnits="userSpaceOnUse" x1="337.653" x2="337.653" xlink:href="#lg1" y1="169.005" y2="125.465"/><linearGradient id="paint12_linear_605_45436" gradientUnits="userSpaceOnUse" x1="624.487" x2="624.613" xlink:href="#lg1" y1="313.425" y2="298.902"/><radialGradient id="paint13_radial_605_45436" cx="0" cy="0" gradientTransform="matrix(-275.661 0 0 -16.3217 495.918 472.65)" gradientUnits="userSpaceOnUse" r="1"><stop offset="0" stop-color="#282d3e"/><stop offset="1" stop-color="#305eb2" stop-opacity="0"/></radialGradient><linearGradient id="lg2"><stop offset="0" stop-color="#bdd4ff"/><stop offset="1" stop-color="#edf3ff"/></linearGradient><linearGradient id="paint14_linear_605_45436" gradientUnits="userSpaceOnUse" x1="767.161" x2="758.977" xlink:href="#lg2" y1="92.3994" y2="77.5001"/><linearGradient id="lg3"><stop offset="0" stop-color="#bdd4ff"/><stop offset="1" stop-color="#77a7ff"/></linearGradient><linearGradient id="paint15_linear_605_45436" gradientUnits="userSpaceOnUse" x1="772.295" x2="757.956" xlink:href="#lg3" y1="77.8353" y2="137.474"/><linearGradient id="lg4"><stop offset="0" stop-color="#77a7ff"/><stop offset="1" stop-color="#4687ff"/></linearGradient><linearGradient id="paint16_linear_605_45436" gradientUnits="userSpaceOnUse" x1="635.56" x2="716.88" xlink:href="#lg4" y1="116.729" y2="116.729"/><linearGradient id="paint17_linear_605_45436" gradientUnits="userSpaceOnUse" x1="656.209" x2="666.597" xlink:href="#lg3" y1="97.4266" y2="105.847"/><linearGradient id="lg5"><stop offset="0" stop-color="#edf3ff"/><stop offset="1" stop-color="#bdd4ff"/></linearGradient><linearGradient id="paint18_linear_605_45436" gradientUnits="userSpaceOnUse" x1="652.411" x2="670.883" xlink:href="#lg5" y1="277.423" y2="15.3973"/><linearGradient id="paint19_linear_605_45436" gradientUnits="userSpaceOnUse" x1="680.279" x2="686.784" xlink:href="#lg5" y1="107.143" y2="130.751"/><linearGradient id="paint20_linear_605_45436" gradientUnits="userSpaceOnUse" x1="673.738" x2="682.762" xlink:href="#lg5" y1="94.9053" y2="110.749"/><linearGradient id="lg6"><stop offset="0" stop-color="#f86e80"/><stop offset=".9987" stop-color="#ffd4d8"/></linearGradient><linearGradient id="paint21_linear_605_45436" gradientUnits="userSpaceOnUse" x1="668.001" x2="635.983" xlink:href="#lg6" y1="120.876" y2="102.206"/><linearGradient id="paint22_linear_605_45436" gradientUnits="userSpaceOnUse" x1="705.725" x2="623.313" xlink:href="#lg6" y1="153.334" y2="118.783"/><linearGradient id="paint23_linear_605_45436" gradientUnits="userSpaceOnUse" x1="713.76" x2="664.988" xlink:href="#lg6" y1="157.373" y2="126.967"/><linearGradient id="paint24_linear_605_45436" gradientUnits="userSpaceOnUse" x1="697.47" x2="706.126" xlink:href="#lg4" y1="110.389" y2="137.303"/><linearGradient id="paint25_linear_605_45436" gradientUnits="userSpaceOnUse" x1="683.507" x2="694.052" xlink:href="#lg3" y1="96.6758" y2="108.008"/><linearGradient id="paint26_linear_605_45436" gradientUnits="userSpaceOnUse" x1="700.637" x2="663.179" xlink:href="#lg5" y1="68.2661" y2="134.369"/><linearGradient id="paint27_linear_605_45436" gradientUnits="userSpaceOnUse" x1="705.719" x2="714.323" xlink:href="#lg5" y1="110.079" y2="137.674"/><linearGradient id="paint28_linear_605_45436" gradientUnits="userSpaceOnUse" x1="685.286" x2="696.96" xlink:href="#lg5" y1="95.3557" y2="105.874"/><linearGradient id="lg7"><stop offset="0" stop-color="#7f7aee"/><stop offset="1" stop-color="#dddcfb"/></linearGradient><linearGradient id="paint29_linear_605_45436" gradientUnits="userSpaceOnUse" x1="717.586" x2="717.122" xlink:href="#lg7" y1="113.019" y2="55.9486"/><linearGradient id="paint30_linear_605_45436" gradientUnits="userSpaceOnUse" x1="721.196" x2="721.196" xlink:href="#lg7" y1="181.669" y2="56.4711"/><linearGradient id="paint31_linear_605_45436" gradientUnits="userSpaceOnUse" x1="706.829" x2="698.057" xlink:href="#lg7" y1="119.488" y2="106.487"/><linearGradient id="lg8"><stop offset="0" stop-color="#27ae56"/><stop offset="1" stop-color="#d9e9de"/></linearGradient><linearGradient id="paint32_linear_605_45436" gradientUnits="userSpaceOnUse" x1="725.898" x2="725.898" xlink:href="#lg8" y1="182.488" y2="56.7845"/><linearGradient id="paint33_linear_605_45436" gradientUnits="userSpaceOnUse" x1="748.261" x2="698.884" xlink:href="#lg8" y1="133.825" y2="89.6456"/><linearGradient id="paint34_linear_605_45436" gradientUnits="userSpaceOnUse" x1="715.658" x2="709.279" xlink:href="#lg8" y1="120.316" y2="113.035"/><linearGradient id="paint35_linear_605_45436" gradientUnits="userSpaceOnUse" x1="745.013" x2="683.49" xlink:href="#lg5" y1="37.0203" y2="137.885"/><linearGradient id="paint36_linear_605_45436" gradientUnits="userSpaceOnUse" x1="735.347" x2="743.894" xlink:href="#lg5" y1="113.202" y2="140.697"/><linearGradient id="paint37_linear_605_45436" gradientUnits="userSpaceOnUse" x1="715.126" x2="683.095" xlink:href="#lg6" y1="126.678" y2="108.016"/><linearGradient id="paint38_linear_605_45436" gradientUnits="userSpaceOnUse" x1="752.809" x2="670.302" xlink:href="#lg6" y1="159.163" y2="124.557"/><linearGradient id="paint39_linear_605_45436" gradientUnits="userSpaceOnUse" x1="760.886" x2="712.114" xlink:href="#lg6" y1="163.12" y2="132.714"/><linearGradient id="paint40_linear_605_45436" gradientUnits="userSpaceOnUse" x1="744.756" x2="753.421" xlink:href="#lg4" y1="110.389" y2="137.296"/><linearGradient id="paint41_linear_605_45436" gradientUnits="userSpaceOnUse" x1="754.758" x2="788.542" xlink:href="#lg3" y1="87.047" y2="115.634"/><linearGradient id="paint42_linear_605_45436" gradientUnits="userSpaceOnUse" x1="744.081" x2="727.503" xlink:href="#lg5" y1="66.395" y2="115.92"/><linearGradient id="paint43_linear_605_45436" gradientUnits="userSpaceOnUse" x1="747.612" x2="750.86" xlink:href="#lg5" y1="106.538" y2="140.972"/><linearGradient id="paint44_linear_605_45436" gradientUnits="userSpaceOnUse" x1="741.114" x2="746.883" y1="97.4419" y2="120.36"><stop offset="0" stop-color="#ffffff"/><stop offset="1" stop-color="#edf3ff"/></linearGradient><linearGradient id="paint45_linear_605_45436" gradientUnits="userSpaceOnUse" x1="729.992" x2="773.15" xlink:href="#lg3" y1="125.39" y2="124.426"/><linearGradient id="paint46_linear_605_45436" gradientUnits="userSpaceOnUse" x1="732.846" x2="773.639" xlink:href="#lg3" y1="149.931" y2="149.041"/><linearGradient id="paint47_linear_605_45436" gradientUnits="userSpaceOnUse" x1="718.076" x2="754.05" xlink:href="#lg3" y1="129.54" y2="128.393"/><linearGradient id="paint48_linear_605_45436" gradientUnits="userSpaceOnUse" x1="725.49" x2="743.927" xlink:href="#lg3" y1="133.47" y2="132.851"/><linearGradient id="paint49_linear_605_45436" gradientUnits="userSpaceOnUse" x1="725.344" x2="743.782" xlink:href="#lg3" y1="129.133" y2="128.514"/><linearGradient id="paint50_linear_605_45436" gradientUnits="userSpaceOnUse" x1="725.242" x2="743.679" xlink:href="#lg3" y1="126.082" y2="125.462"/><linearGradient id="paint51_linear_605_45436" gradientUnits="userSpaceOnUse" x1="725.446" x2="743.883" xlink:href="#lg3" y1="132.178" y2="131.558"/><linearGradient id="paint52_linear_605_45436" gradientUnits="userSpaceOnUse" x1="725.198" x2="743.636" xlink:href="#lg3" y1="124.79" y2="124.171"/><linearGradient id="paint53_linear_605_45436" gradientUnits="userSpaceOnUse" x1="720.701" x2="706.431" xlink:href="#lg3" y1="153.467" y2="212.645"/><linearGradient id="paint54_linear_605_45436" gradientUnits="userSpaceOnUse" x1="795.821" x2="781.551" xlink:href="#lg3" y1="171.582" y2="230.759"/><linearGradient id="paint55_linear_605_45436" gradientUnits="userSpaceOnUse" x1="830.823" x2="791.848" xlink:href="#lg2" y1="176.951" y2="40.2746"/><radialGradient id="paint56_radial_605_45436" cx="0" cy="0" gradientTransform="matrix(5.4143853 -6.49670234 4.22394621 3.5202586 817.977 120.106)" gradientUnits="userSpaceOnUse" r="1"><stop offset="0" stop-color="#77a7ff"/><stop offset="1" stop-color="#bdd4ff" stop-opacity="0"/></radialGradient><linearGradient id="paint57_linear_605_45436" gradientUnits="userSpaceOnUse" x1="817.456" x2="831.908" xlink:href="#lg3" y1="114.105" y2="120.861"/><linearGradient id="paint58_linear_605_45436" gradientUnits="userSpaceOnUse" x1="825.533" x2="824.999" xlink:href="#lg2" y1="134.839" y2="120.958"/><linearGradient id="lg9"><stop offset="0" stop-color="#ffffff"/><stop offset="1" stop-color="#e6e6e6"/></linearGradient><linearGradient id="paint59_linear_605_45436" gradientUnits="userSpaceOnUse" x1="829.688" x2="833.664" xlink:href="#lg9" y1="124.133" y2="133.882"/><linearGradient id="paint60_linear_605_45436" gradientUnits="userSpaceOnUse" x1="827.809" x2="827.275" xlink:href="#lg2" y1="134.751" y2="120.87"/><linearGradient id="paint61_linear_605_45436" gradientUnits="userSpaceOnUse" x1="830.915" x2="834.891" xlink:href="#lg9" y1="123.633" y2="133.382"/><linearGradient id="paint62_linear_605_45436" gradientUnits="userSpaceOnUse" x1="117.354" x2="114.703" y1="114.081" y2="225.099"><stop offset="0" stop-color="#dee9ff"/><stop offset="1" stop-color="#bdd4ff"/></linearGradient><linearGradient id="paint63_linear_605_45436" gradientUnits="userSpaceOnUse" x1="119.262" x2="111.924" y1="215.636" y2="167.297"><stop offset=".1209" stop-color="#3669c7" stop-opacity="0"/><stop offset=".6593" stop-color="#4b5b94" stop-opacity=".4899"/><stop offset="1" stop-color="#565378" stop-opacity=".8"/></linearGradient><linearGradient id="paint64_linear_605_45436" gradientUnits="userSpaceOnUse" x1="93.6808" x2="94.5417" xlink:href="#lg3" y1="261.245" y2="217.37"/><linearGradient id="lg10"><stop offset="0" stop-color="#edf3ff"/><stop offset="1" stop-color="#ffffff"/></linearGradient><linearGradient id="paint65_linear_605_45436" gradientUnits="userSpaceOnUse" x1="123.559" x2="123.559" xlink:href="#lg10" y1="253.367" y2="227.904"/><linearGradient id="paint66_linear_605_45436" gradientUnits="userSpaceOnUse" x1="101.994" x2="99.6849" xlink:href="#lg3" y1="231.226" y2="202.592"/><linearGradient id="paint67_linear_605_45436" gradientUnits="userSpaceOnUse" x1="107.679" x2="134.721" y1="116.555" y2="228.162"><stop offset=".472143" stop-color="#bdd4ff"/><stop offset="1" stop-color="#77a7ff"/></linearGradient><linearGradient id="paint68_linear_605_45436" gradientUnits="userSpaceOnUse" x1="117.616" x2="117.616" xlink:href="#lg10" y1="229.605" y2="40.9501"/><linearGradient id="paint69_linear_605_45436" gradientUnits="userSpaceOnUse" x1="100.449" x2="100.449" y1="222.557" y2="48.0926"><stop offset="0" stop-color="#77a7ff"/><stop offset="1" stop-color="#bdd4ff"/></linearGradient><linearGradient id="paint70_linear_605_45436" gradientUnits="userSpaceOnUse" x1="127.567" x2="127.567" xlink:href="#lg10" y1="179.666" y2="135.409"/><linearGradient id="paint71_linear_605_45436" gradientUnits="userSpaceOnUse" x1="150.204" x2="150.204" xlink:href="#lg10" y1="136.09" y2="84.098"/><linearGradient id="paint72_linear_605_45436" gradientUnits="userSpaceOnUse" x1="76.0198" x2="76.0198" xlink:href="#lg10" y1="125.337" y2="94.9447"/><radialGradient id="paint73_radial_605_45436" cx="0" cy="0" gradientTransform="matrix(-7.99572895 45.43227211 -74.30346391 -13.07683569 82.5971 97.2939)" gradientUnits="userSpaceOnUse" r="1" xlink:href="#lg4"/><linearGradient id="paint74_linear_605_45436" gradientUnits="userSpaceOnUse" x1="127.092" x2="143.254" xlink:href="#lg3" y1="345.094" y2="338.716"/><linearGradient id="paint75_linear_605_45436" gradientUnits="userSpaceOnUse" x1="132.931" x2="153.718" xlink:href="#lg5" y1="316.081" y2="362.898"/><linearGradient id="paint76_linear_605_45436" gradientUnits="userSpaceOnUse" x1="155.549" x2="165.04" xlink:href="#lg3" y1="383.704" y2="431.671"/><linearGradient id="paint77_linear_605_45436" gradientUnits="userSpaceOnUse" x1="161.828" x2="172.075" xlink:href="#lg5" y1="384.234" y2="446.501"/><linearGradient id="paint78_linear_605_45436" gradientUnits="userSpaceOnUse" x1="167.011" x2="156.184" xlink:href="#lg3" y1="403.15" y2="371.611"/><linearGradient id="lg11"><stop offset="0" stop-color="#f6cfbe"/><stop offset="1" stop-color="#ffe8e1"/></linearGradient><linearGradient id="paint79_linear_605_45436" gradientUnits="userSpaceOnUse" x1="618.743" x2="613.408" xlink:href="#lg11" y1="329.898" y2="294.706"/><linearGradient id="paint80_linear_605_45436" gradientUnits="userSpaceOnUse" x1="387.015" x2="382.933" xlink:href="#lg11" y1="348.05" y2="279.888"/><linearGradient id="lg12"><stop offset="0" stop-color="#0e1b33"/><stop offset="1" stop-color="#393944"/></linearGradient><linearGradient id="paint81_linear_605_45436" gradientUnits="userSpaceOnUse" x1="558.053" x2="512.899" xlink:href="#lg12" y1="169.404" y2="104.93"/><linearGradient id="paint82_linear_605_45436" gradientUnits="userSpaceOnUse" x1="525.843" x2="455.076" xlink:href="#lg12" y1="190.559" y2="85.1278"/><linearGradient id="paint83_linear_605_45436" gradientUnits="userSpaceOnUse" x1="549.884" x2="538.555" xlink:href="#lg12" y1="399.893" y2="298.065"/><linearGradient id="paint84_linear_605_45436" gradientUnits="userSpaceOnUse" x1="411.989" x2="411.989" xlink:href="#lg10" y1="254.645" y2="172.814"/><linearGradient id="paint85_linear_605_45436" gradientUnits="userSpaceOnUse" x1="535.169" x2="535.169" xlink:href="#lg10" y1="248.297" y2="164.619"/><linearGradient id="paint86_linear_605_45436" gradientUnits="userSpaceOnUse" x1="477.083" x2="477.083" xlink:href="#lg10" y1="350.621" y2="156.713"/><linearGradient id="lg13"><stop offset="0" stop-color="#ffe8e1"/><stop offset=".4827" stop-color="#f6cfbe"/></linearGradient><linearGradient id="paint87_linear_605_45436" gradientUnits="userSpaceOnUse" x1="557.29" x2="467.369" xlink:href="#lg13" y1="416.313" y2="410.605"/><linearGradient id="paint88_linear_605_45436" gradientUnits="userSpaceOnUse" x1="544.903" x2="534.576" xlink:href="#lg12" y1="428.126" y2="396.854"/><linearGradient id="paint89_linear_605_45436" gradientUnits="userSpaceOnUse" x1="646.016" x2="516.796" xlink:href="#lg12" y1="338.953" y2="371.521"/><linearGradient id="paint90_linear_605_45436" gradientUnits="userSpaceOnUse" x1="487.247" x2="547.072" xlink:href="#lg13" y1="414.585" y2="396.704"/><linearGradient id="paint91_linear_605_45436" gradientUnits="userSpaceOnUse" x1="494.745" x2="410.273" xlink:href="#lg13" y1="411.071" y2="405.709"/><linearGradient id="paint92_linear_605_45436" gradientUnits="userSpaceOnUse" x1="397.746" x2="425.854" xlink:href="#lg12" y1="417.529" y2="365.802"/><linearGradient id="paint93_linear_605_45436" gradientUnits="userSpaceOnUse" x1="485.374" x2="546.55" xlink:href="#lg13" y1="406.584" y2="388.299"/><linearGradient id="paint94_linear_605_45436" gradientUnits="userSpaceOnUse" x1="453.293" x2="451.957" xlink:href="#lg12" y1="437.605" y2="410.613"/><linearGradient id="paint95_linear_605_45436" gradientUnits="userSpaceOnUse" x1="474.017" x2="489.362" y1="159.592" y2="145.793"><stop offset="0" stop-color="#ffe8e1"/><stop offset=".998048" stop-color="#f6cfbe"/></linearGradient><linearGradient id="paint96_linear_605_45436" gradientUnits="userSpaceOnUse" x1="480.398" x2="445.629" y1="117.943" y2="87.5593"><stop offset="0" stop-color="#ffe8e1"/><stop offset=".99951" stop-color="#f6cfbe"/></linearGradient><linearGradient id="paint97_linear_605_45436" gradientUnits="userSpaceOnUse" x1="472.699" x2="448.689" xlink:href="#lg12" y1="154.776" y2="97.2458"/><linearGradient id="paint98_linear_605_45436" gradientUnits="userSpaceOnUse" x1="677.461" x2="662.973" xlink:href="#lg11" y1="300.491" y2="279.89"/><linearGradient id="paint99_linear_605_45436" gradientUnits="userSpaceOnUse" x1="686.191" x2="696.459" xlink:href="#lg11" y1="295.709" y2="283.52"/><linearGradient id="paint100_linear_605_45436" gradientUnits="userSpaceOnUse" x1="685.207" x2="695.503" xlink:href="#lg11" y1="298.374" y2="287.842"/><linearGradient id="paint101_linear_605_45436" gradientUnits="userSpaceOnUse" x1="681.868" x2="690.686" xlink:href="#lg11" y1="301.462" y2="293.391"/><linearGradient id="paint102_linear_605_45436" gradientUnits="userSpaceOnUse" x1="282.431" x2="296.92" xlink:href="#lg11" y1="300.491" y2="279.89"/><linearGradient id="paint103_linear_605_45436" gradientUnits="userSpaceOnUse" x1="273.702" x2="263.433" xlink:href="#lg11" y1="295.709" y2="283.52"/><linearGradient id="paint104_linear_605_45436" gradientUnits="userSpaceOnUse" x1="274.686" x2="264.39" xlink:href="#lg11" y1="298.374" y2="287.842"/><linearGradient id="paint105_linear_605_45436" gradientUnits="userSpaceOnUse" x1="278.024" x2="269.207" xlink:href="#lg11" y1="301.462" y2="293.391"/><linearGradient id="paint106_linear_605_45436" gradientUnits="userSpaceOnUse" x1="870.73" x2="896.492" xlink:href="#lg2" y1="332.848" y2="253.166"/><linearGradient id="paint107_linear_605_45436" gradientUnits="userSpaceOnUse" x1="798.673" x2="807.442" xlink:href="#lg2" y1="332.687" y2="320.303"/><linearGradient id="paint108_linear_605_45436" gradientUnits="userSpaceOnUse" x1="835.678" x2="877.572" y1="459.078" y2="258.781"><stop offset="0" stop-color="#bdd4ff"/><stop offset=".485681" stop-color="#edf3ff"/><stop offset="1" stop-color="#ffffff"/></linearGradient><linearGradient id="paint109_linear_605_45436" gradientUnits="userSpaceOnUse" x1="816.469" x2="816.783" xlink:href="#lg2" y1="478.964" y2="436.102"/><clipPath id="clip0_605_45436"><path d="M0 0H945V495H0Z"/></clipPath><g clip-path="url(#clip0_605_45436)"><path d="M0 0H945V495H0Z" fill="#305eb2"/><path d="M482.933 446.91C598.95 446.91 693 352.86 693 236.843 693 120.826 598.95 26.7751 482.933 26.7751 366.916 26.7751 272.865 120.826 272.865 236.843 272.865 352.86 366.916 446.91 482.933 446.91Z" fill="url(#paint0_linear_605_45436)"/><path d="M483.488 46.3757 488.411 56.3673C488.606 56.7587 488.893 57.097 489.247 57.3532 489.601 57.6095 490.013 57.7761 490.445 57.8388L501.454 59.4374C501.954 59.5092 502.424 59.7195 502.811 60.0444 503.197 60.3693 503.485 60.7959 503.642 61.276 503.799 61.756 503.819 62.2704 503.698 62.7609 503.578 63.2515 503.323 63.6986 502.962 64.0517L494.987 71.8088C494.673 72.1151 494.438 72.4941 494.305 72.9124 494.172 73.3306 494.144 73.7752 494.224 74.2068L496.041 85.1068C496.129 85.6043 496.074 86.1165 495.885 86.5847 495.695 87.0529 495.377 87.4582 494.967 87.754 494.558 88.0498 494.073 88.2242 493.569 88.2572 493.065 88.2903 492.561 88.1806 492.117 87.9408L482.27 82.7633C481.882 82.5669 481.452 82.4646 481.017 82.4646 480.582 82.4646 480.152 82.5669 479.763 82.7633L469.917 87.9408C469.472 88.1806 468.969 88.2903 468.465 88.2572 467.961 88.2242 467.476 88.0498 467.067 87.754 466.657 87.4582 466.339 87.0529 466.149 86.5847 465.959 86.1165 465.905 85.6043 465.993 85.1068L467.81 74.2068C467.89 73.7752 467.862 73.3306 467.729 72.9124 467.595 72.4941 467.361 72.1151 467.047 71.8088L459.181 64.0699C458.82 63.7167 458.565 63.2696 458.444 62.7791 458.324 62.2886 458.344 61.7742 458.501 61.2941 458.657 60.8141 458.946 60.3875 459.332 60.0626 459.719 59.7377 460.189 59.5274 460.689 59.4556L471.698 57.8569C472.13 57.7943 472.541 57.6277 472.896 57.3714 473.25 57.1151 473.537 56.7768 473.732 56.3855L478.655 46.3938C478.875 45.9404 479.217 45.5576 479.643 45.2892 480.069 45.0207 480.562 44.8774 481.066 44.8755 481.569 44.8736 482.064 45.0132 482.492 45.2785 482.92 45.5437 483.265 45.9239 483.488 46.3757V46.3757Z" fill="url(#paint1_linear_605_45436)"/><path d="M483.487 381.676 488.41 391.649C488.605 392.042 488.892 392.383 489.246 392.642 489.6 392.901 490.011 393.072 490.445 393.139L501.453 394.738C501.953 394.81 502.423 395.02 502.81 395.345 503.197 395.67 503.485 396.096 503.641 396.576 503.798 397.056 503.818 397.571 503.698 398.061 503.577 398.552 503.322 398.999 502.961 399.352L494.986 407.109C494.67 407.414 494.435 407.793 494.302 408.212 494.169 408.63 494.142 409.076 494.223 409.507L496.04 420.407C496.124 420.904 496.068 421.415 495.878 421.882 495.688 422.35 495.371 422.754 494.963 423.051 494.555 423.347 494.072 423.524 493.569 423.561 493.066 423.598 492.563 423.493 492.116 423.259L482.27 418.082C481.884 417.877 481.453 417.769 481.016 417.769 480.579 417.769 480.149 417.877 479.763 418.082L469.916 423.259C469.469 423.493 468.966 423.598 468.463 423.561 467.96 423.524 467.477 423.347 467.069 423.051 466.661 422.754 466.344 422.35 466.154 421.882 465.964 421.415 465.908 420.904 465.992 420.407L467.809 409.507C467.89 409.076 467.863 408.63 467.73 408.212 467.597 407.793 467.362 407.414 467.046 407.109L459.071 399.352C458.71 398.999 458.455 398.552 458.335 398.061 458.214 397.571 458.234 397.056 458.391 396.576 458.548 396.096 458.836 395.67 459.222 395.345 459.609 395.02 460.079 394.81 460.579 394.738L471.588 393.139C472.021 393.072 472.432 392.901 472.786 392.642 473.14 392.383 473.427 392.042 473.622 391.649L478.545 381.676C478.753 381.193 479.098 380.781 479.537 380.491 479.976 380.202 480.49 380.048 481.016 380.048 481.542 380.048 482.056 380.202 482.496 380.491 482.935 380.781 483.279 381.193 483.487 381.676Z" fill="url(#paint2_linear_605_45436)"/><path d="M315.845 213.799 320.768 223.772C320.963 224.164 321.25 224.502 321.605 224.758 321.959 225.014 322.37 225.181 322.803 225.244L333.812 226.842C334.31 226.917 334.778 227.129 335.162 227.455 335.547 227.781 335.832 228.208 335.987 228.688 336.142 229.167 336.16 229.681 336.039 230.17 335.918 230.659 335.662 231.105 335.302 231.457L327.345 239.232C327.032 239.536 326.798 239.912 326.662 240.326 326.526 240.74 326.492 241.181 326.564 241.612L328.38 252.512C328.465 253.009 328.409 253.52 328.219 253.987 328.028 254.454 327.711 254.859 327.303 255.155 326.895 255.452 326.412 255.629 325.909 255.665 325.406 255.702 324.903 255.598 324.456 255.364L314.61 250.186C314.221 249.981 313.787 249.874 313.347 249.874 312.907 249.874 312.474 249.981 312.085 250.186L302.239 255.364C301.792 255.598 301.288 255.702 300.785 255.665 300.282 255.629 299.8 255.452 299.392 255.155 298.984 254.859 298.666 254.454 298.476 253.987 298.286 253.52 298.23 253.009 298.315 252.512L300.131 241.612C300.202 241.181 300.168 240.74 300.032 240.326 299.896 239.912 299.662 239.536 299.35 239.232L291.393 231.457C291.032 231.105 290.777 230.659 290.656 230.17 290.535 229.681 290.553 229.167 290.708 228.688 290.862 228.208 291.148 227.781 291.532 227.455 291.917 227.129 292.384 226.917 292.883 226.842L303.892 225.244C304.325 225.182 304.737 225.016 305.091 224.76 305.446 224.504 305.733 224.164 305.926 223.772L310.849 213.799C311.055 213.306 311.402 212.885 311.847 212.589 312.291 212.293 312.813 212.135 313.347 212.135 313.881 212.135 314.404 212.293 314.848 212.589 315.293 212.885 315.64 213.306 315.845 213.799V213.799Z" fill="url(#paint3_linear_605_45436)"/><path d="M651.146 213.799 656.069 223.772C656.261 224.166 656.547 224.507 656.902 224.764 657.257 225.021 657.67 225.186 658.104 225.244L669.113 226.842C669.611 226.917 670.079 227.129 670.463 227.455 670.848 227.781 671.133 228.208 671.288 228.688 671.443 229.167 671.461 229.681 671.34 230.17 671.219 230.659 670.963 231.105 670.603 231.457L662.646 239.232C662.333 239.536 662.099 239.912 661.963 240.326 661.827 240.74 661.793 241.181 661.865 241.612L663.681 252.512C663.766 253.009 663.71 253.52 663.52 253.987 663.329 254.454 663.012 254.859 662.604 255.155 662.196 255.452 661.713 255.629 661.21 255.665 660.707 255.702 660.204 255.598 659.757 255.364L649.911 250.186C649.522 249.981 649.088 249.874 648.648 249.874 648.208 249.874 647.775 249.981 647.386 250.186L637.54 255.364C637.093 255.598 636.589 255.702 636.086 255.665 635.583 255.629 635.101 255.452 634.693 255.155 634.285 254.859 633.967 254.454 633.777 253.987 633.587 253.52 633.531 253.009 633.615 252.512L635.432 241.612C635.503 241.181 635.469 240.74 635.333 240.326 635.197 239.912 634.963 239.536 634.651 239.232L626.676 231.457C626.315 231.103 626.06 230.656 625.94 230.166 625.819 229.675 625.839 229.161 625.996 228.681 626.153 228.201 626.441 227.774 626.827 227.449 627.214 227.124 627.684 226.914 628.184 226.842L639.193 225.244C639.625 225.181 640.037 225.014 640.391 224.758 640.745 224.502 641.032 224.164 641.227 223.772L646.15 213.799C646.356 213.306 646.703 212.885 647.148 212.589 647.592 212.293 648.114 212.135 648.648 212.135 649.182 212.135 649.705 212.293 650.149 212.589 650.594 212.885 650.941 213.306 651.146 213.799V213.799Z" fill="url(#paint4_linear_605_45436)"/><path d="M399.884 68.7205 404.825 78.6939C405.016 79.0882 405.302 79.4289 405.657 79.6857 406.012 79.9425 406.425 80.1073 406.86 80.1654L417.869 81.7641C418.367 81.8387 418.835 82.0509 419.219 82.377 419.603 82.703 419.889 83.1298 420.044 83.6094 420.199 84.089 420.217 84.6023 420.095 85.0915 419.974 85.5807 419.719 86.0264 419.358 86.3784L411.383 94.1536C411.069 94.4561 410.835 94.8319 410.702 95.2473 410.568 95.6627 410.54 96.1046 410.62 96.5335L412.437 107.433C412.522 107.931 412.466 108.442 412.275 108.909 412.085 109.376 411.768 109.781 411.36 110.077 410.952 110.374 410.469 110.55 409.966 110.587 409.463 110.624 408.96 110.52 408.513 110.286L398.667 105.108C398.281 104.903 397.85 104.796 397.413 104.796 396.976 104.796 396.546 104.903 396.16 105.108L386.313 110.286C385.867 110.52 385.363 110.624 384.86 110.587 384.357 110.55 383.874 110.374 383.466 110.077 383.058 109.781 382.741 109.376 382.551 108.909 382.361 108.442 382.305 107.931 382.389 107.433L384.206 96.5335C384.277 96.1032 384.243 95.6621 384.107 95.2478 383.971 94.8334 383.737 94.4581 383.425 94.1536L375.45 86.3784C375.089 86.0252 374.834 85.5781 374.714 85.0876 374.593 84.597 374.613 84.0827 374.77 83.6026 374.926 83.1225 375.215 82.696 375.601 82.371 375.988 82.0461 376.458 81.8359 376.958 81.7641L387.967 80.1654C388.399 80.1027 388.81 79.9361 389.165 79.6799 389.519 79.4236 389.806 79.0853 390.001 78.6939L394.924 68.7205C395.129 68.2317 395.474 67.8145 395.915 67.521 396.356 67.2275 396.874 67.0709 397.404 67.0709 397.934 67.0709 398.452 67.2275 398.893 67.521 399.334 67.8145 399.679 68.2317 399.884 68.7205V68.7205Z" fill="url(#paint5_linear_605_45436)"/><path d="M567.09 359.349 572.013 369.323C572.21 369.714 572.498 370.053 572.851 370.312 573.205 370.571 573.615 370.742 574.047 370.812L585.056 372.411C585.556 372.479 586.027 372.686 586.415 373.009 586.803 373.332 587.092 373.758 587.249 374.237 587.406 374.717 587.426 375.231 587.304 375.721 587.183 376.21 586.927 376.656 586.564 377.007L578.589 384.783C578.277 385.087 578.043 385.462 577.907 385.877 577.771 386.291 577.737 386.732 577.808 387.162L579.625 398.062C579.709 398.56 579.653 399.071 579.463 399.538 579.273 400.005 578.956 400.409 578.548 400.706 578.14 401.003 577.657 401.179 577.154 401.216 576.651 401.253 576.147 401.148 575.701 400.914L565.854 395.737C565.468 395.532 565.038 395.425 564.601 395.425 564.164 395.425 563.733 395.532 563.347 395.737L553.501 400.914C553.054 401.148 552.551 401.253 552.048 401.216 551.545 401.179 551.062 401.003 550.654 400.706 550.246 400.409 549.929 400.005 549.739 399.538 549.548 399.071 549.492 398.56 549.577 398.062L551.394 387.162C551.473 386.734 551.446 386.292 551.312 385.876 551.179 385.461 550.945 385.085 550.631 384.783L542.656 377.007C542.293 376.658 542.037 376.213 541.915 375.725 541.793 375.236 541.81 374.723 541.965 374.244 542.121 373.765 542.407 373.339 542.793 373.015 543.178 372.691 543.647 372.482 544.145 372.411L555.154 370.812C555.589 370.748 556.001 370.579 556.356 370.319 556.71 370.06 556.996 369.718 557.189 369.323L562.112 359.349C562.32 358.862 562.667 358.446 563.11 358.154 563.552 357.862 564.071 357.707 564.601 357.707 565.131 357.707 565.649 357.862 566.092 358.154 566.534 358.446 566.881 358.862 567.09 359.349V359.349Z" fill="url(#paint6_linear_605_45436)"/><path d="M338.063 297.42 342.986 307.411C343.178 307.806 343.463 308.146 343.818 308.403 344.174 308.66 344.587 308.825 345.021 308.883L356.03 310.481C356.528 310.556 356.996 310.768 357.38 311.094 357.765 311.42 358.05 311.847 358.205 312.327 358.36 312.806 358.378 313.32 358.257 313.809 358.136 314.298 357.88 314.744 357.52 315.096L349.563 322.853C349.25 323.161 349.016 323.539 348.88 323.957 348.744 324.374 348.71 324.818 348.781 325.251L350.598 336.151C350.679 336.647 350.62 337.155 350.428 337.619 350.236 338.084 349.918 338.485 349.511 338.779 349.104 339.074 348.623 339.249 348.122 339.285 347.621 339.321 347.119 339.217 346.674 338.985L336.828 333.807C336.436 333.611 336.004 333.508 335.565 333.508 335.127 333.508 334.695 333.611 334.303 333.807L324.456 338.985C324.012 339.225 323.509 339.334 323.004 339.301 322.5 339.268 322.016 339.094 321.606 338.798 321.196 338.502 320.878 338.097 320.689 337.629 320.499 337.161 320.445 336.648 320.532 336.151L322.349 325.251C322.42 324.818 322.386 324.374 322.25 323.957 322.115 323.539 321.881 323.161 321.568 322.853L313.593 315.096C313.232 314.743 312.977 314.295 312.857 313.805 312.736 313.314 312.756 312.8 312.913 312.32 313.07 311.84 313.358 311.413 313.744 311.088 314.131 310.764 314.601 310.553 315.101 310.481L326.11 308.883C326.542 308.82 326.954 308.654 327.308 308.397 327.662 308.141 327.949 307.803 328.144 307.411L333.067 297.42C333.273 296.927 333.62 296.506 334.065 296.21 334.509 295.914 335.031 295.756 335.565 295.756 336.099 295.756 336.622 295.914 337.066 296.21 337.51 296.506 337.857 296.927 338.063 297.42Z" fill="url(#paint7_linear_605_45436)"/><path d="M608.618 141.568 619.518 139.752C619.948 139.672 620.353 139.493 620.7 139.228 621.047 138.962 621.327 138.619 621.516 138.226L626.203 128.125C626.414 127.667 626.749 127.278 627.17 127.001 627.591 126.725 628.082 126.572 628.586 126.56 629.089 126.549 629.586 126.68 630.019 126.937 630.453 127.194 630.805 127.568 631.036 128.016L636.195 137.862C636.399 138.251 636.694 138.584 637.055 138.834 637.415 139.084 637.831 139.243 638.266 139.298L649.311 140.642C649.813 140.698 650.289 140.894 650.684 141.207 651.08 141.521 651.379 141.94 651.548 142.415 651.716 142.891 651.748 143.405 651.638 143.898 651.529 144.39 651.283 144.842 650.928 145.202L643.226 153.086C642.919 153.4 642.694 153.785 642.571 154.206 642.447 154.627 642.429 155.072 642.517 155.502L644.661 166.402C644.756 166.897 644.712 167.408 644.533 167.879 644.354 168.349 644.047 168.761 643.647 169.066 643.246 169.372 642.769 169.56 642.268 169.609 641.766 169.659 641.261 169.567 640.809 169.345L630.836 164.404C630.447 164.198 630.013 164.091 629.573 164.091 629.133 164.091 628.7 164.198 628.311 164.404L618.592 169.854C618.151 170.095 617.651 170.209 617.149 170.182 616.647 170.156 616.162 169.99 615.749 169.703 615.336 169.416 615.011 169.02 614.81 168.559 614.61 168.098 614.541 167.59 614.613 167.092L616.23 156.083C616.293 155.652 616.25 155.211 616.104 154.799 615.959 154.388 615.715 154.018 615.394 153.722L607.328 146.219C606.96 145.882 606.691 145.449 606.553 144.969 606.415 144.489 606.413 143.98 606.547 143.498 606.68 143.017 606.944 142.581 607.31 142.241 607.676 141.9 608.129 141.667 608.618 141.568V141.568Z" fill="url(#paint8_linear_605_45436)"/><path d="M570.214 70.5554 575.138 80.5289C575.331 80.9212 575.618 81.2603 575.973 81.5167 576.327 81.7732 576.739 81.9392 577.172 82.0004L588.181 83.599C588.68 83.6736 589.147 83.8859 589.531 84.2119 589.916 84.538 590.201 84.9648 590.356 85.4444 590.511 85.924 590.529 86.4373 590.408 86.9265 590.287 87.4157 590.032 87.8614 589.671 88.2133L581.714 95.9886C581.402 96.293 581.167 96.6684 581.031 97.0827 580.895 97.4971 580.861 97.9382 580.933 98.3684L582.749 109.268C582.834 109.766 582.778 110.277 582.588 110.744 582.397 111.211 582.08 111.615 581.672 111.912 581.264 112.209 580.782 112.385 580.279 112.422 579.776 112.459 579.272 112.354 578.825 112.121L568.979 106.943C568.59 106.738 568.157 106.631 567.717 106.631 567.277 106.631 566.843 106.738 566.454 106.943L556.608 112.121C556.161 112.354 555.658 112.459 555.154 112.422 554.651 112.385 554.169 112.209 553.761 111.912 553.353 111.615 553.036 111.211 552.845 110.744 552.655 110.277 552.599 109.766 552.684 109.268L554.5 98.3684C554.571 97.9382 554.538 97.4971 554.402 97.0827 554.266 96.6684 554.031 96.293 553.719 95.9886L545.762 88.2133C545.401 87.8614 545.146 87.4157 545.025 86.9265 544.904 86.4373 544.922 85.924 545.077 85.4444 545.232 84.9648 545.517 84.538 545.902 84.2119 546.286 83.8859 546.753 83.6736 547.252 83.599L558.261 82.0004C558.694 81.9377 559.105 81.7711 559.459 81.5148 559.813 81.2585 560.1 80.9203 560.295 80.5289L565.219 70.5554C565.424 70.0626 565.771 69.6416 566.216 69.3455 566.66 69.0494 567.182 68.8914 567.717 68.8914 568.251 68.8914 568.773 69.0494 569.217 69.3455 569.662 69.6416 570.009 70.0626 570.214 70.5554Z" fill="url(#paint9_linear_605_45436)"/><path d="M396.778 357.514 401.701 367.488C401.896 367.879 402.183 368.217 402.537 368.474 402.892 368.73 403.303 368.897 403.736 368.959L414.745 370.558C415.243 370.633 415.711 370.845 416.095 371.171 416.479 371.497 416.765 371.924 416.92 372.403 417.075 372.883 417.092 373.396 416.971 373.885 416.85 374.375 416.595 374.82 416.234 375.172L408.277 382.948C407.965 383.252 407.731 383.627 407.595 384.042 407.459 384.456 407.425 384.897 407.496 385.327L409.313 396.227C409.397 396.725 409.341 397.236 409.151 397.703 408.961 398.17 408.644 398.574 408.236 398.871 407.828 399.168 407.345 399.344 406.842 399.381 406.339 399.418 405.836 399.313 405.389 399.079L395.543 393.902C395.153 393.697 394.72 393.589 394.28 393.589 393.84 393.589 393.407 393.697 393.017 393.902L383.171 399.079C382.724 399.313 382.221 399.418 381.718 399.381 381.215 399.344 380.732 399.168 380.324 398.871 379.916 398.574 379.599 398.17 379.409 397.703 379.219 397.236 379.163 396.725 379.247 396.227L381.064 385.327C381.135 384.897 381.101 384.456 380.965 384.042 380.829 383.627 380.595 383.252 380.283 382.948L372.326 375.172C371.965 374.82 371.71 374.375 371.589 373.885 371.467 373.396 371.485 372.883 371.64 372.403 371.795 371.924 372.081 371.497 372.465 371.171 372.849 370.845 373.317 370.633 373.815 370.558L384.824 368.959C385.258 368.898 385.669 368.732 386.024 368.476 386.379 368.219 386.665 367.88 386.859 367.488L391.782 357.514C391.988 357.022 392.335 356.601 392.779 356.304 393.224 356.008 393.746 355.85 394.28 355.85 394.814 355.85 395.336 356.008 395.781 356.304 396.225 356.601 396.572 357.022 396.778 357.514V357.514Z" fill="url(#paint10_linear_605_45436)"/><path d="M340.134 127.108 345.057 137.081C345.253 137.474 345.539 137.815 345.893 138.074 346.247 138.333 346.658 138.504 347.092 138.571L358.101 140.17C358.601 140.241 359.071 140.452 359.457 140.777 359.844 141.102 360.132 141.528 360.289 142.008 360.446 142.488 360.465 143.003 360.345 143.493 360.225 143.984 359.97 144.431 359.609 144.784L351.634 152.541C351.321 152.849 351.087 153.228 350.951 153.645 350.815 154.062 350.781 154.506 350.853 154.939L352.669 165.839C352.754 166.336 352.698 166.847 352.508 167.314 352.317 167.781 352 168.186 351.592 168.483 351.184 168.779 350.701 168.956 350.198 168.993 349.695 169.03 349.192 168.925 348.745 168.691L338.899 163.514C338.513 163.309 338.082 163.201 337.645 163.201 337.208 163.201 336.778 163.309 336.392 163.514L326.527 168.691C326.082 168.928 325.579 169.034 325.075 168.998 324.572 168.962 324.09 168.785 323.682 168.487 323.275 168.19 322.959 167.784 322.772 167.315 322.584 166.847 322.532 166.335 322.622 165.839L324.438 154.939C324.509 154.506 324.476 154.062 324.34 153.645 324.204 153.228 323.97 152.849 323.657 152.541L315.7 144.784C315.339 144.432 315.084 143.986 314.963 143.497 314.842 143.008 314.86 142.495 315.015 142.015 315.17 141.535 315.455 141.109 315.839 140.783 316.224 140.457 316.691 140.244 317.19 140.17L328.199 138.571C328.634 138.509 329.048 138.341 329.403 138.081 329.758 137.822 330.043 137.478 330.233 137.081L335.157 127.108C335.365 126.62 335.712 126.205 336.154 125.913 336.597 125.621 337.115 125.465 337.645 125.465 338.175 125.465 338.694 125.621 339.136 125.913 339.579 126.205 339.926 126.62 340.134 127.108V127.108Z" fill="url(#paint11_linear_605_45436)"/><path d="M627.094 300.544 632.017 310.518C632.212 310.911 632.499 311.251 632.853 311.51 633.207 311.769 633.618 311.94 634.051 312.007L645.06 313.606C645.56 313.678 646.03 313.888 646.417 314.213 646.803 314.538 647.092 314.964 647.248 315.444 647.405 315.925 647.425 316.439 647.305 316.929 647.184 317.42 646.929 317.867 646.568 318.22L638.593 325.977C638.279 326.285 638.044 326.663 637.908 327.081 637.772 327.498 637.739 327.942 637.812 328.375L639.629 339.275C639.713 339.772 639.657 340.284 639.467 340.751 639.277 341.218 638.96 341.622 638.552 341.919 638.144 342.216 637.661 342.392 637.158 342.429 636.655 342.466 636.151 342.361 635.705 342.127L625.858 336.95C625.469 336.745 625.036 336.637 624.596 336.637 624.156 336.637 623.722 336.745 623.333 336.95L613.487 342.127C613.041 342.364 612.538 342.47 612.035 342.434 611.532 342.398 611.049 342.221 610.642 341.924 610.234 341.626 609.919 341.22 609.731 340.752 609.544 340.283 609.492 339.772 609.581 339.275L611.398 328.375C611.47 327.942 611.437 327.498 611.301 327.081 611.165 326.663 610.93 326.285 610.617 325.977L602.66 318.22C602.299 317.868 602.044 317.423 601.923 316.933 601.801 316.444 601.819 315.931 601.974 315.451 602.129 314.972 602.415 314.545 602.799 314.219 603.183 313.893 603.651 313.681 604.149 313.606L615.158 312.007C615.594 311.946 616.008 311.778 616.362 311.518 616.717 311.258 617.003 310.914 617.193 310.518L622.116 300.544C622.324 300.057 622.671 299.641 623.114 299.349 623.556 299.057 624.075 298.902 624.605 298.902 625.135 298.902 625.653 299.057 626.096 299.349 626.538 299.641 626.885 300.057 627.094 300.544V300.544Z" fill="url(#paint12_linear_605_45436)"/><path d="M495.961 486.641C648.207 486.641 771.627 480.376 771.627 472.648 771.627 464.921 648.207 458.656 495.961 458.656 343.714 458.656 220.294 464.921 220.294 472.648 220.294 480.376 343.714 486.641 495.961 486.641Z" fill="url(#paint13_radial_605_45436)"/><path d="M660.068 180.921 667.696 100.044 862.782 117.077 794.654 192.833 660.068 180.921Z" fill="#3dbfc9"/><path d="M694.446 102.552 851.08 115.3 833.316 70.3685 691.416 58.7699 694.446 102.552Z" fill="url(#paint14_linear_605_45436)"/><path d="M693.401 104.537 845.75 117.39 827.882 72.4584 693.61 61.0687 693.401 104.537Z" fill="url(#paint15_linear_605_45436)"/><path d="M716.912 116.032 664.353 179.563 660.277 179.04 635.513 116.867 692.147 53.8588 716.912 116.032Z" fill="url(#paint16_linear_605_45436)"/><path d="M720.987 116.554 664.352 179.563 639.692 117.39 696.327 54.3812 720.987 116.554Z" fill="url(#paint17_linear_605_45436)"/><path d="M692.147 53.8588 696.327 54.3812 639.692 117.39 635.513 116.867 692.147 53.8588Z" fill="url(#paint18_linear_605_45436)"/><path d="M724.122 118.226 671.667 181.862 667.487 181.339 642.827 119.166 699.462 56.0531 724.122 118.226Z" fill="url(#paint19_linear_605_45436)"/><path d="M728.197 118.748 671.667 181.862 646.902 119.689 703.537 56.5756 728.197 118.748Z" fill="url(#paint20_linear_605_45436)"/><path d="M699.462 56.0531 703.537 56.5756 646.902 119.689 642.827 119.166 699.462 56.0531Z" fill="#ffffff"/><path d="M734.257 116.763 681.802 180.294 677.623 179.772 652.962 117.599 709.597 54.5902 734.257 116.763Z" fill="url(#paint21_linear_605_45436)"/><path d="M738.437 117.285 681.802 180.294 657.142 118.121 713.672 55.1127 738.437 117.285Z" fill="url(#paint22_linear_605_45436)"/><path d="M709.597 54.5902 713.672 55.1127 657.142 118.121 652.962 117.599 709.597 54.5902Z" fill="url(#paint23_linear_605_45436)"/><path d="M740.736 117.912 688.177 181.444 684.101 180.921 659.337 118.748 715.972 55.7396 740.736 117.912Z" fill="url(#paint24_linear_605_45436)"/><path d="M744.811 118.435 688.177 181.443 663.517 119.271 720.151 56.262 744.811 118.435Z" fill="url(#paint25_linear_605_45436)"/><path d="M715.972 55.7396 720.151 56.2621 663.517 119.271 659.337 118.748 715.972 55.7396Z" fill="url(#paint26_linear_605_45436)"/><path d="M749.409 119.271 696.849 182.802 692.774 182.279 668.009 120.107 724.644 56.9935 749.409 119.271Z" fill="url(#paint27_linear_605_45436)"/><path d="M753.484 119.793 696.85 182.802 672.189 120.629 728.824 57.516 753.484 119.793Z" fill="url(#paint28_linear_605_45436)"/><path d="M724.644 56.9935 728.824 57.516 672.189 120.629 668.009 120.107 724.644 56.9935Z" fill="#ffffff"/><path d="M757.768 118.121 705.313 181.653 701.134 181.13 676.474 118.957 733.108 55.9486 757.768 118.121Z" fill="url(#paint29_linear_605_45436)"/><path d="M761.843 118.644 705.313 181.653 680.548 119.48 737.183 56.4711 761.843 118.644Z" fill="url(#paint30_linear_605_45436)"/><path d="M733.108 55.9486 737.184 56.4711 680.549 119.48 676.474 118.957 733.108 55.9486Z" fill="url(#paint31_linear_605_45436)"/><path d="M766.545 118.957 714.09 182.488 710.015 181.966 685.25 119.793 741.885 56.7845 766.545 118.957Z" fill="url(#paint32_linear_605_45436)"/><path d="M770.725 119.48 714.091 182.488 689.431 120.316 746.065 57.3069 770.725 119.48Z" fill="url(#paint33_linear_605_45436)"/><path d="M741.885 56.7845 746.065 57.307 689.43 120.316 685.25 119.793 741.885 56.7845Z" fill="url(#paint34_linear_605_45436)"/><path d="M774.8 122.092 722.345 185.623 718.27 185.101 693.505 122.928 750.14 59.8148 774.8 122.092Z" fill="url(#paint35_linear_605_45436)"/><path d="M778.98 122.615 722.346 185.623 697.686 123.45 754.32 60.3373 778.98 122.615Z" fill="url(#paint36_linear_605_45436)"/><path d="M750.14 59.8148 754.32 60.3373 697.685 123.45 693.505 122.928 750.14 59.8148Z" fill="#ffffff"/><path d="M781.383 122.51 728.928 186.146 724.748 185.623 700.088 123.346 756.723 60.3373 781.383 122.51Z" fill="url(#paint37_linear_605_45436)"/><path d="M785.563 123.033 728.928 186.146 704.164 123.868 760.798 60.8597 785.563 123.033Z" fill="url(#paint38_linear_605_45436)"/><path d="M756.723 60.3373 760.798 60.8597 704.163 123.868 700.088 123.346 756.723 60.3373Z" fill="url(#paint39_linear_605_45436)"/><path d="M787.967 117.912 735.512 181.444 731.332 180.921 706.672 118.748 763.307 55.7396 787.967 117.912Z" fill="url(#paint40_linear_605_45436)"/><path d="M792.042 118.435 735.512 181.444 710.747 119.271 767.382 56.2621 792.042 118.435Z" fill="url(#paint41_linear_605_45436)"/><path d="M763.306 55.7396 767.381 56.2621 710.747 119.271 706.671 118.748 763.306 55.7396Z" fill="url(#paint42_linear_605_45436)"/><path d="M746.045 178.096C746.668 178.223 747.228 177.198 747.669 176.586L754.01 168.975 761.441 160.148C763.516 157.714 764.055 154.387 762.908 151.418L747.224 105.364C746.36 103.241 743.363 102.296 741.804 102.03 740.349 101.768 738.734 103.069 738.189 103.676L731.848 111.288 724.417 120.115C722.342 122.549 721.803 125.875 722.95 128.845L740.706 175.392C741.671 177.623 743.964 177.811 746.045 178.096Z" fill="url(#paint43_linear_605_45436)"/><path d="M749.966 176.669 756.087 169.363 763.518 160.537C765.593 158.103 766.132 154.776 764.985 151.807L747.317 105.681C746.171 102.711 742.221 102.045 740.146 104.479L734.025 111.785 726.594 120.612C724.519 123.046 723.98 126.372 725.127 129.342L742.795 175.468C743.938 178.542 747.995 179.107 749.966 176.669Z" fill="url(#paint44_linear_605_45436)"/><path d="M751.502 134.378 752.156 133.67C752.484 133.264 752.499 132.846 752.414 132.32L745.537 114.4C745.343 113.974 744.72 113.847 744.496 114.257L743.843 114.965C743.515 115.372 743.496 115.894 743.585 116.315L750.462 134.236C750.551 134.657 751.174 134.785 751.502 134.378Z" fill="url(#paint45_linear_605_45436)"/><path d="M753.125 158.484 753.778 157.775C754.107 157.369 754.122 156.951 754.037 156.425L747.647 139.463C747.454 139.038 746.831 138.911 746.607 139.321L745.954 140.029C745.625 140.436 745.606 140.958 745.696 141.379L752.085 158.341C752.279 158.766 752.901 158.894 753.125 158.484Z" fill="url(#paint46_linear_605_45436)"/><path d="M750.62 167.283 751.273 166.575C751.602 166.168 751.617 165.751 751.531 165.225L747.432 154.306C747.238 153.881 746.616 153.754 746.392 154.164L745.738 154.872C745.41 155.278 745.391 155.8 745.48 156.222L749.58 167.141C749.669 167.562 750.292 167.689 750.62 167.283Z" fill="#ffffff"/><path d="M734.193 135.945 735.287 134.625 736.6 133C736.929 132.594 737.056 131.971 736.866 131.441L733.236 122.003C733.046 121.474 732.319 121.343 731.99 121.749L730.897 123.069 729.583 124.694C729.254 125.1 729.127 125.723 729.317 126.253L732.947 135.691C733.137 136.22 733.865 136.351 734.193 135.945Z" fill="url(#paint47_linear_605_45436)"/><path d="M734.023 131.966 733.15 132.979 733.53 134.039C733.627 134.251 733.936 134.367 734.153 134.166L734.697 133.558 734.023 131.966Z" fill="url(#paint48_linear_605_45436)"/><path d="M732.96 132.45 735.039 129.911 733.226 125.14 731.039 127.779 732.96 132.45Z" fill="url(#paint49_linear_605_45436)"/><path d="M731.726 126.131 731.052 124.538 730.507 125.146C730.291 125.347 730.276 125.765 730.372 125.977L730.853 127.145 731.726 126.131Z" fill="url(#paint50_linear_605_45436)"/><path d="M734.351 131.559 734.921 133.148 735.686 132.235C735.794 132.134 735.798 132.03 735.697 131.922L735.12 130.541 734.351 131.559Z" fill="url(#paint51_linear_605_45436)"/><path d="M732.159 125.729 733.032 124.715 732.652 123.655C732.556 123.443 732.246 123.327 732.03 123.528L731.485 124.136 732.159 125.729Z" fill="url(#paint52_linear_605_45436)"/><path d="M659.545 179.563 792.564 190.639 774.696 145.707 641.677 134.631 659.545 179.563Z" fill="#ffffff"/><path d="M660.277 181.234 793.4 192.729 775.532 147.797 642.618 136.825 660.277 181.234Z" fill="url(#paint53_linear_605_45436)"/><path d="M857.871 116.554 794.758 192.938 789.742 192.311 760.066 117.599 828.195 41.7377 857.871 116.554Z" fill="url(#paint54_linear_605_45436)"/><path d="M862.783 117.181 794.758 192.938 765.083 118.226 833.107 42.3646 862.783 117.181Z" fill="url(#paint55_linear_605_45436)"/><path d="M828.196 41.7377 833.107 42.3646 765.083 118.226 760.067 117.599 828.196 41.7377Z" fill="#ffffff"/><path d="M824.225 113.524C825.792 116.868 824.33 122.51 820.881 126.167 817.433 129.825 813.462 130.034 811.895 126.69 810.328 123.346 811.79 117.703 815.239 114.046 818.582 110.389 822.658 110.18 824.225 113.524Z" fill="url(#paint56_radial_605_45436)"/><path d="M831.435 111.956 817.119 111.538C816.284 111.329 815.239 111.852 814.403 112.897 812.835 114.882 812.417 118.017 813.358 120.107 813.88 121.152 814.716 121.674 815.552 121.674L829.763 122.092 831.435 111.956Z" fill="url(#paint57_linear_605_45436)"/><path d="M829.449 110.703C831.017 114.046 830.181 119.375 827.673 122.615 826.942 123.555 824.956 125.123 824.956 125.123L823.075 124.914C821.926 124.705 820.777 123.869 820.15 122.406 818.582 119.062 819.418 113.733 821.926 110.494 823.18 108.926 824.538 108.195 825.897 108.09L828.404 108.299C828.404 108.404 829.136 110.076 829.449 110.703Z" fill="url(#paint58_linear_605_45436)"/><path d="M831.33 110.911C832.898 114.255 832.062 119.584 829.554 122.823 826.942 126.063 823.598 125.958 822.03 122.614 820.463 119.271 821.299 113.942 823.807 110.702 826.419 107.463 829.763 107.568 831.33 110.911Z" fill="url(#paint59_linear_605_45436)"/><path d="M831.017 111.747C832.271 114.569 831.644 118.957 829.554 121.674 827.464 124.391 824.643 124.287 823.389 121.465 822.135 118.644 822.762 114.255 824.852 111.538 826.837 108.926 829.658 108.926 831.017 111.747Z" fill="url(#paint60_linear_605_45436)"/><path d="M831.957 111.956C833.211 114.778 832.584 119.166 830.494 121.883 828.405 124.6 825.583 124.495 824.329 121.674 823.075 118.853 823.702 114.464 825.792 111.747 827.882 109.03 830.703 109.135 831.957 111.956Z" fill="url(#paint61_linear_605_45436)"/><path d="M68.4746 223.279 195.619 203.943C197.883 203.566 199.298 201.302 198.543 199.133L176.001 118.488C175.152 115.942 172.605 114.433 169.964 114.81L42.8193 134.146C40.5556 134.523 39.1408 136.787 39.8953 138.956L62.4381 219.6C63.287 222.147 65.8336 223.751 68.4746 223.279Z" fill="#b5c8f0"/><path d="M65.4561 223.751 192.601 204.415C194.865 204.038 196.279 201.774 195.525 199.604L173.076 118.96C172.228 116.413 169.681 114.904 167.04 115.281L39.8007 134.617C37.537 134.995 36.1222 137.258 36.8768 139.428L59.4195 220.072C60.2684 222.619 62.8151 224.222 65.4561 223.751Z" fill="url(#paint62_linear_605_45436)"/><path d="M137.895 163.291 86.3013 171.119 93.6583 219.506 145.252 211.677 137.895 163.291Z" fill="url(#paint63_linear_605_45436)" opacity=".51"/><path d="M76.4917 243.275 128.18 235.446 133.084 178.288 131.009 164.423 82.3396 171.78 76.4917 243.275ZM93.4695 210.263C93.9411 201.679 99.0344 194.039 104.882 193.096 110.636 192.247 114.975 198.473 114.503 207.056 114.031 215.639 108.938 223.279 103.09 224.222 97.2423 225.071 92.9979 218.846 93.4695 210.263Z" fill="url(#paint64_linear_605_45436)"/><path d="M176.85 227.995 61.2124 245.539 62.4386 253.367 185.905 234.597C185.245 230.353 181.189 227.335 176.85 227.995Z" fill="url(#paint65_linear_605_45436)"/><path d="M80.4536 242.615 132.142 234.786 137.895 163.291 86.2072 171.12 80.4536 242.615ZM97.62 209.603C98.0917 201.019 103.185 193.379 109.033 192.436 114.786 191.587 119.125 197.812 118.654 206.396 118.182 214.979 113.089 222.619 107.241 223.562 101.393 224.505 97.1484 218.186 97.62 209.603Z" fill="url(#paint66_linear_605_45436)"/><path d="M22.6347 230.259 242.78 196.869C246.741 196.303 249.1 192.247 247.873 188.474L212.409 48.3134C210.899 43.8803 206.466 41.2393 201.939 41.8996L-18.2064 75.3835C-22.1678 75.9495-24.5259 80.0053-23.2997 83.7781L12.165 223.939C13.6742 228.278 18.1072 231.013 22.6347 230.259Z" fill="url(#paint67_linear_605_45436)"/><path d="M28.0112 229.504 248.157 196.115C252.118 195.549 254.476 191.493 253.25 187.72L217.785 47.4645C216.276 43.0314 211.843 40.3904 207.316 41.0507L-12.9241 74.5347C-16.8856 75.1006-19.2436 79.1564-18.0175 82.9292L17.5416 223.09C19.0507 227.523 23.3895 230.164 28.0112 229.504Z" fill="url(#paint68_linear_605_45436)"/><path d="M246.364 189.229 210.994 49.6339C210.522 48.5964 209.485 47.9361 208.353 48.1248L-11.1323 81.4201 24.2381 221.015C24.7097 222.053 25.7472 222.713 26.8791 222.524L246.364 189.229Z" fill="url(#paint69_linear_605_45436)"/><path d="M68.0031 179.608 194.582 160.367C196.846 159.99 198.26 157.726 197.506 155.556L193.073 139.145C192.224 136.598 189.677 135.089 187.036 135.466L60.5517 154.708C58.288 155.085 56.8732 157.349 57.6277 159.518L62.0608 175.93C62.9097 178.476 65.4564 179.986 68.0031 179.608Z" fill="url(#paint70_linear_605_45436)"/><path d="M127.991 136.032 185.433 127.26C187.697 126.883 189.111 124.619 188.357 122.45L178.453 87.834C177.604 85.2873 175.058 83.7782 172.417 84.1555L114.975 92.9274C112.711 93.3046 111.297 95.5683 112.051 97.7377L121.955 132.354C122.804 134.9 125.35 136.409 127.991 136.032Z" fill="url(#paint71_linear_605_45436)"/><path d="M50.6474 125.279 108.089 116.507C110.353 116.13 111.767 113.866 111.013 111.697L107.429 98.6807C106.58 96.134 104.033 94.6249 101.392 95.0022L43.9506 103.774C41.6869 104.151 40.2721 106.415 41.0267 108.584L44.6109 121.601C45.4598 124.147 48.0064 125.657 50.6474 125.279Z" fill="url(#paint72_linear_605_45436)"/><path d="M56.59 146.313 114.032 137.541C116.295 137.164 117.71 134.9 116.956 132.731L115.352 127.166C114.503 124.619 111.956 123.11 109.315 123.487L51.874 132.259C49.6103 132.636 48.1954 134.9 48.95 137.07L50.5535 142.634C51.4024 145.181 53.949 146.69 56.59 146.313Z" fill="url(#paint73_radial_605_45436)"/><path d="M169.608 337.706 175.251 352.666 167.246 355.685 161.603 340.725C157.01 328.258 143.887 321.565 132.339 325.896 120.922 330.226 115.279 343.743 120.003 356.209L125.646 371.169 117.641 374.188 111.999 359.228C105.568 342.037 113.18 323.14 129.058 317.235 145.068 311.198 163.178 320.515 169.608 337.706Z" fill="url(#paint74_linear_605_45436)"/><path d="M175.25 335.738 180.893 350.698 172.888 353.716 167.245 338.756C162.652 326.29 149.529 319.597 137.981 323.927 126.564 328.258 120.921 341.775 125.646 354.241L131.288 369.201 123.283 372.22 117.641 357.259C111.21 340.069 118.822 321.172 134.7 315.266 150.71 309.23 168.82 318.547 175.25 335.738Z" fill="url(#paint75_linear_605_45436)"/><path d="M194.146 412.9 141.917 431.666C133.519 434.684 124.202 430.353 121.183 421.955L110.423 392.035C107.404 383.636 111.735 374.319 120.134 371.301L172.362 352.535C180.761 349.517 190.078 353.847 193.097 362.246L203.857 392.166C207.007 400.565 202.545 409.882 194.146 412.9Z" fill="url(#paint76_linear_605_45436)"/><path d="M199.789 410.932 147.429 429.697C139.031 432.716 129.713 428.385 126.695 419.986L115.934 390.066C112.916 381.668 117.247 372.351 125.645 369.332L177.874 350.567C186.273 347.548 195.59 351.879 198.608 360.278L209.369 390.198C212.518 398.596 208.188 407.913 199.789 410.932Z" fill="url(#paint77_linear_605_45436)"/><path d="M166.064 378.125C164.489 374.057 160.29 371.957 156.615 373.269 152.941 374.713 151.104 379.043 152.547 383.111 153.335 385.342 155.172 387.048 157.14 387.835 157.403 387.967 157.534 388.098 157.534 388.36L161.733 400.433C162.521 402.796 165.145 404.108 167.638 403.189 170.001 402.271 171.182 399.646 170.263 397.415L165.67 385.473C165.539 385.211 165.539 385.08 165.67 384.817 166.72 382.718 166.851 380.355 166.064 378.125Z" fill="url(#paint78_linear_605_45436)"/><path d="M589.208 277.712C583.541 273.373 566.806 237.512 561.493 224.407 559.545 219.625 552.992 207.583 534.84 214.49 516.688 221.396 528.199 233.527 530.856 239.017 537.319 252.653 562.201 304.896 577.254 305.427 588.401 305.809 630.079 306.579 653.888 306.725 671.462 306.832 658.454 290.843 650.026 289.345 643.208 288.283 595.849 279.749 589.208 277.712Z" fill="url(#paint79_linear_605_45436)"/><path d="M366.424 277.712C372.091 273.373 388.826 237.512 394.139 224.407 396.087 219.625 402.64 207.583 420.792 214.49 438.944 221.396 427.433 233.527 424.776 239.017 418.312 252.653 393.431 304.896 378.378 305.427 362.882 305.959 290.628 308.172 285.404 306.756 278.054 304.807 289.211 301.885 292.399 297.458 294.79 294.27 289.565 292.234 293.55 291.525 300.368 290.463 359.783 279.749 366.424 277.712Z" fill="url(#paint80_linear_605_45436)"/><path clip-rule="evenodd" d="M508.514 85.8163C508.514 85.8163 511.379 141.997 539.232 164.389 567.084 186.781 580.057 190.857 580.057 190.857 580.057 190.857 546.816 186.178 527.242 165.22 507.669 144.263 509.682 121.65 509.682 121.65L508.514 85.8163Z" fill="url(#paint81_linear_605_45436)" fill-rule="evenodd"/><path d="M494.209 50.6855C459.686 29.04 420.049 53.3798 417.862 94.0604 417.841 94.6799 417.822 95.2109 417.801 95.8303 417.966 150.678 410.678 186.919 448.383 216.559 486.088 246.198 573.965 195.433 573.965 195.433 573.965 195.433 532.024 183.457 520.598 141.869 509.172 100.28 516.63 102.396 511.311 73.9509 509.141 62.2704 497.762 53.0218 494.209 50.6855Z" fill="url(#paint82_linear_605_45436)"/><path d="M651.672 356.679C647.995 361.503 643.113 365.718 638.365 369.232 612.133 388.329 580.504 401.582 549.156 410.417 521.155 418.222 491.594 418.475 462.725 416.199 442.953 414.589 423.262 408.903 404.167 403.61 384.548 398.194 365.095 391.548 346.76 382.665 332.296 375.713 319.28 366.902 316.728 349.793 315.735 343.076 317.101 335.532 322.187 330.887 328.313 325.242 337.719 325.218 346.202 325.756 393.85 328.515 440.265 343.705 488.215 343.11 514.943 342.766 539.816 335.295 565.352 328.576 585.114 323.353 607.042 317.558 627.672 318.246 646.191 318.623 665.128 338.99 651.672 356.679Z" fill="url(#paint83_linear_605_45436)"/><path d="M437.704 223.726C436.11 227.002 427.079 254.541 427.079 254.541 427.079 254.541 374.747 256.4 379.972 244.446 386.967 228.596 394.582 213.012 401.046 196.985 406.27 183.88 416.807 167.942 433.1 174.228 445.674 179.01 445.142 195.834 443.548 206.725 442.663 212.569 440.361 218.236 437.704 223.726Z" fill="url(#paint84_linear_605_45436)"/><path d="M510.844 216.997C514.563 222.309 522.001 236.3 528.465 247.28 544.226 252.061 569.374 239.045 571.233 227.888 561.758 213.366 551.664 199.287 542.632 184.588 535.283 172.546 522.267 158.556 507.214 167.41 495.614 174.228 498.89 190.698 502.255 201.235 504.114 206.814 507.302 212.038 510.844 216.997Z" fill="url(#paint85_linear_605_45436)"/><path d="M545.749 330.673C541.587 321.641 539.002 286.417 533.778 220.095 532.715 206.371 537.851 187.953 534.043 174.848 530.324 161.832 484.988 155.987 470.821 156.784 456.653 157.67 410.255 171.306 408.661 184.765 407.155 198.313 415.213 210.709 418.047 224.169 431.506 288.277 427.841 325.285 425.273 334.936 425.096 335.645 424.919 336.53 425.185 337.239 425.539 338.213 426.513 338.655 427.398 339.098 444.665 346.713 471.263 351.056 486.582 350.525 500.573 350.082 528.571 345.46 544.421 335.1 545.217 334.569 546.103 333.949 546.28 332.975 546.457 332.178 546.103 331.381 545.749 330.673Z" fill="url(#paint86_linear_605_45436)"/><path d="M486.399 427.639C493.053 429.038 500.123 429.486 506.269 430.497 509.08 430.942 511.891 431.387 514.714 431.654 519.215 432.029 523.656 431.956 528.185 431.888 531.472 431.831 534.758 431.773 537.956 431.71 539.735 431.646 541.602 431.587 543.16 430.798 545 429.762 546.101 427.791 547.109 425.903 549.117 422.215 551.562 418.644 553.14 414.751 554.087 412.416 554.563 410.494 556.024 408.457 557.395 406.415 558.801 403.843 557.715 401.378 556.481 398.461 552.703 397.866 549.511 397.841 546.848 397.849 544.175 398.034 541.579 398.402 531.105 399.867 521.247 404.209 510.779 405.586 504.067 406.491 497.351 406.064 490.618 405.903 485.216 405.738 476.954 404.504 472.229 407.664 470.283 408.96 467.336 412.056 467.096 414.436 466.817 417.435 470.255 420.581 472.463 422.141 476.542 424.973 481.319 426.607 486.399 427.639Z" fill="url(#paint87_linear_605_45436)"/><path d="M509.34 431.047C515.151 430.351 522.509 429.044 526.424 424.679 529.388 421.318 530.464 416.95 530.391 412.509 530.312 408.156 526.802 404.74 522.838 402.891 532.946 397.41 542.458 397.127 551.822 400.561 552.866 400.893 553.81 401.396 554.748 401.988 567.301 409.706 559.387 425.351 549.268 431.009 544.67 433.556 539.35 434.904 534.119 434.838 529.867 434.746 527.05 434.39 522.819 433.944 517.716 433.265 515.127 432.124 509.34 431.047Z" fill="url(#paint88_linear_605_45436)"/><path d="M520.729 419.349C527.613 417.124 534.415 414.805 541.2 412.751 575.228 402.224 610.667 390.454 640.099 369.875 646.881 365.071 653.709 358.14 656.429 350.238 663.696 329.406 641.44 313.797 622.824 321.932 591.703 335.572 566.322 359.425 537.103 376.646 532.217 379.53 527.326 382.503 522.347 385.47 518.102 388.039 513.858 390.609 509.614 393.179L520.729 419.349Z" fill="url(#paint89_linear_605_45436)"/><path d="M510.242 394.461C510.242 394.461 499.848 398.859 494.886 401.56 489.829 404.345 459.854 415.307 468.311 426.047 469.949 428.192 473.042 428.388 475.71 428.292 491.159 428.119 505.217 421.913 519.892 417.166L510.242 394.461Z" fill="url(#paint90_linear_605_45436)"/><path d="M478.182 401.92C475.345 400.498 463.844 395.775 461.006 394.353 456.228 395.558 460.117 399.975 455.118 400.456 444.584 401.473 433.975 399.469 423.541 400.315 420.867 400.5 418.265 400.956 415.658 401.5 412.597 402.193 413.864 389.231 413.22 392.384 413.103 392.821 410.192 405.146 410.252 405.593 418.264 407.965 424.358 412.611 432.293 414.8 443.11 417.705 453.982 421.145 464.905 423.791 464.905 423.791 464.993 423.796 464.999 423.708 470.823 421.416 477.608 419.362 483.73 416.557 487.842 414.688 491.627 412.355 494.745 409.359 488.055 405.741 480.501 403.132 478.182 401.92Z" fill="url(#paint91_linear_605_45436)"/><path d="M453.039 420.642C446.064 418.691 439.184 416.657 432.381 414.806 397.918 405.609 362.115 395.174 331.937 375.78 324.949 371.255 317.918 364.598 314.866 356.774 306.766 336.208 328.484 319.752 347.356 327.161 378.954 339.547 405.273 362.423 435.123 378.602 440.097 381.314 445.153 384.119 450.21 386.924 454.582 389.331 458.866 391.732 463.238 394.139L453.039 420.642Z" fill="url(#paint92_linear_605_45436)"/><path d="M487.017 427.678C480.437 429.301 473.377 430.095 467.273 431.216 464.488 431.749 461.704 432.282 458.931 432.639 454.456 433.242 449.927 433.309 445.486 433.382 442.2 433.44 439.002 433.503 435.715 433.561 433.936 433.625 432.075 433.596 430.529 432.788 428.636 431.869 427.428 429.929 426.391 428.089 424.224 424.491 421.692 421.048 419.895 417.207 418.727 414.649 417.547 412.267 418.964 409.518 419.666 408.232 420.711 407.144 421.839 406.151 423.249 404.91 424.747 403.674 426.488 402.809 432.086 399.881 437.757 401.394 443.522 402.825 449.64 404.278 455.659 405.902 461.922 406.477 468.627 407.08 475.41 406.446 482.094 405.983 487.441 405.613 495.612 404.091 500.481 407.061 502.446 408.251 505.536 411.286 505.826 413.7 506.166 416.738 502.854 419.988 500.715 421.538 496.796 424.573 491.978 426.396 487.017 427.678Z" fill="url(#paint93_linear_605_45436)"/><path d="M463.5 431.953C457.673 431.494 450.29 430.405 446.206 426.242 443.127 423.029 441.894 418.692 441.827 414.163 441.748 409.811 445.077 406.295 449.022 404.239 438.699 399.147 429.198 399.254 419.998 403.018 418.998 403.398 417.987 403.955 417.064 404.517 404.832 412.702 413.263 428.054 423.575 433.323 428.301 435.752 433.558 436.796 438.9 436.514 443.175 436.253 445.96 435.719 450.163 435.188 455.268 434.447 457.743 433.185 463.5 431.953Z" fill="url(#paint94_linear_605_45436)"/><path d="M483.986 130.618C483.986 130.618 484.117 150.114 491.797 158.705 491.797 158.705 483.495 170.914 464.913 167.621 456.723 166.19 449.69 161.963 449.69 161.963 449.69 161.963 449.125 143.77 450.309 127.933 448.504 113.341 483.986 130.618 483.986 130.618Z" fill="url(#paint95_linear_605_45436)"/><path d="M497.873 81.9862C483.278 65.7172 483.248 66.6021 483.248 66.6021 479.147 75.1447 469.756 82.8865 459.258 89.35 450.298 94.8914 436.562 94.9619 432.484 101.433 431.089 103.588 431.158 107.807 431.704 110.115L432.562 113.512C434.7 118.369 437.831 120.071 440.294 120.598 441.701 120.912 442.854 120.862 443.565 120.798L444.456 120.651 450.157 132.718C451.583 135.07 456.396 136.83 458.059 137.418 466.196 140.443 470.145 141.552 476.306 142.737 482.114 143.91 492.62 142.408 497.263 138.757 501.268 135.616 503.354 131.611 503.956 124.367 504.394 119.332 504.597 113.403 503.517 106.101L500.172 84.7227C499.494 83.8136 498.639 82.8984 497.873 81.9862Z" fill="url(#paint96_linear_605_45436)"/><path clip-rule="evenodd" d="M454.661 69.0408C447.119 77.5185 430.929 95.8135 445.196 133.818 459.463 171.823 487.109 179.695 487.109 179.695 487.109 179.695 461.96 167.551 454.471 119.863 450.868 96.924 453.916 93.3676 462.186 86.8472 464.742 81.4258 462.785 69.3183 454.661 69.0408Z" fill="url(#paint97_linear_605_45436)" fill-rule="evenodd"/><path d="M692.474 275.287C698.472 280.615 705.634 288.645 705.267 291.463 704.592 296.646 696.724 304.729 693.921 307.113 692.704 308.148 687.701 309.033 681.943 309.648 674.431 310.45 666.999 307.76 663.649 307.376 662.136 307.202 649.626 306.656 649.64 306.725L646.005 289.33 655.095 289.528C655.095 289.528 671.604 276.1 673.971 275.287 675.995 274.698 682.926 274.509 687.488 275.287 688.903 275.529 692.361 278.844 687.249 281.32 686.067 281.873 679.378 282.393 679.378 282.393 679.378 282.393 676.9 286.52 676.037 287.434 675.485 288.035 676.073 291.39 676.479 292.573 677.913 297.003 682.989 298.209 686.339 298.555L688.51 298.374 697.646 290.454C697.646 290.454 687.518 278.237 692.474 275.287Z" fill="url(#paint98_linear_605_45436)"/><path d="M676.949 300.328 675.892 306.725C677.621 307.146 685.686 307.624 694.023 303.826 701.739 300.311 708.391 288.944 711.84 285.824 709.546 280.169 692.32 296.383 692.32 296.383L676.949 300.328Z" fill="url(#paint99_linear_605_45436)"/><path d="M675.216 299.79 673.156 306.054C674.797 306.741 682.611 308.381 691.442 305.94 699.613 303.682 709.246 297.37 713.142 294.831 711.765 288.886 689.378 299.106 689.378 299.106L675.216 299.79Z" fill="url(#paint100_linear_605_45436)"/><path d="M673.62 298.727 671.627 306.021C673.176 306.898 679.141 310.792 688.199 309.415 696.581 308.141 702.304 304.599 707.113 303.089 706.451 297.022 687.837 303.313 687.837 303.313L673.62 298.727Z" fill="url(#paint101_linear_605_45436)"/><path d="M268.834 275.828C262.836 281.156 254.258 288.645 254.625 291.463 255.3 296.646 263.168 304.729 265.972 307.113 267.188 308.148 272.192 309.033 277.95 309.648 285.462 310.45 292.894 307.76 296.243 307.376 297.757 307.202 310.267 306.656 310.253 306.725L313.887 289.33 304.798 289.528C304.798 289.528 288.288 276.1 285.922 275.287 283.898 274.698 276.967 274.509 272.404 275.287 270.99 275.529 267.532 278.844 272.644 281.32 273.826 281.873 280.515 282.393 280.515 282.393 280.515 282.393 282.992 286.52 283.855 287.434 284.408 288.035 283.82 291.39 283.414 292.573 281.98 297.003 276.903 298.209 273.554 298.555L271.383 298.374 262.246 290.454C262.246 290.454 273.79 278.777 268.834 275.828Z" fill="url(#paint102_linear_605_45436)"/><path d="M282.944 300.328 284 306.725C282.271 307.146 274.206 307.624 265.869 303.826 258.154 300.311 251.502 288.944 248.053 285.824 250.347 280.169 267.572 296.383 267.572 296.383L282.944 300.328Z" fill="url(#paint103_linear_605_45436)"/><path d="M284.677 299.79 286.737 306.054C285.095 306.741 277.281 308.381 268.451 305.94 260.279 303.682 250.647 297.37 246.75 294.831 248.127 288.886 270.515 299.106 270.515 299.106L284.677 299.79Z" fill="url(#paint104_linear_605_45436)"/><path d="M286.272 298.727 288.265 306.021C286.717 306.898 280.751 310.792 271.694 309.415 263.312 308.141 257.589 304.599 252.779 303.089 253.442 297.022 272.056 303.313 272.056 303.313L286.272 298.727Z" fill="url(#paint105_linear_605_45436)"/><g filter="url(#filter0_f_605_45436)"><path d="M827.488 348.981C876.653 366.213 937.208 319.827 962.357 298.964 946.739 284.515 915.82 261.139 896.376 228.348 896.376 228.348 843.551 275.164 766.455 257.149 755.572 255.127 781.8 336.754 827.488 348.981Z" fill="url(#paint106_linear_605_45436)"/><path d="M815.082 317.66C796.226 321.373 783.315 311.13 783.315 311.13 783.315 311.13 792.344 326.388 807.478 338.089 816.859 345.305 824.519 348.013 824.519 348.013 824.519 348.013 810.431 331.216 815.082 317.66Z" fill="url(#paint107_linear_605_45436)"/></g><g filter="url(#filter1_f_605_45436)"><path d="M828.243 460.227C895.404 464.31 970.59 396.127 994.319 361.518 994.508 360.475 921.364 299.586 870.827 286.443 870.827 286.443 822.044 362.966 720.021 368.087 706.087 369.443 767.338 461.48 828.243 460.227Z" fill="url(#paint108_linear_605_45436)"/><path d="M826.2 425.364C807.778 448.407 785.706 447.706 785.706 447.706 785.706 447.706 805.817 463.045 835.399 460.517 854.68 459.607 863.026 456.603 863.026 456.603 863.026 456.603 832.489 447.831 826.2 425.364Z" fill="url(#paint109_linear_605_45436)"/></g></g></svg>