<svg fill="none" height="555" viewBox="0 0 555 555" width="555" xmlns="http://www.w3.org/2000/svg" xmlns:xlink="http://www.w3.org/1999/xlink"><linearGradient id="lg1"><stop offset="0" stop-color="#77a7ff"/><stop offset="1" stop-color="#bdd4ff"/></linearGradient><linearGradient id="paint23_linear_903_30147" gradientUnits="userSpaceOnUse" x1="235.191" x2="396.585" xlink:href="#lg1" y1="48.45" y2="48.45"/><linearGradient id="lg2"><stop offset="0" stop-color="#233b67"/><stop offset=".998" stop-color="#565378"/></linearGradient><linearGradient id="paint33_linear_903_30147" gradientUnits="userSpaceOnUse" x1="125.362" x2="245.495" xlink:href="#lg2" y1="304.094" y2="304.094"/><linearGradient id="lg3"><stop offset="0" stop-color="#27ae56"/><stop offset=".999" stop-color="#d9e9de"/></linearGradient><linearGradient id="paint5_linear_903_30147" gradientUnits="userSpaceOnUse" x1="396.031" x2="373.135" xlink:href="#lg3" y1="428.144" y2="378.267"/><linearGradient id="paint6_linear_903_30147" gradientUnits="userSpaceOnUse" x1="426.957" x2="425.224" xlink:href="#lg3" y1="437.747" y2="405.693"/><linearGradient id="paint7_linear_903_30147" gradientUnits="userSpaceOnUse" x1="395.488" x2="449.82" xlink:href="#lg3" y1="428.709" y2="393.065"/><linearGradient id="paint8_linear_903_30147" gradientUnits="userSpaceOnUse" x1="401.211" x2="389.949" xlink:href="#lg3" y1="444.708" y2="403.494"/><linearGradient id="paint11_linear_903_30147" gradientUnits="userSpaceOnUse" x1="127.126" x2="104.23" xlink:href="#lg3" y1="430.301" y2="380.424"/><linearGradient id="paint12_linear_903_30147" gradientUnits="userSpaceOnUse" x1="158.052" x2="156.319" xlink:href="#lg3" y1="439.904" y2="407.85"/><linearGradient id="paint13_linear_903_30147" gradientUnits="userSpaceOnUse" x1="126.583" x2="180.915" xlink:href="#lg3" y1="430.866" y2="395.222"/><linearGradient id="paint14_linear_903_30147" gradientUnits="userSpaceOnUse" x1="132.306" x2="121.044" xlink:href="#lg3" y1="446.865" y2="405.651"/><linearGradient id="paint16_linear_903_30147" gradientUnits="userSpaceOnUse" x1="264" x2="263" y1="421.5" y2="476.5"><stop offset="0" stop-color="#27ae56"/><stop offset=".203" stop-color="#4fbb74"/><stop offset=".708" stop-color="#b1dcc0" stop-opacity=".57"/><stop offset=".999" stop-color="#d9e9de" stop-opacity="0"/></linearGradient><linearGradient id="lg4"><stop offset="0" stop-color="#4687ff"/><stop offset=".999" stop-color="#77a7ff"/></linearGradient><linearGradient id="paint20_linear_903_30147" gradientUnits="userSpaceOnUse" x1="374.049" x2="300.265" xlink:href="#lg4" y1="224.334" y2="110.022"/><linearGradient id="paint21_linear_903_30147" gradientUnits="userSpaceOnUse" x1="348.281" x2="312.627" xlink:href="#lg1" y1="50.08" y2="54.617"/><linearGradient id="paint22_linear_903_30147" gradientUnits="userSpaceOnUse" x1="247.441" x2="360.994" xlink:href="#lg4" y1="61.195" y2="61.195"/><linearGradient id="paint24_linear_903_30147" gradientUnits="userSpaceOnUse" x1="227.668" x2="368.324" xlink:href="#lg4" y1="122.41" y2="122.41"/><linearGradient id="paint25_linear_903_30147" gradientUnits="userSpaceOnUse" x1="198.246" x2="375.775" xlink:href="#lg4" y1="85.113" y2="85.113"/><linearGradient id="paint26_linear_903_30147" gradientUnits="userSpaceOnUse" x1="213.762" x2="295.041" xlink:href="#lg1" y1="167.884" y2="167.884"/><linearGradient id="paint2_linear_903_30147" gradientUnits="userSpaceOnUse" x1="256.517" x2="281.12" xlink:href="#lg1" y1="505.878" y2="183.581"/><linearGradient id="paint28_linear_903_30147" gradientUnits="userSpaceOnUse" x1="198.925" x2="271.121" xlink:href="#lg1" y1="193.69" y2="193.69"/><linearGradient id="paint29_linear_903_30147" gradientUnits="userSpaceOnUse" x1="193.151" x2="431.439" xlink:href="#lg1" y1="90.047" y2="90.047"/><linearGradient id="paint30_linear_903_30147" gradientUnits="userSpaceOnUse" x1="188.457" x2="414.189" xlink:href="#lg1" y1="47.021" y2="47.021"/><linearGradient id="paint31_linear_903_30147" gradientUnits="userSpaceOnUse" x1="222.421" x2="250.248" xlink:href="#lg1" y1="249.946" y2="249.946"/><linearGradient id="paint32_linear_903_30147" gradientUnits="userSpaceOnUse" x1="237.482" x2="250.248" xlink:href="#lg4" y1="247.276" y2="247.276"/><linearGradient id="paint27_linear_903_30147" gradientUnits="userSpaceOnUse" x1="213.306" x2="381.742" xlink:href="#lg1" y1="126.677" y2="126.677"/><linearGradient id="paint34_linear_903_30147" gradientUnits="userSpaceOnUse" x1="148.743" x2="392.273" xlink:href="#lg1" y1="387.836" y2="387.836"/><linearGradient id="paint35_linear_903_30147" gradientUnits="userSpaceOnUse" x1="238.91" x2="211.279" xlink:href="#lg4" y1="273.211" y2="367.944"/><linearGradient id="paint36_linear_903_30147" gradientUnits="userSpaceOnUse" x1="355.312" x2="270.445" xlink:href="#lg4" y1="377.706" y2="386.734"/><linearGradient id="paint37_linear_903_30147" gradientUnits="userSpaceOnUse" x1="122.255" x2="413.161" xlink:href="#lg2" y1="304.001" y2="304.001"/><linearGradient id="paint38_linear_903_30147" gradientUnits="userSpaceOnUse" x1="315.46" x2="253.391" xlink:href="#lg2" y1="289.605" y2="350.433"/><linearGradient id="paint39_linear_903_30147" gradientUnits="userSpaceOnUse" x1="279.843" x2="395.874" xlink:href="#lg2" y1="479.977" y2="479.977"/><linearGradient id="paint40_linear_903_30147" gradientUnits="userSpaceOnUse" x1="144.582" x2="280.813" xlink:href="#lg2" y1="478.089" y2="478.089"/><linearGradient id="paint41_linear_903_30147" gradientUnits="userSpaceOnUse" x1="144.559" x2="395.874" xlink:href="#lg2" y1="490.038" y2="490.038"/><linearGradient id="paint42_linear_903_30147" gradientUnits="userSpaceOnUse" x1="280.294" x2="395.874" xlink:href="#lg2" y1="490.424" y2="490.424"/><linearGradient id="paint43_linear_903_30147" gradientUnits="userSpaceOnUse" x1="219.488" x2="253.421" xlink:href="#lg2" y1="222.591" y2="222.591"/><linearGradient id="paint44_linear_903_30147" gradientUnits="userSpaceOnUse" x1="237.752" x2="253.421" xlink:href="#lg2" y1="222.594" y2="222.594"/><linearGradient id="lg5"><stop offset="0" stop-color="#ffffff"/><stop offset=".14" stop-color="#ffffff" stop-opacity=".78"/><stop offset=".32" stop-color="#ffffff" stop-opacity=".55"/><stop offset=".48" stop-color="#ffffff" stop-opacity=".35"/><stop offset=".64" stop-color="#ffffff" stop-opacity=".2"/><stop offset=".78" stop-color="#ffffff" stop-opacity=".09"/><stop offset=".91" stop-color="#ffffff" stop-opacity=".02"/><stop offset="1" stop-color="#ffffff" stop-opacity="0"/></linearGradient><radialGradient id="paint10_radial_903_30147" cx="0" cy="0" gradientTransform="matrix(154.57112 21.85837 -14.59274 103.1923 303.437 210.08)" gradientUnits="userSpaceOnUse" r="1" xlink:href="#lg5"/><radialGradient id="paint3_radial_903_30147" cx="424.028" cy="85.208" gradientUnits="userSpaceOnUse" r="440.624"><stop offset=".01" stop-color="#ffffff" stop-opacity=".3"/><stop offset=".86" stop-color="#e7efff"/></radialGradient><linearGradient id="lg6"><stop offset="0" stop-color="#305eb2" stop-opacity=".3"/><stop offset=".102" stop-color="#3461b3" stop-opacity=".255"/><stop offset=".198" stop-color="#3f6ab8" stop-opacity=".213"/><stop offset=".291" stop-color="#5279bf" stop-opacity=".172"/><stop offset=".383" stop-color="#6d8dc9" stop-opacity=".132"/><stop offset=".474" stop-color="#8fa8d5" stop-opacity=".092"/><stop offset=".564" stop-color="#b9c9e5" stop-opacity=".053"/><stop offset=".652" stop-color="#ebeff7" stop-opacity=".015"/><stop offset=".685" stop-color="#ffffff" stop-opacity="0"/></linearGradient><radialGradient id="paint17_radial_903_30147" cx="0" cy="0" gradientTransform="matrix(142.30835 30.63767 -9.11913 42.35729 219.484 503.201)" gradientUnits="userSpaceOnUse" r="1" xlink:href="#lg6"/><radialGradient id="paint18_radial_903_30147" cx="0" cy="0" gradientTransform="matrix(154.57112 21.85837 -14.59274 103.1923 335.431 103.182)" gradientUnits="userSpaceOnUse" r="1" xlink:href="#lg5"/><radialGradient id="paint19_radial_903_30147" cx="0" cy="0" gradientTransform="matrix(151.82393165 -30.54965576 9.09289544 45.18935158 320.110986 509.240965)" gradientUnits="userSpaceOnUse" r="1" xlink:href="#lg6"/><radialGradient id="paint15_radial_903_30147" cx="0" cy="0" gradientTransform="matrix(313.208 0 0 200.342 287.025 410.839)" gradientUnits="userSpaceOnUse" r="1"><stop offset="0" stop-color="#305eb2" stop-opacity=".5"/><stop offset=".86" stop-color="#edf3ff" stop-opacity="0"/></radialGradient><radialGradient id="paint4_radial_903_30147" cx="276.303" cy="487.381" gradientUnits="userSpaceOnUse" r="333.021"><stop offset="0" stop-color="#ffffff"/><stop offset=".86" stop-color="#e7efff"/></radialGradient><radialGradient id="paint0_radial_903_30147" cx="268.355" cy="271.247" gradientUnits="userSpaceOnUse" r="279.279"><stop offset="0" stop-color="#4687ff"/><stop offset=".24" stop-color="#4888ff" stop-opacity=".99"/><stop offset=".38" stop-color="#4e8cff" stop-opacity=".96"/><stop offset=".49" stop-color="#5a94ff" stop-opacity=".91"/><stop offset=".58" stop-color="#699eff" stop-opacity=".83"/><stop offset=".756" stop-color="#7eabff" stop-opacity=".73"/><stop offset=".834" stop-color="#97bbff" stop-opacity=".61"/><stop offset=".88" stop-color="#b5cfff" stop-opacity=".46"/><stop offset=".939" stop-color="#d7e5ff" stop-opacity=".3"/><stop offset="1" stop-color="#ffffff" stop-opacity=".1"/></radialGradient><radialGradient id="paint1_radial_903_30147" cx="273.487" cy="243.72" gradientUnits="userSpaceOnUse" r="207.477"><stop offset="0" stop-color="#bdd4ff"/><stop offset="1" stop-color="#e7efff"/></radialGradient><radialGradient id="paint9_radial_903_30147" cx="0" cy="0" gradientTransform="matrix(220.26548959 -9.2588172 4.78127235 113.74555442 253.258242 324.184727)" gradientUnits="userSpaceOnUse" r="1" xlink:href="#lg5"/><clipPath id="clip0_903_30147"><path d="M0 0h555v555H0z"/></clipPath><g clip-path="url(#clip0_903_30147)"><path d="M552-1H-3v431.05h555V-1z" fill="url(#paint0_radial_903_30147)"/><path d="M499.9 283.51c0-125.05-101.37-226.42-226.42-226.42-125.05 0-226.42 101.37-226.42 226.42-.06 53.79 19.08 105.85 54.02 146.77l344.68.06c35.06-40.86 54.25-92.98 54.14-146.83z" fill="url(#paint1_radial_903_30147)"/><path d="M492.26 283.88c0-120.85-97.98-218.83-218.83-218.83-120.85 0-218.78 97.98-218.78 218.83-.06 54.59 20.29 107.18 57.12 147.46h323.36c36.84-40.29 57.24-92.92 57.13-147.46z" fill="url(#paint2_linear_903_30147)"/><path d="M434.96 431.34c7.01-7.87 13.68-15.11 19.54-23.85l4.31-6.61 4.02-6.78.98-1.72.92-1.72 1.84-3.45 1.84-3.45c.57-1.15 1.15-2.36 1.67-3.56l1.67-3.56.8-1.84c.29-.57.52-1.21.75-1.78l3.05-7.24c1.78-4.88 3.68-9.83 5.17-14.83l1.15-3.74.29-.92.23-.98.52-1.9c.63-2.53 1.38-5.06 1.95-7.59l1.61-7.7c.11-.63.29-1.26.4-1.9l.29-1.95.63-3.85.63-3.85.46-3.91.46-3.91c.11-1.32.34-2.59.4-3.91l.52-7.82c.11-1.32.11-2.59.11-3.91l.06-3.91.06-3.91-.11-3.91c-.06-2.59-.11-5.23-.23-7.82-.46-5.17-.69-10.4-1.49-15.57l-.52-3.91-.23-1.95-.34-1.95-1.38-7.7c-.17-1.26-.57-2.53-.86-3.85l-.92-3.79-.86-3.79-1.09-3.79c-2.82-10.06-6.32-19.94-10.63-29.48-1.09-2.36-2.18-4.77-3.28-7.13l-3.62-6.95-.92-1.72c-.29-.57-.63-1.15-.98-1.72l-1.95-3.39c-1.32-2.24-2.59-4.54-4.02-6.72l-4.25-6.61-4.54-6.38c-1.49-2.18-3.16-4.14-4.77-6.21-1.61-2.07-3.22-4.14-5-6.09-1.78-1.95-3.45-3.97-5.17-5.92l-5.46-5.69-1.38-1.44c-.46-.46-.92-.92-1.44-1.38l-2.87-2.7-2.87-2.7-.63-.69-.75-.63-1.49-1.26c-2.01-1.72-3.97-3.45-5.98-5.11l-6.21-4.83-1.55-1.21c-.52-.4-1.03-.75-1.61-1.15l-3.22-2.3-3.22-2.24c-.52-.4-1.09-.75-1.61-1.09l-1.67-1.03c-2.18-1.38-4.42-2.82-6.61-4.2l-6.84-3.91-1.72-.98c-.57-.34-1.15-.63-1.72-.92l-3.51-1.78-3.45-1.78-.86-.46-.92-.4-1.78-.8c-2.41-1.09-4.77-2.18-7.18-3.22l-7.36-2.87c-2.41-1.03-4.94-1.78-7.41-2.64-2.47-.86-4.94-1.72-7.47-2.41l-7.59-2.13-7.64-1.78-1.9-.46c-.63-.17-1.26-.29-1.9-.4l-3.85-.69-3.91-.69-1.95-.34c-.63-.11-1.32-.17-1.95-.23l-7.82-.98c-1.32-.17-2.59-.23-3.91-.34l-3.91-.29-3.74-.17c-1.32-.11-2.64-.06-3.91-.11l-7.87-.17-7.87.23c-1.32.06-2.64.06-3.91.11l-3.91.29-3.91.29c-1.32.11-2.64.17-3.91.34l-7.82.98c-.63.06-1.32.17-1.95.23l-1.95.34-3.91.69-3.85.69c-.63.11-1.26.23-1.95.4l-1.9.46-7.7 1.78-7.59 2.13c-2.53.63-5 1.55-7.47 2.41-2.47.86-5 1.61-7.41 2.64l-7.36 2.87c-2.41 1.03-4.77 2.13-7.18 3.22l-1.78.8-.92.4-.86.46-3.51 1.78-3.51 1.78c-.57.29-1.15.57-1.72.92l-1.72.98-6.84 3.91c-2.24 1.38-4.42 2.82-6.61 4.2l-1.67 1.03c-.57.34-1.09.69-1.61 1.09l-3.22 2.24-3.22 2.3c-.52.4-1.09.75-1.61 1.15l-1.55 1.15-6.21 4.83c-2.01 1.67-3.97 3.39-5.98 5.11l-1.49 1.26-.75.63-.69.69-2.87 2.7-2.87 2.7c-.46.46-.98.86-1.44 1.38l-1.32 1.44-5.46 5.69c-1.72 1.95-3.45 3.97-5.17 5.92-1.72 1.95-3.33 4.02-4.94 6.09-1.61 2.07-3.28 4.08-4.77 6.21l-4.54 6.38-4.25 6.61c-1.49 2.18-2.76 4.48-4.08 6.72l-1.95 3.39c-.34.57-.69 1.15-.98 1.72l-.92 1.72-3.62 6.95c-1.09 2.36-2.18 4.77-3.28 7.13-4.25 9.54-7.82 19.37-10.57 29.48l-1.09 3.79-.92 3.79-.86 3.79c-.29 1.26-.63 2.53-.86 3.85l-1.38 7.7-.34 1.95-.23 1.95-.52 3.91c-.8 5.17-1.03 10.4-1.49 15.57-.11 2.59-.17 5.23-.23 7.82l-.11 3.91.06 3.91.06 3.91c0 1.32 0 2.59.11 3.91l.52 7.82c.06 1.32.23 2.59.4 3.91l.46 3.91.46 3.91.63 3.85.63 3.85.29 1.95c.11.63.29 1.26.4 1.9l1.61 7.7c.57 2.53 1.32 5.06 1.95 7.59l.52 1.9.23.98.29.92 1.15 3.74c1.49 5.06 3.33 9.94 5.17 14.83l3.05 7.24c.23.57.52 1.21.75 1.84l.86 1.78 1.67 3.56c.57 1.21 1.09 2.36 1.67 3.56l1.84 3.45 1.84 3.45.92 1.72.98 1.72 4.02 6.78 4.31 6.61c5.86 8.73 12.13 15.98 19.14 23.85-7.13-7.76-13.5-14.94-19.48-23.56l-4.37-6.55-4.08-6.72-1.03-1.67-.92-1.72-1.9-3.45-1.9-3.45c-.57-1.15-1.15-2.36-1.72-3.56l-1.72-3.56-.86-1.78c-.29-.57-.52-1.21-.8-1.78l-3.1-7.24c-1.84-4.94-3.79-9.83-5.34-14.83l-1.21-3.74-.29-.92-.23-.98-.52-1.9c-.69-2.53-1.44-5.06-2.07-7.64l-1.72-7.7c-.11-.63-.29-1.26-.4-1.95l-.34-1.95-.69-3.91-.69-3.91-.52-3.91-.46-3.91c-.17-1.32-.34-2.59-.4-3.91l-.57-7.87c-.11-1.32-.11-2.64-.17-3.97l-.11-3.97-.11-3.97.06-3.97c.06-2.64.11-5.29.23-7.87.4-5.23.63-10.52 1.38-15.75l.46-3.91.23-1.95.34-1.95 1.38-7.82c.17-1.32.52-2.59.8-3.85l.86-3.85.86-3.85 1.03-3.79c2.76-10.17 6.26-20.17 10.52-29.83a215.243 215.243 0 0 1 33.45-53.62c1.72-2.01 3.45-4.02 5.17-5.98l5.46-5.75 1.38-1.44c.46-.46.98-.92 1.44-1.38l2.87-2.76 2.87-2.76.69-.69.75-.63 1.49-1.32c2.01-1.72 3.97-3.51 6.03-5.17l6.26-4.94 1.55-1.21c.52-.4 1.09-.8 1.61-1.15l3.22-2.3 3.22-2.3c.52-.4 1.09-.75 1.67-1.09l1.67-1.09c2.24-1.44 4.48-2.87 6.72-4.31l6.9-3.97 1.72-.98c.57-.34 1.15-.63 1.78-.92l3.56-1.84 3.56-1.84.86-.46.92-.4 1.84-.8c2.41-1.09 4.83-2.18 7.24-3.28l7.41-2.93c2.47-1.03 5-1.78 7.53-2.64 2.53-.86 5-1.78 7.59-2.41l7.7-2.18 7.76-1.78 1.95-.46c.63-.17 1.26-.29 1.95-.4l3.91-.69 3.91-.69 1.95-.34c.63-.11 1.32-.17 1.95-.29l7.93-1.03c1.32-.17 2.64-.29 3.97-.34l3.97-.29 3.97-.29c1.32-.11 2.64-.06 3.97-.11l7.99-.23 7.99.23c1.32.06 2.64.06 3.97.11l3.97.29 3.97.29c1.32.11 2.64.17 3.97.34l7.93 1.03c.63.06 1.32.17 1.95.29l1.95.34 3.91.69 3.91.69c.69.11 1.32.23 1.95.4l1.95.46 7.76 1.78 7.7 2.13c2.59.69 5.06 1.61 7.59 2.41 2.53.8 5.06 1.67 7.53 2.64l7.41 2.93c2.41 1.09 4.83 2.18 7.3 3.28l1.84.8.92.4.86.46 3.56 1.84 3.56 1.84c.57.29 1.21.57 1.78.92l1.72.98 6.9 3.97c2.24 1.38 4.48 2.87 6.72 4.25l1.67 1.09c.57.34 1.09.69 1.67 1.09l3.22 2.3 3.22 2.3c.52.4 1.09.75 1.61 1.15l1.55 1.21 6.26 4.94c2.01 1.72 4.02 3.45 6.03 5.17l1.49 1.32.75.69.69.69 2.87 2.76 2.87 2.76c.46.46.98.92 1.44 1.38l1.38 1.44 5.46 5.75c1.72 2.01 3.45 4.02 5.17 5.98a218.597 218.597 0 0 1 33.45 53.62c4.25 9.65 7.76 19.65 10.52 29.83l1.03 3.79.86 3.85.86 3.85c.29 1.26.63 2.59.8 3.85l1.38 7.76.34 1.95.23 1.95.46 3.91c.75 5.23.98 10.46 1.38 15.75.11 2.64.11 5.29.17 7.87l.11 3.97-.11 3.97-.11 3.97c-.06 1.32-.06 2.64-.17 3.97l-.57 7.87c-.06 1.32-.29 2.64-.4 3.91l-.46 3.91-.46 3.91-.69 3.91-.69 3.91-.34 1.95c-.11.63-.29 1.26-.4 1.95l-1.72 7.7c-.63 2.59-1.38 5.06-2.01 7.64l-.52 1.9-.29.92-.29.92-1.21 3.79c-1.55 5.06-3.45 9.94-5.34 14.83l-3.1 7.24c-.29.57-.52 1.21-.8 1.78l-.86 1.78-1.72 3.56c-.57 1.15-1.15 2.36-1.72 3.56l-1.9 3.45-1.9 3.45-.92 1.72-1.03 1.72-4.08 6.78-4.37 6.55c-5.6 8.56-12.44 15.75-19.51 23.45z" fill="url(#paint3_radial_903_30147)"/><path d="M444.32 430.34c.11-.11.63-.75.69-.86 80.74-94.76 69.36-236.99-25.4-317.73-94.76-80.74-236.99-69.36-317.73 25.4-71.09 83.44-71.83 205.9-1.78 290.21.46.57.98 1.15 1.44 1.72l1.09 1.26h-3.05c-81.2-96.03-69.13-239.69 26.89-320.89 96.03-81.2 239.69-69.13 320.89 26.89 71.78 84.88 71.72 209.18-.06 294.06l-2.98-.06z" fill="url(#paint4_radial_903_30147)"/><path d="M382.52 433.35c-11.54-10.88-20.77-24.2-26.92-38.82-1.6-3.81-3.01-7.79-3.13-11.92-.12-4.13 1.24-8.48 4.38-11.16 3.36-2.86 8.33-3.38 12.51-1.98 4.19 1.4 7.65 4.48 10.25 8.05 2.61 3.56 4.45 7.62 6.27 11.64-1.07-2.74-2.17-5.59-1.92-8.52.25-2.93 2.28-5.93 5.2-6.26 2.74-.31 5.28 1.86 6.33 4.41 1.05 2.55.95 5.41.84 8.17.34-1.67 2.56-2.45 4.1-1.72 1.54.73 2.36 2.52 2.43 4.22.07 1.7-.47 3.37-1.01 4.99-.53 1.62-1.07 3.29-.98 4.99.07 1.36.53 2.67.68 4.02.51 4.57-2.52 8.71-5.38 12.31l-13.65 17.58z" fill="url(#paint5_linear_903_30147)"/><path d="M408.39 425.87a28.18 28.18 0 0 1 -5.95-11.02c-.78-2.82-.98-6.2 1.05-8.32 1.43-1.5 3.73-1.97 5.75-1.51 2.02.46 3.78 1.75 5.15 3.3 1.38 1.55 2.42 3.37 3.44 5.17.23-1.81.47-3.66 1.25-5.3.79-1.65 2.23-3.09 4.03-3.39 2.31-.38 4.74 1.5 4.95 3.83.91-3.93 3.71-7.47 7.48-8.89 3.77-1.42 8.43-.48 11.07 2.56 2.92 3.36 2.98 8.5 1.26 12.61-1.72 4.11-4.9 7.4-8.08 10.51l-31.4.45z" fill="url(#paint6_linear_903_30147)"/><path d="M395.92 419.07c-1.54-1.06-1.6-3.26-1.5-5.13.19-3.72.4-7.49 1.57-11.02 1.17-3.53 3.45-6.87 6.8-8.48 3.35-1.61 7.85-1.09 10.2 1.8 2.43 3 1.97 7.37 1.01 11.11.33-2.41 3.04-4.09 5.43-3.62 2.39.47 4.2 2.73 4.48 5.15.29 2.42-.78 4.87-2.49 6.61 3.29-.48 6.78.74 9.06 3.15 1.05 1.11 1.84 2.43 2.62 3.74 1.05 1.76 2.13 3.63 2.2 5.68.08 2.77-1.77 5.3-4.1 6.81-2.33 1.5-5.08 2.16-7.78 2.79l-27.5-18.59z" fill="url(#paint7_linear_903_30147)"/><path d="M380.88 425.43c-2.63-.06-4.21-2.92-4.97-5.44-.89-2.96-1.4-6.04-1.53-9.13-.12-2.93.34-6.3 2.78-7.93 2.57-1.72 6.24-.56 8.31 1.73 2.07 2.29 2.92 5.4 3.71 8.38.28-2.58.91-5.28 2.71-7.16 1.8-1.87 5.07-2.53 7-.78 1.72 1.56 1.73 4.22 1.6 6.55 1.1-.97 2.24-1.96 3.62-2.45 1.38-.49 3.09-.36 4.1.69 1.02 1.06.88 3.12-.46 3.73 1.07-.73 2.64-.23 3.43.8s.96 2.4.93 3.69c-.08 4.13-1.93 8.19-4.98 10.98l-26.25-3.66z" fill="url(#paint8_linear_903_30147)"/><path d="M144.58 189.25c66.64-71.3 175.42-77.91 242.99-14.8 67.57 63.11 68.26 172.14 1.62 243.43-66.64 71.29-175.42 77.91-242.99 14.8-67.58-63.11-68.26-172.14-1.62-243.43z" fill="url(#paint9_radial_903_30147)"/><path d="M308.84 329.98c69.86 0 126.49-56.63 126.49-126.49 0-69.86-56.63-126.48-126.49-126.48-69.86 0-126.49 56.63-126.49 126.49 0 69.86 56.64 126.48 126.49 126.48z" fill="url(#paint10_radial_903_30147)"/><path d="M113.62 435.5c-11.54-10.88-20.77-24.2-26.92-38.82-1.6-3.81-3.01-7.79-3.13-11.92-.12-4.13 1.24-8.48 4.38-11.16 3.36-2.86 8.33-3.38 12.51-1.98 4.19 1.4 7.65 4.48 10.25 8.05 2.61 3.56 4.45 7.62 6.27 11.64-1.07-2.74-2.17-5.59-1.92-8.52.25-2.93 2.28-5.93 5.2-6.26 2.74-.31 5.28 1.86 6.33 4.41 1.05 2.55.95 5.41.84 8.17.34-1.67 2.56-2.45 4.1-1.72 1.54.73 2.36 2.52 2.43 4.22.07 1.7-.47 3.37-1.01 4.99-.53 1.62-1.07 3.29-.98 4.99.07 1.36.53 2.67.68 4.02.51 4.57-2.52 8.71-5.38 12.31l-13.65 17.58z" fill="url(#paint11_linear_903_30147)"/><path d="M139.49 428.03a28.18 28.18 0 0 1 -5.95-11.02c-.78-2.82-.98-6.2 1.05-8.32 1.43-1.5 3.73-1.97 5.75-1.51 2.02.46 3.78 1.75 5.15 3.3 1.38 1.55 2.42 3.37 3.44 5.17.23-1.81.47-3.66 1.25-5.3.79-1.65 2.23-3.09 4.03-3.39 2.31-.38 4.74 1.5 4.95 3.83.91-3.93 3.71-7.47 7.48-8.89 3.77-1.42 8.43-.48 11.07 2.56 2.92 3.36 2.98 8.5 1.26 12.61-1.72 4.11-4.9 7.4-8.08 10.51l-31.4.45z" fill="url(#paint12_linear_903_30147)"/><path d="M127.02 421.23c-1.54-1.06-1.6-3.26-1.5-5.13.19-3.72.4-7.49 1.57-11.02 1.17-3.53 3.45-6.87 6.8-8.48 3.36-1.61 7.85-1.09 10.2 1.8 2.43 3 1.97 7.37 1.01 11.11.33-2.41 3.04-4.09 5.43-3.62 2.39.47 4.2 2.73 4.48 5.15.29 2.42-.78 4.87-2.49 6.61 3.29-.48 6.78.74 9.06 3.15 1.05 1.11 1.84 2.43 2.62 3.74 1.05 1.76 2.13 3.63 2.2 5.68.08 2.77-1.77 5.3-4.1 6.81-2.33 1.5-5.08 2.16-7.78 2.79l-27.5-18.59z" fill="url(#paint13_linear_903_30147)"/><path d="M111.97 427.58c-2.63-.06-4.21-2.92-4.97-5.44-.89-2.96-1.4-6.04-1.53-9.13-.12-2.93.34-6.3 2.78-7.93 2.57-1.72 6.24-.56 8.31 1.73 2.07 2.29 2.92 5.4 3.71 8.38.28-2.58.91-5.28 2.71-7.16 1.8-1.87 5.07-2.53 7-.78 1.72 1.56 1.73 4.22 1.6 6.55 1.1-.97 2.24-1.96 3.62-2.45 1.38-.49 3.09-.36 4.1.69 1.02 1.06.88 3.12-.46 3.73 1.07-.73 2.64-.23 3.43.8s.96 2.4.93 3.69c-.08 4.13-1.93 8.19-4.98 10.98l-26.25-3.66z" fill="url(#paint14_linear_903_30147)"/><path d="M575.52 429.67H26.63v121.06h548.89V429.67z" fill="url(#paint15_radial_903_30147)"/><path d="M525.33 483.03 9 483.87l99-54.37 328.57.54 88.76 52.99z" fill="url(#paint16_linear_903_30147)"/><path d="M361.62 533.83c-4.3 20.08-71.42 22.67-149.92 5.76-78.5-16.9-138.64-46.89-134.34-66.97 4.3-20.08 71.42-22.67 149.92-5.76 78.5 16.9 138.64 46.89 134.34 66.97z" fill="url(#paint17_radial_903_30147)" opacity=".9"/><path d="M340.93 223.23c69.86 0 126.49-56.63 126.49-126.49 0-69.86-56.63-126.49-126.49-126.49-69.86 0-126.49 56.63-126.49 126.49 0 69.86 56.63 126.49 126.49 126.49z" fill="url(#paint18_radial_903_30147)"/><path d="M471.74 478.71c4.33 21.42-60.04 52.44-143.79 69.29-83.75 16.85-155.14 13.14-159.48-8.27-4.33-21.42 60.04-52.44 143.79-69.29 83.75-16.85 155.14-13.14 159.48 8.27z" fill="url(#paint19_radial_903_30147)" opacity=".9"/><path d="M412.85 40.34c-7.2-14.13-39.49-15.4-87.75-15.4-41.33 0-101.69 8.91-118.18 33.51-2.77 4.13-4.79 3.69-6.95 6.45-14.08 18.02 19.3 31.8 38.68 38.31-18.84 8.11-1.86 27.97 4.51 32.35-19.38 4.58-20.88 21.13-12.78 25.5-14.83 3.94-21.03 17.33-13.77 25.99 33.56 23.38-18.41 48.08 23.09 56.96-6.85-6.6.58-22.8 10.47-33.59 7.83-9.15 37.52-10.46 38.37-27.56 14.65-.03 34.57-9.35 32.13-22.13 29.27-2.94 41.19-22.79 34.53-31.48 0 0 21.96-5.21 19.66-20.53 37.62-10.13 46.79-51.11 37.99-68.38z" fill="url(#paint20_linear_903_30147)"/><path d="M397.86 51.35c-2.44-15.91-18.51-16.91-66.78-16.91-41.33 0-112.18 24.43-76.29 33.48 10.56 2.66 111.96 11.77 143.07-16.57z" fill="url(#paint21_linear_903_30147)"/><path d="M360.99 61.43c0 6.66-18.65 11.82-52.42 11.82-33.76 0-61.14-5.4-61.14-12.06s27.37-12.06 61.14-12.06c33.77.01 52.42 5.65 52.42 12.3z" fill="url(#paint22_linear_903_30147)"/><path d="M235.23 60.68c1.39 8.42 14.31 10.61 27.71 9.08-28.34-4.59-10.82-13.05 8.39-17.72 18.74-4.56 68.53-16.56 100.92-2.73 7.56 3.23 13 10.65 10.19 13.96 17.83-8.5 16.67-26.75 8.21-29.48-68.46-22.14-157.66 13.36-155.42 26.89z" fill="url(#paint23_linear_903_30147)"/><path d="M368.32 124.5c-46.08 11.35-106.58 3.32-132.23-20.02-15.33 8.54-6.23 24.61-.18 28.77 8.03 6.27 86.74 15.55 132.41-8.75z" fill="url(#paint24_linear_903_30147)"/><path d="M375.78 107.4c-30.32 0-98.55-13.66-110.61-39.34-1.92-4.09-59.27-11.07-61.1-8.73-3.02 3.86-5.99 10.82-5.81 14.31.89 15.58 34.11 28.11 75.63 34.42 39.3 5.99 100.85 2.62 101.89-.66z" fill="url(#paint25_linear_903_30147)"/><path d="M230.3 161.09c-9.5 2.55-15.43 8.98-16.54 15.55 6.6-13.79 66.1-14.23 81.28-12.1-19.95-5.22-45.48-7.24-64.74-3.45z" fill="url(#paint26_linear_903_30147)"/><path d="M263.51 145.2c-55.35-1.42-61.11-28.43-35.82-31.23-25.61 10.66 9.69 20.97 29.83 21.14 30.44.25 72.76.48 100.39-13.7 2.35-1.21 9.75-5.58 11.17-11.04.66-2.52 9.83-3.57 11.63-.59 2.49 4.13.07 8.77-3.24 12.06-6.09 6.08-25.47 25.63-113.96 23.36z" fill="url(#paint27_linear_903_30147)"/><path d="M212.77 206.88c-19.52-2.76-13.53-14.54-10.77-17.02 12.34-11.11 54.54-10.55 69.13-7.31-24.53.62-56.46 6.2-63.02 12.44-7.24 6.88 4.66 11.89 4.66 11.89z" fill="url(#paint28_linear_903_30147)"/><path d="M284.92 116.13c-45.77-5.79-65-12.29-79.35-21.22-14.3-8.91-18.35-27.77-.83-34.41-16.53 15.04 23.98 34.24 85.07 41.67 82.11 9.98 156.59 1.82 128-17.13 43.75 13.01-22.42 45.08-132.89 31.09z" fill="url(#paint29_linear_903_30147)"/><path d="M306.92 77.65c-59.12-.02-96.46-6.76-111-18.34-5.58-4.45-8.12-9.79-7.33-15.45 1.23-8.8 18.29-21.02 68.75-25.99 17.56-1.73 41.12-2.31 64.25.31-18.61-.87-46.7 1.87-63.53 4.59-36.7 5.94-51.26 13.77-47.68 23.61 2.53 6.95 39.03 14.71 96.67 15.29 45.5.45 83.51-8.58 84.38-19.72.39-7.48-19.73-22.36-121.85-12.18 17.35-4.44 71.5-8.74 96.74-7.38 39.66 2.14 48.08 14.79 47.84 21.71-.76 22.42-44.16 33.58-107.24 33.55z" fill="url(#paint30_linear_903_30147)"/><path d="M222.42 271.29l.24-41.78 27.01-.91.58 34.22-27.83 8.47z" fill="url(#paint31_linear_903_30147)"/><path d="M237.48 266.71l12.77-3.88s-.44-32.52-.58-34.22c-.07-.79-5.58-.88-11.61-.64l-.29.13-.29 38.61z" fill="url(#paint32_linear_903_30147)"/><path d="M125.36 352.59l51.17 2.53 68.97-85.88-45.17-16.17-74.97 99.52z" fill="url(#paint33_linear_903_30147)"/><path d="M149.58 486.72s122.76 22.82 128.44 22.49c5.68-.32 114.57-19.22 114.25-22.63-.32-3.41-1.35-138.15-2.81-143.83-.79-3.08-40.34-55.58-65.31-76.21l-114.71-.09c-14.77 14.03-60.69 72.59-60.69 72.59l.83 147.68z" fill="url(#paint34_linear_903_30147)"/><path d="M222.39 266.46l-14.11.08c-16.95 18.93-59.54 72.49-59.54 72.49s.41 7.31.08 14.71c3.55-3.33 58.32-64.94 58.32-64.94l69.61 67.81 14.65-20.09c.01.01-44.66-50.41-69.01-70.06z" fill="url(#paint35_linear_903_30147)"/><path d="M324.15 266.55l-111.17 2.33c21.74 23.34 62.93 67.85 63.47 70.73.68 3.59 1.21 147.33 1.29 170.34 8.07-.78 114.86-19.98 114.54-23.35-.32-3.41-1.35-138.15-2.81-143.83-.8-3.09-40.35-55.59-65.32-76.22z" fill="url(#paint36_linear_903_30147)"/><path d="M291.97 359.02l-89.41-93.87s-69.8 87.74-72.87 87.74c-3.72 0-7.44-.37-7.44-.37l77.88-103.54 134.02 2.97 79 95.54-121.18 11.53z" fill="url(#paint37_linear_903_30147)"/><path d="M300.08 358.59c27.15-1.49 113.08-11.09 113.08-11.09l-79-95.54-134.02-2.97s99.49 103.72 99.93 109.49c.01.03.01.07.01.11z" fill="url(#paint38_linear_903_30147)"/><path d="M279.84 488.52l112.09-20.41-.04-.83 3.98 1.41-14.12 7.07-101.49 16.91-.42-4.15z" fill="url(#paint39_linear_903_30147)"/><path d="M280.81 489.33l-.55-.93-130.74-20.61v-.94l-4.94 1.08 2.54 1.37-1.45 3.01 135.14 17.02z" fill="url(#paint40_linear_903_30147)"/><path d="M395.87 468.69s-111.53 20.45-115.43 20.45c-1.43 0-112.83-17.73-135.88-21.22v22.46c22.76 3.88 135.74 21.78 135.74 21.78l115.39-24.69.18-18.78z" fill="url(#paint41_linear_903_30147)"/><path d="M280.29 512.16c8.3-1 115.39-24.69 115.39-24.69l.19-18.77s-109.15 19.96-115.27 20.44c-.11 8.41-.24 18.19-.31 23.02z" fill="url(#paint42_linear_903_30147)"/><path d="M219.49 229.78l33.93-.17-.45-14.21-33.23.03-.25 14.35z" fill="url(#paint43_linear_903_30147)"/><path d="M253.42 215.4s-9.56.01-15.67 0v14.39c6.84.04 15.67-.12 15.67-.12V215.4z" fill="url(#paint44_linear_903_30147)"/><g fill="#ffffff"><path d="M214.78 346.41c20.53.46 38.5 12.02 51.9 30.72.69.92 1.22 2.26 1.21 3.93-.01 1.67-.44 2.79-1.26 3.88l-5.8 7.68c-.83 1.1-1.86 1.63-2.88 1.61-1.03-.02-2.05-.6-2.86-1.74-10.15-14.16-24.46-23.41-40.46-23.77-16.01-.36-30.44 8.26-40.81 21.97-.83 1.1-1.86 1.64-2.88 1.61-1.03-.02-2.05-.61-2.86-1.74l-5.68-7.93c-.81-1.14-1.22-2.26-1.21-3.93.01-1.67.43-2.78 1.26-3.88 13.25-18.12 31.8-28.87 52.33-28.41z"/><path d="M214.72 391.03c11.49.26 21.3 6.62 28.61 16.82 1.62 2.27 1.6 5.61-.06 7.81l-5.8 7.68c-.83 1.1-1.86 1.64-2.88 1.61-1.03-.02-2.05-.61-2.86-1.74-4.48-5.67-10.6-9.71-17.17-9.86-6.57-.15-12.75 3.06-17.31 9.09-.83 1.1-1.86 1.64-2.88 1.61-1.03-.02-2.05-.61-2.86-1.74l-5.68-7.93c-1.63-2.27-1.6-5.6.06-7.81 7.44-9.87 17.34-15.8 28.83-15.54zm-.04 44.63c4.54.1 8.18 5.18 8.13 11.34-.05 6.16-3.76 11.08-8.3 10.98-4.53-.1-8.17-5.18-8.12-11.34.05-6.16 3.76-11.08 8.29-10.98zm72.89 24.02.14 4.57-4.21.73-.15-4.56 4.22-.74z"/><path d="M344.43 449.72l.14 4.57-4.21.74-.15-4.57 4.22-.74zm-31.59 5.53.14 4.57-4.21.74-.14-4.57 4.21-.74z" opacity=".831"/><path d="M369.7 445.3l.15 4.57-4.22.73-.14-4.57 4.21-.73z"/></g><path d="M357.06 447.51l.15 4.57-4.22.74-.14-4.57 4.21-.74z" fill="#9ed9b0" opacity=".831"/><path d="M325.47 453.04l.15 4.57-4.21.74-.15-4.57 4.21-.74z" fill="#ffffff"/><path d="M293.88 458.57l.15 4.57-4.21.74-.14-4.57 4.2-.74z" fill="#9ed9b0" opacity=".831"/><path d="M350.74 448.62l.15 4.57-4.21.73-.15-4.57 4.21-.73z" fill="#ffffff" opacity=".831"/><path d="M363.38 446.4l.15 4.57-4.21.74-.15-4.57 4.21-.74zm-18.73 10.18.14 4.56-4.21.74-.15-4.56 4.22-.74zm-31.59 5.53.14 4.56-4.21.74-.15-4.56 4.22-.74z" fill="#ffffff"/><path d="M369.92 452.15l.14 4.57-4.21.73-.14-4.56 4.21-.74zm-69.5 12.17.14 4.57-4.2.73-.15-4.56 4.21-.74zm82.13-14.38.15 4.56-4.22.74-.14-4.56 4.21-.74zm-31.59 5.53.15 4.57-4.21.73-.15-4.56 4.21-.74z" fill="#9ed9b0" opacity=".831"/><path d="M376.24 451.05l.14 4.56-4.21.74-.15-4.56 4.22-.74zm-69.51 12.17.15 4.56-4.21.74-.14-4.57 4.2-.73z" fill="#ffffff"/><path d="M332.01 458.79l.15 4.56-4.21.74-.15-4.56 4.21-.74zm56.86-9.95.14 4.56-4.21.74-.14-4.57 4.21-.73z" fill="#9ed9b0" opacity=".831"/><path d="M288 473.39l.15 4.56-4.21.74-.15-4.57 4.21-.73z" fill="#ffffff" opacity=".831"/><path d="M357.5 461.22l.14 4.57-4.21.73-.15-4.56 4.22-.74z" fill="#ffffff"/><path d="M325.91 466.75l.14 4.57-4.2.73-.15-4.56 4.21-.74z" fill="#9ed9b0" opacity=".831"/><path d="M382.77 456.79l.15 4.57-4.22.74-.14-4.57 4.21-.74zm-88.45 15.49.15 4.57-4.21.74-.15-4.57 4.21-.74zm25.27-4.43.15 4.57-4.22.74-.14-4.57 4.21-.74z" fill="#ffffff"/><path d="M376.45 457.9l.15 4.57-4.21.74-.15-4.57 4.21-.74z" fill="#ffffff" opacity=".831"/><path d="M306.95 470.07l.15 4.57-4.21.73-.14-4.57 4.2-.73z" fill="#ffffff"/><path d="M363.82 460.11l.15 4.57-4.22.74-.14-4.57 4.21-.74z" fill="#9ed9b0" opacity=".831"/><path d="M332.23 465.64l.15 4.57-4.22.74-.14-4.57 4.21-.74zm-45.57-45.22-.04 4.57-4.24.56.04-4.57 4.24-.56z" fill="#ffffff"/><path d="M343.89 412.83l-.05 4.57-4.24.56.05-4.57 4.24-.56zm-31.79 4.22-.05 4.57-4.24.56.05-4.57 4.24-.56z" fill="#ffffff" opacity=".831"/><path d="M369.32 409.46l-.04 4.57-4.24.56.04-4.57 4.24-.56z" fill="#ffffff"/><path d="M356.6 411.15l-.04 4.57-4.24.56.04-4.57 4.24-.56z" fill="#9ed9b0" opacity=".831"/><path d="M324.81 415.36l-.04 4.57-4.24.56.05-4.57 4.23-.56z" fill="#ffffff"/><path d="M293.02 419.57l-.04 4.58-4.24.56.05-4.57 4.23-.57z" fill="#9ed9b0" opacity=".831"/><path d="M350.25 411.99l-.05 4.57-4.24.56.05-4.57 4.24-.56z" fill="#ffffff" opacity=".831"/><path d="M362.97 410.3l-.05 4.57-4.24.57.05-4.58 4.24-.56zm-19.15 9.39-.04 4.57-4.24.56.04-4.57 4.24-.56zm-31.79 4.22-.04 4.56-4.24.56.04-4.56 4.24-.56z" fill="#ffffff"/><path d="M369.26 416.32l-.05 4.57-4.24.56.05-4.57 4.24-.56zm-69.95 9.27-.04 4.57-4.24.56.05-4.57 4.23-.56z" fill="#ffffff" opacity=".831"/><path d="M381.97 414.64l-.04 4.56-4.24.56.04-4.56 4.24-.56z" fill="#ffffff"/><path d="M350.18 418.85l-.04 4.56-4.24.57.04-4.57 4.24-.56zm25.43-3.37-.04 4.56-4.24.56.04-4.56 4.24-.56z" fill="#9ed9b0" opacity=".831"/><path d="M305.67 424.75l-.05 4.56-4.23.57.04-4.57 4.24-.56z" fill="#ffffff"/><path d="M331.11 421.38l-.05 4.56-4.24.56.05-4.56 4.24-.56zm57.22-7.59-.05 4.57-4.24.56.05-4.57 4.24-.56zm-101.8 20.34-.04 4.57-4.24.56.04-4.57 4.24-.56z" fill="#9ed9b0" opacity=".831"/><path d="M356.47 424.86l-.04 4.57-4.24.56.04-4.57 4.24-.56z" fill="#ffffff"/><path d="M324.68 429.07l-.05 4.58-4.23.56.04-4.57 4.24-.57z" fill="#ffffff" opacity=".831"/><path d="M381.9 421.49l-.04 4.57-4.24.56.04-4.57 4.24-.56zm-89.01 11.8-.05 4.57-4.23.56.04-4.57 4.24-.56z" fill="#ffffff"/><path d="M318.32 429.92l-.04 4.57-4.24.56.04-4.57 4.24-.56z" fill="#9ed9b0" opacity=".831"/><path d="M375.55 422.33l-.05 4.57-4.24.56.05-4.57 4.24-.56z" fill="#ffffff" opacity=".831"/><path d="M305.6 431.6l-.04 4.57-4.24.57.05-4.58 4.23-.56z" fill="#ffffff"/><path d="M362.83 424.02l-.04 4.57-4.24.56.04-4.57 4.24-.56z" fill="#9ed9b0" opacity=".831"/><path d="M331.04 428.23l-.04 4.57-4.24.56.04-4.57 4.24-.56zm-44.23-51.08-.19 4.56-4.25.44.18-4.57 4.26-.43z" fill="#ffffff"/><path d="M344.24 371.32l-.18 4.57-4.26.43.19-4.56 4.25-.44zm-31.9 3.24-.19 4.57-4.25.43.18-4.57 4.26-.43z" fill="#ffffff" opacity=".831"/><path d="M369.77 368.74l-.19 4.56-4.25.44.18-4.57 4.26-.43z" fill="#ffffff"/><path d="M357 370.03l-.18 4.57-4.26.43.19-4.57 4.25-.43zm-31.9 3.24-.19 4.56-4.25.43.19-4.56 4.25-.43z" fill="#9ed9b0"/><path d="M293.19 376.5l-.19 4.57-4.24.43.18-4.57 4.25-.43z" fill="#ffffff" opacity=".831"/><path d="M350.62 370.68l-.18 4.56-4.26.44.19-4.57 4.25-.43z" fill="#9ed9b0" opacity=".831"/><path d="M363.39 369.38l-.19 4.57-4.25.43.18-4.57 4.26-.43zm-19.43 8.8-.18 4.56-4.26.43.19-4.56 4.25-.43zm-31.9 3.23-.19 4.57-4.25.43.18-4.56 4.26-.44z" fill="#ffffff"/><path d="M369.49 375.59l-.18 4.56-4.26.43.18-4.56 4.26-.43zm-70.2 7.12-.18 4.56-4.25.43.18-4.56 4.25-.43z" fill="#9ed9b0" opacity=".831"/><path d="M382.25 374.3l-.18 4.56-4.26.43.18-4.56 4.26-.43zm-31.91 3.23-.18 4.56-4.26.43.19-4.56 4.25-.43zm25.53-2.59-.18 4.57-4.26.43.18-4.56 4.26-.44zm-70.2 7.12-.18 4.56-4.25.43.18-4.56 4.25-.43zm25.53-2.59-.18 4.56-4.26.44.19-4.57 4.25-.43zm57.43-5.82-.18 4.56-4.26.43.18-4.56 4.26-.43z" fill="#ffffff"/><path d="M286.26 390.85l-.19 4.57-4.25.43.18-4.57 4.26-.43z" fill="#9ed9b0" opacity=".831"/><path d="M356.45 383.73l-.19 4.57-4.25.43.18-4.57 4.26-.43z" fill="#ffffff"/><path d="M324.54 386.97l-.18 4.57-4.25.43.18-4.57 4.25-.43z" fill="#ffffff" opacity=".831"/><path d="M381.97 381.15l-.18 4.56-4.26.43.19-4.56 4.25-.43z" fill="#9ed9b0"/><path d="M292.64 390.2l-.19 4.57-4.25.43.19-4.57 4.25-.43z" fill="#ffffff"/><path d="M318.16 387.62l-.18 4.56-4.26.43.19-4.56 4.25-.43z" fill="#9ed9b0"/><path d="M375.59 381.79l-.18 4.57-4.26.43.19-4.57 4.25-.43z" fill="#ffffff" opacity=".831"/><path d="M305.4 388.91l-.19 4.57-4.25.43.19-4.57 4.25-.43zm57.43-5.82-.18 4.56-4.26.44.19-4.57 4.25-.43zm-31.9 3.23-.19 4.57-4.25.43.18-4.57 4.26-.43z" fill="#ffffff"/></g></svg>