<svg viewBox="0 0 945 495" xmlns="http://www.w3.org/2000/svg" xmlns:xlink="http://www.w3.org/1999/xlink"><clipPath id="clippath"><path d="M0 0H945V495H0Z"/></clipPath><g clip-path="url(#clippath)"><path d="M-14.75 0H962.31V517.46H-14.75Z" fill="#94d0f8"/><circle cx="472.93" cy="255.67" fill="#3e5fff" r="335.54"/><path d="m533.28 382.75h189.94V102.14c0-11.05-8.96-20.01-20-20.01H242.65c-11.05 0-20.01 8.96-20.01 20.01v280.6h191.22" fill="#3d3d3d"/><path d="m532.13 382.75c0 2.1-.85 4.01-2.23 5.39s-3.29 2.23-5.39 2.23h-103.16c-4.21 0-7.63-3.41-7.63-7.62h118.4Z"/><path d="m699.94 97.46H245.91c-4.34 0-7.85 3.52-7.85 7.86v255.61c0 4.34 3.52 7.86 7.85 7.86h454.03c4.34 0 7.86-3.52 7.86-7.86V105.32c0-4.34-3.52-7.86-7.86-7.86Z" fill="#e2f1ff"/><path d="m532.34 382.75h224.74c0 5.18-2.1 9.87-5.49 13.26-3.4 3.4-8.09 5.5-13.27 5.5H207.54c-10.36 0-18.76-8.4-18.76-18.76h225.01m110.71 7.63c2.1 0 4.01-.86 5.39-2.23 1.38-1.38 2.23-3.29 2.23-5.39h-118.4c0 4.21 3.42 7.63 7.63 7.63h103.16Z" fill="#e2e2e2" fill-rule="evenodd"/><path d="m898.26 417.52v-4.22c0-6.6-5.4-12-12-12H59.64c-6.6 0-12 5.4-12 12v4.22c0 6.6 5.4 12 12 12h50.31l-47.24 129.59 30 5.47 49.6-135.06h672.79l52.63 143.3 30-5.47-50.24-137.84h38.78c6.6 0 12-5.4 12-12Z" fill="#ffffff"/><path d="m532.13 382.86c-.03 2.06-.88 3.92-2.23 5.27-1.38 1.38-3.29 2.24-5.39 2.24h-103.16c-4.17 0-7.57-3.36-7.62-7.52"/><path d="m453.32 368.5c.3 0 .59 0 .89 0" fill="#f7f7f7"/><path d="m626.58 368.8-5.26-73.98c-6.12-100.38-73.86-163.84-151.37-163.84s-138.53 65.5-143.21 167.73l-5.01 70.08"/><path d="m531.15 368.8c51.19-27.54 50.92-102.94 50.92-102.94-.15-44.82-25.27-81.08-56.24-81.08-23.28 0-43.25 20.5-51.8 49.72-.81 2.76-4.69 2.76-5.49 0-8.55-29.22-28.52-49.72-51.8-49.72-30.97 0-56.09 36.27-56.24 81.08 0 0-1.61 73.14 56.64 102.93h114Z" fill="#f7f7f7"/><circle cx="410.31" cy="247.19" r="10.99"/><circle cx="534.54" cy="247.19" r="10.99"/><path d="m452.29 241.67 14.48-10.66c2.62-1.93 6.43-1.93 9.05 0l14.48 10.66c3.27 2.41 3.42 6.81.32 9.4l-14.48 12.05c-2.73 2.27-6.97 2.27-9.7 0l-14.48-12.05c-3.1-2.58-2.95-6.99.32-9.4Z" fill="#ffbc6e"/></g></svg>