<?xml version="1.0" encoding="utf-8"?>
<!-- Generator: Adobe Illustrator 21.1.0, SVG Export Plug-In . SVG Version: 6.00 Build 0)  -->
<svg version="1.1" id="Слой_1" xmlns="http://www.w3.org/2000/svg" xmlns:xlink="http://www.w3.org/1999/xlink" x="0px" y="0px"
	 viewBox="0 0 610.8 80" style="enable-background:new 0 0 610.8 80;" xml:space="preserve">
<style type="text/css">
	.st0{fill:#2F3546;}
	.st1{fill:#03BED7;}
	.st2{fill:#26A6FE;}
	.st3{fill:#DEECF1;}
	.st4{fill:#FE9738;}
	.st5{fill:#FE5694;}
	.st6{fill:#8379C1;}
	.st7{fill:#EDCD4A;}
	.st8{fill:#CD7CBB;}
	.st9{fill:#FD3581;}
	.st10{fill:#6E61B6;}
	.st11{fill:#D6B630;}
	.st12{fill:#C365AF;}
	.st13{fill:#FE860A;}
</style>
<path class="st0" d="M16,70.4c0,2.5-2.1,4.6-4.6,4.6H4.6C2.1,75,0,72.9,0,70.4V9.6C0,7.1,2.1,5,4.6,5h31.3c2.5,0,4.6,2.1,4.6,4.6
	v5.8c0,2.5-2.1,4.6-4.6,4.6H16v14.8h16.9c2.5,0,4.6,2.1,4.6,4.6v5.8c0,2.5-2.1,4.6-4.6,4.6H16V70.4z"/>
<path class="st0" d="M86.9,3.8c21.3,0,37.2,13.9,37.2,36.2c0,21.2-15.9,36.2-37.2,36.2S49.7,62.3,49.7,40
	C49.7,19.7,64.6,3.8,86.9,3.8z M86.9,61.2c13.3,0,20.2-9.4,20.2-21.2c0-12.8-8.9-21.2-20.2-21.2c-11.6,0-20.2,8.4-20.2,21.2
	C66.7,52,75.7,61.2,86.9,61.2z"/>
<path class="st0" d="M151.7,75c-2.5,0-4.6-2.1-4.6-4.6V20h-16.4c-2.5,0-4.6-2.1-4.6-4.6V9.6c0-2.5,2.1-4.6,4.6-4.6h48.8
	c2.5,0,4.6,2.1,4.6,4.6v5.8c0,2.5-2.1,4.6-4.6,4.6h-16.4v50.4c0,2.5-2.1,4.6-4.6,4.6C158.5,75,151.7,75,151.7,75z"/>
<path class="st0" d="M223.3,3.8c21.3,0,37.2,13.9,37.2,36.2c0,21.2-15.9,36.2-37.2,36.2S186.1,62.3,186.1,40
	C186.1,19.7,201,3.8,223.3,3.8z M223.3,61.2c13.3,0,20.2-9.4,20.2-21.2c0-12.8-8.9-21.2-20.2-21.2c-11.6,0-20.2,8.4-20.2,21.2
	C203.1,52,212.1,61.2,223.3,61.2z"/>
<path class="st0" d="M295.4,50.5h-5.9v19.9c0,2.5-2.1,4.6-4.6,4.6h-6.8c-2.5,0-4.6-2.1-4.6-4.6V9.6c0-2.5,2.1-4.6,4.6-4.6
	c6.8-0.1,17.7-0.2,19.2-0.2c19.1,0,25.9,9.5,25.9,22.4c0,13-8,18.3-11.8,20.2l15.4,20.8c0.6,0.8,0.9,1.7,0.9,2.5
	c0,2.2-1.8,4.3-4.4,4.3h-7.4c-2.1,0-4.3-1.1-5.5-2.9L295.4,50.5z M295.3,35.5c6.1,0,10.9-2.2,10.9-8.1c0-3.9-2-7.6-9.7-7.6
	c-2.4,0-3.7,0.1-7,0.2v15.5H295.3z"/>
<path class="st0" d="M353.1,60.3l-4.5,11.4c-0.8,2-2.7,3.3-4.8,3.3h-6.1c-2.5,0-4.3-2.1-4.3-4.3c0-0.6,0.1-1.2,0.3-1.7l25.2-60.7
	c0.9-2,2.8-3.3,4.9-3.3h7.3c2.1,0,4,1.3,4.9,3.3L401.2,69c0.2,0.5,0.3,1.1,0.3,1.7c0,2.2-1.8,4.3-4.3,4.3h-7.1c-2.1,0-4-1.3-4.8-3.3
	l-4.5-11.4H353.1z M359.1,45.3h15.7L367,25.5L359.1,45.3z"/>
<path class="st0" d="M428.5,70.4c0,2.5-2.1,4.6-4.6,4.6h-6.8c-2.5,0-4.6-2.1-4.6-4.6V9.6c0-2.5,2.1-4.6,4.6-4.6h8.4
	c2.1,0,3.9,1.1,5.2,2.8l19.5,26.7l18.4-26.6c1.2-1.8,2.9-2.9,5-2.9h7.5c2.5,0,4.6,2.1,4.6,4.6v60.8c0,2.5-2.1,4.6-4.6,4.6h-6.8
	c-2.5,0-4.6-2.1-4.6-4.6v-40l-14.5,20.4c-1.7,2.3-3.9,3.5-6.1,3.5s-4.4-1.2-6.1-3.5l-14.5-20.1V70.4z"/>
<path class="st0" d="M510.6,56c5.6,0,9.4,4.9,9.4,9.4c0,5.3-3.8,10.2-9.4,10.2c-6.4,0-10.2-4.9-10.2-10.2
	C500.4,60.9,504.2,56,510.6,56z M518.2,43.4c0,2.5-2.1,4.6-4.6,4.6h-6.8c-2.5,0-4.6-2.1-4.6-4.6V9.6c0-2.5,2.1-4.6,4.6-4.6h6.8
	c2.5,0,4.6,2.1,4.6,4.6V43.4z"/>
<g>
	<path class="st1" d="M570.9,0c-22.1,0-40,17.9-40,40s17.9,40,40,40s40-17.9,40-40S593,0,570.9,0z M570.9,65.9
		C556.6,65.9,545,54.3,545,40s11.6-25.9,25.9-25.9s25.9,11.6,25.9,25.9S585.2,65.9,570.9,65.9L570.9,65.9z"/>
	<path class="st2" d="M545,40h-14.1c0,11,4.5,21,11.7,28.3l9.9-9.9C547.9,53.6,545,47.2,545,40z"/>
	<path class="st3" d="M542.6,11.7l9.9,9.9c4.7-4.7,11.2-7.6,18.3-7.6V0C559.9,0,549.9,4.5,542.6,11.7z"/>
	<path class="st4" d="M599.2,68.3l-9.9-9.9c-4.7,4.7-11.2,7.6-18.3,7.6V80C581.9,80,591.9,75.5,599.2,68.3z"/>
	<path class="st5" d="M589.2,58.3l9.9,9.9C606.4,61,610.9,51,610.9,40h-14.1C596.8,47.2,593.9,53.6,589.2,58.3z"/>
	<path class="st6" d="M596.8,40h14.1c0-11-4.5-21-11.7-28.3l-9.9,9.9C593.9,26.4,596.8,32.8,596.8,40z"/>
	<path class="st7" d="M570.9,80V65.9c-7.2,0-13.6-2.9-18.3-7.6l-9.9,9.9C549.9,75.5,559.9,80,570.9,80z"/>
	<path class="st8" d="M570.9,0v14.1c7.2,0,13.6,2.9,18.3,7.6l9.9-9.9C591.9,4.5,581.9,0,570.9,0L570.9,0z"/>
	<path class="st9" d="M610.9,40L610.9,40c0,11-4.5,21-11.7,28.3c0,0,0,0,0,0l-5.4-5.4c0,0,0,0,0,0c2.5-3,4.6-6.4,6.1-10
		c1.7-4,2.8-8.4,3.1-12.9v0L610.9,40L610.9,40z"/>
	<path class="st10" d="M610.9,40L610.9,40l-7.9,0v0c0.1-0.9,0.1-1.8,0.1-2.7c0,0,0,0,0,0c0-8.4-2.6-16.1-7-22.5l3.1-3.1
		C606.4,19,610.9,29,610.9,40z"/>
	<path class="st11" d="M570.9,76.6V80c-6,0-11.6-1.3-16.7-3.6c2.8,0.6,5.8,1,8.9,1C565.7,77.3,568.4,77.1,570.9,76.6z"/>
	<path class="st12" d="M599.2,11.7L599.2,11.7l-3.1,3.1c-1.4-2.1-3-4-4.8-5.7l0,0C588,5.7,584.1,3,579.8,1
		C587.2,2.7,593.9,6.5,599.2,11.7z"/>
	<path class="st13" d="M599.2,68.3C599.2,68.3,599.2,68.3,599.2,68.3c-7.2,7.2-17.2,11.7-28.3,11.7v-3.4c7.9-1.6,15-5.5,20.4-10.9
		c0,0,0,0,0,0c0,0,0,0,0,0c0.9-0.9,1.7-1.8,2.5-2.7c0,0,0,0,0,0L599.2,68.3z"/>
</g>
</svg>
