<?xml version="1.0" standalone="no"?>
<!DOCTYPE svg PUBLIC "-//W3C//DTD SVG 20010904//EN"
 "http://www.w3.org/TR/2001/REC-SVG-20010904/DTD/svg10.dtd">
<svg version="1.0" xmlns="http://www.w3.org/2000/svg"
 width="1024.000000pt" height="1024.000000pt" viewBox="0 0 1024.000000 1024.000000"
 preserveAspectRatio="xMidYMid meet">
<metadata>
Created by potrace 1.11, written by Peter Selinger 2001-2013
</metadata>
<g transform="translate(0.000000,1024.000000) scale(0.100000,-0.100000)"
fill="#000000" stroke="none">
<path d="M4829 10237 c-2 -3 -51 -7 -109 -11 -89 -6 -308 -32 -430 -51 -255
-41 -558 -116 -810 -202 -336 -114 -629 -248 -980 -450 -189 -108 -518 -346
-725 -524 -221 -191 -527 -512 -675 -708 -14 -18 -30 -38 -35 -44 -29 -33
-173 -237 -247 -352 -375 -577 -643 -1267 -748 -1928 -25 -163 -28 -184 -35
-253 -4 -32 -8 -70 -10 -84 -26 -163 -26 -913 0 -1045 2 -11 7 -44 10 -74 21
-204 65 -435 131 -691 288 -1120 973 -2127 1919 -2825 123 -91 335 -233 415
-277 25 -14 70 -40 100 -58 90 -54 416 -214 545 -268 465 -194 921 -310 1450
-369 228 -25 823 -25 1050 0 636 71 1184 229 1740 502 717 353 1354 883 1839
1530 582 776 936 1721 1004 2675 12 169 8 732 -6 870 -98 960 -431 1824 -995
2580 -55 74 -114 151 -131 171 -17 20 -53 62 -81 95 -92 109 -148 168 -304
324 -552 549 -1238 969 -1986 1215 -320 106 -578 164 -980 220 -16 2 -64 7
-105 10 -41 4 -86 9 -100 12 -31 6 -704 15 -711 10z m580 -1811 c20 -3 61 -8
91 -11 494 -51 1020 -244 1450 -530 294 -196 542 -423 764 -700 416 -518 667
-1159 713 -1825 68 -965 -275 -1893 -952 -2574 -102 -104 -276 -258 -314 -280
-9 -5 -25 -18 -36 -29 -11 -10 -83 -61 -160 -112 -621 -416 -1337 -604 -2100
-552 -120 8 -124 9 -300 38 -1349 222 -2437 1282 -2700 2629 -61 315 -78 735
-41 1030 16 130 24 182 36 235 5 22 12 56 15 75 22 129 153 543 185 585 4 6
11 21 15 35 8 26 105 223 145 295 400 717 1072 1273 1855 1533 270 90 573 148
865 165 73 4 430 -1 469 -7z"/>
</g>
</svg>
