<?xml version="1.0" encoding="iso-8859-1"?><!DOCTYPE svg PUBLIC "-//W3C//DTD SVG 1.1//EN" "http://www.w3.org/Graphics/SVG/1.1/DTD/svg11.dtd"><svg xmlns="http://www.w3.org/2000/svg" xmlns:xlink="http://www.w3.org/1999/xlink"><symbol viewBox="0 0 268.832 268.832" id="arrow" xmlns="http://www.w3.org/2000/svg"><path d="M265.171 125.577l-80-80c-4.881-4.881-12.797-4.881-17.678 0-4.882 4.882-4.882 12.796 0 17.678l58.661 58.661H12.5c-6.903 0-12.5 5.597-12.5 12.5 0 6.902 5.597 12.5 12.5 12.5h213.654l-58.659 58.661c-4.882 4.882-4.882 12.796 0 17.678 2.44 2.439 5.64 3.661 8.839 3.661s6.398-1.222 8.839-3.661l79.998-80c4.882-4.882 4.882-12.796 0-17.678z"/></symbol><symbol viewBox="0 0 32 32" id="calendar" xmlns="http://www.w3.org/2000/svg"><path d="M29.334 3H25V1a1 1 0 10-2 0v2h-6V1a1 1 0 10-2 0v2H9V1a1 1 0 10-2 0v2H2.667A2.666 2.666 0 000 5.666v23.667A2.667 2.667 0 002.667 32h26.667A2.666 2.666 0 0032 29.333V5.666A2.665 2.665 0 0029.334 3zM30 29.333a.667.667 0 01-.666.667H2.667A.667.667 0 012 29.333V5.666C2 5.299 2.299 5 2.667 5H7v2a1 1 0 102 0V5h6v2a1 1 0 102 0V5h6v2a1 1 0 102 0V5h4.334c.367 0 .666.299.666.666v23.667z"/><path d="M7 12h4v3H7zM7 17h4v3H7zM7 22h4v3H7zM14 22h4v3h-4zM14 17h4v3h-4zM14 12h4v3h-4zM21 22h4v3h-4zM21 17h4v3h-4zM21 12h4v3h-4z"/></symbol><symbol viewBox="0 0 477.867 477.867" id="copy" xmlns="http://www.w3.org/2000/svg"><path d="M341.333 85.333H51.2c-28.277 0-51.2 22.923-51.2 51.2v290.133c0 28.277 22.923 51.2 51.2 51.2h290.133c28.277 0 51.2-22.923 51.2-51.2V136.533c0-28.277-22.923-51.2-51.2-51.2zM358.4 426.667c0 9.426-7.641 17.067-17.067 17.067H51.2c-9.426 0-17.067-7.641-17.067-17.067V136.533c0-9.426 7.641-17.067 17.067-17.067h290.133c9.426 0 17.067 7.641 17.067 17.067v290.134z"/><path d="M426.667 0h-307.2c-28.277 0-51.2 22.923-51.2 51.2 0 9.426 7.641 17.067 17.067 17.067S102.4 60.626 102.4 51.2s7.641-17.067 17.067-17.067h307.2c9.426 0 17.067 7.641 17.067 17.067v307.2c0 9.426-7.641 17.067-17.067 17.067s-17.067 7.641-17.067 17.067 7.641 17.067 17.067 17.067c28.277 0 51.2-22.923 51.2-51.2V51.2c0-28.277-22.923-51.2-51.2-51.2z"/></symbol><symbol viewBox="0 0 129 129" id="down-arrow" xmlns="http://www.w3.org/2000/svg"><path d="M121.3 34.6c-1.6-1.6-4.2-1.6-5.8 0l-51 51.1-51.1-51.1c-1.6-1.6-4.2-1.6-5.8 0-1.6 1.6-1.6 4.2 0 5.8l53.9 53.9c.8.8 1.8 1.2 2.9 1.2 1 0 2.1-.4 2.9-1.2l53.9-53.9c1.7-1.6 1.7-4.2.1-5.8z"/></symbol><symbol viewBox="0 0 512 512" id="link" xmlns="http://www.w3.org/2000/svg"><path d="M488.727 0H302.545c-12.853 0-23.273 10.42-23.273 23.273s10.42 23.273 23.273 23.273h129.997L192.999 286.09c-9.089 9.089-9.089 23.823 0 32.912a23.195 23.195 0 0016.455 6.816 23.194 23.194 0 0016.457-6.817L465.455 79.458v129.997c0 12.853 10.42 23.273 23.273 23.273s23.273-10.42 23.273-23.273V23.273C512 10.42 501.58 0 488.727 0z"/><path d="M395.636 232.727c-12.853 0-23.273 10.42-23.273 23.273v209.455H46.545V139.636H256c12.853 0 23.273-10.42 23.273-23.273S268.853 93.091 256 93.091H23.273C10.42 93.091 0 103.511 0 116.364v372.364C0 501.58 10.42 512 23.273 512h372.364c12.853 0 23.273-10.42 23.273-23.273V256c-.001-12.853-10.421-23.273-23.274-23.273z"/></symbol><symbol viewBox="0 0 491.858 491.858" id="minus" xmlns="http://www.w3.org/2000/svg"><path d="M465.167 211.613H26.69c-8.424 0-26.69 11.439-26.69 34.316s18.267 34.316 26.69 34.316H465.169c8.421 0 26.689-11.439 26.689-34.316s-18.268-34.316-26.691-34.316z"/></symbol><symbol viewBox="0 0 459.325 459.325" id="plus" xmlns="http://www.w3.org/2000/svg"><path d="M459.319 229.668c0 22.201-17.992 40.193-40.205 40.193H269.85v149.271c0 22.207-17.998 40.199-40.196 40.193-11.101 0-21.149-4.492-28.416-11.763-7.276-7.281-11.774-17.324-11.769-28.419l-.006-149.288H40.181c-11.094 0-21.134-4.492-28.416-11.774C4.501 250.817.006 240.769.006 229.668 0 207.471 17.992 189.475 40.202 189.475h149.267V40.202C189.469 17.998 207.471 0 229.671 0c22.192.006 40.178 17.986 40.19 40.187v149.288h149.282c22.196.012 40.165 17.996 40.176 40.193z"/></symbol><symbol viewBox="0 0 475.2 475.2" id="remove" xmlns="http://www.w3.org/2000/svg"><path d="M405.6 69.6C360.7 24.7 301.1 0 237.6 0s-123.1 24.7-168 69.6S0 174.1 0 237.6s24.7 123.1 69.6 168 104.5 69.6 168 69.6 123.1-24.7 168-69.6 69.6-104.5 69.6-168-24.7-123.1-69.6-168zm-19.1 316.9c-39.8 39.8-92.7 61.7-148.9 61.7s-109.1-21.9-148.9-61.7c-82.1-82.1-82.1-215.7 0-297.8C128.5 48.9 181.4 27 237.6 27s109.1 21.9 148.9 61.7c82.1 82.1 82.1 215.7 0 297.8z"/><path d="M342.3 132.9c-5.3-5.3-13.8-5.3-19.1 0l-85.6 85.6-85.6-85.6c-5.3-5.3-13.8-5.3-19.1 0-5.3 5.3-5.3 13.8 0 19.1l85.6 85.6-85.6 85.6c-5.3 5.3-5.3 13.8 0 19.1 2.6 2.6 6.1 4 9.5 4s6.9-1.3 9.5-4l85.6-85.6 85.6 85.6c2.6 2.6 6.1 4 9.5 4 3.5 0 6.9-1.3 9.5-4 5.3-5.3 5.3-13.8 0-19.1l-85.4-85.6 85.6-85.6c5.3-5.3 5.3-13.8 0-19.1z"/></symbol><symbol viewBox="0 0 476.737 476.737" id="remove-all" xmlns="http://www.w3.org/2000/svg"><path d="M238.369 0C106.726 0 0 106.726 0 238.369c0 131.675 106.726 238.369 238.369 238.369 131.675 0 238.369-106.694 238.369-238.369C476.737 106.726 370.043 0 238.369 0zm110.444 150.395l-88.578 88.61 78.407 87.338c6.198 6.198 6.198 16.304 0 22.47-6.166 6.198-16.273 6.198-22.438 0l-78.407-87.338-87.37 87.338c-6.198 6.198-16.273 6.198-22.47 0-6.198-6.166-6.198-16.273 0-22.47l88.578-88.578-78.376-87.37c-6.198-6.198-6.198-16.273 0-22.47s16.273-6.198 22.47 0l78.407 87.37 87.338-87.37c6.198-6.198 16.273-6.198 22.47 0 6.198 6.197 6.166 16.272-.031 22.47z"/></symbol><symbol viewBox="0 0 54 54" id="scroll" xmlns="http://www.w3.org/2000/svg"><path d="M0 27c0 14.9 12.1 27 27 27s27-12.1 27-27S41.9 0 27 0 0 12.1 0 27zm52 0c0 13.8-11.2 25-25 25S2 40.8 2 27 13.2 2 27 2s25 11.2 25 25z"/><path d="M26 14v24.6l-8.3-8.3-1.4 1.4L27 42.4l10.7-10.7-1.4-1.4-8.3 8.3V14c0-.6-.4-1-1-1s-1 .4-1 1z"/></symbol><symbol viewBox="0 0 56.966 56.966" id="search" xmlns="http://www.w3.org/2000/svg"><path d="M55.146 51.887L41.588 37.786A22.926 22.926 0 0046.984 23c0-12.682-10.318-23-23-23s-23 10.318-23 23 10.318 23 23 23c4.761 0 9.298-1.436 13.177-4.162l13.661 14.208c.571.593 1.339.92 2.162.92.779 0 1.518-.297 2.079-.837a3.004 3.004 0 00.083-4.242zM23.984 6c9.374 0 17 7.626 17 17s-7.626 17-17 17-17-7.626-17-17 7.626-17 17-17z"/></symbol><symbol viewBox="0 0 478.703 478.703" id="settings" xmlns="http://www.w3.org/2000/svg"><path d="M454.2 189.101l-33.6-5.7c-3.5-11.3-8-22.2-13.5-32.6l19.8-27.7c8.4-11.8 7.1-27.9-3.2-38.1l-29.8-29.8c-5.6-5.6-13-8.7-20.9-8.7-6.2 0-12.1 1.9-17.1 5.5l-27.8 19.8c-10.8-5.7-22.1-10.4-33.8-13.9l-5.6-33.2a29.54 29.54 0 00-29.2-24.7h-42.1c-14.5 0-26.8 10.4-29.2 24.7l-5.8 34c-11.2 3.5-22.1 8.1-32.5 13.7l-27.5-19.8c-5-3.6-11-5.5-17.2-5.5-7.9 0-15.4 3.1-20.9 8.7l-29.9 29.8c-10.2 10.2-11.6 26.3-3.2 38.1l20 28.1c-5.5 10.5-9.9 21.4-13.3 32.7l-33.2 5.6a29.54 29.54 0 00-24.7 29.2v42.1c0 14.5 10.4 26.8 24.7 29.2l34 5.8c3.5 11.2 8.1 22.1 13.7 32.5l-19.7 27.4c-8.4 11.8-7.1 27.9 3.2 38.1l29.8 29.8c5.6 5.6 13 8.7 20.9 8.7 6.2 0 12.1-1.9 17.1-5.5l28.1-20c10.1 5.3 20.7 9.6 31.6 13l5.6 33.6a29.54 29.54 0 0029.2 24.7h42.2c14.5 0 26.8-10.4 29.2-24.7l5.7-33.6c11.3-3.5 22.2-8 32.6-13.5l27.7 19.8c5 3.6 11 5.5 17.2 5.5 7.9 0 15.3-3.1 20.9-8.7l29.8-29.8c10.2-10.2 11.6-26.3 3.2-38.1l-19.8-27.8c5.5-10.5 10.1-21.4 13.5-32.6l33.6-5.6a29.54 29.54 0 0024.7-29.2v-42.1c.2-14.5-10.2-26.8-24.5-29.2zm-2.3 71.3c0 1.3-.9 2.4-2.2 2.6l-42 7c-5.3.9-9.5 4.8-10.8 9.9-3.8 14.7-9.6 28.8-17.4 41.9-2.7 4.6-2.5 10.3.6 14.7l24.7 34.8c.7 1 .6 2.5-.3 3.4l-29.8 29.8c-.7.7-1.4.8-1.9.8-.6 0-1.1-.2-1.5-.5l-34.7-24.7c-4.3-3.1-10.1-3.3-14.7-.6-13.1 7.8-27.2 13.6-41.9 17.4-5.2 1.3-9.1 5.6-9.9 10.8l-7.1 42c-.2 1.3-1.3 2.2-2.6 2.2h-42.1c-1.3 0-2.4-.9-2.6-2.2l-7-42c-.9-5.3-4.8-9.5-9.9-10.8-14.3-3.7-28.1-9.4-41-16.8-2.1-1.2-4.5-1.8-6.8-1.8-2.7 0-5.5.8-7.8 2.5l-35 24.9c-.5.3-1 .5-1.5.5-.4 0-1.2-.1-1.9-.8l-29.8-29.8c-.9-.9-1-2.3-.3-3.4l24.6-34.5c3.1-4.4 3.3-10.2.6-14.8-7.8-13-13.8-27.1-17.6-41.8-1.4-5.1-5.6-9-10.8-9.9l-42.3-7.2c-1.3-.2-2.2-1.3-2.2-2.6v-42.1c0-1.3.9-2.4 2.2-2.6l41.7-7c5.3-.9 9.6-4.8 10.9-10 3.7-14.7 9.4-28.9 17.1-42 2.7-4.6 2.4-10.3-.7-14.6l-24.9-35c-.7-1-.6-2.5.3-3.4l29.8-29.8c.7-.7 1.4-.8 1.9-.8.6 0 1.1.2 1.5.5l34.5 24.6c4.4 3.1 10.2 3.3 14.8.6 13-7.8 27.1-13.8 41.8-17.6 5.1-1.4 9-5.6 9.9-10.8l7.2-42.3c.2-1.3 1.3-2.2 2.6-2.2h42.1c1.3 0 2.4.9 2.6 2.2l7 41.7c.9 5.3 4.8 9.6 10 10.9 15.1 3.8 29.5 9.7 42.9 17.6 4.6 2.7 10.3 2.5 14.7-.6l34.5-24.8c.5-.3 1-.5 1.5-.5.4 0 1.2.1 1.9.8l29.8 29.8c.9.9 1 2.3.3 3.4l-24.7 34.7c-3.1 4.3-3.3 10.1-.6 14.7 7.8 13.1 13.6 27.2 17.4 41.9 1.3 5.2 5.6 9.1 10.8 9.9l42 7.1c1.3.2 2.2 1.3 2.2 2.6v42.1h-.1z"/><path d="M239.4 136.001c-57 0-103.3 46.3-103.3 103.3s46.3 103.3 103.3 103.3 103.3-46.3 103.3-103.3-46.3-103.3-103.3-103.3zm0 179.6c-42.1 0-76.3-34.2-76.3-76.3s34.2-76.3 76.3-76.3 76.3 34.2 76.3 76.3-34.2 76.3-76.3 76.3z"/></symbol><symbol viewBox="0 0 512.005 512.005" id="bookmark" xmlns="http://www.w3.org/2000/svg"><path d="M362.669,0H149.336c-29.397,0-53.333,23.915-53.333,53.333v448c0,4.309,2.603,8.213,6.592,9.856c3.989,1.664,8.576,0.725,11.627-2.304l141.781-141.803l141.781,141.781c2.048,2.048,4.779,3.136,7.552,3.136c1.365,0,2.752-0.256,4.075-0.811c3.989-1.643,6.592-5.547,6.592-9.856v-448C416.002,23.915,392.066,0,362.669,0z"/></symbol>
<symbol viewBox="0 0 426.667 426.667" id="photoeditor" xmlns="http://www.w3.org/2000/svg">
	<circle cx="133" cy="155.3" r="42.7"/>
	<path d="M406.7,21.3H20c-11,0-20,9-20,20v344c0,11,9,20,20,20h386.7c11,0,20-9,20-20v-344C426.7,30.3,417.7,21.3,406.7,21.3z
		 M42.7,342.7V84c0-11,9-20,20-20H364c11,0,20,9,20,20v173l-49.1-49.1c-7.8-7.8-20.5-7.8-28.3,0L232.5,282c-7.8,7.8-20.5,7.8-28.3,0
		l-14.4-14.4c-7.8-7.8-20.5-7.8-28.3,0l-91.2,91.2c-1.2,1.2-2.2,2.5-3,3.9h-4.7C51.7,362.7,42.7,353.7,42.7,342.7z M364,362.7H126.2
		l35.3-35.3c7.8-7.8,20.7-7.9,28.6-0.3l15.8,15.1c8,7.6,20.8,7.4,28.5-0.5l74.4-76c7.7-7.9,20.4-7.9,28.1-0.1l44.2,44.2
		c0.9,0.9,1.8,1.6,2.7,2.3v30.7C384,353.7,375,362.7,364,362.7z"/>
</symbol>
<symbol viewBox="0 0 469.333 469.333" id="collage" xmlns="http://www.w3.org/2000/svg">
		<path d="M448,0H21.333C9.552,0,0,9.552,0,21.333V448c0,11.781,9.552,21.333,21.333,21.333H448
			c11.781,0,21.333-9.552,21.333-21.333V21.333C469.333,9.552,459.781,0,448,0z M138.667,426.667h-96v-384h96V426.667z
			 M426.667,426.667H181.333V256h245.333V426.667z M426.667,213.333H181.333V42.667h245.333V213.333z"/>
</symbol>
<symbol viewBox="0 0 384 384" id="art" xmlns="http://www.w3.org/2000/svg">
		<path d="M192,0C85.973,0,0,85.973,0,192s85.973,192,192,192c17.707,0,32-14.293,32-32c0-8.32-3.093-15.787-8.32-21.44
			c-5.013-5.653-8-13.013-8-21.227c0-17.707,14.293-32,32-32h37.653c58.88,0,106.667-47.787,106.667-106.667
			C384,76.373,298.027,0,192,0z M74.667,192c-17.707,0-32-14.293-32-32s14.293-32,32-32s32,14.293,32,32S92.373,192,74.667,192z
			 M138.667,106.667c-17.707,0-32-14.293-32-32s14.293-32,32-32s32,14.293,32,32S156.373,106.667,138.667,106.667z M245.333,106.667
			c-17.707,0-32-14.293-32-32s14.293-32,32-32s32,14.293,32,32S263.04,106.667,245.333,106.667z M309.333,192
			c-17.707,0-32-14.293-32-32s14.293-32,32-32s32,14.293,32,32S327.04,192,309.333,192z"/>
</symbol>
<symbol viewBox="0 0 488.455 488.455" id="photo" xmlns="http://www.w3.org/2000/svg">
<path d="m287.396 216.317c23.845 23.845 23.845 62.505 0 86.35s-62.505 23.845-86.35 0-23.845-62.505 0-86.35 62.505-23.845 86.35 0"/><path d="m427.397 91.581h-42.187l-30.544-61.059h-220.906l-30.515 61.089-42.127.075c-33.585.06-60.925 27.429-60.954 61.029l-.164 244.145c0 33.675 27.384 61.074 61.059 61.074h366.338c33.675 0 61.059-27.384 61.059-61.059v-244.236c-.001-33.674-27.385-61.058-61.059-61.058zm-183.177 290.029c-67.335 0-122.118-54.783-122.118-122.118s54.783-122.118 122.118-122.118 122.118 54.783 122.118 122.118-54.783 122.118-122.118 122.118z"/>
</symbol>
<symbol viewBox="0 0 512 512" id="filters" xmlns="http://www.w3.org/2000/svg">
<path d="m497 353.671875c-30.4375 0-59.023438-11.742187-80.5-33.066406-21.46875-21.3125-33.289062-49.699219-33.289062-79.929688 0-8.285156-6.71875-15-15-15-8.285157 0-15 6.714844-15 15 0 30.230469-11.824219 58.617188-33.292969 79.929688-21.476563 21.324219-50.0625 33.066406-80.5 33.066406-8.285157 0-15 6.714844-15 15s6.714843 15 15 15c62.742187 0 113.792969 50.839844 113.792969 113.328125 0 8.285156 6.714843 15 15 15 8.28125 0 15-6.714844 15-15 0-62.488281 51.046874-113.328125 113.789062-113.328125 8.285156 0 15-6.714844 15-15s-6.714844-15-15-15zm0 0"/><path d="m205.234375 236.386719c-44.175781 0-80.117187-35.675781-80.117187-79.53125 0-8.28125-6.714844-15-15-15-8.285157 0-15 6.71875-15 15 0 43.855469-35.941407 79.53125-80.117188 79.53125-8.285156 0-15 6.71875-15 15 0 8.285156 6.714844 15 15 15 44.175781 0 80.117188 35.789062 80.117188 79.777343 0 8.28125 6.714843 15 15 15 8.285156 0 15-6.71875 15-15 0-43.988281 35.941406-79.777343 80.117187-79.777343 8.285156 0 15-6.714844 15-15 0-8.28125-6.714844-15-15-15zm0 0"/><path d="m229.636719 103.65625c32.488281 0 58.921875 26.230469 58.921875 58.46875 0 8.28125 6.714844 15 15 15s15-6.71875 15-15c0-32.34375 26.433594-58.65625 58.921875-58.65625 8.285156 0 15-6.71875 15-15 0-8.285156-6.714844-15-15-15-32.488281 0-58.921875-26.230469-58.921875-58.46875 0-8.285156-6.714844-15-15-15s-15 6.714844-15 15c0 32.34375-26.433594 58.65625-58.921875 58.65625-8.285157 0-15 6.714844-15 15s6.714843 15 15 15zm0 0"/>
</symbol>
<symbol viewBox="0 0 512 512" id="crop" xmlns="http://www.w3.org/2000/svg">
<path d="m496 376.339h-87.662v-256.678c0-8.837-7.164-16-16-16h-256.676v-87.661c0-8.837-7.164-16-16-16s-16 7.163-16 16v87.661h-87.662c-8.836 0-16 7.163-16 16s7.164 16 16 16h87.662v256.678c0 8.837 7.164 16 16 16h256.677v87.661c0 8.837 7.164 16 16 16s16-7.163 16-16v-87.661h87.661c8.836 0 16-7.163 16-16s-7.164-16-16-16zm-360.338 0v-240.678h240.677v240.678z"/>
</symbol>
<symbol viewBox="0 0 512 512" id="resize" xmlns="http://www.w3.org/2000/svg">
			<path d="M180,472H40V332c0-11.046-8.954-20-20-20s-20,8.954-20,20v160c0,11.046,8.954,20,20,20h160c11.046,0,20-8.954,20-20
				C200,480.954,191.046,472,180,472z"/>
			<path d="M180,0H20C8.954,0,0,8.954,0,20v160c0,11.046,8.954,20,20,20s20-8.954,20-20V40h140c11.046,0,20-8.954,20-20
				S191.046,0,180,0z"/>
			<path d="M492,312c-11.046,0-20,8.954-20,20v140H332c-11.046,0-20,8.954-20,20c0,11.046,8.954,20,20,20h160
				c11.046,0,20-8.954,20-20V332C512,320.954,503.046,312,492,312z"/>
			<path d="M492,0H332c-11.046,0-20,8.954-20,20s8.954,20,20,20h140v140c0,11.046,8.954,20,20,20c11.046,0,20-8.954,20-20V20
				C512,8.954,503.046,0,492,0z"/>
</symbol>
<symbol viewBox="0 0 512 512" id="text" xmlns="http://www.w3.org/2000/svg">
<path d="m497 105.925c8.284 0 15-6.716 15-15v-75.925c0-8.284-6.716-15-15-15h-75.925c-8.284 0-15 6.716-15 15v22.962h-300.15v-22.962c0-8.284-6.716-15-15-15h-75.925c-8.284 0-15 6.716-15 15v75.925c0 8.284 6.716 15 15 15h22.962v300.15h-22.962c-8.284 0-15 6.716-15 15v75.925c0 8.284 6.716 15 15 15h75.925c8.284 0 15-6.716 15-15v-22.962h300.15v22.962c0 8.284 6.716 15 15 15h75.925c8.284 0 15-6.716 15-15v-75.925c0-8.284-6.716-15-15-15h-22.962v-300.15zm-60.925-75.925h45.925v45.925h-45.925zm-406.075 0h45.925v45.925h-45.925zm45.925 452h-45.925v-45.925h45.925zm406.075 0h-45.925v-45.925h45.925zm-37.962-75.925h-22.962c-8.284 0-15 6.716-15 15v22.962h-300.15v-22.962c0-8.284-6.716-15-15-15h-22.964v-300.15h22.962c8.284 0 15-6.716 15-15v-22.963h300.15v22.962c0 8.284 6.716 15 15 15h22.962v300.151z"/><path d="m363.498 137.162h-214.996c-8.284 0-15 6.716-15 15v54.544c0 8.284 6.716 15 15 15s15-6.716 15-15v-39.544h77.498v179.676h-27.951c-8.284 0-15 6.716-15 15s6.716 15 15 15h85.901c8.284 0 15-6.716 15-15s-6.716-15-15-15h-27.95v-179.676h77.498v39.544c0 8.284 6.716 15 15 15s15-6.716 15-15v-54.544c0-8.284-6.716-15-15-15z"/>
</symbol>
<symbol viewBox="0 0 512 512" id="flip" xmlns="http://www.w3.org/2000/svg">
		<path d="M256,0c-8.284,0-15,6.716-15,15v70c0,8.284,6.716,15,15,15s15-6.716,15-15V15C271,6.716,264.284,0,256,0z"/>
		<path d="M256,137c-8.284,0-15,6.716-15,15v70c0,8.284,6.716,15,15,15s15-6.716,15-15v-70C271,143.716,264.284,137,256,137z"/>
		<path d="M256,275c-8.284,0-15,6.716-15,15v70c0,8.284,6.716,15,15,15s15-6.716,15-15v-70C271,281.716,264.284,275,256,275z"/>
		<path d="M256,412c-8.284,0-15,6.716-15,15v70c0,8.284,6.716,15,15,15s15-6.716,15-15v-70C271,418.716,264.284,412,256,412z"/>
		<path d="M179.402,103.503l-120-36.842c-4.549-1.398-9.49-0.553-13.317,2.276C42.258,71.765,40,76.241,40,81v350
			c0,4.759,2.258,9.235,6.085,12.063c3.841,2.839,8.787,3.668,13.317,2.275l120-36.842c6.299-1.933,10.598-7.751,10.598-14.339
			V117.842C190,111.254,185.7,105.437,179.402,103.503z"/>
		<path d="M465.915,68.937c-3.826-2.828-8.77-3.673-13.317-2.276l-120,36.842c-6.299,1.933-10.598,7.751-10.598,14.339v276.316
			c0,6.588,4.3,12.405,10.598,14.339l120,36.842c4.566,1.402,9.505,0.541,13.317-2.276C469.742,440.235,472,435.759,472,431V81
			C472,76.241,469.742,71.765,465.915,68.937z"/>
</symbol>
<symbol viewBox="0 0 405.333 405.333" id="blur" xmlns="http://www.w3.org/2000/svg">
			<path d="M10.667,234.667C4.8,234.667,0,239.467,0,245.333C0,251.2,4.8,256,10.667,256c5.867,0,10.667-4.8,10.667-10.667
				C21.333,239.467,16.533,234.667,10.667,234.667z"/>
			<path d="M10.667,149.333C4.8,149.333,0,154.133,0,160c0,5.867,4.8,10.667,10.667,10.667c5.867,0,10.667-4.8,10.667-10.667
				C21.333,154.133,16.533,149.333,10.667,149.333z"/>
			<path d="M160,384c-5.867,0-10.667,4.8-10.667,10.667c0,5.867,4.8,10.667,10.667,10.667c5.867,0,10.667-4.8,10.667-10.667
				C170.667,388.8,165.867,384,160,384z"/>
			<path d="M74.667,53.333c-11.733,0-21.333,9.6-21.333,21.333S62.933,96,74.667,96S96,86.4,96,74.667S86.4,53.333,74.667,53.333z"
				/>
			<path d="M74.667,138.667c-11.733,0-21.333,9.6-21.333,21.333s9.6,21.333,21.333,21.333S96,171.733,96,160
				S86.4,138.667,74.667,138.667z"/>
			<path d="M74.667,224c-11.733,0-21.333,9.6-21.333,21.333c0,11.733,9.6,21.333,21.333,21.333S96,257.067,96,245.333
				C96,233.6,86.4,224,74.667,224z"/>
			<path d="M394.667,170.667c5.867,0,10.667-4.8,10.667-10.667c0-5.867-4.8-10.667-10.667-10.667c-5.867,0-10.667,4.8-10.667,10.667
				C384,165.867,388.8,170.667,394.667,170.667z"/>
			<path d="M245.333,21.333c5.867,0,10.667-4.8,10.667-10.667C256,4.8,251.2,0,245.333,0c-5.867,0-10.667,4.8-10.667,10.667
				C234.667,16.533,239.467,21.333,245.333,21.333z"/>
			<path d="M160,96c11.733,0,21.333-9.6,21.333-21.333s-9.6-21.333-21.333-21.333s-21.333,9.6-21.333,21.333S148.267,96,160,96z"/>
			<path d="M160,21.333c5.867,0,10.667-4.8,10.667-10.667C170.667,4.8,165.867,0,160,0c-5.867,0-10.667,4.8-10.667,10.667
				C149.333,16.533,154.133,21.333,160,21.333z"/>
			<path d="M245.333,96c11.733,0,21.333-9.6,21.333-21.333s-9.6-21.333-21.333-21.333c-11.733,0-21.333,9.6-21.333,21.333
				S233.6,96,245.333,96z"/>
			<path d="M74.667,309.333c-11.733,0-21.333,9.6-21.333,21.333c0,11.733,9.6,21.333,21.333,21.333S96,342.4,96,330.667
				C96,318.933,86.4,309.333,74.667,309.333z"/>
			<path d="M245.333,128c-17.707,0-32,14.293-32,32s14.293,32,32,32s32-14.293,32-32S263.04,128,245.333,128z"/>
			<path d="M330.667,224c-11.733,0-21.333,9.6-21.333,21.333c0,11.733,9.6,21.333,21.333,21.333c11.733,0,21.333-9.6,21.333-21.333
				C352,233.6,342.4,224,330.667,224z"/>
			<path d="M330.667,309.333c-11.733,0-21.333,9.6-21.333,21.333c0,11.733,9.6,21.333,21.333,21.333
				C342.4,352,352,342.4,352,330.667C352,318.933,342.4,309.333,330.667,309.333z"/>
			<path d="M330.667,138.667c-11.733,0-21.333,9.6-21.333,21.333s9.6,21.333,21.333,21.333c11.733,0,21.333-9.6,21.333-21.333
				S342.4,138.667,330.667,138.667z"/>
			<path d="M394.667,234.667c-5.867,0-10.667,4.8-10.667,10.667C384,251.2,388.8,256,394.667,256c5.867,0,10.667-4.8,10.667-10.667
				C405.333,239.467,400.533,234.667,394.667,234.667z"/>
			<path d="M330.667,53.333c-11.733,0-21.333,9.6-21.333,21.333S318.933,96,330.667,96C342.4,96,352,86.4,352,74.667
				S342.4,53.333,330.667,53.333z"/>
			<path d="M160,213.333c-17.707,0-32,14.293-32,32s14.293,32,32,32s32-14.293,32-32S177.707,213.333,160,213.333z"/>
			<path d="M160,309.333c-11.733,0-21.333,9.6-21.333,21.333c0,11.733,9.6,21.333,21.333,21.333s21.333-9.6,21.333-21.333
				C181.333,318.933,171.733,309.333,160,309.333z"/>
			<path d="M160,128c-17.707,0-32,14.293-32,32s14.293,32,32,32s32-14.293,32-32S177.707,128,160,128z"/>
			<path d="M245.333,309.333c-11.733,0-21.333,9.6-21.333,21.333C224,342.4,233.6,352,245.333,352
				c11.733,0,21.333-9.6,21.333-21.333C266.667,318.933,257.067,309.333,245.333,309.333z"/>
			<path d="M245.333,384c-5.867,0-10.667,4.8-10.667,10.667c0,5.867,4.8,10.667,10.667,10.667c5.867,0,10.667-4.8,10.667-10.667
				C256,388.8,251.2,384,245.333,384z"/>
			<path d="M245.333,213.333c-17.707,0-32,14.293-32,32s14.293,32,32,32s32-14.293,32-32S263.04,213.333,245.333,213.333z"/>
</symbol>
<symbol viewBox="0 0 512 512" id="frames" xmlns="http://www.w3.org/2000/svg">
<path d="M272,46c0-8.3-6.7-15-15-15c-8.3,0-15,6.7-15,15c0,8.3-6.7,15-15,15h-57.4c-38.5,0-46.7-30-79.6-30
	c-24.4,0-37.4,23.2-42.9,47.1C23.2,83.6,0,96.6,0,121c0,28.7,30,46.9,30,96v9c0,8.3-6.7,15-15,15c-8.3,0-15,6.7-15,15
	c0,8.3,6.7,15,15,15c8.3,0,15,6.7,15,15v9c0,49.2-30,67.2-30,96c0,24.4,23.2,37.4,47.1,42.9C52.6,457.8,65.6,481,90,481
	c32.6,0,41.3-30,79.6-30H227c8.3,0,15,6.7,15,15c0,8.3,6.7,15,15,15c8.3,0,15-6.7,15-15c0-8.3,6.7-15,15-15h55.4
	c38.5,0,46.7,30,79.6,30c24.4,0,37.4-23.2,42.9-47.1c23.9-5.5,47.1-18.4,47.1-42.9c0-9.5-2.9-19.1-8.7-28.5
	C489.2,339.3,482,316.6,482,295v-9c0-8.3,6.7-15,15-15c8.3,0,15-6.7,15-15s-6.7-15-15-15c-8.3,0-15-6.7-15-15v-9
	c0-21.6,7.2-44.3,21.3-67.5c5.8-9.4,8.7-19,8.7-28.5c0-24.4-23.2-37.4-47.1-42.9C459.4,54.2,446.4,31,422,31
	c-28.2,0-46.3,30-79.6,30H287C278.7,61,272,54.3,272,46z M407,121c8.3,0,15,6.7,15,15v240c0,8.3-6.7,15-15,15H105
	c-8.3,0-15-6.7-15-15V136c0-8.3,6.7-15,15-15H407z"/>
</symbol>
<symbol viewBox="0 0 512 512" id="vignette" xmlns="http://www.w3.org/2000/svg">
	<path d="M453.3,43H58.7C26.3,43,0,69.3,0,101.7V411c0,32.4,26.3,58.7,58.7,58.7h394.7c32.4,0,58.7-26.3,58.7-58.7V101.7
		C512,69.3,485.7,43,453.3,43z M480,411c0,14.7-12,26.7-26.7,26.7H58.7C44,437.7,32,425.7,32,411V101.7C32,87,44,75,58.7,75h394.7
		C468,75,480,87,480,101.7V411z"/>
		<path d="M154.7,107h-32C90.3,107,64,133.3,64,165.7v32c0,8.8,7.2,16,16,16s16-7.2,16-16v-32c0-14.7,12-26.7,26.7-26.7h32
			c8.8,0,16-7.2,16-16S163.5,107,154.7,107z"/>
		<path d="M432,299c-8.8,0-16,7.2-16,16v32c0,14.7-12,26.7-26.7,26.7h-32c-8.8,0-16,7.2-16,16s7.2,16,16,16h32
			c32.4,0,58.7-26.3,58.7-58.7v-32C448,306.2,440.8,299,432,299z"/>
		<path d="M340.3,122c0,8.8,7.2,16,16,16h32c14.7,0,26.7,12,26.7,26.7v32c0,8.8,7.2,16,16,16s16-7.2,16-16v-32
			c0-32.4-26.3-58.7-58.7-58.7h-32C347.5,106,340.3,113.2,340.3,122z"/>
		<path d="M63,314v32c0,32.4,26.3,58.7,58.7,58.7h32c8.8,0,16-7.2,16-16s-7.2-16-16-16h-32c-14.7,0-26.7-12-26.7-26.7v-32
			c0-8.8-7.2-16-16-16S63,305.2,63,314z"/>
</symbol>
<symbol viewBox="0 0 449.438 449.438" id="round" xmlns="http://www.w3.org/2000/svg">
		<path d="M0,109.969v52.594h38.25v-52.594c0-39.55,36.462-71.719,81.281-71.719h52.594V0h-52.594C53.617,0,0,49.333,0,109.969z"/>
		<path d="M38.25,329.906v-43.031H0v43.031c0,63.677,55.854,119.531,119.531,119.531h52.594v-38.25h-52.594
			C76.988,411.188,38.25,372.44,38.25,329.906z"/>
		<path d="M411.188,329.906c0,44.819-32.168,81.281-71.719,81.281h-52.594v38.25h52.594c60.636,0,109.969-53.617,109.969-119.531
			v-43.031h-38.25V329.906z"/>
		<path d="M339.469,0h-52.594v38.25h52.594c42.228,0,71.719,29.491,71.719,71.719v52.594h38.25v-52.594
			C449.438,46.254,403.193,0,339.469,0z"/>
</symbol>
<symbol viewBox="0 0 436.7 381.5" id="overlays" xmlns="http://www.w3.org/2000/svg">
<path d="M384,95.1l-52.7,30.3l52.7,30.3l52.7-30.3L384,95.1z"/>
<path d="M249.7,172.3l52.7,30.3l51.6-29.6l-52.7-30.3L249.7,172.3z"/>
<path d="M189.4,172.3l-52.7-30.3l-53.8,30.9l52.7,30.3L189.4,172.3z"/>
<path d="M218.4,285.4L83.7,208L0,256.1l218.3,125.4l218.3-125.4l-83.6-48L218.4,285.4z"/>
<path d="M272.2,219.9L218.5,189l-52.8,31.5l52.7,30.3L272.2,219.9z"/>
<path d="M301.2,108.1l52.7-30.3l-52.7-30.3l-52.7,30.3L301.2,108.1z"/>
<path d="M165.7,30.3l52.7,30.3l52.7-30.3L218.4,0L165.7,30.3z"/>
<path d="M136.7,107.4l51.6-29.6l-52.7-30.3L84,77.2L136.7,107.4z"/>
<path d="M106.6,124.8L53.9,94.5L0.1,125.4l52.7,30.3L106.6,124.8z"/>
<path d="M271.1,125.4l-52.7-30.3l-51.6,29.6l51.9,30.7L271.1,125.4z"/>
</symbol>
<symbol viewBox="0 0 512 512" id="tilt-shift" xmlns="http://www.w3.org/2000/svg">
<path d="m256 512c-141.164062 0-256-114.835938-256-256s114.835938-256 256-256 256 114.835938 256 256-114.835938 256-256 256zm0-480c-123.519531 0-224 100.480469-224 224s100.480469 224 224 224 224-100.480469 224-224-100.480469-224-224-224zm0 0"/><path d="m256 426.667969c-94.101562 0-170.667969-76.566407-170.667969-170.667969s76.566407-170.667969 170.667969-170.667969 170.667969 76.566407 170.667969 170.667969-76.566407 170.667969-170.667969 170.667969zm0-309.335938c-76.457031 0-138.667969 62.210938-138.667969 138.667969s62.210938 138.667969 138.667969 138.667969 138.667969-62.210938 138.667969-138.667969-62.210938-138.667969-138.667969-138.667969zm0 0"/><path d="m256 341.332031c-47.0625 0-85.332031-38.269531-85.332031-85.332031s38.269531-85.332031 85.332031-85.332031 85.332031 38.269531 85.332031 85.332031-38.269531 85.332031-85.332031 85.332031zm0-138.664062c-29.398438 0-53.332031 23.933593-53.332031 53.332031s23.933593 53.332031 53.332031 53.332031 53.332031-23.933593 53.332031-53.332031-23.933593-53.332031-53.332031-53.332031zm0 0"/>
</symbol>
<symbol viewBox="0 0 512 512" id="clipart" xmlns="http://www.w3.org/2000/svg">
	<path d="M0,256c0,0.1,0,0.2,0,0.3c0,0,0,0,0,0.1C0.1,324.6,26.7,388.7,75,437c48.4,48.4,112.6,75,181,75s132.7-26.6,181-75
		c48.4-48.4,75-112.6,75-181s-26.6-132.7-75-181C388.7,26.6,324.4,0,256,0h0h0l0,0c-3.9,0-7.7,1.5-10.6,4.4l-241,241
		C1.5,248.3,0,252.1,0,256L0,256L0,256z M482,256c0,60.4-23.5,117.1-66.2,159.8S316.4,482,256,482c-60.4,0-117.1-23.5-159.8-66.2
		c-39.2-39.2-62.3-90.4-65.7-145.3c10.1-0.6,20-1.8,29.8-3.5C66,370,151.6,452,256,452c108.1,0,196-87.9,196-196
		c0-104.4-82-190-185-195.7c1.7-9.8,2.9-19.8,3.5-29.8c54.9,3.5,106,26.5,145.3,65.7C458.5,138.9,482,195.6,482,256L482,256z
		 M305.5,245.2l38.2,37.3l-52.8,7.7c-4.9,0.7-9.1,3.8-11.3,8.2L256,346.2l-23.6-47.9c-2.2-4.4-6.4-7.5-11.3-8.2l-52.8-7.7l38.2-37.3
		c3.5-3.4,5.1-8.4,4.3-13.3l-7.5-43.5c1.7-1.9,3.4-3.7,5-5.6l40.7,21.4c2.2,1.1,4.6,1.7,7,1.7c2.4,0,4.8-0.6,7-1.7l47.3-24.8
		l-9,52.6C300.4,236.8,302,241.8,305.5,245.2L305.5,245.2z M177.1,213.2l2.8,16.1l-54.4,53c-4.1,4-5.6,9.9-3.8,15.4
		c1.8,5.4,6.5,9.4,12.1,10.2l75.1,10.9l33.6,68.1c2.5,5.1,7.7,8.4,13.5,8.4c5.7,0,10.9-3.2,13.5-8.4l33.6-68.1l75.1-10.9
		c5.6-0.8,10.3-4.8,12.1-10.2c1.8-5.4,0.3-11.4-3.8-15.4l-54.4-53l12.8-74.8c1-5.6-1.3-11.3-6-14.7c-2.6-1.9-5.7-2.9-8.8-2.9
		c-2.4,0-4.8,0.6-7,1.7L256,173.9l-29-15.3c14.4-21.2,25.5-44.3,32.9-68.6C349.6,92.1,422,165.8,422,256c0,91.5-74.5,166-166,166
		c-90.2,0-163.9-72.4-166-162.1C121.7,250.2,151.2,234.5,177.1,213.2L177.1,213.2z M237.6,54.7c-8,45.3-29.6,87-62.7,120.1
		c-33.2,33.2-74.9,54.8-120.1,62.7L237.6,54.7z"/>
</symbol>
<symbol viewBox="0 0 512 512" id="jp" xmlns="http://www.w3.org/2000/svg">
<rect y="85.331" style="fill:#F0F0F0;" width="512" height="341.337"/>
<circle style="fill:#D80027;" cx="256" cy="255.994" r="96"/>
</symbol>
<symbol viewBox="0 0 512 512" id="cn" xmlns="http://www.w3.org/2000/svg">
	<polygon style="fill:#FFDA44;" points="178.923,189.567 193.579,234.674 241.008,234.674 202.637,262.552 217.294,307.661 
		178.923,279.782 140.552,307.661 155.208,262.552 116.837,234.674 164.266,234.674 	"/>
	<polygon style="fill:#FFDA44;" points="271.3,339.593 256.91,329.138 242.522,339.592 248.017,322.678 233.628,312.223 
		251.414,312.223 256.91,295.307 262.408,312.223 280.193,312.223 265.804,322.677 	"/>
	<polygon style="fill:#FFDA44;" points="308.837,287.927 291.052,287.927 285.556,304.841 280.06,287.928 262.273,287.927 
		276.664,277.472 271.166,260.557 285.556,271.01 299.945,260.557 294.449,277.472 	"/>
	<polygon style="fill:#FFDA44;" points="308.837,224.063 294.449,234.518 299.944,251.432 285.556,240.979 271.166,251.434 
		276.664,234.517 262.273,224.065 280.061,224.063 285.556,207.147 291.052,224.063 	"/>
	<polygon style="fill:#FFDA44;" points="271.3,172.397 265.805,189.313 280.193,199.766 262.408,199.767 256.91,216.684 
		251.414,199.766 233.629,199.768 248.018,189.312 242.522,172.396 256.91,182.851 	"/>
</symbol>
</svg>