<?xml version="1.0" encoding="iso-8859-1"?><svg xmlns="http://www.w3.org/2000/svg" xmlns:xlink="http://www.w3.org/1999/xlink"><symbol viewBox="0 0 512.001 512.001" id="cn" xmlns="http://www.w3.org/2000/svg"><path d="M503.172 423.725H8.828A8.829 8.829 0 010 414.897V97.104a8.829 8.829 0 018.828-8.828h494.345a8.829 8.829 0 018.828 8.828v317.793a8.83 8.83 0 01-8.829 8.828z" fill="#ff4b55"/><g fill="#ffe15a"><path d="M85.007 140.733l8.416 25.234 26.6.206c3.444.026 4.872 4.422 2.101 6.467l-21.398 15.801 8.023 25.362c1.038 3.284-2.7 5.999-5.502 3.997l-21.64-15.469-21.64 15.468c-2.802 2.003-6.54-.714-5.502-3.997l8.023-25.362-21.398-15.8c-2.771-2.046-1.343-6.441 2.101-6.467l26.6-.206 8.416-25.234c1.09-3.268 5.711-3.268 6.8 0zM181.599 146.951l6.035 8.23 9.739-3.046c1.261-.394 2.298 1.044 1.526 2.115l-5.962 8.281 5.906 8.321c.765 1.077-.282 2.508-1.54 2.105l-9.719-3.111-6.089 8.189c-.788 1.06-2.473.506-2.478-.814l-.045-10.205-9.67-3.261c-1.251-.423-1.246-2.195.009-2.609l9.69-3.196.114-10.204c.014-1.319 1.703-1.86 2.484-.795zM144.857 122.421l10.145 1.102 4.328-9.241c.561-1.196 2.321-.991 2.591.302l2.086 9.988 10.126 1.26c1.311.163 1.66 1.901.513 2.558l-8.855 5.07 1.931 10.02c.25 1.298-1.295 2.166-2.274 1.279l-7.559-6.855-8.932 4.932c-1.156.639-2.461-.563-1.919-1.768l4.183-9.308-7.452-6.972c-.964-.898-.225-2.509 1.088-2.367zM160.895 221.314l-6.035 8.23-9.739-3.046c-1.261-.394-2.298 1.044-1.526 2.115l5.962 8.281-5.906 8.321c-.765 1.077.282 2.508 1.54 2.105l9.719-3.111 6.089 8.189c.788 1.06 2.473.506 2.478-.814l.045-10.205 9.67-3.261c1.252-.423 1.246-2.195-.009-2.609l-9.69-3.196-.114-10.204c-.016-1.318-1.703-1.861-2.484-.795zM197.635 198.263l-10.145 1.102-4.328-9.241c-.561-1.196-2.321-.991-2.591.302l-2.087 9.988-10.126 1.26c-1.311.163-1.66 1.901-.513 2.558l8.855 5.07-1.931 10.02c-.25 1.298 1.295 2.166 2.274 1.279l7.559-6.855 8.932 4.932c1.156.639 2.461-.563 1.919-1.768l-4.183-9.308 7.452-6.972c.967-.898.228-2.509-1.087-2.367z"/></g></symbol><symbol viewBox="0 0 512.001 512.001" id="de" xmlns="http://www.w3.org/2000/svg"><path d="M512 200.093H0V97.104a8.829 8.829 0 018.828-8.828h494.345a8.829 8.829 0 018.828 8.828L512 200.093z" fill="#464655"/><path d="M503.172 423.725H8.828A8.829 8.829 0 010 414.897V311.909h512v102.988a8.828 8.828 0 01-8.828 8.828z" fill="#ffe15a"/><path fill="#ff4b55" d="M0 200.091h512v111.81H0z"/></symbol><symbol viewBox="0 0 512.002 512.002" id="en" xmlns="http://www.w3.org/2000/svg"><path d="M503.172 423.725H8.828A8.829 8.829 0 010 414.897V97.104a8.829 8.829 0 018.828-8.828h494.345a8.829 8.829 0 018.828 8.828v317.793a8.83 8.83 0 01-8.829 8.828z" fill="#41479b"/><path d="M512 97.104a8.829 8.829 0 00-8.828-8.828h-39.495l-163.54 107.147V88.276h-88.276v107.147L48.322 88.276H8.828A8.829 8.829 0 000 97.104v22.831l140.309 91.927H0v88.276h140.309L0 392.066v22.831a8.829 8.829 0 008.828 8.828h39.495l163.54-107.147v107.147h88.276V316.578l163.54 107.147h39.495a8.829 8.829 0 008.828-8.828v-22.831l-140.309-91.927H512v-88.276H371.691L512 119.935V97.104z" fill="#f5f5f5"/><g fill="#ff4b55"><path d="M512 229.518H282.483V88.276h-52.966v141.242H0v52.965h229.517v141.242h52.966V282.483H512z"/><path d="M178.948 300.138L.25 416.135c.625 4.263 4.14 7.59 8.577 7.59h12.159l190.39-123.586h-32.428v-.001zM346.388 300.138H313.96l190.113 123.404c4.431-.472 7.928-4.09 7.928-8.646v-7.258l-165.613-107.5zM0 106.849l161.779 105.014h32.428L5.143 89.137C2.123 90.54 0 93.555 0 97.104v9.745zM332.566 211.863L511.693 95.586c-.744-4.122-4.184-7.309-8.521-7.309h-12.647L300.138 211.863h32.428z"/></g></symbol><symbol viewBox="0 0 512.001 512.001" id="es" xmlns="http://www.w3.org/2000/svg"><path d="M8.828 423.725h494.345a8.829 8.829 0 008.828-8.828V97.104a8.829 8.829 0 00-8.828-8.828H8.828A8.83 8.83 0 000 97.104v317.793a8.828 8.828 0 008.828 8.828z" fill="#c8414b"/><path fill="#ffd250" d="M0 158.901h512v194.21H0z"/><path d="M216.276 256.001l7.485-33.681c.69-3.102-1.671-6.044-4.849-6.044h-5.272c-3.177 0-5.537 2.942-4.849 6.044l7.485 33.681z" fill="#c8414b"/><path fill="#f5f5f5" d="M207.45 238.341h17.655v75.03H207.45z"/><path fill="#fab446" d="M203.03 229.521h26.483v8.828H203.03z"/><g fill="#c8414b"><path d="M185.38 256.001h44.14v8.828h-44.14zM229.517 291.311l-26.483-8.827v-8.828l26.483 8.828zM83.862 256.001l7.485-33.681c.69-3.102-1.671-6.044-4.849-6.044h-5.272c-3.177 0-5.537 2.942-4.849 6.044l7.485 33.681z"/></g><path d="M114.759 229.518a8.829 8.829 0 00-8.828 8.828v57.379c0 10.725 10.01 30.897 44.138 30.897s44.138-20.171 44.138-30.897v-57.379a8.829 8.829 0 00-8.828-8.828h-70.62z" fill="#f5f5f5"/><g fill="#c8414b"><path d="M150.069 273.656h-44.138v-35.31a8.829 8.829 0 018.828-8.828h35.31v44.138zM150.069 273.656h44.138v22.069c0 12.189-9.88 22.069-22.069 22.069-12.189 0-22.069-9.88-22.069-22.069v-22.069z"/></g><path d="M105.931 273.656h44.138v22.069c0 12.189-9.88 22.069-22.069 22.069-12.189 0-22.069-9.88-22.069-22.069v-22.069z" fill="#fab446"/><g fill="#c8414b"><path d="M141.241 313.281v-39.625h-8.828v43.693c3.284-.666 6.251-2.12 8.828-4.068zM123.586 317.349v-43.693h-8.828v39.625c2.578 1.948 5.545 3.402 8.828 4.068z"/></g><path fill="#ffb441" d="M114.76 256.001h26.483v8.828H114.76z"/><g fill="#fab446"><path d="M114.76 238.341h26.483v8.828H114.76z"/><path d="M119.17 243.591h17.655v15.992H119.17z"/></g><path fill="#f5f5f5" d="M75.03 238.341h17.655v75.03H75.03z"/><g fill="#fab446"><path d="M70.62 308.971h26.483v8.828H70.62zM70.62 229.521h26.483v8.828H70.62z"/></g><path fill="#5064aa" d="M66.21 317.791h35.31v8.828H66.21z"/><path fill="#fab446" d="M207.45 308.971h26.483v8.828H207.45z"/><path fill="#5064aa" d="M198.62 317.791h35.31v8.828h-35.31z"/><path fill="#fab446" d="M123.59 220.691h52.966v8.828H123.59z"/><path fill="#ffb441" d="M145.66 194.211h8.828v26.483h-8.828z"/><g fill="#f5f5f5"><path d="M141.241 207.449c-7.302 0-13.241-5.94-13.241-13.241 0-7.302 5.94-13.241 13.241-13.241 7.302 0 13.241 5.94 13.241 13.241.001 7.301-5.939 13.241-13.241 13.241zm0-17.655a4.417 4.417 0 00-4.414 4.414c0 2.435 1.978 4.414 4.414 4.414s4.414-1.978 4.414-4.414a4.417 4.417 0 00-4.414-4.414z"/><path d="M158.897 207.449c-7.302 0-13.241-5.94-13.241-13.241 0-7.302 5.94-13.241 13.241-13.241 7.302 0 13.241 5.94 13.241 13.241s-5.94 13.241-13.241 13.241zm0-17.655a4.417 4.417 0 00-4.414 4.414 4.417 4.417 0 004.414 4.414 4.417 4.417 0 004.414-4.414 4.418 4.418 0 00-4.414-4.414z"/><path d="M176.552 216.277c-7.302 0-13.241-5.94-13.241-13.241 0-7.302 5.94-13.241 13.241-13.241 7.302 0 13.241 5.94 13.241 13.241s-5.94 13.241-13.241 13.241zm0-17.655a4.417 4.417 0 00-4.414 4.414 4.417 4.417 0 004.414 4.414c2.435 0 4.414-1.978 4.414-4.414s-1.979-4.414-4.414-4.414zM123.586 216.277c-7.302 0-13.241-5.94-13.241-13.241 0-7.302 5.94-13.241 13.241-13.241 7.302 0 13.241 5.94 13.241 13.241.001 7.301-5.939 13.241-13.241 13.241zm0-17.655a4.417 4.417 0 00-4.414 4.414c0 2.435 1.978 4.414 4.414 4.414s4.414-1.979 4.414-4.415a4.416 4.416 0 00-4.414-4.413z"/></g><path d="M176.552 291.311v4.414c0 2.434-1.98 4.414-4.414 4.414s-4.414-1.98-4.414-4.414v-4.414h8.828m8.827-8.827h-26.483v13.241c0 7.302 5.94 13.241 13.241 13.241 7.302 0 13.241-5.94 13.241-13.241v-13.241h.001z" fill="#fab446"/><path d="M172.138 264.829a8.829 8.829 0 01-8.828-8.828v-8.828a8.829 8.829 0 0117.656 0v8.828a8.829 8.829 0 01-8.828 8.828z" fill="#ffa0d2"/><circle cx="150.07" cy="273.651" r="13.241" fill="#5064aa"/><path fill="#fab446" d="M145.66 176.551h8.828v26.483h-8.828z"/><path d="M123.586 220.691l-8.828-8.828 5.171-5.171a42.627 42.627 0 0160.28 0l5.171 5.171-8.828 8.828h-52.966z" fill="#c8414b"/><g fill="#ffd250"><circle cx="150.07" cy="211.861" r="4.414"/><circle cx="132.41" cy="211.861" r="4.414"/><circle cx="167.72" cy="211.861" r="4.414"/></g><g fill="#c8414b"><path d="M70.62 256.001h44.14v8.828H70.62zM70.621 291.311l26.482-8.827v-8.828l-26.482 8.828z"/></g></symbol><symbol viewBox="0 0 512 512" id="fr" xmlns="http://www.w3.org/2000/svg"><path d="M170.667 423.721H8.828A8.829 8.829 0 010 414.893V97.1a8.829 8.829 0 018.828-8.828h161.839v335.449z" fill="#41479b"/><path fill="#f5f5f5" d="M170.67 88.277h170.67v335.45H170.67z"/><path d="M503.172 423.721H341.333V88.273h161.839A8.829 8.829 0 01512 97.101v317.793a8.827 8.827 0 01-8.828 8.827z" fill="#ff4b55"/></symbol><symbol viewBox="0 0 512.001 512.001" id="in" xmlns="http://www.w3.org/2000/svg"><path d="M512 200.093H0V97.104a8.829 8.829 0 018.828-8.828h494.345a8.829 8.829 0 018.828 8.828L512 200.093z" fill="#fab446"/><path d="M503.172 423.725H8.828A8.829 8.829 0 010 414.897V311.909h512v102.988a8.828 8.828 0 01-8.828 8.828z" fill="#73af00"/><path fill="#f5f5f5" d="M0 200.091h512v111.81H0z"/><g fill="#41479b"><path d="M256 303.449c-26.164 0-47.448-21.284-47.448-47.448s21.284-47.448 47.448-47.448 47.448 21.284 47.448 47.448-21.284 47.448-47.448 47.448zm0-86.069c-21.298 0-38.621 17.323-38.621 38.621 0 21.298 17.323 38.621 38.621 38.621s38.621-17.323 38.621-38.621c0-21.298-17.323-38.621-38.621-38.621z"/><circle cx="256" cy="256.001" r="5.379"/><path d="M256 256.808l-13.67 1.38-29.364-1.38v-1.614l29.364-1.38 13.67 1.38zM256 256.808l13.67 1.38 29.364-1.38v-1.614l-29.364-1.38-13.67 1.38z"/><path d="M255.193 256.001l-1.38-13.67 1.38-29.364h1.614l1.38 29.364-1.38 13.67zM255.193 256.001l-1.38 13.67 1.38 29.364h1.614l1.38-29.364-1.38-13.67z"/><path d="M255.43 256.571l-10.642-8.689L225 226.142l1.141-1.141 21.74 19.788 8.689 10.642z"/><path d="M255.43 256.571l8.689 10.642 21.74 19.788L287 285.86l-19.788-21.74-10.642-8.689z"/><path d="M255.43 255.431l8.689-10.642 21.74-19.788 1.141 1.141-19.788 21.74-10.642 8.689zM255.43 255.431l-10.642 8.689L225 285.86l1.141 1.141 21.74-19.788 8.689-10.642z"/><path d="M256.309 256.747l-12.102 6.506-27.656 9.962-.618-1.491 26.601-12.512 13.157-3.957z"/><path d="M256.309 256.747l13.157-3.957 26.601-12.512-.618-1.491-27.656 9.962-12.102 6.506z"/><path d="M255.254 256.31l-6.506-12.102-9.962-27.656 1.491-.618 12.512 26.601 3.957 13.157z"/><path d="M255.254 256.31l3.957 13.157 12.512 26.601 1.491-.618-9.962-27.656-6.506-12.102z"/><path d="M255.691 256.747l-13.157-3.957-26.601-12.512.618-1.491 27.656 9.962 12.102 6.506zM255.691 256.747l12.102 6.506 27.656 9.962.618-1.491-26.601-12.512-13.157-3.957z"/><path d="M255.254 255.692l3.957-13.157 12.512-26.601 1.491.618-9.962 27.656-6.506 12.102z"/><path d="M255.254 255.692l-6.506 12.102-9.962 27.656 1.491.618 12.512-26.601 3.957-13.157z"/></g><circle cx="256" cy="256.001" r="7.256" fill="#f5f5f5"/><circle cx="256" cy="256.001" r="4.351" fill="#41479b"/></symbol><symbol viewBox="0 0 512 512" id="it" xmlns="http://www.w3.org/2000/svg"><path d="M170.667 423.721H8.828A8.829 8.829 0 010 414.893V97.1a8.829 8.829 0 018.828-8.828h161.839v335.449z" fill="#73af00"/><path fill="#f5f5f5" d="M170.67 88.277h170.67v335.45H170.67z"/><path d="M503.172 423.721H341.333V88.273h161.839A8.829 8.829 0 01512 97.101v317.793a8.827 8.827 0 01-8.828 8.827z" fill="#ff4b55"/></symbol><symbol viewBox="0 0 512.001 512.001" id="jp" xmlns="http://www.w3.org/2000/svg"><path d="M503.172 423.725H8.828A8.829 8.829 0 010 414.897V97.104a8.829 8.829 0 018.828-8.828h494.345a8.829 8.829 0 018.828 8.828v317.793a8.83 8.83 0 01-8.829 8.828z" fill="#f5f5f5"/><circle cx="256" cy="256.001" r="97.1" fill="#ff4b55"/></symbol><symbol viewBox="0 0 512.001 512.001" id="pl" xmlns="http://www.w3.org/2000/svg"><path d="M0 256h512v158.897a8.829 8.829 0 01-8.828 8.828H8.828A8.829 8.829 0 010 414.897V256z" fill="#ff4b55"/><path d="M512 256H0V97.103a8.829 8.829 0 018.828-8.828h494.345a8.829 8.829 0 018.828 8.828L512 256z" fill="#f5f5f5"/></symbol><symbol viewBox="0 0 512.001 512.001" id="pt" xmlns="http://www.w3.org/2000/svg"><path d="M503.172 423.725H8.828A8.829 8.829 0 010 414.897V97.104a8.829 8.829 0 018.828-8.828h494.345a8.829 8.829 0 018.828 8.828v317.793a8.83 8.83 0 01-8.829 8.828z" fill="#ff4b55"/><path d="M185.379 88.277H8.828A8.828 8.828 0 000 97.104v317.793a8.829 8.829 0 008.828 8.828H185.38V88.277h-.001z" fill="#73af00"/><circle cx="185.45" cy="256.001" r="79.38" fill="#ffe15a"/><path d="M211.932 229.518v35.31c0 14.603-11.88 26.483-26.483 26.483s-26.483-11.88-26.483-26.483v-35.31h52.966m8.827-17.655h-70.621a8.829 8.829 0 00-8.828 8.828v44.138c0 24.376 19.762 44.138 44.138 44.138s44.138-19.762 44.138-44.138v-44.138a8.827 8.827 0 00-8.827-8.828z" fill="#ff4b55"/><path d="M211.932 229.518v35.31c0 14.603-11.88 26.483-26.483 26.483s-26.483-11.88-26.483-26.483v-35.31h52.966" fill="#f5f5f5"/><g fill="#ffe15a"><circle cx="150.07" cy="220.691" r="4.414"/><circle cx="220.69" cy="220.691" r="4.414"/><circle cx="150.07" cy="256.001" r="4.414"/><circle cx="220.69" cy="256.001" r="4.414"/><circle cx="185.38" cy="220.691" r="4.414"/><circle cx="211.88" cy="288.551" r="4.414"/><circle cx="159.4" cy="288.551" r="4.414"/></g><g fill="#41479b"><path d="M191.149 253.763v7.602c0 3.144-2.558 5.702-5.702 5.702s-5.702-2.558-5.702-5.702v-7.602h11.404M191.149 235.741v7.602c0 3.144-2.558 5.702-5.702 5.702s-5.702-2.558-5.702-5.702v-7.602h11.404M191.149 271.97v7.602c0 3.144-2.558 5.702-5.702 5.702s-5.702-2.558-5.702-5.702v-7.602h11.404M206.506 253.763v7.602c0 3.144-2.558 5.702-5.702 5.702s-5.702-2.558-5.702-5.702v-7.602h11.404M175.794 253.763v7.602c0 3.144-2.558 5.702-5.702 5.702s-5.702-2.558-5.702-5.702v-7.602h11.404"/></g></symbol><symbol viewBox="0 0 512.001 512.001" id="ru" xmlns="http://www.w3.org/2000/svg"><path d="M512 200.093H0V97.104a8.829 8.829 0 018.828-8.828h494.345a8.829 8.829 0 018.828 8.828L512 200.093z" fill="#f5f5f5"/><path d="M503.172 423.725H8.828A8.829 8.829 0 010 414.897V311.909h512v102.988a8.828 8.828 0 01-8.828 8.828z" fill="#ff4b55"/><path fill="#41479b" d="M0 200.091h512v111.81H0z"/></symbol><symbol viewBox="0 0 512.001 512.001" id="tr" xmlns="http://www.w3.org/2000/svg"><path d="M503.172 423.725H8.828A8.829 8.829 0 010 414.897V97.104a8.829 8.829 0 018.828-8.828h494.345a8.829 8.829 0 018.828 8.828v317.793a8.83 8.83 0 01-8.829 8.828z" fill="#ff4b55"/><g fill="#f5f5f5"><path d="M253.474 225.753l13.837 18.101 21.606-7.232c1.208-.404 2.236.962 1.512 2.01l-12.939 18.753 13.555 18.314c.758 1.024-.224 2.423-1.444 2.059l-21.834-6.511-13.228 18.55c-.739 1.037-2.375.536-2.406-.737l-.555-22.777-21.73-6.849c-1.215-.383-1.244-2.092-.042-2.515l21.491-7.566-.202-22.783c-.012-1.274 1.606-1.829 2.379-.817zM176.956 326.662c-38.995 0-70.627-31.633-70.627-70.663 0-38.958 31.633-70.662 70.627-70.662 14.508 0 27.887 4.462 39.037 12.014 1.707 1.156 3.656-1.087 2.227-2.573-16.664-17.325-40.248-27.894-66.398-27.001-44.926 1.533-82.118 37.553-84.989 82.413-3.287 51.383 37.399 94.086 88.055 94.086 24.953 0 47.379-10.432 63.393-27.112 1.415-1.473-.538-3.683-2.229-2.537-11.162 7.569-24.563 12.035-39.096 12.035z"/></g></symbol><symbol viewBox="0 0 512 512" id="id" xmlns="http://www.w3.org/2000/svg"><path style="fill:#C8414B;" d="M473.655,88.276H38.345C17.167,88.276,0,105.443,0,126.621V256h512V126.621 C512,105.443,494.833,88.276,473.655,88.276z"/><path style="fill:#F5F5F5;" d="M0,385.379c0,21.177,17.167,38.345,38.345,38.345h435.31c21.177,0,38.345-17.167,38.345-38.345V256H0 V385.379z"/><g></symbol></svg>