<svg width="32" height="48" xmlns="http://www.w3.org/2000/svg"><title>background</title><path fill="none" d="M-1-1h34v50H-1z"/><title>Layer 1</title><path fill="#fbcf3a" d="M28.27 32.8a.457.457 0 0 0-.368-.31l-8.244-1.199-3.687-7.47a.455.455 0 0 0-.816 0l-3.687 7.47-8.244 1.199a.457.457 0 0 0-.253.777l5.966 5.815-1.41 8.211a.457.457 0 0 0 .662.48l7.374-3.876 7.374 3.876a.456.456 0 0 0 .66-.48l-1.407-8.21 5.965-5.816a.456.456 0 0 0 .115-.467z" stroke="null"/><path d="M8.432 23.302a.427.427 0 0 1-.421-.5l1.322-7.707-5.6-5.457a.428.428 0 0 1 .238-.73l7.738-1.124 3.46-7.012a.426.426 0 1 1 .767 0l3.46 7.012 7.739 1.124a.428.428 0 0 1 .237.73l-5.6 5.458 1.322 7.707a.429.429 0 0 1-.62.45l-6.921-3.638-6.922 3.639a.431.431 0 0 1-.199.048zM4.952 9.63l5.139 5.01c.1.098.147.24.123.379L9 22.093l6.354-3.34a.426.426 0 0 1 .398 0l6.353 3.34-1.213-7.074a.428.428 0 0 1 .123-.379l5.14-5.01-7.103-1.032a.428.428 0 0 1-.322-.234l-3.177-6.436-3.177 6.436a.428.428 0 0 1-.322.234L4.95 9.63z" stroke="null"/></svg>